M48
; DRILL file {KiCad 8.0.2-8.0.2-0~ubuntu22.04.1} date 2024-05-30T09:26:36-0600
; FORMAT={-:-/ absolute / inch / decimal}
; #@! TF.CreationDate,2024-05-30T09:26:36-06:00
; #@! TF.GenerationSoftware,Kicad,Pcbnew,8.0.2-8.0.2-0~ubuntu22.04.1
; #@! TF.FileFunction,Plated,1,2,PTH
FMAT,2
INCH
; #@! TA.AperFunction,Plated,PTH,ViaDrill
T1C0.0039
; #@! TA.AperFunction,Plated,PTH,ViaDrill
T2C0.0157
; #@! TA.AperFunction,Plated,PTH,ComponentDrill
T3C0.0197
; #@! TA.AperFunction,Plated,PTH,ComponentDrill
T4C0.0394
; #@! TA.AperFunction,Plated,PTH,ComponentDrill
T5C0.0402
%
G90
G05
T1
X4.5931Y-3.2535
X4.6128Y-3.3519
X4.6719Y-3.234
X4.6817Y-3.411
X4.6913Y-3.2158
X4.7014Y-3.411
X4.7209Y-3.4298
X4.79Y-3.3815
X4.977Y-2.8795
X4.977Y-2.9189
X5.2132Y-3.3608
X5.225Y-3.4002
X5.2919Y-1.5212
X5.3018Y-1.5606
X5.3512Y-1.4624
X5.41Y-1.5901
T2
X5.3707Y-2.9878
X5.3707Y-3.1846
T3
X4.7033Y-3.1846
X4.7781Y-3.1846
T4
X4.576Y-3.7118
X4.676Y-3.7118
X4.776Y-3.7118
X4.876Y-3.7118
X4.976Y-3.7118
X5.076Y-3.7118
X5.176Y-3.7118
T5
X4.582Y-3.0364
X4.582Y-3.5364
M30
