G04 #@! TF.GenerationSoftware,KiCad,Pcbnew,8.0.2-8.0.2-0~ubuntu22.04.1*
G04 #@! TF.CreationDate,2024-05-30T09:26:34-06:00*
G04 #@! TF.ProjectId,sensor_sigfox_1.2,73656e73-6f72-45f7-9369-67666f785f31,rev?*
G04 #@! TF.SameCoordinates,Original*
G04 #@! TF.FileFunction,Copper,L2,Bot*
G04 #@! TF.FilePolarity,Positive*
%FSLAX46Y46*%
G04 Gerber Fmt 4.6, Leading zero omitted, Abs format (unit mm)*
G04 Created by KiCad (PCBNEW 8.0.2-8.0.2-0~ubuntu22.04.1) date 2024-05-30 09:26:34*
%MOMM*%
%LPD*%
G01*
G04 APERTURE LIST*
G04 #@! TA.AperFunction,EtchedComponent*
%ADD10C,0.000000*%
G04 #@! TD*
G04 #@! TA.AperFunction,ComponentPad*
%ADD11C,1.000000*%
G04 #@! TD*
G04 #@! TA.AperFunction,ComponentPad*
%ADD12R,2.000000X2.000000*%
G04 #@! TD*
G04 #@! TA.AperFunction,ComponentPad*
%ADD13C,2.000000*%
G04 #@! TD*
G04 #@! TA.AperFunction,SMDPad,CuDef*
%ADD14R,1.800000X3.000000*%
G04 #@! TD*
G04 #@! TA.AperFunction,ComponentPad*
%ADD15R,1.700000X1.700000*%
G04 #@! TD*
G04 #@! TA.AperFunction,ComponentPad*
%ADD16O,1.700000X1.700000*%
G04 #@! TD*
G04 #@! TA.AperFunction,ViaPad*
%ADD17C,0.300000*%
G04 #@! TD*
G04 #@! TA.AperFunction,ViaPad*
%ADD18C,0.800000*%
G04 #@! TD*
G04 #@! TA.AperFunction,Conductor*
%ADD19C,0.250000*%
G04 #@! TD*
G04 APERTURE END LIST*
G04 #@! TA.AperFunction,EtchedComponent*
G36*
X140965000Y-84789000D02*
G01*
X135365000Y-84789000D01*
X135365000Y-79189000D01*
X140965000Y-79189000D01*
X140965000Y-84789000D01*
G37*
G04 #@! TD.AperFunction*
D10*
G04 #@! TA.AperFunction,EtchedComponent*
G36*
X140965000Y-77389000D02*
G01*
X135365000Y-77389000D01*
X135365000Y-74389000D01*
X140165000Y-74389000D01*
X140165000Y-52889000D01*
X136565000Y-52889000D01*
X136565000Y-72789000D01*
X138565000Y-72789000D01*
X138565000Y-71989000D01*
X137365000Y-71989000D01*
X137365000Y-53689000D01*
X139565000Y-53689000D01*
X139565000Y-73789000D01*
X135365000Y-73789000D01*
X135365000Y-50889000D01*
X140965000Y-50889000D01*
X140965000Y-77389000D01*
G37*
G04 #@! TD.AperFunction*
D11*
X121365000Y-80889000D03*
X119465000Y-80889000D03*
D12*
X116382156Y-77125150D03*
D13*
X116382156Y-89825150D03*
D14*
X136265000Y-75889000D03*
X136265000Y-80689000D03*
D15*
X116230000Y-94280802D03*
D16*
X118770000Y-94280802D03*
X121310000Y-94280802D03*
X123850000Y-94280802D03*
X126390000Y-94280802D03*
X128930000Y-94280802D03*
X131470000Y-94280802D03*
D17*
X135919907Y-37143907D03*
X119910000Y-87118106D03*
X137415000Y-40389000D03*
X121665000Y-85889000D03*
X116665000Y-82639000D03*
D18*
X136415000Y-80889000D03*
D17*
X132415000Y-85364000D03*
X132715000Y-86364000D03*
D18*
X136415000Y-75889000D03*
D17*
X118665000Y-82144000D03*
X126415000Y-73139000D03*
X134415000Y-38639000D03*
X134665000Y-39639000D03*
X126415000Y-74139000D03*
X119159867Y-81682346D03*
X118915000Y-86639000D03*
X119415003Y-86639000D03*
X117165000Y-85139000D03*
D19*
X123850000Y-94280802D02*
X125562000Y-95992802D01*
X125562000Y-95992802D02*
X133415000Y-95992802D01*
X133415000Y-95992802D02*
X133415000Y-92389000D01*
X133415000Y-92389000D02*
X122740000Y-81714000D01*
X122740000Y-81714000D02*
X119159867Y-81714000D01*
X121310000Y-94280802D02*
X120556802Y-94280802D01*
X120556802Y-94280802D02*
X118165000Y-91889000D01*
X118165000Y-86752604D02*
X118165000Y-86139000D01*
X118165000Y-91889000D02*
X118165000Y-91025396D01*
X118165000Y-91025396D02*
X117709305Y-90569701D01*
X118165000Y-86139000D02*
X117165000Y-85139000D01*
X117709305Y-90569701D02*
X117709305Y-87208299D01*
X117709305Y-87208299D02*
X118165000Y-86752604D01*
X126390000Y-94280802D02*
X127565000Y-95455802D01*
X127565000Y-95455802D02*
X132598198Y-95455802D01*
X132598198Y-95455802D02*
X132665000Y-95389000D01*
X132665000Y-95389000D02*
X132665000Y-93639000D01*
X132665000Y-93639000D02*
X121190000Y-82164000D01*
X121190000Y-82164000D02*
X118685000Y-82164000D01*
X118685000Y-82164000D02*
X118665000Y-82144000D01*
X137415000Y-40389000D02*
X138665000Y-41639000D01*
X138665000Y-41639000D02*
X138665000Y-47129380D01*
X118165000Y-82389000D02*
X121665000Y-85889000D01*
X138665000Y-47129380D02*
X135040000Y-50754380D01*
X135040000Y-50754380D02*
X135040000Y-70514000D01*
X135040000Y-70514000D02*
X125490000Y-80064000D01*
X125490000Y-80064000D02*
X119123273Y-80064000D01*
X119123273Y-80064000D02*
X118165000Y-81022273D01*
X118165000Y-81022273D02*
X118165000Y-82389000D01*
X134415000Y-38639000D02*
X134415000Y-39217248D01*
X134415000Y-39217248D02*
X133690000Y-39942248D01*
X133690000Y-39942248D02*
X133690000Y-68174579D01*
X128725579Y-73139000D02*
X126415000Y-73139000D01*
X133690000Y-68174579D02*
X128725579Y-73139000D01*
X134665000Y-39639000D02*
X134140000Y-40164000D01*
X134140000Y-40164000D02*
X134140000Y-68360975D01*
X134140000Y-68360975D02*
X128361975Y-74139000D01*
X128361975Y-74139000D02*
X126415000Y-74139000D01*
X119910000Y-87118106D02*
X119910000Y-84770396D01*
X119910000Y-84770396D02*
X117715000Y-82575396D01*
X135919907Y-39055845D02*
X135919907Y-37143907D01*
X117715000Y-82575396D02*
X117715000Y-80835877D01*
X117715000Y-80835877D02*
X118936877Y-79614000D01*
X118936877Y-79614000D02*
X125115000Y-79614000D01*
X125115000Y-79614000D02*
X134590000Y-70139000D01*
X134590000Y-70139000D02*
X134590000Y-40385752D01*
X134590000Y-40385752D02*
X135919907Y-39055845D01*
X119415003Y-86639000D02*
X119415003Y-87889000D01*
X119415003Y-87889000D02*
X122915000Y-87889000D01*
X122915000Y-87889000D02*
X127681802Y-92655802D01*
X127681802Y-92655802D02*
X129845000Y-92655802D01*
X129845000Y-92655802D02*
X131470000Y-94280802D01*
X116665000Y-82639000D02*
X116665000Y-76889000D01*
X132415000Y-85364000D02*
X132715000Y-85664000D01*
X132715000Y-85664000D02*
X132715000Y-86364000D01*
X118165000Y-90389000D02*
X120881802Y-93105802D01*
X118915000Y-86639000D02*
X118165000Y-87389000D01*
X127755000Y-93105802D02*
X128930000Y-94280802D01*
X120881802Y-93105802D02*
X127755000Y-93105802D01*
X118165000Y-87389000D02*
X118165000Y-90389000D01*
M02*
