G04 #@! TF.GenerationSoftware,KiCad,Pcbnew,8.0.2-8.0.2-0~ubuntu22.04.1*
G04 #@! TF.CreationDate,2024-06-04T22:33:19-06:00*
G04 #@! TF.ProjectId,sensor_sigfox_1.2,73656e73-6f72-45f7-9369-67666f785f31,rev?*
G04 #@! TF.SameCoordinates,Original*
G04 #@! TF.FileFunction,Copper,L2,Bot*
G04 #@! TF.FilePolarity,Positive*
%FSLAX46Y46*%
G04 Gerber Fmt 4.6, Leading zero omitted, Abs format (unit mm)*
G04 Created by KiCad (PCBNEW 8.0.2-8.0.2-0~ubuntu22.04.1) date 2024-06-04 22:33:19*
%MOMM*%
%LPD*%
G01*
G04 APERTURE LIST*
G04 #@! TA.AperFunction,EtchedComponent*
%ADD10C,0.000000*%
G04 #@! TD*
G04 #@! TA.AperFunction,ComponentPad*
%ADD11C,1.000000*%
G04 #@! TD*
G04 #@! TA.AperFunction,ComponentPad*
%ADD12R,2.000000X2.000000*%
G04 #@! TD*
G04 #@! TA.AperFunction,ComponentPad*
%ADD13C,2.000000*%
G04 #@! TD*
G04 #@! TA.AperFunction,SMDPad,CuDef*
%ADD14R,1.800000X3.000000*%
G04 #@! TD*
G04 #@! TA.AperFunction,ComponentPad*
%ADD15R,1.700000X1.700000*%
G04 #@! TD*
G04 #@! TA.AperFunction,ComponentPad*
%ADD16O,1.700000X1.700000*%
G04 #@! TD*
G04 #@! TA.AperFunction,ViaPad*
%ADD17C,0.800000*%
G04 #@! TD*
G04 #@! TA.AperFunction,ViaPad*
%ADD18C,0.300000*%
G04 #@! TD*
G04 #@! TA.AperFunction,ViaPad*
%ADD19C,0.600000*%
G04 #@! TD*
G04 #@! TA.AperFunction,Conductor*
%ADD20C,0.250000*%
G04 #@! TD*
G04 APERTURE END LIST*
G04 #@! TA.AperFunction,EtchedComponent*
G36*
X140965000Y-84789000D02*
G01*
X135365000Y-84789000D01*
X135365000Y-79189000D01*
X140965000Y-79189000D01*
X140965000Y-84789000D01*
G37*
G04 #@! TD.AperFunction*
D10*
G04 #@! TA.AperFunction,EtchedComponent*
G36*
X140965000Y-77389000D02*
G01*
X135365000Y-77389000D01*
X135365000Y-74389000D01*
X140165000Y-74389000D01*
X140165000Y-52889000D01*
X136565000Y-52889000D01*
X136565000Y-72789000D01*
X138565000Y-72789000D01*
X138565000Y-71989000D01*
X137365000Y-71989000D01*
X137365000Y-53689000D01*
X139565000Y-53689000D01*
X139565000Y-73789000D01*
X135365000Y-73789000D01*
X135365000Y-50889000D01*
X140965000Y-50889000D01*
X140965000Y-77389000D01*
G37*
G04 #@! TD.AperFunction*
D11*
X121365000Y-80889000D03*
X119465000Y-80889000D03*
D12*
X116382156Y-77125150D03*
D13*
X116382156Y-89825150D03*
D14*
X136265000Y-75889000D03*
X136265000Y-80689000D03*
D15*
X116230000Y-94139000D03*
D16*
X118770000Y-94139000D03*
X121310000Y-94139000D03*
X123850000Y-94139000D03*
X126390000Y-94139000D03*
X128930000Y-94139000D03*
X131470000Y-94139000D03*
D17*
X137440000Y-41164000D03*
X118873397Y-82439000D03*
X118165000Y-81389000D03*
X126915000Y-86389000D03*
X118216777Y-85837223D03*
X117415000Y-84889000D03*
X115665000Y-83139000D03*
X126915000Y-74114000D03*
X126915000Y-73113997D03*
X136415000Y-80889000D03*
D18*
X132415000Y-85364000D03*
X132715000Y-86364000D03*
D17*
X136415000Y-75889000D03*
X134665000Y-39139000D03*
X134920283Y-40608412D03*
D19*
X121915000Y-85914000D03*
X118915000Y-86639000D03*
X119665000Y-87139000D03*
D18*
X135919907Y-37143907D03*
D20*
X134665000Y-39139000D02*
X134493248Y-39139000D01*
X134493248Y-39139000D02*
X133690000Y-39942248D01*
X133690000Y-39942248D02*
X133690000Y-68174579D01*
X133690000Y-68174579D02*
X128750582Y-73113997D01*
X128750582Y-73113997D02*
X126915000Y-73113997D01*
X134920283Y-40608412D02*
X134140000Y-41388695D01*
X134140000Y-41388695D02*
X134140000Y-68360975D01*
X134140000Y-68360975D02*
X128386975Y-74114000D01*
X128386975Y-74114000D02*
X126915000Y-74114000D01*
X119665000Y-87139000D02*
X119665000Y-86113695D01*
X119665000Y-86113695D02*
X117715305Y-84164000D01*
X117715305Y-84164000D02*
X116415000Y-84164000D01*
X125115000Y-79614000D02*
X134590000Y-70139000D01*
X116415000Y-84164000D02*
X116415000Y-81139000D01*
X116415000Y-81139000D02*
X117940000Y-79614000D01*
X134590000Y-70139000D02*
X134590000Y-41964000D01*
X134590000Y-41964000D02*
X135919907Y-40634093D01*
X117940000Y-79614000D02*
X125115000Y-79614000D01*
X135919907Y-40634093D02*
X135919907Y-37143907D01*
X125490000Y-80064000D02*
X118126396Y-80064000D01*
X138665000Y-47129380D02*
X135040000Y-50754380D01*
X116865000Y-81325396D02*
X116865000Y-82589000D01*
X135040000Y-70514000D02*
X125490000Y-80064000D01*
X120190000Y-85914000D02*
X121915000Y-85914000D01*
X138665000Y-43914000D02*
X138665000Y-47129380D01*
X118126396Y-80064000D02*
X116865000Y-81325396D01*
X137440000Y-41164000D02*
X137440000Y-42689000D01*
X135040000Y-50754380D02*
X135040000Y-70514000D01*
X116865000Y-82589000D02*
X120190000Y-85914000D01*
X137440000Y-42689000D02*
X138665000Y-43914000D01*
X127565000Y-95455802D02*
X126390000Y-94280802D01*
X132598198Y-95455802D02*
X127565000Y-95455802D01*
X132665000Y-95389000D02*
X132598198Y-95455802D01*
X132665000Y-93639000D02*
X132665000Y-95389000D01*
X121190000Y-82164000D02*
X132665000Y-93639000D01*
X118873397Y-82439000D02*
X119148397Y-82164000D01*
X119148397Y-82164000D02*
X121190000Y-82164000D01*
X115665000Y-83139000D02*
X115665000Y-77842306D01*
X115665000Y-77842306D02*
X116382156Y-77125150D01*
X118165000Y-81389000D02*
X118415000Y-81639000D01*
X118490000Y-81714000D02*
X118165000Y-81389000D01*
X122240000Y-81714000D02*
X118490000Y-81714000D01*
X126915000Y-86389000D02*
X122240000Y-81714000D01*
X118915000Y-86639000D02*
X118915000Y-87889000D01*
X118915000Y-87889000D02*
X122915000Y-87889000D01*
X122915000Y-87889000D02*
X127681802Y-92655802D01*
X127681802Y-92655802D02*
X129845000Y-92655802D01*
X129845000Y-92655802D02*
X131470000Y-94280802D01*
X118216777Y-85837223D02*
X118216777Y-90389000D01*
X118216777Y-90389000D02*
X124301701Y-90389000D01*
X124301701Y-90389000D02*
X128193503Y-94280802D01*
X128193503Y-94280802D02*
X128930000Y-94280802D01*
X117415000Y-84889000D02*
X117415000Y-86913994D01*
X117709305Y-87208299D02*
X117709305Y-90569701D01*
X117415000Y-86913994D02*
X117709305Y-87208299D01*
X120556802Y-94280802D02*
X121310000Y-94280802D01*
X117709305Y-90569701D02*
X118165000Y-91025396D01*
X119240000Y-92964000D02*
X119256701Y-92964000D01*
X118165000Y-91025396D02*
X118165000Y-91889000D01*
X119256701Y-92964000D02*
X119945000Y-93652299D01*
X118165000Y-91889000D02*
X119240000Y-92964000D01*
X119945000Y-93652299D02*
X119945000Y-93669000D01*
X119945000Y-93669000D02*
X120556802Y-94280802D01*
X132415000Y-85364000D02*
X132715000Y-85664000D01*
X132715000Y-85664000D02*
X132715000Y-86364000D01*
M02*
