M48
; DRILL file {KiCad 8.0.2-8.0.2-0~ubuntu22.04.1} date 2024-06-04T22:33:21-0600
; FORMAT={-:-/ absolute / inch / decimal}
; #@! TF.CreationDate,2024-06-04T22:33:21-06:00
; #@! TF.GenerationSoftware,Kicad,Pcbnew,8.0.2-8.0.2-0~ubuntu22.04.1
; #@! TF.FileFunction,Plated,1,2,PTH
FMAT,2
INCH
; #@! TA.AperFunction,Plated,PTH,ViaDrill
T1C0.0039
; #@! TA.AperFunction,Plated,PTH,ViaDrill
T2C0.0079
; #@! TA.AperFunction,Plated,PTH,ViaDrill
T3C0.0157
; #@! TA.AperFunction,Plated,PTH,ComponentDrill
T4C0.0197
; #@! TA.AperFunction,Plated,PTH,ComponentDrill
T5C0.0394
; #@! TA.AperFunction,Plated,PTH,ComponentDrill
T6C0.0402
%
G90
G05
T1
X5.3512Y-1.4624
T2
X5.2132Y-3.3608
X5.225Y-3.4002
T3
X4.5537Y-3.2732
X4.6226Y-3.3421
X4.6522Y-3.2043
X4.6542Y-3.3794
X4.6801Y-3.2456
X4.6817Y-3.411
X4.7112Y-3.4307
X4.7998Y-3.3824
X4.9967Y-2.8785
X4.9967Y-2.9179
X4.9967Y-3.4011
X5.3018Y-1.5409
X5.3118Y-1.5988
X5.3707Y-2.9878
X5.3707Y-3.1846
X5.411Y-1.6206
T4
X4.7033Y-3.1846
X4.7781Y-3.1846
T5
X4.576Y-3.7063
X4.676Y-3.7063
X4.776Y-3.7063
X4.876Y-3.7063
X4.976Y-3.7063
X5.076Y-3.7063
X5.176Y-3.7063
T6
X4.582Y-3.0364
X4.582Y-3.5364
M30
