G04 #@! TF.GenerationSoftware,KiCad,Pcbnew,8.0.2-8.0.2-0~ubuntu22.04.1*
G04 #@! TF.CreationDate,2024-06-04T22:33:19-06:00*
G04 #@! TF.ProjectId,sensor_sigfox_1.2,73656e73-6f72-45f7-9369-67666f785f31,rev?*
G04 #@! TF.SameCoordinates,Original*
G04 #@! TF.FileFunction,Legend,Bot*
G04 #@! TF.FilePolarity,Positive*
%FSLAX46Y46*%
G04 Gerber Fmt 4.6, Leading zero omitted, Abs format (unit mm)*
G04 Created by KiCad (PCBNEW 8.0.2-8.0.2-0~ubuntu22.04.1) date 2024-06-04 22:33:19*
%MOMM*%
%LPD*%
G01*
G04 APERTURE LIST*
%ADD10C,0.150000*%
%ADD11C,1.000000*%
%ADD12R,2.000000X2.000000*%
%ADD13C,2.000000*%
%ADD14R,1.800000X3.000000*%
%ADD15R,1.700000X1.700000*%
%ADD16O,1.700000X1.700000*%
G04 APERTURE END LIST*
D10*
X116292777Y-92920030D02*
X116292777Y-92158126D01*
X120827824Y-92910030D02*
X121827824Y-92910030D01*
X121827824Y-92910030D02*
X121827824Y-92529078D01*
X121827824Y-92529078D02*
X121780205Y-92433840D01*
X121780205Y-92433840D02*
X121732586Y-92386221D01*
X121732586Y-92386221D02*
X121637348Y-92338602D01*
X121637348Y-92338602D02*
X121494491Y-92338602D01*
X121494491Y-92338602D02*
X121399253Y-92386221D01*
X121399253Y-92386221D02*
X121351634Y-92433840D01*
X121351634Y-92433840D02*
X121304015Y-92529078D01*
X121304015Y-92529078D02*
X121304015Y-92910030D01*
X131956824Y-92859887D02*
X131956824Y-92288459D01*
X130956824Y-92574173D02*
X131956824Y-92574173D01*
X126000063Y-92268602D02*
X125952444Y-92316221D01*
X125952444Y-92316221D02*
X125904824Y-92459078D01*
X125904824Y-92459078D02*
X125904824Y-92554316D01*
X125904824Y-92554316D02*
X125952444Y-92697173D01*
X125952444Y-92697173D02*
X126047682Y-92792411D01*
X126047682Y-92792411D02*
X126142920Y-92840030D01*
X126142920Y-92840030D02*
X126333396Y-92887649D01*
X126333396Y-92887649D02*
X126476253Y-92887649D01*
X126476253Y-92887649D02*
X126666729Y-92840030D01*
X126666729Y-92840030D02*
X126761967Y-92792411D01*
X126761967Y-92792411D02*
X126857205Y-92697173D01*
X126857205Y-92697173D02*
X126904824Y-92554316D01*
X126904824Y-92554316D02*
X126904824Y-92459078D01*
X126904824Y-92459078D02*
X126857205Y-92316221D01*
X126857205Y-92316221D02*
X126809586Y-92268602D01*
X128419824Y-92268602D02*
X128896015Y-92601935D01*
X128419824Y-92840030D02*
X129419824Y-92840030D01*
X129419824Y-92840030D02*
X129419824Y-92459078D01*
X129419824Y-92459078D02*
X129372205Y-92363840D01*
X129372205Y-92363840D02*
X129324586Y-92316221D01*
X129324586Y-92316221D02*
X129229348Y-92268602D01*
X129229348Y-92268602D02*
X129086491Y-92268602D01*
X129086491Y-92268602D02*
X128991253Y-92316221D01*
X128991253Y-92316221D02*
X128943634Y-92363840D01*
X128943634Y-92363840D02*
X128896015Y-92459078D01*
X128896015Y-92459078D02*
X128896015Y-92840030D01*
X123408824Y-92886030D02*
X124408824Y-92886030D01*
X124408824Y-92886030D02*
X124408824Y-92647935D01*
X124408824Y-92647935D02*
X124361205Y-92505078D01*
X124361205Y-92505078D02*
X124265967Y-92409840D01*
X124265967Y-92409840D02*
X124170729Y-92362221D01*
X124170729Y-92362221D02*
X123980253Y-92314602D01*
X123980253Y-92314602D02*
X123837396Y-92314602D01*
X123837396Y-92314602D02*
X123646920Y-92362221D01*
X123646920Y-92362221D02*
X123551682Y-92409840D01*
X123551682Y-92409840D02*
X123456444Y-92505078D01*
X123456444Y-92505078D02*
X123408824Y-92647935D01*
X123408824Y-92647935D02*
X123408824Y-92886030D01*
X118783777Y-92995030D02*
X118783777Y-92233126D01*
X118402824Y-92614078D02*
X119164729Y-92614078D01*
X139331666Y-86448104D02*
X138855476Y-86448104D01*
X139426904Y-86733819D02*
X139093571Y-85733819D01*
X139093571Y-85733819D02*
X138760238Y-86733819D01*
X138426904Y-86210009D02*
X138093571Y-86210009D01*
X137950714Y-86733819D02*
X138426904Y-86733819D01*
X138426904Y-86733819D02*
X138426904Y-85733819D01*
X138426904Y-85733819D02*
X137950714Y-85733819D01*
X136998333Y-86733819D02*
X137569761Y-86733819D01*
X137284047Y-86733819D02*
X137284047Y-85733819D01*
X137284047Y-85733819D02*
X137379285Y-85876676D01*
X137379285Y-85876676D02*
X137474523Y-85971914D01*
X137474523Y-85971914D02*
X137569761Y-86019533D01*
%LPC*%
D11*
X121365000Y-80889000D03*
X119465000Y-80889000D03*
D12*
X116382156Y-77125150D03*
D13*
X116382156Y-89825150D03*
D14*
X136265000Y-75889000D03*
X136265000Y-80689000D03*
D15*
X116230000Y-94139000D03*
D16*
X118770000Y-94139000D03*
X121310000Y-94139000D03*
X123850000Y-94139000D03*
X126390000Y-94139000D03*
X128930000Y-94139000D03*
X131470000Y-94139000D03*
%LPD*%
M02*
