G04 #@! TF.GenerationSoftware,KiCad,Pcbnew,8.0.2-8.0.2-0~ubuntu22.04.1*
G04 #@! TF.CreationDate,2024-05-30T09:26:34-06:00*
G04 #@! TF.ProjectId,sensor_sigfox_1.2,73656e73-6f72-45f7-9369-67666f785f31,rev?*
G04 #@! TF.SameCoordinates,Original*
G04 #@! TF.FileFunction,Copper,L1,Top*
G04 #@! TF.FilePolarity,Positive*
%FSLAX46Y46*%
G04 Gerber Fmt 4.6, Leading zero omitted, Abs format (unit mm)*
G04 Created by KiCad (PCBNEW 8.0.2-8.0.2-0~ubuntu22.04.1) date 2024-05-30 09:26:34*
%MOMM*%
%LPD*%
G01*
G04 APERTURE LIST*
G04 Aperture macros list*
%AMRoundRect*
0 Rectangle with rounded corners*
0 $1 Rounding radius*
0 $2 $3 $4 $5 $6 $7 $8 $9 X,Y pos of 4 corners*
0 Add a 4 corners polygon primitive as box body*
4,1,4,$2,$3,$4,$5,$6,$7,$8,$9,$2,$3,0*
0 Add four circle primitives for the rounded corners*
1,1,$1+$1,$2,$3*
1,1,$1+$1,$4,$5*
1,1,$1+$1,$6,$7*
1,1,$1+$1,$8,$9*
0 Add four rect primitives between the rounded corners*
20,1,$1+$1,$2,$3,$4,$5,0*
20,1,$1+$1,$4,$5,$6,$7,0*
20,1,$1+$1,$6,$7,$8,$9,0*
20,1,$1+$1,$8,$9,$2,$3,0*%
%AMFreePoly0*
4,1,14,0.334644,0.085355,0.385355,0.034644,0.400000,-0.000711,0.400000,-0.050000,0.385355,-0.085355,0.350000,-0.100000,-0.350000,-0.100000,-0.385355,-0.085355,-0.400000,-0.050000,-0.400000,0.050000,-0.385355,0.085355,-0.350000,0.100000,0.299289,0.100000,0.334644,0.085355,0.334644,0.085355,$1*%
%AMFreePoly1*
4,1,14,0.385355,0.085355,0.400000,0.050000,0.400000,0.000711,0.385355,-0.034644,0.334644,-0.085355,0.299289,-0.100000,-0.350000,-0.100000,-0.385355,-0.085355,-0.400000,-0.050000,-0.400000,0.050000,-0.385355,0.085355,-0.350000,0.100000,0.350000,0.100000,0.385355,0.085355,0.385355,0.085355,$1*%
%AMFreePoly2*
4,1,14,0.085355,0.385355,0.100000,0.350000,0.100000,-0.350000,0.085355,-0.385355,0.050000,-0.400000,-0.050000,-0.400000,-0.085355,-0.385355,-0.100000,-0.350000,-0.100000,0.299289,-0.085355,0.334644,-0.034644,0.385355,0.000711,0.400000,0.050000,0.400000,0.085355,0.385355,0.085355,0.385355,$1*%
%AMFreePoly3*
4,1,14,0.034644,0.385355,0.085355,0.334644,0.100000,0.299289,0.100000,-0.350000,0.085355,-0.385355,0.050000,-0.400000,-0.050000,-0.400000,-0.085355,-0.385355,-0.100000,-0.350000,-0.100000,0.350000,-0.085355,0.385355,-0.050000,0.400000,-0.000711,0.400000,0.034644,0.385355,0.034644,0.385355,$1*%
%AMFreePoly4*
4,1,14,0.385355,0.085355,0.400000,0.050000,0.400000,-0.050000,0.385355,-0.085355,0.350000,-0.100000,-0.299289,-0.100000,-0.334644,-0.085355,-0.385355,-0.034644,-0.400000,0.000711,-0.400000,0.050000,-0.385355,0.085355,-0.350000,0.100000,0.350000,0.100000,0.385355,0.085355,0.385355,0.085355,$1*%
%AMFreePoly5*
4,1,14,0.385355,0.085355,0.400000,0.050000,0.400000,-0.050000,0.385355,-0.085355,0.350000,-0.100000,-0.350000,-0.100000,-0.385355,-0.085355,-0.400000,-0.050000,-0.400000,-0.000711,-0.385355,0.034644,-0.334644,0.085355,-0.299289,0.100000,0.350000,0.100000,0.385355,0.085355,0.385355,0.085355,$1*%
%AMFreePoly6*
4,1,14,0.085355,0.385355,0.100000,0.350000,0.100000,-0.299289,0.085355,-0.334644,0.034644,-0.385355,-0.000711,-0.400000,-0.050000,-0.400000,-0.085355,-0.385355,-0.100000,-0.350000,-0.100000,0.350000,-0.085355,0.385355,-0.050000,0.400000,0.050000,0.400000,0.085355,0.385355,0.085355,0.385355,$1*%
%AMFreePoly7*
4,1,14,0.085355,0.385355,0.100000,0.350000,0.100000,-0.350000,0.085355,-0.385355,0.050000,-0.400000,0.000711,-0.400000,-0.034644,-0.385355,-0.085355,-0.334644,-0.100000,-0.299289,-0.100000,0.350000,-0.085355,0.385355,-0.050000,0.400000,0.050000,0.400000,0.085355,0.385355,0.085355,0.385355,$1*%
G04 Aperture macros list end*
G04 #@! TA.AperFunction,ComponentPad*
%ADD10C,1.000000*%
G04 #@! TD*
G04 #@! TA.AperFunction,SMDPad,CuDef*
%ADD11RoundRect,0.250000X-0.337500X-0.475000X0.337500X-0.475000X0.337500X0.475000X-0.337500X0.475000X0*%
G04 #@! TD*
G04 #@! TA.AperFunction,SMDPad,CuDef*
%ADD12RoundRect,0.062500X-0.350000X-0.062500X0.350000X-0.062500X0.350000X0.062500X-0.350000X0.062500X0*%
G04 #@! TD*
G04 #@! TA.AperFunction,SMDPad,CuDef*
%ADD13RoundRect,0.062500X-0.062500X-0.350000X0.062500X-0.350000X0.062500X0.350000X-0.062500X0.350000X0*%
G04 #@! TD*
G04 #@! TA.AperFunction,SMDPad,CuDef*
%ADD14R,1.700000X1.700000*%
G04 #@! TD*
G04 #@! TA.AperFunction,SMDPad,CuDef*
%ADD15RoundRect,0.250000X0.450000X-0.350000X0.450000X0.350000X-0.450000X0.350000X-0.450000X-0.350000X0*%
G04 #@! TD*
G04 #@! TA.AperFunction,SMDPad,CuDef*
%ADD16RoundRect,0.100000X-0.217500X-0.100000X0.217500X-0.100000X0.217500X0.100000X-0.217500X0.100000X0*%
G04 #@! TD*
G04 #@! TA.AperFunction,SMDPad,CuDef*
%ADD17RoundRect,0.250000X-0.475000X0.337500X-0.475000X-0.337500X0.475000X-0.337500X0.475000X0.337500X0*%
G04 #@! TD*
G04 #@! TA.AperFunction,SMDPad,CuDef*
%ADD18RoundRect,0.250000X0.337500X0.475000X-0.337500X0.475000X-0.337500X-0.475000X0.337500X-0.475000X0*%
G04 #@! TD*
G04 #@! TA.AperFunction,SMDPad,CuDef*
%ADD19R,1.000000X0.700000*%
G04 #@! TD*
G04 #@! TA.AperFunction,SMDPad,CuDef*
%ADD20R,0.700000X1.000000*%
G04 #@! TD*
G04 #@! TA.AperFunction,ComponentPad*
%ADD21R,2.000000X2.000000*%
G04 #@! TD*
G04 #@! TA.AperFunction,ComponentPad*
%ADD22C,2.000000*%
G04 #@! TD*
G04 #@! TA.AperFunction,SMDPad,CuDef*
%ADD23FreePoly0,90.000000*%
G04 #@! TD*
G04 #@! TA.AperFunction,SMDPad,CuDef*
%ADD24RoundRect,0.050000X0.050000X-0.350000X0.050000X0.350000X-0.050000X0.350000X-0.050000X-0.350000X0*%
G04 #@! TD*
G04 #@! TA.AperFunction,SMDPad,CuDef*
%ADD25FreePoly1,90.000000*%
G04 #@! TD*
G04 #@! TA.AperFunction,SMDPad,CuDef*
%ADD26FreePoly2,90.000000*%
G04 #@! TD*
G04 #@! TA.AperFunction,SMDPad,CuDef*
%ADD27RoundRect,0.050000X0.350000X-0.050000X0.350000X0.050000X-0.350000X0.050000X-0.350000X-0.050000X0*%
G04 #@! TD*
G04 #@! TA.AperFunction,SMDPad,CuDef*
%ADD28FreePoly3,90.000000*%
G04 #@! TD*
G04 #@! TA.AperFunction,SMDPad,CuDef*
%ADD29FreePoly4,90.000000*%
G04 #@! TD*
G04 #@! TA.AperFunction,SMDPad,CuDef*
%ADD30FreePoly5,90.000000*%
G04 #@! TD*
G04 #@! TA.AperFunction,SMDPad,CuDef*
%ADD31FreePoly6,90.000000*%
G04 #@! TD*
G04 #@! TA.AperFunction,SMDPad,CuDef*
%ADD32FreePoly7,90.000000*%
G04 #@! TD*
G04 #@! TA.AperFunction,ComponentPad*
%ADD33R,1.700000X1.700000*%
G04 #@! TD*
G04 #@! TA.AperFunction,ComponentPad*
%ADD34O,1.700000X1.700000*%
G04 #@! TD*
G04 #@! TA.AperFunction,ViaPad*
%ADD35C,0.300000*%
G04 #@! TD*
G04 #@! TA.AperFunction,ViaPad*
%ADD36C,0.800000*%
G04 #@! TD*
G04 #@! TA.AperFunction,Conductor*
%ADD37C,0.250000*%
G04 #@! TD*
G04 #@! TA.AperFunction,Conductor*
%ADD38C,0.160000*%
G04 #@! TD*
G04 #@! TA.AperFunction,Conductor*
%ADD39C,0.150000*%
G04 #@! TD*
G04 APERTURE END LIST*
D10*
X121365000Y-80889000D03*
X119465000Y-80889000D03*
D11*
X120127500Y-88889000D03*
X122202500Y-88889000D03*
D12*
X135762500Y-37591802D03*
X135762500Y-38091802D03*
X135762500Y-38591802D03*
X135762500Y-39091802D03*
D13*
X136475000Y-39804302D03*
X136975000Y-39804302D03*
X137475000Y-39804302D03*
X137975000Y-39804302D03*
D12*
X138687500Y-39091802D03*
X138687500Y-38591802D03*
X138687500Y-38091802D03*
X138687500Y-37591802D03*
D13*
X137975000Y-36879302D03*
X137475000Y-36879302D03*
X136975000Y-36879302D03*
X136475000Y-36879302D03*
D14*
X137225000Y-38341802D03*
D11*
X120127500Y-90786000D03*
X122202500Y-90786000D03*
D15*
X119415000Y-74139000D03*
X119415000Y-72139000D03*
D16*
X137617000Y-41585802D03*
X136802000Y-41585802D03*
D17*
X119415000Y-76639000D03*
X119415000Y-78714000D03*
X121665000Y-76639000D03*
X121665000Y-78714000D03*
D18*
X138415000Y-90639000D03*
X136340000Y-90639000D03*
D19*
X123555000Y-74839000D03*
X123555000Y-75939000D03*
X123555000Y-77039000D03*
X123555000Y-78139000D03*
X123555000Y-79239000D03*
X123555000Y-80339000D03*
X123555000Y-81439000D03*
X123555000Y-82539000D03*
X123555000Y-83639000D03*
X123555000Y-84739000D03*
X123555000Y-85839000D03*
X123555000Y-86939000D03*
D20*
X126115000Y-87749000D03*
X127215000Y-87749000D03*
X128315000Y-87749000D03*
X129415000Y-87749000D03*
X130515000Y-87749000D03*
X131615000Y-87749000D03*
X132715000Y-87749000D03*
D19*
X135275000Y-86939000D03*
X135275000Y-85839000D03*
X135275000Y-84739000D03*
X135275000Y-83639000D03*
X135275000Y-82539000D03*
X135275000Y-81439000D03*
X135275000Y-80339000D03*
X135275000Y-79239000D03*
X135275000Y-78139000D03*
X135275000Y-77039000D03*
X135275000Y-75939000D03*
X135275000Y-74839000D03*
D21*
X116382156Y-77125150D03*
D22*
X116382156Y-89825150D03*
D15*
X121665000Y-74139000D03*
X121665000Y-72139000D03*
D23*
X119540000Y-85914000D03*
D24*
X119940000Y-85914000D03*
X120340000Y-85914000D03*
X120740000Y-85914000D03*
D25*
X121140000Y-85914000D03*
D26*
X121790000Y-85264000D03*
D27*
X121790000Y-84864000D03*
X121790000Y-84464000D03*
X121790000Y-84064000D03*
D28*
X121790000Y-83664000D03*
D29*
X121140000Y-83014000D03*
D24*
X120740000Y-83014000D03*
X120340000Y-83014000D03*
X119940000Y-83014000D03*
D30*
X119540000Y-83014000D03*
D31*
X118890000Y-83664000D03*
D27*
X118890000Y-84064000D03*
X118890000Y-84464000D03*
X118890000Y-84864000D03*
D32*
X118890000Y-85264000D03*
D14*
X120340000Y-84464000D03*
D33*
X116230000Y-94280802D03*
D34*
X118770000Y-94280802D03*
X121310000Y-94280802D03*
X123850000Y-94280802D03*
X126390000Y-94280802D03*
X128930000Y-94280802D03*
X131470000Y-94280802D03*
D35*
X135919907Y-37143907D03*
X119910000Y-87118106D03*
X137415000Y-40389000D03*
X121665000Y-85889000D03*
X116665000Y-82639000D03*
D36*
X136415000Y-80889000D03*
D35*
X132415000Y-85364000D03*
X132715000Y-86364000D03*
D36*
X136415000Y-75889000D03*
D35*
X118665000Y-82144000D03*
X126415000Y-73139000D03*
X134415000Y-38639000D03*
X134665000Y-39639000D03*
X126415000Y-74139000D03*
X119159867Y-81682346D03*
X118915000Y-86639000D03*
X119415003Y-86639000D03*
X117165000Y-85139000D03*
D37*
X119165000Y-81669000D02*
X117331396Y-81669000D01*
X117331396Y-81669000D02*
X114845000Y-79182604D01*
X114845000Y-79182604D02*
X114845000Y-76059000D01*
X114845000Y-76059000D02*
X115765000Y-75139000D01*
X115765000Y-75139000D02*
X120665000Y-75139000D01*
X120665000Y-75139000D02*
X121665000Y-74139000D01*
X135919907Y-37143907D02*
X135919907Y-37434395D01*
X135919907Y-37434395D02*
X135762500Y-37591802D01*
D38*
X119940000Y-87088106D02*
X119910000Y-87118106D01*
X119940000Y-85914000D02*
X119940000Y-87088106D01*
X120340000Y-85914000D02*
X120340000Y-88139000D01*
X120340000Y-88139000D02*
X118415000Y-88139000D01*
D37*
X122202500Y-90786000D02*
X122202500Y-90848302D01*
X122202500Y-90848302D02*
X118770000Y-94280802D01*
D38*
X120915000Y-87139000D02*
X120740000Y-86964000D01*
X120740000Y-86964000D02*
X120740000Y-85914000D01*
D37*
X122202500Y-88426500D02*
X120915000Y-87139000D01*
X122202500Y-88889000D02*
X122202500Y-88426500D01*
X122202500Y-88889000D02*
X124415000Y-88889000D01*
X124415000Y-88889000D02*
X125440000Y-87864000D01*
X125440000Y-87864000D02*
X125440000Y-86924000D01*
X125440000Y-86924000D02*
X126525000Y-85839000D01*
X126525000Y-85839000D02*
X135275000Y-85839000D01*
X120127500Y-90786000D02*
X120127500Y-88889000D01*
X122202500Y-90786000D02*
X122202500Y-88889000D01*
X120127500Y-90786000D02*
X119724802Y-90786000D01*
X119724802Y-90786000D02*
X118415000Y-92095802D01*
X118415000Y-87060752D02*
X118415000Y-88139000D01*
X118415000Y-88139000D02*
X118415000Y-92095802D01*
X121665000Y-85889000D02*
X121640000Y-85914000D01*
X137475000Y-40329000D02*
X137415000Y-40389000D01*
X121640000Y-85914000D02*
X121165000Y-85914000D01*
X137475000Y-39804302D02*
X137475000Y-40329000D01*
X133940000Y-39664000D02*
X135165000Y-40889000D01*
X135165000Y-40889000D02*
X137725000Y-40889000D01*
X137725000Y-40889000D02*
X137975000Y-40639000D01*
D38*
X119540000Y-86514003D02*
X119540000Y-85914000D01*
X119415003Y-86639000D02*
X119540000Y-86514003D01*
D37*
X136415000Y-79629000D02*
X136025000Y-79239000D01*
X135275000Y-77039000D02*
X134525000Y-77039000D01*
X137405199Y-42389000D02*
X139875000Y-42389000D01*
D38*
X136475000Y-39091802D02*
X137225000Y-38341802D01*
D37*
X116665000Y-85310752D02*
X118415000Y-87060752D01*
X116665000Y-82639000D02*
X116665000Y-85310752D01*
X135275000Y-79239000D02*
X135275000Y-78139000D01*
X136025000Y-84739000D02*
X136100000Y-84814000D01*
X118415000Y-92095802D02*
X116230000Y-94280802D01*
X135275000Y-77039000D02*
X135275000Y-78139000D01*
X130665000Y-74839000D02*
X130665000Y-74025396D01*
X123555000Y-78139000D02*
X123555000Y-74839000D01*
D39*
X137475000Y-38591802D02*
X137225000Y-38341802D01*
D37*
X134450000Y-76964000D02*
X134450000Y-74914000D01*
X119415000Y-76639000D02*
X121665000Y-76639000D01*
X133975000Y-70715396D02*
X133975000Y-43079000D01*
X137925000Y-37641802D02*
X137225000Y-38341802D01*
X136415000Y-83999000D02*
X135675000Y-84739000D01*
X139875000Y-42389000D02*
X139875000Y-37661802D01*
X134665000Y-42389000D02*
X139875000Y-42389000D01*
X137925000Y-36929302D02*
X137925000Y-37641802D01*
X123165000Y-78139000D02*
X123555000Y-78139000D01*
X139092500Y-36879302D02*
X137975000Y-36879302D01*
X123555000Y-74839000D02*
X130665000Y-74839000D01*
X134525000Y-77039000D02*
X134450000Y-76964000D01*
X121665000Y-76639000D02*
X123165000Y-78139000D01*
D39*
X137975000Y-37591802D02*
X137225000Y-38341802D01*
D37*
X136100000Y-86864000D02*
X136025000Y-86939000D01*
D39*
X136475000Y-37591802D02*
X137225000Y-38341802D01*
D37*
X130665000Y-74839000D02*
X135275000Y-74839000D01*
X135275000Y-86939000D02*
X138415000Y-90079000D01*
X138415000Y-90079000D02*
X138415000Y-90639000D01*
X116915000Y-76639000D02*
X116665000Y-76889000D01*
X139875000Y-37661802D02*
X139092500Y-36879302D01*
X134450000Y-74914000D02*
X134525000Y-74839000D01*
X137975000Y-36879302D02*
X137925000Y-36929302D01*
X133975000Y-43079000D02*
X134665000Y-42389000D01*
X136415000Y-80889000D02*
X136415000Y-83999000D01*
X136415000Y-80889000D02*
X136415000Y-79629000D01*
X135675000Y-84739000D02*
X135275000Y-84739000D01*
D39*
X137975000Y-39091802D02*
X137225000Y-38341802D01*
D38*
X120340000Y-85914000D02*
X120340000Y-84464000D01*
D37*
X130665000Y-74025396D02*
X133975000Y-70715396D01*
D39*
X137475000Y-38091802D02*
X137225000Y-38341802D01*
D37*
X136100000Y-84814000D02*
X136100000Y-86864000D01*
X119415000Y-76639000D02*
X116915000Y-76639000D01*
X137950000Y-37616802D02*
X137225000Y-38341802D01*
X136025000Y-86939000D02*
X135275000Y-86939000D01*
X136802000Y-41785801D02*
X137405199Y-42389000D01*
X135275000Y-84739000D02*
X136025000Y-84739000D01*
X134525000Y-74839000D02*
X135275000Y-74839000D01*
X136025000Y-79239000D02*
X135275000Y-79239000D01*
X136802000Y-41585802D02*
X136802000Y-41785801D01*
X135762500Y-38091802D02*
X135165000Y-38091802D01*
X139425000Y-39316542D02*
X139425000Y-38367062D01*
X113915000Y-86839000D02*
X116665000Y-89589000D01*
X139425000Y-38367062D02*
X139149740Y-38091802D01*
X137975000Y-40639000D02*
X137975000Y-39804302D01*
X133940000Y-39664000D02*
X133525000Y-40079000D01*
X133525000Y-40079000D02*
X133525000Y-68339579D01*
X136699740Y-36141802D02*
X136250260Y-36141802D01*
X134450000Y-86354000D02*
X134965000Y-85839000D01*
X137975000Y-41227802D02*
X137975000Y-40639000D01*
X138937240Y-39804302D02*
X139425000Y-39316542D01*
X133940000Y-38442248D02*
X133940000Y-39664000D01*
X133525000Y-68339579D02*
X129725579Y-72139000D01*
X129725579Y-72139000D02*
X121665000Y-72139000D01*
X137617000Y-41585802D02*
X137975000Y-41227802D01*
X137975000Y-39804302D02*
X138937240Y-39804302D01*
X134450000Y-88749000D02*
X134450000Y-86354000D01*
X135762500Y-38091802D02*
X134290446Y-38091802D01*
X119415000Y-72139000D02*
X116415000Y-72139000D01*
X116415000Y-72139000D02*
X113915000Y-74639000D01*
X135025000Y-37367062D02*
X135025000Y-37951802D01*
X134965000Y-85839000D02*
X135275000Y-85839000D01*
X116665000Y-89589000D02*
X115055000Y-91199000D01*
X139149740Y-38091802D02*
X138687500Y-38091802D01*
X136340000Y-90639000D02*
X134450000Y-88749000D01*
X115055000Y-95779000D02*
X115165000Y-95889000D01*
X117161802Y-95889000D02*
X118770000Y-94280802D01*
X135025000Y-37951802D02*
X135165000Y-38091802D01*
X136975000Y-36879302D02*
X136975000Y-36417062D01*
X136975000Y-36417062D02*
X136699740Y-36141802D01*
X115165000Y-95889000D02*
X117161802Y-95889000D01*
X136250260Y-36141802D02*
X135025000Y-37367062D01*
X134290446Y-38091802D02*
X133940000Y-38442248D01*
X115055000Y-91199000D02*
X115055000Y-95779000D01*
X113915000Y-74639000D02*
X113915000Y-86839000D01*
D38*
X138687500Y-38091802D02*
X138687500Y-37591802D01*
D37*
X121665000Y-72139000D02*
X119415000Y-72139000D01*
X119465000Y-78764000D02*
X119415000Y-78714000D01*
D38*
X119465000Y-80889000D02*
X120740000Y-82164000D01*
D37*
X119465000Y-80889000D02*
X119465000Y-78764000D01*
D38*
X120740000Y-82164000D02*
X120740000Y-83014000D01*
D37*
X132715000Y-86364000D02*
X132715000Y-87749000D01*
X124915000Y-86812604D02*
X126338604Y-85389000D01*
X124380000Y-87614000D02*
X124915000Y-87079000D01*
D38*
X121790000Y-84864000D02*
X122640000Y-84864000D01*
D37*
X124915000Y-87079000D02*
X124915000Y-86812604D01*
X122665000Y-87549000D02*
X122730000Y-87614000D01*
X126338604Y-85389000D02*
X132415000Y-85389000D01*
X122730000Y-87614000D02*
X124380000Y-87614000D01*
D38*
X122640000Y-84864000D02*
X122665000Y-84889000D01*
D37*
X122665000Y-84889000D02*
X122665000Y-87549000D01*
X136365000Y-75939000D02*
X136415000Y-75889000D01*
X135275000Y-75939000D02*
X136365000Y-75939000D01*
X114395000Y-75093802D02*
X115349802Y-74139000D01*
X118665000Y-82139000D02*
X117165000Y-82139000D01*
X134415000Y-38639000D02*
X135715302Y-38639000D01*
X120415000Y-73139000D02*
X126415000Y-73139000D01*
D38*
X119940000Y-82533706D02*
X119545294Y-82139000D01*
D37*
X117165000Y-82139000D02*
X114395000Y-79369000D01*
D38*
X119940000Y-83014000D02*
X119940000Y-82533706D01*
X119545294Y-82139000D02*
X118665000Y-82139000D01*
D37*
X119415000Y-74139000D02*
X120415000Y-73139000D01*
X135715302Y-38639000D02*
X135762500Y-38591802D01*
X114395000Y-79369000D02*
X114395000Y-75093802D01*
X115349802Y-74139000D02*
X119415000Y-74139000D01*
X118665000Y-82139000D02*
X118665000Y-82144000D01*
X136309698Y-39639000D02*
X136475000Y-39804302D01*
X121665000Y-74139000D02*
X126415000Y-74139000D01*
X119165000Y-81669000D02*
X119165000Y-81677213D01*
X134665000Y-39639000D02*
X136309698Y-39639000D01*
D38*
X119584410Y-81669000D02*
X120340000Y-82424590D01*
X119165000Y-81669000D02*
X119584410Y-81669000D01*
X120340000Y-82424590D02*
X120340000Y-83014000D01*
D37*
X119165000Y-81677213D02*
X119159867Y-81682346D01*
X128930000Y-90154000D02*
X128315000Y-89539000D01*
D38*
X118890000Y-86614000D02*
X118915000Y-86639000D01*
X118890000Y-85264000D02*
X118890000Y-86614000D01*
D37*
X128930000Y-94280802D02*
X128930000Y-90154000D01*
X128315000Y-89539000D02*
X128315000Y-87749000D01*
X127215000Y-87749000D02*
X127215000Y-89189000D01*
X128443299Y-95455802D02*
X130295000Y-95455802D01*
X130295000Y-95455802D02*
X131470000Y-94280802D01*
X127755000Y-89729000D02*
X127755000Y-94767503D01*
X127755000Y-94767503D02*
X128443299Y-95455802D01*
X127215000Y-89189000D02*
X127755000Y-89729000D01*
D38*
X117440000Y-84864000D02*
X118890000Y-84864000D01*
X117165000Y-85139000D02*
X117440000Y-84864000D01*
X121140000Y-83014000D02*
X121140000Y-81114000D01*
D37*
X121365000Y-79014000D02*
X121665000Y-78714000D01*
X121365000Y-80889000D02*
X121365000Y-79014000D01*
D38*
X121140000Y-81114000D02*
X121365000Y-80889000D01*
M02*
