G04 #@! TF.GenerationSoftware,KiCad,Pcbnew,8.0.2-8.0.2-0~ubuntu22.04.1*
G04 #@! TF.CreationDate,2024-05-30T09:26:34-06:00*
G04 #@! TF.ProjectId,sensor_sigfox_1.2,73656e73-6f72-45f7-9369-67666f785f31,rev?*
G04 #@! TF.SameCoordinates,Original*
G04 #@! TF.FileFunction,Legend,Top*
G04 #@! TF.FilePolarity,Positive*
%FSLAX46Y46*%
G04 Gerber Fmt 4.6, Leading zero omitted, Abs format (unit mm)*
G04 Created by KiCad (PCBNEW 8.0.2-8.0.2-0~ubuntu22.04.1) date 2024-05-30 09:26:34*
%MOMM*%
%LPD*%
G01*
G04 APERTURE LIST*
G04 Aperture macros list*
%AMRoundRect*
0 Rectangle with rounded corners*
0 $1 Rounding radius*
0 $2 $3 $4 $5 $6 $7 $8 $9 X,Y pos of 4 corners*
0 Add a 4 corners polygon primitive as box body*
4,1,4,$2,$3,$4,$5,$6,$7,$8,$9,$2,$3,0*
0 Add four circle primitives for the rounded corners*
1,1,$1+$1,$2,$3*
1,1,$1+$1,$4,$5*
1,1,$1+$1,$6,$7*
1,1,$1+$1,$8,$9*
0 Add four rect primitives between the rounded corners*
20,1,$1+$1,$2,$3,$4,$5,0*
20,1,$1+$1,$4,$5,$6,$7,0*
20,1,$1+$1,$6,$7,$8,$9,0*
20,1,$1+$1,$8,$9,$2,$3,0*%
%AMFreePoly0*
4,1,14,0.334644,0.085355,0.385355,0.034644,0.400000,-0.000711,0.400000,-0.050000,0.385355,-0.085355,0.350000,-0.100000,-0.350000,-0.100000,-0.385355,-0.085355,-0.400000,-0.050000,-0.400000,0.050000,-0.385355,0.085355,-0.350000,0.100000,0.299289,0.100000,0.334644,0.085355,0.334644,0.085355,$1*%
%AMFreePoly1*
4,1,14,0.385355,0.085355,0.400000,0.050000,0.400000,0.000711,0.385355,-0.034644,0.334644,-0.085355,0.299289,-0.100000,-0.350000,-0.100000,-0.385355,-0.085355,-0.400000,-0.050000,-0.400000,0.050000,-0.385355,0.085355,-0.350000,0.100000,0.350000,0.100000,0.385355,0.085355,0.385355,0.085355,$1*%
%AMFreePoly2*
4,1,14,0.085355,0.385355,0.100000,0.350000,0.100000,-0.350000,0.085355,-0.385355,0.050000,-0.400000,-0.050000,-0.400000,-0.085355,-0.385355,-0.100000,-0.350000,-0.100000,0.299289,-0.085355,0.334644,-0.034644,0.385355,0.000711,0.400000,0.050000,0.400000,0.085355,0.385355,0.085355,0.385355,$1*%
%AMFreePoly3*
4,1,14,0.034644,0.385355,0.085355,0.334644,0.100000,0.299289,0.100000,-0.350000,0.085355,-0.385355,0.050000,-0.400000,-0.050000,-0.400000,-0.085355,-0.385355,-0.100000,-0.350000,-0.100000,0.350000,-0.085355,0.385355,-0.050000,0.400000,-0.000711,0.400000,0.034644,0.385355,0.034644,0.385355,$1*%
%AMFreePoly4*
4,1,14,0.385355,0.085355,0.400000,0.050000,0.400000,-0.050000,0.385355,-0.085355,0.350000,-0.100000,-0.299289,-0.100000,-0.334644,-0.085355,-0.385355,-0.034644,-0.400000,0.000711,-0.400000,0.050000,-0.385355,0.085355,-0.350000,0.100000,0.350000,0.100000,0.385355,0.085355,0.385355,0.085355,$1*%
%AMFreePoly5*
4,1,14,0.385355,0.085355,0.400000,0.050000,0.400000,-0.050000,0.385355,-0.085355,0.350000,-0.100000,-0.350000,-0.100000,-0.385355,-0.085355,-0.400000,-0.050000,-0.400000,-0.000711,-0.385355,0.034644,-0.334644,0.085355,-0.299289,0.100000,0.350000,0.100000,0.385355,0.085355,0.385355,0.085355,$1*%
%AMFreePoly6*
4,1,14,0.085355,0.385355,0.100000,0.350000,0.100000,-0.299289,0.085355,-0.334644,0.034644,-0.385355,-0.000711,-0.400000,-0.050000,-0.400000,-0.085355,-0.385355,-0.100000,-0.350000,-0.100000,0.350000,-0.085355,0.385355,-0.050000,0.400000,0.050000,0.400000,0.085355,0.385355,0.085355,0.385355,$1*%
%AMFreePoly7*
4,1,14,0.085355,0.385355,0.100000,0.350000,0.100000,-0.350000,0.085355,-0.385355,0.050000,-0.400000,0.000711,-0.400000,-0.034644,-0.385355,-0.085355,-0.334644,-0.100000,-0.299289,-0.100000,0.350000,-0.085355,0.385355,-0.050000,0.400000,0.050000,0.400000,0.085355,0.385355,0.085355,0.385355,$1*%
G04 Aperture macros list end*
%ADD10C,0.150000*%
%ADD11C,0.254000*%
%ADD12C,0.120000*%
%ADD13C,0.200000*%
%ADD14C,0.100000*%
%ADD15C,1.000000*%
%ADD16RoundRect,0.250000X-0.337500X-0.475000X0.337500X-0.475000X0.337500X0.475000X-0.337500X0.475000X0*%
%ADD17RoundRect,0.062500X-0.350000X-0.062500X0.350000X-0.062500X0.350000X0.062500X-0.350000X0.062500X0*%
%ADD18RoundRect,0.062500X-0.062500X-0.350000X0.062500X-0.350000X0.062500X0.350000X-0.062500X0.350000X0*%
%ADD19R,1.700000X1.700000*%
%ADD20RoundRect,0.250000X0.450000X-0.350000X0.450000X0.350000X-0.450000X0.350000X-0.450000X-0.350000X0*%
%ADD21RoundRect,0.100000X-0.217500X-0.100000X0.217500X-0.100000X0.217500X0.100000X-0.217500X0.100000X0*%
%ADD22RoundRect,0.250000X-0.475000X0.337500X-0.475000X-0.337500X0.475000X-0.337500X0.475000X0.337500X0*%
%ADD23RoundRect,0.250000X0.337500X0.475000X-0.337500X0.475000X-0.337500X-0.475000X0.337500X-0.475000X0*%
%ADD24R,1.000000X0.700000*%
%ADD25R,0.700000X1.000000*%
%ADD26R,2.000000X2.000000*%
%ADD27C,2.000000*%
%ADD28FreePoly0,90.000000*%
%ADD29RoundRect,0.050000X0.050000X-0.350000X0.050000X0.350000X-0.050000X0.350000X-0.050000X-0.350000X0*%
%ADD30FreePoly1,90.000000*%
%ADD31FreePoly2,90.000000*%
%ADD32RoundRect,0.050000X0.350000X-0.050000X0.350000X0.050000X-0.350000X0.050000X-0.350000X-0.050000X0*%
%ADD33FreePoly3,90.000000*%
%ADD34FreePoly4,90.000000*%
%ADD35FreePoly5,90.000000*%
%ADD36FreePoly6,90.000000*%
%ADD37FreePoly7,90.000000*%
%ADD38O,1.700000X1.700000*%
G04 APERTURE END LIST*
D10*
X116153866Y-93052220D02*
X116153866Y-92290316D01*
X118787345Y-92983068D02*
X118787345Y-92221164D01*
X119168298Y-92602116D02*
X118406393Y-92602116D01*
X120506628Y-78935190D02*
X120982819Y-78935190D01*
X119982819Y-79268523D02*
X120506628Y-78935190D01*
X120506628Y-78935190D02*
X119982819Y-78601857D01*
X120982819Y-77744714D02*
X120982819Y-78316142D01*
X120982819Y-78030428D02*
X119982819Y-78030428D01*
X119982819Y-78030428D02*
X120125676Y-78125666D01*
X120125676Y-78125666D02*
X120220914Y-78220904D01*
X120220914Y-78220904D02*
X120268533Y-78316142D01*
X118847080Y-89025666D02*
X118894700Y-89073285D01*
X118894700Y-89073285D02*
X118942319Y-89216142D01*
X118942319Y-89216142D02*
X118942319Y-89311380D01*
X118942319Y-89311380D02*
X118894700Y-89454237D01*
X118894700Y-89454237D02*
X118799461Y-89549475D01*
X118799461Y-89549475D02*
X118704223Y-89597094D01*
X118704223Y-89597094D02*
X118513747Y-89644713D01*
X118513747Y-89644713D02*
X118370890Y-89644713D01*
X118370890Y-89644713D02*
X118180414Y-89597094D01*
X118180414Y-89597094D02*
X118085176Y-89549475D01*
X118085176Y-89549475D02*
X117989938Y-89454237D01*
X117989938Y-89454237D02*
X117942319Y-89311380D01*
X117942319Y-89311380D02*
X117942319Y-89216142D01*
X117942319Y-89216142D02*
X117989938Y-89073285D01*
X117989938Y-89073285D02*
X118037557Y-89025666D01*
X118942319Y-88073285D02*
X118942319Y-88644713D01*
X118942319Y-88358999D02*
X117942319Y-88358999D01*
X117942319Y-88358999D02*
X118085176Y-88454237D01*
X118085176Y-88454237D02*
X118180414Y-88549475D01*
X118180414Y-88549475D02*
X118228033Y-88644713D01*
X133580095Y-36243621D02*
X133580095Y-37053144D01*
X133580095Y-37053144D02*
X133627714Y-37148382D01*
X133627714Y-37148382D02*
X133675333Y-37196002D01*
X133675333Y-37196002D02*
X133770571Y-37243621D01*
X133770571Y-37243621D02*
X133961047Y-37243621D01*
X133961047Y-37243621D02*
X134056285Y-37196002D01*
X134056285Y-37196002D02*
X134103904Y-37148382D01*
X134103904Y-37148382D02*
X134151523Y-37053144D01*
X134151523Y-37053144D02*
X134151523Y-36243621D01*
X134580095Y-36338859D02*
X134627714Y-36291240D01*
X134627714Y-36291240D02*
X134722952Y-36243621D01*
X134722952Y-36243621D02*
X134961047Y-36243621D01*
X134961047Y-36243621D02*
X135056285Y-36291240D01*
X135056285Y-36291240D02*
X135103904Y-36338859D01*
X135103904Y-36338859D02*
X135151523Y-36434097D01*
X135151523Y-36434097D02*
X135151523Y-36529335D01*
X135151523Y-36529335D02*
X135103904Y-36672192D01*
X135103904Y-36672192D02*
X134532476Y-37243621D01*
X134532476Y-37243621D02*
X135151523Y-37243621D01*
X118846080Y-90983666D02*
X118893700Y-91031285D01*
X118893700Y-91031285D02*
X118941319Y-91174142D01*
X118941319Y-91174142D02*
X118941319Y-91269380D01*
X118941319Y-91269380D02*
X118893700Y-91412237D01*
X118893700Y-91412237D02*
X118798461Y-91507475D01*
X118798461Y-91507475D02*
X118703223Y-91555094D01*
X118703223Y-91555094D02*
X118512747Y-91602713D01*
X118512747Y-91602713D02*
X118369890Y-91602713D01*
X118369890Y-91602713D02*
X118179414Y-91555094D01*
X118179414Y-91555094D02*
X118084176Y-91507475D01*
X118084176Y-91507475D02*
X117988938Y-91412237D01*
X117988938Y-91412237D02*
X117941319Y-91269380D01*
X117941319Y-91269380D02*
X117941319Y-91174142D01*
X117941319Y-91174142D02*
X117988938Y-91031285D01*
X117988938Y-91031285D02*
X118036557Y-90983666D01*
X118036557Y-90602713D02*
X117988938Y-90555094D01*
X117988938Y-90555094D02*
X117941319Y-90459856D01*
X117941319Y-90459856D02*
X117941319Y-90221761D01*
X117941319Y-90221761D02*
X117988938Y-90126523D01*
X117988938Y-90126523D02*
X118036557Y-90078904D01*
X118036557Y-90078904D02*
X118131795Y-90031285D01*
X118131795Y-90031285D02*
X118227033Y-90031285D01*
X118227033Y-90031285D02*
X118369890Y-90078904D01*
X118369890Y-90078904D02*
X118941319Y-90650332D01*
X118941319Y-90650332D02*
X118941319Y-90031285D01*
X117770819Y-73387666D02*
X117294628Y-73720999D01*
X117770819Y-73959094D02*
X116770819Y-73959094D01*
X116770819Y-73959094D02*
X116770819Y-73578142D01*
X116770819Y-73578142D02*
X116818438Y-73482904D01*
X116818438Y-73482904D02*
X116866057Y-73435285D01*
X116866057Y-73435285D02*
X116961295Y-73387666D01*
X116961295Y-73387666D02*
X117104152Y-73387666D01*
X117104152Y-73387666D02*
X117199390Y-73435285D01*
X117199390Y-73435285D02*
X117247009Y-73482904D01*
X117247009Y-73482904D02*
X117294628Y-73578142D01*
X117294628Y-73578142D02*
X117294628Y-73959094D01*
X116866057Y-73006713D02*
X116818438Y-72959094D01*
X116818438Y-72959094D02*
X116770819Y-72863856D01*
X116770819Y-72863856D02*
X116770819Y-72625761D01*
X116770819Y-72625761D02*
X116818438Y-72530523D01*
X116818438Y-72530523D02*
X116866057Y-72482904D01*
X116866057Y-72482904D02*
X116961295Y-72435285D01*
X116961295Y-72435285D02*
X117056533Y-72435285D01*
X117056533Y-72435285D02*
X117199390Y-72482904D01*
X117199390Y-72482904D02*
X117770819Y-73054332D01*
X117770819Y-73054332D02*
X117770819Y-72435285D01*
X137042833Y-40895382D02*
X136995214Y-40943002D01*
X136995214Y-40943002D02*
X136852357Y-40990621D01*
X136852357Y-40990621D02*
X136757119Y-40990621D01*
X136757119Y-40990621D02*
X136614262Y-40943002D01*
X136614262Y-40943002D02*
X136519024Y-40847763D01*
X136519024Y-40847763D02*
X136471405Y-40752525D01*
X136471405Y-40752525D02*
X136423786Y-40562049D01*
X136423786Y-40562049D02*
X136423786Y-40419192D01*
X136423786Y-40419192D02*
X136471405Y-40228716D01*
X136471405Y-40228716D02*
X136519024Y-40133478D01*
X136519024Y-40133478D02*
X136614262Y-40038240D01*
X136614262Y-40038240D02*
X136757119Y-39990621D01*
X136757119Y-39990621D02*
X136852357Y-39990621D01*
X136852357Y-39990621D02*
X136995214Y-40038240D01*
X136995214Y-40038240D02*
X137042833Y-40085859D01*
X137947595Y-39990621D02*
X137471405Y-39990621D01*
X137471405Y-39990621D02*
X137423786Y-40466811D01*
X137423786Y-40466811D02*
X137471405Y-40419192D01*
X137471405Y-40419192D02*
X137566643Y-40371573D01*
X137566643Y-40371573D02*
X137804738Y-40371573D01*
X137804738Y-40371573D02*
X137899976Y-40419192D01*
X137899976Y-40419192D02*
X137947595Y-40466811D01*
X137947595Y-40466811D02*
X137995214Y-40562049D01*
X137995214Y-40562049D02*
X137995214Y-40800144D01*
X137995214Y-40800144D02*
X137947595Y-40895382D01*
X137947595Y-40895382D02*
X137899976Y-40943002D01*
X137899976Y-40943002D02*
X137804738Y-40990621D01*
X137804738Y-40990621D02*
X137566643Y-40990621D01*
X137566643Y-40990621D02*
X137471405Y-40943002D01*
X137471405Y-40943002D02*
X137423786Y-40895382D01*
X119789580Y-74755666D02*
X119837200Y-74803285D01*
X119837200Y-74803285D02*
X119884819Y-74946142D01*
X119884819Y-74946142D02*
X119884819Y-75041380D01*
X119884819Y-75041380D02*
X119837200Y-75184237D01*
X119837200Y-75184237D02*
X119741961Y-75279475D01*
X119741961Y-75279475D02*
X119646723Y-75327094D01*
X119646723Y-75327094D02*
X119456247Y-75374713D01*
X119456247Y-75374713D02*
X119313390Y-75374713D01*
X119313390Y-75374713D02*
X119122914Y-75327094D01*
X119122914Y-75327094D02*
X119027676Y-75279475D01*
X119027676Y-75279475D02*
X118932438Y-75184237D01*
X118932438Y-75184237D02*
X118884819Y-75041380D01*
X118884819Y-75041380D02*
X118884819Y-74946142D01*
X118884819Y-74946142D02*
X118932438Y-74803285D01*
X118932438Y-74803285D02*
X118980057Y-74755666D01*
X119218152Y-73898523D02*
X119884819Y-73898523D01*
X118837200Y-74136618D02*
X119551485Y-74374713D01*
X119551485Y-74374713D02*
X119551485Y-73755666D01*
X122403580Y-80702666D02*
X122451200Y-80750285D01*
X122451200Y-80750285D02*
X122498819Y-80893142D01*
X122498819Y-80893142D02*
X122498819Y-80988380D01*
X122498819Y-80988380D02*
X122451200Y-81131237D01*
X122451200Y-81131237D02*
X122355961Y-81226475D01*
X122355961Y-81226475D02*
X122260723Y-81274094D01*
X122260723Y-81274094D02*
X122070247Y-81321713D01*
X122070247Y-81321713D02*
X121927390Y-81321713D01*
X121927390Y-81321713D02*
X121736914Y-81274094D01*
X121736914Y-81274094D02*
X121641676Y-81226475D01*
X121641676Y-81226475D02*
X121546438Y-81131237D01*
X121546438Y-81131237D02*
X121498819Y-80988380D01*
X121498819Y-80988380D02*
X121498819Y-80893142D01*
X121498819Y-80893142D02*
X121546438Y-80750285D01*
X121546438Y-80750285D02*
X121594057Y-80702666D01*
X121498819Y-80369332D02*
X121498819Y-79750285D01*
X121498819Y-79750285D02*
X121879771Y-80083618D01*
X121879771Y-80083618D02*
X121879771Y-79940761D01*
X121879771Y-79940761D02*
X121927390Y-79845523D01*
X121927390Y-79845523D02*
X121975009Y-79797904D01*
X121975009Y-79797904D02*
X122070247Y-79750285D01*
X122070247Y-79750285D02*
X122308342Y-79750285D01*
X122308342Y-79750285D02*
X122403580Y-79797904D01*
X122403580Y-79797904D02*
X122451200Y-79845523D01*
X122451200Y-79845523D02*
X122498819Y-79940761D01*
X122498819Y-79940761D02*
X122498819Y-80226475D01*
X122498819Y-80226475D02*
X122451200Y-80321713D01*
X122451200Y-80321713D02*
X122403580Y-80369332D01*
X137216333Y-89522580D02*
X137168714Y-89570200D01*
X137168714Y-89570200D02*
X137025857Y-89617819D01*
X137025857Y-89617819D02*
X136930619Y-89617819D01*
X136930619Y-89617819D02*
X136787762Y-89570200D01*
X136787762Y-89570200D02*
X136692524Y-89474961D01*
X136692524Y-89474961D02*
X136644905Y-89379723D01*
X136644905Y-89379723D02*
X136597286Y-89189247D01*
X136597286Y-89189247D02*
X136597286Y-89046390D01*
X136597286Y-89046390D02*
X136644905Y-88855914D01*
X136644905Y-88855914D02*
X136692524Y-88760676D01*
X136692524Y-88760676D02*
X136787762Y-88665438D01*
X136787762Y-88665438D02*
X136930619Y-88617819D01*
X136930619Y-88617819D02*
X137025857Y-88617819D01*
X137025857Y-88617819D02*
X137168714Y-88665438D01*
X137168714Y-88665438D02*
X137216333Y-88713057D01*
X138073476Y-88617819D02*
X137883000Y-88617819D01*
X137883000Y-88617819D02*
X137787762Y-88665438D01*
X137787762Y-88665438D02*
X137740143Y-88713057D01*
X137740143Y-88713057D02*
X137644905Y-88855914D01*
X137644905Y-88855914D02*
X137597286Y-89046390D01*
X137597286Y-89046390D02*
X137597286Y-89427342D01*
X137597286Y-89427342D02*
X137644905Y-89522580D01*
X137644905Y-89522580D02*
X137692524Y-89570200D01*
X137692524Y-89570200D02*
X137787762Y-89617819D01*
X137787762Y-89617819D02*
X137978238Y-89617819D01*
X137978238Y-89617819D02*
X138073476Y-89570200D01*
X138073476Y-89570200D02*
X138121095Y-89522580D01*
X138121095Y-89522580D02*
X138168714Y-89427342D01*
X138168714Y-89427342D02*
X138168714Y-89189247D01*
X138168714Y-89189247D02*
X138121095Y-89094009D01*
X138121095Y-89094009D02*
X138073476Y-89046390D01*
X138073476Y-89046390D02*
X137978238Y-88998771D01*
X137978238Y-88998771D02*
X137787762Y-88998771D01*
X137787762Y-88998771D02*
X137692524Y-89046390D01*
X137692524Y-89046390D02*
X137644905Y-89094009D01*
X137644905Y-89094009D02*
X137597286Y-89189247D01*
D11*
X119355237Y-70744318D02*
X119355237Y-69474318D01*
X120685714Y-70623365D02*
X120625238Y-70683842D01*
X120625238Y-70683842D02*
X120443809Y-70744318D01*
X120443809Y-70744318D02*
X120322857Y-70744318D01*
X120322857Y-70744318D02*
X120141428Y-70683842D01*
X120141428Y-70683842D02*
X120020476Y-70562889D01*
X120020476Y-70562889D02*
X119959999Y-70441937D01*
X119959999Y-70441937D02*
X119899523Y-70200032D01*
X119899523Y-70200032D02*
X119899523Y-70018603D01*
X119899523Y-70018603D02*
X119959999Y-69776699D01*
X119959999Y-69776699D02*
X120020476Y-69655746D01*
X120020476Y-69655746D02*
X120141428Y-69534794D01*
X120141428Y-69534794D02*
X120322857Y-69474318D01*
X120322857Y-69474318D02*
X120443809Y-69474318D01*
X120443809Y-69474318D02*
X120625238Y-69534794D01*
X120625238Y-69534794D02*
X120685714Y-69595270D01*
X121895238Y-70744318D02*
X121169523Y-70744318D01*
X121532380Y-70744318D02*
X121532380Y-69474318D01*
X121532380Y-69474318D02*
X121411428Y-69655746D01*
X121411428Y-69655746D02*
X121290476Y-69776699D01*
X121290476Y-69776699D02*
X121169523Y-69837175D01*
D10*
X115868727Y-74459850D02*
X117011585Y-74459850D01*
X115804727Y-87660850D02*
X116947585Y-87660850D01*
X116376156Y-88232278D02*
X116376156Y-87089421D01*
X123890819Y-73364666D02*
X123414628Y-73697999D01*
X123890819Y-73936094D02*
X122890819Y-73936094D01*
X122890819Y-73936094D02*
X122890819Y-73555142D01*
X122890819Y-73555142D02*
X122938438Y-73459904D01*
X122938438Y-73459904D02*
X122986057Y-73412285D01*
X122986057Y-73412285D02*
X123081295Y-73364666D01*
X123081295Y-73364666D02*
X123224152Y-73364666D01*
X123224152Y-73364666D02*
X123319390Y-73412285D01*
X123319390Y-73412285D02*
X123367009Y-73459904D01*
X123367009Y-73459904D02*
X123414628Y-73555142D01*
X123414628Y-73555142D02*
X123414628Y-73936094D01*
X122890819Y-73031332D02*
X122890819Y-72412285D01*
X122890819Y-72412285D02*
X123271771Y-72745618D01*
X123271771Y-72745618D02*
X123271771Y-72602761D01*
X123271771Y-72602761D02*
X123319390Y-72507523D01*
X123319390Y-72507523D02*
X123367009Y-72459904D01*
X123367009Y-72459904D02*
X123462247Y-72412285D01*
X123462247Y-72412285D02*
X123700342Y-72412285D01*
X123700342Y-72412285D02*
X123795580Y-72459904D01*
X123795580Y-72459904D02*
X123843200Y-72507523D01*
X123843200Y-72507523D02*
X123890819Y-72602761D01*
X123890819Y-72602761D02*
X123890819Y-72888475D01*
X123890819Y-72888475D02*
X123843200Y-72983713D01*
X123843200Y-72983713D02*
X123795580Y-73031332D01*
X122490819Y-83404904D02*
X123300342Y-83404904D01*
X123300342Y-83404904D02*
X123395580Y-83357285D01*
X123395580Y-83357285D02*
X123443200Y-83309666D01*
X123443200Y-83309666D02*
X123490819Y-83214428D01*
X123490819Y-83214428D02*
X123490819Y-83023952D01*
X123490819Y-83023952D02*
X123443200Y-82928714D01*
X123443200Y-82928714D02*
X123395580Y-82881095D01*
X123395580Y-82881095D02*
X123300342Y-82833476D01*
X123300342Y-82833476D02*
X122490819Y-82833476D01*
X123490819Y-81833476D02*
X123490819Y-82404904D01*
X123490819Y-82119190D02*
X122490819Y-82119190D01*
X122490819Y-82119190D02*
X122633676Y-82214428D01*
X122633676Y-82214428D02*
X122728914Y-82309666D01*
X122728914Y-82309666D02*
X122776533Y-82404904D01*
D12*
X119465439Y-80107186D02*
G75*
G02*
X121365000Y-80107719I949561J-781814D01*
G01*
X121365000Y-81670281D02*
G75*
G02*
X119465439Y-81670814I-950000J781281D01*
G01*
X120903748Y-88154000D02*
X121426252Y-88154000D01*
X120903748Y-89624000D02*
X121426252Y-89624000D01*
X135615000Y-39951802D02*
X135615000Y-39476802D01*
X136090000Y-36731802D02*
X135615000Y-36731802D01*
X136090000Y-39951802D02*
X135615000Y-39951802D01*
X138360000Y-36731802D02*
X138835000Y-36731802D01*
X138360000Y-39951802D02*
X138835000Y-39951802D01*
X138835000Y-36731802D02*
X138835000Y-37206802D01*
X138835000Y-39951802D02*
X138835000Y-39476802D01*
X120903748Y-90051000D02*
X121426252Y-90051000D01*
X120903748Y-91521000D02*
X121426252Y-91521000D01*
X118680000Y-73366064D02*
X118680000Y-72911936D01*
X120150000Y-73366064D02*
X120150000Y-72911936D01*
X118680000Y-77415248D02*
X118680000Y-77937752D01*
X120150000Y-77415248D02*
X120150000Y-77937752D01*
X120930000Y-77415248D02*
X120930000Y-77937752D01*
X122400000Y-77415248D02*
X122400000Y-77937752D01*
X137638752Y-89904000D02*
X137116248Y-89904000D01*
X137638752Y-91374000D02*
X137116248Y-91374000D01*
D13*
X122215000Y-74689000D02*
X122215000Y-74689000D01*
X122215000Y-74889000D02*
X122215000Y-74889000D01*
D14*
X122915000Y-68389000D02*
X135915000Y-68389000D01*
X122915000Y-73889000D02*
X122915000Y-68389000D01*
X122915000Y-88389000D02*
X122915000Y-87889000D01*
X124915000Y-88389000D02*
X122915000Y-88389000D01*
X133915000Y-88389000D02*
X135915000Y-88389000D01*
X135915000Y-68389000D02*
X135915000Y-73889000D01*
X135915000Y-88389000D02*
X135915000Y-87889000D01*
D13*
X122215000Y-74689000D02*
G75*
G02*
X122215000Y-74889000I0J-100000D01*
G01*
X122215000Y-74889000D02*
G75*
G02*
X122215000Y-74689000I0J100000D01*
G01*
D12*
X120930000Y-73366064D02*
X120930000Y-72911936D01*
X122400000Y-73366064D02*
X122400000Y-72911936D01*
X118730000Y-82854000D02*
X119180000Y-82854000D01*
X118730000Y-83304000D02*
X118730000Y-82854000D01*
X118730000Y-85624000D02*
X118730000Y-86074000D01*
X121950000Y-82854000D02*
X121500000Y-82854000D01*
X121950000Y-83304000D02*
X121950000Y-82854000D01*
X121950000Y-85624000D02*
X121950000Y-86074000D01*
X121950000Y-86074000D02*
X121500000Y-86074000D01*
%LPC*%
D15*
X121365000Y-80889000D03*
X119465000Y-80889000D03*
D16*
X120127500Y-88889000D03*
X122202500Y-88889000D03*
D17*
X135762500Y-37591802D03*
X135762500Y-38091802D03*
X135762500Y-38591802D03*
X135762500Y-39091802D03*
D18*
X136475000Y-39804302D03*
X136975000Y-39804302D03*
X137475000Y-39804302D03*
X137975000Y-39804302D03*
D17*
X138687500Y-39091802D03*
X138687500Y-38591802D03*
X138687500Y-38091802D03*
X138687500Y-37591802D03*
D18*
X137975000Y-36879302D03*
X137475000Y-36879302D03*
X136975000Y-36879302D03*
X136475000Y-36879302D03*
D19*
X137225000Y-38341802D03*
D16*
X120127500Y-90786000D03*
X122202500Y-90786000D03*
D20*
X119415000Y-74139000D03*
X119415000Y-72139000D03*
D21*
X137617000Y-41585802D03*
X136802000Y-41585802D03*
D22*
X119415000Y-76639000D03*
X119415000Y-78714000D03*
X121665000Y-76639000D03*
X121665000Y-78714000D03*
D23*
X138415000Y-90639000D03*
X136340000Y-90639000D03*
D24*
X123555000Y-74839000D03*
X123555000Y-75939000D03*
X123555000Y-77039000D03*
X123555000Y-78139000D03*
X123555000Y-79239000D03*
X123555000Y-80339000D03*
X123555000Y-81439000D03*
X123555000Y-82539000D03*
X123555000Y-83639000D03*
X123555000Y-84739000D03*
X123555000Y-85839000D03*
X123555000Y-86939000D03*
D25*
X126115000Y-87749000D03*
X127215000Y-87749000D03*
X128315000Y-87749000D03*
X129415000Y-87749000D03*
X130515000Y-87749000D03*
X131615000Y-87749000D03*
X132715000Y-87749000D03*
D24*
X135275000Y-86939000D03*
X135275000Y-85839000D03*
X135275000Y-84739000D03*
X135275000Y-83639000D03*
X135275000Y-82539000D03*
X135275000Y-81439000D03*
X135275000Y-80339000D03*
X135275000Y-79239000D03*
X135275000Y-78139000D03*
X135275000Y-77039000D03*
X135275000Y-75939000D03*
X135275000Y-74839000D03*
D26*
X116382156Y-77125150D03*
D27*
X116382156Y-89825150D03*
D20*
X121665000Y-74139000D03*
X121665000Y-72139000D03*
D28*
X119540000Y-85914000D03*
D29*
X119940000Y-85914000D03*
X120340000Y-85914000D03*
X120740000Y-85914000D03*
D30*
X121140000Y-85914000D03*
D31*
X121790000Y-85264000D03*
D32*
X121790000Y-84864000D03*
X121790000Y-84464000D03*
X121790000Y-84064000D03*
D33*
X121790000Y-83664000D03*
D34*
X121140000Y-83014000D03*
D29*
X120740000Y-83014000D03*
X120340000Y-83014000D03*
X119940000Y-83014000D03*
D35*
X119540000Y-83014000D03*
D36*
X118890000Y-83664000D03*
D32*
X118890000Y-84064000D03*
X118890000Y-84464000D03*
X118890000Y-84864000D03*
D37*
X118890000Y-85264000D03*
D19*
X120340000Y-84464000D03*
X116230000Y-94280802D03*
D38*
X118770000Y-94280802D03*
X121310000Y-94280802D03*
X123850000Y-94280802D03*
X126390000Y-94280802D03*
X128930000Y-94280802D03*
X131470000Y-94280802D03*
%LPD*%
M02*
