G04 #@! TF.GenerationSoftware,KiCad,Pcbnew,8.0.2-8.0.2-0~ubuntu22.04.1*
G04 #@! TF.CreationDate,2024-05-30T09:26:34-06:00*
G04 #@! TF.ProjectId,sensor_sigfox_1.2,73656e73-6f72-45f7-9369-67666f785f31,rev?*
G04 #@! TF.SameCoordinates,Original*
G04 #@! TF.FileFunction,Legend,Bot*
G04 #@! TF.FilePolarity,Positive*
%FSLAX46Y46*%
G04 Gerber Fmt 4.6, Leading zero omitted, Abs format (unit mm)*
G04 Created by KiCad (PCBNEW 8.0.2-8.0.2-0~ubuntu22.04.1) date 2024-05-30 09:26:34*
%MOMM*%
%LPD*%
G01*
G04 APERTURE LIST*
%ADD10C,0.150000*%
%ADD11C,1.000000*%
%ADD12R,2.000000X2.000000*%
%ADD13C,2.000000*%
%ADD14R,1.800000X3.000000*%
%ADD15R,1.700000X1.700000*%
%ADD16O,1.700000X1.700000*%
G04 APERTURE END LIST*
D10*
X115536133Y-93044220D02*
X115536133Y-92282316D01*
X120071180Y-93034220D02*
X121071180Y-93034220D01*
X121071180Y-93034220D02*
X121071180Y-92653268D01*
X121071180Y-92653268D02*
X121023561Y-92558030D01*
X121023561Y-92558030D02*
X120975942Y-92510411D01*
X120975942Y-92510411D02*
X120880704Y-92462792D01*
X120880704Y-92462792D02*
X120737847Y-92462792D01*
X120737847Y-92462792D02*
X120642609Y-92510411D01*
X120642609Y-92510411D02*
X120594990Y-92558030D01*
X120594990Y-92558030D02*
X120547371Y-92653268D01*
X120547371Y-92653268D02*
X120547371Y-93034220D01*
X131200180Y-92984077D02*
X131200180Y-92412649D01*
X130200180Y-92698363D02*
X131200180Y-92698363D01*
X125243419Y-92392792D02*
X125195800Y-92440411D01*
X125195800Y-92440411D02*
X125148180Y-92583268D01*
X125148180Y-92583268D02*
X125148180Y-92678506D01*
X125148180Y-92678506D02*
X125195800Y-92821363D01*
X125195800Y-92821363D02*
X125291038Y-92916601D01*
X125291038Y-92916601D02*
X125386276Y-92964220D01*
X125386276Y-92964220D02*
X125576752Y-93011839D01*
X125576752Y-93011839D02*
X125719609Y-93011839D01*
X125719609Y-93011839D02*
X125910085Y-92964220D01*
X125910085Y-92964220D02*
X126005323Y-92916601D01*
X126005323Y-92916601D02*
X126100561Y-92821363D01*
X126100561Y-92821363D02*
X126148180Y-92678506D01*
X126148180Y-92678506D02*
X126148180Y-92583268D01*
X126148180Y-92583268D02*
X126100561Y-92440411D01*
X126100561Y-92440411D02*
X126052942Y-92392792D01*
X127663180Y-92392792D02*
X128139371Y-92726125D01*
X127663180Y-92964220D02*
X128663180Y-92964220D01*
X128663180Y-92964220D02*
X128663180Y-92583268D01*
X128663180Y-92583268D02*
X128615561Y-92488030D01*
X128615561Y-92488030D02*
X128567942Y-92440411D01*
X128567942Y-92440411D02*
X128472704Y-92392792D01*
X128472704Y-92392792D02*
X128329847Y-92392792D01*
X128329847Y-92392792D02*
X128234609Y-92440411D01*
X128234609Y-92440411D02*
X128186990Y-92488030D01*
X128186990Y-92488030D02*
X128139371Y-92583268D01*
X128139371Y-92583268D02*
X128139371Y-92964220D01*
X122652180Y-93010220D02*
X123652180Y-93010220D01*
X123652180Y-93010220D02*
X123652180Y-92772125D01*
X123652180Y-92772125D02*
X123604561Y-92629268D01*
X123604561Y-92629268D02*
X123509323Y-92534030D01*
X123509323Y-92534030D02*
X123414085Y-92486411D01*
X123414085Y-92486411D02*
X123223609Y-92438792D01*
X123223609Y-92438792D02*
X123080752Y-92438792D01*
X123080752Y-92438792D02*
X122890276Y-92486411D01*
X122890276Y-92486411D02*
X122795038Y-92534030D01*
X122795038Y-92534030D02*
X122699800Y-92629268D01*
X122699800Y-92629268D02*
X122652180Y-92772125D01*
X122652180Y-92772125D02*
X122652180Y-93010220D01*
X118027133Y-93119220D02*
X118027133Y-92357316D01*
X117646180Y-92738268D02*
X118408085Y-92738268D01*
X139331666Y-86448104D02*
X138855476Y-86448104D01*
X139426904Y-86733819D02*
X139093571Y-85733819D01*
X139093571Y-85733819D02*
X138760238Y-86733819D01*
X138426904Y-86210009D02*
X138093571Y-86210009D01*
X137950714Y-86733819D02*
X138426904Y-86733819D01*
X138426904Y-86733819D02*
X138426904Y-85733819D01*
X138426904Y-85733819D02*
X137950714Y-85733819D01*
X136998333Y-86733819D02*
X137569761Y-86733819D01*
X137284047Y-86733819D02*
X137284047Y-85733819D01*
X137284047Y-85733819D02*
X137379285Y-85876676D01*
X137379285Y-85876676D02*
X137474523Y-85971914D01*
X137474523Y-85971914D02*
X137569761Y-86019533D01*
%LPC*%
D11*
X121365000Y-80889000D03*
X119465000Y-80889000D03*
D12*
X116382156Y-77125150D03*
D13*
X116382156Y-89825150D03*
D14*
X136265000Y-75889000D03*
X136265000Y-80689000D03*
D15*
X116230000Y-94280802D03*
D16*
X118770000Y-94280802D03*
X121310000Y-94280802D03*
X123850000Y-94280802D03*
X126390000Y-94280802D03*
X128930000Y-94280802D03*
X131470000Y-94280802D03*
%LPD*%
M02*
