G04 #@! TF.GenerationSoftware,KiCad,Pcbnew,6.0.10*
G04 #@! TF.CreationDate,2023-06-20T13:54:13-05:00*
G04 #@! TF.ProjectId,sensor_sigfox_1,73656e73-6f72-45f7-9369-67666f785f31,rev?*
G04 #@! TF.SameCoordinates,Original*
G04 #@! TF.FileFunction,Legend,Top*
G04 #@! TF.FilePolarity,Positive*
%FSLAX46Y46*%
G04 Gerber Fmt 4.6, Leading zero omitted, Abs format (unit mm)*
G04 Created by KiCad (PCBNEW 6.0.10) date 2023-06-20 13:54:13*
%MOMM*%
%LPD*%
G01*
G04 APERTURE LIST*
G04 Aperture macros list*
%AMRoundRect*
0 Rectangle with rounded corners*
0 $1 Rounding radius*
0 $2 $3 $4 $5 $6 $7 $8 $9 X,Y pos of 4 corners*
0 Add a 4 corners polygon primitive as box body*
4,1,4,$2,$3,$4,$5,$6,$7,$8,$9,$2,$3,0*
0 Add four circle primitives for the rounded corners*
1,1,$1+$1,$2,$3*
1,1,$1+$1,$4,$5*
1,1,$1+$1,$6,$7*
1,1,$1+$1,$8,$9*
0 Add four rect primitives between the rounded corners*
20,1,$1+$1,$2,$3,$4,$5,0*
20,1,$1+$1,$4,$5,$6,$7,0*
20,1,$1+$1,$6,$7,$8,$9,0*
20,1,$1+$1,$8,$9,$2,$3,0*%
G04 Aperture macros list end*
%ADD10C,0.150000*%
%ADD11C,0.254000*%
%ADD12C,0.120000*%
%ADD13C,0.100000*%
%ADD14C,0.200000*%
%ADD15RoundRect,0.250000X-0.350000X-0.450000X0.350000X-0.450000X0.350000X0.450000X-0.350000X0.450000X0*%
%ADD16R,1.700000X1.700000*%
%ADD17O,1.700000X1.700000*%
%ADD18R,1.000000X1.500000*%
%ADD19RoundRect,0.250000X0.475000X-0.337500X0.475000X0.337500X-0.475000X0.337500X-0.475000X-0.337500X0*%
%ADD20R,1.000000X0.700000*%
%ADD21R,0.700000X1.000000*%
%ADD22RoundRect,0.237500X0.287500X0.237500X-0.287500X0.237500X-0.287500X-0.237500X0.287500X-0.237500X0*%
%ADD23R,3.600000X1.270000*%
%ADD24R,4.200000X1.350000*%
G04 APERTURE END LIST*
D10*
X119848142Y-93289380D02*
X119514809Y-92813190D01*
X119276714Y-93289380D02*
X119276714Y-92289380D01*
X119657666Y-92289380D01*
X119752904Y-92337000D01*
X119800523Y-92384619D01*
X119848142Y-92479857D01*
X119848142Y-92622714D01*
X119800523Y-92717952D01*
X119752904Y-92765571D01*
X119657666Y-92813190D01*
X119276714Y-92813190D01*
X120800523Y-93289380D02*
X120229095Y-93289380D01*
X120514809Y-93289380D02*
X120514809Y-92289380D01*
X120419571Y-92432238D01*
X120324333Y-92527476D01*
X120229095Y-92575095D01*
X121133857Y-92289380D02*
X121752904Y-92289380D01*
X121419571Y-92670333D01*
X121562428Y-92670333D01*
X121657666Y-92717952D01*
X121705285Y-92765571D01*
X121752904Y-92860809D01*
X121752904Y-93098904D01*
X121705285Y-93194142D01*
X121657666Y-93241761D01*
X121562428Y-93289380D01*
X121276714Y-93289380D01*
X121181476Y-93241761D01*
X121133857Y-93194142D01*
X115236666Y-87336380D02*
X115236666Y-88050666D01*
X115189047Y-88193523D01*
X115093809Y-88288761D01*
X114950952Y-88336380D01*
X114855714Y-88336380D01*
X116236666Y-88336380D02*
X115665238Y-88336380D01*
X115950952Y-88336380D02*
X115950952Y-87336380D01*
X115855714Y-87479238D01*
X115760476Y-87574476D01*
X115665238Y-87622095D01*
X117776666Y-88098380D02*
X117776666Y-88812666D01*
X117729047Y-88955523D01*
X117633809Y-89050761D01*
X117490952Y-89098380D01*
X117395714Y-89098380D01*
X118205238Y-88193619D02*
X118252857Y-88146000D01*
X118348095Y-88098380D01*
X118586190Y-88098380D01*
X118681428Y-88146000D01*
X118729047Y-88193619D01*
X118776666Y-88288857D01*
X118776666Y-88384095D01*
X118729047Y-88526952D01*
X118157619Y-89098380D01*
X118776666Y-89098380D01*
X134802666Y-90638380D02*
X134802666Y-91352666D01*
X134755047Y-91495523D01*
X134659809Y-91590761D01*
X134516952Y-91638380D01*
X134421714Y-91638380D01*
X135278857Y-91638380D02*
X135278857Y-90638380D01*
X135659809Y-90638380D01*
X135755047Y-90686000D01*
X135802666Y-90733619D01*
X135850285Y-90828857D01*
X135850285Y-90971714D01*
X135802666Y-91066952D01*
X135755047Y-91114571D01*
X135659809Y-91162190D01*
X135278857Y-91162190D01*
X136802666Y-91638380D02*
X136231238Y-91638380D01*
X136516952Y-91638380D02*
X136516952Y-90638380D01*
X136421714Y-90781238D01*
X136326476Y-90876476D01*
X136231238Y-90924095D01*
X124407142Y-39261166D02*
X124454761Y-39308785D01*
X124502380Y-39451642D01*
X124502380Y-39546880D01*
X124454761Y-39689738D01*
X124359523Y-39784976D01*
X124264285Y-39832595D01*
X124073809Y-39880214D01*
X123930952Y-39880214D01*
X123740476Y-39832595D01*
X123645238Y-39784976D01*
X123550000Y-39689738D01*
X123502380Y-39546880D01*
X123502380Y-39451642D01*
X123550000Y-39308785D01*
X123597619Y-39261166D01*
X123502380Y-38404023D02*
X123502380Y-38594500D01*
X123550000Y-38689738D01*
X123597619Y-38737357D01*
X123740476Y-38832595D01*
X123930952Y-38880214D01*
X124311904Y-38880214D01*
X124407142Y-38832595D01*
X124454761Y-38784976D01*
X124502380Y-38689738D01*
X124502380Y-38499261D01*
X124454761Y-38404023D01*
X124407142Y-38356404D01*
X124311904Y-38308785D01*
X124073809Y-38308785D01*
X123978571Y-38356404D01*
X123930952Y-38404023D01*
X123883333Y-38499261D01*
X123883333Y-38689738D01*
X123930952Y-38784976D01*
X123978571Y-38832595D01*
X124073809Y-38880214D01*
X130024142Y-39261166D02*
X130071761Y-39308785D01*
X130119380Y-39451642D01*
X130119380Y-39546880D01*
X130071761Y-39689738D01*
X129976523Y-39784976D01*
X129881285Y-39832595D01*
X129690809Y-39880214D01*
X129547952Y-39880214D01*
X129357476Y-39832595D01*
X129262238Y-39784976D01*
X129167000Y-39689738D01*
X129119380Y-39546880D01*
X129119380Y-39451642D01*
X129167000Y-39308785D01*
X129214619Y-39261166D01*
X129119380Y-38356404D02*
X129119380Y-38832595D01*
X129595571Y-38880214D01*
X129547952Y-38832595D01*
X129500333Y-38737357D01*
X129500333Y-38499261D01*
X129547952Y-38404023D01*
X129595571Y-38356404D01*
X129690809Y-38308785D01*
X129928904Y-38308785D01*
X130024142Y-38356404D01*
X130071761Y-38404023D01*
X130119380Y-38499261D01*
X130119380Y-38737357D01*
X130071761Y-38832595D01*
X130024142Y-38880214D01*
D11*
X125614238Y-68138523D02*
X125614238Y-66868523D01*
X126944714Y-68017571D02*
X126884238Y-68078047D01*
X126702809Y-68138523D01*
X126581857Y-68138523D01*
X126400428Y-68078047D01*
X126279476Y-67957095D01*
X126219000Y-67836142D01*
X126158523Y-67594238D01*
X126158523Y-67412809D01*
X126219000Y-67170904D01*
X126279476Y-67049952D01*
X126400428Y-66929000D01*
X126581857Y-66868523D01*
X126702809Y-66868523D01*
X126884238Y-66929000D01*
X126944714Y-66989476D01*
X127428523Y-66989476D02*
X127489000Y-66929000D01*
X127609952Y-66868523D01*
X127912333Y-66868523D01*
X128033285Y-66929000D01*
X128093761Y-66989476D01*
X128154238Y-67110428D01*
X128154238Y-67231380D01*
X128093761Y-67412809D01*
X127368047Y-68138523D01*
X128154238Y-68138523D01*
D10*
X137771142Y-88050666D02*
X137818761Y-88098285D01*
X137866380Y-88241142D01*
X137866380Y-88336380D01*
X137818761Y-88479238D01*
X137723523Y-88574476D01*
X137628285Y-88622095D01*
X137437809Y-88669714D01*
X137294952Y-88669714D01*
X137104476Y-88622095D01*
X137009238Y-88574476D01*
X136914000Y-88479238D01*
X136866380Y-88336380D01*
X136866380Y-88241142D01*
X136914000Y-88098285D01*
X136961619Y-88050666D01*
X137866380Y-87098285D02*
X137866380Y-87669714D01*
X137866380Y-87384000D02*
X136866380Y-87384000D01*
X137009238Y-87479238D01*
X137104476Y-87574476D01*
X137152095Y-87669714D01*
X129817904Y-95702380D02*
X129817904Y-94702380D01*
X130056000Y-94702380D01*
X130198857Y-94750000D01*
X130294095Y-94845238D01*
X130341714Y-94940476D01*
X130389333Y-95130952D01*
X130389333Y-95273809D01*
X130341714Y-95464285D01*
X130294095Y-95559523D01*
X130198857Y-95654761D01*
X130056000Y-95702380D01*
X129817904Y-95702380D01*
X131341714Y-95702380D02*
X130770285Y-95702380D01*
X131056000Y-95702380D02*
X131056000Y-94702380D01*
X130960761Y-94845238D01*
X130865523Y-94940476D01*
X130770285Y-94988095D01*
X120007142Y-91384380D02*
X119673809Y-90908190D01*
X119435714Y-91384380D02*
X119435714Y-90384380D01*
X119816666Y-90384380D01*
X119911904Y-90432000D01*
X119959523Y-90479619D01*
X120007142Y-90574857D01*
X120007142Y-90717714D01*
X119959523Y-90812952D01*
X119911904Y-90860571D01*
X119816666Y-90908190D01*
X119435714Y-90908190D01*
X120959523Y-91384380D02*
X120388095Y-91384380D01*
X120673809Y-91384380D02*
X120673809Y-90384380D01*
X120578571Y-90527238D01*
X120483333Y-90622476D01*
X120388095Y-90670095D01*
X121340476Y-90479619D02*
X121388095Y-90432000D01*
X121483333Y-90384380D01*
X121721428Y-90384380D01*
X121816666Y-90432000D01*
X121864285Y-90479619D01*
X121911904Y-90574857D01*
X121911904Y-90670095D01*
X121864285Y-90812952D01*
X121292857Y-91384380D01*
X121911904Y-91384380D01*
X138644380Y-72215333D02*
X139358666Y-72215333D01*
X139501523Y-72262952D01*
X139596761Y-72358190D01*
X139644380Y-72501047D01*
X139644380Y-72596285D01*
X138977714Y-71310571D02*
X139644380Y-71310571D01*
X138596761Y-71548666D02*
X139311047Y-71786761D01*
X139311047Y-71167714D01*
X129817904Y-93162380D02*
X129817904Y-92162380D01*
X130056000Y-92162380D01*
X130198857Y-92210000D01*
X130294095Y-92305238D01*
X130341714Y-92400476D01*
X130389333Y-92590952D01*
X130389333Y-92733809D01*
X130341714Y-92924285D01*
X130294095Y-93019523D01*
X130198857Y-93114761D01*
X130056000Y-93162380D01*
X129817904Y-93162380D01*
X130722666Y-92162380D02*
X131341714Y-92162380D01*
X131008380Y-92543333D01*
X131151238Y-92543333D01*
X131246476Y-92590952D01*
X131294095Y-92638571D01*
X131341714Y-92733809D01*
X131341714Y-92971904D01*
X131294095Y-93067142D01*
X131246476Y-93114761D01*
X131151238Y-93162380D01*
X130865523Y-93162380D01*
X130770285Y-93114761D01*
X130722666Y-93067142D01*
X120737333Y-94940380D02*
X120404000Y-94464190D01*
X120165904Y-94940380D02*
X120165904Y-93940380D01*
X120546857Y-93940380D01*
X120642095Y-93988000D01*
X120689714Y-94035619D01*
X120737333Y-94130857D01*
X120737333Y-94273714D01*
X120689714Y-94368952D01*
X120642095Y-94416571D01*
X120546857Y-94464190D01*
X120165904Y-94464190D01*
X121594476Y-93940380D02*
X121404000Y-93940380D01*
X121308761Y-93988000D01*
X121261142Y-94035619D01*
X121165904Y-94178476D01*
X121118285Y-94368952D01*
X121118285Y-94749904D01*
X121165904Y-94845142D01*
X121213523Y-94892761D01*
X121308761Y-94940380D01*
X121499238Y-94940380D01*
X121594476Y-94892761D01*
X121642095Y-94845142D01*
X121689714Y-94749904D01*
X121689714Y-94511809D01*
X121642095Y-94416571D01*
X121594476Y-94368952D01*
X121499238Y-94321333D01*
X121308761Y-94321333D01*
X121213523Y-94368952D01*
X121165904Y-94416571D01*
X121118285Y-94511809D01*
X129817904Y-94432380D02*
X129817904Y-93432380D01*
X130056000Y-93432380D01*
X130198857Y-93480000D01*
X130294095Y-93575238D01*
X130341714Y-93670476D01*
X130389333Y-93860952D01*
X130389333Y-94003809D01*
X130341714Y-94194285D01*
X130294095Y-94289523D01*
X130198857Y-94384761D01*
X130056000Y-94432380D01*
X129817904Y-94432380D01*
X131246476Y-93765714D02*
X131246476Y-94432380D01*
X131008380Y-93384761D02*
X130770285Y-94099047D01*
X131389333Y-94099047D01*
D12*
X123708936Y-91975000D02*
X124163064Y-91975000D01*
X123708936Y-93445000D02*
X124163064Y-93445000D01*
X116900000Y-78934000D02*
X114240000Y-78934000D01*
X116900000Y-84074000D02*
X116900000Y-78934000D01*
X116900000Y-86674000D02*
X115570000Y-86674000D01*
X116900000Y-85344000D02*
X116900000Y-86674000D01*
X114240000Y-84074000D02*
X114240000Y-78934000D01*
X116900000Y-84074000D02*
X114240000Y-84074000D01*
X116035000Y-95056000D02*
X116035000Y-89856000D01*
X113375000Y-89856000D02*
X113375000Y-95056000D01*
X107375000Y-91566000D02*
X107375000Y-90806000D01*
X118745000Y-94996000D02*
X117475000Y-94996000D01*
X116365000Y-93346000D02*
X116035000Y-93346000D01*
X116432071Y-91566000D02*
X116035000Y-91566000D01*
X107375000Y-93346000D02*
X113375000Y-93346000D01*
X113375000Y-93926000D02*
X107375000Y-93926000D01*
X113375000Y-93806000D02*
X107375000Y-93806000D01*
X113375000Y-91566000D02*
X107375000Y-91566000D01*
X113375000Y-93566000D02*
X107375000Y-93566000D01*
X107375000Y-90806000D02*
X113375000Y-90806000D01*
X113375000Y-94046000D02*
X107375000Y-94046000D01*
X113375000Y-95056000D02*
X116035000Y-95056000D01*
X107375000Y-94106000D02*
X107375000Y-93346000D01*
X113375000Y-93686000D02*
X107375000Y-93686000D01*
X116365000Y-94106000D02*
X116035000Y-94106000D01*
X118745000Y-93726000D02*
X118745000Y-94996000D01*
X116035000Y-92456000D02*
X113375000Y-92456000D01*
X113375000Y-93446000D02*
X107375000Y-93446000D01*
X116035000Y-89856000D02*
X113375000Y-89856000D01*
X116432071Y-90806000D02*
X116035000Y-90806000D01*
X113375000Y-94106000D02*
X107375000Y-94106000D01*
X133156000Y-89859000D02*
X132856000Y-89559000D01*
X133156000Y-89859000D02*
X133456000Y-89559000D01*
X129806000Y-92059000D02*
X129806000Y-90059000D01*
X129806000Y-90059000D02*
X133906000Y-90059000D01*
X133906000Y-90059000D02*
X133906000Y-92059000D01*
X133456000Y-89559000D02*
X132856000Y-89559000D01*
X133906000Y-92059000D02*
X129806000Y-92059000D01*
X126465000Y-39355752D02*
X126465000Y-38833248D01*
X124995000Y-39355752D02*
X124995000Y-38833248D01*
X127027000Y-39355752D02*
X127027000Y-38833248D01*
X128497000Y-39355752D02*
X128497000Y-38833248D01*
D13*
X120754000Y-74875000D02*
X120754000Y-69375000D01*
D14*
X120054000Y-75675000D02*
X120054000Y-75675000D01*
D13*
X120754000Y-89375000D02*
X120754000Y-88875000D01*
X133754000Y-89375000D02*
X133754000Y-88875000D01*
X122754000Y-89375000D02*
X120754000Y-89375000D01*
X133754000Y-69375000D02*
X133754000Y-74875000D01*
D14*
X120054000Y-75875000D02*
X120054000Y-75875000D01*
D13*
X131754000Y-89375000D02*
X133754000Y-89375000D01*
X120754000Y-69375000D02*
X133754000Y-69375000D01*
D14*
X120054000Y-75875000D02*
G75*
G03*
X120054000Y-75675000I0J100000D01*
G01*
X120054000Y-75675000D02*
G75*
G03*
X120054000Y-75875000I0J-100000D01*
G01*
D12*
X134647000Y-88145252D02*
X134647000Y-87622748D01*
X136117000Y-88145252D02*
X136117000Y-87622748D01*
X129376000Y-94461000D02*
X129376000Y-92991000D01*
X129376000Y-92991000D02*
X126916000Y-92991000D01*
X126916000Y-94461000D02*
X129376000Y-94461000D01*
X123692936Y-90070000D02*
X124147064Y-90070000D01*
X123692936Y-91540000D02*
X124147064Y-91540000D01*
X137536000Y-76122000D02*
X137536000Y-75012000D01*
X141246000Y-76122000D02*
X141246000Y-75012000D01*
X137536000Y-78912000D02*
X137536000Y-77802000D01*
X136486000Y-77212000D02*
X136986000Y-76962000D01*
X136986000Y-76962000D02*
X136486000Y-76712000D01*
X136486000Y-76712000D02*
X136486000Y-77212000D01*
X141246000Y-78912000D02*
X141246000Y-77802000D01*
X126902000Y-91413000D02*
X129362000Y-91413000D01*
X129362000Y-91413000D02*
X129362000Y-89943000D01*
X129362000Y-89943000D02*
X126902000Y-89943000D01*
X123708936Y-95223000D02*
X124163064Y-95223000D01*
X123708936Y-93753000D02*
X124163064Y-93753000D01*
X129376000Y-92937000D02*
X129376000Y-91467000D01*
X126916000Y-92937000D02*
X129376000Y-92937000D01*
X129376000Y-91467000D02*
X126916000Y-91467000D01*
%LPC*%
D15*
X122936000Y-92710000D03*
X124936000Y-92710000D03*
D16*
X115570000Y-85344000D03*
D17*
X115570000Y-82804000D03*
X115570000Y-80264000D03*
D16*
X117475000Y-93726000D03*
D17*
X117475000Y-91186000D03*
D18*
X133156000Y-91059000D03*
X131856000Y-91059000D03*
X130556000Y-91059000D03*
D19*
X125730000Y-40132000D03*
X125730000Y-38057000D03*
X127762000Y-40132000D03*
X127762000Y-38057000D03*
D20*
X121394000Y-75825000D03*
X121394000Y-76925000D03*
X121394000Y-78025000D03*
X121394000Y-79125000D03*
X121394000Y-80225000D03*
X121394000Y-81325000D03*
X121394000Y-82425000D03*
X121394000Y-83525000D03*
X121394000Y-84625000D03*
X121394000Y-85725000D03*
X121394000Y-86825000D03*
X121394000Y-87925000D03*
D21*
X123954000Y-88735000D03*
X125054000Y-88735000D03*
X126154000Y-88735000D03*
X127254000Y-88735000D03*
X128354000Y-88735000D03*
X129454000Y-88735000D03*
X130554000Y-88735000D03*
D20*
X133114000Y-87925000D03*
X133114000Y-86825000D03*
X133114000Y-85725000D03*
X133114000Y-84625000D03*
X133114000Y-83525000D03*
X133114000Y-82425000D03*
X133114000Y-81325000D03*
X133114000Y-80225000D03*
X133114000Y-79125000D03*
X133114000Y-78025000D03*
X133114000Y-76925000D03*
X133114000Y-75825000D03*
D19*
X135382000Y-88921500D03*
X135382000Y-86846500D03*
D22*
X128591000Y-93726000D03*
X126841000Y-93726000D03*
D15*
X122920000Y-90805000D03*
X124920000Y-90805000D03*
D23*
X139446000Y-76962000D03*
D24*
X139246000Y-74137000D03*
X139246000Y-79787000D03*
D22*
X128577000Y-90678000D03*
X126827000Y-90678000D03*
D15*
X122936000Y-94488000D03*
X124936000Y-94488000D03*
D22*
X128591000Y-92202000D03*
X126841000Y-92202000D03*
M02*
