M48
; DRILL file {KiCad 6.0.10} date Tue 20 Jun 2023 01:54:02 PM CDT
; FORMAT={-:-/ absolute / metric / decimal}
; #@! TF.CreationDate,2023-06-20T13:54:02-05:00
; #@! TF.GenerationSoftware,Kicad,Pcbnew,6.0.10
; #@! TF.FileFunction,Plated,1,2,PTH
FMAT,2
METRIC
; #@! TA.AperFunction,Plated,PTH,ViaDrill
T1C0.400
; #@! TA.AperFunction,Plated,PTH,ComponentDrill
T2C1.000
%
G90
G05
T1
X121.158Y-94.488
X122.428Y-71.374
X123.19Y-86.995
X123.444Y-72.39
X123.571Y-69.85
X124.46Y-87.122
X125.095Y-42.037
X125.095Y-80.772
X125.476Y-36.957
X125.73Y-87.122
X127.127Y-87.122
X128.397Y-87.122
X129.413Y-42.164
X129.727Y-73.212
X129.794Y-87.122
X130.109Y-93.025
X134.493Y-73.152
X134.763Y-92.091
X134.874Y-75.946
X134.874Y-77.978
X135.89Y-75.946
X135.89Y-77.978
X136.906Y-75.946
X136.906Y-77.978
X137.033Y-86.741
T2
X115.57Y-80.264
X115.57Y-82.804
X115.57Y-85.344
X117.475Y-91.186
X117.475Y-93.726
T0
M30
