G04 #@! TF.GenerationSoftware,KiCad,Pcbnew,6.0.10*
G04 #@! TF.CreationDate,2023-11-17T15:38:01-06:00*
G04 #@! TF.ProjectId,sensor_sigfox_3,73656e73-6f72-45f7-9369-67666f785f33,rev?*
G04 #@! TF.SameCoordinates,Original*
G04 #@! TF.FileFunction,Paste,Top*
G04 #@! TF.FilePolarity,Positive*
%FSLAX46Y46*%
G04 Gerber Fmt 4.6, Leading zero omitted, Abs format (unit mm)*
G04 Created by KiCad (PCBNEW 6.0.10) date 2023-11-17 15:38:01*
%MOMM*%
%LPD*%
G01*
G04 APERTURE LIST*
G04 Aperture macros list*
%AMRoundRect*
0 Rectangle with rounded corners*
0 $1 Rounding radius*
0 $2 $3 $4 $5 $6 $7 $8 $9 X,Y pos of 4 corners*
0 Add a 4 corners polygon primitive as box body*
4,1,4,$2,$3,$4,$5,$6,$7,$8,$9,$2,$3,0*
0 Add four circle primitives for the rounded corners*
1,1,$1+$1,$2,$3*
1,1,$1+$1,$4,$5*
1,1,$1+$1,$6,$7*
1,1,$1+$1,$8,$9*
0 Add four rect primitives between the rounded corners*
20,1,$1+$1,$2,$3,$4,$5,0*
20,1,$1+$1,$4,$5,$6,$7,0*
20,1,$1+$1,$6,$7,$8,$9,0*
20,1,$1+$1,$8,$9,$2,$3,0*%
G04 Aperture macros list end*
%ADD10RoundRect,0.250000X0.475000X-0.337500X0.475000X0.337500X-0.475000X0.337500X-0.475000X-0.337500X0*%
%ADD11RoundRect,0.237500X-0.287500X-0.237500X0.287500X-0.237500X0.287500X0.237500X-0.287500X0.237500X0*%
%ADD12RoundRect,0.237500X-0.237500X0.250000X-0.237500X-0.250000X0.237500X-0.250000X0.237500X0.250000X0*%
%ADD13RoundRect,0.237500X0.250000X0.237500X-0.250000X0.237500X-0.250000X-0.237500X0.250000X-0.237500X0*%
%ADD14RoundRect,0.237500X-0.250000X-0.237500X0.250000X-0.237500X0.250000X0.237500X-0.250000X0.237500X0*%
%ADD15RoundRect,0.237500X0.237500X-0.250000X0.237500X0.250000X-0.237500X0.250000X-0.237500X-0.250000X0*%
%ADD16RoundRect,0.237500X-0.237500X0.300000X-0.237500X-0.300000X0.237500X-0.300000X0.237500X0.300000X0*%
%ADD17RoundRect,0.237500X0.237500X-0.300000X0.237500X0.300000X-0.237500X0.300000X-0.237500X-0.300000X0*%
%ADD18R,3.000000X3.500000*%
%ADD19R,1.800000X2.500000*%
%ADD20R,0.700000X1.000000*%
%ADD21R,1.000000X0.700000*%
%ADD22RoundRect,0.237500X0.287500X0.237500X-0.287500X0.237500X-0.287500X-0.237500X0.287500X-0.237500X0*%
%ADD23RoundRect,0.237500X0.237500X-0.287500X0.237500X0.287500X-0.237500X0.287500X-0.237500X-0.287500X0*%
%ADD24RoundRect,0.150000X0.512500X0.150000X-0.512500X0.150000X-0.512500X-0.150000X0.512500X-0.150000X0*%
%ADD25RoundRect,0.150000X-0.150000X0.512500X-0.150000X-0.512500X0.150000X-0.512500X0.150000X0.512500X0*%
%ADD26RoundRect,0.125000X-0.825000X-0.125000X0.825000X-0.125000X0.825000X0.125000X-0.825000X0.125000X0*%
G04 APERTURE END LIST*
D10*
X109728000Y-107485000D03*
X109728000Y-105410000D03*
X124714000Y-104521000D03*
X124714000Y-102446000D03*
D11*
X136657000Y-104140000D03*
X138407000Y-104140000D03*
D12*
X138430000Y-105617000D03*
X138430000Y-107442000D03*
X143764000Y-100838000D03*
X143764000Y-102663000D03*
X142113000Y-100838000D03*
X142113000Y-102663000D03*
D13*
X122729000Y-98298000D03*
X120904000Y-98298000D03*
D14*
X120880500Y-100076000D03*
X122705500Y-100076000D03*
D12*
X110236000Y-96219000D03*
X110236000Y-98044000D03*
D13*
X112061000Y-94107000D03*
X110236000Y-94107000D03*
X107569000Y-94107000D03*
X105744000Y-94107000D03*
X104695000Y-89662000D03*
X102870000Y-89662000D03*
D14*
X115697000Y-97917000D03*
X117522000Y-97917000D03*
D13*
X124761000Y-87503000D03*
X122936000Y-87503000D03*
D14*
X106633000Y-90805000D03*
X108458000Y-90805000D03*
X110062000Y-90805000D03*
X111887000Y-90805000D03*
D15*
X106426000Y-104695000D03*
X106426000Y-102870000D03*
D16*
X138430000Y-100891000D03*
X138430000Y-102616000D03*
D17*
X122936000Y-57229000D03*
X122936000Y-55504000D03*
X124968000Y-57229000D03*
X124968000Y-55504000D03*
D16*
X114427000Y-86667000D03*
X114427000Y-88392000D03*
X112903000Y-86667000D03*
X112903000Y-88392000D03*
D17*
X126619000Y-104140000D03*
X126619000Y-102415000D03*
D18*
X117776000Y-105410000D03*
X112776000Y-105410000D03*
D19*
X121666000Y-102648000D03*
X121666000Y-106648000D03*
D20*
X139530000Y-87594000D03*
X138430000Y-87594000D03*
X137330000Y-87594000D03*
X136230000Y-87594000D03*
X135130000Y-87594000D03*
X134030000Y-87594000D03*
X132930000Y-87594000D03*
X131830000Y-87594000D03*
X130730000Y-87594000D03*
X129630000Y-87594000D03*
X128530000Y-87594000D03*
X127430000Y-87594000D03*
D21*
X126620000Y-90154000D03*
X126620000Y-91254000D03*
X126620000Y-92354000D03*
X126620000Y-93454000D03*
X126620000Y-94554000D03*
X126620000Y-95654000D03*
X126620000Y-96754000D03*
D20*
X127430000Y-99314000D03*
X128530000Y-99314000D03*
X129630000Y-99314000D03*
X130730000Y-99314000D03*
X131830000Y-99314000D03*
X132930000Y-99314000D03*
X134030000Y-99314000D03*
X135130000Y-99314000D03*
X136230000Y-99314000D03*
X137330000Y-99314000D03*
X138430000Y-99314000D03*
X139530000Y-99314000D03*
D22*
X104620000Y-87884000D03*
X102870000Y-87884000D03*
D23*
X142113000Y-106045000D03*
X142113000Y-104295000D03*
X143764000Y-106045000D03*
X143764000Y-104295000D03*
D24*
X117972000Y-101595000D03*
X117972000Y-100645000D03*
X117972000Y-99695000D03*
X115697000Y-99695000D03*
X115697000Y-100645000D03*
X115697000Y-101595000D03*
D25*
X108519000Y-96150000D03*
X107569000Y-96150000D03*
X106619000Y-96150000D03*
X106619000Y-98425000D03*
X107569000Y-98425000D03*
X108519000Y-98425000D03*
D26*
X116190000Y-90110000D03*
X116190000Y-90760000D03*
X116190000Y-91410000D03*
X116190000Y-92060000D03*
X116190000Y-92710000D03*
X116190000Y-93360000D03*
X116190000Y-94010000D03*
X116190000Y-94660000D03*
X116190000Y-95310000D03*
X116190000Y-95960000D03*
X123190000Y-95960000D03*
X123190000Y-95310000D03*
X123190000Y-94660000D03*
X123190000Y-94010000D03*
X123190000Y-93360000D03*
X123190000Y-92710000D03*
X123190000Y-92060000D03*
X123190000Y-91410000D03*
X123190000Y-90760000D03*
X123190000Y-90110000D03*
M02*
