M48
; DRILL file {KiCad 6.0.10} date Fri 17 Nov 2023 03:37:32 PM CST
; FORMAT={-:-/ absolute / metric / decimal}
; #@! TF.CreationDate,2023-11-17T15:37:32-06:00
; #@! TF.GenerationSoftware,Kicad,Pcbnew,6.0.10
; #@! TF.FileFunction,Plated,1,2,PTH
FMAT,2
METRIC
; #@! TA.AperFunction,Plated,PTH,ViaDrill
T1C0.400
; #@! TA.AperFunction,Plated,PTH,ComponentDrill
T2C1.000
%
G90
G05
T1
X102.362Y-108.458
X102.87Y-92.71
X103.886Y-108.458
X105.41Y-108.458
X106.934Y-108.458
X107.696Y-104.648
X108.458Y-108.458
X108.712Y-93.98
X109.982Y-108.458
X110.49Y-100.33
X111.506Y-108.458
X113.03Y-108.458
X114.173Y-96.901
X114.554Y-108.458
X116.078Y-108.458
X116.84Y-87.63
X117.602Y-108.458
X118.11Y-87.63
X119.126Y-108.458
X119.507Y-100.965
X119.634Y-95.504
X119.888Y-89.916
X121.285Y-92.71
X122.301Y-59.309
X122.682Y-54.229
X122.936Y-86.233
X124.206Y-108.458
X125.222Y-89.916
X125.353Y-96.27
X125.73Y-108.458
X126.619Y-59.436
X127.254Y-100.838
X127.254Y-108.458
X127.762Y-90.932
X127.762Y-92.71
X128.778Y-108.458
X129.54Y-96.52
X129.794Y-100.838
X129.794Y-102.362
X130.302Y-108.458
X131.826Y-108.458
X132.08Y-90.17
X133.35Y-108.458
X134.62Y-90.17
X134.62Y-92.71
X134.874Y-108.458
X136.398Y-102.362
X136.398Y-105.41
X136.398Y-106.934
X136.398Y-108.458
X136.906Y-100.838
X137.16Y-90.17
X137.16Y-93.98
X139.7Y-90.17
X139.7Y-93.98
X139.954Y-100.838
X140.462Y-102.362
X140.462Y-103.886
X140.462Y-105.41
X140.462Y-106.934
X140.462Y-108.458
X142.24Y-86.36
X143.002Y-107.442
X143.002Y-108.458
X144.018Y-107.442
X144.018Y-108.458
X144.78Y-86.36
X144.78Y-88.9
X144.78Y-91.44
X144.78Y-93.98
X144.78Y-96.52
X145.034Y-107.442
X145.034Y-108.458
T2
X103.759Y-98.537
X103.759Y-101.077
X103.759Y-103.617
X107.696Y-87.884
X110.236Y-87.884
X129.286Y-104.648
X131.826Y-104.648
X134.366Y-104.648
T0
M30
