G04 #@! TF.GenerationSoftware,KiCad,Pcbnew,6.0.10*
G04 #@! TF.CreationDate,2023-11-17T15:38:02-06:00*
G04 #@! TF.ProjectId,sensor_sigfox_3,73656e73-6f72-45f7-9369-67666f785f33,rev?*
G04 #@! TF.SameCoordinates,Original*
G04 #@! TF.FileFunction,Legend,Top*
G04 #@! TF.FilePolarity,Positive*
%FSLAX46Y46*%
G04 Gerber Fmt 4.6, Leading zero omitted, Abs format (unit mm)*
G04 Created by KiCad (PCBNEW 6.0.10) date 2023-11-17 15:38:02*
%MOMM*%
%LPD*%
G01*
G04 APERTURE LIST*
G04 Aperture macros list*
%AMRoundRect*
0 Rectangle with rounded corners*
0 $1 Rounding radius*
0 $2 $3 $4 $5 $6 $7 $8 $9 X,Y pos of 4 corners*
0 Add a 4 corners polygon primitive as box body*
4,1,4,$2,$3,$4,$5,$6,$7,$8,$9,$2,$3,0*
0 Add four circle primitives for the rounded corners*
1,1,$1+$1,$2,$3*
1,1,$1+$1,$4,$5*
1,1,$1+$1,$6,$7*
1,1,$1+$1,$8,$9*
0 Add four rect primitives between the rounded corners*
20,1,$1+$1,$2,$3,$4,$5,0*
20,1,$1+$1,$4,$5,$6,$7,0*
20,1,$1+$1,$6,$7,$8,$9,0*
20,1,$1+$1,$8,$9,$2,$3,0*%
G04 Aperture macros list end*
%ADD10C,0.150000*%
%ADD11C,0.200000*%
%ADD12C,0.254000*%
%ADD13C,0.120000*%
%ADD14C,0.100000*%
%ADD15RoundRect,0.250000X0.475000X-0.337500X0.475000X0.337500X-0.475000X0.337500X-0.475000X-0.337500X0*%
%ADD16RoundRect,0.237500X-0.287500X-0.237500X0.287500X-0.237500X0.287500X0.237500X-0.287500X0.237500X0*%
%ADD17RoundRect,0.237500X-0.237500X0.250000X-0.237500X-0.250000X0.237500X-0.250000X0.237500X0.250000X0*%
%ADD18RoundRect,0.237500X0.250000X0.237500X-0.250000X0.237500X-0.250000X-0.237500X0.250000X-0.237500X0*%
%ADD19RoundRect,0.237500X-0.250000X-0.237500X0.250000X-0.237500X0.250000X0.237500X-0.250000X0.237500X0*%
%ADD20RoundRect,0.237500X0.237500X-0.250000X0.237500X0.250000X-0.237500X0.250000X-0.237500X-0.250000X0*%
%ADD21RoundRect,0.237500X-0.237500X0.300000X-0.237500X-0.300000X0.237500X-0.300000X0.237500X0.300000X0*%
%ADD22RoundRect,0.237500X0.237500X-0.300000X0.237500X0.300000X-0.237500X0.300000X-0.237500X-0.300000X0*%
%ADD23R,3.000000X3.500000*%
%ADD24R,1.700000X1.700000*%
%ADD25O,1.700000X1.700000*%
%ADD26R,1.800000X2.500000*%
%ADD27R,1.500000X1.000000*%
%ADD28R,0.700000X1.000000*%
%ADD29R,1.000000X0.700000*%
%ADD30RoundRect,0.237500X0.287500X0.237500X-0.287500X0.237500X-0.287500X-0.237500X0.287500X-0.237500X0*%
%ADD31RoundRect,0.237500X0.237500X-0.287500X0.237500X0.287500X-0.237500X0.287500X-0.237500X-0.287500X0*%
%ADD32RoundRect,0.150000X0.512500X0.150000X-0.512500X0.150000X-0.512500X-0.150000X0.512500X-0.150000X0*%
%ADD33RoundRect,0.150000X-0.150000X0.512500X-0.150000X-0.512500X0.150000X-0.512500X0.150000X0.512500X0*%
%ADD34RoundRect,0.125000X-0.825000X-0.125000X0.825000X-0.125000X0.825000X0.125000X-0.825000X0.125000X0*%
G04 APERTURE END LIST*
D10*
X129524380Y-102306380D02*
X129524380Y-101306380D01*
X129762476Y-101306380D01*
X129905333Y-101354000D01*
X130000571Y-101449238D01*
X130048190Y-101544476D01*
X130095809Y-101734952D01*
X130095809Y-101877809D01*
X130048190Y-102068285D01*
X130000571Y-102163523D01*
X129905333Y-102258761D01*
X129762476Y-102306380D01*
X129524380Y-102306380D01*
X130905333Y-102258761D02*
X130810095Y-102306380D01*
X130619619Y-102306380D01*
X130524380Y-102258761D01*
X130476761Y-102163523D01*
X130476761Y-101782571D01*
X130524380Y-101687333D01*
X130619619Y-101639714D01*
X130810095Y-101639714D01*
X130905333Y-101687333D01*
X130952952Y-101782571D01*
X130952952Y-101877809D01*
X130476761Y-101973047D01*
X131381523Y-102306380D02*
X131381523Y-101306380D01*
X131381523Y-101687333D02*
X131476761Y-101639714D01*
X131667238Y-101639714D01*
X131762476Y-101687333D01*
X131810095Y-101734952D01*
X131857714Y-101830190D01*
X131857714Y-102115904D01*
X131810095Y-102211142D01*
X131762476Y-102258761D01*
X131667238Y-102306380D01*
X131476761Y-102306380D01*
X131381523Y-102258761D01*
X132714857Y-101639714D02*
X132714857Y-102306380D01*
X132286285Y-101639714D02*
X132286285Y-102163523D01*
X132333904Y-102258761D01*
X132429142Y-102306380D01*
X132572000Y-102306380D01*
X132667238Y-102258761D01*
X132714857Y-102211142D01*
X133619619Y-101639714D02*
X133619619Y-102449238D01*
X133572000Y-102544476D01*
X133524380Y-102592095D01*
X133429142Y-102639714D01*
X133286285Y-102639714D01*
X133191047Y-102592095D01*
X133619619Y-102258761D02*
X133524380Y-102306380D01*
X133333904Y-102306380D01*
X133238666Y-102258761D01*
X133191047Y-102211142D01*
X133143428Y-102115904D01*
X133143428Y-101830190D01*
X133191047Y-101734952D01*
X133238666Y-101687333D01*
X133333904Y-101639714D01*
X133524380Y-101639714D01*
X133619619Y-101687333D01*
D11*
X108575809Y-109402619D02*
X108385333Y-109402619D01*
X108290095Y-109450238D01*
X108242476Y-109497857D01*
X108147238Y-109640714D01*
X108099619Y-109831190D01*
X108099619Y-110212142D01*
X108147238Y-110307380D01*
X108194857Y-110355000D01*
X108290095Y-110402619D01*
X108480571Y-110402619D01*
X108575809Y-110355000D01*
X108623428Y-110307380D01*
X108671047Y-110212142D01*
X108671047Y-109974047D01*
X108623428Y-109878809D01*
X108575809Y-109831190D01*
X108480571Y-109783571D01*
X108290095Y-109783571D01*
X108194857Y-109831190D01*
X108147238Y-109878809D01*
X108099619Y-109974047D01*
X107480571Y-110402619D02*
X107385333Y-110402619D01*
X107290095Y-110355000D01*
X107242476Y-110307380D01*
X107194857Y-110212142D01*
X107147238Y-110021666D01*
X107147238Y-109783571D01*
X107194857Y-109593095D01*
X107242476Y-109497857D01*
X107290095Y-109450238D01*
X107385333Y-109402619D01*
X107480571Y-109402619D01*
X107575809Y-109450238D01*
X107623428Y-109497857D01*
X107671047Y-109593095D01*
X107718666Y-109783571D01*
X107718666Y-110021666D01*
X107671047Y-110212142D01*
X107623428Y-110307380D01*
X107575809Y-110355000D01*
X107480571Y-110402619D01*
X106813904Y-110402619D02*
X106194857Y-110402619D01*
X106528190Y-110021666D01*
X106385333Y-110021666D01*
X106290095Y-109974047D01*
X106242476Y-109926428D01*
X106194857Y-109831190D01*
X106194857Y-109593095D01*
X106242476Y-109497857D01*
X106290095Y-109450238D01*
X106385333Y-109402619D01*
X106671047Y-109402619D01*
X106766285Y-109450238D01*
X106813904Y-109497857D01*
X105004380Y-109402619D02*
X105004380Y-110402619D01*
X104671047Y-109688333D01*
X104337714Y-110402619D01*
X104337714Y-109402619D01*
X103861523Y-109402619D02*
X103861523Y-110402619D01*
X103861523Y-109926428D02*
X103290095Y-109926428D01*
X103290095Y-109402619D02*
X103290095Y-110402619D01*
X102909142Y-110069285D02*
X102385333Y-110069285D01*
X102909142Y-109402619D01*
X102385333Y-109402619D01*
D10*
X103203333Y-112053619D02*
X103203333Y-111339333D01*
X103250952Y-111196476D01*
X103346190Y-111101238D01*
X103489047Y-111053619D01*
X103584285Y-111053619D01*
X102822380Y-112053619D02*
X102155714Y-112053619D01*
X102584285Y-111053619D01*
X110085142Y-103798666D02*
X110132761Y-103846285D01*
X110180380Y-103989142D01*
X110180380Y-104084380D01*
X110132761Y-104227238D01*
X110037523Y-104322476D01*
X109942285Y-104370095D01*
X109751809Y-104417714D01*
X109608952Y-104417714D01*
X109418476Y-104370095D01*
X109323238Y-104322476D01*
X109228000Y-104227238D01*
X109180380Y-104084380D01*
X109180380Y-103989142D01*
X109228000Y-103846285D01*
X109275619Y-103798666D01*
X109180380Y-103465333D02*
X109180380Y-102798666D01*
X110180380Y-103227238D01*
X125833142Y-106592666D02*
X125880761Y-106640285D01*
X125928380Y-106783142D01*
X125928380Y-106878380D01*
X125880761Y-107021238D01*
X125785523Y-107116476D01*
X125690285Y-107164095D01*
X125499809Y-107211714D01*
X125356952Y-107211714D01*
X125166476Y-107164095D01*
X125071238Y-107116476D01*
X124976000Y-107021238D01*
X124928380Y-106878380D01*
X124928380Y-106783142D01*
X124976000Y-106640285D01*
X125023619Y-106592666D01*
X124928380Y-106259333D02*
X124928380Y-105640285D01*
X125309333Y-105973619D01*
X125309333Y-105830761D01*
X125356952Y-105735523D01*
X125404571Y-105687904D01*
X125499809Y-105640285D01*
X125737904Y-105640285D01*
X125833142Y-105687904D01*
X125880761Y-105735523D01*
X125928380Y-105830761D01*
X125928380Y-106116476D01*
X125880761Y-106211714D01*
X125833142Y-106259333D01*
X135580380Y-102528666D02*
X135580380Y-103004857D01*
X134580380Y-103004857D01*
X134675619Y-102242952D02*
X134628000Y-102195333D01*
X134580380Y-102100095D01*
X134580380Y-101862000D01*
X134628000Y-101766761D01*
X134675619Y-101719142D01*
X134770857Y-101671523D01*
X134866095Y-101671523D01*
X135008952Y-101719142D01*
X135580380Y-102290571D01*
X135580380Y-101671523D01*
X137358380Y-107172357D02*
X136882190Y-107505690D01*
X137358380Y-107743785D02*
X136358380Y-107743785D01*
X136358380Y-107362833D01*
X136406000Y-107267595D01*
X136453619Y-107219976D01*
X136548857Y-107172357D01*
X136691714Y-107172357D01*
X136786952Y-107219976D01*
X136834571Y-107267595D01*
X136882190Y-107362833D01*
X136882190Y-107743785D01*
X137358380Y-106219976D02*
X137358380Y-106791404D01*
X137358380Y-106505690D02*
X136358380Y-106505690D01*
X136501238Y-106600928D01*
X136596476Y-106696166D01*
X136644095Y-106791404D01*
X136691714Y-105362833D02*
X137358380Y-105362833D01*
X136310761Y-105600928D02*
X137025047Y-105839023D01*
X137025047Y-105219976D01*
X145646380Y-102393357D02*
X145170190Y-102726690D01*
X145646380Y-102964785D02*
X144646380Y-102964785D01*
X144646380Y-102583833D01*
X144694000Y-102488595D01*
X144741619Y-102440976D01*
X144836857Y-102393357D01*
X144979714Y-102393357D01*
X145074952Y-102440976D01*
X145122571Y-102488595D01*
X145170190Y-102583833D01*
X145170190Y-102964785D01*
X145646380Y-101440976D02*
X145646380Y-102012404D01*
X145646380Y-101726690D02*
X144646380Y-101726690D01*
X144789238Y-101821928D01*
X144884476Y-101917166D01*
X144932095Y-102012404D01*
X144646380Y-101107642D02*
X144646380Y-100488595D01*
X145027333Y-100821928D01*
X145027333Y-100679071D01*
X145074952Y-100583833D01*
X145122571Y-100536214D01*
X145217809Y-100488595D01*
X145455904Y-100488595D01*
X145551142Y-100536214D01*
X145598761Y-100583833D01*
X145646380Y-100679071D01*
X145646380Y-100964785D01*
X145598761Y-101060023D01*
X145551142Y-101107642D01*
X140914380Y-102393357D02*
X140438190Y-102726690D01*
X140914380Y-102964785D02*
X139914380Y-102964785D01*
X139914380Y-102583833D01*
X139962000Y-102488595D01*
X140009619Y-102440976D01*
X140104857Y-102393357D01*
X140247714Y-102393357D01*
X140342952Y-102440976D01*
X140390571Y-102488595D01*
X140438190Y-102583833D01*
X140438190Y-102964785D01*
X140914380Y-101440976D02*
X140914380Y-102012404D01*
X140914380Y-101726690D02*
X139914380Y-101726690D01*
X140057238Y-101821928D01*
X140152476Y-101917166D01*
X140200095Y-102012404D01*
X140009619Y-101060023D02*
X139962000Y-101012404D01*
X139914380Y-100917166D01*
X139914380Y-100679071D01*
X139962000Y-100583833D01*
X140009619Y-100536214D01*
X140104857Y-100488595D01*
X140200095Y-100488595D01*
X140342952Y-100536214D01*
X140914380Y-101107642D01*
X140914380Y-100488595D01*
X120086380Y-100718857D02*
X119610190Y-101052190D01*
X120086380Y-101290285D02*
X119086380Y-101290285D01*
X119086380Y-100909333D01*
X119134000Y-100814095D01*
X119181619Y-100766476D01*
X119276857Y-100718857D01*
X119419714Y-100718857D01*
X119514952Y-100766476D01*
X119562571Y-100814095D01*
X119610190Y-100909333D01*
X119610190Y-101290285D01*
X120086380Y-99766476D02*
X120086380Y-100337904D01*
X120086380Y-100052190D02*
X119086380Y-100052190D01*
X119229238Y-100147428D01*
X119324476Y-100242666D01*
X119372095Y-100337904D01*
X120086380Y-98814095D02*
X120086380Y-99385523D01*
X120086380Y-99099809D02*
X119086380Y-99099809D01*
X119229238Y-99195047D01*
X119324476Y-99290285D01*
X119372095Y-99385523D01*
X118991142Y-97734380D02*
X118657809Y-97258190D01*
X118419714Y-97734380D02*
X118419714Y-96734380D01*
X118800666Y-96734380D01*
X118895904Y-96782000D01*
X118943523Y-96829619D01*
X118991142Y-96924857D01*
X118991142Y-97067714D01*
X118943523Y-97162952D01*
X118895904Y-97210571D01*
X118800666Y-97258190D01*
X118419714Y-97258190D01*
X119943523Y-97734380D02*
X119372095Y-97734380D01*
X119657809Y-97734380D02*
X119657809Y-96734380D01*
X119562571Y-96877238D01*
X119467333Y-96972476D01*
X119372095Y-97020095D01*
X120562571Y-96734380D02*
X120657809Y-96734380D01*
X120753047Y-96782000D01*
X120800666Y-96829619D01*
X120848285Y-96924857D01*
X120895904Y-97115333D01*
X120895904Y-97353428D01*
X120848285Y-97543904D01*
X120800666Y-97639142D01*
X120753047Y-97686761D01*
X120657809Y-97734380D01*
X120562571Y-97734380D01*
X120467333Y-97686761D01*
X120419714Y-97639142D01*
X120372095Y-97543904D01*
X120324476Y-97353428D01*
X120324476Y-97115333D01*
X120372095Y-96924857D01*
X120419714Y-96829619D01*
X120467333Y-96782000D01*
X120562571Y-96734380D01*
X112118380Y-97298166D02*
X111642190Y-97631500D01*
X112118380Y-97869595D02*
X111118380Y-97869595D01*
X111118380Y-97488642D01*
X111166000Y-97393404D01*
X111213619Y-97345785D01*
X111308857Y-97298166D01*
X111451714Y-97298166D01*
X111546952Y-97345785D01*
X111594571Y-97393404D01*
X111642190Y-97488642D01*
X111642190Y-97869595D01*
X112118380Y-96821976D02*
X112118380Y-96631500D01*
X112070761Y-96536261D01*
X112023142Y-96488642D01*
X111880285Y-96393404D01*
X111689809Y-96345785D01*
X111308857Y-96345785D01*
X111213619Y-96393404D01*
X111166000Y-96441023D01*
X111118380Y-96536261D01*
X111118380Y-96726738D01*
X111166000Y-96821976D01*
X111213619Y-96869595D01*
X111308857Y-96917214D01*
X111546952Y-96917214D01*
X111642190Y-96869595D01*
X111689809Y-96821976D01*
X111737428Y-96726738D01*
X111737428Y-96536261D01*
X111689809Y-96441023D01*
X111642190Y-96393404D01*
X111546952Y-96345785D01*
X113625333Y-94432380D02*
X113292000Y-93956190D01*
X113053904Y-94432380D02*
X113053904Y-93432380D01*
X113434857Y-93432380D01*
X113530095Y-93480000D01*
X113577714Y-93527619D01*
X113625333Y-93622857D01*
X113625333Y-93765714D01*
X113577714Y-93860952D01*
X113530095Y-93908571D01*
X113434857Y-93956190D01*
X113053904Y-93956190D01*
X114196761Y-93860952D02*
X114101523Y-93813333D01*
X114053904Y-93765714D01*
X114006285Y-93670476D01*
X114006285Y-93622857D01*
X114053904Y-93527619D01*
X114101523Y-93480000D01*
X114196761Y-93432380D01*
X114387238Y-93432380D01*
X114482476Y-93480000D01*
X114530095Y-93527619D01*
X114577714Y-93622857D01*
X114577714Y-93670476D01*
X114530095Y-93765714D01*
X114482476Y-93813333D01*
X114387238Y-93860952D01*
X114196761Y-93860952D01*
X114101523Y-93908571D01*
X114053904Y-93956190D01*
X114006285Y-94051428D01*
X114006285Y-94241904D01*
X114053904Y-94337142D01*
X114101523Y-94384761D01*
X114196761Y-94432380D01*
X114387238Y-94432380D01*
X114482476Y-94384761D01*
X114530095Y-94337142D01*
X114577714Y-94241904D01*
X114577714Y-94051428D01*
X114530095Y-93956190D01*
X114482476Y-93908571D01*
X114387238Y-93860952D01*
X103719333Y-94686380D02*
X103386000Y-94210190D01*
X103147904Y-94686380D02*
X103147904Y-93686380D01*
X103528857Y-93686380D01*
X103624095Y-93734000D01*
X103671714Y-93781619D01*
X103719333Y-93876857D01*
X103719333Y-94019714D01*
X103671714Y-94114952D01*
X103624095Y-94162571D01*
X103528857Y-94210190D01*
X103147904Y-94210190D01*
X104052666Y-93686380D02*
X104719333Y-93686380D01*
X104290761Y-94686380D01*
X102703333Y-91544380D02*
X102370000Y-91068190D01*
X102131904Y-91544380D02*
X102131904Y-90544380D01*
X102512857Y-90544380D01*
X102608095Y-90592000D01*
X102655714Y-90639619D01*
X102703333Y-90734857D01*
X102703333Y-90877714D01*
X102655714Y-90972952D01*
X102608095Y-91020571D01*
X102512857Y-91068190D01*
X102131904Y-91068190D01*
X103560476Y-90544380D02*
X103370000Y-90544380D01*
X103274761Y-90592000D01*
X103227142Y-90639619D01*
X103131904Y-90782476D01*
X103084285Y-90972952D01*
X103084285Y-91353904D01*
X103131904Y-91449142D01*
X103179523Y-91496761D01*
X103274761Y-91544380D01*
X103465238Y-91544380D01*
X103560476Y-91496761D01*
X103608095Y-91449142D01*
X103655714Y-91353904D01*
X103655714Y-91115809D01*
X103608095Y-91020571D01*
X103560476Y-90972952D01*
X103465238Y-90925333D01*
X103274761Y-90925333D01*
X103179523Y-90972952D01*
X103131904Y-91020571D01*
X103084285Y-91115809D01*
X113879333Y-98496380D02*
X113546000Y-98020190D01*
X113307904Y-98496380D02*
X113307904Y-97496380D01*
X113688857Y-97496380D01*
X113784095Y-97544000D01*
X113831714Y-97591619D01*
X113879333Y-97686857D01*
X113879333Y-97829714D01*
X113831714Y-97924952D01*
X113784095Y-97972571D01*
X113688857Y-98020190D01*
X113307904Y-98020190D01*
X114784095Y-97496380D02*
X114307904Y-97496380D01*
X114260285Y-97972571D01*
X114307904Y-97924952D01*
X114403142Y-97877333D01*
X114641238Y-97877333D01*
X114736476Y-97924952D01*
X114784095Y-97972571D01*
X114831714Y-98067809D01*
X114831714Y-98305904D01*
X114784095Y-98401142D01*
X114736476Y-98448761D01*
X114641238Y-98496380D01*
X114403142Y-98496380D01*
X114307904Y-98448761D01*
X114260285Y-98401142D01*
X120991333Y-88082380D02*
X120658000Y-87606190D01*
X120419904Y-88082380D02*
X120419904Y-87082380D01*
X120800857Y-87082380D01*
X120896095Y-87130000D01*
X120943714Y-87177619D01*
X120991333Y-87272857D01*
X120991333Y-87415714D01*
X120943714Y-87510952D01*
X120896095Y-87558571D01*
X120800857Y-87606190D01*
X120419904Y-87606190D01*
X121848476Y-87415714D02*
X121848476Y-88082380D01*
X121610380Y-87034761D02*
X121372285Y-87749047D01*
X121991333Y-87749047D01*
X107021333Y-92654380D02*
X106688000Y-92178190D01*
X106449904Y-92654380D02*
X106449904Y-91654380D01*
X106830857Y-91654380D01*
X106926095Y-91702000D01*
X106973714Y-91749619D01*
X107021333Y-91844857D01*
X107021333Y-91987714D01*
X106973714Y-92082952D01*
X106926095Y-92130571D01*
X106830857Y-92178190D01*
X106449904Y-92178190D01*
X107354666Y-91654380D02*
X107973714Y-91654380D01*
X107640380Y-92035333D01*
X107783238Y-92035333D01*
X107878476Y-92082952D01*
X107926095Y-92130571D01*
X107973714Y-92225809D01*
X107973714Y-92463904D01*
X107926095Y-92559142D01*
X107878476Y-92606761D01*
X107783238Y-92654380D01*
X107497523Y-92654380D01*
X107402285Y-92606761D01*
X107354666Y-92559142D01*
X110807833Y-92654380D02*
X110474500Y-92178190D01*
X110236404Y-92654380D02*
X110236404Y-91654380D01*
X110617357Y-91654380D01*
X110712595Y-91702000D01*
X110760214Y-91749619D01*
X110807833Y-91844857D01*
X110807833Y-91987714D01*
X110760214Y-92082952D01*
X110712595Y-92130571D01*
X110617357Y-92178190D01*
X110236404Y-92178190D01*
X111188785Y-91749619D02*
X111236404Y-91702000D01*
X111331642Y-91654380D01*
X111569738Y-91654380D01*
X111664976Y-91702000D01*
X111712595Y-91749619D01*
X111760214Y-91844857D01*
X111760214Y-91940095D01*
X111712595Y-92082952D01*
X111141166Y-92654380D01*
X111760214Y-92654380D01*
X106878380Y-106592666D02*
X106402190Y-106926000D01*
X106878380Y-107164095D02*
X105878380Y-107164095D01*
X105878380Y-106783142D01*
X105926000Y-106687904D01*
X105973619Y-106640285D01*
X106068857Y-106592666D01*
X106211714Y-106592666D01*
X106306952Y-106640285D01*
X106354571Y-106687904D01*
X106402190Y-106783142D01*
X106402190Y-107164095D01*
X106878380Y-105640285D02*
X106878380Y-106211714D01*
X106878380Y-105926000D02*
X105878380Y-105926000D01*
X106021238Y-106021238D01*
X106116476Y-106116476D01*
X106164095Y-106211714D01*
X137263142Y-101258666D02*
X137310761Y-101306285D01*
X137358380Y-101449142D01*
X137358380Y-101544380D01*
X137310761Y-101687238D01*
X137215523Y-101782476D01*
X137120285Y-101830095D01*
X136929809Y-101877714D01*
X136786952Y-101877714D01*
X136596476Y-101830095D01*
X136501238Y-101782476D01*
X136406000Y-101687238D01*
X136358380Y-101544380D01*
X136358380Y-101449142D01*
X136406000Y-101306285D01*
X136453619Y-101258666D01*
X136786952Y-100687238D02*
X136739333Y-100782476D01*
X136691714Y-100830095D01*
X136596476Y-100877714D01*
X136548857Y-100877714D01*
X136453619Y-100830095D01*
X136406000Y-100782476D01*
X136358380Y-100687238D01*
X136358380Y-100496761D01*
X136406000Y-100401523D01*
X136453619Y-100353904D01*
X136548857Y-100306285D01*
X136596476Y-100306285D01*
X136691714Y-100353904D01*
X136739333Y-100401523D01*
X136786952Y-100496761D01*
X136786952Y-100687238D01*
X136834571Y-100782476D01*
X136882190Y-100830095D01*
X136977428Y-100877714D01*
X137167904Y-100877714D01*
X137263142Y-100830095D01*
X137310761Y-100782476D01*
X137358380Y-100687238D01*
X137358380Y-100496761D01*
X137310761Y-100401523D01*
X137263142Y-100353904D01*
X137167904Y-100306285D01*
X136977428Y-100306285D01*
X136882190Y-100353904D01*
X136834571Y-100401523D01*
X136786952Y-100496761D01*
X121863142Y-56533166D02*
X121910761Y-56580785D01*
X121958380Y-56723642D01*
X121958380Y-56818880D01*
X121910761Y-56961738D01*
X121815523Y-57056976D01*
X121720285Y-57104595D01*
X121529809Y-57152214D01*
X121386952Y-57152214D01*
X121196476Y-57104595D01*
X121101238Y-57056976D01*
X121006000Y-56961738D01*
X120958380Y-56818880D01*
X120958380Y-56723642D01*
X121006000Y-56580785D01*
X121053619Y-56533166D01*
X120958380Y-55676023D02*
X120958380Y-55866500D01*
X121006000Y-55961738D01*
X121053619Y-56009357D01*
X121196476Y-56104595D01*
X121386952Y-56152214D01*
X121767904Y-56152214D01*
X121863142Y-56104595D01*
X121910761Y-56056976D01*
X121958380Y-55961738D01*
X121958380Y-55771261D01*
X121910761Y-55676023D01*
X121863142Y-55628404D01*
X121767904Y-55580785D01*
X121529809Y-55580785D01*
X121434571Y-55628404D01*
X121386952Y-55676023D01*
X121339333Y-55771261D01*
X121339333Y-55961738D01*
X121386952Y-56056976D01*
X121434571Y-56104595D01*
X121529809Y-56152214D01*
X126849142Y-56554666D02*
X126896761Y-56602285D01*
X126944380Y-56745142D01*
X126944380Y-56840380D01*
X126896761Y-56983238D01*
X126801523Y-57078476D01*
X126706285Y-57126095D01*
X126515809Y-57173714D01*
X126372952Y-57173714D01*
X126182476Y-57126095D01*
X126087238Y-57078476D01*
X125992000Y-56983238D01*
X125944380Y-56840380D01*
X125944380Y-56745142D01*
X125992000Y-56602285D01*
X126039619Y-56554666D01*
X125944380Y-55649904D02*
X125944380Y-56126095D01*
X126420571Y-56173714D01*
X126372952Y-56126095D01*
X126325333Y-56030857D01*
X126325333Y-55792761D01*
X126372952Y-55697523D01*
X126420571Y-55649904D01*
X126515809Y-55602285D01*
X126753904Y-55602285D01*
X126849142Y-55649904D01*
X126896761Y-55697523D01*
X126944380Y-55792761D01*
X126944380Y-56030857D01*
X126896761Y-56126095D01*
X126849142Y-56173714D01*
X114657142Y-90336666D02*
X114704761Y-90384285D01*
X114752380Y-90527142D01*
X114752380Y-90622380D01*
X114704761Y-90765238D01*
X114609523Y-90860476D01*
X114514285Y-90908095D01*
X114323809Y-90955714D01*
X114180952Y-90955714D01*
X113990476Y-90908095D01*
X113895238Y-90860476D01*
X113800000Y-90765238D01*
X113752380Y-90622380D01*
X113752380Y-90527142D01*
X113800000Y-90384285D01*
X113847619Y-90336666D01*
X114085714Y-89479523D02*
X114752380Y-89479523D01*
X113704761Y-89717619D02*
X114419047Y-89955714D01*
X114419047Y-89336666D01*
X113387142Y-90336666D02*
X113434761Y-90384285D01*
X113482380Y-90527142D01*
X113482380Y-90622380D01*
X113434761Y-90765238D01*
X113339523Y-90860476D01*
X113244285Y-90908095D01*
X113053809Y-90955714D01*
X112910952Y-90955714D01*
X112720476Y-90908095D01*
X112625238Y-90860476D01*
X112530000Y-90765238D01*
X112482380Y-90622380D01*
X112482380Y-90527142D01*
X112530000Y-90384285D01*
X112577619Y-90336666D01*
X112577619Y-89955714D02*
X112530000Y-89908095D01*
X112482380Y-89812857D01*
X112482380Y-89574761D01*
X112530000Y-89479523D01*
X112577619Y-89431904D01*
X112672857Y-89384285D01*
X112768095Y-89384285D01*
X112910952Y-89431904D01*
X113482380Y-90003333D01*
X113482380Y-89384285D01*
X127103142Y-106592666D02*
X127150761Y-106640285D01*
X127198380Y-106783142D01*
X127198380Y-106878380D01*
X127150761Y-107021238D01*
X127055523Y-107116476D01*
X126960285Y-107164095D01*
X126769809Y-107211714D01*
X126626952Y-107211714D01*
X126436476Y-107164095D01*
X126341238Y-107116476D01*
X126246000Y-107021238D01*
X126198380Y-106878380D01*
X126198380Y-106783142D01*
X126246000Y-106640285D01*
X126293619Y-106592666D01*
X127198380Y-105640285D02*
X127198380Y-106211714D01*
X127198380Y-105926000D02*
X126198380Y-105926000D01*
X126341238Y-106021238D01*
X126436476Y-106116476D01*
X126484095Y-106211714D01*
X111593333Y-102306380D02*
X111117142Y-102306380D01*
X111117142Y-101306380D01*
X112450476Y-102306380D02*
X111879047Y-102306380D01*
X112164761Y-102306380D02*
X112164761Y-101306380D01*
X112069523Y-101449238D01*
X111974285Y-101544476D01*
X111879047Y-101592095D01*
X131786380Y-107521333D02*
X132500666Y-107521333D01*
X132643523Y-107568952D01*
X132738761Y-107664190D01*
X132786380Y-107807047D01*
X132786380Y-107902285D01*
X131786380Y-107140380D02*
X131786380Y-106521333D01*
X132167333Y-106854666D01*
X132167333Y-106711809D01*
X132214952Y-106616571D01*
X132262571Y-106568952D01*
X132357809Y-106521333D01*
X132595904Y-106521333D01*
X132691142Y-106568952D01*
X132738761Y-106616571D01*
X132786380Y-106711809D01*
X132786380Y-106997523D01*
X132738761Y-107092761D01*
X132691142Y-107140380D01*
X124658380Y-107164095D02*
X123658380Y-107164095D01*
X123658380Y-106926000D01*
X123706000Y-106783142D01*
X123801238Y-106687904D01*
X123896476Y-106640285D01*
X124086952Y-106592666D01*
X124229809Y-106592666D01*
X124420285Y-106640285D01*
X124515523Y-106687904D01*
X124610761Y-106783142D01*
X124658380Y-106926000D01*
X124658380Y-107164095D01*
X123753619Y-106211714D02*
X123706000Y-106164095D01*
X123658380Y-106068857D01*
X123658380Y-105830761D01*
X123706000Y-105735523D01*
X123753619Y-105687904D01*
X123848857Y-105640285D01*
X123944095Y-105640285D01*
X124086952Y-105687904D01*
X124658380Y-106259333D01*
X124658380Y-105640285D01*
X103425666Y-105609380D02*
X103425666Y-106323666D01*
X103378047Y-106466523D01*
X103282809Y-106561761D01*
X103139952Y-106609380D01*
X103044714Y-106609380D01*
X104425666Y-106609380D02*
X103854238Y-106609380D01*
X104139952Y-106609380D02*
X104139952Y-105609380D01*
X104044714Y-105752238D01*
X103949476Y-105847476D01*
X103854238Y-105895095D01*
X104822666Y-85896380D02*
X104822666Y-86610666D01*
X104775047Y-86753523D01*
X104679809Y-86848761D01*
X104536952Y-86896380D01*
X104441714Y-86896380D01*
X105251238Y-85991619D02*
X105298857Y-85944000D01*
X105394095Y-85896380D01*
X105632190Y-85896380D01*
X105727428Y-85944000D01*
X105775047Y-85991619D01*
X105822666Y-86086857D01*
X105822666Y-86182095D01*
X105775047Y-86324952D01*
X105203619Y-86896380D01*
X105822666Y-86896380D01*
X124674380Y-96337333D02*
X125388666Y-96337333D01*
X125531523Y-96384952D01*
X125626761Y-96480190D01*
X125674380Y-96623047D01*
X125674380Y-96718285D01*
X125674380Y-95861142D02*
X124674380Y-95861142D01*
X124674380Y-95480190D01*
X124722000Y-95384952D01*
X124769619Y-95337333D01*
X124864857Y-95289714D01*
X125007714Y-95289714D01*
X125102952Y-95337333D01*
X125150571Y-95384952D01*
X125198190Y-95480190D01*
X125198190Y-95861142D01*
X125674380Y-94337333D02*
X125674380Y-94908761D01*
X125674380Y-94623047D02*
X124674380Y-94623047D01*
X124817238Y-94718285D01*
X124912476Y-94813523D01*
X124960095Y-94908761D01*
D12*
X143576523Y-94711761D02*
X142306523Y-94711761D01*
X143455571Y-93381285D02*
X143516047Y-93441761D01*
X143576523Y-93623190D01*
X143576523Y-93744142D01*
X143516047Y-93925571D01*
X143395095Y-94046523D01*
X143274142Y-94107000D01*
X143032238Y-94167476D01*
X142850809Y-94167476D01*
X142608904Y-94107000D01*
X142487952Y-94046523D01*
X142367000Y-93925571D01*
X142306523Y-93744142D01*
X142306523Y-93623190D01*
X142367000Y-93441761D01*
X142427476Y-93381285D01*
X142427476Y-92897476D02*
X142367000Y-92837000D01*
X142306523Y-92716047D01*
X142306523Y-92413666D01*
X142367000Y-92292714D01*
X142427476Y-92232238D01*
X142548428Y-92171761D01*
X142669380Y-92171761D01*
X142850809Y-92232238D01*
X143576523Y-92957952D01*
X143576523Y-92171761D01*
D10*
X102131904Y-86812380D02*
X102131904Y-85812380D01*
X102370000Y-85812380D01*
X102512857Y-85860000D01*
X102608095Y-85955238D01*
X102655714Y-86050476D01*
X102703333Y-86240952D01*
X102703333Y-86383809D01*
X102655714Y-86574285D01*
X102608095Y-86669523D01*
X102512857Y-86764761D01*
X102370000Y-86812380D01*
X102131904Y-86812380D01*
X103655714Y-86812380D02*
X103084285Y-86812380D01*
X103370000Y-86812380D02*
X103370000Y-85812380D01*
X103274761Y-85955238D01*
X103179523Y-86050476D01*
X103084285Y-86098095D01*
X140914380Y-105894095D02*
X139914380Y-105894095D01*
X139914380Y-105656000D01*
X139962000Y-105513142D01*
X140057238Y-105417904D01*
X140152476Y-105370285D01*
X140342952Y-105322666D01*
X140485809Y-105322666D01*
X140676285Y-105370285D01*
X140771523Y-105417904D01*
X140866761Y-105513142D01*
X140914380Y-105656000D01*
X140914380Y-105894095D01*
X139914380Y-104989333D02*
X139914380Y-104370285D01*
X140295333Y-104703619D01*
X140295333Y-104560761D01*
X140342952Y-104465523D01*
X140390571Y-104417904D01*
X140485809Y-104370285D01*
X140723904Y-104370285D01*
X140819142Y-104417904D01*
X140866761Y-104465523D01*
X140914380Y-104560761D01*
X140914380Y-104846476D01*
X140866761Y-104941714D01*
X140819142Y-104989333D01*
X145740380Y-105894095D02*
X144740380Y-105894095D01*
X144740380Y-105656000D01*
X144788000Y-105513142D01*
X144883238Y-105417904D01*
X144978476Y-105370285D01*
X145168952Y-105322666D01*
X145311809Y-105322666D01*
X145502285Y-105370285D01*
X145597523Y-105417904D01*
X145692761Y-105513142D01*
X145740380Y-105656000D01*
X145740380Y-105894095D01*
X145073714Y-104465523D02*
X145740380Y-104465523D01*
X144692761Y-104703619D02*
X145407047Y-104941714D01*
X145407047Y-104322666D01*
X113498380Y-101345904D02*
X114307904Y-101345904D01*
X114403142Y-101298285D01*
X114450761Y-101250666D01*
X114498380Y-101155428D01*
X114498380Y-100964952D01*
X114450761Y-100869714D01*
X114403142Y-100822095D01*
X114307904Y-100774476D01*
X113498380Y-100774476D01*
X113498380Y-100393523D02*
X113498380Y-99774476D01*
X113879333Y-100107809D01*
X113879333Y-99964952D01*
X113926952Y-99869714D01*
X113974571Y-99822095D01*
X114069809Y-99774476D01*
X114307904Y-99774476D01*
X114403142Y-99822095D01*
X114450761Y-99869714D01*
X114498380Y-99964952D01*
X114498380Y-100250666D01*
X114450761Y-100345904D01*
X114403142Y-100393523D01*
X109005619Y-100425238D02*
X108958000Y-100520476D01*
X108862761Y-100615714D01*
X108719904Y-100758571D01*
X108672285Y-100853809D01*
X108672285Y-100949047D01*
X108910380Y-100901428D02*
X108862761Y-100996666D01*
X108767523Y-101091904D01*
X108577047Y-101139523D01*
X108243714Y-101139523D01*
X108053238Y-101091904D01*
X107958000Y-100996666D01*
X107910380Y-100901428D01*
X107910380Y-100710952D01*
X107958000Y-100615714D01*
X108053238Y-100520476D01*
X108243714Y-100472857D01*
X108577047Y-100472857D01*
X108767523Y-100520476D01*
X108862761Y-100615714D01*
X108910380Y-100710952D01*
X108910380Y-100901428D01*
X108910380Y-99520476D02*
X108910380Y-100091904D01*
X108910380Y-99806190D02*
X107910380Y-99806190D01*
X108053238Y-99901428D01*
X108148476Y-99996666D01*
X108196095Y-100091904D01*
X118364095Y-87844380D02*
X118364095Y-88653904D01*
X118411714Y-88749142D01*
X118459333Y-88796761D01*
X118554571Y-88844380D01*
X118745047Y-88844380D01*
X118840285Y-88796761D01*
X118887904Y-88749142D01*
X118935523Y-88653904D01*
X118935523Y-87844380D01*
X119364095Y-87939619D02*
X119411714Y-87892000D01*
X119506952Y-87844380D01*
X119745047Y-87844380D01*
X119840285Y-87892000D01*
X119887904Y-87939619D01*
X119935523Y-88034857D01*
X119935523Y-88130095D01*
X119887904Y-88272952D01*
X119316476Y-88844380D01*
X119935523Y-88844380D01*
D13*
X108993000Y-106708752D02*
X108993000Y-106186248D01*
X110463000Y-106708752D02*
X110463000Y-106186248D01*
X123979000Y-103744752D02*
X123979000Y-103222248D01*
X125449000Y-103744752D02*
X125449000Y-103222248D01*
X137360733Y-104650000D02*
X137703267Y-104650000D01*
X137360733Y-103630000D02*
X137703267Y-103630000D01*
X138952500Y-106274776D02*
X138952500Y-106784224D01*
X137907500Y-106274776D02*
X137907500Y-106784224D01*
X144286500Y-101495776D02*
X144286500Y-102005224D01*
X143241500Y-101495776D02*
X143241500Y-102005224D01*
X142635500Y-101495776D02*
X142635500Y-102005224D01*
X141590500Y-101495776D02*
X141590500Y-102005224D01*
X122071224Y-98820500D02*
X121561776Y-98820500D01*
X122071224Y-97775500D02*
X121561776Y-97775500D01*
X121538276Y-99553500D02*
X122047724Y-99553500D01*
X121538276Y-100598500D02*
X122047724Y-100598500D01*
X110758500Y-96876776D02*
X110758500Y-97386224D01*
X109713500Y-96876776D02*
X109713500Y-97386224D01*
X111403224Y-94629500D02*
X110893776Y-94629500D01*
X111403224Y-93584500D02*
X110893776Y-93584500D01*
X106911224Y-94629500D02*
X106401776Y-94629500D01*
X106911224Y-93584500D02*
X106401776Y-93584500D01*
X104037224Y-90184500D02*
X103527776Y-90184500D01*
X104037224Y-89139500D02*
X103527776Y-89139500D01*
X116354776Y-97394500D02*
X116864224Y-97394500D01*
X116354776Y-98439500D02*
X116864224Y-98439500D01*
X124103224Y-88025500D02*
X123593776Y-88025500D01*
X124103224Y-86980500D02*
X123593776Y-86980500D01*
X107290776Y-90282500D02*
X107800224Y-90282500D01*
X107290776Y-91327500D02*
X107800224Y-91327500D01*
X110719776Y-90282500D02*
X111229224Y-90282500D01*
X110719776Y-91327500D02*
X111229224Y-91327500D01*
X105903500Y-104037224D02*
X105903500Y-103527776D01*
X106948500Y-104037224D02*
X106948500Y-103527776D01*
X138940000Y-101607233D02*
X138940000Y-101899767D01*
X137920000Y-101607233D02*
X137920000Y-101899767D01*
X122426000Y-56512767D02*
X122426000Y-56220233D01*
X123446000Y-56512767D02*
X123446000Y-56220233D01*
X124458000Y-56512767D02*
X124458000Y-56220233D01*
X125478000Y-56512767D02*
X125478000Y-56220233D01*
X114937000Y-87383233D02*
X114937000Y-87675767D01*
X113917000Y-87383233D02*
X113917000Y-87675767D01*
X113413000Y-87383233D02*
X113413000Y-87675767D01*
X112393000Y-87383233D02*
X112393000Y-87675767D01*
X126109000Y-103423767D02*
X126109000Y-103131233D01*
X127129000Y-103423767D02*
X127129000Y-103131233D01*
X118236000Y-103480000D02*
X118236000Y-102800000D01*
X118236000Y-108020000D02*
X112316000Y-108020000D01*
X118236000Y-102800000D02*
X112316000Y-102800000D01*
X112316000Y-103480000D02*
X112316000Y-102800000D01*
X118236000Y-108020000D02*
X118236000Y-107340000D01*
X112316000Y-108020000D02*
X112316000Y-107340000D01*
X135696000Y-105978000D02*
X135696000Y-103318000D01*
X130556000Y-105978000D02*
X135696000Y-105978000D01*
X129286000Y-105978000D02*
X127956000Y-105978000D01*
X130556000Y-103318000D02*
X135696000Y-103318000D01*
X127956000Y-105978000D02*
X127956000Y-104648000D01*
X130556000Y-105978000D02*
X130556000Y-103318000D01*
X123316000Y-101248000D02*
X123316000Y-106648000D01*
X120016000Y-101248000D02*
X120016000Y-106648000D01*
X123316000Y-101248000D02*
X120016000Y-101248000D01*
X105089000Y-97207000D02*
X102429000Y-97207000D01*
X105089000Y-102347000D02*
X105089000Y-97207000D01*
X105089000Y-104947000D02*
X103759000Y-104947000D01*
X105089000Y-103617000D02*
X105089000Y-104947000D01*
X102429000Y-102347000D02*
X102429000Y-97207000D01*
X105089000Y-102347000D02*
X102429000Y-102347000D01*
X106366000Y-86444000D02*
X111566000Y-86444000D01*
X111566000Y-83784000D02*
X106366000Y-83784000D01*
X109856000Y-77784000D02*
X110616000Y-77784000D01*
X106426000Y-89154000D02*
X106426000Y-87884000D01*
X108076000Y-86774000D02*
X108076000Y-86444000D01*
X109856000Y-86841071D02*
X109856000Y-86444000D01*
X108076000Y-77784000D02*
X108076000Y-83784000D01*
X107496000Y-83784000D02*
X107496000Y-77784000D01*
X107616000Y-83784000D02*
X107616000Y-77784000D01*
X109856000Y-83784000D02*
X109856000Y-77784000D01*
X107856000Y-83784000D02*
X107856000Y-77784000D01*
X110616000Y-77784000D02*
X110616000Y-83784000D01*
X107376000Y-83784000D02*
X107376000Y-77784000D01*
X106366000Y-83784000D02*
X106366000Y-86444000D01*
X107316000Y-77784000D02*
X108076000Y-77784000D01*
X107736000Y-83784000D02*
X107736000Y-77784000D01*
X107316000Y-86774000D02*
X107316000Y-86444000D01*
X107696000Y-89154000D02*
X106426000Y-89154000D01*
X108966000Y-86444000D02*
X108966000Y-83784000D01*
X107976000Y-83784000D02*
X107976000Y-77784000D01*
X111566000Y-86444000D02*
X111566000Y-83784000D01*
X110616000Y-86841071D02*
X110616000Y-86444000D01*
X107316000Y-83784000D02*
X107316000Y-77784000D01*
X125914000Y-100457000D02*
X126214000Y-100157000D01*
X125914000Y-100457000D02*
X126214000Y-100757000D01*
X123714000Y-97107000D02*
X125714000Y-97107000D01*
X125714000Y-97107000D02*
X125714000Y-101207000D01*
X125714000Y-101207000D02*
X123714000Y-101207000D01*
X126214000Y-100757000D02*
X126214000Y-100157000D01*
X123714000Y-101207000D02*
X123714000Y-97107000D01*
D14*
X140480000Y-86954000D02*
X145980000Y-86954000D01*
D11*
X139680000Y-86254000D02*
X139680000Y-86254000D01*
D14*
X125980000Y-86954000D02*
X126480000Y-86954000D01*
X125980000Y-99954000D02*
X126480000Y-99954000D01*
X125980000Y-88954000D02*
X125980000Y-86954000D01*
X145980000Y-99954000D02*
X140480000Y-99954000D01*
D11*
X139480000Y-86254000D02*
X139480000Y-86254000D01*
D14*
X125980000Y-97954000D02*
X125980000Y-99954000D01*
X145980000Y-86954000D02*
X145980000Y-99954000D01*
D11*
X139480000Y-86254000D02*
G75*
G03*
X139680000Y-86254000I100000J0D01*
G01*
X139680000Y-86254000D02*
G75*
G03*
X139480000Y-86254000I-100000J0D01*
G01*
D13*
X105405000Y-88619000D02*
X105405000Y-87149000D01*
X105405000Y-87149000D02*
X102945000Y-87149000D01*
X102945000Y-88619000D02*
X105405000Y-88619000D01*
X141378000Y-104370000D02*
X141378000Y-106830000D01*
X141378000Y-106830000D02*
X142848000Y-106830000D01*
X142848000Y-106830000D02*
X142848000Y-104370000D01*
X143029000Y-106830000D02*
X144499000Y-106830000D01*
X143029000Y-104370000D02*
X143029000Y-106830000D01*
X144499000Y-106830000D02*
X144499000Y-104370000D01*
X116834500Y-102205000D02*
X118634500Y-102205000D01*
X116834500Y-102205000D02*
X116034500Y-102205000D01*
X116834500Y-99085000D02*
X117634500Y-99085000D01*
X116834500Y-99085000D02*
X116034500Y-99085000D01*
X109129000Y-97287500D02*
X109129000Y-95487500D01*
X109129000Y-97287500D02*
X109129000Y-98087500D01*
X106009000Y-97287500D02*
X106009000Y-98087500D01*
X106009000Y-97287500D02*
X106009000Y-96487500D01*
X122450000Y-89325000D02*
X122450000Y-89600000D01*
X119690000Y-96745000D02*
X116930000Y-96745000D01*
X119690000Y-96745000D02*
X122450000Y-96745000D01*
X119690000Y-89325000D02*
X122450000Y-89325000D01*
X116930000Y-89600000D02*
X115240000Y-89600000D01*
X116930000Y-96745000D02*
X116930000Y-96470000D01*
X116930000Y-89325000D02*
X116930000Y-89600000D01*
X122450000Y-96745000D02*
X122450000Y-96470000D01*
X119690000Y-89325000D02*
X116930000Y-89325000D01*
%LPC*%
D15*
X109728000Y-107485000D03*
X109728000Y-105410000D03*
X124714000Y-104521000D03*
X124714000Y-102446000D03*
D16*
X136657000Y-104140000D03*
X138407000Y-104140000D03*
D17*
X138430000Y-105617000D03*
X138430000Y-107442000D03*
X143764000Y-100838000D03*
X143764000Y-102663000D03*
X142113000Y-100838000D03*
X142113000Y-102663000D03*
D18*
X122729000Y-98298000D03*
X120904000Y-98298000D03*
D19*
X120880500Y-100076000D03*
X122705500Y-100076000D03*
D17*
X110236000Y-96219000D03*
X110236000Y-98044000D03*
D18*
X112061000Y-94107000D03*
X110236000Y-94107000D03*
X107569000Y-94107000D03*
X105744000Y-94107000D03*
X104695000Y-89662000D03*
X102870000Y-89662000D03*
D19*
X115697000Y-97917000D03*
X117522000Y-97917000D03*
D18*
X124761000Y-87503000D03*
X122936000Y-87503000D03*
D19*
X106633000Y-90805000D03*
X108458000Y-90805000D03*
X110062000Y-90805000D03*
X111887000Y-90805000D03*
D20*
X106426000Y-104695000D03*
X106426000Y-102870000D03*
D21*
X138430000Y-100891000D03*
X138430000Y-102616000D03*
D22*
X122936000Y-57229000D03*
X122936000Y-55504000D03*
X124968000Y-57229000D03*
X124968000Y-55504000D03*
D21*
X114427000Y-86667000D03*
X114427000Y-88392000D03*
X112903000Y-86667000D03*
X112903000Y-88392000D03*
D22*
X126619000Y-104140000D03*
X126619000Y-102415000D03*
D23*
X117776000Y-105410000D03*
X112776000Y-105410000D03*
D24*
X129286000Y-104648000D03*
D25*
X131826000Y-104648000D03*
X134366000Y-104648000D03*
D26*
X121666000Y-102648000D03*
X121666000Y-106648000D03*
D24*
X103759000Y-103617000D03*
D25*
X103759000Y-101077000D03*
X103759000Y-98537000D03*
D24*
X107696000Y-87884000D03*
D25*
X110236000Y-87884000D03*
D27*
X124714000Y-100457000D03*
X124714000Y-99157000D03*
X124714000Y-97857000D03*
D28*
X139530000Y-87594000D03*
X138430000Y-87594000D03*
X137330000Y-87594000D03*
X136230000Y-87594000D03*
X135130000Y-87594000D03*
X134030000Y-87594000D03*
X132930000Y-87594000D03*
X131830000Y-87594000D03*
X130730000Y-87594000D03*
X129630000Y-87594000D03*
X128530000Y-87594000D03*
X127430000Y-87594000D03*
D29*
X126620000Y-90154000D03*
X126620000Y-91254000D03*
X126620000Y-92354000D03*
X126620000Y-93454000D03*
X126620000Y-94554000D03*
X126620000Y-95654000D03*
X126620000Y-96754000D03*
D28*
X127430000Y-99314000D03*
X128530000Y-99314000D03*
X129630000Y-99314000D03*
X130730000Y-99314000D03*
X131830000Y-99314000D03*
X132930000Y-99314000D03*
X134030000Y-99314000D03*
X135130000Y-99314000D03*
X136230000Y-99314000D03*
X137330000Y-99314000D03*
X138430000Y-99314000D03*
X139530000Y-99314000D03*
D30*
X104620000Y-87884000D03*
X102870000Y-87884000D03*
D31*
X142113000Y-106045000D03*
X142113000Y-104295000D03*
X143764000Y-106045000D03*
X143764000Y-104295000D03*
D32*
X117972000Y-101595000D03*
X117972000Y-100645000D03*
X117972000Y-99695000D03*
X115697000Y-99695000D03*
X115697000Y-100645000D03*
X115697000Y-101595000D03*
D33*
X108519000Y-96150000D03*
X107569000Y-96150000D03*
X106619000Y-96150000D03*
X106619000Y-98425000D03*
X107569000Y-98425000D03*
X108519000Y-98425000D03*
D34*
X116190000Y-90110000D03*
X116190000Y-90760000D03*
X116190000Y-91410000D03*
X116190000Y-92060000D03*
X116190000Y-92710000D03*
X116190000Y-93360000D03*
X116190000Y-94010000D03*
X116190000Y-94660000D03*
X116190000Y-95310000D03*
X116190000Y-95960000D03*
X123190000Y-95960000D03*
X123190000Y-95310000D03*
X123190000Y-94660000D03*
X123190000Y-94010000D03*
X123190000Y-93360000D03*
X123190000Y-92710000D03*
X123190000Y-92060000D03*
X123190000Y-91410000D03*
X123190000Y-90760000D03*
X123190000Y-90110000D03*
M02*
