G04 #@! TF.GenerationSoftware,KiCad,Pcbnew,6.0.10*
G04 #@! TF.CreationDate,2023-04-28T22:54:55-05:00*
G04 #@! TF.ProjectId,base,62617365-2e6b-4696-9361-645f70636258,rev?*
G04 #@! TF.SameCoordinates,Original*
G04 #@! TF.FileFunction,Copper,L2,Bot*
G04 #@! TF.FilePolarity,Positive*
%FSLAX46Y46*%
G04 Gerber Fmt 4.6, Leading zero omitted, Abs format (unit mm)*
G04 Created by KiCad (PCBNEW 6.0.10) date 2023-04-28 22:54:55*
%MOMM*%
%LPD*%
G01*
G04 APERTURE LIST*
G04 Aperture macros list*
%AMRoundRect*
0 Rectangle with rounded corners*
0 $1 Rounding radius*
0 $2 $3 $4 $5 $6 $7 $8 $9 X,Y pos of 4 corners*
0 Add a 4 corners polygon primitive as box body*
4,1,4,$2,$3,$4,$5,$6,$7,$8,$9,$2,$3,0*
0 Add four circle primitives for the rounded corners*
1,1,$1+$1,$2,$3*
1,1,$1+$1,$4,$5*
1,1,$1+$1,$6,$7*
1,1,$1+$1,$8,$9*
0 Add four rect primitives between the rounded corners*
20,1,$1+$1,$2,$3,$4,$5,0*
20,1,$1+$1,$4,$5,$6,$7,0*
20,1,$1+$1,$6,$7,$8,$9,0*
20,1,$1+$1,$8,$9,$2,$3,0*%
G04 Aperture macros list end*
G04 #@! TA.AperFunction,ComponentPad*
%ADD10R,1.700000X1.700000*%
G04 #@! TD*
G04 #@! TA.AperFunction,ComponentPad*
%ADD11O,1.700000X1.700000*%
G04 #@! TD*
G04 #@! TA.AperFunction,SMDPad,CuDef*
%ADD12R,1.350000X4.200000*%
G04 #@! TD*
G04 #@! TA.AperFunction,ComponentPad*
%ADD13R,3.500000X3.500000*%
G04 #@! TD*
G04 #@! TA.AperFunction,ComponentPad*
%ADD14RoundRect,0.750000X0.750000X1.000000X-0.750000X1.000000X-0.750000X-1.000000X0.750000X-1.000000X0*%
G04 #@! TD*
G04 #@! TA.AperFunction,ComponentPad*
%ADD15RoundRect,0.875000X0.875000X0.875000X-0.875000X0.875000X-0.875000X-0.875000X0.875000X-0.875000X0*%
G04 #@! TD*
G04 #@! TA.AperFunction,ViaPad*
%ADD16C,0.800000*%
G04 #@! TD*
G04 #@! TA.AperFunction,Conductor*
%ADD17C,0.750000*%
G04 #@! TD*
G04 APERTURE END LIST*
D10*
X170434000Y-91186000D03*
D11*
X167894000Y-91186000D03*
X165354000Y-91186000D03*
X162814000Y-91186000D03*
D12*
X142017000Y-133767500D03*
X136367000Y-133767500D03*
D13*
X163576000Y-110490000D03*
D14*
X169576000Y-110490000D03*
D15*
X166576000Y-105790000D03*
D16*
X160274000Y-107696000D03*
X160274000Y-125476000D03*
X153670000Y-134620000D03*
X129540000Y-133350000D03*
X124460000Y-128270000D03*
X134620000Y-105410000D03*
X135890000Y-105410000D03*
X135890000Y-99060000D03*
X156210000Y-114300000D03*
X143510000Y-132080000D03*
X147320000Y-87630000D03*
X133350000Y-105410000D03*
X124460000Y-120650000D03*
X124460000Y-118110000D03*
X146050000Y-134620000D03*
X149860000Y-87630000D03*
X147320000Y-96520000D03*
X140970000Y-130810000D03*
X124460000Y-107950000D03*
X124460000Y-105410000D03*
X134620000Y-132080000D03*
X151130000Y-129540000D03*
X148844000Y-107696000D03*
X132080000Y-105410000D03*
X148590000Y-134620000D03*
X143510000Y-134620000D03*
X135890000Y-111760000D03*
X156210000Y-116840000D03*
X142240000Y-87630000D03*
X138430000Y-107950000D03*
X135890000Y-130810000D03*
X124460000Y-100330000D03*
X143510000Y-133350000D03*
X124460000Y-125730000D03*
X124460000Y-133350000D03*
X134620000Y-130810000D03*
X124460000Y-113030000D03*
X151130000Y-134620000D03*
X148590000Y-129540000D03*
X124460000Y-123190000D03*
X135890000Y-109220000D03*
X132080000Y-133350000D03*
X144780000Y-87630000D03*
X124460000Y-110490000D03*
X124460000Y-130810000D03*
X135890000Y-96520000D03*
X156210000Y-119380000D03*
X142240000Y-130810000D03*
X134620000Y-133350000D03*
X142240000Y-91440000D03*
X153670000Y-129540000D03*
X137160000Y-105410000D03*
X127000000Y-133350000D03*
X124460000Y-102870000D03*
X124460000Y-115570000D03*
X156547000Y-95421000D03*
X162560000Y-95504000D03*
X148590000Y-88900000D03*
X136398000Y-93472000D03*
X148844000Y-105156000D03*
X157480000Y-105156000D03*
X159004000Y-93218000D03*
X145288000Y-129540000D03*
X141224000Y-107188000D03*
X159004000Y-90932000D03*
D17*
X160274000Y-107696000D02*
X160274000Y-125476000D01*
X162477000Y-95421000D02*
X162560000Y-95504000D01*
X156547000Y-95421000D02*
X162477000Y-95421000D01*
X138684000Y-88900000D02*
X148590000Y-88900000D01*
X136398000Y-91186000D02*
X138684000Y-88900000D01*
X136398000Y-93472000D02*
X136398000Y-91186000D01*
X148844000Y-105156000D02*
X157480000Y-105156000D01*
X148082000Y-93218000D02*
X145288000Y-96012000D01*
X145288000Y-96012000D02*
X145288000Y-105918000D01*
X145288000Y-105918000D02*
X134874000Y-116332000D01*
X134874000Y-116332000D02*
X134874000Y-127254000D01*
X159004000Y-93218000D02*
X148082000Y-93218000D01*
X137160000Y-129540000D02*
X145288000Y-129540000D01*
X134874000Y-127254000D02*
X137160000Y-129540000D01*
X159004000Y-90932000D02*
X146812000Y-90932000D01*
X146812000Y-90932000D02*
X141224000Y-96520000D01*
X141224000Y-96520000D02*
X141224000Y-107188000D01*
G04 #@! TA.AperFunction,Conductor*
G36*
X172153621Y-81808502D02*
G01*
X172200114Y-81862158D01*
X172211500Y-81914500D01*
X172211500Y-135255500D01*
X172191498Y-135323621D01*
X172137842Y-135370114D01*
X172085500Y-135381500D01*
X123824500Y-135381500D01*
X123756379Y-135361498D01*
X123709886Y-135307842D01*
X123698500Y-135255500D01*
X123698500Y-127207507D01*
X133986850Y-127207507D01*
X133987195Y-127214094D01*
X133987195Y-127214098D01*
X133990327Y-127273850D01*
X133990500Y-127280445D01*
X133990500Y-127300306D01*
X133990844Y-127303577D01*
X133992576Y-127320059D01*
X133993093Y-127326628D01*
X133996570Y-127392971D01*
X134000042Y-127405929D01*
X134003645Y-127425372D01*
X134005046Y-127438702D01*
X134025578Y-127501894D01*
X134027444Y-127508196D01*
X134044638Y-127572363D01*
X134047634Y-127578242D01*
X134047637Y-127578251D01*
X134050728Y-127584317D01*
X134058292Y-127602579D01*
X134060392Y-127609043D01*
X134060395Y-127609051D01*
X134062436Y-127615331D01*
X134065738Y-127621050D01*
X134065740Y-127621055D01*
X134095654Y-127672867D01*
X134098787Y-127678637D01*
X134128953Y-127737839D01*
X134133109Y-127742971D01*
X134137391Y-127748259D01*
X134148589Y-127764552D01*
X134155296Y-127776169D01*
X134159713Y-127781075D01*
X134159717Y-127781080D01*
X134199747Y-127825538D01*
X134204031Y-127830554D01*
X134214441Y-127843409D01*
X134216528Y-127845986D01*
X134230573Y-127860031D01*
X134235114Y-127864816D01*
X134279566Y-127914185D01*
X134290426Y-127922075D01*
X134305454Y-127934912D01*
X136479088Y-130108546D01*
X136491925Y-130123574D01*
X136499815Y-130134434D01*
X136504725Y-130138855D01*
X136504726Y-130138856D01*
X136549184Y-130178886D01*
X136553969Y-130183427D01*
X136568014Y-130197472D01*
X136570588Y-130199556D01*
X136570591Y-130199559D01*
X136583446Y-130209969D01*
X136588462Y-130214253D01*
X136632920Y-130254283D01*
X136632925Y-130254287D01*
X136637831Y-130258704D01*
X136649097Y-130265209D01*
X136649448Y-130265411D01*
X136665741Y-130276609D01*
X136676161Y-130285047D01*
X136735363Y-130315213D01*
X136741133Y-130318346D01*
X136792945Y-130348260D01*
X136792950Y-130348262D01*
X136798669Y-130351564D01*
X136804949Y-130353605D01*
X136804957Y-130353608D01*
X136811421Y-130355708D01*
X136829683Y-130363272D01*
X136835749Y-130366363D01*
X136835758Y-130366366D01*
X136841637Y-130369362D01*
X136848015Y-130371071D01*
X136905804Y-130386556D01*
X136912106Y-130388422D01*
X136975298Y-130408954D01*
X136988205Y-130410311D01*
X136988628Y-130410355D01*
X137008071Y-130413958D01*
X137021029Y-130417430D01*
X137027620Y-130417775D01*
X137027624Y-130417776D01*
X137087354Y-130420906D01*
X137093929Y-130421423D01*
X137109126Y-130423020D01*
X137113694Y-130423500D01*
X137133568Y-130423500D01*
X137140162Y-130423673D01*
X137199901Y-130426804D01*
X137199905Y-130426804D01*
X137206493Y-130427149D01*
X137213008Y-130426117D01*
X137213011Y-130426117D01*
X137219740Y-130425051D01*
X137239450Y-130423500D01*
X145061653Y-130423500D01*
X145087850Y-130426253D01*
X145186056Y-130447128D01*
X145186061Y-130447128D01*
X145192513Y-130448500D01*
X145383487Y-130448500D01*
X145389939Y-130447128D01*
X145389944Y-130447128D01*
X145500288Y-130423673D01*
X145570288Y-130408794D01*
X145655016Y-130371071D01*
X145738722Y-130333803D01*
X145738724Y-130333802D01*
X145744752Y-130331118D01*
X145899253Y-130218866D01*
X145920625Y-130195130D01*
X146022621Y-130081852D01*
X146022622Y-130081851D01*
X146027040Y-130076944D01*
X146122527Y-129911556D01*
X146181542Y-129729928D01*
X146201504Y-129540000D01*
X146181542Y-129350072D01*
X146122527Y-129168444D01*
X146027040Y-129003056D01*
X145899253Y-128861134D01*
X145744752Y-128748882D01*
X145738724Y-128746198D01*
X145738722Y-128746197D01*
X145576319Y-128673891D01*
X145576318Y-128673891D01*
X145570288Y-128671206D01*
X145476888Y-128651353D01*
X145389944Y-128632872D01*
X145389939Y-128632872D01*
X145383487Y-128631500D01*
X145192513Y-128631500D01*
X145186061Y-128632872D01*
X145186056Y-128632872D01*
X145087850Y-128653747D01*
X145061653Y-128656500D01*
X137578148Y-128656500D01*
X137510027Y-128636498D01*
X137489053Y-128619595D01*
X135794405Y-126924947D01*
X135760379Y-126862635D01*
X135757500Y-126835852D01*
X135757500Y-125476000D01*
X159360496Y-125476000D01*
X159380458Y-125665928D01*
X159439473Y-125847556D01*
X159534960Y-126012944D01*
X159662747Y-126154866D01*
X159817248Y-126267118D01*
X159823276Y-126269802D01*
X159823278Y-126269803D01*
X159985681Y-126342109D01*
X159991712Y-126344794D01*
X160085113Y-126364647D01*
X160172056Y-126383128D01*
X160172061Y-126383128D01*
X160178513Y-126384500D01*
X160369487Y-126384500D01*
X160375939Y-126383128D01*
X160375944Y-126383128D01*
X160462887Y-126364647D01*
X160556288Y-126344794D01*
X160562319Y-126342109D01*
X160724722Y-126269803D01*
X160724724Y-126269802D01*
X160730752Y-126267118D01*
X160885253Y-126154866D01*
X161013040Y-126012944D01*
X161108527Y-125847556D01*
X161167542Y-125665928D01*
X161187504Y-125476000D01*
X161167542Y-125286072D01*
X161163667Y-125274146D01*
X161157500Y-125235210D01*
X161157500Y-112574200D01*
X161177502Y-112506079D01*
X161231158Y-112459586D01*
X161301432Y-112449482D01*
X161366012Y-112478976D01*
X161384326Y-112498635D01*
X161462739Y-112603261D01*
X161579295Y-112690615D01*
X161715684Y-112741745D01*
X161777866Y-112748500D01*
X165374134Y-112748500D01*
X165436316Y-112741745D01*
X165572705Y-112690615D01*
X165689261Y-112603261D01*
X165776615Y-112486705D01*
X165827745Y-112350316D01*
X165834500Y-112288134D01*
X165834500Y-108691866D01*
X165827745Y-108629684D01*
X165776615Y-108493295D01*
X165689261Y-108376739D01*
X165572705Y-108289385D01*
X165564304Y-108286236D01*
X165562082Y-108285019D01*
X165511936Y-108234760D01*
X165496923Y-108165369D01*
X165521809Y-108098877D01*
X165578693Y-108056395D01*
X165622592Y-108048500D01*
X167543364Y-108048500D01*
X167545037Y-108048409D01*
X167545052Y-108048409D01*
X167596599Y-108045617D01*
X167600957Y-108045381D01*
X167637667Y-108038212D01*
X167826160Y-108001402D01*
X167826161Y-108001402D01*
X167831393Y-108000380D01*
X168050952Y-107917196D01*
X168253356Y-107798209D01*
X168432819Y-107646819D01*
X168584209Y-107467356D01*
X168703196Y-107264952D01*
X168786380Y-107045393D01*
X168794340Y-107004635D01*
X168830544Y-106819243D01*
X168831381Y-106814957D01*
X168834500Y-106757364D01*
X168834500Y-104822636D01*
X168831381Y-104765043D01*
X168786380Y-104534607D01*
X168703196Y-104315048D01*
X168584209Y-104112644D01*
X168432819Y-103933181D01*
X168253356Y-103781791D01*
X168050952Y-103662804D01*
X167831393Y-103579620D01*
X167600957Y-103534619D01*
X167595227Y-103534309D01*
X167545052Y-103531591D01*
X167545037Y-103531591D01*
X167543364Y-103531500D01*
X165608636Y-103531500D01*
X165606963Y-103531591D01*
X165606948Y-103531591D01*
X165556773Y-103534309D01*
X165551043Y-103534619D01*
X165320607Y-103579620D01*
X165101048Y-103662804D01*
X164898644Y-103781791D01*
X164719181Y-103933181D01*
X164567791Y-104112644D01*
X164448804Y-104315048D01*
X164365620Y-104534607D01*
X164320619Y-104765043D01*
X164317500Y-104822636D01*
X164317500Y-106757364D01*
X164320619Y-106814957D01*
X164321456Y-106819243D01*
X164357661Y-107004635D01*
X164365620Y-107045393D01*
X164448804Y-107264952D01*
X164567791Y-107467356D01*
X164719181Y-107646819D01*
X164898644Y-107798209D01*
X165101048Y-107917196D01*
X165264488Y-107979118D01*
X165287068Y-107987673D01*
X165343683Y-108030512D01*
X165368151Y-108097160D01*
X165352702Y-108166455D01*
X165302241Y-108216398D01*
X165242427Y-108231500D01*
X161777866Y-108231500D01*
X161715684Y-108238255D01*
X161579295Y-108289385D01*
X161462739Y-108376739D01*
X161457358Y-108383919D01*
X161384326Y-108481365D01*
X161327467Y-108523880D01*
X161256648Y-108528906D01*
X161194355Y-108494846D01*
X161160365Y-108432515D01*
X161157500Y-108405800D01*
X161157500Y-107936790D01*
X161163667Y-107897854D01*
X161165502Y-107892206D01*
X161167542Y-107885928D01*
X161169138Y-107870749D01*
X161186814Y-107702565D01*
X161187504Y-107696000D01*
X161167542Y-107506072D01*
X161108527Y-107324444D01*
X161013040Y-107159056D01*
X160910698Y-107045393D01*
X160889675Y-107022045D01*
X160889674Y-107022044D01*
X160885253Y-107017134D01*
X160730752Y-106904882D01*
X160724724Y-106902198D01*
X160724722Y-106902197D01*
X160562319Y-106829891D01*
X160562318Y-106829891D01*
X160556288Y-106827206D01*
X160462888Y-106807353D01*
X160375944Y-106788872D01*
X160375939Y-106788872D01*
X160369487Y-106787500D01*
X160178513Y-106787500D01*
X160172061Y-106788872D01*
X160172056Y-106788872D01*
X160085113Y-106807353D01*
X159991712Y-106827206D01*
X159985682Y-106829891D01*
X159985681Y-106829891D01*
X159823278Y-106902197D01*
X159823276Y-106902198D01*
X159817248Y-106904882D01*
X159662747Y-107017134D01*
X159658326Y-107022044D01*
X159658325Y-107022045D01*
X159637303Y-107045393D01*
X159534960Y-107159056D01*
X159439473Y-107324444D01*
X159380458Y-107506072D01*
X159360496Y-107696000D01*
X159361186Y-107702565D01*
X159378863Y-107870749D01*
X159380458Y-107885928D01*
X159382498Y-107892206D01*
X159384333Y-107897854D01*
X159390500Y-107936790D01*
X159390500Y-125235210D01*
X159384333Y-125274146D01*
X159380458Y-125286072D01*
X159360496Y-125476000D01*
X135757500Y-125476000D01*
X135757500Y-116750148D01*
X135777502Y-116682027D01*
X135794405Y-116661053D01*
X145856546Y-106598912D01*
X145871574Y-106586075D01*
X145882434Y-106578185D01*
X145926886Y-106528816D01*
X145931427Y-106524031D01*
X145945472Y-106509986D01*
X145947559Y-106507409D01*
X145957969Y-106494554D01*
X145962253Y-106489538D01*
X146002283Y-106445080D01*
X146002287Y-106445075D01*
X146006704Y-106440169D01*
X146013411Y-106428552D01*
X146024609Y-106412259D01*
X146028891Y-106406971D01*
X146033047Y-106401839D01*
X146063213Y-106342637D01*
X146066346Y-106336867D01*
X146096260Y-106285055D01*
X146096262Y-106285050D01*
X146099564Y-106279331D01*
X146101605Y-106273051D01*
X146101608Y-106273043D01*
X146103708Y-106266579D01*
X146111272Y-106248317D01*
X146114363Y-106242251D01*
X146114366Y-106242242D01*
X146117362Y-106236363D01*
X146134556Y-106172196D01*
X146136422Y-106165894D01*
X146156954Y-106102702D01*
X146158355Y-106089372D01*
X146161958Y-106069929D01*
X146165430Y-106056971D01*
X146166202Y-106042253D01*
X146168907Y-105990633D01*
X146169424Y-105984059D01*
X146171156Y-105967577D01*
X146171500Y-105964306D01*
X146171500Y-105944445D01*
X146171673Y-105937850D01*
X146174805Y-105878098D01*
X146174805Y-105878094D01*
X146175150Y-105871507D01*
X146173051Y-105858253D01*
X146171500Y-105838544D01*
X146171500Y-105156000D01*
X147930496Y-105156000D01*
X147950458Y-105345928D01*
X148009473Y-105527556D01*
X148104960Y-105692944D01*
X148232747Y-105834866D01*
X148387248Y-105947118D01*
X148393276Y-105949802D01*
X148393278Y-105949803D01*
X148555681Y-106022109D01*
X148561712Y-106024794D01*
X148643850Y-106042253D01*
X148742056Y-106063128D01*
X148742061Y-106063128D01*
X148748513Y-106064500D01*
X148939487Y-106064500D01*
X148945939Y-106063128D01*
X148945944Y-106063128D01*
X149044150Y-106042253D01*
X149070347Y-106039500D01*
X157253653Y-106039500D01*
X157279850Y-106042253D01*
X157378056Y-106063128D01*
X157378061Y-106063128D01*
X157384513Y-106064500D01*
X157575487Y-106064500D01*
X157581939Y-106063128D01*
X157581944Y-106063128D01*
X157680150Y-106042253D01*
X157762288Y-106024794D01*
X157768319Y-106022109D01*
X157930722Y-105949803D01*
X157930724Y-105949802D01*
X157936752Y-105947118D01*
X158091253Y-105834866D01*
X158219040Y-105692944D01*
X158314527Y-105527556D01*
X158373542Y-105345928D01*
X158393504Y-105156000D01*
X158373542Y-104966072D01*
X158314527Y-104784444D01*
X158219040Y-104619056D01*
X158091253Y-104477134D01*
X157936752Y-104364882D01*
X157930724Y-104362198D01*
X157930722Y-104362197D01*
X157768319Y-104289891D01*
X157768318Y-104289891D01*
X157762288Y-104287206D01*
X157668887Y-104267353D01*
X157581944Y-104248872D01*
X157581939Y-104248872D01*
X157575487Y-104247500D01*
X157384513Y-104247500D01*
X157378061Y-104248872D01*
X157378056Y-104248872D01*
X157279850Y-104269747D01*
X157253653Y-104272500D01*
X149070347Y-104272500D01*
X149044150Y-104269747D01*
X148945944Y-104248872D01*
X148945939Y-104248872D01*
X148939487Y-104247500D01*
X148748513Y-104247500D01*
X148742061Y-104248872D01*
X148742056Y-104248872D01*
X148655113Y-104267353D01*
X148561712Y-104287206D01*
X148555682Y-104289891D01*
X148555681Y-104289891D01*
X148393278Y-104362197D01*
X148393276Y-104362198D01*
X148387248Y-104364882D01*
X148232747Y-104477134D01*
X148104960Y-104619056D01*
X148009473Y-104784444D01*
X147950458Y-104966072D01*
X147930496Y-105156000D01*
X146171500Y-105156000D01*
X146171500Y-96430148D01*
X146191502Y-96362027D01*
X146208405Y-96341053D01*
X147128458Y-95421000D01*
X155633496Y-95421000D01*
X155634186Y-95427565D01*
X155651588Y-95593133D01*
X155653458Y-95610928D01*
X155712473Y-95792556D01*
X155807960Y-95957944D01*
X155812378Y-95962851D01*
X155812379Y-95962852D01*
X155931325Y-96094955D01*
X155935747Y-96099866D01*
X156008804Y-96152945D01*
X156084601Y-96208015D01*
X156090248Y-96212118D01*
X156096276Y-96214802D01*
X156096278Y-96214803D01*
X156258681Y-96287109D01*
X156264712Y-96289794D01*
X156346850Y-96307253D01*
X156445056Y-96328128D01*
X156445061Y-96328128D01*
X156451513Y-96329500D01*
X156642487Y-96329500D01*
X156648939Y-96328128D01*
X156648944Y-96328128D01*
X156747150Y-96307253D01*
X156773347Y-96304500D01*
X162097538Y-96304500D01*
X162148786Y-96315393D01*
X162271676Y-96370107D01*
X162271679Y-96370108D01*
X162277712Y-96372794D01*
X162302007Y-96377958D01*
X162458056Y-96411128D01*
X162458061Y-96411128D01*
X162464513Y-96412500D01*
X162655487Y-96412500D01*
X162661939Y-96411128D01*
X162661944Y-96411128D01*
X162772523Y-96387623D01*
X162842288Y-96372794D01*
X162852883Y-96368077D01*
X163010722Y-96297803D01*
X163010724Y-96297802D01*
X163016752Y-96295118D01*
X163022192Y-96291166D01*
X163072157Y-96254864D01*
X163171253Y-96182866D01*
X163244846Y-96101133D01*
X163294621Y-96045852D01*
X163294622Y-96045851D01*
X163299040Y-96040944D01*
X163394527Y-95875556D01*
X163453542Y-95693928D01*
X163456749Y-95663421D01*
X163472814Y-95510565D01*
X163473504Y-95504000D01*
X163466299Y-95435446D01*
X163454232Y-95320635D01*
X163454232Y-95320633D01*
X163453542Y-95314072D01*
X163394527Y-95132444D01*
X163299040Y-94967056D01*
X163219888Y-94879148D01*
X163175675Y-94830045D01*
X163175674Y-94830044D01*
X163171253Y-94825134D01*
X163057014Y-94742134D01*
X163022097Y-94716765D01*
X163022094Y-94716764D01*
X163016752Y-94712882D01*
X163010717Y-94710195D01*
X163007422Y-94708293D01*
X163001707Y-94704581D01*
X162999169Y-94702296D01*
X162987552Y-94695589D01*
X162971259Y-94684391D01*
X162965971Y-94680109D01*
X162960839Y-94675953D01*
X162901637Y-94645787D01*
X162895867Y-94642654D01*
X162844055Y-94612740D01*
X162844050Y-94612738D01*
X162838331Y-94609436D01*
X162832051Y-94607395D01*
X162832043Y-94607392D01*
X162825579Y-94605292D01*
X162807317Y-94597728D01*
X162801251Y-94594637D01*
X162801242Y-94594634D01*
X162795363Y-94591638D01*
X162784672Y-94588773D01*
X162731196Y-94574444D01*
X162724894Y-94572578D01*
X162661702Y-94552046D01*
X162648372Y-94550645D01*
X162628929Y-94547042D01*
X162615971Y-94543570D01*
X162609381Y-94543225D01*
X162609377Y-94543224D01*
X162565427Y-94540921D01*
X162549628Y-94540093D01*
X162543069Y-94539577D01*
X162523306Y-94537500D01*
X162503445Y-94537500D01*
X162496850Y-94537327D01*
X162437098Y-94534195D01*
X162437094Y-94534195D01*
X162430507Y-94533850D01*
X162417253Y-94535949D01*
X162397544Y-94537500D01*
X156773347Y-94537500D01*
X156747150Y-94534747D01*
X156648944Y-94513872D01*
X156648939Y-94513872D01*
X156642487Y-94512500D01*
X156451513Y-94512500D01*
X156445061Y-94513872D01*
X156445056Y-94513872D01*
X156358113Y-94532353D01*
X156264712Y-94552206D01*
X156258682Y-94554891D01*
X156258681Y-94554891D01*
X156096278Y-94627197D01*
X156096276Y-94627198D01*
X156090248Y-94629882D01*
X155935747Y-94742134D01*
X155931326Y-94747044D01*
X155931325Y-94747045D01*
X155861014Y-94825134D01*
X155807960Y-94884056D01*
X155712473Y-95049444D01*
X155653458Y-95231072D01*
X155652768Y-95237633D01*
X155652768Y-95237635D01*
X155640251Y-95356726D01*
X155633496Y-95421000D01*
X147128458Y-95421000D01*
X148411052Y-94138405D01*
X148473364Y-94104380D01*
X148500147Y-94101500D01*
X158777653Y-94101500D01*
X158803850Y-94104253D01*
X158902056Y-94125128D01*
X158902061Y-94125128D01*
X158908513Y-94126500D01*
X159099487Y-94126500D01*
X159105939Y-94125128D01*
X159105944Y-94125128D01*
X159204150Y-94104253D01*
X159286288Y-94086794D01*
X159292319Y-94084109D01*
X159454722Y-94011803D01*
X159454724Y-94011802D01*
X159460752Y-94009118D01*
X159615253Y-93896866D01*
X159619675Y-93891955D01*
X159738621Y-93759852D01*
X159738622Y-93759851D01*
X159743040Y-93754944D01*
X159838527Y-93589556D01*
X159897542Y-93407928D01*
X159917504Y-93218000D01*
X159897542Y-93028072D01*
X159838527Y-92846444D01*
X159743040Y-92681056D01*
X159622844Y-92547564D01*
X159619675Y-92544045D01*
X159619674Y-92544044D01*
X159615253Y-92539134D01*
X159501739Y-92456661D01*
X159466094Y-92430763D01*
X159466093Y-92430762D01*
X159460752Y-92426882D01*
X159454724Y-92424198D01*
X159454722Y-92424197D01*
X159292319Y-92351891D01*
X159292318Y-92351891D01*
X159286288Y-92349206D01*
X159192888Y-92329353D01*
X159105944Y-92310872D01*
X159105939Y-92310872D01*
X159099487Y-92309500D01*
X158908513Y-92309500D01*
X158902061Y-92310872D01*
X158902056Y-92310872D01*
X158803850Y-92331747D01*
X158777653Y-92334500D01*
X148161457Y-92334500D01*
X148141745Y-92332949D01*
X148135008Y-92331882D01*
X148135009Y-92331882D01*
X148128493Y-92330850D01*
X148121906Y-92331195D01*
X148121902Y-92331195D01*
X148062150Y-92334327D01*
X148055555Y-92334500D01*
X148035694Y-92334500D01*
X148015931Y-92336577D01*
X148009372Y-92337093D01*
X147993573Y-92337921D01*
X147949623Y-92340224D01*
X147949619Y-92340225D01*
X147943029Y-92340570D01*
X147930071Y-92344042D01*
X147910628Y-92347645D01*
X147897298Y-92349046D01*
X147834106Y-92369578D01*
X147827804Y-92371444D01*
X147774328Y-92385773D01*
X147763637Y-92388638D01*
X147757758Y-92391634D01*
X147757749Y-92391637D01*
X147751683Y-92394728D01*
X147733421Y-92402292D01*
X147726958Y-92404392D01*
X147726953Y-92404394D01*
X147720669Y-92406436D01*
X147663119Y-92439663D01*
X147657366Y-92442786D01*
X147598161Y-92472952D01*
X147593027Y-92477109D01*
X147593026Y-92477110D01*
X147587737Y-92481393D01*
X147571449Y-92492588D01*
X147567220Y-92495030D01*
X147559831Y-92499296D01*
X147554925Y-92503713D01*
X147554920Y-92503717D01*
X147510462Y-92543747D01*
X147505447Y-92548031D01*
X147497369Y-92554573D01*
X147490015Y-92560528D01*
X147475979Y-92574564D01*
X147471194Y-92579105D01*
X147421815Y-92623566D01*
X147417935Y-92628906D01*
X147417928Y-92628914D01*
X147413927Y-92634422D01*
X147401086Y-92649457D01*
X144719454Y-95331088D01*
X144704426Y-95343925D01*
X144693566Y-95351815D01*
X144689145Y-95356725D01*
X144689144Y-95356726D01*
X144649114Y-95401184D01*
X144644573Y-95405969D01*
X144630528Y-95420014D01*
X144628444Y-95422588D01*
X144628441Y-95422591D01*
X144618031Y-95435446D01*
X144613747Y-95440462D01*
X144573717Y-95484920D01*
X144573713Y-95484925D01*
X144569296Y-95489831D01*
X144564906Y-95497435D01*
X144562589Y-95501448D01*
X144551391Y-95517741D01*
X144542953Y-95528161D01*
X144512787Y-95587363D01*
X144509654Y-95593133D01*
X144479740Y-95644945D01*
X144479738Y-95644950D01*
X144476436Y-95650669D01*
X144474395Y-95656949D01*
X144474392Y-95656957D01*
X144472292Y-95663421D01*
X144464728Y-95681683D01*
X144461637Y-95687749D01*
X144461634Y-95687758D01*
X144458638Y-95693637D01*
X144456929Y-95700015D01*
X144441444Y-95757804D01*
X144439578Y-95764106D01*
X144419046Y-95827298D01*
X144418356Y-95833866D01*
X144417645Y-95840628D01*
X144414042Y-95860071D01*
X144410570Y-95873029D01*
X144410225Y-95879619D01*
X144410224Y-95879623D01*
X144407093Y-95939367D01*
X144406577Y-95945931D01*
X144404500Y-95965694D01*
X144404500Y-95985555D01*
X144404327Y-95992150D01*
X144401513Y-96045852D01*
X144400850Y-96058493D01*
X144401882Y-96065007D01*
X144402949Y-96071744D01*
X144404500Y-96091456D01*
X144404500Y-105499852D01*
X144384498Y-105567973D01*
X144367595Y-105588947D01*
X142266251Y-107690291D01*
X142203939Y-107724317D01*
X142133124Y-107719252D01*
X142076288Y-107676705D01*
X142051477Y-107610185D01*
X142060265Y-107560121D01*
X142058527Y-107559556D01*
X142115502Y-107384206D01*
X142117542Y-107377928D01*
X142137504Y-107188000D01*
X142120062Y-107022045D01*
X142118232Y-107004635D01*
X142118232Y-107004633D01*
X142117542Y-106998072D01*
X142113667Y-106986146D01*
X142107500Y-106947210D01*
X142107500Y-96938148D01*
X142127502Y-96870027D01*
X142144405Y-96849053D01*
X147141053Y-91852405D01*
X147203365Y-91818379D01*
X147230148Y-91815500D01*
X158777653Y-91815500D01*
X158803850Y-91818253D01*
X158902056Y-91839128D01*
X158902061Y-91839128D01*
X158908513Y-91840500D01*
X159099487Y-91840500D01*
X159105939Y-91839128D01*
X159105944Y-91839128D01*
X159192887Y-91820647D01*
X159286288Y-91800794D01*
X159297440Y-91795829D01*
X159454722Y-91725803D01*
X159454724Y-91725802D01*
X159460752Y-91723118D01*
X159615253Y-91610866D01*
X159733965Y-91479023D01*
X159738621Y-91473852D01*
X159738622Y-91473851D01*
X159743040Y-91468944D01*
X159838527Y-91303556D01*
X159887545Y-91152695D01*
X161451251Y-91152695D01*
X161451548Y-91157848D01*
X161451548Y-91157851D01*
X161459587Y-91297271D01*
X161464110Y-91375715D01*
X161465247Y-91380761D01*
X161465248Y-91380767D01*
X161483832Y-91463226D01*
X161513222Y-91593639D01*
X161597266Y-91800616D01*
X161648019Y-91883438D01*
X161711291Y-91986688D01*
X161713987Y-91991088D01*
X161860250Y-92159938D01*
X162032126Y-92302632D01*
X162225000Y-92415338D01*
X162229825Y-92417180D01*
X162229826Y-92417181D01*
X162265394Y-92430763D01*
X162433692Y-92495030D01*
X162438760Y-92496061D01*
X162438763Y-92496062D01*
X162546017Y-92517883D01*
X162652597Y-92539567D01*
X162657772Y-92539757D01*
X162657774Y-92539757D01*
X162870673Y-92547564D01*
X162870677Y-92547564D01*
X162875837Y-92547753D01*
X162880957Y-92547097D01*
X162880959Y-92547097D01*
X163092288Y-92520025D01*
X163092289Y-92520025D01*
X163097416Y-92519368D01*
X163102366Y-92517883D01*
X163306429Y-92456661D01*
X163306434Y-92456659D01*
X163311384Y-92455174D01*
X163511994Y-92356896D01*
X163693860Y-92227173D01*
X163852096Y-92069489D01*
X163911594Y-91986689D01*
X163982453Y-91888077D01*
X163983776Y-91889028D01*
X164030645Y-91845857D01*
X164100580Y-91833625D01*
X164166026Y-91861144D01*
X164193875Y-91892994D01*
X164253987Y-91991088D01*
X164400250Y-92159938D01*
X164572126Y-92302632D01*
X164765000Y-92415338D01*
X164769825Y-92417180D01*
X164769826Y-92417181D01*
X164805394Y-92430763D01*
X164973692Y-92495030D01*
X164978760Y-92496061D01*
X164978763Y-92496062D01*
X165086017Y-92517883D01*
X165192597Y-92539567D01*
X165197772Y-92539757D01*
X165197774Y-92539757D01*
X165410673Y-92547564D01*
X165410677Y-92547564D01*
X165415837Y-92547753D01*
X165420957Y-92547097D01*
X165420959Y-92547097D01*
X165632288Y-92520025D01*
X165632289Y-92520025D01*
X165637416Y-92519368D01*
X165642366Y-92517883D01*
X165846429Y-92456661D01*
X165846434Y-92456659D01*
X165851384Y-92455174D01*
X166051994Y-92356896D01*
X166233860Y-92227173D01*
X166392096Y-92069489D01*
X166451594Y-91986689D01*
X166522453Y-91888077D01*
X166523776Y-91889028D01*
X166570645Y-91845857D01*
X166640580Y-91833625D01*
X166706026Y-91861144D01*
X166733875Y-91892994D01*
X166793987Y-91991088D01*
X166940250Y-92159938D01*
X167112126Y-92302632D01*
X167305000Y-92415338D01*
X167309825Y-92417180D01*
X167309826Y-92417181D01*
X167345394Y-92430763D01*
X167513692Y-92495030D01*
X167518760Y-92496061D01*
X167518763Y-92496062D01*
X167626017Y-92517883D01*
X167732597Y-92539567D01*
X167737772Y-92539757D01*
X167737774Y-92539757D01*
X167950673Y-92547564D01*
X167950677Y-92547564D01*
X167955837Y-92547753D01*
X167960957Y-92547097D01*
X167960959Y-92547097D01*
X168172288Y-92520025D01*
X168172289Y-92520025D01*
X168177416Y-92519368D01*
X168182366Y-92517883D01*
X168386429Y-92456661D01*
X168386434Y-92456659D01*
X168391384Y-92455174D01*
X168591994Y-92356896D01*
X168773860Y-92227173D01*
X168932096Y-92069489D01*
X168991594Y-91986689D01*
X169059435Y-91892277D01*
X169062453Y-91888077D01*
X169083320Y-91845857D01*
X169159136Y-91692453D01*
X169159137Y-91692451D01*
X169161430Y-91687811D01*
X169226370Y-91474069D01*
X169255529Y-91252590D01*
X169257156Y-91186000D01*
X169238852Y-90963361D01*
X169184431Y-90746702D01*
X169095354Y-90541840D01*
X168974014Y-90354277D01*
X168823670Y-90189051D01*
X168819619Y-90185852D01*
X168819615Y-90185848D01*
X168652414Y-90053800D01*
X168652410Y-90053798D01*
X168648359Y-90050598D01*
X168639572Y-90045747D01*
X168596136Y-90021769D01*
X168452789Y-89942638D01*
X168447920Y-89940914D01*
X168447916Y-89940912D01*
X168247087Y-89869795D01*
X168247083Y-89869794D01*
X168242212Y-89868069D01*
X168237119Y-89867162D01*
X168237116Y-89867161D01*
X168027373Y-89829800D01*
X168027367Y-89829799D01*
X168022284Y-89828894D01*
X167948452Y-89827992D01*
X167804081Y-89826228D01*
X167804079Y-89826228D01*
X167798911Y-89826165D01*
X167578091Y-89859955D01*
X167365756Y-89929357D01*
X167335443Y-89945137D01*
X167182274Y-90024872D01*
X167167607Y-90032507D01*
X167163474Y-90035610D01*
X167163471Y-90035612D01*
X166993100Y-90163530D01*
X166988965Y-90166635D01*
X166834629Y-90328138D01*
X166727201Y-90485621D01*
X166672293Y-90530621D01*
X166601768Y-90538792D01*
X166538021Y-90507538D01*
X166517324Y-90483054D01*
X166436822Y-90358617D01*
X166436820Y-90358614D01*
X166434014Y-90354277D01*
X166283670Y-90189051D01*
X166279619Y-90185852D01*
X166279615Y-90185848D01*
X166112414Y-90053800D01*
X166112410Y-90053798D01*
X166108359Y-90050598D01*
X166099572Y-90045747D01*
X166056136Y-90021769D01*
X165912789Y-89942638D01*
X165907920Y-89940914D01*
X165907916Y-89940912D01*
X165707087Y-89869795D01*
X165707083Y-89869794D01*
X165702212Y-89868069D01*
X165697119Y-89867162D01*
X165697116Y-89867161D01*
X165487373Y-89829800D01*
X165487367Y-89829799D01*
X165482284Y-89828894D01*
X165408452Y-89827992D01*
X165264081Y-89826228D01*
X165264079Y-89826228D01*
X165258911Y-89826165D01*
X165038091Y-89859955D01*
X164825756Y-89929357D01*
X164795443Y-89945137D01*
X164642274Y-90024872D01*
X164627607Y-90032507D01*
X164623474Y-90035610D01*
X164623471Y-90035612D01*
X164453100Y-90163530D01*
X164448965Y-90166635D01*
X164294629Y-90328138D01*
X164187201Y-90485621D01*
X164132293Y-90530621D01*
X164061768Y-90538792D01*
X163998021Y-90507538D01*
X163977324Y-90483054D01*
X163896822Y-90358617D01*
X163896820Y-90358614D01*
X163894014Y-90354277D01*
X163743670Y-90189051D01*
X163739619Y-90185852D01*
X163739615Y-90185848D01*
X163572414Y-90053800D01*
X163572410Y-90053798D01*
X163568359Y-90050598D01*
X163559572Y-90045747D01*
X163516136Y-90021769D01*
X163372789Y-89942638D01*
X163367920Y-89940914D01*
X163367916Y-89940912D01*
X163167087Y-89869795D01*
X163167083Y-89869794D01*
X163162212Y-89868069D01*
X163157119Y-89867162D01*
X163157116Y-89867161D01*
X162947373Y-89829800D01*
X162947367Y-89829799D01*
X162942284Y-89828894D01*
X162868452Y-89827992D01*
X162724081Y-89826228D01*
X162724079Y-89826228D01*
X162718911Y-89826165D01*
X162498091Y-89859955D01*
X162285756Y-89929357D01*
X162255443Y-89945137D01*
X162102274Y-90024872D01*
X162087607Y-90032507D01*
X162083474Y-90035610D01*
X162083471Y-90035612D01*
X161913100Y-90163530D01*
X161908965Y-90166635D01*
X161754629Y-90328138D01*
X161628743Y-90512680D01*
X161597509Y-90579969D01*
X161555928Y-90669548D01*
X161534688Y-90715305D01*
X161474989Y-90930570D01*
X161474440Y-90935707D01*
X161474135Y-90938565D01*
X161451251Y-91152695D01*
X159887545Y-91152695D01*
X159897542Y-91121928D01*
X159906776Y-91034077D01*
X159916814Y-90938565D01*
X159917504Y-90932000D01*
X159908555Y-90846853D01*
X159898232Y-90748635D01*
X159898232Y-90748633D01*
X159897542Y-90742072D01*
X159838527Y-90560444D01*
X159830529Y-90546590D01*
X159746341Y-90400774D01*
X159743040Y-90395056D01*
X159714586Y-90363454D01*
X159619675Y-90258045D01*
X159619674Y-90258044D01*
X159615253Y-90253134D01*
X159460752Y-90140882D01*
X159454724Y-90138198D01*
X159454722Y-90138197D01*
X159292319Y-90065891D01*
X159292318Y-90065891D01*
X159286288Y-90063206D01*
X159192887Y-90043353D01*
X159105944Y-90024872D01*
X159105939Y-90024872D01*
X159099487Y-90023500D01*
X158908513Y-90023500D01*
X158902061Y-90024872D01*
X158902056Y-90024872D01*
X158803850Y-90045747D01*
X158777653Y-90048500D01*
X148755187Y-90048500D01*
X148687066Y-90028498D01*
X148640573Y-89974842D01*
X148630469Y-89904568D01*
X148659963Y-89839988D01*
X148719689Y-89801604D01*
X148728990Y-89799253D01*
X148872288Y-89768794D01*
X148878319Y-89766109D01*
X149040722Y-89693803D01*
X149040724Y-89693802D01*
X149046752Y-89691118D01*
X149201253Y-89578866D01*
X149329040Y-89436944D01*
X149424527Y-89271556D01*
X149483542Y-89089928D01*
X149503504Y-88900000D01*
X149483542Y-88710072D01*
X149424527Y-88528444D01*
X149329040Y-88363056D01*
X149300586Y-88331454D01*
X149205675Y-88226045D01*
X149205674Y-88226044D01*
X149201253Y-88221134D01*
X149046752Y-88108882D01*
X149040724Y-88106198D01*
X149040722Y-88106197D01*
X148878319Y-88033891D01*
X148878318Y-88033891D01*
X148872288Y-88031206D01*
X148778887Y-88011353D01*
X148691944Y-87992872D01*
X148691939Y-87992872D01*
X148685487Y-87991500D01*
X148494513Y-87991500D01*
X148488061Y-87992872D01*
X148488056Y-87992872D01*
X148389850Y-88013747D01*
X148363653Y-88016500D01*
X138763450Y-88016500D01*
X138743739Y-88014949D01*
X138737009Y-88013883D01*
X138730493Y-88012851D01*
X138723905Y-88013196D01*
X138723901Y-88013196D01*
X138664162Y-88016327D01*
X138657568Y-88016500D01*
X138637694Y-88016500D01*
X138634421Y-88016844D01*
X138617929Y-88018577D01*
X138611354Y-88019094D01*
X138551624Y-88022224D01*
X138551620Y-88022225D01*
X138545029Y-88022570D01*
X138532071Y-88026042D01*
X138512628Y-88029645D01*
X138499298Y-88031046D01*
X138436106Y-88051578D01*
X138429804Y-88053444D01*
X138376328Y-88067773D01*
X138365637Y-88070638D01*
X138359758Y-88073634D01*
X138359749Y-88073637D01*
X138353683Y-88076728D01*
X138335421Y-88084292D01*
X138328957Y-88086392D01*
X138328949Y-88086395D01*
X138322669Y-88088436D01*
X138316950Y-88091738D01*
X138316945Y-88091740D01*
X138265133Y-88121654D01*
X138259363Y-88124787D01*
X138200161Y-88154953D01*
X138195029Y-88159109D01*
X138189741Y-88163391D01*
X138173448Y-88174589D01*
X138161831Y-88181296D01*
X138156925Y-88185713D01*
X138156920Y-88185717D01*
X138112462Y-88225747D01*
X138107446Y-88230031D01*
X138094591Y-88240441D01*
X138092014Y-88242528D01*
X138077969Y-88256573D01*
X138073184Y-88261114D01*
X138023815Y-88305566D01*
X138015925Y-88316426D01*
X138003088Y-88331454D01*
X135829454Y-90505088D01*
X135814426Y-90517925D01*
X135803566Y-90525815D01*
X135799145Y-90530725D01*
X135799144Y-90530726D01*
X135759114Y-90575184D01*
X135754573Y-90579969D01*
X135740528Y-90594014D01*
X135738444Y-90596588D01*
X135738441Y-90596591D01*
X135728031Y-90609446D01*
X135723747Y-90614462D01*
X135683717Y-90658920D01*
X135683713Y-90658925D01*
X135679296Y-90663831D01*
X135672791Y-90675097D01*
X135672589Y-90675448D01*
X135661391Y-90691741D01*
X135652953Y-90702161D01*
X135622787Y-90761363D01*
X135619654Y-90767133D01*
X135589740Y-90818945D01*
X135589738Y-90818950D01*
X135586436Y-90824669D01*
X135584395Y-90830949D01*
X135584392Y-90830957D01*
X135582292Y-90837421D01*
X135574728Y-90855683D01*
X135571637Y-90861749D01*
X135571634Y-90861758D01*
X135568638Y-90867637D01*
X135566929Y-90874015D01*
X135551444Y-90931804D01*
X135549578Y-90938106D01*
X135529046Y-91001298D01*
X135528356Y-91007866D01*
X135527645Y-91014628D01*
X135524042Y-91034071D01*
X135520570Y-91047029D01*
X135520225Y-91053619D01*
X135520224Y-91053623D01*
X135517093Y-91113367D01*
X135516577Y-91119931D01*
X135514500Y-91139694D01*
X135514500Y-91159555D01*
X135514327Y-91166150D01*
X135510850Y-91232493D01*
X135511882Y-91239007D01*
X135512949Y-91245744D01*
X135514500Y-91265456D01*
X135514500Y-93231210D01*
X135508333Y-93270146D01*
X135504458Y-93282072D01*
X135484496Y-93472000D01*
X135504458Y-93661928D01*
X135563473Y-93843556D01*
X135658960Y-94008944D01*
X135663378Y-94013851D01*
X135663379Y-94013852D01*
X135744891Y-94104380D01*
X135786747Y-94150866D01*
X135941248Y-94263118D01*
X135947276Y-94265802D01*
X135947278Y-94265803D01*
X136109681Y-94338109D01*
X136115712Y-94340794D01*
X136209113Y-94360647D01*
X136296056Y-94379128D01*
X136296061Y-94379128D01*
X136302513Y-94380500D01*
X136493487Y-94380500D01*
X136499939Y-94379128D01*
X136499944Y-94379128D01*
X136586887Y-94360647D01*
X136680288Y-94340794D01*
X136686319Y-94338109D01*
X136848722Y-94265803D01*
X136848724Y-94265802D01*
X136854752Y-94263118D01*
X137009253Y-94150866D01*
X137051109Y-94104380D01*
X137132621Y-94013852D01*
X137132622Y-94013851D01*
X137137040Y-94008944D01*
X137232527Y-93843556D01*
X137291542Y-93661928D01*
X137311504Y-93472000D01*
X137291542Y-93282072D01*
X137287667Y-93270146D01*
X137281500Y-93231210D01*
X137281500Y-91604148D01*
X137301502Y-91536027D01*
X137318405Y-91515053D01*
X139013053Y-89820405D01*
X139075365Y-89786379D01*
X139102148Y-89783500D01*
X148363653Y-89783500D01*
X148389850Y-89786253D01*
X148451010Y-89799253D01*
X148513483Y-89832982D01*
X148547805Y-89895131D01*
X148543077Y-89965970D01*
X148500801Y-90023008D01*
X148434400Y-90048135D01*
X148424813Y-90048500D01*
X146891450Y-90048500D01*
X146871739Y-90046949D01*
X146865009Y-90045883D01*
X146858493Y-90044851D01*
X146851906Y-90045196D01*
X146851901Y-90045196D01*
X146792168Y-90048327D01*
X146785574Y-90048500D01*
X146765694Y-90048500D01*
X146762420Y-90048844D01*
X146762421Y-90048844D01*
X146745920Y-90050578D01*
X146739346Y-90051095D01*
X146679627Y-90054225D01*
X146679626Y-90054225D01*
X146673028Y-90054571D01*
X146666646Y-90056281D01*
X146666639Y-90056282D01*
X146660069Y-90058042D01*
X146640635Y-90061644D01*
X146633870Y-90062355D01*
X146633869Y-90062355D01*
X146627298Y-90063046D01*
X146564122Y-90083573D01*
X146557803Y-90085445D01*
X146500013Y-90100929D01*
X146500008Y-90100931D01*
X146493637Y-90102638D01*
X146487756Y-90105634D01*
X146487752Y-90105636D01*
X146481683Y-90108728D01*
X146463421Y-90116292D01*
X146456949Y-90118395D01*
X146456945Y-90118397D01*
X146450669Y-90120436D01*
X146444953Y-90123736D01*
X146444951Y-90123737D01*
X146393135Y-90153653D01*
X146387351Y-90156794D01*
X146328160Y-90186953D01*
X146323029Y-90191108D01*
X146317737Y-90195393D01*
X146301451Y-90206587D01*
X146289831Y-90213296D01*
X146284923Y-90217715D01*
X146284919Y-90217718D01*
X146240464Y-90257745D01*
X146235458Y-90262021D01*
X146220014Y-90274528D01*
X146205969Y-90288573D01*
X146201184Y-90293114D01*
X146151815Y-90337566D01*
X146143925Y-90348426D01*
X146131088Y-90363454D01*
X140655454Y-95839088D01*
X140640426Y-95851925D01*
X140629566Y-95859815D01*
X140625145Y-95864725D01*
X140625144Y-95864726D01*
X140585114Y-95909184D01*
X140580573Y-95913969D01*
X140566528Y-95928014D01*
X140564444Y-95930588D01*
X140564441Y-95930591D01*
X140554031Y-95943446D01*
X140549747Y-95948462D01*
X140509717Y-95992920D01*
X140509713Y-95992925D01*
X140505296Y-95997831D01*
X140498791Y-96009097D01*
X140498589Y-96009448D01*
X140487391Y-96025741D01*
X140478953Y-96036161D01*
X140448787Y-96095363D01*
X140445654Y-96101133D01*
X140415740Y-96152945D01*
X140415738Y-96152950D01*
X140412436Y-96158669D01*
X140410395Y-96164949D01*
X140410392Y-96164957D01*
X140408292Y-96171421D01*
X140400728Y-96189683D01*
X140397637Y-96195749D01*
X140397634Y-96195758D01*
X140394638Y-96201637D01*
X140392929Y-96208015D01*
X140377444Y-96265804D01*
X140375578Y-96272106D01*
X140355046Y-96335298D01*
X140354356Y-96341866D01*
X140353645Y-96348628D01*
X140350042Y-96368071D01*
X140346570Y-96381029D01*
X140346225Y-96387619D01*
X140346224Y-96387623D01*
X140343093Y-96447367D01*
X140342577Y-96453931D01*
X140340500Y-96473694D01*
X140340500Y-96493555D01*
X140340327Y-96500150D01*
X140336850Y-96566493D01*
X140337882Y-96573007D01*
X140338949Y-96579744D01*
X140340500Y-96599456D01*
X140340500Y-106947210D01*
X140334333Y-106986146D01*
X140330458Y-106998072D01*
X140329768Y-107004633D01*
X140329768Y-107004635D01*
X140327938Y-107022045D01*
X140310496Y-107188000D01*
X140330458Y-107377928D01*
X140389473Y-107559556D01*
X140484960Y-107724944D01*
X140612747Y-107866866D01*
X140767248Y-107979118D01*
X140773276Y-107981802D01*
X140773278Y-107981803D01*
X140916608Y-108045617D01*
X140941712Y-108056794D01*
X141035113Y-108076647D01*
X141122056Y-108095128D01*
X141122061Y-108095128D01*
X141128513Y-108096500D01*
X141319487Y-108096500D01*
X141325939Y-108095128D01*
X141325944Y-108095128D01*
X141412887Y-108076647D01*
X141506288Y-108056794D01*
X141512315Y-108054111D01*
X141512323Y-108054108D01*
X141594458Y-108017539D01*
X141664825Y-108008105D01*
X141729122Y-108038212D01*
X141766935Y-108098301D01*
X141766259Y-108169294D01*
X141734801Y-108221741D01*
X134305454Y-115651088D01*
X134290426Y-115663925D01*
X134279566Y-115671815D01*
X134275145Y-115676725D01*
X134275144Y-115676726D01*
X134235114Y-115721184D01*
X134230573Y-115725969D01*
X134216528Y-115740014D01*
X134214444Y-115742588D01*
X134214441Y-115742591D01*
X134204031Y-115755446D01*
X134199747Y-115760462D01*
X134159717Y-115804920D01*
X134159713Y-115804925D01*
X134155296Y-115809831D01*
X134148791Y-115821097D01*
X134148589Y-115821448D01*
X134137391Y-115837741D01*
X134128953Y-115848161D01*
X134098787Y-115907363D01*
X134095654Y-115913133D01*
X134065740Y-115964945D01*
X134065738Y-115964950D01*
X134062436Y-115970669D01*
X134060395Y-115976949D01*
X134060392Y-115976957D01*
X134058292Y-115983421D01*
X134050728Y-116001683D01*
X134047637Y-116007749D01*
X134047634Y-116007758D01*
X134044638Y-116013637D01*
X134042929Y-116020015D01*
X134027444Y-116077804D01*
X134025578Y-116084106D01*
X134005046Y-116147298D01*
X134004356Y-116153866D01*
X134003645Y-116160628D01*
X134000042Y-116180071D01*
X133996570Y-116193029D01*
X133996225Y-116199619D01*
X133996224Y-116199623D01*
X133993093Y-116259367D01*
X133992577Y-116265931D01*
X133990500Y-116285694D01*
X133990500Y-116305555D01*
X133990327Y-116312150D01*
X133986850Y-116378493D01*
X133987882Y-116385007D01*
X133988949Y-116391744D01*
X133990500Y-116411456D01*
X133990500Y-127174543D01*
X133988949Y-127194255D01*
X133986850Y-127207507D01*
X123698500Y-127207507D01*
X123698500Y-86447000D01*
X123718502Y-86378879D01*
X123772158Y-86332386D01*
X123824500Y-86321000D01*
X169813000Y-86321000D01*
X169813000Y-81914500D01*
X169833002Y-81846379D01*
X169886658Y-81799886D01*
X169939000Y-81788500D01*
X172085500Y-81788500D01*
X172153621Y-81808502D01*
G37*
G04 #@! TD.AperFunction*
M02*
