G04 #@! TF.GenerationSoftware,KiCad,Pcbnew,6.0.10*
G04 #@! TF.CreationDate,2023-04-28T22:54:54-05:00*
G04 #@! TF.ProjectId,base,62617365-2e6b-4696-9361-645f70636258,rev?*
G04 #@! TF.SameCoordinates,Original*
G04 #@! TF.FileFunction,Copper,L1,Top*
G04 #@! TF.FilePolarity,Positive*
%FSLAX46Y46*%
G04 Gerber Fmt 4.6, Leading zero omitted, Abs format (unit mm)*
G04 Created by KiCad (PCBNEW 6.0.10) date 2023-04-28 22:54:54*
%MOMM*%
%LPD*%
G01*
G04 APERTURE LIST*
G04 Aperture macros list*
%AMRoundRect*
0 Rectangle with rounded corners*
0 $1 Rounding radius*
0 $2 $3 $4 $5 $6 $7 $8 $9 X,Y pos of 4 corners*
0 Add a 4 corners polygon primitive as box body*
4,1,4,$2,$3,$4,$5,$6,$7,$8,$9,$2,$3,0*
0 Add four circle primitives for the rounded corners*
1,1,$1+$1,$2,$3*
1,1,$1+$1,$4,$5*
1,1,$1+$1,$6,$7*
1,1,$1+$1,$8,$9*
0 Add four rect primitives between the rounded corners*
20,1,$1+$1,$2,$3,$4,$5,0*
20,1,$1+$1,$4,$5,$6,$7,0*
20,1,$1+$1,$6,$7,$8,$9,0*
20,1,$1+$1,$8,$9,$2,$3,0*%
G04 Aperture macros list end*
G04 #@! TA.AperFunction,SMDPad,CuDef*
%ADD10RoundRect,0.250000X0.350000X0.450000X-0.350000X0.450000X-0.350000X-0.450000X0.350000X-0.450000X0*%
G04 #@! TD*
G04 #@! TA.AperFunction,SMDPad,CuDef*
%ADD11RoundRect,0.250000X0.337500X0.475000X-0.337500X0.475000X-0.337500X-0.475000X0.337500X-0.475000X0*%
G04 #@! TD*
G04 #@! TA.AperFunction,SMDPad,CuDef*
%ADD12RoundRect,0.250000X0.475000X-0.337500X0.475000X0.337500X-0.475000X0.337500X-0.475000X-0.337500X0*%
G04 #@! TD*
G04 #@! TA.AperFunction,SMDPad,CuDef*
%ADD13RoundRect,0.250000X-0.337500X-0.475000X0.337500X-0.475000X0.337500X0.475000X-0.337500X0.475000X0*%
G04 #@! TD*
G04 #@! TA.AperFunction,ComponentPad*
%ADD14R,1.700000X1.700000*%
G04 #@! TD*
G04 #@! TA.AperFunction,ComponentPad*
%ADD15O,1.700000X1.700000*%
G04 #@! TD*
G04 #@! TA.AperFunction,SMDPad,CuDef*
%ADD16R,1.550000X1.300000*%
G04 #@! TD*
G04 #@! TA.AperFunction,SMDPad,CuDef*
%ADD17R,1.300000X1.550000*%
G04 #@! TD*
G04 #@! TA.AperFunction,SMDPad,CuDef*
%ADD18RoundRect,0.250000X-0.350000X-0.450000X0.350000X-0.450000X0.350000X0.450000X-0.350000X0.450000X0*%
G04 #@! TD*
G04 #@! TA.AperFunction,SMDPad,CuDef*
%ADD19RoundRect,0.250000X-0.450000X0.350000X-0.450000X-0.350000X0.450000X-0.350000X0.450000X0.350000X0*%
G04 #@! TD*
G04 #@! TA.AperFunction,SMDPad,CuDef*
%ADD20R,1.270000X3.600000*%
G04 #@! TD*
G04 #@! TA.AperFunction,SMDPad,CuDef*
%ADD21R,1.350000X4.200000*%
G04 #@! TD*
G04 #@! TA.AperFunction,SMDPad,CuDef*
%ADD22RoundRect,0.250000X0.450000X-0.350000X0.450000X0.350000X-0.450000X0.350000X-0.450000X-0.350000X0*%
G04 #@! TD*
G04 #@! TA.AperFunction,SMDPad,CuDef*
%ADD23R,1.500000X2.000000*%
G04 #@! TD*
G04 #@! TA.AperFunction,SMDPad,CuDef*
%ADD24R,1.200000X2.200000*%
G04 #@! TD*
G04 #@! TA.AperFunction,SMDPad,CuDef*
%ADD25R,5.800000X6.400000*%
G04 #@! TD*
G04 #@! TA.AperFunction,ComponentPad*
%ADD26R,3.500000X3.500000*%
G04 #@! TD*
G04 #@! TA.AperFunction,ComponentPad*
%ADD27RoundRect,0.750000X0.750000X1.000000X-0.750000X1.000000X-0.750000X-1.000000X0.750000X-1.000000X0*%
G04 #@! TD*
G04 #@! TA.AperFunction,ComponentPad*
%ADD28RoundRect,0.875000X0.875000X0.875000X-0.875000X0.875000X-0.875000X-0.875000X0.875000X-0.875000X0*%
G04 #@! TD*
G04 #@! TA.AperFunction,SMDPad,CuDef*
%ADD29RoundRect,0.250000X-0.475000X0.337500X-0.475000X-0.337500X0.475000X-0.337500X0.475000X0.337500X0*%
G04 #@! TD*
G04 #@! TA.AperFunction,SMDPad,CuDef*
%ADD30R,2.500000X1.000000*%
G04 #@! TD*
G04 #@! TA.AperFunction,ViaPad*
%ADD31C,0.800000*%
G04 #@! TD*
G04 #@! TA.AperFunction,Conductor*
%ADD32C,2.000000*%
G04 #@! TD*
G04 #@! TA.AperFunction,Conductor*
%ADD33C,0.750000*%
G04 #@! TD*
G04 #@! TA.AperFunction,Conductor*
%ADD34C,1.000000*%
G04 #@! TD*
G04 APERTURE END LIST*
D10*
X159512000Y-110490000D03*
X157512000Y-110490000D03*
D11*
X165608000Y-116586000D03*
X163533000Y-116586000D03*
D12*
X135636000Y-103429500D03*
X135636000Y-101354500D03*
D13*
X126449000Y-98552000D03*
X128524000Y-98552000D03*
D14*
X170434000Y-91186000D03*
D15*
X167894000Y-91186000D03*
X165354000Y-91186000D03*
X162814000Y-91186000D03*
D16*
X170599000Y-97064000D03*
X162649000Y-97064000D03*
X162649000Y-101564000D03*
X170599000Y-101564000D03*
D17*
X125766000Y-87465000D03*
X125766000Y-95415000D03*
X130266000Y-95415000D03*
X130266000Y-87465000D03*
D10*
X160274000Y-95504000D03*
X158274000Y-95504000D03*
D18*
X168180000Y-116586000D03*
X170180000Y-116586000D03*
X132874000Y-91948000D03*
X134874000Y-91948000D03*
D12*
X133096000Y-103429500D03*
X133096000Y-101354500D03*
D19*
X158242000Y-99568000D03*
X158242000Y-101568000D03*
D13*
X165819000Y-94488000D03*
X167894000Y-94488000D03*
D20*
X139192000Y-133967500D03*
D21*
X142017000Y-133767500D03*
X136367000Y-133767500D03*
D22*
X170688000Y-120872000D03*
X170688000Y-118872000D03*
D12*
X146050000Y-133604000D03*
X146050000Y-131529000D03*
D10*
X160274000Y-97536000D03*
X158274000Y-97536000D03*
D22*
X132842000Y-89630000D03*
X132842000Y-87630000D03*
D23*
X139304000Y-126872000D03*
X141304000Y-126872000D03*
X143304000Y-126872000D03*
X145304000Y-126872000D03*
X147304000Y-126872000D03*
X149304000Y-126872000D03*
X151304000Y-126872000D03*
X153304000Y-126872000D03*
X153304000Y-110872000D03*
X151304000Y-110872000D03*
X149304000Y-110872000D03*
X147304000Y-110872000D03*
X145304000Y-110872000D03*
X143304000Y-110872000D03*
X141304000Y-110872000D03*
X139304000Y-110872000D03*
D24*
X168141000Y-119073000D03*
D25*
X165861000Y-125373000D03*
D24*
X163581000Y-119073000D03*
D26*
X163576000Y-110490000D03*
D27*
X169576000Y-110490000D03*
D28*
X166576000Y-105790000D03*
D12*
X148336000Y-133625500D03*
X148336000Y-131550500D03*
D29*
X160782000Y-120628500D03*
X160782000Y-122703500D03*
D10*
X157480000Y-107696000D03*
X155480000Y-107696000D03*
D30*
X139213000Y-87421000D03*
X139213000Y-89421000D03*
X139213000Y-91421000D03*
X139213000Y-93421000D03*
X139213000Y-95421000D03*
X139213000Y-97421000D03*
X139213000Y-99421000D03*
X139213000Y-101421000D03*
X154413000Y-101421000D03*
X154413000Y-99421000D03*
X154413000Y-97421000D03*
X154413000Y-95421000D03*
X154413000Y-93421000D03*
X154413000Y-91421000D03*
X154413000Y-89421000D03*
X154413000Y-87421000D03*
D31*
X160274000Y-107696000D03*
X160274000Y-125476000D03*
X153670000Y-134620000D03*
X129540000Y-133350000D03*
X124460000Y-128270000D03*
X134620000Y-105410000D03*
X135890000Y-105410000D03*
X135890000Y-99060000D03*
X156210000Y-114300000D03*
X143510000Y-132080000D03*
X147320000Y-87630000D03*
X133350000Y-105410000D03*
X124460000Y-120650000D03*
X124460000Y-118110000D03*
X146050000Y-134620000D03*
X149860000Y-87630000D03*
X147320000Y-96520000D03*
X140970000Y-130810000D03*
X124460000Y-107950000D03*
X124460000Y-105410000D03*
X134620000Y-132080000D03*
X151130000Y-129540000D03*
X148844000Y-107696000D03*
X132080000Y-105410000D03*
X148590000Y-134620000D03*
X143510000Y-134620000D03*
X135890000Y-111760000D03*
X156210000Y-116840000D03*
X142240000Y-87630000D03*
X138430000Y-107950000D03*
X135890000Y-130810000D03*
X124460000Y-100330000D03*
X143510000Y-133350000D03*
X124460000Y-125730000D03*
X124460000Y-133350000D03*
X134620000Y-130810000D03*
X124460000Y-113030000D03*
X151130000Y-134620000D03*
X148590000Y-129540000D03*
X124460000Y-123190000D03*
X135890000Y-109220000D03*
X132080000Y-133350000D03*
X144780000Y-87630000D03*
X124460000Y-110490000D03*
X124460000Y-130810000D03*
X135890000Y-96520000D03*
X156210000Y-119380000D03*
X142240000Y-130810000D03*
X134620000Y-133350000D03*
X142240000Y-91440000D03*
X153670000Y-129540000D03*
X137160000Y-105410000D03*
X127000000Y-133350000D03*
X124460000Y-102870000D03*
X124460000Y-115570000D03*
X156547000Y-95421000D03*
X162560000Y-95504000D03*
X148590000Y-88900000D03*
X136398000Y-93472000D03*
X148844000Y-105156000D03*
X157480000Y-105156000D03*
X159004000Y-93218000D03*
X145288000Y-129540000D03*
X141224000Y-107188000D03*
X159004000Y-90932000D03*
D32*
X163424000Y-122936000D02*
X165861000Y-125373000D01*
D33*
X165758000Y-125476000D02*
X165861000Y-125373000D01*
X160274000Y-125476000D02*
X165758000Y-125476000D01*
X170688000Y-120872000D02*
X170688000Y-122682000D01*
X160274000Y-95504000D02*
X160274000Y-92202000D01*
X133096000Y-101354500D02*
X129785500Y-101354500D01*
D32*
X129286000Y-117856000D02*
X134366000Y-122936000D01*
D33*
X148336000Y-131550500D02*
X145520500Y-131550500D01*
X132874000Y-91948000D02*
X132874000Y-101132500D01*
X160274000Y-97536000D02*
X160274000Y-107696000D01*
X145520500Y-131550500D02*
X143304000Y-129334000D01*
D32*
X148336000Y-131550500D02*
X159683500Y-131550500D01*
D33*
X160274000Y-95504000D02*
X160274000Y-97536000D01*
X139213000Y-101421000D02*
X133162500Y-101421000D01*
X143304000Y-129334000D02*
X143304000Y-126872000D01*
D32*
X134366000Y-122936000D02*
X163424000Y-122936000D01*
D33*
X132874000Y-101132500D02*
X133096000Y-101354500D01*
X132842000Y-89630000D02*
X132842000Y-91916000D01*
D32*
X129286000Y-101854000D02*
X129286000Y-117856000D01*
X159683500Y-131550500D02*
X165861000Y-125373000D01*
D33*
X132842000Y-91916000D02*
X132874000Y-91948000D01*
X129785500Y-101354500D02*
X129286000Y-101854000D01*
X160274000Y-92202000D02*
X161290000Y-91186000D01*
X161290000Y-91186000D02*
X162814000Y-91186000D01*
X133162500Y-101421000D02*
X133096000Y-101354500D01*
X154560000Y-101568000D02*
X154413000Y-101421000D01*
X158242000Y-101568000D02*
X154560000Y-101568000D01*
X163581000Y-110495000D02*
X163576000Y-110490000D01*
X163581000Y-119073000D02*
X163581000Y-110495000D01*
X163576000Y-110490000D02*
X159512000Y-110490000D01*
X156547000Y-95421000D02*
X158191000Y-95421000D01*
X162560000Y-95504000D02*
X162560000Y-96975000D01*
X165819000Y-94488000D02*
X163576000Y-94488000D01*
X158191000Y-95421000D02*
X158274000Y-95504000D01*
X154413000Y-95421000D02*
X156547000Y-95421000D01*
X162560000Y-96975000D02*
X162649000Y-97064000D01*
X163576000Y-94488000D02*
X162560000Y-95504000D01*
X162649000Y-97064000D02*
X170599000Y-97064000D01*
X129540000Y-98552000D02*
X128524000Y-98552000D01*
X130266000Y-95415000D02*
X130266000Y-87465000D01*
X130266000Y-97826000D02*
X129540000Y-98552000D01*
X130266000Y-95415000D02*
X130266000Y-97826000D01*
X139213000Y-87421000D02*
X130310000Y-87421000D01*
X130310000Y-87421000D02*
X130266000Y-87465000D01*
X139192000Y-126984000D02*
X139304000Y-126872000D01*
D34*
X139192000Y-134312000D02*
X139192000Y-126984000D01*
D33*
X154413000Y-87421000D02*
X166161000Y-87421000D01*
X167894000Y-89154000D02*
X167894000Y-91186000D01*
X166161000Y-87421000D02*
X167894000Y-89154000D01*
X154413000Y-89421000D02*
X164605000Y-89421000D01*
X164605000Y-89421000D02*
X165354000Y-90170000D01*
X165354000Y-90170000D02*
X165354000Y-91186000D01*
X168141000Y-119073000D02*
X168141000Y-116625000D01*
X168141000Y-116625000D02*
X168180000Y-116586000D01*
X170688000Y-118872000D02*
X168342000Y-118872000D01*
X168342000Y-118872000D02*
X168141000Y-119073000D01*
X136671000Y-91421000D02*
X136144000Y-91948000D01*
X136144000Y-91948000D02*
X134874000Y-91948000D01*
X139213000Y-91421000D02*
X136671000Y-91421000D01*
X139213000Y-93421000D02*
X136449000Y-93421000D01*
X136449000Y-93421000D02*
X136398000Y-93472000D01*
X151304000Y-91614000D02*
X148590000Y-88900000D01*
X151304000Y-110872000D02*
X151304000Y-91614000D01*
X144031000Y-89421000D02*
X145301000Y-89421000D01*
X148844000Y-92964000D02*
X148844000Y-105156000D01*
X145301000Y-89421000D02*
X148844000Y-92964000D01*
X157512000Y-110490000D02*
X157512000Y-107728000D01*
X157512000Y-107728000D02*
X157480000Y-107696000D01*
X139213000Y-89421000D02*
X144031000Y-89421000D01*
X157480000Y-105156000D02*
X157480000Y-107696000D01*
X154560000Y-99568000D02*
X154413000Y-99421000D01*
X158242000Y-99568000D02*
X154560000Y-99568000D01*
X158274000Y-97536000D02*
X154528000Y-97536000D01*
X154528000Y-97536000D02*
X154413000Y-97421000D01*
X147304000Y-99552000D02*
X147304000Y-110872000D01*
X139213000Y-95421000D02*
X143173000Y-95421000D01*
X143173000Y-95421000D02*
X147304000Y-99552000D01*
X139213000Y-97421000D02*
X142633000Y-97421000D01*
X142633000Y-97421000D02*
X145304000Y-100092000D01*
X145304000Y-100092000D02*
X145304000Y-110872000D01*
X143304000Y-100632000D02*
X143304000Y-110872000D01*
X139213000Y-99421000D02*
X142093000Y-99421000D01*
X142093000Y-99421000D02*
X143304000Y-100632000D01*
X158801000Y-93421000D02*
X159004000Y-93218000D01*
X154413000Y-93421000D02*
X158801000Y-93421000D01*
X145288000Y-126888000D02*
X145304000Y-126872000D01*
X145288000Y-129540000D02*
X145288000Y-126888000D01*
X141224000Y-107188000D02*
X141224000Y-110792000D01*
X141224000Y-110792000D02*
X141304000Y-110872000D01*
X158515000Y-91421000D02*
X159004000Y-90932000D01*
X154413000Y-91421000D02*
X158515000Y-91421000D01*
G04 #@! TA.AperFunction,Conductor*
G36*
X172153621Y-121940002D02*
G01*
X172200114Y-121993658D01*
X172211500Y-122046000D01*
X172211500Y-135255500D01*
X172191498Y-135323621D01*
X172137842Y-135370114D01*
X172085500Y-135381500D01*
X155597156Y-135381500D01*
X155529035Y-135361498D01*
X155482542Y-135307842D01*
X155471239Y-135250921D01*
X155951585Y-122041421D01*
X155974050Y-121974072D01*
X156029359Y-121929560D01*
X156077502Y-121920000D01*
X172085500Y-121920000D01*
X172153621Y-121940002D01*
G37*
G04 #@! TD.AperFunction*
G04 #@! TA.AperFunction,Conductor*
G36*
X129097554Y-86341002D02*
G01*
X129144047Y-86394658D01*
X129154151Y-86464932D01*
X129147415Y-86491230D01*
X129114255Y-86579684D01*
X129107500Y-86641866D01*
X129107500Y-88288134D01*
X129114255Y-88350316D01*
X129165385Y-88486705D01*
X129252739Y-88603261D01*
X129259919Y-88608642D01*
X129259920Y-88608643D01*
X129332065Y-88662713D01*
X129374580Y-88719573D01*
X129382500Y-88763539D01*
X129382500Y-94116461D01*
X129362498Y-94184582D01*
X129332065Y-94217287D01*
X129259920Y-94271357D01*
X129252739Y-94276739D01*
X129165385Y-94393295D01*
X129114255Y-94529684D01*
X129107500Y-94591866D01*
X129107500Y-96238134D01*
X129114255Y-96300316D01*
X129165385Y-96436705D01*
X129252739Y-96553261D01*
X129259919Y-96558642D01*
X129259920Y-96558643D01*
X129332065Y-96612713D01*
X129374580Y-96669573D01*
X129382500Y-96713539D01*
X129382500Y-97281413D01*
X129362498Y-97349534D01*
X129308842Y-97396027D01*
X129238568Y-97406131D01*
X129197389Y-97391212D01*
X129197105Y-97391820D01*
X129190468Y-97388725D01*
X129184238Y-97384885D01*
X129104495Y-97358436D01*
X129022889Y-97331368D01*
X129022887Y-97331368D01*
X129016361Y-97329203D01*
X129009525Y-97328503D01*
X129009522Y-97328502D01*
X128966469Y-97324091D01*
X128911900Y-97318500D01*
X128136100Y-97318500D01*
X128132854Y-97318837D01*
X128132850Y-97318837D01*
X128037192Y-97328762D01*
X128037188Y-97328763D01*
X128030334Y-97329474D01*
X128023798Y-97331655D01*
X128023796Y-97331655D01*
X127970207Y-97349534D01*
X127862554Y-97385450D01*
X127712152Y-97478522D01*
X127587195Y-97603697D01*
X127494385Y-97754262D01*
X127492081Y-97761209D01*
X127446500Y-97898633D01*
X127438703Y-97922139D01*
X127438003Y-97928975D01*
X127438002Y-97928978D01*
X127434314Y-97964971D01*
X127428000Y-98026600D01*
X127428000Y-99077400D01*
X127428337Y-99080646D01*
X127428337Y-99080650D01*
X127435622Y-99150856D01*
X127438974Y-99183166D01*
X127441155Y-99189702D01*
X127441155Y-99189704D01*
X127474153Y-99288609D01*
X127494950Y-99350946D01*
X127588022Y-99501348D01*
X127713197Y-99626305D01*
X127719427Y-99630145D01*
X127719428Y-99630146D01*
X127856590Y-99714694D01*
X127863762Y-99719115D01*
X127943505Y-99745564D01*
X128025111Y-99772632D01*
X128025113Y-99772632D01*
X128031639Y-99774797D01*
X128038475Y-99775497D01*
X128038478Y-99775498D01*
X128081531Y-99779909D01*
X128136100Y-99785500D01*
X128911900Y-99785500D01*
X128915146Y-99785163D01*
X128915150Y-99785163D01*
X129010808Y-99775238D01*
X129010812Y-99775237D01*
X129017666Y-99774526D01*
X129024202Y-99772345D01*
X129024204Y-99772345D01*
X129156306Y-99728272D01*
X129185446Y-99718550D01*
X129335848Y-99625478D01*
X129460805Y-99500303D01*
X129464646Y-99494072D01*
X129469183Y-99488327D01*
X129470513Y-99489377D01*
X129516607Y-99447892D01*
X129571097Y-99435500D01*
X129586306Y-99435500D01*
X129606069Y-99433423D01*
X129612628Y-99432907D01*
X129628427Y-99432079D01*
X129672377Y-99429776D01*
X129672381Y-99429775D01*
X129678971Y-99429430D01*
X129691929Y-99425958D01*
X129711372Y-99422355D01*
X129711795Y-99422311D01*
X129724702Y-99420954D01*
X129787894Y-99400422D01*
X129794196Y-99398556D01*
X129851985Y-99383071D01*
X129858363Y-99381362D01*
X129864242Y-99378366D01*
X129864251Y-99378363D01*
X129870317Y-99375272D01*
X129888579Y-99367708D01*
X129895043Y-99365608D01*
X129895051Y-99365605D01*
X129901331Y-99363564D01*
X129907050Y-99360262D01*
X129907055Y-99360260D01*
X129958867Y-99330346D01*
X129964637Y-99327213D01*
X130023839Y-99297047D01*
X130034259Y-99288609D01*
X130050552Y-99277411D01*
X130050903Y-99277209D01*
X130062169Y-99270704D01*
X130067075Y-99266287D01*
X130067080Y-99266283D01*
X130111538Y-99226253D01*
X130116554Y-99221969D01*
X130129409Y-99211559D01*
X130129412Y-99211556D01*
X130131986Y-99209472D01*
X130146031Y-99195427D01*
X130150816Y-99190886D01*
X130195274Y-99150856D01*
X130195275Y-99150855D01*
X130200185Y-99146434D01*
X130208075Y-99135574D01*
X130220912Y-99120546D01*
X130834546Y-98506912D01*
X130849574Y-98494075D01*
X130860434Y-98486185D01*
X130904886Y-98436816D01*
X130909427Y-98432031D01*
X130923472Y-98417986D01*
X130925559Y-98415409D01*
X130935969Y-98402554D01*
X130940253Y-98397538D01*
X130980283Y-98353080D01*
X130980287Y-98353075D01*
X130984704Y-98348169D01*
X130991411Y-98336552D01*
X131002609Y-98320259D01*
X131006891Y-98314971D01*
X131011047Y-98309839D01*
X131041213Y-98250637D01*
X131044346Y-98244867D01*
X131074260Y-98193055D01*
X131074262Y-98193050D01*
X131077564Y-98187331D01*
X131079605Y-98181051D01*
X131079608Y-98181043D01*
X131081708Y-98174579D01*
X131089272Y-98156317D01*
X131092363Y-98150251D01*
X131092366Y-98150242D01*
X131095362Y-98144363D01*
X131103420Y-98114290D01*
X131112556Y-98080196D01*
X131114422Y-98073894D01*
X131134954Y-98010702D01*
X131136355Y-97997372D01*
X131139958Y-97977929D01*
X131143430Y-97964971D01*
X131144095Y-97952297D01*
X131146907Y-97898633D01*
X131147424Y-97892059D01*
X131149156Y-97875577D01*
X131149500Y-97872306D01*
X131149500Y-97852445D01*
X131149673Y-97845850D01*
X131152805Y-97786098D01*
X131152805Y-97786094D01*
X131153150Y-97779507D01*
X131151051Y-97766253D01*
X131149500Y-97746544D01*
X131149500Y-96713539D01*
X131169502Y-96645418D01*
X131199935Y-96612713D01*
X131272080Y-96558643D01*
X131272081Y-96558642D01*
X131279261Y-96553261D01*
X131366615Y-96436705D01*
X131417745Y-96300316D01*
X131424500Y-96238134D01*
X131424500Y-94591866D01*
X131417745Y-94529684D01*
X131366615Y-94393295D01*
X131279261Y-94276739D01*
X131272080Y-94271357D01*
X131199935Y-94217287D01*
X131157420Y-94160427D01*
X131149500Y-94116461D01*
X131149500Y-88763539D01*
X131169502Y-88695418D01*
X131199935Y-88662713D01*
X131272080Y-88608643D01*
X131272081Y-88608642D01*
X131279261Y-88603261D01*
X131366615Y-88486705D01*
X131385043Y-88437550D01*
X131397102Y-88405380D01*
X131404266Y-88386271D01*
X131446907Y-88329506D01*
X131513469Y-88304806D01*
X131522248Y-88304500D01*
X131630591Y-88304500D01*
X131698712Y-88324502D01*
X131737734Y-88364196D01*
X131793522Y-88454348D01*
X131875266Y-88535949D01*
X131880109Y-88540784D01*
X131914188Y-88603066D01*
X131909185Y-88673886D01*
X131880264Y-88718975D01*
X131850340Y-88748951D01*
X131792695Y-88806697D01*
X131788855Y-88812927D01*
X131788854Y-88812928D01*
X131739229Y-88893435D01*
X131699885Y-88957262D01*
X131680725Y-89015029D01*
X131648898Y-89110985D01*
X131644203Y-89125139D01*
X131643503Y-89131975D01*
X131643502Y-89131978D01*
X131639091Y-89175031D01*
X131633500Y-89229600D01*
X131633500Y-90030400D01*
X131633837Y-90033646D01*
X131633837Y-90033650D01*
X131640791Y-90100665D01*
X131644474Y-90136166D01*
X131646655Y-90142702D01*
X131646655Y-90142704D01*
X131652191Y-90159297D01*
X131700450Y-90303946D01*
X131793522Y-90454348D01*
X131798704Y-90459521D01*
X131918697Y-90579305D01*
X131917059Y-90580945D01*
X131951656Y-90629744D01*
X131958500Y-90670706D01*
X131958500Y-90939505D01*
X131938498Y-91007626D01*
X131931383Y-91017596D01*
X131929866Y-91019517D01*
X131924695Y-91024697D01*
X131831885Y-91175262D01*
X131808107Y-91246951D01*
X131793912Y-91289749D01*
X131776203Y-91343139D01*
X131775503Y-91349975D01*
X131775502Y-91349978D01*
X131774169Y-91362988D01*
X131765500Y-91447600D01*
X131765500Y-92448400D01*
X131765837Y-92451646D01*
X131765837Y-92451650D01*
X131775741Y-92547097D01*
X131776474Y-92554166D01*
X131832450Y-92721946D01*
X131925522Y-92872348D01*
X131930704Y-92877521D01*
X131930708Y-92877526D01*
X131953517Y-92900295D01*
X131987597Y-92962577D01*
X131990500Y-92989468D01*
X131990500Y-100345000D01*
X131970498Y-100413121D01*
X131916842Y-100459614D01*
X131864500Y-100471000D01*
X129915968Y-100471000D01*
X129870814Y-100462631D01*
X129718022Y-100403980D01*
X129718018Y-100403979D01*
X129713298Y-100402167D01*
X129708348Y-100401133D01*
X129708345Y-100401132D01*
X129480631Y-100353560D01*
X129480627Y-100353560D01*
X129475680Y-100352526D01*
X129233183Y-100341514D01*
X129228163Y-100342095D01*
X129228159Y-100342095D01*
X128997071Y-100368833D01*
X128997067Y-100368834D01*
X128992044Y-100369415D01*
X128987180Y-100370791D01*
X128987177Y-100370792D01*
X128914693Y-100391303D01*
X128758468Y-100435510D01*
X128753892Y-100437644D01*
X128753886Y-100437646D01*
X128543046Y-100535962D01*
X128543042Y-100535964D01*
X128538464Y-100538099D01*
X128534283Y-100540940D01*
X128534282Y-100540941D01*
X128499000Y-100564919D01*
X128337693Y-100674544D01*
X128161319Y-100841332D01*
X128158241Y-100845358D01*
X128158240Y-100845359D01*
X128016953Y-101030154D01*
X128016950Y-101030158D01*
X128013880Y-101034174D01*
X127899169Y-101248109D01*
X127820138Y-101477631D01*
X127778821Y-101716836D01*
X127777500Y-101745925D01*
X127777500Y-117831984D01*
X127777451Y-117835502D01*
X127774666Y-117935205D01*
X127775335Y-117940219D01*
X127785058Y-118013086D01*
X127785758Y-118019639D01*
X127792060Y-118097965D01*
X127799897Y-118129870D01*
X127802426Y-118143258D01*
X127806771Y-118175820D01*
X127808232Y-118180661D01*
X127808233Y-118180663D01*
X127829478Y-118251029D01*
X127831219Y-118257390D01*
X127849963Y-118333706D01*
X127851941Y-118338366D01*
X127862801Y-118363951D01*
X127867438Y-118376761D01*
X127876933Y-118408208D01*
X127879151Y-118412756D01*
X127879154Y-118412763D01*
X127911371Y-118478818D01*
X127914107Y-118484820D01*
X127944812Y-118557156D01*
X127947504Y-118561430D01*
X127962319Y-118584956D01*
X127968945Y-118596860D01*
X127983346Y-118626388D01*
X127986265Y-118630525D01*
X127986265Y-118630526D01*
X128028641Y-118690597D01*
X128032301Y-118696086D01*
X128074167Y-118762567D01*
X128077508Y-118766356D01*
X128077512Y-118766362D01*
X128095898Y-118787217D01*
X128104344Y-118797912D01*
X128123274Y-118824747D01*
X128142909Y-118846250D01*
X128182625Y-118885966D01*
X128188044Y-118891736D01*
X128231350Y-118940858D01*
X128231353Y-118940861D01*
X128234698Y-118944655D01*
X128238606Y-118947865D01*
X128238607Y-118947866D01*
X128266989Y-118971179D01*
X128276108Y-118979449D01*
X133282325Y-123985666D01*
X133284779Y-123988188D01*
X133353332Y-124060681D01*
X133415757Y-124108408D01*
X133420892Y-124112552D01*
X133480720Y-124163470D01*
X133485045Y-124166089D01*
X133485050Y-124166093D01*
X133508824Y-124180491D01*
X133520071Y-124188163D01*
X133546174Y-124208120D01*
X133550632Y-124210510D01*
X133550633Y-124210511D01*
X133615401Y-124245239D01*
X133621126Y-124248504D01*
X133688358Y-124289221D01*
X133718817Y-124301527D01*
X133731158Y-124307307D01*
X133760109Y-124322831D01*
X133764890Y-124324477D01*
X133764894Y-124324479D01*
X133834401Y-124348412D01*
X133840579Y-124350722D01*
X133890792Y-124371009D01*
X133913429Y-124380155D01*
X133918369Y-124381277D01*
X133918368Y-124381277D01*
X133945460Y-124387432D01*
X133958559Y-124391163D01*
X133989631Y-124401862D01*
X134067100Y-124415243D01*
X134073504Y-124416523D01*
X134150144Y-124433935D01*
X134182953Y-124435999D01*
X134196453Y-124437585D01*
X134228836Y-124443179D01*
X134232793Y-124443359D01*
X134232796Y-124443359D01*
X134256506Y-124444436D01*
X134256525Y-124444436D01*
X134257925Y-124444500D01*
X134314108Y-124444500D01*
X134322019Y-124444749D01*
X134392413Y-124449178D01*
X134433992Y-124445101D01*
X134446288Y-124444500D01*
X154814000Y-124444500D01*
X154882121Y-124464502D01*
X154928614Y-124518158D01*
X154940000Y-124570500D01*
X154940000Y-129916000D01*
X154919998Y-129984121D01*
X154866342Y-130030614D01*
X154814000Y-130042000D01*
X148274999Y-130042000D01*
X148272491Y-130042202D01*
X148272486Y-130042202D01*
X148099076Y-130056154D01*
X148099071Y-130056155D01*
X148094035Y-130056560D01*
X148089127Y-130057766D01*
X148089124Y-130057766D01*
X148011045Y-130076944D01*
X147858294Y-130114463D01*
X147853642Y-130116438D01*
X147853638Y-130116439D01*
X147717829Y-130174087D01*
X147634844Y-130209312D01*
X147619673Y-130218866D01*
X147433712Y-130335972D01*
X147433709Y-130335974D01*
X147429433Y-130338667D01*
X147425639Y-130342012D01*
X147251142Y-130495850D01*
X147251139Y-130495853D01*
X147247345Y-130499198D01*
X147244136Y-130503105D01*
X147244129Y-130503112D01*
X147180941Y-130580040D01*
X147122247Y-130619984D01*
X147051275Y-130621854D01*
X147005482Y-130598945D01*
X147003484Y-130597367D01*
X146998303Y-130592195D01*
X146847738Y-130499385D01*
X146767995Y-130472936D01*
X146686389Y-130445868D01*
X146686387Y-130445868D01*
X146679861Y-130443703D01*
X146673025Y-130443003D01*
X146673022Y-130443002D01*
X146629969Y-130438591D01*
X146575400Y-130433000D01*
X145988642Y-130433000D01*
X145920521Y-130412998D01*
X145874028Y-130359342D01*
X145863924Y-130289068D01*
X145893418Y-130224488D01*
X145898141Y-130219674D01*
X145899253Y-130218866D01*
X146027040Y-130076944D01*
X146122527Y-129911556D01*
X146181542Y-129729928D01*
X146189076Y-129658251D01*
X146200814Y-129546565D01*
X146201504Y-129540000D01*
X146198575Y-129512134D01*
X146182232Y-129356635D01*
X146182232Y-129356633D01*
X146181542Y-129350072D01*
X146177667Y-129338146D01*
X146171500Y-129299210D01*
X146171500Y-128458380D01*
X146191502Y-128390259D01*
X146245158Y-128343766D01*
X146253266Y-128340400D01*
X146259766Y-128337963D01*
X146330573Y-128332777D01*
X146348229Y-128337961D01*
X146436282Y-128370971D01*
X146436288Y-128370973D01*
X146443684Y-128373745D01*
X146505866Y-128380500D01*
X148102134Y-128380500D01*
X148164316Y-128373745D01*
X148171712Y-128370973D01*
X148171718Y-128370971D01*
X148259771Y-128337961D01*
X148330578Y-128332778D01*
X148348229Y-128337961D01*
X148436282Y-128370971D01*
X148436288Y-128370973D01*
X148443684Y-128373745D01*
X148505866Y-128380500D01*
X150102134Y-128380500D01*
X150164316Y-128373745D01*
X150171712Y-128370973D01*
X150171718Y-128370971D01*
X150259771Y-128337961D01*
X150330578Y-128332778D01*
X150348229Y-128337961D01*
X150436282Y-128370971D01*
X150436288Y-128370973D01*
X150443684Y-128373745D01*
X150505866Y-128380500D01*
X152102134Y-128380500D01*
X152164316Y-128373745D01*
X152171712Y-128370973D01*
X152171718Y-128370971D01*
X152259771Y-128337961D01*
X152330578Y-128332778D01*
X152348229Y-128337961D01*
X152436282Y-128370971D01*
X152436288Y-128370973D01*
X152443684Y-128373745D01*
X152505866Y-128380500D01*
X154102134Y-128380500D01*
X154164316Y-128373745D01*
X154300705Y-128322615D01*
X154417261Y-128235261D01*
X154504615Y-128118705D01*
X154555745Y-127982316D01*
X154562500Y-127920134D01*
X154562500Y-125823866D01*
X154555745Y-125761684D01*
X154504615Y-125625295D01*
X154417261Y-125508739D01*
X154300705Y-125421385D01*
X154164316Y-125370255D01*
X154102134Y-125363500D01*
X152505866Y-125363500D01*
X152443684Y-125370255D01*
X152436288Y-125373027D01*
X152436282Y-125373029D01*
X152348229Y-125406039D01*
X152277422Y-125411222D01*
X152259771Y-125406039D01*
X152171718Y-125373029D01*
X152171712Y-125373027D01*
X152164316Y-125370255D01*
X152102134Y-125363500D01*
X150505866Y-125363500D01*
X150443684Y-125370255D01*
X150436288Y-125373027D01*
X150436282Y-125373029D01*
X150348229Y-125406039D01*
X150277422Y-125411222D01*
X150259771Y-125406039D01*
X150171718Y-125373029D01*
X150171712Y-125373027D01*
X150164316Y-125370255D01*
X150102134Y-125363500D01*
X148505866Y-125363500D01*
X148443684Y-125370255D01*
X148436288Y-125373027D01*
X148436282Y-125373029D01*
X148348229Y-125406039D01*
X148277422Y-125411222D01*
X148259771Y-125406039D01*
X148171718Y-125373029D01*
X148171712Y-125373027D01*
X148164316Y-125370255D01*
X148102134Y-125363500D01*
X146505866Y-125363500D01*
X146443684Y-125370255D01*
X146436288Y-125373027D01*
X146436282Y-125373029D01*
X146348229Y-125406039D01*
X146277422Y-125411222D01*
X146259771Y-125406039D01*
X146171718Y-125373029D01*
X146171712Y-125373027D01*
X146164316Y-125370255D01*
X146102134Y-125363500D01*
X144505866Y-125363500D01*
X144443684Y-125370255D01*
X144436288Y-125373027D01*
X144436282Y-125373029D01*
X144348229Y-125406039D01*
X144277422Y-125411222D01*
X144259771Y-125406039D01*
X144171718Y-125373029D01*
X144171712Y-125373027D01*
X144164316Y-125370255D01*
X144102134Y-125363500D01*
X142505866Y-125363500D01*
X142443684Y-125370255D01*
X142307295Y-125421385D01*
X142190739Y-125508739D01*
X142103385Y-125625295D01*
X142052255Y-125761684D01*
X142045500Y-125823866D01*
X142045500Y-127920134D01*
X142052255Y-127982316D01*
X142103385Y-128118705D01*
X142190739Y-128235261D01*
X142307295Y-128322615D01*
X142315703Y-128325767D01*
X142315707Y-128325769D01*
X142338731Y-128334401D01*
X142395495Y-128377043D01*
X142420194Y-128443605D01*
X142420500Y-128452382D01*
X142420500Y-129254543D01*
X142418949Y-129274255D01*
X142416850Y-129287507D01*
X142417195Y-129294094D01*
X142417195Y-129294098D01*
X142420327Y-129353850D01*
X142420500Y-129360445D01*
X142420500Y-129380306D01*
X142420844Y-129383577D01*
X142422576Y-129400059D01*
X142423093Y-129406628D01*
X142426570Y-129472971D01*
X142430042Y-129485929D01*
X142433645Y-129505372D01*
X142435046Y-129518702D01*
X142455578Y-129581894D01*
X142457444Y-129588196D01*
X142474638Y-129652363D01*
X142477634Y-129658242D01*
X142477637Y-129658251D01*
X142480728Y-129664317D01*
X142488292Y-129682579D01*
X142490392Y-129689043D01*
X142490395Y-129689051D01*
X142492436Y-129695331D01*
X142495738Y-129701050D01*
X142495740Y-129701055D01*
X142525654Y-129752867D01*
X142528787Y-129758637D01*
X142558953Y-129817839D01*
X142563109Y-129822971D01*
X142567391Y-129828259D01*
X142578589Y-129844552D01*
X142585296Y-129856169D01*
X142589713Y-129861075D01*
X142589717Y-129861080D01*
X142629747Y-129905538D01*
X142634031Y-129910554D01*
X142644441Y-129923409D01*
X142646528Y-129925986D01*
X142660573Y-129940031D01*
X142665114Y-129944816D01*
X142709566Y-129994185D01*
X142720426Y-130002075D01*
X142735454Y-130014912D01*
X144839588Y-132119046D01*
X144852425Y-132134074D01*
X144860315Y-132144933D01*
X144859376Y-132145615D01*
X144877679Y-132177033D01*
X144878027Y-132176870D01*
X144879847Y-132180756D01*
X144880712Y-132182240D01*
X144883450Y-132190446D01*
X144976522Y-132340848D01*
X145101697Y-132465805D01*
X145107927Y-132469645D01*
X145107928Y-132469646D01*
X145245090Y-132554194D01*
X145252262Y-132558615D01*
X145270783Y-132564758D01*
X145413611Y-132612132D01*
X145413613Y-132612132D01*
X145420139Y-132614297D01*
X145426975Y-132614997D01*
X145426978Y-132614998D01*
X145470031Y-132619409D01*
X145524600Y-132625000D01*
X146575400Y-132625000D01*
X146578646Y-132624663D01*
X146578650Y-132624663D01*
X146674308Y-132614738D01*
X146674312Y-132614737D01*
X146681166Y-132614026D01*
X146687702Y-132611845D01*
X146687704Y-132611845D01*
X146828840Y-132564758D01*
X146848946Y-132558050D01*
X146991791Y-132469654D01*
X147060244Y-132450816D01*
X147128014Y-132471977D01*
X147155233Y-132496879D01*
X147156544Y-132498807D01*
X147323332Y-132675181D01*
X147327358Y-132678259D01*
X147327359Y-132678260D01*
X147512154Y-132819547D01*
X147512158Y-132819550D01*
X147516174Y-132822620D01*
X147520632Y-132825010D01*
X147520633Y-132825011D01*
X147644985Y-132891688D01*
X147730109Y-132937331D01*
X147959631Y-133016362D01*
X148058978Y-133033522D01*
X148194926Y-133057004D01*
X148194932Y-133057005D01*
X148198836Y-133057679D01*
X148202797Y-133057859D01*
X148202798Y-133057859D01*
X148226506Y-133058936D01*
X148226525Y-133058936D01*
X148227925Y-133059000D01*
X154814000Y-133059000D01*
X154882121Y-133079002D01*
X154928614Y-133132658D01*
X154940000Y-133185000D01*
X154940000Y-135255500D01*
X154919998Y-135323621D01*
X154866342Y-135370114D01*
X154814000Y-135381500D01*
X140461500Y-135381500D01*
X140393379Y-135361498D01*
X140346886Y-135307842D01*
X140335500Y-135255500D01*
X140335500Y-132119366D01*
X140328745Y-132057184D01*
X140277615Y-131920795D01*
X140225674Y-131851490D01*
X140200826Y-131784983D01*
X140200500Y-131775925D01*
X140200500Y-128447508D01*
X140220502Y-128379387D01*
X140274158Y-128332894D01*
X140282268Y-128329527D01*
X140292301Y-128325766D01*
X140292304Y-128325764D01*
X140300705Y-128322615D01*
X140307884Y-128317235D01*
X140307887Y-128317233D01*
X140410081Y-128240642D01*
X140417261Y-128235261D01*
X140504615Y-128118705D01*
X140555745Y-127982316D01*
X140562500Y-127920134D01*
X140562500Y-125823866D01*
X140555745Y-125761684D01*
X140504615Y-125625295D01*
X140417261Y-125508739D01*
X140300705Y-125421385D01*
X140164316Y-125370255D01*
X140102134Y-125363500D01*
X138505866Y-125363500D01*
X138443684Y-125370255D01*
X138307295Y-125421385D01*
X138190739Y-125508739D01*
X138103385Y-125625295D01*
X138052255Y-125761684D01*
X138045500Y-125823866D01*
X138045500Y-127920134D01*
X138052255Y-127982316D01*
X138103385Y-128118705D01*
X138108771Y-128125891D01*
X138158326Y-128192012D01*
X138183174Y-128258518D01*
X138183500Y-128267577D01*
X138183500Y-131775925D01*
X138163498Y-131844046D01*
X138158326Y-131851490D01*
X138106385Y-131920795D01*
X138055255Y-132057184D01*
X138048500Y-132119366D01*
X138048500Y-135255500D01*
X138028498Y-135323621D01*
X137974842Y-135370114D01*
X137922500Y-135381500D01*
X123824500Y-135381500D01*
X123756379Y-135361498D01*
X123709886Y-135307842D01*
X123698500Y-135255500D01*
X123698500Y-86447000D01*
X123718502Y-86378879D01*
X123772158Y-86332386D01*
X123824500Y-86321000D01*
X129029433Y-86321000D01*
X129097554Y-86341002D01*
G37*
G04 #@! TD.AperFunction*
G04 #@! TA.AperFunction,Conductor*
G36*
X172153621Y-82570002D02*
G01*
X172200114Y-82623658D01*
X172211500Y-82676000D01*
X172211500Y-120524000D01*
X172191498Y-120592121D01*
X172137842Y-120638614D01*
X172085500Y-120650000D01*
X172022500Y-120650000D01*
X171954379Y-120629998D01*
X171907886Y-120576342D01*
X171896500Y-120524000D01*
X171896500Y-120471600D01*
X171896163Y-120468350D01*
X171886238Y-120372692D01*
X171886237Y-120372688D01*
X171885526Y-120365834D01*
X171829550Y-120198054D01*
X171736478Y-120047652D01*
X171649891Y-119961216D01*
X171615812Y-119898934D01*
X171620815Y-119828114D01*
X171649736Y-119783025D01*
X171732134Y-119700483D01*
X171737305Y-119695303D01*
X171830115Y-119544738D01*
X171885797Y-119376861D01*
X171896500Y-119272400D01*
X171896500Y-118471600D01*
X171896163Y-118468350D01*
X171886238Y-118372692D01*
X171886237Y-118372688D01*
X171885526Y-118365834D01*
X171873168Y-118328791D01*
X171831868Y-118205002D01*
X171829550Y-118198054D01*
X171736478Y-118047652D01*
X171611303Y-117922695D01*
X171598563Y-117914842D01*
X171466968Y-117833725D01*
X171466966Y-117833724D01*
X171460738Y-117829885D01*
X171300254Y-117776655D01*
X171299389Y-117776368D01*
X171299387Y-117776368D01*
X171292861Y-117774203D01*
X171286025Y-117773503D01*
X171286022Y-117773502D01*
X171242969Y-117769091D01*
X171188400Y-117763500D01*
X170187600Y-117763500D01*
X170184354Y-117763837D01*
X170184350Y-117763837D01*
X170088692Y-117773762D01*
X170088688Y-117773763D01*
X170081834Y-117774474D01*
X170075298Y-117776655D01*
X170075296Y-117776655D01*
X169943194Y-117820728D01*
X169914054Y-117830450D01*
X169763652Y-117923522D01*
X169758479Y-117928704D01*
X169758474Y-117928708D01*
X169735705Y-117951517D01*
X169673423Y-117985597D01*
X169646532Y-117988500D01*
X169369466Y-117988500D01*
X169301345Y-117968498D01*
X169254852Y-117914842D01*
X169244203Y-117876105D01*
X169243599Y-117870541D01*
X169243598Y-117870537D01*
X169242745Y-117862684D01*
X169191615Y-117726295D01*
X169135448Y-117651351D01*
X169110600Y-117584846D01*
X169125653Y-117515463D01*
X169129604Y-117509487D01*
X169129305Y-117509303D01*
X169218275Y-117364968D01*
X169218276Y-117364966D01*
X169222115Y-117358738D01*
X169277797Y-117190861D01*
X169279016Y-117178969D01*
X169282909Y-117140969D01*
X169288500Y-117086400D01*
X169288500Y-116085600D01*
X169285906Y-116060600D01*
X169278238Y-115986692D01*
X169278237Y-115986688D01*
X169277526Y-115979834D01*
X169271903Y-115962978D01*
X169223868Y-115819002D01*
X169221550Y-115812054D01*
X169128478Y-115661652D01*
X169003303Y-115536695D01*
X168917959Y-115484088D01*
X168858968Y-115447725D01*
X168858966Y-115447724D01*
X168852738Y-115443885D01*
X168692254Y-115390655D01*
X168691389Y-115390368D01*
X168691387Y-115390368D01*
X168684861Y-115388203D01*
X168678025Y-115387503D01*
X168678022Y-115387502D01*
X168634969Y-115383091D01*
X168580400Y-115377500D01*
X167779600Y-115377500D01*
X167776354Y-115377837D01*
X167776350Y-115377837D01*
X167680692Y-115387762D01*
X167680688Y-115387763D01*
X167673834Y-115388474D01*
X167667298Y-115390655D01*
X167667296Y-115390655D01*
X167535194Y-115434728D01*
X167506054Y-115444450D01*
X167355652Y-115537522D01*
X167230695Y-115662697D01*
X167226855Y-115668927D01*
X167226854Y-115668928D01*
X167157136Y-115782032D01*
X167137885Y-115813262D01*
X167082203Y-115981139D01*
X167071500Y-116085600D01*
X167071500Y-117086400D01*
X167071837Y-117089646D01*
X167071837Y-117089650D01*
X167081105Y-117178969D01*
X167082474Y-117192166D01*
X167084655Y-117198702D01*
X167084655Y-117198704D01*
X167092557Y-117222389D01*
X167138450Y-117359946D01*
X167142306Y-117366177D01*
X167197140Y-117454788D01*
X167215978Y-117523240D01*
X167194817Y-117591010D01*
X167182199Y-117606397D01*
X167177739Y-117609739D01*
X167090385Y-117726295D01*
X167039255Y-117862684D01*
X167032500Y-117924866D01*
X167032500Y-120221134D01*
X167039255Y-120283316D01*
X167090385Y-120419705D01*
X167095771Y-120426891D01*
X167111917Y-120448435D01*
X167136765Y-120514941D01*
X167121712Y-120584324D01*
X167071538Y-120634554D01*
X167011091Y-120650000D01*
X164710909Y-120650000D01*
X164642788Y-120629998D01*
X164596295Y-120576342D01*
X164586191Y-120506068D01*
X164610083Y-120448435D01*
X164626229Y-120426891D01*
X164631615Y-120419705D01*
X164682745Y-120283316D01*
X164689500Y-120221134D01*
X164689500Y-117924866D01*
X164682745Y-117862684D01*
X164631615Y-117726295D01*
X164544261Y-117609739D01*
X164538688Y-117605562D01*
X164505146Y-117544137D01*
X164510211Y-117473322D01*
X164521007Y-117451238D01*
X164558775Y-117389968D01*
X164558776Y-117389966D01*
X164562615Y-117383738D01*
X164618297Y-117215861D01*
X164620859Y-117190861D01*
X164628672Y-117114598D01*
X164629000Y-117111400D01*
X164629000Y-116060600D01*
X164621332Y-115986692D01*
X164618738Y-115961692D01*
X164618737Y-115961688D01*
X164618026Y-115954834D01*
X164562050Y-115787054D01*
X164483356Y-115659886D01*
X164464500Y-115593583D01*
X164464500Y-112874500D01*
X164484502Y-112806379D01*
X164538158Y-112759886D01*
X164590500Y-112748500D01*
X165374134Y-112748500D01*
X165436316Y-112741745D01*
X165572705Y-112690615D01*
X165689261Y-112603261D01*
X165776615Y-112486705D01*
X165827745Y-112350316D01*
X165834500Y-112288134D01*
X165834500Y-108691866D01*
X165827745Y-108629684D01*
X165776615Y-108493295D01*
X165689261Y-108376739D01*
X165572705Y-108289385D01*
X165564304Y-108286236D01*
X165562082Y-108285019D01*
X165511936Y-108234760D01*
X165496923Y-108165369D01*
X165521809Y-108098877D01*
X165578693Y-108056395D01*
X165622592Y-108048500D01*
X167543364Y-108048500D01*
X167545037Y-108048409D01*
X167545052Y-108048409D01*
X167596599Y-108045617D01*
X167600957Y-108045381D01*
X167614160Y-108042803D01*
X167826160Y-108001402D01*
X167826161Y-108001402D01*
X167831393Y-108000380D01*
X168050952Y-107917196D01*
X168253356Y-107798209D01*
X168432819Y-107646819D01*
X168584209Y-107467356D01*
X168703196Y-107264952D01*
X168786380Y-107045393D01*
X168794340Y-107004635D01*
X168830544Y-106819243D01*
X168831381Y-106814957D01*
X168833670Y-106772697D01*
X168834409Y-106759052D01*
X168834409Y-106759037D01*
X168834500Y-106757364D01*
X168834500Y-104822636D01*
X168831381Y-104765043D01*
X168786380Y-104534607D01*
X168703196Y-104315048D01*
X168584209Y-104112644D01*
X168432819Y-103933181D01*
X168253356Y-103781791D01*
X168050952Y-103662804D01*
X167831393Y-103579620D01*
X167600957Y-103534619D01*
X167595227Y-103534309D01*
X167545052Y-103531591D01*
X167545037Y-103531591D01*
X167543364Y-103531500D01*
X165608636Y-103531500D01*
X165606963Y-103531591D01*
X165606948Y-103531591D01*
X165556773Y-103534309D01*
X165551043Y-103534619D01*
X165320607Y-103579620D01*
X165101048Y-103662804D01*
X164898644Y-103781791D01*
X164719181Y-103933181D01*
X164567791Y-104112644D01*
X164448804Y-104315048D01*
X164365620Y-104534607D01*
X164320619Y-104765043D01*
X164317500Y-104822636D01*
X164317500Y-106757364D01*
X164317591Y-106759037D01*
X164317591Y-106759052D01*
X164318330Y-106772697D01*
X164320619Y-106814957D01*
X164321456Y-106819243D01*
X164357661Y-107004635D01*
X164365620Y-107045393D01*
X164448804Y-107264952D01*
X164567791Y-107467356D01*
X164719181Y-107646819D01*
X164898644Y-107798209D01*
X165101048Y-107917196D01*
X165106034Y-107919085D01*
X165287068Y-107987673D01*
X165343683Y-108030512D01*
X165368151Y-108097160D01*
X165352702Y-108166455D01*
X165302241Y-108216398D01*
X165242427Y-108231500D01*
X161777866Y-108231500D01*
X161715684Y-108238255D01*
X161579295Y-108289385D01*
X161462739Y-108376739D01*
X161375385Y-108493295D01*
X161324255Y-108629684D01*
X161317500Y-108691866D01*
X161317500Y-109480500D01*
X161297498Y-109548621D01*
X161243842Y-109595114D01*
X161191500Y-109606500D01*
X160552683Y-109606500D01*
X160484562Y-109586498D01*
X160460984Y-109565145D01*
X160460478Y-109565652D01*
X160340483Y-109445866D01*
X160335303Y-109440695D01*
X160284232Y-109409214D01*
X160190968Y-109351725D01*
X160190966Y-109351724D01*
X160184738Y-109347885D01*
X160074995Y-109311485D01*
X160023389Y-109294368D01*
X160023387Y-109294368D01*
X160016861Y-109292203D01*
X160010025Y-109291503D01*
X160010022Y-109291502D01*
X159966969Y-109287091D01*
X159912400Y-109281500D01*
X159111600Y-109281500D01*
X159108354Y-109281837D01*
X159108350Y-109281837D01*
X159012692Y-109291762D01*
X159012688Y-109291763D01*
X159005834Y-109292474D01*
X158999298Y-109294655D01*
X158999296Y-109294655D01*
X158948851Y-109311485D01*
X158838054Y-109348450D01*
X158687652Y-109441522D01*
X158682479Y-109446704D01*
X158610673Y-109518635D01*
X158548390Y-109552714D01*
X158477570Y-109547711D01*
X158420698Y-109505214D01*
X158395829Y-109438715D01*
X158395500Y-109429617D01*
X158395500Y-108704495D01*
X158415502Y-108636374D01*
X158422617Y-108626404D01*
X158424134Y-108624483D01*
X158429305Y-108619303D01*
X158509130Y-108489803D01*
X158518275Y-108474968D01*
X158518276Y-108474966D01*
X158522115Y-108468738D01*
X158577797Y-108300861D01*
X158588500Y-108196400D01*
X158588500Y-107195600D01*
X158588163Y-107192350D01*
X158578238Y-107096692D01*
X158578237Y-107096688D01*
X158577526Y-107089834D01*
X158564363Y-107050378D01*
X158523868Y-106929002D01*
X158521550Y-106922054D01*
X158428478Y-106771652D01*
X158423296Y-106766479D01*
X158423292Y-106766474D01*
X158400483Y-106743705D01*
X158366403Y-106681423D01*
X158363500Y-106654532D01*
X158363500Y-105396790D01*
X158369667Y-105357854D01*
X158371502Y-105352206D01*
X158373542Y-105345928D01*
X158393504Y-105156000D01*
X158373542Y-104966072D01*
X158314527Y-104784444D01*
X158219040Y-104619056D01*
X158091253Y-104477134D01*
X157936752Y-104364882D01*
X157930724Y-104362198D01*
X157930722Y-104362197D01*
X157768319Y-104289891D01*
X157768318Y-104289891D01*
X157762288Y-104287206D01*
X157668887Y-104267353D01*
X157581944Y-104248872D01*
X157581939Y-104248872D01*
X157575487Y-104247500D01*
X157384513Y-104247500D01*
X157378061Y-104248872D01*
X157378056Y-104248872D01*
X157291113Y-104267353D01*
X157197712Y-104287206D01*
X157191682Y-104289891D01*
X157191681Y-104289891D01*
X157029278Y-104362197D01*
X157029276Y-104362198D01*
X157023248Y-104364882D01*
X156868747Y-104477134D01*
X156740960Y-104619056D01*
X156645473Y-104784444D01*
X156586458Y-104966072D01*
X156566496Y-105156000D01*
X156586458Y-105345928D01*
X156588498Y-105352206D01*
X156590333Y-105357854D01*
X156596500Y-105396790D01*
X156596500Y-106654650D01*
X156576498Y-106722771D01*
X156559674Y-106743667D01*
X156530695Y-106772697D01*
X156526855Y-106778927D01*
X156526854Y-106778928D01*
X156502004Y-106819243D01*
X156437885Y-106923262D01*
X156382203Y-107091139D01*
X156371500Y-107195600D01*
X156371500Y-108196400D01*
X156371837Y-108199646D01*
X156371837Y-108199650D01*
X156381707Y-108294771D01*
X156382474Y-108302166D01*
X156384655Y-108308702D01*
X156384655Y-108308704D01*
X156408024Y-108378749D01*
X156438450Y-108469946D01*
X156531522Y-108620348D01*
X156536704Y-108625521D01*
X156536708Y-108625526D01*
X156591517Y-108680239D01*
X156625597Y-108742521D01*
X156628500Y-108769412D01*
X156628500Y-109448650D01*
X156608498Y-109516771D01*
X156591674Y-109537667D01*
X156570188Y-109559191D01*
X156562695Y-109566697D01*
X156558855Y-109572927D01*
X156558854Y-109572928D01*
X156526575Y-109625295D01*
X156469885Y-109717262D01*
X156414203Y-109885139D01*
X156403500Y-109989600D01*
X156403500Y-110990400D01*
X156414474Y-111096166D01*
X156470450Y-111263946D01*
X156563522Y-111414348D01*
X156688697Y-111539305D01*
X156694927Y-111543145D01*
X156694928Y-111543146D01*
X156832090Y-111627694D01*
X156839262Y-111632115D01*
X156919005Y-111658564D01*
X157000611Y-111685632D01*
X157000613Y-111685632D01*
X157007139Y-111687797D01*
X157013975Y-111688497D01*
X157013978Y-111688498D01*
X157057031Y-111692909D01*
X157111600Y-111698500D01*
X157912400Y-111698500D01*
X157915646Y-111698163D01*
X157915650Y-111698163D01*
X158011308Y-111688238D01*
X158011312Y-111688237D01*
X158018166Y-111687526D01*
X158024702Y-111685345D01*
X158024704Y-111685345D01*
X158156806Y-111641272D01*
X158185946Y-111631550D01*
X158336348Y-111538478D01*
X158422784Y-111451891D01*
X158485066Y-111417812D01*
X158555886Y-111422815D01*
X158600975Y-111451736D01*
X158676431Y-111527060D01*
X158688697Y-111539305D01*
X158694927Y-111543145D01*
X158694928Y-111543146D01*
X158832090Y-111627694D01*
X158839262Y-111632115D01*
X158919005Y-111658564D01*
X159000611Y-111685632D01*
X159000613Y-111685632D01*
X159007139Y-111687797D01*
X159013975Y-111688497D01*
X159013978Y-111688498D01*
X159057031Y-111692909D01*
X159111600Y-111698500D01*
X159912400Y-111698500D01*
X159915646Y-111698163D01*
X159915650Y-111698163D01*
X160011308Y-111688238D01*
X160011312Y-111688237D01*
X160018166Y-111687526D01*
X160024702Y-111685345D01*
X160024704Y-111685345D01*
X160156806Y-111641272D01*
X160185946Y-111631550D01*
X160336348Y-111538478D01*
X160461305Y-111413303D01*
X160462945Y-111414941D01*
X160511744Y-111380344D01*
X160552706Y-111373500D01*
X161191500Y-111373500D01*
X161259621Y-111393502D01*
X161306114Y-111447158D01*
X161317500Y-111499500D01*
X161317500Y-112288134D01*
X161324255Y-112350316D01*
X161375385Y-112486705D01*
X161462739Y-112603261D01*
X161579295Y-112690615D01*
X161715684Y-112741745D01*
X161777866Y-112748500D01*
X162571500Y-112748500D01*
X162639621Y-112768502D01*
X162686114Y-112822158D01*
X162697500Y-112874500D01*
X162697500Y-115484088D01*
X162677498Y-115552209D01*
X162660673Y-115573105D01*
X162601370Y-115632512D01*
X162601366Y-115632517D01*
X162596195Y-115637697D01*
X162592355Y-115643927D01*
X162592354Y-115643928D01*
X162584618Y-115656479D01*
X162503385Y-115788262D01*
X162447703Y-115956139D01*
X162447003Y-115962975D01*
X162447002Y-115962978D01*
X162444441Y-115987978D01*
X162437000Y-116060600D01*
X162437000Y-117111400D01*
X162437337Y-117114646D01*
X162437337Y-117114650D01*
X162446790Y-117205752D01*
X162447974Y-117217166D01*
X162503950Y-117384946D01*
X162507806Y-117391177D01*
X162586377Y-117518147D01*
X162605215Y-117586599D01*
X162580059Y-117660015D01*
X162535771Y-117719108D01*
X162535770Y-117719110D01*
X162530385Y-117726295D01*
X162479255Y-117862684D01*
X162472500Y-117924866D01*
X162472500Y-120221134D01*
X162479255Y-120283316D01*
X162530385Y-120419705D01*
X162535771Y-120426891D01*
X162551917Y-120448435D01*
X162576765Y-120514941D01*
X162561712Y-120584324D01*
X162511538Y-120634554D01*
X162451091Y-120650000D01*
X154940000Y-120650000D01*
X154940000Y-121301500D01*
X154919998Y-121369621D01*
X154866342Y-121416114D01*
X154814000Y-121427500D01*
X135043031Y-121427500D01*
X134974910Y-121407498D01*
X134953936Y-121390595D01*
X130831405Y-117268064D01*
X130797379Y-117205752D01*
X130794500Y-117178969D01*
X130794500Y-102364000D01*
X130814502Y-102295879D01*
X130868158Y-102249386D01*
X130920500Y-102238000D01*
X132042172Y-102238000D01*
X132110293Y-102258002D01*
X132131189Y-102274826D01*
X132147697Y-102291305D01*
X132153927Y-102295145D01*
X132153928Y-102295146D01*
X132291090Y-102379694D01*
X132298262Y-102384115D01*
X132378005Y-102410564D01*
X132459611Y-102437632D01*
X132459613Y-102437632D01*
X132466139Y-102439797D01*
X132472975Y-102440497D01*
X132472978Y-102440498D01*
X132516031Y-102444909D01*
X132570600Y-102450500D01*
X133621400Y-102450500D01*
X133624646Y-102450163D01*
X133624650Y-102450163D01*
X133720308Y-102440238D01*
X133720312Y-102440237D01*
X133727166Y-102439526D01*
X133733702Y-102437345D01*
X133733704Y-102437345D01*
X133865806Y-102393272D01*
X133894946Y-102383550D01*
X133992218Y-102323356D01*
X134058521Y-102304500D01*
X134673389Y-102304500D01*
X134739505Y-102323240D01*
X134831090Y-102379694D01*
X134838262Y-102384115D01*
X134918005Y-102410564D01*
X134999611Y-102437632D01*
X134999613Y-102437632D01*
X135006139Y-102439797D01*
X135012975Y-102440497D01*
X135012978Y-102440498D01*
X135056031Y-102444909D01*
X135110600Y-102450500D01*
X136161400Y-102450500D01*
X136164646Y-102450163D01*
X136164650Y-102450163D01*
X136260308Y-102440238D01*
X136260312Y-102440237D01*
X136267166Y-102439526D01*
X136273702Y-102437345D01*
X136273704Y-102437345D01*
X136405806Y-102393272D01*
X136434946Y-102383550D01*
X136532218Y-102323356D01*
X136598521Y-102304500D01*
X137584768Y-102304500D01*
X137652889Y-102324502D01*
X137660333Y-102329674D01*
X137709108Y-102366229D01*
X137709110Y-102366230D01*
X137716295Y-102371615D01*
X137852684Y-102422745D01*
X137914866Y-102429500D01*
X140511134Y-102429500D01*
X140573316Y-102422745D01*
X140709705Y-102371615D01*
X140826261Y-102284261D01*
X140913615Y-102167705D01*
X140964745Y-102031316D01*
X140971500Y-101969134D01*
X140971500Y-100872866D01*
X140964745Y-100810684D01*
X140913615Y-100674295D01*
X140826261Y-100557739D01*
X140791018Y-100531326D01*
X140748503Y-100474467D01*
X140743477Y-100403649D01*
X140777537Y-100341355D01*
X140839868Y-100307365D01*
X140866583Y-100304500D01*
X141674851Y-100304500D01*
X141742972Y-100324502D01*
X141763946Y-100341404D01*
X142383595Y-100961052D01*
X142417620Y-101023365D01*
X142420500Y-101050148D01*
X142420500Y-109284496D01*
X142400498Y-109352617D01*
X142346842Y-109399110D01*
X142276568Y-109409214D01*
X142250272Y-109402479D01*
X142189270Y-109379610D01*
X142132506Y-109336968D01*
X142107806Y-109270407D01*
X142107500Y-109261628D01*
X142107500Y-107428790D01*
X142113667Y-107389854D01*
X142115502Y-107384206D01*
X142117542Y-107377928D01*
X142137504Y-107188000D01*
X142136814Y-107181435D01*
X142118232Y-107004635D01*
X142118232Y-107004633D01*
X142117542Y-106998072D01*
X142058527Y-106816444D01*
X142055153Y-106810599D01*
X141995216Y-106706787D01*
X141963040Y-106651056D01*
X141835253Y-106509134D01*
X141680752Y-106396882D01*
X141674724Y-106394198D01*
X141674722Y-106394197D01*
X141512319Y-106321891D01*
X141512318Y-106321891D01*
X141506288Y-106319206D01*
X141412888Y-106299353D01*
X141325944Y-106280872D01*
X141325939Y-106280872D01*
X141319487Y-106279500D01*
X141128513Y-106279500D01*
X141122061Y-106280872D01*
X141122056Y-106280872D01*
X141035112Y-106299353D01*
X140941712Y-106319206D01*
X140935682Y-106321891D01*
X140935681Y-106321891D01*
X140773278Y-106394197D01*
X140773276Y-106394198D01*
X140767248Y-106396882D01*
X140612747Y-106509134D01*
X140484960Y-106651056D01*
X140452784Y-106706787D01*
X140392848Y-106810599D01*
X140389473Y-106816444D01*
X140330458Y-106998072D01*
X140329768Y-107004633D01*
X140329768Y-107004635D01*
X140311186Y-107181435D01*
X140310496Y-107188000D01*
X140330458Y-107377928D01*
X140332498Y-107384206D01*
X140334333Y-107389854D01*
X140340500Y-107428790D01*
X140340500Y-109333472D01*
X140320498Y-109401593D01*
X140290065Y-109434298D01*
X140201349Y-109500787D01*
X140190739Y-109508739D01*
X140103385Y-109625295D01*
X140052255Y-109761684D01*
X140045500Y-109823866D01*
X140045500Y-111920134D01*
X140052255Y-111982316D01*
X140103385Y-112118705D01*
X140190739Y-112235261D01*
X140307295Y-112322615D01*
X140443684Y-112373745D01*
X140505866Y-112380500D01*
X142102134Y-112380500D01*
X142164316Y-112373745D01*
X142171712Y-112370973D01*
X142171718Y-112370971D01*
X142259771Y-112337961D01*
X142330578Y-112332778D01*
X142348229Y-112337961D01*
X142436282Y-112370971D01*
X142436288Y-112370973D01*
X142443684Y-112373745D01*
X142505866Y-112380500D01*
X144102134Y-112380500D01*
X144164316Y-112373745D01*
X144171712Y-112370973D01*
X144171718Y-112370971D01*
X144259771Y-112337961D01*
X144330578Y-112332778D01*
X144348229Y-112337961D01*
X144436282Y-112370971D01*
X144436288Y-112370973D01*
X144443684Y-112373745D01*
X144505866Y-112380500D01*
X146102134Y-112380500D01*
X146164316Y-112373745D01*
X146171712Y-112370973D01*
X146171718Y-112370971D01*
X146259771Y-112337961D01*
X146330578Y-112332778D01*
X146348229Y-112337961D01*
X146436282Y-112370971D01*
X146436288Y-112370973D01*
X146443684Y-112373745D01*
X146505866Y-112380500D01*
X148102134Y-112380500D01*
X148164316Y-112373745D01*
X148171712Y-112370973D01*
X148171718Y-112370971D01*
X148259771Y-112337961D01*
X148330578Y-112332778D01*
X148348229Y-112337961D01*
X148436282Y-112370971D01*
X148436288Y-112370973D01*
X148443684Y-112373745D01*
X148505866Y-112380500D01*
X150102134Y-112380500D01*
X150164316Y-112373745D01*
X150171712Y-112370973D01*
X150171718Y-112370971D01*
X150259771Y-112337961D01*
X150330578Y-112332778D01*
X150348229Y-112337961D01*
X150436282Y-112370971D01*
X150436288Y-112370973D01*
X150443684Y-112373745D01*
X150505866Y-112380500D01*
X152102134Y-112380500D01*
X152164316Y-112373745D01*
X152300705Y-112322615D01*
X152417261Y-112235261D01*
X152504615Y-112118705D01*
X152555745Y-111982316D01*
X152562500Y-111920134D01*
X152562500Y-109823866D01*
X152555745Y-109761684D01*
X152504615Y-109625295D01*
X152417261Y-109508739D01*
X152300705Y-109421385D01*
X152292296Y-109418232D01*
X152292293Y-109418231D01*
X152269269Y-109409599D01*
X152212505Y-109366957D01*
X152187806Y-109300395D01*
X152187500Y-109291618D01*
X152187500Y-91693457D01*
X152189051Y-91673745D01*
X152190118Y-91667008D01*
X152191150Y-91660493D01*
X152188505Y-91610014D01*
X152187673Y-91594150D01*
X152187500Y-91587555D01*
X152187500Y-91567694D01*
X152185423Y-91547931D01*
X152184907Y-91541367D01*
X152181776Y-91481623D01*
X152181775Y-91481619D01*
X152181430Y-91475029D01*
X152177958Y-91462071D01*
X152174355Y-91442628D01*
X152173644Y-91435866D01*
X152172954Y-91429298D01*
X152152422Y-91366106D01*
X152150556Y-91359804D01*
X152135071Y-91302015D01*
X152133362Y-91295637D01*
X152130366Y-91289758D01*
X152130363Y-91289749D01*
X152127272Y-91283683D01*
X152119708Y-91265421D01*
X152117608Y-91258958D01*
X152117606Y-91258953D01*
X152115564Y-91252669D01*
X152082337Y-91195119D01*
X152079214Y-91189365D01*
X152049048Y-91130161D01*
X152040607Y-91119737D01*
X152029412Y-91103449D01*
X152026005Y-91097548D01*
X152026004Y-91097547D01*
X152022704Y-91091831D01*
X152018287Y-91086925D01*
X152018283Y-91086920D01*
X151978253Y-91042462D01*
X151973969Y-91037447D01*
X151963548Y-91024579D01*
X151961472Y-91022015D01*
X151947436Y-91007979D01*
X151942895Y-91003194D01*
X151902856Y-90958726D01*
X151902855Y-90958725D01*
X151898434Y-90953815D01*
X151893094Y-90949935D01*
X151893086Y-90949928D01*
X151887578Y-90945927D01*
X151872543Y-90933086D01*
X149377007Y-88437550D01*
X149356982Y-88411454D01*
X149332343Y-88368777D01*
X149332341Y-88368774D01*
X149329040Y-88363056D01*
X149201253Y-88221134D01*
X149046752Y-88108882D01*
X149040724Y-88106198D01*
X149040722Y-88106197D01*
X148878319Y-88033891D01*
X148878318Y-88033891D01*
X148872288Y-88031206D01*
X148778887Y-88011353D01*
X148691944Y-87992872D01*
X148691939Y-87992872D01*
X148685487Y-87991500D01*
X148494513Y-87991500D01*
X148488061Y-87992872D01*
X148488056Y-87992872D01*
X148401112Y-88011353D01*
X148307712Y-88031206D01*
X148301682Y-88033891D01*
X148301681Y-88033891D01*
X148139278Y-88106197D01*
X148139276Y-88106198D01*
X148133248Y-88108882D01*
X147978747Y-88221134D01*
X147974326Y-88226044D01*
X147974325Y-88226045D01*
X147870455Y-88341405D01*
X147850960Y-88363056D01*
X147755473Y-88528444D01*
X147696458Y-88710072D01*
X147695768Y-88716633D01*
X147695768Y-88716635D01*
X147681493Y-88852454D01*
X147676496Y-88900000D01*
X147677186Y-88906565D01*
X147687225Y-89002077D01*
X147696458Y-89089928D01*
X147755473Y-89271556D01*
X147850960Y-89436944D01*
X147855378Y-89441851D01*
X147855379Y-89441852D01*
X147961025Y-89559184D01*
X147978747Y-89578866D01*
X148119362Y-89681029D01*
X148119421Y-89681072D01*
X148134455Y-89693913D01*
X149272459Y-90831916D01*
X150383595Y-91943052D01*
X150417620Y-92005364D01*
X150420500Y-92032147D01*
X150420500Y-109284496D01*
X150400498Y-109352617D01*
X150346842Y-109399110D01*
X150276568Y-109409214D01*
X150250272Y-109402479D01*
X150164316Y-109370255D01*
X150102134Y-109363500D01*
X148505866Y-109363500D01*
X148443684Y-109370255D01*
X148357729Y-109402478D01*
X148286923Y-109407661D01*
X148224554Y-109373740D01*
X148190424Y-109311485D01*
X148187500Y-109284496D01*
X148187500Y-106049235D01*
X148207502Y-105981114D01*
X148261158Y-105934621D01*
X148331432Y-105924517D01*
X148376501Y-105940116D01*
X148381905Y-105943236D01*
X148387248Y-105947118D01*
X148561712Y-106024794D01*
X148655113Y-106044647D01*
X148742056Y-106063128D01*
X148742061Y-106063128D01*
X148748513Y-106064500D01*
X148939487Y-106064500D01*
X148945939Y-106063128D01*
X148945944Y-106063128D01*
X149032887Y-106044647D01*
X149126288Y-106024794D01*
X149132319Y-106022109D01*
X149294722Y-105949803D01*
X149294724Y-105949802D01*
X149300752Y-105947118D01*
X149310390Y-105940116D01*
X149356157Y-105906864D01*
X149455253Y-105834866D01*
X149583040Y-105692944D01*
X149678527Y-105527556D01*
X149737542Y-105345928D01*
X149757504Y-105156000D01*
X149737542Y-104966072D01*
X149733667Y-104954146D01*
X149727500Y-104915210D01*
X149727500Y-93043457D01*
X149729051Y-93023745D01*
X149730118Y-93017008D01*
X149731150Y-93010493D01*
X149730661Y-93001146D01*
X149727673Y-92944150D01*
X149727500Y-92937555D01*
X149727500Y-92917694D01*
X149725423Y-92897931D01*
X149724907Y-92891367D01*
X149721776Y-92831623D01*
X149721775Y-92831619D01*
X149721430Y-92825029D01*
X149717958Y-92812071D01*
X149714355Y-92792628D01*
X149714311Y-92792205D01*
X149712954Y-92779298D01*
X149692422Y-92716106D01*
X149690556Y-92709804D01*
X149675071Y-92652015D01*
X149673362Y-92645637D01*
X149670366Y-92639758D01*
X149670363Y-92639749D01*
X149667272Y-92633683D01*
X149659708Y-92615421D01*
X149657608Y-92608958D01*
X149657606Y-92608953D01*
X149655564Y-92602669D01*
X149622337Y-92545119D01*
X149619214Y-92539366D01*
X149589048Y-92480161D01*
X149580607Y-92469737D01*
X149569412Y-92453449D01*
X149566005Y-92447548D01*
X149566004Y-92447547D01*
X149562704Y-92441831D01*
X149558287Y-92436925D01*
X149558283Y-92436920D01*
X149518253Y-92392462D01*
X149513969Y-92387447D01*
X149503548Y-92374579D01*
X149501472Y-92372015D01*
X149487436Y-92357979D01*
X149482895Y-92353194D01*
X149442856Y-92308726D01*
X149442855Y-92308725D01*
X149438434Y-92303815D01*
X149433094Y-92299935D01*
X149433086Y-92299928D01*
X149427578Y-92295927D01*
X149412543Y-92283086D01*
X145981912Y-88852454D01*
X145969075Y-88837426D01*
X145961185Y-88826566D01*
X145946039Y-88812928D01*
X145911816Y-88782114D01*
X145907031Y-88777573D01*
X145892986Y-88763528D01*
X145890409Y-88761441D01*
X145877554Y-88751031D01*
X145872538Y-88746747D01*
X145828080Y-88706717D01*
X145828075Y-88706713D01*
X145823169Y-88702296D01*
X145811552Y-88695589D01*
X145795259Y-88684391D01*
X145784839Y-88675953D01*
X145725637Y-88645787D01*
X145719867Y-88642654D01*
X145668055Y-88612740D01*
X145668050Y-88612738D01*
X145662331Y-88609436D01*
X145656051Y-88607395D01*
X145656043Y-88607392D01*
X145649579Y-88605292D01*
X145631317Y-88597728D01*
X145625251Y-88594637D01*
X145625242Y-88594634D01*
X145619363Y-88591638D01*
X145598748Y-88586114D01*
X145555196Y-88574444D01*
X145548894Y-88572578D01*
X145485702Y-88552046D01*
X145472372Y-88550645D01*
X145452929Y-88547042D01*
X145439971Y-88543570D01*
X145433381Y-88543225D01*
X145433377Y-88543224D01*
X145389427Y-88540921D01*
X145373628Y-88540093D01*
X145367069Y-88539577D01*
X145347306Y-88537500D01*
X145327445Y-88537500D01*
X145320850Y-88537327D01*
X145261098Y-88534195D01*
X145261094Y-88534195D01*
X145254507Y-88533850D01*
X145241253Y-88535949D01*
X145221544Y-88537500D01*
X140866583Y-88537500D01*
X140798462Y-88517498D01*
X140751969Y-88463842D01*
X140741865Y-88393568D01*
X140771359Y-88328988D01*
X140791018Y-88310674D01*
X140819081Y-88289642D01*
X140826261Y-88284261D01*
X140913615Y-88167705D01*
X140964745Y-88031316D01*
X140971500Y-87969134D01*
X140971500Y-86872866D01*
X140964745Y-86810684D01*
X140913615Y-86674295D01*
X140826261Y-86557739D01*
X140813032Y-86547824D01*
X140770519Y-86490967D01*
X140765493Y-86420149D01*
X140799553Y-86357855D01*
X140861884Y-86323865D01*
X140888599Y-86321000D01*
X152737401Y-86321000D01*
X152805522Y-86341002D01*
X152852015Y-86394658D01*
X152862119Y-86464932D01*
X152832625Y-86529512D01*
X152812972Y-86547821D01*
X152799739Y-86557739D01*
X152712385Y-86674295D01*
X152661255Y-86810684D01*
X152654500Y-86872866D01*
X152654500Y-87969134D01*
X152661255Y-88031316D01*
X152712385Y-88167705D01*
X152799739Y-88284261D01*
X152847660Y-88320176D01*
X152890173Y-88377033D01*
X152895199Y-88447851D01*
X152861139Y-88510145D01*
X152847670Y-88521817D01*
X152799739Y-88557739D01*
X152712385Y-88674295D01*
X152661255Y-88810684D01*
X152654500Y-88872866D01*
X152654500Y-89969134D01*
X152661255Y-90031316D01*
X152712385Y-90167705D01*
X152799739Y-90284261D01*
X152847660Y-90320176D01*
X152890173Y-90377033D01*
X152895199Y-90447851D01*
X152861139Y-90510145D01*
X152847670Y-90521817D01*
X152799739Y-90557739D01*
X152712385Y-90674295D01*
X152661255Y-90810684D01*
X152654500Y-90872866D01*
X152654500Y-91969134D01*
X152661255Y-92031316D01*
X152712385Y-92167705D01*
X152799739Y-92284261D01*
X152847660Y-92320176D01*
X152890173Y-92377033D01*
X152895199Y-92447851D01*
X152861139Y-92510145D01*
X152847670Y-92521817D01*
X152799739Y-92557739D01*
X152712385Y-92674295D01*
X152661255Y-92810684D01*
X152654500Y-92872866D01*
X152654500Y-93969134D01*
X152661255Y-94031316D01*
X152712385Y-94167705D01*
X152799739Y-94284261D01*
X152847660Y-94320176D01*
X152890173Y-94377033D01*
X152895199Y-94447851D01*
X152861139Y-94510145D01*
X152847670Y-94521817D01*
X152799739Y-94557739D01*
X152712385Y-94674295D01*
X152661255Y-94810684D01*
X152654500Y-94872866D01*
X152654500Y-95969134D01*
X152661255Y-96031316D01*
X152712385Y-96167705D01*
X152799739Y-96284261D01*
X152847660Y-96320176D01*
X152890173Y-96377033D01*
X152895199Y-96447851D01*
X152861139Y-96510145D01*
X152847670Y-96521817D01*
X152799739Y-96557739D01*
X152712385Y-96674295D01*
X152661255Y-96810684D01*
X152654500Y-96872866D01*
X152654500Y-97969134D01*
X152661255Y-98031316D01*
X152712385Y-98167705D01*
X152799739Y-98284261D01*
X152847660Y-98320176D01*
X152890173Y-98377033D01*
X152895199Y-98447851D01*
X152861139Y-98510145D01*
X152847670Y-98521817D01*
X152799739Y-98557739D01*
X152712385Y-98674295D01*
X152661255Y-98810684D01*
X152654500Y-98872866D01*
X152654500Y-99969134D01*
X152661255Y-100031316D01*
X152712385Y-100167705D01*
X152799739Y-100284261D01*
X152916295Y-100371615D01*
X153052684Y-100422745D01*
X153114866Y-100429500D01*
X154332401Y-100429500D01*
X154362407Y-100434253D01*
X154362558Y-100433540D01*
X154369015Y-100434912D01*
X154375298Y-100436954D01*
X154381869Y-100437645D01*
X154381870Y-100437645D01*
X154388635Y-100438356D01*
X154408069Y-100441958D01*
X154414639Y-100443718D01*
X154414646Y-100443719D01*
X154421028Y-100445429D01*
X154427626Y-100445775D01*
X154427627Y-100445775D01*
X154487346Y-100448905D01*
X154493922Y-100449422D01*
X154513694Y-100451500D01*
X154533574Y-100451500D01*
X154540168Y-100451673D01*
X154599901Y-100454804D01*
X154599906Y-100454804D01*
X154606493Y-100455149D01*
X154619740Y-100453051D01*
X154639450Y-100451500D01*
X157200650Y-100451500D01*
X157268771Y-100471502D01*
X157289667Y-100488326D01*
X157301881Y-100500518D01*
X157318697Y-100517305D01*
X157324927Y-100521145D01*
X157324928Y-100521146D01*
X157462090Y-100605694D01*
X157469262Y-100610115D01*
X157549005Y-100636564D01*
X157630611Y-100663632D01*
X157630613Y-100663632D01*
X157637139Y-100665797D01*
X157643975Y-100666497D01*
X157643978Y-100666498D01*
X157687031Y-100670909D01*
X157741600Y-100676500D01*
X158742400Y-100676500D01*
X158745646Y-100676163D01*
X158745650Y-100676163D01*
X158841308Y-100666238D01*
X158841312Y-100666237D01*
X158848166Y-100665526D01*
X158854702Y-100663345D01*
X158854704Y-100663345D01*
X158986806Y-100619272D01*
X159015946Y-100609550D01*
X159166348Y-100516478D01*
X159175326Y-100507485D01*
X159237607Y-100473404D01*
X159308427Y-100478406D01*
X159365301Y-100520902D01*
X159390171Y-100587400D01*
X159390500Y-100596501D01*
X159390500Y-107455210D01*
X159384333Y-107494146D01*
X159380458Y-107506072D01*
X159360496Y-107696000D01*
X159380458Y-107885928D01*
X159439473Y-108067556D01*
X159534960Y-108232944D01*
X159539378Y-108237851D01*
X159539379Y-108237852D01*
X159658325Y-108369955D01*
X159662747Y-108374866D01*
X159761843Y-108446864D01*
X159802188Y-108476176D01*
X159817248Y-108487118D01*
X159823276Y-108489802D01*
X159823278Y-108489803D01*
X159985681Y-108562109D01*
X159991712Y-108564794D01*
X160085113Y-108584647D01*
X160172056Y-108603128D01*
X160172061Y-108603128D01*
X160178513Y-108604500D01*
X160369487Y-108604500D01*
X160375939Y-108603128D01*
X160375944Y-108603128D01*
X160462888Y-108584647D01*
X160556288Y-108564794D01*
X160562319Y-108562109D01*
X160724722Y-108489803D01*
X160724724Y-108489802D01*
X160730752Y-108487118D01*
X160745813Y-108476176D01*
X160786157Y-108446864D01*
X160885253Y-108374866D01*
X160889675Y-108369955D01*
X161008621Y-108237852D01*
X161008622Y-108237851D01*
X161013040Y-108232944D01*
X161108527Y-108067556D01*
X161167542Y-107885928D01*
X161187504Y-107696000D01*
X161167542Y-107506072D01*
X161163667Y-107494146D01*
X161157500Y-107455210D01*
X161157500Y-98577350D01*
X161177502Y-98509229D01*
X161194326Y-98488333D01*
X161218133Y-98464484D01*
X161223305Y-98459303D01*
X161238319Y-98434946D01*
X161312275Y-98314968D01*
X161312276Y-98314966D01*
X161316115Y-98308738D01*
X161361253Y-98172650D01*
X161401683Y-98114290D01*
X161467248Y-98087053D01*
X161537129Y-98099586D01*
X161556410Y-98111490D01*
X161620109Y-98159230D01*
X161620112Y-98159232D01*
X161627295Y-98164615D01*
X161763684Y-98215745D01*
X161825866Y-98222500D01*
X163472134Y-98222500D01*
X163534316Y-98215745D01*
X163670705Y-98164615D01*
X163787261Y-98077261D01*
X163821695Y-98031316D01*
X163846713Y-97997935D01*
X163903573Y-97955420D01*
X163947539Y-97947500D01*
X169300461Y-97947500D01*
X169368582Y-97967502D01*
X169401287Y-97997935D01*
X169426305Y-98031316D01*
X169460739Y-98077261D01*
X169577295Y-98164615D01*
X169713684Y-98215745D01*
X169775866Y-98222500D01*
X171422134Y-98222500D01*
X171484316Y-98215745D01*
X171620705Y-98164615D01*
X171737261Y-98077261D01*
X171824615Y-97960705D01*
X171875745Y-97824316D01*
X171882500Y-97762134D01*
X171882500Y-96365866D01*
X171875745Y-96303684D01*
X171824615Y-96167295D01*
X171737261Y-96050739D01*
X171620705Y-95963385D01*
X171484316Y-95912255D01*
X171422134Y-95905500D01*
X169775866Y-95905500D01*
X169713684Y-95912255D01*
X169577295Y-95963385D01*
X169460739Y-96050739D01*
X169455358Y-96057919D01*
X169455357Y-96057920D01*
X169401287Y-96130065D01*
X169344427Y-96172580D01*
X169300461Y-96180500D01*
X163947539Y-96180500D01*
X163879418Y-96160498D01*
X163846713Y-96130065D01*
X163792643Y-96057920D01*
X163792642Y-96057919D01*
X163787261Y-96050739D01*
X163670705Y-95963385D01*
X163662296Y-95960233D01*
X163662293Y-95960231D01*
X163620746Y-95944656D01*
X163563981Y-95902015D01*
X163539280Y-95835454D01*
X163554487Y-95766105D01*
X163575879Y-95737579D01*
X163905053Y-95408405D01*
X163967365Y-95374379D01*
X163994148Y-95371500D01*
X164772072Y-95371500D01*
X164840193Y-95391502D01*
X164873995Y-95425888D01*
X164874625Y-95425388D01*
X164879168Y-95431120D01*
X164883022Y-95437348D01*
X165008197Y-95562305D01*
X165014427Y-95566145D01*
X165014428Y-95566146D01*
X165151590Y-95650694D01*
X165158762Y-95655115D01*
X165238505Y-95681564D01*
X165320111Y-95708632D01*
X165320113Y-95708632D01*
X165326639Y-95710797D01*
X165333475Y-95711497D01*
X165333478Y-95711498D01*
X165376531Y-95715909D01*
X165431100Y-95721500D01*
X166206900Y-95721500D01*
X166210146Y-95721163D01*
X166210150Y-95721163D01*
X166305808Y-95711238D01*
X166305812Y-95711237D01*
X166312666Y-95710526D01*
X166319202Y-95708345D01*
X166319204Y-95708345D01*
X166451306Y-95664272D01*
X166480446Y-95654550D01*
X166630848Y-95561478D01*
X166755805Y-95436303D01*
X166831150Y-95314072D01*
X166844775Y-95291968D01*
X166844776Y-95291966D01*
X166848615Y-95285738D01*
X166875064Y-95205995D01*
X166902132Y-95124389D01*
X166902132Y-95124387D01*
X166904297Y-95117861D01*
X166915000Y-95013400D01*
X166915000Y-93962600D01*
X166914663Y-93959350D01*
X166904738Y-93863692D01*
X166904737Y-93863688D01*
X166904026Y-93856834D01*
X166901506Y-93849279D01*
X166850368Y-93696002D01*
X166848050Y-93689054D01*
X166754978Y-93538652D01*
X166629803Y-93413695D01*
X166535173Y-93355364D01*
X166485468Y-93324725D01*
X166485466Y-93324724D01*
X166479238Y-93320885D01*
X166318754Y-93267655D01*
X166317889Y-93267368D01*
X166317887Y-93267368D01*
X166311361Y-93265203D01*
X166304525Y-93264503D01*
X166304522Y-93264502D01*
X166261469Y-93260091D01*
X166206900Y-93254500D01*
X165431100Y-93254500D01*
X165427854Y-93254837D01*
X165427850Y-93254837D01*
X165332192Y-93264762D01*
X165332188Y-93264763D01*
X165325334Y-93265474D01*
X165318798Y-93267655D01*
X165318796Y-93267655D01*
X165265264Y-93285515D01*
X165157554Y-93321450D01*
X165007152Y-93414522D01*
X164882195Y-93539697D01*
X164878354Y-93545928D01*
X164873817Y-93551673D01*
X164872487Y-93550623D01*
X164826393Y-93592108D01*
X164771903Y-93604500D01*
X163655457Y-93604500D01*
X163635745Y-93602949D01*
X163629008Y-93601882D01*
X163629009Y-93601882D01*
X163622493Y-93600850D01*
X163615906Y-93601195D01*
X163615902Y-93601195D01*
X163556150Y-93604327D01*
X163549555Y-93604500D01*
X163529694Y-93604500D01*
X163509931Y-93606577D01*
X163503372Y-93607093D01*
X163487573Y-93607921D01*
X163443623Y-93610224D01*
X163443619Y-93610225D01*
X163437029Y-93610570D01*
X163424071Y-93614042D01*
X163404628Y-93617645D01*
X163391298Y-93619046D01*
X163328106Y-93639578D01*
X163321804Y-93641444D01*
X163269852Y-93655365D01*
X163257637Y-93658638D01*
X163251758Y-93661634D01*
X163251749Y-93661637D01*
X163245683Y-93664728D01*
X163227421Y-93672292D01*
X163220957Y-93674392D01*
X163220949Y-93674395D01*
X163214669Y-93676436D01*
X163208950Y-93679738D01*
X163208945Y-93679740D01*
X163157133Y-93709654D01*
X163151363Y-93712787D01*
X163092161Y-93742953D01*
X163087029Y-93747109D01*
X163081741Y-93751391D01*
X163065448Y-93762589D01*
X163053831Y-93769296D01*
X163048925Y-93773713D01*
X163048920Y-93773717D01*
X163004462Y-93813747D01*
X162999446Y-93818031D01*
X162986591Y-93828441D01*
X162984014Y-93830528D01*
X162969969Y-93844573D01*
X162965184Y-93849114D01*
X162915815Y-93893566D01*
X162907925Y-93904426D01*
X162895088Y-93919454D01*
X162104455Y-94710087D01*
X162089422Y-94722927D01*
X161948747Y-94825134D01*
X161944326Y-94830044D01*
X161944325Y-94830045D01*
X161889175Y-94891296D01*
X161820960Y-94967056D01*
X161817659Y-94972774D01*
X161730124Y-95124389D01*
X161725473Y-95132444D01*
X161666458Y-95314072D01*
X161665768Y-95320633D01*
X161665768Y-95320635D01*
X161658320Y-95391502D01*
X161646496Y-95504000D01*
X161647186Y-95510565D01*
X161662379Y-95655115D01*
X161666458Y-95693928D01*
X161668498Y-95700206D01*
X161670333Y-95705854D01*
X161676500Y-95744790D01*
X161676500Y-95863481D01*
X161656498Y-95931602D01*
X161626066Y-95964306D01*
X161619624Y-95969134D01*
X161584065Y-95995784D01*
X161517558Y-96020632D01*
X161448176Y-96005579D01*
X161397946Y-95955404D01*
X161382500Y-95894958D01*
X161382500Y-95003600D01*
X161379302Y-94972774D01*
X161372238Y-94904692D01*
X161372237Y-94904688D01*
X161371526Y-94897834D01*
X161315550Y-94730054D01*
X161222478Y-94579652D01*
X161217296Y-94574479D01*
X161217292Y-94574474D01*
X161194483Y-94551705D01*
X161160403Y-94489423D01*
X161157500Y-94462532D01*
X161157500Y-92620148D01*
X161177502Y-92552027D01*
X161194405Y-92531053D01*
X161619053Y-92106405D01*
X161681365Y-92072379D01*
X161708148Y-92069500D01*
X161724357Y-92069500D01*
X161792478Y-92089502D01*
X161819589Y-92112998D01*
X161860250Y-92159938D01*
X162032126Y-92302632D01*
X162225000Y-92415338D01*
X162229825Y-92417180D01*
X162229826Y-92417181D01*
X162281517Y-92436920D01*
X162433692Y-92495030D01*
X162438760Y-92496061D01*
X162438763Y-92496062D01*
X162507984Y-92510145D01*
X162652597Y-92539567D01*
X162657772Y-92539757D01*
X162657774Y-92539757D01*
X162870673Y-92547564D01*
X162870677Y-92547564D01*
X162875837Y-92547753D01*
X162880957Y-92547097D01*
X162880959Y-92547097D01*
X163092288Y-92520025D01*
X163092289Y-92520025D01*
X163097416Y-92519368D01*
X163128158Y-92510145D01*
X163306429Y-92456661D01*
X163306434Y-92456659D01*
X163311384Y-92455174D01*
X163511994Y-92356896D01*
X163693860Y-92227173D01*
X163852096Y-92069489D01*
X163982453Y-91888077D01*
X163983776Y-91889028D01*
X164030645Y-91845857D01*
X164100580Y-91833625D01*
X164166026Y-91861144D01*
X164193875Y-91892994D01*
X164253987Y-91991088D01*
X164400250Y-92159938D01*
X164572126Y-92302632D01*
X164765000Y-92415338D01*
X164769825Y-92417180D01*
X164769826Y-92417181D01*
X164821517Y-92436920D01*
X164973692Y-92495030D01*
X164978760Y-92496061D01*
X164978763Y-92496062D01*
X165047984Y-92510145D01*
X165192597Y-92539567D01*
X165197772Y-92539757D01*
X165197774Y-92539757D01*
X165410673Y-92547564D01*
X165410677Y-92547564D01*
X165415837Y-92547753D01*
X165420957Y-92547097D01*
X165420959Y-92547097D01*
X165632288Y-92520025D01*
X165632289Y-92520025D01*
X165637416Y-92519368D01*
X165668158Y-92510145D01*
X165846429Y-92456661D01*
X165846434Y-92456659D01*
X165851384Y-92455174D01*
X166051994Y-92356896D01*
X166233860Y-92227173D01*
X166392096Y-92069489D01*
X166522453Y-91888077D01*
X166523776Y-91889028D01*
X166570645Y-91845857D01*
X166640580Y-91833625D01*
X166706026Y-91861144D01*
X166733875Y-91892994D01*
X166793987Y-91991088D01*
X166940250Y-92159938D01*
X167112126Y-92302632D01*
X167305000Y-92415338D01*
X167309825Y-92417180D01*
X167309826Y-92417181D01*
X167361517Y-92436920D01*
X167513692Y-92495030D01*
X167518760Y-92496061D01*
X167518763Y-92496062D01*
X167587984Y-92510145D01*
X167732597Y-92539567D01*
X167737772Y-92539757D01*
X167737774Y-92539757D01*
X167950673Y-92547564D01*
X167950677Y-92547564D01*
X167955837Y-92547753D01*
X167960957Y-92547097D01*
X167960959Y-92547097D01*
X168172288Y-92520025D01*
X168172289Y-92520025D01*
X168177416Y-92519368D01*
X168208158Y-92510145D01*
X168386429Y-92456661D01*
X168386434Y-92456659D01*
X168391384Y-92455174D01*
X168591994Y-92356896D01*
X168773860Y-92227173D01*
X168932096Y-92069489D01*
X169062453Y-91888077D01*
X169074920Y-91862853D01*
X169159136Y-91692453D01*
X169159137Y-91692451D01*
X169161430Y-91687811D01*
X169226370Y-91474069D01*
X169255529Y-91252590D01*
X169255667Y-91246951D01*
X169257074Y-91189365D01*
X169257074Y-91189351D01*
X169257156Y-91186000D01*
X169238852Y-90963361D01*
X169184431Y-90746702D01*
X169095354Y-90541840D01*
X169000395Y-90395056D01*
X168976822Y-90358617D01*
X168976820Y-90358614D01*
X168974014Y-90354277D01*
X168823670Y-90189051D01*
X168819612Y-90185846D01*
X168817572Y-90183944D01*
X168781391Y-90122859D01*
X168777500Y-90091790D01*
X168777500Y-89233457D01*
X168779051Y-89213745D01*
X168780118Y-89207008D01*
X168781150Y-89200493D01*
X168777673Y-89134150D01*
X168777500Y-89127555D01*
X168777500Y-89107694D01*
X168775423Y-89087931D01*
X168774907Y-89081367D01*
X168771776Y-89021623D01*
X168771775Y-89021619D01*
X168771430Y-89015029D01*
X168767958Y-89002071D01*
X168764355Y-88982628D01*
X168763644Y-88975866D01*
X168762954Y-88969298D01*
X168742422Y-88906106D01*
X168740556Y-88899804D01*
X168725071Y-88842015D01*
X168723362Y-88835637D01*
X168720366Y-88829758D01*
X168720363Y-88829749D01*
X168717272Y-88823683D01*
X168709708Y-88805421D01*
X168707608Y-88798957D01*
X168707605Y-88798949D01*
X168705564Y-88792669D01*
X168702262Y-88786950D01*
X168702260Y-88786945D01*
X168672346Y-88735133D01*
X168669213Y-88729363D01*
X168639047Y-88670161D01*
X168630609Y-88659741D01*
X168619411Y-88643448D01*
X168619209Y-88643097D01*
X168612704Y-88631831D01*
X168608287Y-88626925D01*
X168608283Y-88626920D01*
X168568253Y-88582462D01*
X168563969Y-88577446D01*
X168553559Y-88564591D01*
X168553556Y-88564588D01*
X168551472Y-88562014D01*
X168537427Y-88547969D01*
X168532886Y-88543184D01*
X168492856Y-88498726D01*
X168492855Y-88498725D01*
X168488434Y-88493815D01*
X168477574Y-88485925D01*
X168462546Y-88473088D01*
X166841912Y-86852454D01*
X166829075Y-86837426D01*
X166821185Y-86826566D01*
X166771816Y-86782114D01*
X166767031Y-86777573D01*
X166752986Y-86763528D01*
X166750409Y-86761441D01*
X166737554Y-86751031D01*
X166732538Y-86746747D01*
X166688080Y-86706717D01*
X166688075Y-86706713D01*
X166683169Y-86702296D01*
X166671552Y-86695589D01*
X166655259Y-86684391D01*
X166644839Y-86675953D01*
X166585637Y-86645787D01*
X166579867Y-86642654D01*
X166528055Y-86612740D01*
X166528050Y-86612738D01*
X166522331Y-86609436D01*
X166516051Y-86607395D01*
X166516043Y-86607392D01*
X166509579Y-86605292D01*
X166491317Y-86597728D01*
X166485251Y-86594637D01*
X166485242Y-86594634D01*
X166479363Y-86591638D01*
X166434751Y-86579684D01*
X166415196Y-86574444D01*
X166408884Y-86572575D01*
X166391212Y-86566833D01*
X166332608Y-86526762D01*
X166304970Y-86461366D01*
X166317075Y-86391408D01*
X166365080Y-86339101D01*
X166430148Y-86321000D01*
X169813000Y-86321000D01*
X169813000Y-82676000D01*
X169833002Y-82607879D01*
X169886658Y-82561386D01*
X169939000Y-82550000D01*
X172085500Y-82550000D01*
X172153621Y-82570002D01*
G37*
G04 #@! TD.AperFunction*
G04 #@! TA.AperFunction,Conductor*
G36*
X133966012Y-92913211D02*
G01*
X133972516Y-92919260D01*
X134050697Y-92997305D01*
X134201262Y-93090115D01*
X134281005Y-93116564D01*
X134362611Y-93143632D01*
X134362613Y-93143632D01*
X134369139Y-93145797D01*
X134375975Y-93146497D01*
X134375978Y-93146498D01*
X134419031Y-93150909D01*
X134473600Y-93156500D01*
X135274400Y-93156500D01*
X135277646Y-93156163D01*
X135277650Y-93156163D01*
X135306001Y-93153221D01*
X135365784Y-93147018D01*
X135435603Y-93159882D01*
X135487385Y-93208453D01*
X135504688Y-93277309D01*
X135504096Y-93285515D01*
X135484496Y-93472000D01*
X135485186Y-93478565D01*
X135499240Y-93612278D01*
X135504458Y-93661928D01*
X135563473Y-93843556D01*
X135566776Y-93849278D01*
X135566777Y-93849279D01*
X135589793Y-93889144D01*
X135658960Y-94008944D01*
X135663378Y-94013851D01*
X135663379Y-94013852D01*
X135776697Y-94139704D01*
X135786747Y-94150866D01*
X135941248Y-94263118D01*
X135947276Y-94265802D01*
X135947278Y-94265803D01*
X136039319Y-94306782D01*
X136115712Y-94340794D01*
X136209113Y-94360647D01*
X136296056Y-94379128D01*
X136296061Y-94379128D01*
X136302513Y-94380500D01*
X136493487Y-94380500D01*
X136499939Y-94379128D01*
X136499944Y-94379128D01*
X136586887Y-94360647D01*
X136680288Y-94340794D01*
X136737340Y-94315393D01*
X136788589Y-94304500D01*
X137559417Y-94304500D01*
X137627538Y-94324502D01*
X137674031Y-94378158D01*
X137684135Y-94448432D01*
X137654641Y-94513012D01*
X137634983Y-94531325D01*
X137599739Y-94557739D01*
X137512385Y-94674295D01*
X137461255Y-94810684D01*
X137454500Y-94872866D01*
X137454500Y-95969134D01*
X137461255Y-96031316D01*
X137512385Y-96167705D01*
X137599739Y-96284261D01*
X137647660Y-96320176D01*
X137690173Y-96377033D01*
X137695199Y-96447851D01*
X137661139Y-96510145D01*
X137647670Y-96521817D01*
X137599739Y-96557739D01*
X137512385Y-96674295D01*
X137461255Y-96810684D01*
X137454500Y-96872866D01*
X137454500Y-97969134D01*
X137461255Y-98031316D01*
X137512385Y-98167705D01*
X137599739Y-98284261D01*
X137647660Y-98320176D01*
X137690173Y-98377033D01*
X137695199Y-98447851D01*
X137661139Y-98510145D01*
X137647670Y-98521817D01*
X137599739Y-98557739D01*
X137512385Y-98674295D01*
X137461255Y-98810684D01*
X137454500Y-98872866D01*
X137454500Y-99969134D01*
X137461255Y-100031316D01*
X137512385Y-100167705D01*
X137599739Y-100284261D01*
X137606919Y-100289642D01*
X137634982Y-100310674D01*
X137677497Y-100367533D01*
X137682523Y-100438351D01*
X137648463Y-100500645D01*
X137586132Y-100534635D01*
X137559417Y-100537500D01*
X136756444Y-100537500D01*
X136688323Y-100517498D01*
X136667426Y-100500673D01*
X136589483Y-100422866D01*
X136584303Y-100417695D01*
X136562053Y-100403980D01*
X136439968Y-100328725D01*
X136439966Y-100328724D01*
X136433738Y-100324885D01*
X136273254Y-100271655D01*
X136272389Y-100271368D01*
X136272387Y-100271368D01*
X136265861Y-100269203D01*
X136259025Y-100268503D01*
X136259022Y-100268502D01*
X136215969Y-100264091D01*
X136161400Y-100258500D01*
X135110600Y-100258500D01*
X135107354Y-100258837D01*
X135107350Y-100258837D01*
X135011692Y-100268762D01*
X135011688Y-100268763D01*
X135004834Y-100269474D01*
X134998298Y-100271655D01*
X134998296Y-100271655D01*
X134891261Y-100307365D01*
X134837054Y-100325450D01*
X134686652Y-100418522D01*
X134616970Y-100488326D01*
X134604799Y-100500518D01*
X134542517Y-100534597D01*
X134515626Y-100537500D01*
X134216444Y-100537500D01*
X134148323Y-100517498D01*
X134127426Y-100500673D01*
X134049483Y-100422866D01*
X134044303Y-100417695D01*
X134022053Y-100403980D01*
X133899968Y-100328725D01*
X133899966Y-100328724D01*
X133893738Y-100324885D01*
X133843832Y-100308332D01*
X133785473Y-100267901D01*
X133758236Y-100202337D01*
X133757500Y-100188739D01*
X133757500Y-93008435D01*
X133777502Y-92940314D01*
X133831158Y-92893821D01*
X133901432Y-92883717D01*
X133966012Y-92913211D01*
G37*
G04 #@! TD.AperFunction*
G04 #@! TA.AperFunction,Conductor*
G36*
X144950973Y-90324502D02*
G01*
X144971947Y-90341405D01*
X147923595Y-93293052D01*
X147957621Y-93355364D01*
X147960500Y-93382147D01*
X147960500Y-98654852D01*
X147940498Y-98722973D01*
X147886842Y-98769466D01*
X147816568Y-98779570D01*
X147751988Y-98750076D01*
X147745405Y-98743947D01*
X143853912Y-94852454D01*
X143841075Y-94837426D01*
X143833185Y-94826566D01*
X143783816Y-94782114D01*
X143779031Y-94777573D01*
X143764986Y-94763528D01*
X143762409Y-94761441D01*
X143749554Y-94751031D01*
X143744538Y-94746747D01*
X143700080Y-94706717D01*
X143700075Y-94706713D01*
X143695169Y-94702296D01*
X143683552Y-94695589D01*
X143667259Y-94684391D01*
X143656839Y-94675953D01*
X143597637Y-94645787D01*
X143591867Y-94642654D01*
X143540055Y-94612740D01*
X143540050Y-94612738D01*
X143534331Y-94609436D01*
X143528051Y-94607395D01*
X143528043Y-94607392D01*
X143521579Y-94605292D01*
X143503317Y-94597728D01*
X143497251Y-94594637D01*
X143497242Y-94594634D01*
X143491363Y-94591638D01*
X143469874Y-94585880D01*
X143427196Y-94574444D01*
X143420894Y-94572578D01*
X143357702Y-94552046D01*
X143344372Y-94550645D01*
X143324929Y-94547042D01*
X143311971Y-94543570D01*
X143305381Y-94543225D01*
X143305377Y-94543224D01*
X143261427Y-94540921D01*
X143245628Y-94540093D01*
X143239069Y-94539577D01*
X143219306Y-94537500D01*
X143199445Y-94537500D01*
X143192850Y-94537327D01*
X143133098Y-94534195D01*
X143133094Y-94534195D01*
X143126507Y-94533850D01*
X143113253Y-94535949D01*
X143093544Y-94537500D01*
X140866583Y-94537500D01*
X140798462Y-94517498D01*
X140751969Y-94463842D01*
X140741865Y-94393568D01*
X140771359Y-94328988D01*
X140791018Y-94310674D01*
X140819081Y-94289642D01*
X140826261Y-94284261D01*
X140913615Y-94167705D01*
X140964745Y-94031316D01*
X140971500Y-93969134D01*
X140971500Y-92872866D01*
X140964745Y-92810684D01*
X140913615Y-92674295D01*
X140826261Y-92557739D01*
X140778340Y-92521824D01*
X140735827Y-92464967D01*
X140730801Y-92394149D01*
X140764861Y-92331855D01*
X140778330Y-92320183D01*
X140826261Y-92284261D01*
X140913615Y-92167705D01*
X140964745Y-92031316D01*
X140971500Y-91969134D01*
X140971500Y-90872866D01*
X140964745Y-90810684D01*
X140913615Y-90674295D01*
X140826261Y-90557739D01*
X140791018Y-90531326D01*
X140748503Y-90474467D01*
X140743477Y-90403649D01*
X140777537Y-90341355D01*
X140839868Y-90307365D01*
X140866583Y-90304500D01*
X144882852Y-90304500D01*
X144950973Y-90324502D01*
G37*
G04 #@! TD.AperFunction*
M02*
