G04 #@! TF.GenerationSoftware,KiCad,Pcbnew,6.0.10*
G04 #@! TF.CreationDate,2023-04-28T22:54:55-05:00*
G04 #@! TF.ProjectId,base,62617365-2e6b-4696-9361-645f70636258,rev?*
G04 #@! TF.SameCoordinates,Original*
G04 #@! TF.FileFunction,Soldermask,Top*
G04 #@! TF.FilePolarity,Negative*
%FSLAX46Y46*%
G04 Gerber Fmt 4.6, Leading zero omitted, Abs format (unit mm)*
G04 Created by KiCad (PCBNEW 6.0.10) date 2023-04-28 22:54:55*
%MOMM*%
%LPD*%
G01*
G04 APERTURE LIST*
G04 Aperture macros list*
%AMRoundRect*
0 Rectangle with rounded corners*
0 $1 Rounding radius*
0 $2 $3 $4 $5 $6 $7 $8 $9 X,Y pos of 4 corners*
0 Add a 4 corners polygon primitive as box body*
4,1,4,$2,$3,$4,$5,$6,$7,$8,$9,$2,$3,0*
0 Add four circle primitives for the rounded corners*
1,1,$1+$1,$2,$3*
1,1,$1+$1,$4,$5*
1,1,$1+$1,$6,$7*
1,1,$1+$1,$8,$9*
0 Add four rect primitives between the rounded corners*
20,1,$1+$1,$2,$3,$4,$5,0*
20,1,$1+$1,$4,$5,$6,$7,0*
20,1,$1+$1,$6,$7,$8,$9,0*
20,1,$1+$1,$8,$9,$2,$3,0*%
G04 Aperture macros list end*
%ADD10RoundRect,0.250000X0.350000X0.450000X-0.350000X0.450000X-0.350000X-0.450000X0.350000X-0.450000X0*%
%ADD11RoundRect,0.250000X0.337500X0.475000X-0.337500X0.475000X-0.337500X-0.475000X0.337500X-0.475000X0*%
%ADD12RoundRect,0.250000X0.475000X-0.337500X0.475000X0.337500X-0.475000X0.337500X-0.475000X-0.337500X0*%
%ADD13RoundRect,0.250000X-0.337500X-0.475000X0.337500X-0.475000X0.337500X0.475000X-0.337500X0.475000X0*%
%ADD14R,1.700000X1.700000*%
%ADD15O,1.700000X1.700000*%
%ADD16R,1.550000X1.300000*%
%ADD17R,1.300000X1.550000*%
%ADD18RoundRect,0.250000X-0.350000X-0.450000X0.350000X-0.450000X0.350000X0.450000X-0.350000X0.450000X0*%
%ADD19RoundRect,0.250000X-0.450000X0.350000X-0.450000X-0.350000X0.450000X-0.350000X0.450000X0.350000X0*%
%ADD20R,1.270000X3.600000*%
%ADD21R,1.350000X4.200000*%
%ADD22RoundRect,0.250000X0.450000X-0.350000X0.450000X0.350000X-0.450000X0.350000X-0.450000X-0.350000X0*%
%ADD23R,1.500000X2.000000*%
%ADD24R,1.200000X2.200000*%
%ADD25R,5.800000X6.400000*%
%ADD26R,3.500000X3.500000*%
%ADD27RoundRect,0.750000X0.750000X1.000000X-0.750000X1.000000X-0.750000X-1.000000X0.750000X-1.000000X0*%
%ADD28RoundRect,0.875000X0.875000X0.875000X-0.875000X0.875000X-0.875000X-0.875000X0.875000X-0.875000X0*%
%ADD29RoundRect,0.250000X-0.475000X0.337500X-0.475000X-0.337500X0.475000X-0.337500X0.475000X0.337500X0*%
%ADD30R,2.500000X1.000000*%
G04 APERTURE END LIST*
D10*
X159512000Y-110490000D03*
X157512000Y-110490000D03*
D11*
X165608000Y-116586000D03*
X163533000Y-116586000D03*
D12*
X135636000Y-103429500D03*
X135636000Y-101354500D03*
D13*
X126449000Y-98552000D03*
X128524000Y-98552000D03*
D14*
X170434000Y-91186000D03*
D15*
X167894000Y-91186000D03*
X165354000Y-91186000D03*
X162814000Y-91186000D03*
D16*
X170599000Y-97064000D03*
X162649000Y-97064000D03*
X162649000Y-101564000D03*
X170599000Y-101564000D03*
D17*
X125766000Y-87465000D03*
X125766000Y-95415000D03*
X130266000Y-95415000D03*
X130266000Y-87465000D03*
D10*
X160274000Y-95504000D03*
X158274000Y-95504000D03*
D18*
X168180000Y-116586000D03*
X170180000Y-116586000D03*
X132874000Y-91948000D03*
X134874000Y-91948000D03*
D12*
X133096000Y-103429500D03*
X133096000Y-101354500D03*
D19*
X158242000Y-99568000D03*
X158242000Y-101568000D03*
D13*
X165819000Y-94488000D03*
X167894000Y-94488000D03*
D20*
X139192000Y-133967500D03*
D21*
X142017000Y-133767500D03*
X136367000Y-133767500D03*
D22*
X170688000Y-120872000D03*
X170688000Y-118872000D03*
D12*
X146050000Y-133604000D03*
X146050000Y-131529000D03*
D10*
X160274000Y-97536000D03*
X158274000Y-97536000D03*
D22*
X132842000Y-89630000D03*
X132842000Y-87630000D03*
D23*
X139304000Y-126872000D03*
X141304000Y-126872000D03*
X143304000Y-126872000D03*
X145304000Y-126872000D03*
X147304000Y-126872000D03*
X149304000Y-126872000D03*
X151304000Y-126872000D03*
X153304000Y-126872000D03*
X153304000Y-110872000D03*
X151304000Y-110872000D03*
X149304000Y-110872000D03*
X147304000Y-110872000D03*
X145304000Y-110872000D03*
X143304000Y-110872000D03*
X141304000Y-110872000D03*
X139304000Y-110872000D03*
D24*
X168141000Y-119073000D03*
D25*
X165861000Y-125373000D03*
D24*
X163581000Y-119073000D03*
D26*
X163576000Y-110490000D03*
D27*
X169576000Y-110490000D03*
D28*
X166576000Y-105790000D03*
D12*
X148336000Y-133625500D03*
X148336000Y-131550500D03*
D29*
X160782000Y-120628500D03*
X160782000Y-122703500D03*
D10*
X157480000Y-107696000D03*
X155480000Y-107696000D03*
D30*
X139213000Y-87421000D03*
X139213000Y-89421000D03*
X139213000Y-91421000D03*
X139213000Y-93421000D03*
X139213000Y-95421000D03*
X139213000Y-97421000D03*
X139213000Y-99421000D03*
X139213000Y-101421000D03*
X154413000Y-101421000D03*
X154413000Y-99421000D03*
X154413000Y-97421000D03*
X154413000Y-95421000D03*
X154413000Y-93421000D03*
X154413000Y-91421000D03*
X154413000Y-89421000D03*
X154413000Y-87421000D03*
M02*
