G04 #@! TF.GenerationSoftware,KiCad,Pcbnew,6.0.10*
G04 #@! TF.CreationDate,2023-04-28T22:54:55-05:00*
G04 #@! TF.ProjectId,base,62617365-2e6b-4696-9361-645f70636258,rev?*
G04 #@! TF.SameCoordinates,Original*
G04 #@! TF.FileFunction,Legend,Top*
G04 #@! TF.FilePolarity,Positive*
%FSLAX46Y46*%
G04 Gerber Fmt 4.6, Leading zero omitted, Abs format (unit mm)*
G04 Created by KiCad (PCBNEW 6.0.10) date 2023-04-28 22:54:55*
%MOMM*%
%LPD*%
G01*
G04 APERTURE LIST*
G04 Aperture macros list*
%AMRoundRect*
0 Rectangle with rounded corners*
0 $1 Rounding radius*
0 $2 $3 $4 $5 $6 $7 $8 $9 X,Y pos of 4 corners*
0 Add a 4 corners polygon primitive as box body*
4,1,4,$2,$3,$4,$5,$6,$7,$8,$9,$2,$3,0*
0 Add four circle primitives for the rounded corners*
1,1,$1+$1,$2,$3*
1,1,$1+$1,$4,$5*
1,1,$1+$1,$6,$7*
1,1,$1+$1,$8,$9*
0 Add four rect primitives between the rounded corners*
20,1,$1+$1,$2,$3,$4,$5,0*
20,1,$1+$1,$4,$5,$6,$7,0*
20,1,$1+$1,$6,$7,$8,$9,0*
20,1,$1+$1,$8,$9,$2,$3,0*%
G04 Aperture macros list end*
%ADD10C,0.150000*%
%ADD11C,0.120000*%
%ADD12RoundRect,0.250000X0.350000X0.450000X-0.350000X0.450000X-0.350000X-0.450000X0.350000X-0.450000X0*%
%ADD13RoundRect,0.250000X0.337500X0.475000X-0.337500X0.475000X-0.337500X-0.475000X0.337500X-0.475000X0*%
%ADD14RoundRect,0.250000X0.475000X-0.337500X0.475000X0.337500X-0.475000X0.337500X-0.475000X-0.337500X0*%
%ADD15RoundRect,0.250000X-0.337500X-0.475000X0.337500X-0.475000X0.337500X0.475000X-0.337500X0.475000X0*%
%ADD16R,1.700000X1.700000*%
%ADD17O,1.700000X1.700000*%
%ADD18R,1.550000X1.300000*%
%ADD19R,1.300000X1.550000*%
%ADD20RoundRect,0.250000X-0.350000X-0.450000X0.350000X-0.450000X0.350000X0.450000X-0.350000X0.450000X0*%
%ADD21RoundRect,0.250000X-0.450000X0.350000X-0.450000X-0.350000X0.450000X-0.350000X0.450000X0.350000X0*%
%ADD22R,1.270000X3.600000*%
%ADD23R,1.350000X4.200000*%
%ADD24RoundRect,0.250000X0.450000X-0.350000X0.450000X0.350000X-0.450000X0.350000X-0.450000X-0.350000X0*%
%ADD25R,1.500000X2.000000*%
%ADD26R,1.200000X2.200000*%
%ADD27R,5.800000X6.400000*%
%ADD28R,3.500000X3.500000*%
%ADD29RoundRect,0.750000X0.750000X1.000000X-0.750000X1.000000X-0.750000X-1.000000X0.750000X-1.000000X0*%
%ADD30RoundRect,0.875000X0.875000X0.875000X-0.875000X0.875000X-0.875000X-0.875000X0.875000X-0.875000X0*%
%ADD31RoundRect,0.250000X-0.475000X0.337500X-0.475000X-0.337500X0.475000X-0.337500X0.475000X0.337500X0*%
%ADD32R,2.500000X1.000000*%
G04 APERTURE END LIST*
D10*
X158345333Y-112592380D02*
X158012000Y-112116190D01*
X157773904Y-112592380D02*
X157773904Y-111592380D01*
X158154857Y-111592380D01*
X158250095Y-111640000D01*
X158297714Y-111687619D01*
X158345333Y-111782857D01*
X158345333Y-111925714D01*
X158297714Y-112020952D01*
X158250095Y-112068571D01*
X158154857Y-112116190D01*
X157773904Y-112116190D01*
X158678666Y-111592380D02*
X159345333Y-111592380D01*
X158916761Y-112592380D01*
X161123333Y-116689142D02*
X161075714Y-116736761D01*
X160932857Y-116784380D01*
X160837619Y-116784380D01*
X160694761Y-116736761D01*
X160599523Y-116641523D01*
X160551904Y-116546285D01*
X160504285Y-116355809D01*
X160504285Y-116212952D01*
X160551904Y-116022476D01*
X160599523Y-115927238D01*
X160694761Y-115832000D01*
X160837619Y-115784380D01*
X160932857Y-115784380D01*
X161075714Y-115832000D01*
X161123333Y-115879619D01*
X161980476Y-115784380D02*
X161790000Y-115784380D01*
X161694761Y-115832000D01*
X161647142Y-115879619D01*
X161551904Y-116022476D01*
X161504285Y-116212952D01*
X161504285Y-116593904D01*
X161551904Y-116689142D01*
X161599523Y-116736761D01*
X161694761Y-116784380D01*
X161885238Y-116784380D01*
X161980476Y-116736761D01*
X162028095Y-116689142D01*
X162075714Y-116593904D01*
X162075714Y-116355809D01*
X162028095Y-116260571D01*
X161980476Y-116212952D01*
X161885238Y-116165333D01*
X161694761Y-116165333D01*
X161599523Y-116212952D01*
X161551904Y-116260571D01*
X161504285Y-116355809D01*
X135739142Y-99480666D02*
X135786761Y-99528285D01*
X135834380Y-99671142D01*
X135834380Y-99766380D01*
X135786761Y-99909238D01*
X135691523Y-100004476D01*
X135596285Y-100052095D01*
X135405809Y-100099714D01*
X135262952Y-100099714D01*
X135072476Y-100052095D01*
X134977238Y-100004476D01*
X134882000Y-99909238D01*
X134834380Y-99766380D01*
X134834380Y-99671142D01*
X134882000Y-99528285D01*
X134929619Y-99480666D01*
X135834380Y-98528285D02*
X135834380Y-99099714D01*
X135834380Y-98814000D02*
X134834380Y-98814000D01*
X134977238Y-98909238D01*
X135072476Y-99004476D01*
X135120095Y-99099714D01*
X127319833Y-100941142D02*
X127272214Y-100988761D01*
X127129357Y-101036380D01*
X127034119Y-101036380D01*
X126891261Y-100988761D01*
X126796023Y-100893523D01*
X126748404Y-100798285D01*
X126700785Y-100607809D01*
X126700785Y-100464952D01*
X126748404Y-100274476D01*
X126796023Y-100179238D01*
X126891261Y-100084000D01*
X127034119Y-100036380D01*
X127129357Y-100036380D01*
X127272214Y-100084000D01*
X127319833Y-100131619D01*
X127891261Y-100464952D02*
X127796023Y-100417333D01*
X127748404Y-100369714D01*
X127700785Y-100274476D01*
X127700785Y-100226857D01*
X127748404Y-100131619D01*
X127796023Y-100084000D01*
X127891261Y-100036380D01*
X128081738Y-100036380D01*
X128176976Y-100084000D01*
X128224595Y-100131619D01*
X128272214Y-100226857D01*
X128272214Y-100274476D01*
X128224595Y-100369714D01*
X128176976Y-100417333D01*
X128081738Y-100464952D01*
X127891261Y-100464952D01*
X127796023Y-100512571D01*
X127748404Y-100560190D01*
X127700785Y-100655428D01*
X127700785Y-100845904D01*
X127748404Y-100941142D01*
X127796023Y-100988761D01*
X127891261Y-101036380D01*
X128081738Y-101036380D01*
X128176976Y-100988761D01*
X128224595Y-100941142D01*
X128272214Y-100845904D01*
X128272214Y-100655428D01*
X128224595Y-100560190D01*
X128176976Y-100512571D01*
X128081738Y-100464952D01*
X159218380Y-91519333D02*
X159932666Y-91519333D01*
X160075523Y-91566952D01*
X160170761Y-91662190D01*
X160218380Y-91805047D01*
X160218380Y-91900285D01*
X159218380Y-91138380D02*
X159218380Y-90519333D01*
X159599333Y-90852666D01*
X159599333Y-90709809D01*
X159646952Y-90614571D01*
X159694571Y-90566952D01*
X159789809Y-90519333D01*
X160027904Y-90519333D01*
X160123142Y-90566952D01*
X160170761Y-90614571D01*
X160218380Y-90709809D01*
X160218380Y-90995523D01*
X160170761Y-91090761D01*
X160123142Y-91138380D01*
X161480666Y-103782761D02*
X161623523Y-103830380D01*
X161861619Y-103830380D01*
X161956857Y-103782761D01*
X162004476Y-103735142D01*
X162052095Y-103639904D01*
X162052095Y-103544666D01*
X162004476Y-103449428D01*
X161956857Y-103401809D01*
X161861619Y-103354190D01*
X161671142Y-103306571D01*
X161575904Y-103258952D01*
X161528285Y-103211333D01*
X161480666Y-103116095D01*
X161480666Y-103020857D01*
X161528285Y-102925619D01*
X161575904Y-102878000D01*
X161671142Y-102830380D01*
X161909238Y-102830380D01*
X162052095Y-102878000D01*
X162385428Y-102830380D02*
X162623523Y-103830380D01*
X162814000Y-103116095D01*
X163004476Y-103830380D01*
X163242571Y-102830380D01*
X163575904Y-102925619D02*
X163623523Y-102878000D01*
X163718761Y-102830380D01*
X163956857Y-102830380D01*
X164052095Y-102878000D01*
X164099714Y-102925619D01*
X164147333Y-103020857D01*
X164147333Y-103116095D01*
X164099714Y-103258952D01*
X163528285Y-103830380D01*
X164147333Y-103830380D01*
X124370761Y-92773333D02*
X124418380Y-92630476D01*
X124418380Y-92392380D01*
X124370761Y-92297142D01*
X124323142Y-92249523D01*
X124227904Y-92201904D01*
X124132666Y-92201904D01*
X124037428Y-92249523D01*
X123989809Y-92297142D01*
X123942190Y-92392380D01*
X123894571Y-92582857D01*
X123846952Y-92678095D01*
X123799333Y-92725714D01*
X123704095Y-92773333D01*
X123608857Y-92773333D01*
X123513619Y-92725714D01*
X123466000Y-92678095D01*
X123418380Y-92582857D01*
X123418380Y-92344761D01*
X123466000Y-92201904D01*
X123418380Y-91868571D02*
X124418380Y-91630476D01*
X123704095Y-91440000D01*
X124418380Y-91249523D01*
X123418380Y-91011428D01*
X124418380Y-90106666D02*
X124418380Y-90678095D01*
X124418380Y-90392380D02*
X123418380Y-90392380D01*
X123561238Y-90487619D01*
X123656476Y-90582857D01*
X123704095Y-90678095D01*
X159107333Y-94178380D02*
X158774000Y-93702190D01*
X158535904Y-94178380D02*
X158535904Y-93178380D01*
X158916857Y-93178380D01*
X159012095Y-93226000D01*
X159059714Y-93273619D01*
X159107333Y-93368857D01*
X159107333Y-93511714D01*
X159059714Y-93606952D01*
X159012095Y-93654571D01*
X158916857Y-93702190D01*
X158535904Y-93702190D01*
X159964476Y-93511714D02*
X159964476Y-94178380D01*
X159726380Y-93130761D02*
X159488285Y-93845047D01*
X160107333Y-93845047D01*
X172156380Y-116752666D02*
X171680190Y-117086000D01*
X172156380Y-117324095D02*
X171156380Y-117324095D01*
X171156380Y-116943142D01*
X171204000Y-116847904D01*
X171251619Y-116800285D01*
X171346857Y-116752666D01*
X171489714Y-116752666D01*
X171584952Y-116800285D01*
X171632571Y-116847904D01*
X171680190Y-116943142D01*
X171680190Y-117324095D01*
X171156380Y-115895523D02*
X171156380Y-116086000D01*
X171204000Y-116181238D01*
X171251619Y-116228857D01*
X171394476Y-116324095D01*
X171584952Y-116371714D01*
X171965904Y-116371714D01*
X172061142Y-116324095D01*
X172108761Y-116276476D01*
X172156380Y-116181238D01*
X172156380Y-115990761D01*
X172108761Y-115895523D01*
X172061142Y-115847904D01*
X171965904Y-115800285D01*
X171727809Y-115800285D01*
X171632571Y-115847904D01*
X171584952Y-115895523D01*
X171537333Y-115990761D01*
X171537333Y-116181238D01*
X171584952Y-116276476D01*
X171632571Y-116324095D01*
X171727809Y-116371714D01*
X133437333Y-94178380D02*
X133104000Y-93702190D01*
X132865904Y-94178380D02*
X132865904Y-93178380D01*
X133246857Y-93178380D01*
X133342095Y-93226000D01*
X133389714Y-93273619D01*
X133437333Y-93368857D01*
X133437333Y-93511714D01*
X133389714Y-93606952D01*
X133342095Y-93654571D01*
X133246857Y-93702190D01*
X132865904Y-93702190D01*
X133770666Y-93178380D02*
X134389714Y-93178380D01*
X134056380Y-93559333D01*
X134199238Y-93559333D01*
X134294476Y-93606952D01*
X134342095Y-93654571D01*
X134389714Y-93749809D01*
X134389714Y-93987904D01*
X134342095Y-94083142D01*
X134294476Y-94130761D01*
X134199238Y-94178380D01*
X133913523Y-94178380D01*
X133818285Y-94130761D01*
X133770666Y-94083142D01*
X133453142Y-99480666D02*
X133500761Y-99528285D01*
X133548380Y-99671142D01*
X133548380Y-99766380D01*
X133500761Y-99909238D01*
X133405523Y-100004476D01*
X133310285Y-100052095D01*
X133119809Y-100099714D01*
X132976952Y-100099714D01*
X132786476Y-100052095D01*
X132691238Y-100004476D01*
X132596000Y-99909238D01*
X132548380Y-99766380D01*
X132548380Y-99671142D01*
X132596000Y-99528285D01*
X132643619Y-99480666D01*
X132548380Y-99147333D02*
X132548380Y-98528285D01*
X132929333Y-98861619D01*
X132929333Y-98718761D01*
X132976952Y-98623523D01*
X133024571Y-98575904D01*
X133119809Y-98528285D01*
X133357904Y-98528285D01*
X133453142Y-98575904D01*
X133500761Y-98623523D01*
X133548380Y-98718761D01*
X133548380Y-99004476D01*
X133500761Y-99099714D01*
X133453142Y-99147333D01*
X158948380Y-103798666D02*
X158472190Y-104132000D01*
X158948380Y-104370095D02*
X157948380Y-104370095D01*
X157948380Y-103989142D01*
X157996000Y-103893904D01*
X158043619Y-103846285D01*
X158138857Y-103798666D01*
X158281714Y-103798666D01*
X158376952Y-103846285D01*
X158424571Y-103893904D01*
X158472190Y-103989142D01*
X158472190Y-104370095D01*
X158948380Y-103322476D02*
X158948380Y-103132000D01*
X158900761Y-103036761D01*
X158853142Y-102989142D01*
X158710285Y-102893904D01*
X158519809Y-102846285D01*
X158138857Y-102846285D01*
X158043619Y-102893904D01*
X157996000Y-102941523D01*
X157948380Y-103036761D01*
X157948380Y-103227238D01*
X157996000Y-103322476D01*
X158043619Y-103370095D01*
X158138857Y-103417714D01*
X158376952Y-103417714D01*
X158472190Y-103370095D01*
X158519809Y-103322476D01*
X158567428Y-103227238D01*
X158567428Y-103036761D01*
X158519809Y-102941523D01*
X158472190Y-102893904D01*
X158376952Y-102846285D01*
X163663333Y-94845142D02*
X163615714Y-94892761D01*
X163472857Y-94940380D01*
X163377619Y-94940380D01*
X163234761Y-94892761D01*
X163139523Y-94797523D01*
X163091904Y-94702285D01*
X163044285Y-94511809D01*
X163044285Y-94368952D01*
X163091904Y-94178476D01*
X163139523Y-94083238D01*
X163234761Y-93988000D01*
X163377619Y-93940380D01*
X163472857Y-93940380D01*
X163615714Y-93988000D01*
X163663333Y-94035619D01*
X163996666Y-93940380D02*
X164663333Y-93940380D01*
X164234761Y-94940380D01*
X138858666Y-129719880D02*
X138858666Y-130434166D01*
X138811047Y-130577023D01*
X138715809Y-130672261D01*
X138572952Y-130719880D01*
X138477714Y-130719880D01*
X139287238Y-129815119D02*
X139334857Y-129767500D01*
X139430095Y-129719880D01*
X139668190Y-129719880D01*
X139763428Y-129767500D01*
X139811047Y-129815119D01*
X139858666Y-129910357D01*
X139858666Y-130005595D01*
X139811047Y-130148452D01*
X139239619Y-130719880D01*
X139858666Y-130719880D01*
X171140380Y-123102666D02*
X170664190Y-123436000D01*
X171140380Y-123674095D02*
X170140380Y-123674095D01*
X170140380Y-123293142D01*
X170188000Y-123197904D01*
X170235619Y-123150285D01*
X170330857Y-123102666D01*
X170473714Y-123102666D01*
X170568952Y-123150285D01*
X170616571Y-123197904D01*
X170664190Y-123293142D01*
X170664190Y-123674095D01*
X171140380Y-122150285D02*
X171140380Y-122721714D01*
X171140380Y-122436000D02*
X170140380Y-122436000D01*
X170283238Y-122531238D01*
X170378476Y-122626476D01*
X170426095Y-122721714D01*
X146407142Y-129706666D02*
X146454761Y-129754285D01*
X146502380Y-129897142D01*
X146502380Y-129992380D01*
X146454761Y-130135238D01*
X146359523Y-130230476D01*
X146264285Y-130278095D01*
X146073809Y-130325714D01*
X145930952Y-130325714D01*
X145740476Y-130278095D01*
X145645238Y-130230476D01*
X145550000Y-130135238D01*
X145502380Y-129992380D01*
X145502380Y-129897142D01*
X145550000Y-129754285D01*
X145597619Y-129706666D01*
X145502380Y-128801904D02*
X145502380Y-129278095D01*
X145978571Y-129325714D01*
X145930952Y-129278095D01*
X145883333Y-129182857D01*
X145883333Y-128944761D01*
X145930952Y-128849523D01*
X145978571Y-128801904D01*
X146073809Y-128754285D01*
X146311904Y-128754285D01*
X146407142Y-128801904D01*
X146454761Y-128849523D01*
X146502380Y-128944761D01*
X146502380Y-129182857D01*
X146454761Y-129278095D01*
X146407142Y-129325714D01*
X160726380Y-99734666D02*
X160250190Y-100068000D01*
X160726380Y-100306095D02*
X159726380Y-100306095D01*
X159726380Y-99925142D01*
X159774000Y-99829904D01*
X159821619Y-99782285D01*
X159916857Y-99734666D01*
X160059714Y-99734666D01*
X160154952Y-99782285D01*
X160202571Y-99829904D01*
X160250190Y-99925142D01*
X160250190Y-100306095D01*
X159726380Y-98829904D02*
X159726380Y-99306095D01*
X160202571Y-99353714D01*
X160154952Y-99306095D01*
X160107333Y-99210857D01*
X160107333Y-98972761D01*
X160154952Y-98877523D01*
X160202571Y-98829904D01*
X160297809Y-98782285D01*
X160535904Y-98782285D01*
X160631142Y-98829904D01*
X160678761Y-98877523D01*
X160726380Y-98972761D01*
X160726380Y-99210857D01*
X160678761Y-99306095D01*
X160631142Y-99353714D01*
X135072380Y-88050666D02*
X134596190Y-88384000D01*
X135072380Y-88622095D02*
X134072380Y-88622095D01*
X134072380Y-88241142D01*
X134120000Y-88145904D01*
X134167619Y-88098285D01*
X134262857Y-88050666D01*
X134405714Y-88050666D01*
X134500952Y-88098285D01*
X134548571Y-88145904D01*
X134596190Y-88241142D01*
X134596190Y-88622095D01*
X134167619Y-87669714D02*
X134120000Y-87622095D01*
X134072380Y-87526857D01*
X134072380Y-87288761D01*
X134120000Y-87193523D01*
X134167619Y-87145904D01*
X134262857Y-87098285D01*
X134358095Y-87098285D01*
X134500952Y-87145904D01*
X135072380Y-87717333D01*
X135072380Y-87098285D01*
X144756380Y-119633904D02*
X145565904Y-119633904D01*
X145661142Y-119586285D01*
X145708761Y-119538666D01*
X145756380Y-119443428D01*
X145756380Y-119252952D01*
X145708761Y-119157714D01*
X145661142Y-119110095D01*
X145565904Y-119062476D01*
X144756380Y-119062476D01*
X144756380Y-118681523D02*
X144756380Y-118062476D01*
X145137333Y-118395809D01*
X145137333Y-118252952D01*
X145184952Y-118157714D01*
X145232571Y-118110095D01*
X145327809Y-118062476D01*
X145565904Y-118062476D01*
X145661142Y-118110095D01*
X145708761Y-118157714D01*
X145756380Y-118252952D01*
X145756380Y-118538666D01*
X145708761Y-118633904D01*
X145661142Y-118681523D01*
X165568380Y-131063904D02*
X166377904Y-131063904D01*
X166473142Y-131016285D01*
X166520761Y-130968666D01*
X166568380Y-130873428D01*
X166568380Y-130682952D01*
X166520761Y-130587714D01*
X166473142Y-130540095D01*
X166377904Y-130492476D01*
X165568380Y-130492476D01*
X166568380Y-129492476D02*
X166568380Y-130063904D01*
X166568380Y-129778190D02*
X165568380Y-129778190D01*
X165711238Y-129873428D01*
X165806476Y-129968666D01*
X165854095Y-130063904D01*
X170608666Y-104100380D02*
X170608666Y-104814666D01*
X170561047Y-104957523D01*
X170465809Y-105052761D01*
X170322952Y-105100380D01*
X170227714Y-105100380D01*
X171608666Y-105100380D02*
X171037238Y-105100380D01*
X171322952Y-105100380D02*
X171322952Y-104100380D01*
X171227714Y-104243238D01*
X171132476Y-104338476D01*
X171037238Y-104386095D01*
X148693142Y-129706666D02*
X148740761Y-129754285D01*
X148788380Y-129897142D01*
X148788380Y-129992380D01*
X148740761Y-130135238D01*
X148645523Y-130230476D01*
X148550285Y-130278095D01*
X148359809Y-130325714D01*
X148216952Y-130325714D01*
X148026476Y-130278095D01*
X147931238Y-130230476D01*
X147836000Y-130135238D01*
X147788380Y-129992380D01*
X147788380Y-129897142D01*
X147836000Y-129754285D01*
X147883619Y-129706666D01*
X148121714Y-128849523D02*
X148788380Y-128849523D01*
X147740761Y-129087619D02*
X148455047Y-129325714D01*
X148455047Y-128706666D01*
X161139142Y-125134666D02*
X161186761Y-125182285D01*
X161234380Y-125325142D01*
X161234380Y-125420380D01*
X161186761Y-125563238D01*
X161091523Y-125658476D01*
X160996285Y-125706095D01*
X160805809Y-125753714D01*
X160662952Y-125753714D01*
X160472476Y-125706095D01*
X160377238Y-125658476D01*
X160282000Y-125563238D01*
X160234380Y-125420380D01*
X160234380Y-125325142D01*
X160282000Y-125182285D01*
X160329619Y-125134666D01*
X160329619Y-124753714D02*
X160282000Y-124706095D01*
X160234380Y-124610857D01*
X160234380Y-124372761D01*
X160282000Y-124277523D01*
X160329619Y-124229904D01*
X160424857Y-124182285D01*
X160520095Y-124182285D01*
X160662952Y-124229904D01*
X161234380Y-124801333D01*
X161234380Y-124182285D01*
X156313333Y-109798380D02*
X155980000Y-109322190D01*
X155741904Y-109798380D02*
X155741904Y-108798380D01*
X156122857Y-108798380D01*
X156218095Y-108846000D01*
X156265714Y-108893619D01*
X156313333Y-108988857D01*
X156313333Y-109131714D01*
X156265714Y-109226952D01*
X156218095Y-109274571D01*
X156122857Y-109322190D01*
X155741904Y-109322190D01*
X156884761Y-109226952D02*
X156789523Y-109179333D01*
X156741904Y-109131714D01*
X156694285Y-109036476D01*
X156694285Y-108988857D01*
X156741904Y-108893619D01*
X156789523Y-108846000D01*
X156884761Y-108798380D01*
X157075238Y-108798380D01*
X157170476Y-108846000D01*
X157218095Y-108893619D01*
X157265714Y-108988857D01*
X157265714Y-109036476D01*
X157218095Y-109131714D01*
X157170476Y-109179333D01*
X157075238Y-109226952D01*
X156884761Y-109226952D01*
X156789523Y-109274571D01*
X156741904Y-109322190D01*
X156694285Y-109417428D01*
X156694285Y-109607904D01*
X156741904Y-109703142D01*
X156789523Y-109750761D01*
X156884761Y-109798380D01*
X157075238Y-109798380D01*
X157170476Y-109750761D01*
X157218095Y-109703142D01*
X157265714Y-109607904D01*
X157265714Y-109417428D01*
X157218095Y-109322190D01*
X157170476Y-109274571D01*
X157075238Y-109226952D01*
X146051095Y-103373380D02*
X146051095Y-104182904D01*
X146098714Y-104278142D01*
X146146333Y-104325761D01*
X146241571Y-104373380D01*
X146432047Y-104373380D01*
X146527285Y-104325761D01*
X146574904Y-104278142D01*
X146622523Y-104182904D01*
X146622523Y-103373380D01*
X147051095Y-103468619D02*
X147098714Y-103421000D01*
X147193952Y-103373380D01*
X147432047Y-103373380D01*
X147527285Y-103421000D01*
X147574904Y-103468619D01*
X147622523Y-103563857D01*
X147622523Y-103659095D01*
X147574904Y-103801952D01*
X147003476Y-104373380D01*
X147622523Y-104373380D01*
D11*
X158739064Y-111225000D02*
X158284936Y-111225000D01*
X158739064Y-109755000D02*
X158284936Y-109755000D01*
X164831752Y-117321000D02*
X164309248Y-117321000D01*
X164831752Y-115851000D02*
X164309248Y-115851000D01*
X134901000Y-102653252D02*
X134901000Y-102130748D01*
X136371000Y-102653252D02*
X136371000Y-102130748D01*
X127225248Y-99287000D02*
X127747752Y-99287000D01*
X127225248Y-97817000D02*
X127747752Y-97817000D01*
X169164000Y-89856000D02*
X169164000Y-92516000D01*
X171764000Y-92516000D02*
X170434000Y-92516000D01*
X161484000Y-89856000D02*
X161484000Y-92516000D01*
X171764000Y-91186000D02*
X171764000Y-92516000D01*
X169164000Y-89856000D02*
X161484000Y-89856000D01*
X169164000Y-92516000D02*
X161484000Y-92516000D01*
X169854000Y-98014000D02*
X169854000Y-100614000D01*
X163394000Y-102544000D02*
X169854000Y-102544000D01*
X163394000Y-96084000D02*
X169854000Y-96084000D01*
X163394000Y-98014000D02*
X163394000Y-100614000D01*
X163394000Y-102544000D02*
X163394000Y-102514000D01*
X169854000Y-96084000D02*
X169854000Y-96114000D01*
X163394000Y-96114000D02*
X163394000Y-96084000D01*
X169854000Y-102544000D02*
X169854000Y-102514000D01*
X124786000Y-94670000D02*
X124786000Y-88210000D01*
X131246000Y-94670000D02*
X131216000Y-94670000D01*
X131246000Y-88210000D02*
X131216000Y-88210000D01*
X126716000Y-94670000D02*
X129316000Y-94670000D01*
X124786000Y-88210000D02*
X124816000Y-88210000D01*
X124816000Y-94670000D02*
X124786000Y-94670000D01*
X126716000Y-88210000D02*
X129316000Y-88210000D01*
X131246000Y-94670000D02*
X131246000Y-88210000D01*
X159501064Y-94769000D02*
X159046936Y-94769000D01*
X159501064Y-96239000D02*
X159046936Y-96239000D01*
X168952936Y-117321000D02*
X169407064Y-117321000D01*
X168952936Y-115851000D02*
X169407064Y-115851000D01*
X133646936Y-91213000D02*
X134101064Y-91213000D01*
X133646936Y-92683000D02*
X134101064Y-92683000D01*
X132361000Y-102653252D02*
X132361000Y-102130748D01*
X133831000Y-102653252D02*
X133831000Y-102130748D01*
X157507000Y-100340936D02*
X157507000Y-100795064D01*
X158977000Y-100340936D02*
X158977000Y-100795064D01*
X166595248Y-95223000D02*
X167117752Y-95223000D01*
X166595248Y-93753000D02*
X167117752Y-93753000D01*
X140032000Y-132057500D02*
X141142000Y-132057500D01*
X137242000Y-135767500D02*
X138352000Y-135767500D01*
X139192000Y-131507500D02*
X139442000Y-131007500D01*
X138942000Y-131007500D02*
X139192000Y-131507500D01*
X137242000Y-132057500D02*
X138352000Y-132057500D01*
X139442000Y-131007500D02*
X138942000Y-131007500D01*
X140032000Y-135767500D02*
X141142000Y-135767500D01*
X169953000Y-120099064D02*
X169953000Y-119644936D01*
X171423000Y-120099064D02*
X171423000Y-119644936D01*
X145315000Y-132827752D02*
X145315000Y-132305248D01*
X146785000Y-132827752D02*
X146785000Y-132305248D01*
X159501064Y-98271000D02*
X159046936Y-98271000D01*
X159501064Y-96801000D02*
X159046936Y-96801000D01*
X133577000Y-88857064D02*
X133577000Y-88402936D01*
X132107000Y-88857064D02*
X132107000Y-88402936D01*
D10*
X137554000Y-110622000D02*
X138304000Y-110622000D01*
X155054000Y-110622000D02*
X154304000Y-110622000D01*
X154304000Y-127122000D02*
X155054000Y-127122000D01*
X138304000Y-127122000D02*
X137554000Y-127122000D01*
X137554000Y-127122000D02*
X137554000Y-110622000D01*
X155054000Y-127122000D02*
X155054000Y-110622000D01*
D11*
X169311000Y-122303000D02*
X169311000Y-120803000D01*
X162411000Y-122303000D02*
X162411000Y-120803000D01*
X169041000Y-120803000D02*
X169041000Y-117973000D01*
X162681000Y-120803000D02*
X162681000Y-119703000D01*
X169311000Y-120803000D02*
X169041000Y-120803000D01*
X162411000Y-120803000D02*
X162681000Y-120803000D01*
X162676000Y-115090000D02*
X162676000Y-112490000D01*
X168576000Y-105890000D02*
X177376000Y-105890000D01*
X162676000Y-108590000D02*
X162676000Y-105890000D01*
X177376000Y-105890000D02*
X177376000Y-115090000D01*
X162476000Y-114240000D02*
X162476000Y-115290000D01*
X162676000Y-105890000D02*
X164576000Y-105890000D01*
X163526000Y-115290000D02*
X162476000Y-115290000D01*
X177376000Y-115090000D02*
X162676000Y-115090000D01*
X149071000Y-132849252D02*
X149071000Y-132326748D01*
X147601000Y-132849252D02*
X147601000Y-132326748D01*
X161517000Y-121404748D02*
X161517000Y-121927252D01*
X160047000Y-121404748D02*
X160047000Y-121927252D01*
X156707064Y-108431000D02*
X156252936Y-108431000D01*
X156707064Y-106961000D02*
X156252936Y-106961000D01*
X154933000Y-94621000D02*
X154933000Y-94221000D01*
X154933000Y-103041000D02*
X138693000Y-103041000D01*
X138693000Y-94621000D02*
X138693000Y-94221000D01*
X138693000Y-92621000D02*
X138693000Y-92221000D01*
X154933000Y-88621000D02*
X154933000Y-88221000D01*
X154933000Y-90621000D02*
X154933000Y-90221000D01*
X138693000Y-100621000D02*
X138693000Y-100221000D01*
X154933000Y-92621000D02*
X154933000Y-92221000D01*
X154933000Y-100621000D02*
X154933000Y-100221000D01*
X137663000Y-86921000D02*
X137663000Y-87921000D01*
X154933000Y-102221000D02*
X154933000Y-103041000D01*
X138693000Y-88621000D02*
X138693000Y-88221000D01*
X154933000Y-98621000D02*
X154933000Y-98221000D01*
X138693000Y-103041000D02*
X138693000Y-102221000D01*
X138693000Y-96621000D02*
X138693000Y-96221000D01*
X138693000Y-98621000D02*
X138693000Y-98221000D01*
X138693000Y-90621000D02*
X138693000Y-90221000D01*
X154933000Y-96621000D02*
X154933000Y-96221000D01*
%LPC*%
D12*
X159512000Y-110490000D03*
X157512000Y-110490000D03*
D13*
X165608000Y-116586000D03*
X163533000Y-116586000D03*
D14*
X135636000Y-103429500D03*
X135636000Y-101354500D03*
D15*
X126449000Y-98552000D03*
X128524000Y-98552000D03*
D16*
X170434000Y-91186000D03*
D17*
X167894000Y-91186000D03*
X165354000Y-91186000D03*
X162814000Y-91186000D03*
D18*
X170599000Y-97064000D03*
X162649000Y-97064000D03*
X162649000Y-101564000D03*
X170599000Y-101564000D03*
D19*
X125766000Y-87465000D03*
X125766000Y-95415000D03*
X130266000Y-95415000D03*
X130266000Y-87465000D03*
D12*
X160274000Y-95504000D03*
X158274000Y-95504000D03*
D20*
X168180000Y-116586000D03*
X170180000Y-116586000D03*
X132874000Y-91948000D03*
X134874000Y-91948000D03*
D14*
X133096000Y-103429500D03*
X133096000Y-101354500D03*
D21*
X158242000Y-99568000D03*
X158242000Y-101568000D03*
D15*
X165819000Y-94488000D03*
X167894000Y-94488000D03*
D22*
X139192000Y-133967500D03*
D23*
X142017000Y-133767500D03*
X136367000Y-133767500D03*
D24*
X170688000Y-120872000D03*
X170688000Y-118872000D03*
D14*
X146050000Y-133604000D03*
X146050000Y-131529000D03*
D12*
X160274000Y-97536000D03*
X158274000Y-97536000D03*
D24*
X132842000Y-89630000D03*
X132842000Y-87630000D03*
D25*
X139304000Y-126872000D03*
X141304000Y-126872000D03*
X143304000Y-126872000D03*
X145304000Y-126872000D03*
X147304000Y-126872000D03*
X149304000Y-126872000D03*
X151304000Y-126872000D03*
X153304000Y-126872000D03*
X153304000Y-110872000D03*
X151304000Y-110872000D03*
X149304000Y-110872000D03*
X147304000Y-110872000D03*
X145304000Y-110872000D03*
X143304000Y-110872000D03*
X141304000Y-110872000D03*
X139304000Y-110872000D03*
D26*
X168141000Y-119073000D03*
D27*
X165861000Y-125373000D03*
D26*
X163581000Y-119073000D03*
D28*
X163576000Y-110490000D03*
D29*
X169576000Y-110490000D03*
D30*
X166576000Y-105790000D03*
D14*
X148336000Y-133625500D03*
X148336000Y-131550500D03*
D31*
X160782000Y-120628500D03*
X160782000Y-122703500D03*
D12*
X157480000Y-107696000D03*
X155480000Y-107696000D03*
D32*
X139213000Y-87421000D03*
X139213000Y-89421000D03*
X139213000Y-91421000D03*
X139213000Y-93421000D03*
X139213000Y-95421000D03*
X139213000Y-97421000D03*
X139213000Y-99421000D03*
X139213000Y-101421000D03*
X154413000Y-101421000D03*
X154413000Y-99421000D03*
X154413000Y-97421000D03*
X154413000Y-95421000D03*
X154413000Y-93421000D03*
X154413000Y-91421000D03*
X154413000Y-89421000D03*
X154413000Y-87421000D03*
M02*
