M48
; DRILL file {KiCad 6.0.10} date Fri 28 Apr 2023 10:54:15 PM CDT
; FORMAT={-:-/ absolute / metric / decimal}
; #@! TF.CreationDate,2023-04-28T22:54:15-05:00
; #@! TF.GenerationSoftware,Kicad,Pcbnew,6.0.10
; #@! TF.FileFunction,Plated,1,2,PTH
FMAT,2
METRIC
; #@! TA.AperFunction,Plated,PTH,ViaDrill
T1C0.400
; #@! TA.AperFunction,Plated,PTH,ComponentDrill
T2C1.000
%
G90
G05
T1
X124.46Y-100.33
X124.46Y-102.87
X124.46Y-105.41
X124.46Y-107.95
X124.46Y-110.49
X124.46Y-113.03
X124.46Y-115.57
X124.46Y-118.11
X124.46Y-120.65
X124.46Y-123.19
X124.46Y-125.73
X124.46Y-128.27
X124.46Y-130.81
X124.46Y-133.35
X127.0Y-133.35
X129.54Y-133.35
X132.08Y-105.41
X132.08Y-133.35
X133.35Y-105.41
X134.62Y-105.41
X134.62Y-130.81
X134.62Y-132.08
X134.62Y-133.35
X135.89Y-96.52
X135.89Y-99.06
X135.89Y-105.41
X135.89Y-109.22
X135.89Y-111.76
X135.89Y-130.81
X136.398Y-93.472
X137.16Y-105.41
X138.43Y-107.95
X140.97Y-130.81
X141.224Y-107.188
X142.24Y-87.63
X142.24Y-91.44
X142.24Y-130.81
X143.51Y-132.08
X143.51Y-133.35
X143.51Y-134.62
X144.78Y-87.63
X145.288Y-129.54
X146.05Y-134.62
X147.32Y-87.63
X147.32Y-96.52
X148.59Y-88.9
X148.59Y-129.54
X148.59Y-134.62
X148.844Y-105.156
X148.844Y-107.696
X149.86Y-87.63
X151.13Y-129.54
X151.13Y-134.62
X153.67Y-129.54
X153.67Y-134.62
X156.21Y-114.3
X156.21Y-116.84
X156.21Y-119.38
X156.547Y-95.421
X157.48Y-105.156
X159.004Y-90.932
X159.004Y-93.218
X160.274Y-107.696
X160.274Y-125.476
X162.56Y-95.504
T2
X162.814Y-91.186
X165.354Y-91.186
X167.894Y-91.186
X170.434Y-91.186
T2
X163.576Y-111.49G85X163.576Y-109.49
G05
X167.576Y-105.79G85X165.576Y-105.79
G05
X169.576Y-111.49G85X169.576Y-109.49
G05
T0
M30
