G04 #@! TF.GenerationSoftware,KiCad,Pcbnew,6.0.10*
G04 #@! TF.CreationDate,2023-06-20T13:54:13-05:00*
G04 #@! TF.ProjectId,sensor_sigfox_1,73656e73-6f72-45f7-9369-67666f785f31,rev?*
G04 #@! TF.SameCoordinates,Original*
G04 #@! TF.FileFunction,Legend,Bot*
G04 #@! TF.FilePolarity,Positive*
%FSLAX46Y46*%
G04 Gerber Fmt 4.6, Leading zero omitted, Abs format (unit mm)*
G04 Created by KiCad (PCBNEW 6.0.10) date 2023-06-20 13:54:13*
%MOMM*%
%LPD*%
G01*
G04 APERTURE LIST*
G04 Aperture macros list*
%AMRoundRect*
0 Rectangle with rounded corners*
0 $1 Rounding radius*
0 $2 $3 $4 $5 $6 $7 $8 $9 X,Y pos of 4 corners*
0 Add a 4 corners polygon primitive as box body*
4,1,4,$2,$3,$4,$5,$6,$7,$8,$9,$2,$3,0*
0 Add four circle primitives for the rounded corners*
1,1,$1+$1,$2,$3*
1,1,$1+$1,$4,$5*
1,1,$1+$1,$6,$7*
1,1,$1+$1,$8,$9*
0 Add four rect primitives between the rounded corners*
20,1,$1+$1,$2,$3,$4,$5,0*
20,1,$1+$1,$4,$5,$6,$7,0*
20,1,$1+$1,$6,$7,$8,$9,0*
20,1,$1+$1,$8,$9,$2,$3,0*%
G04 Aperture macros list end*
%ADD10C,0.150000*%
%ADD11C,0.254000*%
%ADD12C,0.120000*%
%ADD13C,0.200000*%
%ADD14R,1.700000X1.700000*%
%ADD15O,1.700000X1.700000*%
%ADD16R,4.200000X1.350000*%
%ADD17R,1.000000X1.000000*%
%ADD18RoundRect,0.150000X0.512500X0.150000X-0.512500X0.150000X-0.512500X-0.150000X0.512500X-0.150000X0*%
%ADD19RoundRect,0.250000X-0.450000X0.350000X-0.450000X-0.350000X0.450000X-0.350000X0.450000X0.350000X0*%
%ADD20RoundRect,0.250000X-0.350000X-0.450000X0.350000X-0.450000X0.350000X0.450000X-0.350000X0.450000X0*%
%ADD21RoundRect,0.250000X0.450000X-0.350000X0.450000X0.350000X-0.450000X0.350000X-0.450000X-0.350000X0*%
%ADD22R,1.500000X0.650000*%
%ADD23RoundRect,0.150000X-0.512500X-0.150000X0.512500X-0.150000X0.512500X0.150000X-0.512500X0.150000X0*%
%ADD24RoundRect,0.250000X-0.475000X0.337500X-0.475000X-0.337500X0.475000X-0.337500X0.475000X0.337500X0*%
%ADD25RoundRect,0.250000X0.475000X-0.337500X0.475000X0.337500X-0.475000X0.337500X-0.475000X-0.337500X0*%
%ADD26RoundRect,0.250000X0.350000X0.450000X-0.350000X0.450000X-0.350000X-0.450000X0.350000X-0.450000X0*%
%ADD27RoundRect,0.125000X-0.125000X0.825000X-0.125000X-0.825000X0.125000X-0.825000X0.125000X0.825000X0*%
%ADD28RoundRect,0.250000X0.325000X0.450000X-0.325000X0.450000X-0.325000X-0.450000X0.325000X-0.450000X0*%
G04 APERTURE END LIST*
D10*
X133101095Y-88645380D02*
X133101095Y-87645380D01*
X132863000Y-87645380D01*
X132720142Y-87693000D01*
X132624904Y-87788238D01*
X132577285Y-87883476D01*
X132529666Y-88073952D01*
X132529666Y-88216809D01*
X132577285Y-88407285D01*
X132624904Y-88502523D01*
X132720142Y-88597761D01*
X132863000Y-88645380D01*
X133101095Y-88645380D01*
X132148714Y-87740619D02*
X132101095Y-87693000D01*
X132005857Y-87645380D01*
X131767761Y-87645380D01*
X131672523Y-87693000D01*
X131624904Y-87740619D01*
X131577285Y-87835857D01*
X131577285Y-87931095D01*
X131624904Y-88073952D01*
X132196333Y-88645380D01*
X131577285Y-88645380D01*
X125475904Y-94194380D02*
X125475904Y-95003904D01*
X125428285Y-95099142D01*
X125380666Y-95146761D01*
X125285428Y-95194380D01*
X125094952Y-95194380D01*
X124999714Y-95146761D01*
X124952095Y-95099142D01*
X124904476Y-95003904D01*
X124904476Y-94194380D01*
X124523523Y-94194380D02*
X123904476Y-94194380D01*
X124237809Y-94575333D01*
X124094952Y-94575333D01*
X123999714Y-94622952D01*
X123952095Y-94670571D01*
X123904476Y-94765809D01*
X123904476Y-95003904D01*
X123952095Y-95099142D01*
X123999714Y-95146761D01*
X124094952Y-95194380D01*
X124380666Y-95194380D01*
X124475904Y-95146761D01*
X124523523Y-95099142D01*
X115515380Y-75160333D02*
X115039190Y-74827000D01*
X115515380Y-74588904D02*
X114515380Y-74588904D01*
X114515380Y-74969857D01*
X114563000Y-75065095D01*
X114610619Y-75112714D01*
X114705857Y-75160333D01*
X114848714Y-75160333D01*
X114943952Y-75112714D01*
X114991571Y-75065095D01*
X115039190Y-74969857D01*
X115039190Y-74588904D01*
X114610619Y-75541285D02*
X114563000Y-75588904D01*
X114515380Y-75684142D01*
X114515380Y-75922238D01*
X114563000Y-76017476D01*
X114610619Y-76065095D01*
X114705857Y-76112714D01*
X114801095Y-76112714D01*
X114943952Y-76065095D01*
X115515380Y-75493666D01*
X115515380Y-76112714D01*
X129452666Y-72588380D02*
X129786000Y-72112190D01*
X130024095Y-72588380D02*
X130024095Y-71588380D01*
X129643142Y-71588380D01*
X129547904Y-71636000D01*
X129500285Y-71683619D01*
X129452666Y-71778857D01*
X129452666Y-71921714D01*
X129500285Y-72016952D01*
X129547904Y-72064571D01*
X129643142Y-72112190D01*
X130024095Y-72112190D01*
X128976476Y-72588380D02*
X128786000Y-72588380D01*
X128690761Y-72540761D01*
X128643142Y-72493142D01*
X128547904Y-72350285D01*
X128500285Y-72159809D01*
X128500285Y-71778857D01*
X128547904Y-71683619D01*
X128595523Y-71636000D01*
X128690761Y-71588380D01*
X128881238Y-71588380D01*
X128976476Y-71636000D01*
X129024095Y-71683619D01*
X129071714Y-71778857D01*
X129071714Y-72016952D01*
X129024095Y-72112190D01*
X128976476Y-72159809D01*
X128881238Y-72207428D01*
X128690761Y-72207428D01*
X128595523Y-72159809D01*
X128547904Y-72112190D01*
X128500285Y-72016952D01*
X134500857Y-95956380D02*
X134834190Y-95480190D01*
X135072285Y-95956380D02*
X135072285Y-94956380D01*
X134691333Y-94956380D01*
X134596095Y-95004000D01*
X134548476Y-95051619D01*
X134500857Y-95146857D01*
X134500857Y-95289714D01*
X134548476Y-95384952D01*
X134596095Y-95432571D01*
X134691333Y-95480190D01*
X135072285Y-95480190D01*
X133548476Y-95956380D02*
X134119904Y-95956380D01*
X133834190Y-95956380D02*
X133834190Y-94956380D01*
X133929428Y-95099238D01*
X134024666Y-95194476D01*
X134119904Y-95242095D01*
X132929428Y-94956380D02*
X132834190Y-94956380D01*
X132738952Y-95004000D01*
X132691333Y-95051619D01*
X132643714Y-95146857D01*
X132596095Y-95337333D01*
X132596095Y-95575428D01*
X132643714Y-95765904D01*
X132691333Y-95861142D01*
X132738952Y-95908761D01*
X132834190Y-95956380D01*
X132929428Y-95956380D01*
X133024666Y-95908761D01*
X133072285Y-95861142D01*
X133119904Y-95765904D01*
X133167523Y-95575428D01*
X133167523Y-95337333D01*
X133119904Y-95146857D01*
X133072285Y-95051619D01*
X133024666Y-95004000D01*
X132929428Y-94956380D01*
D11*
X127985761Y-43627523D02*
X127985761Y-42357523D01*
X126655285Y-43506571D02*
X126715761Y-43567047D01*
X126897190Y-43627523D01*
X127018142Y-43627523D01*
X127199571Y-43567047D01*
X127320523Y-43446095D01*
X127381000Y-43325142D01*
X127441476Y-43083238D01*
X127441476Y-42901809D01*
X127381000Y-42659904D01*
X127320523Y-42538952D01*
X127199571Y-42418000D01*
X127018142Y-42357523D01*
X126897190Y-42357523D01*
X126715761Y-42418000D01*
X126655285Y-42478476D01*
X125445761Y-43627523D02*
X126171476Y-43627523D01*
X125808619Y-43627523D02*
X125808619Y-42357523D01*
X125929571Y-42538952D01*
X126050523Y-42659904D01*
X126171476Y-42720380D01*
D10*
X122015238Y-74260619D02*
X122110476Y-74213000D01*
X122205714Y-74117761D01*
X122348571Y-73974904D01*
X122443809Y-73927285D01*
X122539047Y-73927285D01*
X122491428Y-74165380D02*
X122586666Y-74117761D01*
X122681904Y-74022523D01*
X122729523Y-73832047D01*
X122729523Y-73498714D01*
X122681904Y-73308238D01*
X122586666Y-73213000D01*
X122491428Y-73165380D01*
X122300952Y-73165380D01*
X122205714Y-73213000D01*
X122110476Y-73308238D01*
X122062857Y-73498714D01*
X122062857Y-73832047D01*
X122110476Y-74022523D01*
X122205714Y-74117761D01*
X122300952Y-74165380D01*
X122491428Y-74165380D01*
X121110476Y-74165380D02*
X121681904Y-74165380D01*
X121396190Y-74165380D02*
X121396190Y-73165380D01*
X121491428Y-73308238D01*
X121586666Y-73403476D01*
X121681904Y-73451095D01*
X122892142Y-91759833D02*
X122939761Y-91712214D01*
X122987380Y-91569357D01*
X122987380Y-91474119D01*
X122939761Y-91331261D01*
X122844523Y-91236023D01*
X122749285Y-91188404D01*
X122558809Y-91140785D01*
X122415952Y-91140785D01*
X122225476Y-91188404D01*
X122130238Y-91236023D01*
X122035000Y-91331261D01*
X121987380Y-91474119D01*
X121987380Y-91569357D01*
X122035000Y-91712214D01*
X122082619Y-91759833D01*
X121987380Y-92093166D02*
X121987380Y-92759833D01*
X122987380Y-92331261D01*
X122531142Y-76287333D02*
X122578761Y-76239714D01*
X122626380Y-76096857D01*
X122626380Y-76001619D01*
X122578761Y-75858761D01*
X122483523Y-75763523D01*
X122388285Y-75715904D01*
X122197809Y-75668285D01*
X122054952Y-75668285D01*
X121864476Y-75715904D01*
X121769238Y-75763523D01*
X121674000Y-75858761D01*
X121626380Y-76001619D01*
X121626380Y-76096857D01*
X121674000Y-76239714D01*
X121721619Y-76287333D01*
X121959714Y-77144476D02*
X122626380Y-77144476D01*
X121578761Y-76906380D02*
X122293047Y-76668285D01*
X122293047Y-77287333D01*
X138025142Y-92797333D02*
X138072761Y-92749714D01*
X138120380Y-92606857D01*
X138120380Y-92511619D01*
X138072761Y-92368761D01*
X137977523Y-92273523D01*
X137882285Y-92225904D01*
X137691809Y-92178285D01*
X137548952Y-92178285D01*
X137358476Y-92225904D01*
X137263238Y-92273523D01*
X137168000Y-92368761D01*
X137120380Y-92511619D01*
X137120380Y-92606857D01*
X137168000Y-92749714D01*
X137215619Y-92797333D01*
X137120380Y-93130666D02*
X137120380Y-93749714D01*
X137501333Y-93416380D01*
X137501333Y-93559238D01*
X137548952Y-93654476D01*
X137596571Y-93702095D01*
X137691809Y-93749714D01*
X137929904Y-93749714D01*
X138025142Y-93702095D01*
X138072761Y-93654476D01*
X138120380Y-93559238D01*
X138120380Y-93273523D01*
X138072761Y-93178285D01*
X138025142Y-93130666D01*
X119546666Y-84780380D02*
X119880000Y-84304190D01*
X120118095Y-84780380D02*
X120118095Y-83780380D01*
X119737142Y-83780380D01*
X119641904Y-83828000D01*
X119594285Y-83875619D01*
X119546666Y-83970857D01*
X119546666Y-84113714D01*
X119594285Y-84208952D01*
X119641904Y-84256571D01*
X119737142Y-84304190D01*
X120118095Y-84304190D01*
X118594285Y-84780380D02*
X119165714Y-84780380D01*
X118880000Y-84780380D02*
X118880000Y-83780380D01*
X118975238Y-83923238D01*
X119070476Y-84018476D01*
X119165714Y-84066095D01*
X129198666Y-74366380D02*
X129532000Y-73890190D01*
X129770095Y-74366380D02*
X129770095Y-73366380D01*
X129389142Y-73366380D01*
X129293904Y-73414000D01*
X129246285Y-73461619D01*
X129198666Y-73556857D01*
X129198666Y-73699714D01*
X129246285Y-73794952D01*
X129293904Y-73842571D01*
X129389142Y-73890190D01*
X129770095Y-73890190D01*
X128627238Y-73794952D02*
X128722476Y-73747333D01*
X128770095Y-73699714D01*
X128817714Y-73604476D01*
X128817714Y-73556857D01*
X128770095Y-73461619D01*
X128722476Y-73414000D01*
X128627238Y-73366380D01*
X128436761Y-73366380D01*
X128341523Y-73414000D01*
X128293904Y-73461619D01*
X128246285Y-73556857D01*
X128246285Y-73604476D01*
X128293904Y-73699714D01*
X128341523Y-73747333D01*
X128436761Y-73794952D01*
X128627238Y-73794952D01*
X128722476Y-73842571D01*
X128770095Y-73890190D01*
X128817714Y-73985428D01*
X128817714Y-74175904D01*
X128770095Y-74271142D01*
X128722476Y-74318761D01*
X128627238Y-74366380D01*
X128436761Y-74366380D01*
X128341523Y-74318761D01*
X128293904Y-74271142D01*
X128246285Y-74175904D01*
X128246285Y-73985428D01*
X128293904Y-73890190D01*
X128341523Y-73842571D01*
X128436761Y-73794952D01*
X135072380Y-73493333D02*
X134596190Y-73160000D01*
X135072380Y-72921904D02*
X134072380Y-72921904D01*
X134072380Y-73302857D01*
X134120000Y-73398095D01*
X134167619Y-73445714D01*
X134262857Y-73493333D01*
X134405714Y-73493333D01*
X134500952Y-73445714D01*
X134548571Y-73398095D01*
X134596190Y-73302857D01*
X134596190Y-72921904D01*
X134072380Y-74398095D02*
X134072380Y-73921904D01*
X134548571Y-73874285D01*
X134500952Y-73921904D01*
X134453333Y-74017142D01*
X134453333Y-74255238D01*
X134500952Y-74350476D01*
X134548571Y-74398095D01*
X134643809Y-74445714D01*
X134881904Y-74445714D01*
X134977142Y-74398095D01*
X135024761Y-74350476D01*
X135072380Y-74255238D01*
X135072380Y-74017142D01*
X135024761Y-73921904D01*
X134977142Y-73874285D01*
X120847380Y-75160333D02*
X120371190Y-74827000D01*
X120847380Y-74588904D02*
X119847380Y-74588904D01*
X119847380Y-74969857D01*
X119895000Y-75065095D01*
X119942619Y-75112714D01*
X120037857Y-75160333D01*
X120180714Y-75160333D01*
X120275952Y-75112714D01*
X120323571Y-75065095D01*
X120371190Y-74969857D01*
X120371190Y-74588904D01*
X119847380Y-75493666D02*
X119847380Y-76112714D01*
X120228333Y-75779380D01*
X120228333Y-75922238D01*
X120275952Y-76017476D01*
X120323571Y-76065095D01*
X120418809Y-76112714D01*
X120656904Y-76112714D01*
X120752142Y-76065095D01*
X120799761Y-76017476D01*
X120847380Y-75922238D01*
X120847380Y-75636523D01*
X120799761Y-75541285D01*
X120752142Y-75493666D01*
X115260380Y-71223333D02*
X114784190Y-70890000D01*
X115260380Y-70651904D02*
X114260380Y-70651904D01*
X114260380Y-71032857D01*
X114308000Y-71128095D01*
X114355619Y-71175714D01*
X114450857Y-71223333D01*
X114593714Y-71223333D01*
X114688952Y-71175714D01*
X114736571Y-71128095D01*
X114784190Y-71032857D01*
X114784190Y-70651904D01*
X114260380Y-71556666D02*
X114260380Y-72223333D01*
X115260380Y-71794761D01*
X132532380Y-73493333D02*
X132056190Y-73160000D01*
X132532380Y-72921904D02*
X131532380Y-72921904D01*
X131532380Y-73302857D01*
X131580000Y-73398095D01*
X131627619Y-73445714D01*
X131722857Y-73493333D01*
X131865714Y-73493333D01*
X131960952Y-73445714D01*
X132008571Y-73398095D01*
X132056190Y-73302857D01*
X132056190Y-72921904D01*
X131865714Y-74350476D02*
X132532380Y-74350476D01*
X131484761Y-74112380D02*
X132199047Y-73874285D01*
X132199047Y-74493333D01*
X121626380Y-84328095D02*
X122435904Y-84328095D01*
X122531142Y-84375714D01*
X122578761Y-84423333D01*
X122626380Y-84518571D01*
X122626380Y-84709047D01*
X122578761Y-84804285D01*
X122531142Y-84851904D01*
X122435904Y-84899523D01*
X121626380Y-84899523D01*
X121721619Y-85328095D02*
X121674000Y-85375714D01*
X121626380Y-85470952D01*
X121626380Y-85709047D01*
X121674000Y-85804285D01*
X121721619Y-85851904D01*
X121816857Y-85899523D01*
X121912095Y-85899523D01*
X122054952Y-85851904D01*
X122626380Y-85280476D01*
X122626380Y-85899523D01*
X128055666Y-88718380D02*
X128531857Y-88718380D01*
X128531857Y-87718380D01*
X127198523Y-88718380D02*
X127769952Y-88718380D01*
X127484238Y-88718380D02*
X127484238Y-87718380D01*
X127579476Y-87861238D01*
X127674714Y-87956476D01*
X127769952Y-88004095D01*
X131706857Y-95956380D02*
X132040190Y-95480190D01*
X132278285Y-95956380D02*
X132278285Y-94956380D01*
X131897333Y-94956380D01*
X131802095Y-95004000D01*
X131754476Y-95051619D01*
X131706857Y-95146857D01*
X131706857Y-95289714D01*
X131754476Y-95384952D01*
X131802095Y-95432571D01*
X131897333Y-95480190D01*
X132278285Y-95480190D01*
X130754476Y-95956380D02*
X131325904Y-95956380D01*
X131040190Y-95956380D02*
X131040190Y-94956380D01*
X131135428Y-95099238D01*
X131230666Y-95194476D01*
X131325904Y-95242095D01*
X129802095Y-95956380D02*
X130373523Y-95956380D01*
X130087809Y-95956380D02*
X130087809Y-94956380D01*
X130183047Y-95099238D01*
X130278285Y-95194476D01*
X130373523Y-95242095D01*
X117422142Y-78954333D02*
X117469761Y-78906714D01*
X117517380Y-78763857D01*
X117517380Y-78668619D01*
X117469761Y-78525761D01*
X117374523Y-78430523D01*
X117279285Y-78382904D01*
X117088809Y-78335285D01*
X116945952Y-78335285D01*
X116755476Y-78382904D01*
X116660238Y-78430523D01*
X116565000Y-78525761D01*
X116517380Y-78668619D01*
X116517380Y-78763857D01*
X116565000Y-78906714D01*
X116612619Y-78954333D01*
X116612619Y-79335285D02*
X116565000Y-79382904D01*
X116517380Y-79478142D01*
X116517380Y-79716238D01*
X116565000Y-79811476D01*
X116612619Y-79859095D01*
X116707857Y-79906714D01*
X116803095Y-79906714D01*
X116945952Y-79859095D01*
X117517380Y-79287666D01*
X117517380Y-79906714D01*
D12*
X134263000Y-89193000D02*
X134263000Y-90893000D01*
X134263000Y-90893000D02*
X131113000Y-90893000D01*
X134263000Y-89193000D02*
X131113000Y-89193000D01*
X128030500Y-91465000D02*
X129830500Y-91465000D01*
X128030500Y-91465000D02*
X127230500Y-91465000D01*
X128030500Y-94585000D02*
X128830500Y-94585000D01*
X128030500Y-94585000D02*
X127230500Y-94585000D01*
X115978000Y-75099936D02*
X115978000Y-75554064D01*
X117448000Y-75099936D02*
X117448000Y-75554064D01*
X126026936Y-72744000D02*
X126481064Y-72744000D01*
X126026936Y-71274000D02*
X126481064Y-71274000D01*
X132878000Y-93318064D02*
X132878000Y-92863936D01*
X134348000Y-93318064D02*
X134348000Y-92863936D01*
D13*
X125146000Y-36412000D02*
X125146000Y-41312000D01*
X128346000Y-36412000D02*
X125146000Y-36412000D01*
X128346000Y-41312000D02*
X128346000Y-36412000D01*
X125146000Y-41312000D02*
X128346000Y-41312000D01*
X123296000Y-41442000D02*
X124796000Y-41442000D01*
D12*
X120274500Y-72873000D02*
X118474500Y-72873000D01*
X120274500Y-72873000D02*
X121074500Y-72873000D01*
X120274500Y-69753000D02*
X121074500Y-69753000D01*
X120274500Y-69753000D02*
X119474500Y-69753000D01*
X124950000Y-91665248D02*
X124950000Y-92187752D01*
X123480000Y-91665248D02*
X123480000Y-92187752D01*
X121512000Y-78838248D02*
X121512000Y-79360752D01*
X120042000Y-78838248D02*
X120042000Y-79360752D01*
X136507000Y-93330752D02*
X136507000Y-92808248D01*
X135037000Y-93330752D02*
X135037000Y-92808248D01*
X119718064Y-81942000D02*
X119263936Y-81942000D01*
X119718064Y-83412000D02*
X119263936Y-83412000D01*
X126481064Y-74649000D02*
X126026936Y-74649000D01*
X126481064Y-73179000D02*
X126026936Y-73179000D01*
X135228000Y-70982064D02*
X135228000Y-70527936D01*
X133758000Y-70982064D02*
X133758000Y-70527936D01*
X119480000Y-75554064D02*
X119480000Y-75099936D01*
X118010000Y-75554064D02*
X118010000Y-75099936D01*
X117448000Y-71617064D02*
X117448000Y-71162936D01*
X115978000Y-71617064D02*
X115978000Y-71162936D01*
X132688000Y-70982064D02*
X132688000Y-70527936D01*
X131218000Y-70982064D02*
X131218000Y-70527936D01*
X123092000Y-84350000D02*
X123367000Y-84350000D01*
X130512000Y-81590000D02*
X130512000Y-78830000D01*
X130512000Y-81590000D02*
X130512000Y-84350000D01*
X123092000Y-81590000D02*
X123092000Y-84350000D01*
X123367000Y-78830000D02*
X123367000Y-77140000D01*
X130512000Y-78830000D02*
X130237000Y-78830000D01*
X123092000Y-78830000D02*
X123367000Y-78830000D01*
X130512000Y-84350000D02*
X130237000Y-84350000D01*
X123092000Y-81590000D02*
X123092000Y-78830000D01*
X128150252Y-90626000D02*
X127627748Y-90626000D01*
X128150252Y-89206000D02*
X127627748Y-89206000D01*
X132316000Y-92847936D02*
X132316000Y-93302064D01*
X130846000Y-92847936D02*
X130846000Y-93302064D01*
X118010000Y-78859748D02*
X118010000Y-79382252D01*
X119480000Y-78859748D02*
X119480000Y-79382252D01*
%LPC*%
D14*
X115570000Y-85344000D03*
D15*
X115570000Y-82804000D03*
X115570000Y-80264000D03*
D14*
X117475000Y-93726000D03*
D15*
X117475000Y-91186000D03*
D16*
X139246000Y-79787000D03*
X139246000Y-74137000D03*
D17*
X133613000Y-90043000D03*
X131113000Y-90043000D03*
D18*
X129168000Y-92075000D03*
X129168000Y-93025000D03*
X129168000Y-93975000D03*
X126893000Y-93975000D03*
X126893000Y-93025000D03*
X126893000Y-92075000D03*
D19*
X116713000Y-74327000D03*
X116713000Y-76327000D03*
D20*
X125254000Y-72009000D03*
X127254000Y-72009000D03*
D21*
X133613000Y-94091000D03*
X133613000Y-92091000D03*
D22*
X124046000Y-40767000D03*
X124046000Y-39497000D03*
X124046000Y-38227000D03*
X124046000Y-36957000D03*
X129446000Y-36957000D03*
X129446000Y-38227000D03*
X129446000Y-39497000D03*
X129446000Y-40767000D03*
D23*
X119137000Y-72263000D03*
X119137000Y-71313000D03*
X119137000Y-70363000D03*
X121412000Y-70363000D03*
X121412000Y-71313000D03*
X121412000Y-72263000D03*
D24*
X124215000Y-90889000D03*
X124215000Y-92964000D03*
X120777000Y-78062000D03*
X120777000Y-80137000D03*
D25*
X135772000Y-94107000D03*
X135772000Y-92032000D03*
D26*
X120491000Y-82677000D03*
X118491000Y-82677000D03*
X127254000Y-73914000D03*
X125254000Y-73914000D03*
D21*
X134493000Y-71755000D03*
X134493000Y-69755000D03*
X118745000Y-76327000D03*
X118745000Y-74327000D03*
X116713000Y-72390000D03*
X116713000Y-70390000D03*
X131953000Y-71755000D03*
X131953000Y-69755000D03*
D27*
X123877000Y-78090000D03*
X124527000Y-78090000D03*
X125177000Y-78090000D03*
X125827000Y-78090000D03*
X126477000Y-78090000D03*
X127127000Y-78090000D03*
X127777000Y-78090000D03*
X128427000Y-78090000D03*
X129077000Y-78090000D03*
X129727000Y-78090000D03*
X129727000Y-85090000D03*
X129077000Y-85090000D03*
X128427000Y-85090000D03*
X127777000Y-85090000D03*
X127127000Y-85090000D03*
X126477000Y-85090000D03*
X125827000Y-85090000D03*
X125177000Y-85090000D03*
X124527000Y-85090000D03*
X123877000Y-85090000D03*
D28*
X128914000Y-89916000D03*
X126864000Y-89916000D03*
D19*
X131581000Y-92075000D03*
X131581000Y-94075000D03*
D24*
X118745000Y-78083500D03*
X118745000Y-80158500D03*
M02*
