G04 #@! TF.GenerationSoftware,KiCad,Pcbnew,6.0.10*
G04 #@! TF.CreationDate,2023-06-20T13:54:12-05:00*
G04 #@! TF.ProjectId,sensor_sigfox_1,73656e73-6f72-45f7-9369-67666f785f31,rev?*
G04 #@! TF.SameCoordinates,Original*
G04 #@! TF.FileFunction,Copper,L1,Top*
G04 #@! TF.FilePolarity,Positive*
%FSLAX46Y46*%
G04 Gerber Fmt 4.6, Leading zero omitted, Abs format (unit mm)*
G04 Created by KiCad (PCBNEW 6.0.10) date 2023-06-20 13:54:12*
%MOMM*%
%LPD*%
G01*
G04 APERTURE LIST*
G04 Aperture macros list*
%AMRoundRect*
0 Rectangle with rounded corners*
0 $1 Rounding radius*
0 $2 $3 $4 $5 $6 $7 $8 $9 X,Y pos of 4 corners*
0 Add a 4 corners polygon primitive as box body*
4,1,4,$2,$3,$4,$5,$6,$7,$8,$9,$2,$3,0*
0 Add four circle primitives for the rounded corners*
1,1,$1+$1,$2,$3*
1,1,$1+$1,$4,$5*
1,1,$1+$1,$6,$7*
1,1,$1+$1,$8,$9*
0 Add four rect primitives between the rounded corners*
20,1,$1+$1,$2,$3,$4,$5,0*
20,1,$1+$1,$4,$5,$6,$7,0*
20,1,$1+$1,$6,$7,$8,$9,0*
20,1,$1+$1,$8,$9,$2,$3,0*%
G04 Aperture macros list end*
G04 #@! TA.AperFunction,SMDPad,CuDef*
%ADD10RoundRect,0.250000X-0.350000X-0.450000X0.350000X-0.450000X0.350000X0.450000X-0.350000X0.450000X0*%
G04 #@! TD*
G04 #@! TA.AperFunction,ComponentPad*
%ADD11R,1.700000X1.700000*%
G04 #@! TD*
G04 #@! TA.AperFunction,ComponentPad*
%ADD12O,1.700000X1.700000*%
G04 #@! TD*
G04 #@! TA.AperFunction,SMDPad,CuDef*
%ADD13R,1.000000X1.500000*%
G04 #@! TD*
G04 #@! TA.AperFunction,SMDPad,CuDef*
%ADD14RoundRect,0.250000X0.475000X-0.337500X0.475000X0.337500X-0.475000X0.337500X-0.475000X-0.337500X0*%
G04 #@! TD*
G04 #@! TA.AperFunction,SMDPad,CuDef*
%ADD15R,1.000000X0.700000*%
G04 #@! TD*
G04 #@! TA.AperFunction,SMDPad,CuDef*
%ADD16R,0.700000X1.000000*%
G04 #@! TD*
G04 #@! TA.AperFunction,SMDPad,CuDef*
%ADD17RoundRect,0.237500X0.287500X0.237500X-0.287500X0.237500X-0.287500X-0.237500X0.287500X-0.237500X0*%
G04 #@! TD*
G04 #@! TA.AperFunction,SMDPad,CuDef*
%ADD18R,3.600000X1.270000*%
G04 #@! TD*
G04 #@! TA.AperFunction,SMDPad,CuDef*
%ADD19R,4.200000X1.350000*%
G04 #@! TD*
G04 #@! TA.AperFunction,ViaPad*
%ADD20C,0.800000*%
G04 #@! TD*
G04 #@! TA.AperFunction,Conductor*
%ADD21C,0.300000*%
G04 #@! TD*
G04 #@! TA.AperFunction,Conductor*
%ADD22C,0.500000*%
G04 #@! TD*
G04 APERTURE END LIST*
D10*
X122936000Y-92710000D03*
X124936000Y-92710000D03*
D11*
X115570000Y-85344000D03*
D12*
X115570000Y-82804000D03*
X115570000Y-80264000D03*
D11*
X117475000Y-93726000D03*
D12*
X117475000Y-91186000D03*
D13*
X133156000Y-91059000D03*
X131856000Y-91059000D03*
X130556000Y-91059000D03*
D14*
X125730000Y-40132000D03*
X125730000Y-38057000D03*
X127762000Y-40132000D03*
X127762000Y-38057000D03*
D15*
X121394000Y-75825000D03*
X121394000Y-76925000D03*
X121394000Y-78025000D03*
X121394000Y-79125000D03*
X121394000Y-80225000D03*
X121394000Y-81325000D03*
X121394000Y-82425000D03*
X121394000Y-83525000D03*
X121394000Y-84625000D03*
X121394000Y-85725000D03*
X121394000Y-86825000D03*
X121394000Y-87925000D03*
D16*
X123954000Y-88735000D03*
X125054000Y-88735000D03*
X126154000Y-88735000D03*
X127254000Y-88735000D03*
X128354000Y-88735000D03*
X129454000Y-88735000D03*
X130554000Y-88735000D03*
D15*
X133114000Y-87925000D03*
X133114000Y-86825000D03*
X133114000Y-85725000D03*
X133114000Y-84625000D03*
X133114000Y-83525000D03*
X133114000Y-82425000D03*
X133114000Y-81325000D03*
X133114000Y-80225000D03*
X133114000Y-79125000D03*
X133114000Y-78025000D03*
X133114000Y-76925000D03*
X133114000Y-75825000D03*
D14*
X135382000Y-88921500D03*
X135382000Y-86846500D03*
D17*
X128591000Y-93726000D03*
X126841000Y-93726000D03*
D10*
X122920000Y-90805000D03*
X124920000Y-90805000D03*
D18*
X139446000Y-76962000D03*
D19*
X139246000Y-74137000D03*
X139246000Y-79787000D03*
D17*
X128577000Y-90678000D03*
X126827000Y-90678000D03*
D10*
X122936000Y-94488000D03*
X124936000Y-94488000D03*
D17*
X128591000Y-92202000D03*
X126841000Y-92202000D03*
D20*
X122428000Y-71374000D03*
X134874000Y-75946000D03*
X134874000Y-77978000D03*
X130109000Y-93025000D03*
X125476000Y-36957000D03*
X135890000Y-77978000D03*
X136906000Y-75946000D03*
X135890000Y-75946000D03*
X136906000Y-77978000D03*
X123571000Y-69850000D03*
X125095000Y-80772000D03*
X129794000Y-87122000D03*
X129413000Y-42164000D03*
X137033000Y-86741000D03*
X125095000Y-42037000D03*
X134763000Y-92091000D03*
X129727000Y-73212000D03*
X134493000Y-73152000D03*
X123444000Y-72390000D03*
X123190000Y-86995000D03*
X125730000Y-87122000D03*
X124460000Y-87122000D03*
X121158000Y-94488000D03*
X128397000Y-87122000D03*
X127127000Y-87122000D03*
D21*
X123571000Y-38735000D02*
X123571000Y-69850000D01*
D22*
X129093000Y-93025000D02*
X130109000Y-93025000D01*
X125730000Y-38057000D02*
X127762000Y-38057000D01*
X128958000Y-91059000D02*
X128577000Y-90678000D01*
X128591000Y-92523000D02*
X129093000Y-93025000D01*
D21*
X124249000Y-38057000D02*
X123571000Y-38735000D01*
D22*
X125476000Y-36957000D02*
X125476000Y-37803000D01*
D21*
X125730000Y-38057000D02*
X124249000Y-38057000D01*
D22*
X128591000Y-92202000D02*
X128591000Y-92523000D01*
X125476000Y-37803000D02*
X125730000Y-38057000D01*
X130556000Y-91059000D02*
X128958000Y-91059000D01*
X117475000Y-91186000D02*
X117475000Y-81026000D01*
D21*
X125095000Y-82423000D02*
X125095000Y-80772000D01*
D22*
X116713000Y-80264000D02*
X115570000Y-80264000D01*
D21*
X129794000Y-87122000D02*
X125095000Y-82423000D01*
D22*
X117475000Y-81026000D02*
X116713000Y-80264000D01*
X133198000Y-86741000D02*
X133114000Y-86825000D01*
D21*
X125730000Y-41402000D02*
X125095000Y-42037000D01*
X129413000Y-68072000D02*
X128651000Y-68834000D01*
X128651000Y-68834000D02*
X128651000Y-84582000D01*
D22*
X129413000Y-40640000D02*
X128905000Y-40132000D01*
D21*
X130894000Y-86825000D02*
X133114000Y-86825000D01*
X133156000Y-91059000D02*
X133731000Y-91059000D01*
X129413000Y-42164000D02*
X129413000Y-68072000D01*
X128651000Y-84582000D02*
X130894000Y-86825000D01*
D22*
X129413000Y-42164000D02*
X129413000Y-40640000D01*
X137033000Y-86741000D02*
X133198000Y-86741000D01*
D21*
X125730000Y-40132000D02*
X125730000Y-41402000D01*
X133731000Y-91059000D02*
X134763000Y-92091000D01*
D22*
X128905000Y-40132000D02*
X125730000Y-40132000D01*
D21*
X134493000Y-73152000D02*
X129787000Y-73152000D01*
X129787000Y-73152000D02*
X129727000Y-73212000D01*
D22*
X126841000Y-94488000D02*
X124936000Y-94488000D01*
X126841000Y-93726000D02*
X126841000Y-94488000D01*
X123444000Y-86741000D02*
X123190000Y-86995000D01*
X123444000Y-72390000D02*
X123444000Y-86741000D01*
X126827000Y-90678000D02*
X125047000Y-90678000D01*
X125047000Y-90678000D02*
X124920000Y-90805000D01*
X126841000Y-92202000D02*
X125444000Y-92202000D01*
X125444000Y-92202000D02*
X124936000Y-92710000D01*
X131856000Y-91059000D02*
X131856000Y-90037000D01*
X131856000Y-90037000D02*
X130554000Y-88735000D01*
X139446000Y-76962000D02*
X133151000Y-76962000D01*
X133151000Y-76962000D02*
X133114000Y-76925000D01*
D21*
X125857000Y-87122000D02*
X126154000Y-87419000D01*
X126154000Y-87419000D02*
X126154000Y-88735000D01*
X125730000Y-87122000D02*
X125857000Y-87122000D01*
X125054000Y-87716000D02*
X125054000Y-88735000D01*
X124460000Y-87122000D02*
X125054000Y-87716000D01*
D22*
X120142000Y-88138000D02*
X120355000Y-87925000D01*
X122920000Y-90805000D02*
X120904000Y-90805000D01*
X120904000Y-90805000D02*
X120142000Y-90043000D01*
X120142000Y-90043000D02*
X120142000Y-88138000D01*
X120355000Y-87925000D02*
X121394000Y-87925000D01*
X119380000Y-87630000D02*
X120185000Y-86825000D01*
X120777000Y-92710000D02*
X119380000Y-91313000D01*
X122936000Y-92710000D02*
X120777000Y-92710000D01*
X120185000Y-86825000D02*
X121394000Y-86825000D01*
X119380000Y-91313000D02*
X119380000Y-87630000D01*
D21*
X121158000Y-94488000D02*
X122936000Y-94488000D01*
X128397000Y-88692000D02*
X128354000Y-88735000D01*
X128397000Y-87122000D02*
X128397000Y-88692000D01*
X127127000Y-88608000D02*
X127254000Y-88735000D01*
X127127000Y-87122000D02*
X127127000Y-88608000D01*
G04 #@! TA.AperFunction,Conductor*
G36*
X128188621Y-69108002D02*
G01*
X128235114Y-69161658D01*
X128246500Y-69214000D01*
X128246500Y-84646066D01*
X128249565Y-84655498D01*
X128249565Y-84655500D01*
X128253395Y-84667287D01*
X128258009Y-84686502D01*
X128258970Y-84692566D01*
X128249874Y-84762976D01*
X128204155Y-84817293D01*
X128136328Y-84838269D01*
X128067928Y-84819246D01*
X128045427Y-84801377D01*
X125536405Y-82292355D01*
X125502379Y-82230043D01*
X125499500Y-82203260D01*
X125499500Y-81345378D01*
X125519502Y-81277257D01*
X125543669Y-81249567D01*
X125574536Y-81223204D01*
X125580314Y-81218269D01*
X125672755Y-81089624D01*
X125731842Y-80942641D01*
X125741501Y-80874773D01*
X125753581Y-80789891D01*
X125753581Y-80789888D01*
X125754162Y-80785807D01*
X125754307Y-80772000D01*
X125735276Y-80614733D01*
X125679280Y-80466546D01*
X125589553Y-80335992D01*
X125471275Y-80230611D01*
X125463889Y-80226700D01*
X125337988Y-80160039D01*
X125337989Y-80160039D01*
X125331274Y-80156484D01*
X125177633Y-80117892D01*
X125170034Y-80117852D01*
X125170033Y-80117852D01*
X125104181Y-80117507D01*
X125019221Y-80117062D01*
X125011841Y-80118834D01*
X125011839Y-80118834D01*
X124872563Y-80152271D01*
X124872560Y-80152272D01*
X124865184Y-80154043D01*
X124724414Y-80226700D01*
X124605039Y-80330838D01*
X124513950Y-80460444D01*
X124511190Y-80467524D01*
X124459514Y-80600066D01*
X124456406Y-80608037D01*
X124455414Y-80615570D01*
X124455414Y-80615571D01*
X124437533Y-80751395D01*
X124435729Y-80765096D01*
X124439785Y-80801832D01*
X124451829Y-80910920D01*
X124453113Y-80922553D01*
X124455723Y-80929684D01*
X124455723Y-80929686D01*
X124502649Y-81057917D01*
X124507553Y-81071319D01*
X124511789Y-81077622D01*
X124511789Y-81077623D01*
X124591674Y-81196505D01*
X124591677Y-81196508D01*
X124595908Y-81202805D01*
X124635479Y-81238812D01*
X124649300Y-81251388D01*
X124686222Y-81312029D01*
X124690500Y-81344582D01*
X124690500Y-82487066D01*
X124693565Y-82496498D01*
X124693565Y-82496500D01*
X124697395Y-82508287D01*
X124702011Y-82527513D01*
X124705502Y-82549555D01*
X124710003Y-82558388D01*
X124715633Y-82569438D01*
X124723199Y-82587704D01*
X124730095Y-82608929D01*
X124735925Y-82616953D01*
X124743216Y-82626989D01*
X124753545Y-82643844D01*
X124763674Y-82663723D01*
X124786462Y-82686511D01*
X124786465Y-82686515D01*
X128360336Y-86260385D01*
X128394362Y-86322697D01*
X128389297Y-86393512D01*
X128346750Y-86450348D01*
X128300656Y-86471999D01*
X128251206Y-86483871D01*
X128167184Y-86504043D01*
X128026414Y-86576700D01*
X127907039Y-86680838D01*
X127902672Y-86687052D01*
X127902669Y-86687055D01*
X127865153Y-86740435D01*
X127809619Y-86784667D01*
X127738987Y-86791853D01*
X127675682Y-86759712D01*
X127658226Y-86739352D01*
X127625855Y-86692251D01*
X127625854Y-86692249D01*
X127621553Y-86685992D01*
X127611717Y-86677228D01*
X127585260Y-86653656D01*
X127503275Y-86580611D01*
X127495889Y-86576700D01*
X127369988Y-86510039D01*
X127369989Y-86510039D01*
X127363274Y-86506484D01*
X127209633Y-86467892D01*
X127202034Y-86467852D01*
X127202033Y-86467852D01*
X127136181Y-86467507D01*
X127051221Y-86467062D01*
X127043841Y-86468834D01*
X127043839Y-86468834D01*
X126904563Y-86502271D01*
X126904560Y-86502272D01*
X126897184Y-86504043D01*
X126756414Y-86576700D01*
X126637039Y-86680838D01*
X126545950Y-86810444D01*
X126543189Y-86817525D01*
X126539602Y-86824215D01*
X126536654Y-86822634D01*
X126502425Y-86866943D01*
X126435536Y-86890744D01*
X126366399Y-86874603D01*
X126316870Y-86823401D01*
X126314280Y-86816546D01*
X126261226Y-86739352D01*
X126228855Y-86692251D01*
X126228854Y-86692249D01*
X126224553Y-86685992D01*
X126214717Y-86677228D01*
X126188260Y-86653656D01*
X126106275Y-86580611D01*
X126098889Y-86576700D01*
X125972988Y-86510039D01*
X125972989Y-86510039D01*
X125966274Y-86506484D01*
X125812633Y-86467892D01*
X125805034Y-86467852D01*
X125805033Y-86467852D01*
X125739181Y-86467507D01*
X125654221Y-86467062D01*
X125646841Y-86468834D01*
X125646839Y-86468834D01*
X125507563Y-86502271D01*
X125507560Y-86502272D01*
X125500184Y-86504043D01*
X125359414Y-86576700D01*
X125240039Y-86680838D01*
X125235672Y-86687052D01*
X125235669Y-86687055D01*
X125198153Y-86740435D01*
X125142619Y-86784667D01*
X125071987Y-86791853D01*
X125008682Y-86759712D01*
X124991226Y-86739352D01*
X124958855Y-86692251D01*
X124958854Y-86692249D01*
X124954553Y-86685992D01*
X124944717Y-86677228D01*
X124918260Y-86653656D01*
X124836275Y-86580611D01*
X124828889Y-86576700D01*
X124702988Y-86510039D01*
X124702989Y-86510039D01*
X124696274Y-86506484D01*
X124542633Y-86467892D01*
X124535034Y-86467852D01*
X124535033Y-86467852D01*
X124469181Y-86467507D01*
X124384221Y-86467062D01*
X124376841Y-86468834D01*
X124376839Y-86468834D01*
X124237563Y-86502271D01*
X124237560Y-86502272D01*
X124230184Y-86504043D01*
X124223439Y-86507524D01*
X124223440Y-86507524D01*
X124132290Y-86554570D01*
X124062583Y-86568039D01*
X123996659Y-86541684D01*
X123955450Y-86483871D01*
X123948500Y-86442604D01*
X123948500Y-72850144D01*
X123972176Y-72776620D01*
X124021755Y-72707624D01*
X124080842Y-72560641D01*
X124103162Y-72403807D01*
X124103307Y-72390000D01*
X124084276Y-72232733D01*
X124028280Y-72084546D01*
X123938553Y-71953992D01*
X123820275Y-71848611D01*
X123812889Y-71844700D01*
X123686988Y-71778039D01*
X123686989Y-71778039D01*
X123680274Y-71774484D01*
X123526633Y-71735892D01*
X123519034Y-71735852D01*
X123519033Y-71735852D01*
X123453181Y-71735507D01*
X123368221Y-71735062D01*
X123360841Y-71736834D01*
X123360839Y-71736834D01*
X123221563Y-71770271D01*
X123221560Y-71770272D01*
X123214184Y-71772043D01*
X123073414Y-71844700D01*
X122954039Y-71948838D01*
X122862950Y-72078444D01*
X122805406Y-72226037D01*
X122784729Y-72383096D01*
X122793421Y-72461825D01*
X122801199Y-72532271D01*
X122802113Y-72540553D01*
X122804723Y-72547684D01*
X122804723Y-72547686D01*
X122850103Y-72671692D01*
X122856553Y-72689319D01*
X122860789Y-72695622D01*
X122860789Y-72695623D01*
X122918082Y-72780884D01*
X122939500Y-72851160D01*
X122939500Y-86310959D01*
X122919498Y-86379080D01*
X122871291Y-86422925D01*
X122819414Y-86449700D01*
X122813695Y-86454689D01*
X122808148Y-86459528D01*
X122700039Y-86553838D01*
X122608950Y-86683444D01*
X122586730Y-86740435D01*
X122557056Y-86816546D01*
X122551406Y-86831037D01*
X122550414Y-86838570D01*
X122550414Y-86838571D01*
X122533805Y-86964733D01*
X122530729Y-86988096D01*
X122531563Y-86995646D01*
X122545513Y-87122000D01*
X122548113Y-87145553D01*
X122550723Y-87152684D01*
X122550723Y-87152686D01*
X122599185Y-87285115D01*
X122602553Y-87294319D01*
X122606789Y-87300622D01*
X122606789Y-87300623D01*
X122683469Y-87414734D01*
X122690908Y-87425805D01*
X122696527Y-87430918D01*
X122696528Y-87430919D01*
X122782191Y-87508866D01*
X122808076Y-87532419D01*
X122947293Y-87608008D01*
X123100522Y-87648207D01*
X123184477Y-87649526D01*
X123251319Y-87650576D01*
X123251322Y-87650576D01*
X123258916Y-87650695D01*
X123413332Y-87615329D01*
X123498696Y-87572396D01*
X123548072Y-87547563D01*
X123548075Y-87547561D01*
X123554855Y-87544151D01*
X123560626Y-87539222D01*
X123560629Y-87539220D01*
X123669536Y-87446204D01*
X123669536Y-87446203D01*
X123675314Y-87441269D01*
X123679750Y-87435096D01*
X123684885Y-87429511D01*
X123686310Y-87430821D01*
X123734373Y-87393359D01*
X123805077Y-87386915D01*
X123868040Y-87419719D01*
X123885277Y-87440255D01*
X123960908Y-87552805D01*
X123966527Y-87557918D01*
X123966528Y-87557919D01*
X124068488Y-87650695D01*
X124078076Y-87659419D01*
X124217293Y-87735008D01*
X124224636Y-87736934D01*
X124225683Y-87737349D01*
X124281656Y-87781024D01*
X124305132Y-87848027D01*
X124288656Y-87917085D01*
X124237459Y-87966273D01*
X124179298Y-87980500D01*
X123608702Y-87980501D01*
X123578934Y-87980501D01*
X123543182Y-87987612D01*
X123516874Y-87992844D01*
X123516872Y-87992845D01*
X123504699Y-87995266D01*
X123494379Y-88002161D01*
X123494378Y-88002162D01*
X123465752Y-88021290D01*
X123420516Y-88051516D01*
X123364266Y-88135699D01*
X123349500Y-88209933D01*
X123349501Y-89260066D01*
X123364266Y-89334301D01*
X123420516Y-89418484D01*
X123430832Y-89425377D01*
X123474003Y-89454223D01*
X123504699Y-89474734D01*
X123578933Y-89489500D01*
X123953939Y-89489500D01*
X124329066Y-89489499D01*
X124364818Y-89482388D01*
X124391126Y-89477156D01*
X124391128Y-89477155D01*
X124403301Y-89474734D01*
X124413621Y-89467839D01*
X124413622Y-89467838D01*
X124433998Y-89454223D01*
X124501751Y-89433008D01*
X124574002Y-89454223D01*
X124594379Y-89467839D01*
X124594382Y-89467840D01*
X124604699Y-89474734D01*
X124678933Y-89489500D01*
X125053939Y-89489500D01*
X125429066Y-89489499D01*
X125464818Y-89482388D01*
X125491126Y-89477156D01*
X125491128Y-89477155D01*
X125503301Y-89474734D01*
X125513621Y-89467839D01*
X125513622Y-89467838D01*
X125533998Y-89454223D01*
X125601751Y-89433008D01*
X125674002Y-89454223D01*
X125694379Y-89467839D01*
X125694382Y-89467840D01*
X125704699Y-89474734D01*
X125778933Y-89489500D01*
X126153939Y-89489500D01*
X126529066Y-89489499D01*
X126564818Y-89482388D01*
X126591126Y-89477156D01*
X126591128Y-89477155D01*
X126603301Y-89474734D01*
X126613621Y-89467839D01*
X126613622Y-89467838D01*
X126633998Y-89454223D01*
X126701751Y-89433008D01*
X126774002Y-89454223D01*
X126794379Y-89467839D01*
X126794382Y-89467840D01*
X126804699Y-89474734D01*
X126878933Y-89489500D01*
X127253939Y-89489500D01*
X127629066Y-89489499D01*
X127664818Y-89482388D01*
X127691126Y-89477156D01*
X127691128Y-89477155D01*
X127703301Y-89474734D01*
X127713621Y-89467839D01*
X127713622Y-89467838D01*
X127733998Y-89454223D01*
X127801751Y-89433008D01*
X127874002Y-89454223D01*
X127894379Y-89467839D01*
X127894382Y-89467840D01*
X127904699Y-89474734D01*
X127978933Y-89489500D01*
X128353939Y-89489500D01*
X128729066Y-89489499D01*
X128764818Y-89482388D01*
X128791126Y-89477156D01*
X128791128Y-89477155D01*
X128803301Y-89474734D01*
X128813621Y-89467839D01*
X128813622Y-89467838D01*
X128833998Y-89454223D01*
X128901751Y-89433008D01*
X128974002Y-89454223D01*
X128994379Y-89467839D01*
X128994382Y-89467840D01*
X129004699Y-89474734D01*
X129078933Y-89489500D01*
X129453939Y-89489500D01*
X129829066Y-89489499D01*
X129864818Y-89482388D01*
X129891126Y-89477156D01*
X129891128Y-89477155D01*
X129903301Y-89474734D01*
X129913621Y-89467839D01*
X129913622Y-89467838D01*
X129933998Y-89454223D01*
X130001751Y-89433008D01*
X130074002Y-89454223D01*
X130094379Y-89467839D01*
X130094382Y-89467840D01*
X130104699Y-89474734D01*
X130178933Y-89489500D01*
X130223032Y-89489500D01*
X130542838Y-89489499D01*
X130610958Y-89509501D01*
X130631933Y-89526404D01*
X131122840Y-90017311D01*
X131156866Y-90079623D01*
X131151801Y-90150438D01*
X131138511Y-90176407D01*
X131116266Y-90209699D01*
X131101500Y-90283933D01*
X131101501Y-91834066D01*
X131107519Y-91864323D01*
X131113465Y-91894216D01*
X131116266Y-91908301D01*
X131123161Y-91918621D01*
X131123162Y-91918622D01*
X131128514Y-91926631D01*
X131172516Y-91992484D01*
X131256699Y-92048734D01*
X131330933Y-92063500D01*
X131855915Y-92063500D01*
X132381066Y-92063499D01*
X132455301Y-92048734D01*
X132461333Y-92044703D01*
X132528373Y-92037496D01*
X132548902Y-92043524D01*
X132556699Y-92048734D01*
X132630933Y-92063500D01*
X133155915Y-92063500D01*
X133681066Y-92063499D01*
X133716818Y-92056388D01*
X133743126Y-92051156D01*
X133743128Y-92051155D01*
X133755301Y-92048734D01*
X133765621Y-92041839D01*
X133765622Y-92041838D01*
X133829168Y-91999377D01*
X133839484Y-91992484D01*
X133854277Y-91970345D01*
X133855506Y-91968506D01*
X133909984Y-91922979D01*
X133980428Y-91914133D01*
X134049365Y-91949415D01*
X134069136Y-91969186D01*
X134103162Y-92031498D01*
X134104722Y-92068968D01*
X134104800Y-92068969D01*
X134104784Y-92070466D01*
X134104962Y-92074731D01*
X134103729Y-92084096D01*
X134108105Y-92123729D01*
X134117133Y-92205500D01*
X134121113Y-92241553D01*
X134123723Y-92248684D01*
X134123723Y-92248686D01*
X134137367Y-92285969D01*
X134175553Y-92390319D01*
X134263908Y-92521805D01*
X134269527Y-92526918D01*
X134269528Y-92526919D01*
X134280903Y-92537269D01*
X134381076Y-92628419D01*
X134520293Y-92704008D01*
X134673522Y-92744207D01*
X134757477Y-92745526D01*
X134824319Y-92746576D01*
X134824322Y-92746576D01*
X134831916Y-92746695D01*
X134986332Y-92711329D01*
X135068914Y-92669795D01*
X135121072Y-92643563D01*
X135121075Y-92643561D01*
X135127855Y-92640151D01*
X135133626Y-92635222D01*
X135133629Y-92635220D01*
X135242536Y-92542204D01*
X135242536Y-92542203D01*
X135248314Y-92537269D01*
X135340755Y-92408624D01*
X135399842Y-92261641D01*
X135414192Y-92160812D01*
X135421581Y-92108891D01*
X135421581Y-92108888D01*
X135422162Y-92104807D01*
X135422307Y-92091000D01*
X135403276Y-91933733D01*
X135347280Y-91785546D01*
X135312796Y-91735371D01*
X135261855Y-91661251D01*
X135261854Y-91661249D01*
X135257553Y-91654992D01*
X135243205Y-91642208D01*
X135181919Y-91587605D01*
X135139275Y-91549611D01*
X134999274Y-91475484D01*
X134845633Y-91436892D01*
X134838034Y-91436852D01*
X134838033Y-91436852D01*
X134742292Y-91436351D01*
X134731878Y-91436296D01*
X134663863Y-91415938D01*
X134643443Y-91399393D01*
X133994515Y-90750465D01*
X133994511Y-90750462D01*
X133971723Y-90727674D01*
X133962881Y-90723169D01*
X133962437Y-90722846D01*
X133919084Y-90666623D01*
X133910499Y-90620910D01*
X133910499Y-90283934D01*
X133895734Y-90209699D01*
X133839484Y-90125516D01*
X133755301Y-90069266D01*
X133681067Y-90054500D01*
X133156085Y-90054500D01*
X132630934Y-90054501D01*
X132556699Y-90069266D01*
X132550667Y-90073297D01*
X132483627Y-90080504D01*
X132463097Y-90074475D01*
X132455301Y-90069266D01*
X132443130Y-90066845D01*
X132433923Y-90063031D01*
X132378644Y-90018481D01*
X132356387Y-89954423D01*
X132355654Y-89942600D01*
X132355654Y-89942598D01*
X132355098Y-89933641D01*
X132352051Y-89925201D01*
X132351370Y-89921911D01*
X132347418Y-89906062D01*
X132346473Y-89902832D01*
X132345201Y-89893948D01*
X132325774Y-89851218D01*
X132321964Y-89841860D01*
X132309075Y-89806158D01*
X132309074Y-89806157D01*
X132306027Y-89797716D01*
X132300731Y-89790467D01*
X132299146Y-89787486D01*
X132290920Y-89773408D01*
X132289104Y-89770569D01*
X132285388Y-89762395D01*
X132254757Y-89726846D01*
X132248465Y-89718923D01*
X132240527Y-89708056D01*
X132229665Y-89697194D01*
X132223307Y-89690347D01*
X132196915Y-89659718D01*
X132191056Y-89652918D01*
X132183521Y-89648034D01*
X132176949Y-89642301D01*
X132165545Y-89633074D01*
X131195404Y-88662933D01*
X131161378Y-88600621D01*
X131158499Y-88573838D01*
X131158499Y-88209934D01*
X131143734Y-88135699D01*
X131087484Y-88051516D01*
X131042248Y-88021290D01*
X131013620Y-88002161D01*
X131013618Y-88002160D01*
X131003301Y-87995266D01*
X130929067Y-87980500D01*
X130554061Y-87980500D01*
X130178934Y-87980501D01*
X130143182Y-87987612D01*
X130116874Y-87992844D01*
X130116872Y-87992845D01*
X130104699Y-87995266D01*
X130094379Y-88002161D01*
X130094378Y-88002162D01*
X130074002Y-88015777D01*
X130006249Y-88036992D01*
X129933998Y-88015777D01*
X129913621Y-88002161D01*
X129913618Y-88002160D01*
X129903301Y-87995266D01*
X129903534Y-87994917D01*
X129856084Y-87956679D01*
X129833663Y-87889315D01*
X129851221Y-87820524D01*
X129903183Y-87772146D01*
X129931453Y-87761998D01*
X130009929Y-87744025D01*
X130009933Y-87744024D01*
X130017332Y-87742329D01*
X130087742Y-87706917D01*
X130152072Y-87674563D01*
X130152075Y-87674561D01*
X130158855Y-87671151D01*
X130164626Y-87666222D01*
X130164629Y-87666220D01*
X130273536Y-87573204D01*
X130273536Y-87573203D01*
X130279314Y-87568269D01*
X130371755Y-87439624D01*
X130430842Y-87292641D01*
X130434704Y-87265502D01*
X130440028Y-87228096D01*
X130469429Y-87163473D01*
X130529100Y-87125004D01*
X130600096Y-87124902D01*
X130638834Y-87143914D01*
X130646262Y-87149311D01*
X130653277Y-87156326D01*
X130672924Y-87166337D01*
X130673154Y-87166454D01*
X130690011Y-87176784D01*
X130708071Y-87189905D01*
X130717504Y-87192970D01*
X130729295Y-87196801D01*
X130747561Y-87204366D01*
X130767445Y-87214498D01*
X130777238Y-87216049D01*
X130789487Y-87217989D01*
X130808713Y-87222605D01*
X130820500Y-87226435D01*
X130820502Y-87226435D01*
X130829934Y-87229500D01*
X132276983Y-87229500D01*
X132345104Y-87249502D01*
X132381747Y-87285497D01*
X132430516Y-87358484D01*
X132514699Y-87414734D01*
X132588933Y-87429500D01*
X133113915Y-87429500D01*
X133639066Y-87429499D01*
X133674818Y-87422388D01*
X133701126Y-87417156D01*
X133701128Y-87417155D01*
X133713301Y-87414734D01*
X133723621Y-87407839D01*
X133723622Y-87407838D01*
X133787168Y-87365377D01*
X133797484Y-87358484D01*
X133835562Y-87301497D01*
X133890038Y-87255970D01*
X133940326Y-87245500D01*
X134303900Y-87245500D01*
X134372021Y-87265502D01*
X134418514Y-87319158D01*
X134421882Y-87327272D01*
X134445966Y-87391516D01*
X134459929Y-87428764D01*
X134465309Y-87435943D01*
X134465311Y-87435946D01*
X134499064Y-87480982D01*
X134546596Y-87544404D01*
X134562233Y-87556123D01*
X134655054Y-87625689D01*
X134655057Y-87625691D01*
X134662236Y-87631071D01*
X134737855Y-87659419D01*
X134790157Y-87679026D01*
X134790159Y-87679026D01*
X134797552Y-87681798D01*
X134805402Y-87682651D01*
X134805403Y-87682651D01*
X134855847Y-87688131D01*
X134859244Y-87688500D01*
X135904756Y-87688500D01*
X135908153Y-87688131D01*
X135958597Y-87682651D01*
X135958598Y-87682651D01*
X135966448Y-87681798D01*
X135973841Y-87679026D01*
X135973843Y-87679026D01*
X136026145Y-87659419D01*
X136101764Y-87631071D01*
X136108943Y-87625691D01*
X136108946Y-87625689D01*
X136201767Y-87556123D01*
X136217404Y-87544404D01*
X136264936Y-87480982D01*
X136298689Y-87435946D01*
X136298691Y-87435943D01*
X136304071Y-87428764D01*
X136318035Y-87391516D01*
X136342118Y-87327272D01*
X136384759Y-87270507D01*
X136451320Y-87245806D01*
X136460100Y-87245500D01*
X136566153Y-87245500D01*
X136634274Y-87265502D01*
X136639068Y-87269185D01*
X136639266Y-87268907D01*
X136645459Y-87273308D01*
X136651076Y-87278419D01*
X136790293Y-87354008D01*
X136943522Y-87394207D01*
X137027477Y-87395526D01*
X137094319Y-87396576D01*
X137094322Y-87396576D01*
X137101916Y-87396695D01*
X137256332Y-87361329D01*
X137326742Y-87325917D01*
X137391072Y-87293563D01*
X137391075Y-87293561D01*
X137397855Y-87290151D01*
X137403626Y-87285222D01*
X137403629Y-87285220D01*
X137512536Y-87192204D01*
X137512536Y-87192203D01*
X137518314Y-87187269D01*
X137610755Y-87058624D01*
X137669842Y-86911641D01*
X137686890Y-86791853D01*
X137691581Y-86758891D01*
X137691581Y-86758888D01*
X137692162Y-86754807D01*
X137692307Y-86741000D01*
X137673276Y-86583733D01*
X137617280Y-86435546D01*
X137584410Y-86387719D01*
X137531855Y-86311251D01*
X137531854Y-86311249D01*
X137527553Y-86304992D01*
X137409275Y-86199611D01*
X137401889Y-86195700D01*
X137338478Y-86162126D01*
X137269274Y-86125484D01*
X137115633Y-86086892D01*
X137108034Y-86086852D01*
X137108033Y-86086852D01*
X137042181Y-86086507D01*
X136957221Y-86086062D01*
X136949841Y-86087834D01*
X136949839Y-86087834D01*
X136810563Y-86121271D01*
X136810560Y-86121272D01*
X136803184Y-86123043D01*
X136662414Y-86195700D01*
X136656692Y-86200692D01*
X136656690Y-86200693D01*
X136651236Y-86205451D01*
X136586753Y-86235157D01*
X136568409Y-86236500D01*
X136346311Y-86236500D01*
X136278190Y-86216498D01*
X136245486Y-86186066D01*
X136217404Y-86148596D01*
X136180944Y-86121271D01*
X136108946Y-86067311D01*
X136108943Y-86067309D01*
X136101764Y-86061929D01*
X136012046Y-86028296D01*
X135973843Y-86013974D01*
X135973841Y-86013974D01*
X135966448Y-86011202D01*
X135958598Y-86010349D01*
X135958597Y-86010349D01*
X135908153Y-86004869D01*
X135908152Y-86004869D01*
X135904756Y-86004500D01*
X134859244Y-86004500D01*
X134855848Y-86004869D01*
X134855847Y-86004869D01*
X134805403Y-86010349D01*
X134805402Y-86010349D01*
X134797552Y-86011202D01*
X134790159Y-86013974D01*
X134790157Y-86013974D01*
X134751954Y-86028296D01*
X134662236Y-86061929D01*
X134655057Y-86067309D01*
X134655054Y-86067311D01*
X134583056Y-86121271D01*
X134546596Y-86148596D01*
X134518515Y-86186065D01*
X134461657Y-86228580D01*
X134417689Y-86236500D01*
X133731915Y-86236500D01*
X133707334Y-86234079D01*
X133645135Y-86221707D01*
X133639067Y-86220500D01*
X133114085Y-86220500D01*
X132588934Y-86220501D01*
X132553182Y-86227612D01*
X132526874Y-86232844D01*
X132526872Y-86232845D01*
X132514699Y-86235266D01*
X132504379Y-86242161D01*
X132504378Y-86242162D01*
X132479951Y-86258484D01*
X132430516Y-86291516D01*
X132387947Y-86355225D01*
X132381748Y-86364502D01*
X132327271Y-86410030D01*
X132276983Y-86420500D01*
X131113740Y-86420500D01*
X131045619Y-86400498D01*
X131024645Y-86383595D01*
X129092405Y-84451355D01*
X129058379Y-84389043D01*
X129055500Y-84362260D01*
X129055500Y-84249933D01*
X132359500Y-84249933D01*
X132359501Y-85000066D01*
X132374266Y-85074301D01*
X132430516Y-85158484D01*
X132514699Y-85214734D01*
X132588933Y-85229500D01*
X133113915Y-85229500D01*
X133639066Y-85229499D01*
X133674818Y-85222388D01*
X133701126Y-85217156D01*
X133701128Y-85217155D01*
X133713301Y-85214734D01*
X133723621Y-85207839D01*
X133723622Y-85207838D01*
X133787168Y-85165377D01*
X133797484Y-85158484D01*
X133853734Y-85074301D01*
X133868500Y-85000067D01*
X133868499Y-84249934D01*
X133853734Y-84175699D01*
X133833223Y-84145002D01*
X133812008Y-84077249D01*
X133833223Y-84004998D01*
X133846839Y-83984621D01*
X133846840Y-83984618D01*
X133853734Y-83974301D01*
X133868500Y-83900067D01*
X133868499Y-83149934D01*
X133853734Y-83075699D01*
X133833223Y-83045002D01*
X133812008Y-82977249D01*
X133833223Y-82904998D01*
X133846839Y-82884621D01*
X133846840Y-82884618D01*
X133853734Y-82874301D01*
X133868500Y-82800067D01*
X133868499Y-82049934D01*
X133853734Y-81975699D01*
X133833223Y-81945002D01*
X133812008Y-81877249D01*
X133833223Y-81804998D01*
X133846839Y-81784621D01*
X133846840Y-81784618D01*
X133853734Y-81774301D01*
X133868500Y-81700067D01*
X133868499Y-80949934D01*
X133853734Y-80875699D01*
X133797484Y-80791516D01*
X133713301Y-80735266D01*
X133639067Y-80720500D01*
X133114085Y-80720500D01*
X132588934Y-80720501D01*
X132553182Y-80727612D01*
X132526874Y-80732844D01*
X132526872Y-80732845D01*
X132514699Y-80735266D01*
X132504379Y-80742161D01*
X132504378Y-80742162D01*
X132458599Y-80772751D01*
X132430516Y-80791516D01*
X132374266Y-80875699D01*
X132359500Y-80949933D01*
X132359501Y-81700066D01*
X132374266Y-81774301D01*
X132381161Y-81784621D01*
X132381162Y-81784622D01*
X132394777Y-81804998D01*
X132415992Y-81872751D01*
X132394777Y-81945002D01*
X132381161Y-81965379D01*
X132381160Y-81965382D01*
X132374266Y-81975699D01*
X132359500Y-82049933D01*
X132359501Y-82800066D01*
X132366612Y-82835818D01*
X132371830Y-82862053D01*
X132374266Y-82874301D01*
X132381161Y-82884621D01*
X132381162Y-82884622D01*
X132394777Y-82904998D01*
X132415992Y-82972751D01*
X132394777Y-83045002D01*
X132381161Y-83065379D01*
X132381160Y-83065382D01*
X132374266Y-83075699D01*
X132359500Y-83149933D01*
X132359501Y-83900066D01*
X132374266Y-83974301D01*
X132381161Y-83984621D01*
X132381162Y-83984622D01*
X132394777Y-84004998D01*
X132415992Y-84072751D01*
X132394777Y-84145002D01*
X132381161Y-84165379D01*
X132381160Y-84165382D01*
X132374266Y-84175699D01*
X132359500Y-84249933D01*
X129055500Y-84249933D01*
X129055500Y-73770932D01*
X129075502Y-73702811D01*
X129129158Y-73656318D01*
X129199432Y-73646214D01*
X129266299Y-73677738D01*
X129295780Y-73704563D01*
X129345076Y-73749419D01*
X129484293Y-73825008D01*
X129637522Y-73865207D01*
X129721477Y-73866526D01*
X129788319Y-73867576D01*
X129788322Y-73867576D01*
X129795916Y-73867695D01*
X129950332Y-73832329D01*
X130066260Y-73774024D01*
X130085072Y-73764563D01*
X130085075Y-73764561D01*
X130091855Y-73761151D01*
X130097626Y-73756222D01*
X130097629Y-73756220D01*
X130206537Y-73663203D01*
X130212314Y-73658269D01*
X130247737Y-73608973D01*
X130303731Y-73565326D01*
X130350059Y-73556500D01*
X133916254Y-73556500D01*
X133984375Y-73576502D01*
X134001050Y-73589304D01*
X134111076Y-73689419D01*
X134250293Y-73765008D01*
X134403522Y-73805207D01*
X134487477Y-73806526D01*
X134554319Y-73807576D01*
X134554322Y-73807576D01*
X134561916Y-73807695D01*
X134716332Y-73772329D01*
X134786742Y-73736917D01*
X134851072Y-73704563D01*
X134851075Y-73704561D01*
X134857855Y-73701151D01*
X134863626Y-73696222D01*
X134863629Y-73696220D01*
X134972536Y-73603204D01*
X134972536Y-73603203D01*
X134978314Y-73598269D01*
X135070755Y-73469624D01*
X135129842Y-73322641D01*
X135152162Y-73165807D01*
X135152307Y-73152000D01*
X135133276Y-72994733D01*
X135077280Y-72846546D01*
X135054058Y-72812757D01*
X134991855Y-72722251D01*
X134991854Y-72722249D01*
X134987553Y-72715992D01*
X134869275Y-72610611D01*
X134861889Y-72606700D01*
X134771486Y-72558834D01*
X134729274Y-72536484D01*
X134575633Y-72497892D01*
X134568034Y-72497852D01*
X134568033Y-72497852D01*
X134502181Y-72497507D01*
X134417221Y-72497062D01*
X134409841Y-72498834D01*
X134409839Y-72498834D01*
X134270563Y-72532271D01*
X134270560Y-72532272D01*
X134263184Y-72534043D01*
X134122414Y-72606700D01*
X134116695Y-72611689D01*
X134035884Y-72682185D01*
X134003039Y-72710838D01*
X134002198Y-72709874D01*
X133948349Y-72743050D01*
X133915157Y-72747500D01*
X130237563Y-72747500D01*
X130169442Y-72727498D01*
X130153744Y-72715577D01*
X130144818Y-72707624D01*
X130103275Y-72670611D01*
X130095889Y-72666700D01*
X130057565Y-72646409D01*
X129963274Y-72596484D01*
X129809633Y-72557892D01*
X129802034Y-72557852D01*
X129802033Y-72557852D01*
X129736181Y-72557507D01*
X129651221Y-72557062D01*
X129643841Y-72558834D01*
X129643839Y-72558834D01*
X129504563Y-72592271D01*
X129504560Y-72592272D01*
X129497184Y-72594043D01*
X129356414Y-72666700D01*
X129350697Y-72671687D01*
X129350690Y-72671692D01*
X129264329Y-72747030D01*
X129199847Y-72776738D01*
X129129540Y-72766868D01*
X129075730Y-72720555D01*
X129055500Y-72652081D01*
X129055500Y-69214000D01*
X129075502Y-69145879D01*
X129129158Y-69099386D01*
X129181500Y-69088000D01*
X140590000Y-69088000D01*
X140658121Y-69108002D01*
X140704614Y-69161658D01*
X140716000Y-69214000D01*
X140716000Y-75946500D01*
X140695998Y-76014621D01*
X140642342Y-76061114D01*
X140590000Y-76072500D01*
X137653805Y-76072501D01*
X137620934Y-76072501D01*
X137585182Y-76079612D01*
X137558874Y-76084844D01*
X137558872Y-76084845D01*
X137546699Y-76087266D01*
X137536379Y-76094161D01*
X137536378Y-76094162D01*
X137475985Y-76134516D01*
X137462516Y-76143516D01*
X137406266Y-76227699D01*
X137391500Y-76301933D01*
X137391500Y-76331500D01*
X137371498Y-76399621D01*
X137317842Y-76446114D01*
X137265500Y-76457500D01*
X133908922Y-76457500D01*
X133840801Y-76437498D01*
X133813291Y-76410474D01*
X133813155Y-76410610D01*
X133804377Y-76401832D01*
X133797484Y-76391516D01*
X133787168Y-76384623D01*
X133787166Y-76384621D01*
X133723620Y-76342161D01*
X133713301Y-76335266D01*
X133639067Y-76320500D01*
X133114085Y-76320500D01*
X132588934Y-76320501D01*
X132553182Y-76327612D01*
X132526874Y-76332844D01*
X132526872Y-76332845D01*
X132514699Y-76335266D01*
X132504379Y-76342161D01*
X132504378Y-76342162D01*
X132443985Y-76382516D01*
X132430516Y-76391516D01*
X132374266Y-76475699D01*
X132359500Y-76549933D01*
X132359501Y-77300066D01*
X132374266Y-77374301D01*
X132430516Y-77458484D01*
X132514699Y-77514734D01*
X132588933Y-77529500D01*
X133113915Y-77529500D01*
X133639066Y-77529499D01*
X133713301Y-77514734D01*
X133723620Y-77507839D01*
X133723622Y-77507838D01*
X133753707Y-77487736D01*
X133823710Y-77466500D01*
X137265501Y-77466500D01*
X137333622Y-77486502D01*
X137380115Y-77540158D01*
X137391501Y-77592500D01*
X137391501Y-77622066D01*
X137406266Y-77696301D01*
X137462516Y-77780484D01*
X137546699Y-77836734D01*
X137620933Y-77851500D01*
X137653793Y-77851500D01*
X140590001Y-77851499D01*
X140658121Y-77871501D01*
X140704614Y-77925157D01*
X140716000Y-77977499D01*
X140716000Y-95378000D01*
X140695998Y-95446121D01*
X140642342Y-95492614D01*
X140590000Y-95504000D01*
X125743199Y-95504000D01*
X125675078Y-95483998D01*
X125628585Y-95430342D01*
X125618481Y-95360068D01*
X125646582Y-95298538D01*
X125646404Y-95298404D01*
X125647016Y-95297587D01*
X125688761Y-95241887D01*
X125727689Y-95189946D01*
X125727691Y-95189943D01*
X125733071Y-95182764D01*
X125773743Y-95074271D01*
X125816384Y-95017506D01*
X125882946Y-94992806D01*
X125891725Y-94992500D01*
X126832398Y-94992500D01*
X126833166Y-94992502D01*
X126910173Y-94992972D01*
X126918803Y-94990506D01*
X126918807Y-94990505D01*
X126938320Y-94984928D01*
X126955081Y-94981350D01*
X126955751Y-94981254D01*
X126984052Y-94977201D01*
X127007165Y-94966692D01*
X127024694Y-94960242D01*
X127040493Y-94955727D01*
X127040494Y-94955726D01*
X127049121Y-94953261D01*
X127073876Y-94937641D01*
X127088960Y-94929503D01*
X127101240Y-94923919D01*
X127115605Y-94917388D01*
X127122409Y-94911525D01*
X127122411Y-94911524D01*
X127134847Y-94900809D01*
X127149858Y-94889701D01*
X127163745Y-94880939D01*
X127163747Y-94880937D01*
X127171339Y-94876147D01*
X127190718Y-94854204D01*
X127202907Y-94842163D01*
X127225082Y-94823056D01*
X127238896Y-94801744D01*
X127250184Y-94786872D01*
X127261059Y-94774558D01*
X127267001Y-94767830D01*
X127279441Y-94741335D01*
X127287762Y-94726356D01*
X127298800Y-94709326D01*
X127298804Y-94709318D01*
X127303683Y-94701790D01*
X127310963Y-94677449D01*
X127317623Y-94660008D01*
X127324347Y-94645686D01*
X127328417Y-94637018D01*
X127332919Y-94608103D01*
X127336702Y-94591385D01*
X127342518Y-94571938D01*
X127342518Y-94571936D01*
X127345090Y-94563337D01*
X127345298Y-94529154D01*
X127345330Y-94528392D01*
X127345500Y-94527303D01*
X127345500Y-94496602D01*
X127345502Y-94495835D01*
X127345611Y-94477934D01*
X127366028Y-94409936D01*
X127396044Y-94377875D01*
X127479974Y-94314974D01*
X127564493Y-94202199D01*
X127574149Y-94176444D01*
X127597037Y-94115387D01*
X127613964Y-94070236D01*
X127620500Y-94010070D01*
X127620500Y-93441930D01*
X127613964Y-93381764D01*
X127581914Y-93296271D01*
X127567644Y-93258205D01*
X127567643Y-93258202D01*
X127564493Y-93249801D01*
X127479974Y-93137026D01*
X127457387Y-93120098D01*
X127383638Y-93064827D01*
X127341122Y-93007968D01*
X127336096Y-92937149D01*
X127370156Y-92874856D01*
X127383638Y-92863173D01*
X127472794Y-92796355D01*
X127479974Y-92790974D01*
X127564493Y-92678199D01*
X127585071Y-92623309D01*
X127611190Y-92553635D01*
X127613964Y-92546236D01*
X127620500Y-92486070D01*
X127620500Y-91917930D01*
X127613964Y-91857764D01*
X127586891Y-91785546D01*
X127567644Y-91734205D01*
X127567643Y-91734202D01*
X127564493Y-91725801D01*
X127479974Y-91613026D01*
X127376638Y-91535581D01*
X127334122Y-91478722D01*
X127329096Y-91407903D01*
X127363156Y-91345610D01*
X127376633Y-91333930D01*
X127465974Y-91266974D01*
X127550493Y-91154199D01*
X127557564Y-91135339D01*
X127597190Y-91029635D01*
X127599964Y-91022236D01*
X127606500Y-90962070D01*
X127606500Y-90393930D01*
X127599964Y-90333764D01*
X127579008Y-90277863D01*
X127553644Y-90210205D01*
X127553643Y-90210202D01*
X127550493Y-90201801D01*
X127465974Y-90089026D01*
X127353199Y-90004507D01*
X127344798Y-90001357D01*
X127344795Y-90001356D01*
X127266387Y-89971963D01*
X127221236Y-89955036D01*
X127161070Y-89948500D01*
X126492930Y-89948500D01*
X126432764Y-89955036D01*
X126387613Y-89971963D01*
X126309205Y-90001356D01*
X126309202Y-90001357D01*
X126300801Y-90004507D01*
X126188026Y-90089026D01*
X126182645Y-90096206D01*
X126182644Y-90096207D01*
X126162515Y-90123065D01*
X126105656Y-90165580D01*
X126061689Y-90173500D01*
X125824920Y-90173500D01*
X125756799Y-90153498D01*
X125717470Y-90111302D01*
X125717071Y-90110236D01*
X125710953Y-90102072D01*
X125674694Y-90053692D01*
X125630404Y-89994596D01*
X125609977Y-89979287D01*
X125521946Y-89913311D01*
X125521943Y-89913309D01*
X125514764Y-89907929D01*
X125416079Y-89870934D01*
X125386843Y-89859974D01*
X125386841Y-89859974D01*
X125379448Y-89857202D01*
X125371598Y-89856349D01*
X125371597Y-89856349D01*
X125321153Y-89850869D01*
X125321152Y-89850869D01*
X125317756Y-89850500D01*
X124522244Y-89850500D01*
X124518848Y-89850869D01*
X124518847Y-89850869D01*
X124468403Y-89856349D01*
X124468402Y-89856349D01*
X124460552Y-89857202D01*
X124453159Y-89859974D01*
X124453157Y-89859974D01*
X124423921Y-89870934D01*
X124325236Y-89907929D01*
X124318057Y-89913309D01*
X124318054Y-89913311D01*
X124230023Y-89979287D01*
X124209596Y-89994596D01*
X124204215Y-90001776D01*
X124128311Y-90103054D01*
X124128309Y-90103057D01*
X124122929Y-90110236D01*
X124089936Y-90198247D01*
X124085643Y-90209699D01*
X124072202Y-90245552D01*
X124065500Y-90307244D01*
X124065500Y-91302756D01*
X124065869Y-91306152D01*
X124065869Y-91306153D01*
X124070156Y-91345610D01*
X124072202Y-91364448D01*
X124122929Y-91499764D01*
X124128309Y-91506943D01*
X124128311Y-91506946D01*
X124164074Y-91554664D01*
X124209596Y-91615404D01*
X124238632Y-91637165D01*
X124272663Y-91662670D01*
X124315178Y-91719529D01*
X124320204Y-91790348D01*
X124286144Y-91852641D01*
X124272669Y-91864317D01*
X124225596Y-91899596D01*
X124211337Y-91918622D01*
X124144311Y-92008054D01*
X124144309Y-92008057D01*
X124138929Y-92015236D01*
X124088202Y-92150552D01*
X124081500Y-92212244D01*
X124081500Y-93207756D01*
X124088202Y-93269448D01*
X124138929Y-93404764D01*
X124144309Y-93411943D01*
X124144311Y-93411946D01*
X124225596Y-93520404D01*
X124223491Y-93521982D01*
X124250922Y-93572217D01*
X124245857Y-93643032D01*
X124224278Y-93676608D01*
X124225596Y-93677596D01*
X124144311Y-93786054D01*
X124144309Y-93786057D01*
X124138929Y-93793236D01*
X124088202Y-93928552D01*
X124081500Y-93990244D01*
X124081500Y-94985756D01*
X124088202Y-95047448D01*
X124138929Y-95182764D01*
X124144309Y-95189943D01*
X124144311Y-95189946D01*
X124225596Y-95298404D01*
X124223813Y-95299740D01*
X124251922Y-95351217D01*
X124246857Y-95422032D01*
X124204310Y-95478868D01*
X124137790Y-95503679D01*
X124128801Y-95504000D01*
X123743199Y-95504000D01*
X123675078Y-95483998D01*
X123628585Y-95430342D01*
X123618481Y-95360068D01*
X123646582Y-95298538D01*
X123646404Y-95298404D01*
X123647016Y-95297587D01*
X123688761Y-95241887D01*
X123727689Y-95189946D01*
X123727691Y-95189943D01*
X123733071Y-95182764D01*
X123783798Y-95047448D01*
X123790500Y-94985756D01*
X123790500Y-93990244D01*
X123783798Y-93928552D01*
X123733071Y-93793236D01*
X123727691Y-93786057D01*
X123727689Y-93786054D01*
X123646404Y-93677596D01*
X123648509Y-93676018D01*
X123621078Y-93625783D01*
X123626143Y-93554968D01*
X123647722Y-93521392D01*
X123646404Y-93520404D01*
X123727689Y-93411946D01*
X123727691Y-93411943D01*
X123733071Y-93404764D01*
X123783798Y-93269448D01*
X123790500Y-93207756D01*
X123790500Y-92212244D01*
X123783798Y-92150552D01*
X123733071Y-92015236D01*
X123727691Y-92008057D01*
X123727689Y-92008054D01*
X123660663Y-91918622D01*
X123646404Y-91899596D01*
X123599339Y-91864323D01*
X123583337Y-91852330D01*
X123540822Y-91795471D01*
X123535796Y-91724652D01*
X123569856Y-91662359D01*
X123583331Y-91650683D01*
X123630404Y-91615404D01*
X123675926Y-91554664D01*
X123711689Y-91506946D01*
X123711691Y-91506943D01*
X123717071Y-91499764D01*
X123767798Y-91364448D01*
X123769845Y-91345610D01*
X123774131Y-91306153D01*
X123774131Y-91306152D01*
X123774500Y-91302756D01*
X123774500Y-90307244D01*
X123767798Y-90245552D01*
X123754358Y-90209699D01*
X123750064Y-90198247D01*
X123717071Y-90110236D01*
X123711691Y-90103057D01*
X123711689Y-90103054D01*
X123635785Y-90001776D01*
X123630404Y-89994596D01*
X123609977Y-89979287D01*
X123521946Y-89913311D01*
X123521943Y-89913309D01*
X123514764Y-89907929D01*
X123416079Y-89870934D01*
X123386843Y-89859974D01*
X123386841Y-89859974D01*
X123379448Y-89857202D01*
X123371598Y-89856349D01*
X123371597Y-89856349D01*
X123321153Y-89850869D01*
X123321152Y-89850869D01*
X123317756Y-89850500D01*
X122522244Y-89850500D01*
X122518848Y-89850869D01*
X122518847Y-89850869D01*
X122468403Y-89856349D01*
X122468402Y-89856349D01*
X122460552Y-89857202D01*
X122453159Y-89859974D01*
X122453157Y-89859974D01*
X122423921Y-89870934D01*
X122325236Y-89907929D01*
X122318057Y-89913309D01*
X122318054Y-89913311D01*
X122230023Y-89979287D01*
X122209596Y-89994596D01*
X122204215Y-90001776D01*
X122128311Y-90103054D01*
X122128309Y-90103057D01*
X122122929Y-90110236D01*
X122119779Y-90118640D01*
X122082257Y-90218729D01*
X122039616Y-90275494D01*
X121973054Y-90300194D01*
X121964275Y-90300500D01*
X121165161Y-90300500D01*
X121097040Y-90280498D01*
X121076066Y-90263595D01*
X120683405Y-89870934D01*
X120649379Y-89808622D01*
X120646500Y-89781839D01*
X120646500Y-88638787D01*
X120666502Y-88570666D01*
X120720158Y-88524173D01*
X120797081Y-88515208D01*
X120842152Y-88524173D01*
X120868933Y-88529500D01*
X121393915Y-88529500D01*
X121919066Y-88529499D01*
X121954818Y-88522388D01*
X121981126Y-88517156D01*
X121981128Y-88517155D01*
X121993301Y-88514734D01*
X122003621Y-88507839D01*
X122003622Y-88507838D01*
X122067168Y-88465377D01*
X122077484Y-88458484D01*
X122133734Y-88374301D01*
X122148500Y-88300067D01*
X122148499Y-87549934D01*
X122133734Y-87475699D01*
X122116239Y-87449515D01*
X122113223Y-87445002D01*
X122092008Y-87377249D01*
X122113223Y-87304998D01*
X122126839Y-87284621D01*
X122126840Y-87284618D01*
X122133734Y-87274301D01*
X122148500Y-87200067D01*
X122148499Y-86449934D01*
X122138860Y-86401470D01*
X122136156Y-86387874D01*
X122136155Y-86387872D01*
X122133734Y-86375699D01*
X122126253Y-86364502D01*
X122113223Y-86345002D01*
X122092008Y-86277249D01*
X122113223Y-86204998D01*
X122126839Y-86184621D01*
X122126840Y-86184618D01*
X122133734Y-86174301D01*
X122139918Y-86143215D01*
X122147293Y-86106135D01*
X122148500Y-86100067D01*
X122148499Y-85349934D01*
X122133734Y-85275699D01*
X122113223Y-85245002D01*
X122092008Y-85177249D01*
X122113223Y-85104998D01*
X122126839Y-85084621D01*
X122126840Y-85084618D01*
X122133734Y-85074301D01*
X122148500Y-85000067D01*
X122148499Y-84249934D01*
X122133734Y-84175699D01*
X122113223Y-84145002D01*
X122092008Y-84077249D01*
X122113223Y-84004998D01*
X122126839Y-83984621D01*
X122126840Y-83984618D01*
X122133734Y-83974301D01*
X122148500Y-83900067D01*
X122148499Y-83149934D01*
X122133734Y-83075699D01*
X122113223Y-83045002D01*
X122092008Y-82977249D01*
X122113223Y-82904998D01*
X122126839Y-82884621D01*
X122126840Y-82884618D01*
X122133734Y-82874301D01*
X122148500Y-82800067D01*
X122148499Y-82049934D01*
X122133734Y-81975699D01*
X122113223Y-81945002D01*
X122092008Y-81877249D01*
X122113223Y-81804998D01*
X122126839Y-81784621D01*
X122126840Y-81784618D01*
X122133734Y-81774301D01*
X122148500Y-81700067D01*
X122148499Y-80949934D01*
X122133734Y-80875699D01*
X122113223Y-80845002D01*
X122092008Y-80777249D01*
X122113223Y-80704998D01*
X122126839Y-80684621D01*
X122126840Y-80684618D01*
X122133734Y-80674301D01*
X122148500Y-80600067D01*
X122148499Y-79849934D01*
X122133734Y-79775699D01*
X122125065Y-79762724D01*
X122084377Y-79701832D01*
X122077484Y-79691516D01*
X121993301Y-79635266D01*
X121919067Y-79620500D01*
X121394085Y-79620500D01*
X120868934Y-79620501D01*
X120833182Y-79627612D01*
X120806874Y-79632844D01*
X120806872Y-79632845D01*
X120794699Y-79635266D01*
X120784379Y-79642161D01*
X120784378Y-79642162D01*
X120723985Y-79682516D01*
X120710516Y-79691516D01*
X120654266Y-79775699D01*
X120639500Y-79849933D01*
X120639501Y-80600066D01*
X120645749Y-80631478D01*
X120649178Y-80648718D01*
X120654266Y-80674301D01*
X120661161Y-80684621D01*
X120661162Y-80684622D01*
X120674777Y-80704998D01*
X120695992Y-80772751D01*
X120674777Y-80845002D01*
X120661161Y-80865379D01*
X120661161Y-80865380D01*
X120654266Y-80875699D01*
X120639500Y-80949933D01*
X120639501Y-81700066D01*
X120654266Y-81774301D01*
X120661161Y-81784621D01*
X120661162Y-81784622D01*
X120674777Y-81804998D01*
X120695992Y-81872751D01*
X120674777Y-81945002D01*
X120661161Y-81965379D01*
X120661160Y-81965382D01*
X120654266Y-81975699D01*
X120639500Y-82049933D01*
X120639501Y-82800066D01*
X120646612Y-82835818D01*
X120651830Y-82862053D01*
X120654266Y-82874301D01*
X120661161Y-82884621D01*
X120661162Y-82884622D01*
X120674777Y-82904998D01*
X120695992Y-82972751D01*
X120674777Y-83045002D01*
X120661161Y-83065379D01*
X120661160Y-83065382D01*
X120654266Y-83075699D01*
X120639500Y-83149933D01*
X120639501Y-83900066D01*
X120654266Y-83974301D01*
X120661161Y-83984621D01*
X120661162Y-83984622D01*
X120674777Y-84004998D01*
X120695992Y-84072751D01*
X120674777Y-84145002D01*
X120661161Y-84165379D01*
X120661160Y-84165382D01*
X120654266Y-84175699D01*
X120639500Y-84249933D01*
X120639501Y-85000066D01*
X120654266Y-85074301D01*
X120661161Y-85084620D01*
X120661162Y-85084622D01*
X120674777Y-85104998D01*
X120695992Y-85172751D01*
X120674777Y-85245002D01*
X120661161Y-85265379D01*
X120661160Y-85265382D01*
X120654266Y-85275699D01*
X120639500Y-85349933D01*
X120639501Y-86100066D01*
X120651845Y-86162126D01*
X120653395Y-86169920D01*
X120647066Y-86240634D01*
X120603511Y-86296701D01*
X120529816Y-86320500D01*
X120255624Y-86320500D01*
X120243619Y-86319159D01*
X120243579Y-86319655D01*
X120234632Y-86318935D01*
X120225876Y-86316954D01*
X120182339Y-86319655D01*
X120172619Y-86320258D01*
X120164817Y-86320500D01*
X120148774Y-86320500D01*
X120144344Y-86321135D01*
X120144337Y-86321135D01*
X120138536Y-86321966D01*
X120128481Y-86322996D01*
X120090601Y-86325346D01*
X120090599Y-86325346D01*
X120081642Y-86325902D01*
X120073201Y-86328949D01*
X120069923Y-86329628D01*
X120054055Y-86333584D01*
X120050831Y-86334527D01*
X120041948Y-86335799D01*
X120033779Y-86339513D01*
X120033773Y-86339515D01*
X119999221Y-86355225D01*
X119989853Y-86359039D01*
X119945716Y-86374972D01*
X119938466Y-86380269D01*
X119935499Y-86381846D01*
X119921386Y-86390093D01*
X119918563Y-86391898D01*
X119910395Y-86395612D01*
X119903598Y-86401469D01*
X119903596Y-86401470D01*
X119893662Y-86410030D01*
X119878698Y-86422925D01*
X119874847Y-86426243D01*
X119866936Y-86432525D01*
X119856056Y-86440473D01*
X119845194Y-86451335D01*
X119838348Y-86457693D01*
X119800918Y-86489944D01*
X119796034Y-86497479D01*
X119790301Y-86504051D01*
X119781074Y-86515455D01*
X119073206Y-87223323D01*
X119063766Y-87230865D01*
X119064089Y-87231245D01*
X119057253Y-87237063D01*
X119049661Y-87241853D01*
X119043719Y-87248581D01*
X119014329Y-87281859D01*
X119008983Y-87287546D01*
X118997649Y-87298880D01*
X118994964Y-87302463D01*
X118994962Y-87302465D01*
X118991447Y-87307155D01*
X118985062Y-87314998D01*
X118953999Y-87350170D01*
X118950186Y-87358292D01*
X118948346Y-87361093D01*
X118939937Y-87375088D01*
X118938315Y-87378051D01*
X118932930Y-87385236D01*
X118929777Y-87393646D01*
X118929776Y-87393648D01*
X118916454Y-87429182D01*
X118912530Y-87438495D01*
X118892583Y-87480982D01*
X118891201Y-87489856D01*
X118890215Y-87493083D01*
X118886075Y-87508866D01*
X118885354Y-87512144D01*
X118882202Y-87520552D01*
X118881537Y-87529503D01*
X118878724Y-87567357D01*
X118877570Y-87577404D01*
X118875500Y-87590697D01*
X118875500Y-87606062D01*
X118875154Y-87615399D01*
X118871493Y-87664667D01*
X118873366Y-87673442D01*
X118873959Y-87682138D01*
X118875500Y-87696738D01*
X118875500Y-91242376D01*
X118874159Y-91254381D01*
X118874655Y-91254421D01*
X118873935Y-91263368D01*
X118871954Y-91272124D01*
X118872510Y-91281084D01*
X118875258Y-91325382D01*
X118875500Y-91333184D01*
X118875500Y-91349226D01*
X118876135Y-91353657D01*
X118876135Y-91353662D01*
X118876965Y-91359453D01*
X118877996Y-91369514D01*
X118879346Y-91391271D01*
X118879850Y-91399393D01*
X118880902Y-91416359D01*
X118883949Y-91424799D01*
X118884630Y-91428089D01*
X118888582Y-91443938D01*
X118889527Y-91447168D01*
X118890799Y-91456052D01*
X118894514Y-91464223D01*
X118910218Y-91498763D01*
X118914030Y-91508128D01*
X118926922Y-91543837D01*
X118926924Y-91543840D01*
X118929972Y-91552284D01*
X118935268Y-91559533D01*
X118936840Y-91562490D01*
X118945093Y-91576614D01*
X118946898Y-91579437D01*
X118950612Y-91587605D01*
X118979202Y-91620784D01*
X118981243Y-91623153D01*
X118987525Y-91631064D01*
X118995473Y-91641944D01*
X119006335Y-91652806D01*
X119012693Y-91659652D01*
X119044944Y-91697082D01*
X119052479Y-91701966D01*
X119059051Y-91707699D01*
X119070455Y-91716926D01*
X120370323Y-93016794D01*
X120377865Y-93026234D01*
X120378245Y-93025911D01*
X120384063Y-93032747D01*
X120388853Y-93040339D01*
X120395581Y-93046281D01*
X120428859Y-93075671D01*
X120434546Y-93081017D01*
X120445880Y-93092351D01*
X120449466Y-93095038D01*
X120449471Y-93095043D01*
X120454159Y-93098557D01*
X120461997Y-93104938D01*
X120497170Y-93136001D01*
X120505293Y-93139815D01*
X120508104Y-93141661D01*
X120522103Y-93150072D01*
X120525052Y-93151686D01*
X120532235Y-93157070D01*
X120569023Y-93170861D01*
X120576174Y-93173542D01*
X120585494Y-93177469D01*
X120627982Y-93197417D01*
X120636853Y-93198798D01*
X120640075Y-93199783D01*
X120655846Y-93203920D01*
X120659140Y-93204644D01*
X120667552Y-93207798D01*
X120676510Y-93208464D01*
X120676511Y-93208464D01*
X120714350Y-93211276D01*
X120724374Y-93212426D01*
X120737697Y-93214500D01*
X120753062Y-93214500D01*
X120762399Y-93214846D01*
X120811666Y-93218507D01*
X120820441Y-93216634D01*
X120829137Y-93216041D01*
X120843737Y-93214500D01*
X121980275Y-93214500D01*
X122048396Y-93234502D01*
X122094889Y-93288158D01*
X122098257Y-93296271D01*
X122138929Y-93404764D01*
X122144309Y-93411943D01*
X122144311Y-93411946D01*
X122225596Y-93520404D01*
X122223491Y-93521982D01*
X122250922Y-93572217D01*
X122245857Y-93643032D01*
X122224278Y-93676608D01*
X122225596Y-93677596D01*
X122144311Y-93786054D01*
X122144309Y-93786057D01*
X122138929Y-93793236D01*
X122088202Y-93928552D01*
X122087349Y-93936400D01*
X122087349Y-93936402D01*
X122083579Y-93971108D01*
X122056337Y-94036670D01*
X121997974Y-94077096D01*
X121958316Y-94083500D01*
X121735906Y-94083500D01*
X121667785Y-94063498D01*
X121652087Y-94051577D01*
X121579435Y-93986847D01*
X121534275Y-93946611D01*
X121526889Y-93942700D01*
X121400988Y-93876039D01*
X121400989Y-93876039D01*
X121394274Y-93872484D01*
X121240633Y-93833892D01*
X121233034Y-93833852D01*
X121233033Y-93833852D01*
X121167181Y-93833507D01*
X121082221Y-93833062D01*
X121074841Y-93834834D01*
X121074839Y-93834834D01*
X120935563Y-93868271D01*
X120935560Y-93868272D01*
X120928184Y-93870043D01*
X120787414Y-93942700D01*
X120668039Y-94046838D01*
X120576950Y-94176444D01*
X120548178Y-94250240D01*
X120522940Y-94314974D01*
X120519406Y-94324037D01*
X120518414Y-94331570D01*
X120518414Y-94331571D01*
X120506927Y-94418827D01*
X120498729Y-94481096D01*
X120503971Y-94528574D01*
X120511814Y-94599612D01*
X120516113Y-94638553D01*
X120570553Y-94787319D01*
X120574789Y-94793622D01*
X120574789Y-94793623D01*
X120643994Y-94896610D01*
X120658908Y-94918805D01*
X120664527Y-94923918D01*
X120664528Y-94923919D01*
X120740417Y-94992972D01*
X120776076Y-95025419D01*
X120915293Y-95101008D01*
X121068522Y-95141207D01*
X121152477Y-95142526D01*
X121219319Y-95143576D01*
X121219322Y-95143576D01*
X121226916Y-95143695D01*
X121381332Y-95108329D01*
X121451742Y-95072917D01*
X121516072Y-95040563D01*
X121516075Y-95040561D01*
X121522855Y-95037151D01*
X121528626Y-95032222D01*
X121528629Y-95032220D01*
X121637537Y-94939203D01*
X121643314Y-94934269D01*
X121644855Y-94932125D01*
X121703875Y-94896610D01*
X121735793Y-94892500D01*
X121958316Y-94892500D01*
X122026437Y-94912502D01*
X122072930Y-94966158D01*
X122083579Y-95004891D01*
X122088202Y-95047448D01*
X122138929Y-95182764D01*
X122144309Y-95189943D01*
X122144311Y-95189946D01*
X122225596Y-95298404D01*
X122223813Y-95299740D01*
X122251922Y-95351217D01*
X122246857Y-95422032D01*
X122204310Y-95478868D01*
X122137790Y-95503679D01*
X122128801Y-95504000D01*
X114426000Y-95504000D01*
X114357879Y-95483998D01*
X114311386Y-95430342D01*
X114300000Y-95378000D01*
X114300000Y-83261800D01*
X114320002Y-83193679D01*
X114373658Y-83147186D01*
X114443932Y-83137082D01*
X114508512Y-83166576D01*
X114540425Y-83209048D01*
X114609377Y-83358616D01*
X114726533Y-83524389D01*
X114871938Y-83666035D01*
X115040720Y-83778812D01*
X115046023Y-83781090D01*
X115046026Y-83781092D01*
X115134707Y-83819192D01*
X115227228Y-83858942D01*
X115300244Y-83875464D01*
X115419579Y-83902467D01*
X115419584Y-83902468D01*
X115425216Y-83903742D01*
X115430987Y-83903969D01*
X115430989Y-83903969D01*
X115486118Y-83906135D01*
X115628053Y-83911712D01*
X115728499Y-83897148D01*
X115823231Y-83883413D01*
X115823236Y-83883412D01*
X115828945Y-83882584D01*
X115834409Y-83880729D01*
X115834414Y-83880728D01*
X116015693Y-83819192D01*
X116015698Y-83819190D01*
X116021165Y-83817334D01*
X116198276Y-83718147D01*
X116260934Y-83666035D01*
X116349913Y-83592031D01*
X116354345Y-83588345D01*
X116484147Y-83432276D01*
X116583334Y-83255165D01*
X116585190Y-83249698D01*
X116585192Y-83249693D01*
X116646728Y-83068414D01*
X116646729Y-83068409D01*
X116648584Y-83062945D01*
X116649412Y-83057236D01*
X116649413Y-83057231D01*
X116671485Y-82904998D01*
X116677712Y-82862053D01*
X116679232Y-82804000D01*
X116666987Y-82670738D01*
X116661187Y-82607613D01*
X116661186Y-82607610D01*
X116660658Y-82601859D01*
X116654006Y-82578272D01*
X116607125Y-82412046D01*
X116607124Y-82412044D01*
X116605557Y-82406487D01*
X116515776Y-82224428D01*
X116394320Y-82061779D01*
X116245258Y-81923987D01*
X116240375Y-81920906D01*
X116240371Y-81920903D01*
X116078464Y-81818748D01*
X116073581Y-81815667D01*
X115885039Y-81740446D01*
X115879379Y-81739320D01*
X115879375Y-81739319D01*
X115691613Y-81701971D01*
X115691610Y-81701971D01*
X115685946Y-81700844D01*
X115680171Y-81700768D01*
X115680167Y-81700768D01*
X115578793Y-81699441D01*
X115482971Y-81698187D01*
X115477274Y-81699166D01*
X115477273Y-81699166D01*
X115288607Y-81731585D01*
X115282910Y-81732564D01*
X115092463Y-81802824D01*
X114918010Y-81906612D01*
X114913670Y-81910418D01*
X114913666Y-81910421D01*
X114825351Y-81987872D01*
X114765392Y-82040455D01*
X114639720Y-82199869D01*
X114637031Y-82204980D01*
X114637029Y-82204983D01*
X114610477Y-82255450D01*
X114545203Y-82379515D01*
X114543489Y-82385033D01*
X114542408Y-82387644D01*
X114497858Y-82442924D01*
X114430494Y-82465343D01*
X114361703Y-82447783D01*
X114313326Y-82395820D01*
X114300000Y-82339423D01*
X114300000Y-80721800D01*
X114320002Y-80653679D01*
X114373658Y-80607186D01*
X114443932Y-80597082D01*
X114508512Y-80626576D01*
X114540425Y-80669048D01*
X114609377Y-80818616D01*
X114621396Y-80835622D01*
X114719570Y-80974536D01*
X114726533Y-80984389D01*
X114871938Y-81126035D01*
X115040720Y-81238812D01*
X115046023Y-81241090D01*
X115046026Y-81241092D01*
X115221921Y-81316662D01*
X115227228Y-81318942D01*
X115300244Y-81335464D01*
X115419579Y-81362467D01*
X115419584Y-81362468D01*
X115425216Y-81363742D01*
X115430987Y-81363969D01*
X115430989Y-81363969D01*
X115490756Y-81366317D01*
X115628053Y-81371712D01*
X115728499Y-81357148D01*
X115823231Y-81343413D01*
X115823236Y-81343412D01*
X115828945Y-81342584D01*
X115834409Y-81340729D01*
X115834414Y-81340728D01*
X116015693Y-81279192D01*
X116015698Y-81279190D01*
X116021165Y-81277334D01*
X116198276Y-81178147D01*
X116260934Y-81126035D01*
X116349913Y-81052031D01*
X116354345Y-81048345D01*
X116358031Y-81043913D01*
X116358038Y-81043906D01*
X116461066Y-80920030D01*
X116520003Y-80880446D01*
X116590985Y-80879011D01*
X116647034Y-80911505D01*
X116933595Y-81198066D01*
X116967621Y-81260378D01*
X116970500Y-81287161D01*
X116970500Y-90129214D01*
X116950498Y-90197335D01*
X116908923Y-90237499D01*
X116827978Y-90285656D01*
X116827975Y-90285658D01*
X116823010Y-90288612D01*
X116818670Y-90292418D01*
X116818666Y-90292421D01*
X116779961Y-90326365D01*
X116670392Y-90422455D01*
X116544720Y-90581869D01*
X116542031Y-90586980D01*
X116542029Y-90586983D01*
X116529073Y-90611609D01*
X116450203Y-90761515D01*
X116390007Y-90955378D01*
X116366148Y-91156964D01*
X116379424Y-91359522D01*
X116380845Y-91365118D01*
X116380846Y-91365123D01*
X116427701Y-91549611D01*
X116429392Y-91556269D01*
X116431809Y-91561512D01*
X116507547Y-91725801D01*
X116514377Y-91740616D01*
X116529632Y-91762202D01*
X116602721Y-91865620D01*
X116631533Y-91906389D01*
X116635675Y-91910424D01*
X116697186Y-91970345D01*
X116776938Y-92048035D01*
X116781742Y-92051245D01*
X116800081Y-92063499D01*
X116945720Y-92160812D01*
X116951023Y-92163090D01*
X116951026Y-92163092D01*
X117116077Y-92234003D01*
X117132228Y-92240942D01*
X117205244Y-92257464D01*
X117324579Y-92284467D01*
X117324584Y-92284468D01*
X117330216Y-92285742D01*
X117335987Y-92285969D01*
X117335989Y-92285969D01*
X117395756Y-92288317D01*
X117533053Y-92293712D01*
X117633499Y-92279148D01*
X117728231Y-92265413D01*
X117728236Y-92265412D01*
X117733945Y-92264584D01*
X117739409Y-92262729D01*
X117739414Y-92262728D01*
X117920693Y-92201192D01*
X117920698Y-92201190D01*
X117926165Y-92199334D01*
X118103276Y-92100147D01*
X118109304Y-92095134D01*
X118254913Y-91974031D01*
X118259345Y-91970345D01*
X118298739Y-91922979D01*
X118385453Y-91818718D01*
X118385455Y-91818715D01*
X118389147Y-91814276D01*
X118458980Y-91689580D01*
X118485510Y-91642208D01*
X118485511Y-91642206D01*
X118488334Y-91637165D01*
X118490190Y-91631698D01*
X118490192Y-91631693D01*
X118551728Y-91450414D01*
X118551729Y-91450409D01*
X118553584Y-91444945D01*
X118554412Y-91439236D01*
X118554413Y-91439231D01*
X118575356Y-91294783D01*
X118582712Y-91244053D01*
X118584232Y-91186000D01*
X118569184Y-91022236D01*
X118566187Y-90989613D01*
X118566186Y-90989610D01*
X118565658Y-90983859D01*
X118559513Y-90962070D01*
X118512125Y-90794046D01*
X118512124Y-90794044D01*
X118510557Y-90788487D01*
X118499978Y-90767033D01*
X118423331Y-90611609D01*
X118420776Y-90606428D01*
X118299320Y-90443779D01*
X118150258Y-90305987D01*
X118145375Y-90302906D01*
X118145371Y-90302903D01*
X118038265Y-90235325D01*
X117991326Y-90182058D01*
X117979500Y-90128763D01*
X117979500Y-81096630D01*
X117980842Y-81084622D01*
X117980346Y-81084582D01*
X117981066Y-81075631D01*
X117983047Y-81066877D01*
X117979742Y-81013607D01*
X117979500Y-81005805D01*
X117979500Y-80989774D01*
X117978035Y-80979541D01*
X117977004Y-80969481D01*
X117974654Y-80931601D01*
X117974654Y-80931600D01*
X117974098Y-80922642D01*
X117971050Y-80914199D01*
X117970371Y-80910920D01*
X117966416Y-80895055D01*
X117965473Y-80891831D01*
X117964201Y-80882948D01*
X117960487Y-80874779D01*
X117960485Y-80874773D01*
X117944775Y-80840221D01*
X117940961Y-80830852D01*
X117930485Y-80801832D01*
X117925028Y-80786716D01*
X117919731Y-80779466D01*
X117918154Y-80776499D01*
X117909907Y-80762386D01*
X117908102Y-80759563D01*
X117904388Y-80751395D01*
X117896433Y-80742162D01*
X117878807Y-80721707D01*
X117873753Y-80715842D01*
X117867475Y-80707936D01*
X117859527Y-80697056D01*
X117848665Y-80686194D01*
X117842307Y-80679347D01*
X117815915Y-80648718D01*
X117810056Y-80641918D01*
X117802521Y-80637034D01*
X117795949Y-80631301D01*
X117784545Y-80622074D01*
X117119677Y-79957206D01*
X117112135Y-79947766D01*
X117111755Y-79948089D01*
X117105937Y-79941253D01*
X117101147Y-79933661D01*
X117061140Y-79898328D01*
X117055454Y-79892983D01*
X117044120Y-79881649D01*
X117035845Y-79875447D01*
X117028000Y-79869060D01*
X116999557Y-79843940D01*
X116992830Y-79837999D01*
X116984708Y-79834186D01*
X116981907Y-79832346D01*
X116967912Y-79823937D01*
X116964949Y-79822315D01*
X116957764Y-79816930D01*
X116949354Y-79813777D01*
X116949352Y-79813776D01*
X116913818Y-79800454D01*
X116904502Y-79796529D01*
X116886063Y-79787872D01*
X116862018Y-79776583D01*
X116853144Y-79775201D01*
X116849917Y-79774215D01*
X116834134Y-79770075D01*
X116830856Y-79769354D01*
X116822448Y-79766202D01*
X116808691Y-79765180D01*
X116775643Y-79762724D01*
X116765596Y-79761570D01*
X116757114Y-79760249D01*
X116757111Y-79760249D01*
X116752303Y-79759500D01*
X116736938Y-79759500D01*
X116727601Y-79759154D01*
X116711519Y-79757959D01*
X116678333Y-79755493D01*
X116669558Y-79757366D01*
X116660862Y-79757959D01*
X116646262Y-79759500D01*
X116631149Y-79759500D01*
X116563028Y-79739498D01*
X116522339Y-79693927D01*
X116521349Y-79694534D01*
X116518330Y-79689608D01*
X116515776Y-79684428D01*
X116394320Y-79521779D01*
X116245258Y-79383987D01*
X116240375Y-79380906D01*
X116240371Y-79380903D01*
X116078464Y-79278748D01*
X116073581Y-79275667D01*
X115885039Y-79200446D01*
X115879379Y-79199320D01*
X115879375Y-79199319D01*
X115691613Y-79161971D01*
X115691610Y-79161971D01*
X115685946Y-79160844D01*
X115680171Y-79160768D01*
X115680167Y-79160768D01*
X115578793Y-79159441D01*
X115482971Y-79158187D01*
X115477274Y-79159166D01*
X115477273Y-79159166D01*
X115288607Y-79191585D01*
X115282910Y-79192564D01*
X115092463Y-79262824D01*
X114918010Y-79366612D01*
X114913670Y-79370418D01*
X114913666Y-79370421D01*
X114893723Y-79387911D01*
X114765392Y-79500455D01*
X114639720Y-79659869D01*
X114637031Y-79664980D01*
X114637029Y-79664983D01*
X114617642Y-79701832D01*
X114545203Y-79839515D01*
X114543489Y-79845033D01*
X114542408Y-79847644D01*
X114497858Y-79902924D01*
X114430494Y-79925343D01*
X114361703Y-79907783D01*
X114313326Y-79855820D01*
X114300000Y-79799423D01*
X114300000Y-69214000D01*
X114320002Y-69145879D01*
X114373658Y-69099386D01*
X114426000Y-69088000D01*
X128120500Y-69088000D01*
X128188621Y-69108002D01*
G37*
G04 #@! TD.AperFunction*
M02*
