G04 #@! TF.GenerationSoftware,KiCad,Pcbnew,6.0.10*
G04 #@! TF.CreationDate,2023-06-20T13:54:12-05:00*
G04 #@! TF.ProjectId,sensor_sigfox_1,73656e73-6f72-45f7-9369-67666f785f31,rev?*
G04 #@! TF.SameCoordinates,Original*
G04 #@! TF.FileFunction,Copper,L2,Bot*
G04 #@! TF.FilePolarity,Positive*
%FSLAX46Y46*%
G04 Gerber Fmt 4.6, Leading zero omitted, Abs format (unit mm)*
G04 Created by KiCad (PCBNEW 6.0.10) date 2023-06-20 13:54:12*
%MOMM*%
%LPD*%
G01*
G04 APERTURE LIST*
G04 Aperture macros list*
%AMRoundRect*
0 Rectangle with rounded corners*
0 $1 Rounding radius*
0 $2 $3 $4 $5 $6 $7 $8 $9 X,Y pos of 4 corners*
0 Add a 4 corners polygon primitive as box body*
4,1,4,$2,$3,$4,$5,$6,$7,$8,$9,$2,$3,0*
0 Add four circle primitives for the rounded corners*
1,1,$1+$1,$2,$3*
1,1,$1+$1,$4,$5*
1,1,$1+$1,$6,$7*
1,1,$1+$1,$8,$9*
0 Add four rect primitives between the rounded corners*
20,1,$1+$1,$2,$3,$4,$5,0*
20,1,$1+$1,$4,$5,$6,$7,0*
20,1,$1+$1,$6,$7,$8,$9,0*
20,1,$1+$1,$8,$9,$2,$3,0*%
G04 Aperture macros list end*
G04 #@! TA.AperFunction,ComponentPad*
%ADD10R,1.700000X1.700000*%
G04 #@! TD*
G04 #@! TA.AperFunction,ComponentPad*
%ADD11O,1.700000X1.700000*%
G04 #@! TD*
G04 #@! TA.AperFunction,SMDPad,CuDef*
%ADD12R,4.200000X1.350000*%
G04 #@! TD*
G04 #@! TA.AperFunction,SMDPad,CuDef*
%ADD13R,1.000000X1.000000*%
G04 #@! TD*
G04 #@! TA.AperFunction,SMDPad,CuDef*
%ADD14RoundRect,0.150000X0.512500X0.150000X-0.512500X0.150000X-0.512500X-0.150000X0.512500X-0.150000X0*%
G04 #@! TD*
G04 #@! TA.AperFunction,SMDPad,CuDef*
%ADD15RoundRect,0.250000X-0.450000X0.350000X-0.450000X-0.350000X0.450000X-0.350000X0.450000X0.350000X0*%
G04 #@! TD*
G04 #@! TA.AperFunction,SMDPad,CuDef*
%ADD16RoundRect,0.250000X-0.350000X-0.450000X0.350000X-0.450000X0.350000X0.450000X-0.350000X0.450000X0*%
G04 #@! TD*
G04 #@! TA.AperFunction,SMDPad,CuDef*
%ADD17RoundRect,0.250000X0.450000X-0.350000X0.450000X0.350000X-0.450000X0.350000X-0.450000X-0.350000X0*%
G04 #@! TD*
G04 #@! TA.AperFunction,SMDPad,CuDef*
%ADD18R,1.500000X0.650000*%
G04 #@! TD*
G04 #@! TA.AperFunction,SMDPad,CuDef*
%ADD19RoundRect,0.150000X-0.512500X-0.150000X0.512500X-0.150000X0.512500X0.150000X-0.512500X0.150000X0*%
G04 #@! TD*
G04 #@! TA.AperFunction,SMDPad,CuDef*
%ADD20RoundRect,0.250000X-0.475000X0.337500X-0.475000X-0.337500X0.475000X-0.337500X0.475000X0.337500X0*%
G04 #@! TD*
G04 #@! TA.AperFunction,SMDPad,CuDef*
%ADD21RoundRect,0.250000X0.475000X-0.337500X0.475000X0.337500X-0.475000X0.337500X-0.475000X-0.337500X0*%
G04 #@! TD*
G04 #@! TA.AperFunction,SMDPad,CuDef*
%ADD22RoundRect,0.250000X0.350000X0.450000X-0.350000X0.450000X-0.350000X-0.450000X0.350000X-0.450000X0*%
G04 #@! TD*
G04 #@! TA.AperFunction,SMDPad,CuDef*
%ADD23RoundRect,0.125000X-0.125000X0.825000X-0.125000X-0.825000X0.125000X-0.825000X0.125000X0.825000X0*%
G04 #@! TD*
G04 #@! TA.AperFunction,SMDPad,CuDef*
%ADD24RoundRect,0.250000X0.325000X0.450000X-0.325000X0.450000X-0.325000X-0.450000X0.325000X-0.450000X0*%
G04 #@! TD*
G04 #@! TA.AperFunction,ViaPad*
%ADD25C,0.800000*%
G04 #@! TD*
G04 #@! TA.AperFunction,Conductor*
%ADD26C,0.500000*%
G04 #@! TD*
G04 #@! TA.AperFunction,Conductor*
%ADD27C,0.300000*%
G04 #@! TD*
G04 APERTURE END LIST*
D10*
X115570000Y-85344000D03*
D11*
X115570000Y-82804000D03*
X115570000Y-80264000D03*
D10*
X117475000Y-93726000D03*
D11*
X117475000Y-91186000D03*
D12*
X139246000Y-79787000D03*
X139246000Y-74137000D03*
D13*
X133613000Y-90043000D03*
X131113000Y-90043000D03*
D14*
X129168000Y-92075000D03*
X129168000Y-93025000D03*
X129168000Y-93975000D03*
X126893000Y-93975000D03*
X126893000Y-93025000D03*
X126893000Y-92075000D03*
D15*
X116713000Y-74327000D03*
X116713000Y-76327000D03*
D16*
X125254000Y-72009000D03*
X127254000Y-72009000D03*
D17*
X133613000Y-94091000D03*
X133613000Y-92091000D03*
D18*
X124046000Y-40767000D03*
X124046000Y-39497000D03*
X124046000Y-38227000D03*
X124046000Y-36957000D03*
X129446000Y-36957000D03*
X129446000Y-38227000D03*
X129446000Y-39497000D03*
X129446000Y-40767000D03*
D19*
X119137000Y-72263000D03*
X119137000Y-71313000D03*
X119137000Y-70363000D03*
X121412000Y-70363000D03*
X121412000Y-71313000D03*
X121412000Y-72263000D03*
D20*
X124215000Y-90889000D03*
X124215000Y-92964000D03*
X120777000Y-78062000D03*
X120777000Y-80137000D03*
D21*
X135772000Y-94107000D03*
X135772000Y-92032000D03*
D22*
X120491000Y-82677000D03*
X118491000Y-82677000D03*
X127254000Y-73914000D03*
X125254000Y-73914000D03*
D17*
X134493000Y-71755000D03*
X134493000Y-69755000D03*
X118745000Y-76327000D03*
X118745000Y-74327000D03*
X116713000Y-72390000D03*
X116713000Y-70390000D03*
X131953000Y-71755000D03*
X131953000Y-69755000D03*
D23*
X123877000Y-78090000D03*
X124527000Y-78090000D03*
X125177000Y-78090000D03*
X125827000Y-78090000D03*
X126477000Y-78090000D03*
X127127000Y-78090000D03*
X127777000Y-78090000D03*
X128427000Y-78090000D03*
X129077000Y-78090000D03*
X129727000Y-78090000D03*
X129727000Y-85090000D03*
X129077000Y-85090000D03*
X128427000Y-85090000D03*
X127777000Y-85090000D03*
X127127000Y-85090000D03*
X126477000Y-85090000D03*
X125827000Y-85090000D03*
X125177000Y-85090000D03*
X124527000Y-85090000D03*
X123877000Y-85090000D03*
D24*
X128914000Y-89916000D03*
X126864000Y-89916000D03*
D15*
X131581000Y-92075000D03*
X131581000Y-94075000D03*
D20*
X118745000Y-78083500D03*
X118745000Y-80158500D03*
D25*
X122428000Y-71374000D03*
X134874000Y-75946000D03*
X134874000Y-77978000D03*
X130109000Y-93025000D03*
X125476000Y-36957000D03*
X135890000Y-77978000D03*
X136906000Y-75946000D03*
X135890000Y-75946000D03*
X136906000Y-77978000D03*
X123571000Y-69850000D03*
X125095000Y-80772000D03*
X129794000Y-87122000D03*
X129413000Y-42164000D03*
X137033000Y-86741000D03*
X125095000Y-42037000D03*
X134763000Y-92091000D03*
X129727000Y-73212000D03*
X134493000Y-73152000D03*
X123444000Y-72390000D03*
X123190000Y-86995000D03*
X125730000Y-87122000D03*
X124460000Y-87122000D03*
X121158000Y-94488000D03*
X128397000Y-87122000D03*
X127127000Y-87122000D03*
D26*
X129168000Y-93025000D02*
X130109000Y-93025000D01*
X130631000Y-93025000D02*
X131581000Y-92075000D01*
X130109000Y-93025000D02*
X130631000Y-93025000D01*
X124046000Y-36957000D02*
X125476000Y-36957000D01*
X115316000Y-72644000D02*
X115316000Y-76073000D01*
X120777000Y-80137000D02*
X120650000Y-80264000D01*
X134493000Y-69755000D02*
X133191000Y-69755000D01*
X120650000Y-80264000D02*
X115570000Y-80264000D01*
D27*
X125095000Y-80772000D02*
X123900000Y-79577000D01*
D26*
X116713000Y-76327000D02*
X115570000Y-76327000D01*
X117790000Y-71313000D02*
X116713000Y-72390000D01*
X119137000Y-71313000D02*
X117790000Y-71313000D01*
X115316000Y-76073000D02*
X115570000Y-76327000D01*
D27*
X123877000Y-78090000D02*
X123877000Y-79577000D01*
X133191000Y-72866000D02*
X133191000Y-83725000D01*
X133191000Y-69755000D02*
X133191000Y-72866000D01*
X123317000Y-80137000D02*
X120777000Y-80137000D01*
X123877000Y-79577000D02*
X123317000Y-80137000D01*
D26*
X115570000Y-72390000D02*
X115316000Y-72644000D01*
X115570000Y-76327000D02*
X115570000Y-80264000D01*
D27*
X133191000Y-83725000D02*
X129794000Y-87122000D01*
X123900000Y-79577000D02*
X123877000Y-79577000D01*
D26*
X133191000Y-69755000D02*
X132461000Y-69755000D01*
X116713000Y-72390000D02*
X115570000Y-72390000D01*
D27*
X129446000Y-40767000D02*
X129667000Y-40767000D01*
X124841000Y-40767000D02*
X125095000Y-41021000D01*
D26*
X133613000Y-92091000D02*
X133613000Y-90043000D01*
D27*
X124046000Y-40767000D02*
X124841000Y-40767000D01*
D26*
X134763000Y-92091000D02*
X135713000Y-92091000D01*
D27*
X125095000Y-41021000D02*
X125095000Y-42037000D01*
D26*
X135713000Y-92091000D02*
X135772000Y-92032000D01*
X133731000Y-90043000D02*
X137033000Y-86741000D01*
D27*
X129446000Y-42131000D02*
X129413000Y-42164000D01*
D26*
X133613000Y-92091000D02*
X134763000Y-92091000D01*
X133613000Y-90043000D02*
X133731000Y-90043000D01*
X123698000Y-39497000D02*
X123571000Y-39624000D01*
X124046000Y-39497000D02*
X123698000Y-39497000D01*
D27*
X129446000Y-40767000D02*
X129446000Y-42131000D01*
D26*
X123571000Y-40292000D02*
X124046000Y-40767000D01*
X123571000Y-39624000D02*
X123571000Y-40292000D01*
D27*
X130556000Y-82550000D02*
X130556000Y-71882000D01*
X130683000Y-71755000D02*
X131953000Y-71755000D01*
X129727000Y-85090000D02*
X129727000Y-83379000D01*
X127635000Y-42037000D02*
X127635000Y-40005000D01*
X130556000Y-71882000D02*
X130556000Y-70485000D01*
X130556000Y-70485000D02*
X129794000Y-69723000D01*
X128143000Y-39497000D02*
X129446000Y-39497000D01*
X129794000Y-44196000D02*
X127635000Y-42037000D01*
X129794000Y-69723000D02*
X129794000Y-44196000D01*
X129727000Y-83379000D02*
X130556000Y-82550000D01*
X130683000Y-71755000D02*
X130556000Y-71882000D01*
X127635000Y-40005000D02*
X128143000Y-39497000D01*
X127000000Y-42291000D02*
X127000000Y-39243000D01*
X128016000Y-38227000D02*
X129446000Y-38227000D01*
X129727000Y-70545000D02*
X129286000Y-70104000D01*
X129727000Y-78090000D02*
X129727000Y-73212000D01*
X134493000Y-71755000D02*
X134493000Y-73152000D01*
X129286000Y-70104000D02*
X129286000Y-44577000D01*
X127000000Y-39243000D02*
X128016000Y-38227000D01*
X129727000Y-73212000D02*
X129727000Y-70545000D01*
X129286000Y-44577000D02*
X127000000Y-42291000D01*
D26*
X115697000Y-82677000D02*
X115570000Y-82804000D01*
X118491000Y-82677000D02*
X115697000Y-82677000D01*
D27*
X126477000Y-83424000D02*
X125730000Y-82677000D01*
X126477000Y-85090000D02*
X126477000Y-83424000D01*
X125730000Y-82677000D02*
X120491000Y-82677000D01*
D26*
X125725000Y-93975000D02*
X125542000Y-93792000D01*
X126893000Y-93975000D02*
X125725000Y-93975000D01*
X123190000Y-86995000D02*
X122428000Y-87757000D01*
X122687000Y-70363000D02*
X123444000Y-71120000D01*
X123444000Y-71120000D02*
X123444000Y-72390000D01*
X124276000Y-93025000D02*
X124215000Y-92964000D01*
X123063000Y-92964000D02*
X124215000Y-92964000D01*
X125542000Y-93025000D02*
X124276000Y-93025000D01*
X125542000Y-93792000D02*
X125542000Y-93025000D01*
X122428000Y-87757000D02*
X122428000Y-92329000D01*
X125542000Y-90485000D02*
X126111000Y-89916000D01*
X122428000Y-92329000D02*
X123063000Y-92964000D01*
X125542000Y-93025000D02*
X125542000Y-90485000D01*
X126111000Y-89916000D02*
X126864000Y-89916000D01*
X121412000Y-70363000D02*
X122687000Y-70363000D01*
X126893000Y-93025000D02*
X125542000Y-93025000D01*
D27*
X127777000Y-74437000D02*
X127254000Y-73914000D01*
X127777000Y-78090000D02*
X127777000Y-74437000D01*
X119137000Y-72263000D02*
X119634000Y-72263000D01*
X125254000Y-72009000D02*
X125254000Y-73914000D01*
X121031000Y-73660000D02*
X125000000Y-73660000D01*
X119634000Y-72263000D02*
X121031000Y-73660000D01*
X125000000Y-73660000D02*
X125254000Y-73914000D01*
X120269000Y-71755000D02*
X120269000Y-70612000D01*
X120269000Y-70612000D02*
X120020000Y-70363000D01*
X121412000Y-72263000D02*
X120777000Y-72263000D01*
X120777000Y-72263000D02*
X120269000Y-71755000D01*
D26*
X116740000Y-70363000D02*
X116713000Y-70390000D01*
X119137000Y-70363000D02*
X116740000Y-70363000D01*
D27*
X120020000Y-70363000D02*
X119137000Y-70363000D01*
D26*
X129168000Y-92075000D02*
X129168000Y-90170000D01*
X129041000Y-90043000D02*
X128914000Y-89916000D01*
X131113000Y-90043000D02*
X129041000Y-90043000D01*
X129168000Y-90170000D02*
X128914000Y-89916000D01*
D27*
X123222000Y-74327000D02*
X118745000Y-74327000D01*
X124527000Y-75632000D02*
X123222000Y-74327000D01*
X124527000Y-78090000D02*
X124527000Y-75632000D01*
D26*
X118745000Y-74327000D02*
X116713000Y-74327000D01*
X133497000Y-93975000D02*
X133613000Y-94091000D01*
X129168000Y-93975000D02*
X133497000Y-93975000D01*
D27*
X125827000Y-87025000D02*
X125730000Y-87122000D01*
X125827000Y-85090000D02*
X125827000Y-87025000D01*
X125177000Y-85090000D02*
X125177000Y-86405000D01*
X125177000Y-86405000D02*
X124460000Y-87122000D01*
X124527000Y-85090000D02*
X124527000Y-83760000D01*
X122428000Y-83439000D02*
X121158000Y-84709000D01*
X124206000Y-83439000D02*
X122428000Y-83439000D01*
X121158000Y-84709000D02*
X121158000Y-94488000D01*
X124527000Y-83760000D02*
X124206000Y-83439000D01*
X127777000Y-86502000D02*
X128397000Y-87122000D01*
X127777000Y-85090000D02*
X127777000Y-86502000D01*
X127127000Y-85090000D02*
X127127000Y-87122000D01*
X125857000Y-38989000D02*
X125857000Y-44577000D01*
X127889000Y-36957000D02*
X125857000Y-38989000D01*
X129446000Y-36957000D02*
X127889000Y-36957000D01*
X128427000Y-70642000D02*
X128427000Y-78090000D01*
X124460000Y-66675000D02*
X128427000Y-70642000D01*
X124460000Y-45974000D02*
X124460000Y-66675000D01*
X125857000Y-44577000D02*
X124460000Y-45974000D01*
G04 #@! TA.AperFunction,Conductor*
G36*
X140658121Y-69108002D02*
G01*
X140704614Y-69161658D01*
X140716000Y-69214000D01*
X140716000Y-95378000D01*
X140695998Y-95446121D01*
X140642342Y-95492614D01*
X140590000Y-95504000D01*
X114426000Y-95504000D01*
X114357879Y-95483998D01*
X114311386Y-95430342D01*
X114300000Y-95378000D01*
X114300000Y-91156964D01*
X116366148Y-91156964D01*
X116379424Y-91359522D01*
X116380845Y-91365118D01*
X116380846Y-91365123D01*
X116422981Y-91531025D01*
X116429392Y-91556269D01*
X116431809Y-91561512D01*
X116467717Y-91639403D01*
X116514377Y-91740616D01*
X116517710Y-91745332D01*
X116618731Y-91888274D01*
X116631533Y-91906389D01*
X116776938Y-92048035D01*
X116945720Y-92160812D01*
X116951023Y-92163090D01*
X116951026Y-92163092D01*
X117039707Y-92201192D01*
X117132228Y-92240942D01*
X117200653Y-92256425D01*
X117324579Y-92284467D01*
X117324584Y-92284468D01*
X117330216Y-92285742D01*
X117335987Y-92285969D01*
X117335989Y-92285969D01*
X117390838Y-92288124D01*
X117533053Y-92293712D01*
X117633499Y-92279148D01*
X117728231Y-92265413D01*
X117728236Y-92265412D01*
X117733945Y-92264584D01*
X117739409Y-92262729D01*
X117739414Y-92262728D01*
X117920693Y-92201192D01*
X117920698Y-92201190D01*
X117926165Y-92199334D01*
X118103276Y-92100147D01*
X118109920Y-92094622D01*
X118254913Y-91974031D01*
X118259345Y-91970345D01*
X118319414Y-91898120D01*
X118385453Y-91818718D01*
X118385455Y-91818715D01*
X118389147Y-91814276D01*
X118481056Y-91650161D01*
X118485510Y-91642208D01*
X118485511Y-91642206D01*
X118488334Y-91637165D01*
X118490190Y-91631698D01*
X118490192Y-91631693D01*
X118551728Y-91450414D01*
X118551729Y-91450409D01*
X118553584Y-91444945D01*
X118554412Y-91439236D01*
X118554413Y-91439231D01*
X118582179Y-91247727D01*
X118582712Y-91244053D01*
X118584232Y-91186000D01*
X118565658Y-90983859D01*
X118564090Y-90978299D01*
X118512125Y-90794046D01*
X118512124Y-90794044D01*
X118510557Y-90788487D01*
X118505617Y-90778468D01*
X118423331Y-90611609D01*
X118420776Y-90606428D01*
X118299320Y-90443779D01*
X118150258Y-90305987D01*
X118145375Y-90302906D01*
X118145371Y-90302903D01*
X117999728Y-90211010D01*
X117978581Y-90197667D01*
X117790039Y-90122446D01*
X117784379Y-90121320D01*
X117784375Y-90121319D01*
X117596613Y-90083971D01*
X117596610Y-90083971D01*
X117590946Y-90082844D01*
X117585171Y-90082768D01*
X117585167Y-90082768D01*
X117483793Y-90081441D01*
X117387971Y-90080187D01*
X117382274Y-90081166D01*
X117382273Y-90081166D01*
X117193607Y-90113585D01*
X117187910Y-90114564D01*
X116997463Y-90184824D01*
X116823010Y-90288612D01*
X116818670Y-90292418D01*
X116818666Y-90292421D01*
X116723874Y-90375552D01*
X116670392Y-90422455D01*
X116544720Y-90581869D01*
X116542031Y-90586980D01*
X116542029Y-90586983D01*
X116518156Y-90632358D01*
X116450203Y-90761515D01*
X116390007Y-90955378D01*
X116366148Y-91156964D01*
X114300000Y-91156964D01*
X114300000Y-83261800D01*
X114320002Y-83193679D01*
X114373658Y-83147186D01*
X114443932Y-83137082D01*
X114508512Y-83166576D01*
X114540425Y-83209048D01*
X114609377Y-83358616D01*
X114618669Y-83371764D01*
X114704198Y-83492785D01*
X114726533Y-83524389D01*
X114871938Y-83666035D01*
X115040720Y-83778812D01*
X115046023Y-83781090D01*
X115046026Y-83781092D01*
X115197987Y-83846379D01*
X115227228Y-83858942D01*
X115282448Y-83871437D01*
X115419579Y-83902467D01*
X115419584Y-83902468D01*
X115425216Y-83903742D01*
X115430987Y-83903969D01*
X115430989Y-83903969D01*
X115490756Y-83906317D01*
X115628053Y-83911712D01*
X115733099Y-83896481D01*
X115823231Y-83883413D01*
X115823236Y-83883412D01*
X115828945Y-83882584D01*
X115834409Y-83880729D01*
X115834414Y-83880728D01*
X116015693Y-83819192D01*
X116015698Y-83819190D01*
X116021165Y-83817334D01*
X116033758Y-83810282D01*
X116129217Y-83756822D01*
X116198276Y-83718147D01*
X116250500Y-83674713D01*
X116341846Y-83598740D01*
X116354345Y-83588345D01*
X116395256Y-83539155D01*
X116480453Y-83436718D01*
X116480455Y-83436715D01*
X116484147Y-83432276D01*
X116575739Y-83268727D01*
X116580510Y-83260208D01*
X116580511Y-83260206D01*
X116583334Y-83255165D01*
X116583427Y-83254891D01*
X116628252Y-83202155D01*
X116697378Y-83181500D01*
X117535275Y-83181500D01*
X117603396Y-83201502D01*
X117649889Y-83255158D01*
X117653257Y-83263271D01*
X117657462Y-83274487D01*
X117693929Y-83371764D01*
X117699309Y-83378943D01*
X117699311Y-83378946D01*
X117735499Y-83427231D01*
X117780596Y-83487404D01*
X117787776Y-83492785D01*
X117889054Y-83568689D01*
X117889057Y-83568691D01*
X117896236Y-83574071D01*
X117978012Y-83604727D01*
X118024157Y-83622026D01*
X118024159Y-83622026D01*
X118031552Y-83624798D01*
X118039402Y-83625651D01*
X118039403Y-83625651D01*
X118089847Y-83631131D01*
X118093244Y-83631500D01*
X118888756Y-83631500D01*
X118892153Y-83631131D01*
X118942597Y-83625651D01*
X118942598Y-83625651D01*
X118950448Y-83624798D01*
X118957841Y-83622026D01*
X118957843Y-83622026D01*
X119003988Y-83604727D01*
X119085764Y-83574071D01*
X119092943Y-83568691D01*
X119092946Y-83568689D01*
X119194224Y-83492785D01*
X119201404Y-83487404D01*
X119246501Y-83427231D01*
X119282689Y-83378946D01*
X119282691Y-83378943D01*
X119288071Y-83371764D01*
X119331375Y-83256250D01*
X119336026Y-83243843D01*
X119336026Y-83243841D01*
X119338798Y-83236448D01*
X119342524Y-83202155D01*
X119345131Y-83178153D01*
X119345131Y-83178152D01*
X119345500Y-83174756D01*
X119345500Y-82179244D01*
X119338798Y-82117552D01*
X119288071Y-81982236D01*
X119282691Y-81975057D01*
X119282689Y-81975054D01*
X119206785Y-81873776D01*
X119201404Y-81866596D01*
X119180977Y-81851287D01*
X119092946Y-81785311D01*
X119092943Y-81785309D01*
X119085764Y-81779929D01*
X118980442Y-81740446D01*
X118957843Y-81731974D01*
X118957841Y-81731974D01*
X118950448Y-81729202D01*
X118942598Y-81728349D01*
X118942597Y-81728349D01*
X118892153Y-81722869D01*
X118892152Y-81722869D01*
X118888756Y-81722500D01*
X118093244Y-81722500D01*
X118089848Y-81722869D01*
X118089847Y-81722869D01*
X118039403Y-81728349D01*
X118039402Y-81728349D01*
X118031552Y-81729202D01*
X118024159Y-81731974D01*
X118024157Y-81731974D01*
X118001558Y-81740446D01*
X117896236Y-81779929D01*
X117889057Y-81785309D01*
X117889054Y-81785311D01*
X117801023Y-81851287D01*
X117780596Y-81866596D01*
X117775215Y-81873776D01*
X117699311Y-81975054D01*
X117699309Y-81975057D01*
X117693929Y-81982236D01*
X117690779Y-81990640D01*
X117653257Y-82090729D01*
X117610616Y-82147494D01*
X117544054Y-82172194D01*
X117535275Y-82172500D01*
X116540164Y-82172500D01*
X116472043Y-82152498D01*
X116439206Y-82121889D01*
X116394320Y-82061779D01*
X116245258Y-81923987D01*
X116240375Y-81920906D01*
X116240371Y-81920903D01*
X116078464Y-81818748D01*
X116073581Y-81815667D01*
X115885039Y-81740446D01*
X115879379Y-81739320D01*
X115879375Y-81739319D01*
X115691613Y-81701971D01*
X115691610Y-81701971D01*
X115685946Y-81700844D01*
X115680171Y-81700768D01*
X115680167Y-81700768D01*
X115578793Y-81699441D01*
X115482971Y-81698187D01*
X115477274Y-81699166D01*
X115477273Y-81699166D01*
X115288607Y-81731585D01*
X115282910Y-81732564D01*
X115092463Y-81802824D01*
X114918010Y-81906612D01*
X114913670Y-81910418D01*
X114913666Y-81910421D01*
X114822195Y-81990640D01*
X114765392Y-82040455D01*
X114639720Y-82199869D01*
X114545203Y-82379515D01*
X114543489Y-82385033D01*
X114542408Y-82387644D01*
X114497858Y-82442924D01*
X114430494Y-82465343D01*
X114361703Y-82447783D01*
X114313326Y-82395820D01*
X114300000Y-82339423D01*
X114300000Y-80721800D01*
X114320002Y-80653679D01*
X114373658Y-80607186D01*
X114443932Y-80597082D01*
X114508512Y-80626576D01*
X114540425Y-80669048D01*
X114609377Y-80818616D01*
X114612710Y-80823332D01*
X114722464Y-80978631D01*
X114726533Y-80984389D01*
X114730675Y-80988424D01*
X114787637Y-81043913D01*
X114871938Y-81126035D01*
X115040720Y-81238812D01*
X115046023Y-81241090D01*
X115046026Y-81241092D01*
X115213495Y-81313042D01*
X115227228Y-81318942D01*
X115300244Y-81335464D01*
X115419579Y-81362467D01*
X115419584Y-81362468D01*
X115425216Y-81363742D01*
X115430987Y-81363969D01*
X115430989Y-81363969D01*
X115490756Y-81366317D01*
X115628053Y-81371712D01*
X115728499Y-81357148D01*
X115823231Y-81343413D01*
X115823236Y-81343412D01*
X115828945Y-81342584D01*
X115834409Y-81340729D01*
X115834414Y-81340728D01*
X116015693Y-81279192D01*
X116015698Y-81279190D01*
X116021165Y-81277334D01*
X116198276Y-81178147D01*
X116260934Y-81126035D01*
X116349913Y-81052031D01*
X116354345Y-81048345D01*
X116417593Y-80972298D01*
X116480453Y-80896718D01*
X116480455Y-80896715D01*
X116484147Y-80892276D01*
X116517382Y-80832931D01*
X116568116Y-80783272D01*
X116627314Y-80768500D01*
X117780689Y-80768500D01*
X117848810Y-80788502D01*
X117881514Y-80818934D01*
X117909596Y-80856404D01*
X117916776Y-80861785D01*
X118018054Y-80937689D01*
X118018057Y-80937691D01*
X118025236Y-80943071D01*
X118114954Y-80976704D01*
X118153157Y-80991026D01*
X118153159Y-80991026D01*
X118160552Y-80993798D01*
X118168402Y-80994651D01*
X118168403Y-80994651D01*
X118218847Y-81000131D01*
X118222244Y-81000500D01*
X119267756Y-81000500D01*
X119271153Y-81000131D01*
X119321597Y-80994651D01*
X119321598Y-80994651D01*
X119329448Y-80993798D01*
X119336841Y-80991026D01*
X119336843Y-80991026D01*
X119375046Y-80976704D01*
X119464764Y-80943071D01*
X119471943Y-80937691D01*
X119471946Y-80937689D01*
X119573224Y-80861785D01*
X119580404Y-80856404D01*
X119608485Y-80818935D01*
X119665343Y-80776420D01*
X119709311Y-80768500D01*
X119828802Y-80768500D01*
X119896923Y-80788502D01*
X119929625Y-80818932D01*
X119941596Y-80834904D01*
X119948776Y-80840285D01*
X120050054Y-80916189D01*
X120050057Y-80916191D01*
X120057236Y-80921571D01*
X120113441Y-80942641D01*
X120185157Y-80969526D01*
X120185159Y-80969526D01*
X120192552Y-80972298D01*
X120200402Y-80973151D01*
X120200403Y-80973151D01*
X120250847Y-80978631D01*
X120254244Y-80979000D01*
X121299756Y-80979000D01*
X121303153Y-80978631D01*
X121353597Y-80973151D01*
X121353598Y-80973151D01*
X121361448Y-80972298D01*
X121368841Y-80969526D01*
X121368843Y-80969526D01*
X121440559Y-80942641D01*
X121496764Y-80921571D01*
X121503943Y-80916191D01*
X121503946Y-80916189D01*
X121605224Y-80840285D01*
X121612404Y-80834904D01*
X121656235Y-80776420D01*
X121693689Y-80726446D01*
X121693691Y-80726443D01*
X121699071Y-80719264D01*
X121735057Y-80623271D01*
X121777698Y-80566506D01*
X121844260Y-80541806D01*
X121853039Y-80541500D01*
X123381066Y-80541500D01*
X123390498Y-80538435D01*
X123390500Y-80538435D01*
X123402287Y-80534605D01*
X123421513Y-80529989D01*
X123433762Y-80528049D01*
X123443555Y-80526498D01*
X123463439Y-80516366D01*
X123481705Y-80508801D01*
X123493496Y-80504970D01*
X123502929Y-80501905D01*
X123520989Y-80488784D01*
X123537846Y-80478454D01*
X123547276Y-80473649D01*
X123557723Y-80468326D01*
X123580511Y-80445538D01*
X123580515Y-80445535D01*
X123799405Y-80226645D01*
X123861717Y-80192619D01*
X123932532Y-80197684D01*
X123977595Y-80226645D01*
X124401135Y-80650185D01*
X124435161Y-80712497D01*
X124436723Y-80749967D01*
X124436800Y-80749968D01*
X124436785Y-80751440D01*
X124436963Y-80755720D01*
X124436720Y-80757563D01*
X124436720Y-80757569D01*
X124435729Y-80765096D01*
X124442644Y-80827728D01*
X124450261Y-80896718D01*
X124453113Y-80922553D01*
X124455723Y-80929684D01*
X124455723Y-80929686D01*
X124500495Y-81052031D01*
X124507553Y-81071319D01*
X124511789Y-81077622D01*
X124511789Y-81077623D01*
X124541611Y-81122002D01*
X124595908Y-81202805D01*
X124601527Y-81207918D01*
X124601528Y-81207919D01*
X124635479Y-81238812D01*
X124713076Y-81309419D01*
X124852293Y-81385008D01*
X125005522Y-81425207D01*
X125089477Y-81426526D01*
X125156319Y-81427576D01*
X125156322Y-81427576D01*
X125163916Y-81427695D01*
X125318332Y-81392329D01*
X125417240Y-81342584D01*
X125453072Y-81324563D01*
X125453075Y-81324561D01*
X125459855Y-81321151D01*
X125465626Y-81316222D01*
X125465629Y-81316220D01*
X125574536Y-81223204D01*
X125574536Y-81223203D01*
X125580314Y-81218269D01*
X125672755Y-81089624D01*
X125731842Y-80942641D01*
X125749447Y-80818936D01*
X125753581Y-80789891D01*
X125753581Y-80789888D01*
X125754162Y-80785807D01*
X125754307Y-80772000D01*
X125735276Y-80614733D01*
X125679280Y-80466546D01*
X125589553Y-80335992D01*
X125471275Y-80230611D01*
X125331274Y-80156484D01*
X125177633Y-80117892D01*
X125170034Y-80117852D01*
X125170033Y-80117852D01*
X125074292Y-80117351D01*
X125063878Y-80117296D01*
X124995863Y-80096938D01*
X124975443Y-80080393D01*
X124404645Y-79509595D01*
X124370619Y-79447283D01*
X124375684Y-79376468D01*
X124418231Y-79319632D01*
X124484751Y-79294821D01*
X124493740Y-79294500D01*
X124687968Y-79294500D01*
X124719745Y-79289822D01*
X124752870Y-79284946D01*
X124752872Y-79284945D01*
X124762561Y-79283519D01*
X124796518Y-79266847D01*
X124866482Y-79254779D01*
X124907379Y-79266749D01*
X124942082Y-79283712D01*
X124951761Y-79285124D01*
X125011505Y-79293840D01*
X125011511Y-79293840D01*
X125016032Y-79294500D01*
X125337968Y-79294500D01*
X125369745Y-79289822D01*
X125402870Y-79284946D01*
X125402872Y-79284945D01*
X125412561Y-79283519D01*
X125446518Y-79266847D01*
X125516482Y-79254779D01*
X125557379Y-79266749D01*
X125592082Y-79283712D01*
X125601761Y-79285124D01*
X125661505Y-79293840D01*
X125661511Y-79293840D01*
X125666032Y-79294500D01*
X125987968Y-79294500D01*
X126019745Y-79289822D01*
X126052870Y-79284946D01*
X126052872Y-79284945D01*
X126062561Y-79283519D01*
X126096518Y-79266847D01*
X126166482Y-79254779D01*
X126207379Y-79266749D01*
X126242082Y-79283712D01*
X126251761Y-79285124D01*
X126311505Y-79293840D01*
X126311511Y-79293840D01*
X126316032Y-79294500D01*
X126637968Y-79294500D01*
X126669745Y-79289822D01*
X126702870Y-79284946D01*
X126702872Y-79284945D01*
X126712561Y-79283519D01*
X126746518Y-79266847D01*
X126816482Y-79254779D01*
X126857379Y-79266749D01*
X126892082Y-79283712D01*
X126901761Y-79285124D01*
X126961505Y-79293840D01*
X126961511Y-79293840D01*
X126966032Y-79294500D01*
X127287968Y-79294500D01*
X127319745Y-79289822D01*
X127352870Y-79284946D01*
X127352872Y-79284945D01*
X127362561Y-79283519D01*
X127396518Y-79266847D01*
X127466482Y-79254779D01*
X127507379Y-79266749D01*
X127542082Y-79283712D01*
X127551761Y-79285124D01*
X127611505Y-79293840D01*
X127611511Y-79293840D01*
X127616032Y-79294500D01*
X127937968Y-79294500D01*
X127969745Y-79289822D01*
X128002870Y-79284946D01*
X128002872Y-79284945D01*
X128012561Y-79283519D01*
X128046518Y-79266847D01*
X128116482Y-79254779D01*
X128157379Y-79266749D01*
X128192082Y-79283712D01*
X128201761Y-79285124D01*
X128261505Y-79293840D01*
X128261511Y-79293840D01*
X128266032Y-79294500D01*
X128587968Y-79294500D01*
X128619745Y-79289822D01*
X128652870Y-79284946D01*
X128652872Y-79284945D01*
X128662561Y-79283519D01*
X128696518Y-79266847D01*
X128766482Y-79254779D01*
X128807379Y-79266749D01*
X128842082Y-79283712D01*
X128851761Y-79285124D01*
X128911505Y-79293840D01*
X128911511Y-79293840D01*
X128916032Y-79294500D01*
X129237968Y-79294500D01*
X129269745Y-79289822D01*
X129302870Y-79284946D01*
X129302872Y-79284945D01*
X129312561Y-79283519D01*
X129346518Y-79266847D01*
X129416482Y-79254779D01*
X129457379Y-79266749D01*
X129492082Y-79283712D01*
X129501761Y-79285124D01*
X129561505Y-79293840D01*
X129561511Y-79293840D01*
X129566032Y-79294500D01*
X129887968Y-79294500D01*
X129919745Y-79289822D01*
X129952870Y-79284946D01*
X129952872Y-79284945D01*
X129962561Y-79283519D01*
X129971352Y-79279203D01*
X129980703Y-79276297D01*
X129981214Y-79277942D01*
X130039935Y-79267815D01*
X130105315Y-79295489D01*
X130145355Y-79354118D01*
X130151500Y-79392985D01*
X130151500Y-82330260D01*
X130131498Y-82398381D01*
X130114595Y-82419355D01*
X129418465Y-83115485D01*
X129418462Y-83115489D01*
X129395674Y-83138277D01*
X129385546Y-83158154D01*
X129375216Y-83175011D01*
X129362095Y-83193071D01*
X129359030Y-83202504D01*
X129355199Y-83214295D01*
X129347634Y-83232561D01*
X129337502Y-83252445D01*
X129335951Y-83262238D01*
X129334011Y-83274487D01*
X129329395Y-83293713D01*
X129322500Y-83314934D01*
X129322500Y-83759500D01*
X129302498Y-83827621D01*
X129248842Y-83874114D01*
X129196500Y-83885500D01*
X128916032Y-83885500D01*
X128887475Y-83889704D01*
X128851130Y-83895054D01*
X128851128Y-83895055D01*
X128841439Y-83896481D01*
X128826188Y-83903969D01*
X128807482Y-83913153D01*
X128737518Y-83925221D01*
X128696621Y-83913251D01*
X128661918Y-83896288D01*
X128652239Y-83894876D01*
X128592495Y-83886160D01*
X128592489Y-83886160D01*
X128587968Y-83885500D01*
X128266032Y-83885500D01*
X128237475Y-83889704D01*
X128201130Y-83895054D01*
X128201128Y-83895055D01*
X128191439Y-83896481D01*
X128176188Y-83903969D01*
X128157482Y-83913153D01*
X128087518Y-83925221D01*
X128046621Y-83913251D01*
X128011918Y-83896288D01*
X128002239Y-83894876D01*
X127942495Y-83886160D01*
X127942489Y-83886160D01*
X127937968Y-83885500D01*
X127616032Y-83885500D01*
X127587475Y-83889704D01*
X127551130Y-83895054D01*
X127551128Y-83895055D01*
X127541439Y-83896481D01*
X127526188Y-83903969D01*
X127507482Y-83913153D01*
X127437518Y-83925221D01*
X127396621Y-83913251D01*
X127361918Y-83896288D01*
X127352239Y-83894876D01*
X127292495Y-83886160D01*
X127292489Y-83886160D01*
X127287968Y-83885500D01*
X127007500Y-83885500D01*
X126939379Y-83865498D01*
X126892886Y-83811842D01*
X126881500Y-83759500D01*
X126881500Y-83359934D01*
X126874605Y-83338713D01*
X126869989Y-83319487D01*
X126868049Y-83307241D01*
X126866498Y-83297445D01*
X126856370Y-83277568D01*
X126848803Y-83259300D01*
X126844971Y-83247506D01*
X126844969Y-83247501D01*
X126841905Y-83238072D01*
X126832722Y-83225432D01*
X126828787Y-83220017D01*
X126818454Y-83203155D01*
X126818123Y-83202504D01*
X126808326Y-83183277D01*
X126717723Y-83092674D01*
X125993515Y-82368465D01*
X125993511Y-82368462D01*
X125970723Y-82345674D01*
X125950844Y-82335545D01*
X125933989Y-82325216D01*
X125923953Y-82317925D01*
X125915929Y-82312095D01*
X125894704Y-82305199D01*
X125876438Y-82297633D01*
X125856555Y-82287502D01*
X125834513Y-82284011D01*
X125815287Y-82279395D01*
X125803500Y-82275565D01*
X125803498Y-82275565D01*
X125794066Y-82272500D01*
X121468684Y-82272500D01*
X121400563Y-82252498D01*
X121354070Y-82198842D01*
X121343421Y-82160108D01*
X121339651Y-82125402D01*
X121339651Y-82125400D01*
X121338798Y-82117552D01*
X121288071Y-81982236D01*
X121282691Y-81975057D01*
X121282689Y-81975054D01*
X121206785Y-81873776D01*
X121201404Y-81866596D01*
X121180977Y-81851287D01*
X121092946Y-81785311D01*
X121092943Y-81785309D01*
X121085764Y-81779929D01*
X120980442Y-81740446D01*
X120957843Y-81731974D01*
X120957841Y-81731974D01*
X120950448Y-81729202D01*
X120942598Y-81728349D01*
X120942597Y-81728349D01*
X120892153Y-81722869D01*
X120892152Y-81722869D01*
X120888756Y-81722500D01*
X120093244Y-81722500D01*
X120089848Y-81722869D01*
X120089847Y-81722869D01*
X120039403Y-81728349D01*
X120039402Y-81728349D01*
X120031552Y-81729202D01*
X120024159Y-81731974D01*
X120024157Y-81731974D01*
X120001558Y-81740446D01*
X119896236Y-81779929D01*
X119889057Y-81785309D01*
X119889054Y-81785311D01*
X119801023Y-81851287D01*
X119780596Y-81866596D01*
X119775215Y-81873776D01*
X119699311Y-81975054D01*
X119699309Y-81975057D01*
X119693929Y-81982236D01*
X119643202Y-82117552D01*
X119636500Y-82179244D01*
X119636500Y-83174756D01*
X119636869Y-83178152D01*
X119636869Y-83178153D01*
X119639477Y-83202155D01*
X119643202Y-83236448D01*
X119645974Y-83243841D01*
X119645974Y-83243843D01*
X119650625Y-83256250D01*
X119693929Y-83371764D01*
X119699309Y-83378943D01*
X119699311Y-83378946D01*
X119735499Y-83427231D01*
X119780596Y-83487404D01*
X119787776Y-83492785D01*
X119889054Y-83568689D01*
X119889057Y-83568691D01*
X119896236Y-83574071D01*
X119978012Y-83604727D01*
X120024157Y-83622026D01*
X120024159Y-83622026D01*
X120031552Y-83624798D01*
X120039402Y-83625651D01*
X120039403Y-83625651D01*
X120089847Y-83631131D01*
X120093244Y-83631500D01*
X120888756Y-83631500D01*
X120892153Y-83631131D01*
X120942597Y-83625651D01*
X120942598Y-83625651D01*
X120950448Y-83624798D01*
X120957841Y-83622026D01*
X120957843Y-83622026D01*
X121003988Y-83604727D01*
X121085764Y-83574071D01*
X121092943Y-83568691D01*
X121092946Y-83568689D01*
X121194224Y-83492785D01*
X121201404Y-83487404D01*
X121246501Y-83427231D01*
X121282689Y-83378946D01*
X121282691Y-83378943D01*
X121288071Y-83371764D01*
X121331375Y-83256250D01*
X121336026Y-83243843D01*
X121336026Y-83243841D01*
X121338798Y-83236448D01*
X121343421Y-83193892D01*
X121370663Y-83128330D01*
X121429026Y-83087904D01*
X121468684Y-83081500D01*
X121909260Y-83081500D01*
X121977381Y-83101502D01*
X122023874Y-83155158D01*
X122033978Y-83225432D01*
X122004484Y-83290012D01*
X121998355Y-83296595D01*
X120849465Y-84445485D01*
X120849462Y-84445489D01*
X120826674Y-84468277D01*
X120822171Y-84477115D01*
X120816546Y-84488154D01*
X120806216Y-84505011D01*
X120793095Y-84523071D01*
X120790030Y-84532504D01*
X120786199Y-84544295D01*
X120778634Y-84562561D01*
X120768502Y-84582445D01*
X120766951Y-84592238D01*
X120765011Y-84604487D01*
X120760395Y-84623713D01*
X120753500Y-84644934D01*
X120753500Y-93914996D01*
X120733498Y-93983117D01*
X120710330Y-94009945D01*
X120668039Y-94046838D01*
X120576950Y-94176444D01*
X120519406Y-94324037D01*
X120518414Y-94331570D01*
X120518414Y-94331571D01*
X120499734Y-94473463D01*
X120498729Y-94481096D01*
X120504073Y-94529500D01*
X120511059Y-94592773D01*
X120516113Y-94638553D01*
X120518723Y-94645684D01*
X120518723Y-94645686D01*
X120567225Y-94778224D01*
X120570553Y-94787319D01*
X120574789Y-94793622D01*
X120574789Y-94793623D01*
X120638256Y-94888071D01*
X120658908Y-94918805D01*
X120664527Y-94923918D01*
X120664528Y-94923919D01*
X120770460Y-95020309D01*
X120776076Y-95025419D01*
X120915293Y-95101008D01*
X121068522Y-95141207D01*
X121152477Y-95142526D01*
X121219319Y-95143576D01*
X121219322Y-95143576D01*
X121226916Y-95143695D01*
X121381332Y-95108329D01*
X121451742Y-95072917D01*
X121516072Y-95040563D01*
X121516075Y-95040561D01*
X121522855Y-95037151D01*
X121528626Y-95032222D01*
X121528629Y-95032220D01*
X121637536Y-94939204D01*
X121637536Y-94939203D01*
X121643314Y-94934269D01*
X121735755Y-94805624D01*
X121794842Y-94658641D01*
X121815356Y-94514498D01*
X121816581Y-94505891D01*
X121816581Y-94505888D01*
X121817162Y-94501807D01*
X121817252Y-94493233D01*
X121817264Y-94492134D01*
X121817264Y-94492128D01*
X121817307Y-94488000D01*
X121816279Y-94479500D01*
X121812626Y-94449315D01*
X121798276Y-94330733D01*
X121742280Y-94182546D01*
X121709684Y-94135118D01*
X121656855Y-94058251D01*
X121656854Y-94058249D01*
X121652553Y-94051992D01*
X121604681Y-94009339D01*
X121567126Y-93949090D01*
X121562500Y-93915263D01*
X121562500Y-84928740D01*
X121582502Y-84860619D01*
X121599405Y-84839645D01*
X122558645Y-83880405D01*
X122620957Y-83846379D01*
X122647740Y-83843500D01*
X123986259Y-83843500D01*
X124054380Y-83863502D01*
X124075354Y-83880405D01*
X124076086Y-83881137D01*
X124110112Y-83943449D01*
X124105047Y-84014264D01*
X124092550Y-84037791D01*
X124088771Y-84041576D01*
X124033288Y-84155082D01*
X124031876Y-84164761D01*
X124023165Y-84224476D01*
X124022500Y-84229032D01*
X124022500Y-85950968D01*
X124033481Y-86025561D01*
X124037798Y-86034353D01*
X124082541Y-86125484D01*
X124089162Y-86138970D01*
X124178576Y-86228229D01*
X124259122Y-86267601D01*
X124311537Y-86315486D01*
X124329744Y-86384108D01*
X124307960Y-86451680D01*
X124253102Y-86496748D01*
X124244658Y-86499536D01*
X124244690Y-86499621D01*
X124237564Y-86502271D01*
X124230184Y-86504043D01*
X124089414Y-86576700D01*
X123970039Y-86680838D01*
X123965672Y-86687052D01*
X123963107Y-86689901D01*
X123902661Y-86727141D01*
X123831678Y-86725791D01*
X123772692Y-86686278D01*
X123765629Y-86676959D01*
X123764864Y-86675845D01*
X123724501Y-86617117D01*
X123688855Y-86565251D01*
X123688854Y-86565249D01*
X123684553Y-86558992D01*
X123566275Y-86453611D01*
X123558889Y-86449700D01*
X123432988Y-86383039D01*
X123432989Y-86383039D01*
X123426274Y-86379484D01*
X123272633Y-86340892D01*
X123265034Y-86340852D01*
X123265033Y-86340852D01*
X123199181Y-86340507D01*
X123114221Y-86340062D01*
X123106841Y-86341834D01*
X123106839Y-86341834D01*
X122967563Y-86375271D01*
X122967560Y-86375272D01*
X122960184Y-86377043D01*
X122819414Y-86449700D01*
X122700039Y-86553838D01*
X122608950Y-86683444D01*
X122592440Y-86725791D01*
X122557056Y-86816546D01*
X122551406Y-86831037D01*
X122550415Y-86838568D01*
X122550414Y-86838570D01*
X122543482Y-86891226D01*
X122514759Y-86956153D01*
X122507655Y-86963874D01*
X122121206Y-87350323D01*
X122111766Y-87357865D01*
X122112089Y-87358245D01*
X122105253Y-87364063D01*
X122097661Y-87368853D01*
X122091719Y-87375581D01*
X122062329Y-87408859D01*
X122056983Y-87414546D01*
X122045649Y-87425880D01*
X122042964Y-87429463D01*
X122042962Y-87429465D01*
X122039447Y-87434155D01*
X122033062Y-87441998D01*
X122001999Y-87477170D01*
X121998186Y-87485292D01*
X121996346Y-87488093D01*
X121987937Y-87502088D01*
X121986315Y-87505051D01*
X121980930Y-87512236D01*
X121977777Y-87520646D01*
X121977776Y-87520648D01*
X121964454Y-87556182D01*
X121960530Y-87565495D01*
X121940583Y-87607982D01*
X121939201Y-87616856D01*
X121938215Y-87620083D01*
X121934075Y-87635866D01*
X121933354Y-87639144D01*
X121930202Y-87647552D01*
X121929537Y-87656503D01*
X121926724Y-87694357D01*
X121925570Y-87704404D01*
X121923500Y-87717697D01*
X121923500Y-87733062D01*
X121923154Y-87742399D01*
X121919493Y-87791667D01*
X121921366Y-87800442D01*
X121921959Y-87809138D01*
X121923500Y-87823738D01*
X121923500Y-92258376D01*
X121922159Y-92270381D01*
X121922655Y-92270421D01*
X121921935Y-92279368D01*
X121919954Y-92288124D01*
X121920510Y-92297084D01*
X121923258Y-92341382D01*
X121923500Y-92349184D01*
X121923500Y-92365226D01*
X121924135Y-92369657D01*
X121924135Y-92369662D01*
X121924965Y-92375453D01*
X121925996Y-92385514D01*
X121928902Y-92432359D01*
X121931949Y-92440799D01*
X121932630Y-92444089D01*
X121936582Y-92459938D01*
X121937527Y-92463168D01*
X121938799Y-92472052D01*
X121942514Y-92480223D01*
X121958218Y-92514763D01*
X121962030Y-92524128D01*
X121974922Y-92559837D01*
X121974924Y-92559840D01*
X121977972Y-92568284D01*
X121983268Y-92575533D01*
X121984840Y-92578490D01*
X121993093Y-92592614D01*
X121994898Y-92595437D01*
X121998612Y-92603605D01*
X122004469Y-92610402D01*
X122004470Y-92610404D01*
X122029243Y-92639153D01*
X122035525Y-92647064D01*
X122043473Y-92657944D01*
X122054334Y-92668805D01*
X122060692Y-92675652D01*
X122087084Y-92706282D01*
X122087087Y-92706284D01*
X122092944Y-92713082D01*
X122100477Y-92717965D01*
X122107044Y-92723693D01*
X122118453Y-92732924D01*
X122656324Y-93270794D01*
X122663867Y-93280235D01*
X122664246Y-93279912D01*
X122670062Y-93286745D01*
X122674853Y-93294339D01*
X122681583Y-93300283D01*
X122681585Y-93300285D01*
X122714866Y-93329678D01*
X122720554Y-93335024D01*
X122731881Y-93346351D01*
X122735464Y-93349036D01*
X122735466Y-93349038D01*
X122740152Y-93352550D01*
X122747995Y-93358935D01*
X122783170Y-93390001D01*
X122791297Y-93393816D01*
X122794117Y-93395669D01*
X122808113Y-93404078D01*
X122811054Y-93405688D01*
X122818236Y-93411071D01*
X122826640Y-93414222D01*
X122826641Y-93414222D01*
X122862178Y-93427544D01*
X122871492Y-93431468D01*
X122913982Y-93451417D01*
X122922853Y-93452798D01*
X122926075Y-93453783D01*
X122941858Y-93457923D01*
X122945142Y-93458645D01*
X122953552Y-93461798D01*
X123000357Y-93465276D01*
X123010397Y-93466429D01*
X123016666Y-93467405D01*
X123018886Y-93467751D01*
X123018887Y-93467751D01*
X123023697Y-93468500D01*
X123039066Y-93468500D01*
X123048404Y-93468847D01*
X123088716Y-93471843D01*
X123088717Y-93471843D01*
X123097667Y-93472508D01*
X123106442Y-93470635D01*
X123115126Y-93470043D01*
X123129742Y-93468500D01*
X123177141Y-93468500D01*
X123245262Y-93488502D01*
X123287662Y-93533992D01*
X123289776Y-93537854D01*
X123292929Y-93546264D01*
X123298314Y-93553449D01*
X123298315Y-93553451D01*
X123321418Y-93584277D01*
X123379596Y-93661904D01*
X123386776Y-93667285D01*
X123488054Y-93743189D01*
X123488057Y-93743191D01*
X123495236Y-93748571D01*
X123557899Y-93772062D01*
X123623157Y-93796526D01*
X123623159Y-93796526D01*
X123630552Y-93799298D01*
X123638402Y-93800151D01*
X123638403Y-93800151D01*
X123688847Y-93805631D01*
X123692244Y-93806000D01*
X124737756Y-93806000D01*
X124741153Y-93805631D01*
X124791597Y-93800151D01*
X124791598Y-93800151D01*
X124799448Y-93799298D01*
X124806841Y-93796526D01*
X124806843Y-93796526D01*
X124872101Y-93772062D01*
X124942908Y-93766879D01*
X125005277Y-93800800D01*
X125039406Y-93863056D01*
X125042088Y-93882239D01*
X125042902Y-93895359D01*
X125045949Y-93903799D01*
X125046630Y-93907089D01*
X125050582Y-93922938D01*
X125051527Y-93926168D01*
X125052799Y-93935052D01*
X125056514Y-93943223D01*
X125072218Y-93977763D01*
X125076030Y-93987128D01*
X125088922Y-94022837D01*
X125088924Y-94022840D01*
X125091972Y-94031284D01*
X125097268Y-94038533D01*
X125098840Y-94041490D01*
X125107093Y-94055614D01*
X125108898Y-94058437D01*
X125112612Y-94066605D01*
X125118469Y-94073402D01*
X125118470Y-94073404D01*
X125143243Y-94102153D01*
X125149525Y-94110064D01*
X125157473Y-94120944D01*
X125168335Y-94131806D01*
X125174693Y-94138652D01*
X125206944Y-94176082D01*
X125214479Y-94180966D01*
X125221051Y-94186699D01*
X125232455Y-94195926D01*
X125318323Y-94281794D01*
X125325865Y-94291234D01*
X125326245Y-94290911D01*
X125332063Y-94297747D01*
X125336853Y-94305339D01*
X125343581Y-94311281D01*
X125376859Y-94340671D01*
X125382546Y-94346017D01*
X125393880Y-94357351D01*
X125397463Y-94360036D01*
X125397465Y-94360038D01*
X125402155Y-94363553D01*
X125409998Y-94369938D01*
X125445170Y-94401001D01*
X125453292Y-94404814D01*
X125456093Y-94406654D01*
X125470088Y-94415063D01*
X125473051Y-94416685D01*
X125480236Y-94422070D01*
X125488646Y-94425223D01*
X125488648Y-94425224D01*
X125524182Y-94438546D01*
X125533495Y-94442470D01*
X125575982Y-94462417D01*
X125584856Y-94463799D01*
X125588083Y-94464785D01*
X125603866Y-94468925D01*
X125607144Y-94469646D01*
X125615552Y-94472798D01*
X125629309Y-94473820D01*
X125662357Y-94476276D01*
X125672404Y-94477430D01*
X125680886Y-94478751D01*
X125680889Y-94478751D01*
X125685697Y-94479500D01*
X125701062Y-94479500D01*
X125710400Y-94479846D01*
X125759667Y-94483507D01*
X125768442Y-94481634D01*
X125777138Y-94481041D01*
X125791738Y-94479500D01*
X126155007Y-94479500D01*
X126212210Y-94493233D01*
X126237053Y-94505891D01*
X126253945Y-94514498D01*
X126348666Y-94529500D01*
X127437334Y-94529500D01*
X127532055Y-94514498D01*
X127646223Y-94456326D01*
X127736826Y-94365723D01*
X127794998Y-94251555D01*
X127810000Y-94156834D01*
X128251000Y-94156834D01*
X128266002Y-94251555D01*
X128324174Y-94365723D01*
X128414777Y-94456326D01*
X128528945Y-94514498D01*
X128623666Y-94529500D01*
X129712334Y-94529500D01*
X129807055Y-94514498D01*
X129823947Y-94505891D01*
X129848790Y-94493233D01*
X129905993Y-94479500D01*
X130525275Y-94479500D01*
X130593396Y-94499502D01*
X130639889Y-94553158D01*
X130643257Y-94561271D01*
X130683929Y-94669764D01*
X130689309Y-94676943D01*
X130689311Y-94676946D01*
X130755287Y-94764977D01*
X130770596Y-94785404D01*
X130777776Y-94790785D01*
X130879054Y-94866689D01*
X130879057Y-94866691D01*
X130886236Y-94872071D01*
X130975954Y-94905704D01*
X131014157Y-94920026D01*
X131014159Y-94920026D01*
X131021552Y-94922798D01*
X131029402Y-94923651D01*
X131029403Y-94923651D01*
X131070311Y-94928095D01*
X131083244Y-94929500D01*
X132078756Y-94929500D01*
X132091689Y-94928095D01*
X132132597Y-94923651D01*
X132132598Y-94923651D01*
X132140448Y-94922798D01*
X132147841Y-94920026D01*
X132147843Y-94920026D01*
X132186046Y-94905704D01*
X132275764Y-94872071D01*
X132282943Y-94866691D01*
X132282946Y-94866689D01*
X132384224Y-94790785D01*
X132391404Y-94785404D01*
X132478071Y-94669764D01*
X132481224Y-94661354D01*
X132483096Y-94657934D01*
X132533354Y-94607788D01*
X132602745Y-94592773D01*
X132669237Y-94617657D01*
X132708176Y-94669644D01*
X132708467Y-94669485D01*
X132709580Y-94671519D01*
X132711599Y-94674214D01*
X132715929Y-94685764D01*
X132721309Y-94692943D01*
X132721311Y-94692946D01*
X132785224Y-94778224D01*
X132802596Y-94801404D01*
X132809776Y-94806785D01*
X132911054Y-94882689D01*
X132911057Y-94882691D01*
X132918236Y-94888071D01*
X133000220Y-94918805D01*
X133046157Y-94936026D01*
X133046159Y-94936026D01*
X133053552Y-94938798D01*
X133061402Y-94939651D01*
X133061403Y-94939651D01*
X133111847Y-94945131D01*
X133115244Y-94945500D01*
X134110756Y-94945500D01*
X134114153Y-94945131D01*
X134164597Y-94939651D01*
X134164598Y-94939651D01*
X134172448Y-94938798D01*
X134179841Y-94936026D01*
X134179843Y-94936026D01*
X134225780Y-94918805D01*
X134307764Y-94888071D01*
X134314943Y-94882691D01*
X134314946Y-94882689D01*
X134416224Y-94806785D01*
X134423404Y-94801404D01*
X134440776Y-94778224D01*
X134504689Y-94692946D01*
X134504691Y-94692943D01*
X134510071Y-94685764D01*
X134560798Y-94550448D01*
X134564704Y-94514498D01*
X134567131Y-94492153D01*
X134567131Y-94492152D01*
X134567500Y-94488756D01*
X134567500Y-93693244D01*
X134560798Y-93631552D01*
X134510071Y-93496236D01*
X134504691Y-93489057D01*
X134504689Y-93489054D01*
X134428785Y-93387776D01*
X134428784Y-93387775D01*
X134423404Y-93380596D01*
X134373480Y-93343180D01*
X134314946Y-93299311D01*
X134314943Y-93299309D01*
X134307764Y-93293929D01*
X134218046Y-93260296D01*
X134179843Y-93245974D01*
X134179841Y-93245974D01*
X134172448Y-93243202D01*
X134164598Y-93242349D01*
X134164597Y-93242349D01*
X134114153Y-93236869D01*
X134114152Y-93236869D01*
X134110756Y-93236500D01*
X133115244Y-93236500D01*
X133111848Y-93236869D01*
X133111847Y-93236869D01*
X133061403Y-93242349D01*
X133061402Y-93242349D01*
X133053552Y-93243202D01*
X133046159Y-93245974D01*
X133046157Y-93245974D01*
X133007954Y-93260296D01*
X132918236Y-93293929D01*
X132911057Y-93299309D01*
X132911054Y-93299311D01*
X132852520Y-93343180D01*
X132802596Y-93380596D01*
X132779757Y-93411071D01*
X132773017Y-93420064D01*
X132716158Y-93462580D01*
X132672190Y-93470500D01*
X132533801Y-93470500D01*
X132465680Y-93450498D01*
X132432976Y-93420066D01*
X132391404Y-93364596D01*
X132344813Y-93329678D01*
X132282946Y-93283311D01*
X132282943Y-93283309D01*
X132275764Y-93277929D01*
X132165251Y-93236500D01*
X132147843Y-93229974D01*
X132147841Y-93229974D01*
X132140448Y-93227202D01*
X132132598Y-93226349D01*
X132132597Y-93226349D01*
X132082153Y-93220869D01*
X132082152Y-93220869D01*
X132078756Y-93220500D01*
X131083244Y-93220500D01*
X131079848Y-93220869D01*
X131079847Y-93220869D01*
X131029403Y-93226349D01*
X131029402Y-93226349D01*
X131021552Y-93227202D01*
X131014159Y-93229974D01*
X131014157Y-93229974D01*
X130996749Y-93236500D01*
X130886236Y-93277929D01*
X130879057Y-93283309D01*
X130879054Y-93283311D01*
X130817187Y-93329678D01*
X130770596Y-93364596D01*
X130729025Y-93420065D01*
X130672167Y-93462580D01*
X130628199Y-93470500D01*
X129905993Y-93470500D01*
X129848790Y-93456767D01*
X129815889Y-93440003D01*
X129815888Y-93440003D01*
X129807055Y-93435502D01*
X129712334Y-93420500D01*
X128623666Y-93420500D01*
X128528945Y-93435502D01*
X128414777Y-93493674D01*
X128324174Y-93584277D01*
X128266002Y-93698445D01*
X128251000Y-93793166D01*
X128251000Y-94156834D01*
X127810000Y-94156834D01*
X127810000Y-93793166D01*
X127794998Y-93698445D01*
X127736826Y-93584277D01*
X127729815Y-93577266D01*
X127727487Y-93574062D01*
X127703628Y-93507195D01*
X127719707Y-93438043D01*
X127727487Y-93425938D01*
X127729815Y-93422734D01*
X127736826Y-93415723D01*
X127742760Y-93404078D01*
X127767470Y-93355582D01*
X127794998Y-93301555D01*
X127810000Y-93206834D01*
X127810000Y-92843166D01*
X127794998Y-92748445D01*
X127746884Y-92654017D01*
X127741327Y-92643110D01*
X127741326Y-92643109D01*
X127736826Y-92634277D01*
X127729815Y-92627266D01*
X127727487Y-92624062D01*
X127703628Y-92557195D01*
X127719707Y-92488043D01*
X127727487Y-92475938D01*
X127729815Y-92472734D01*
X127736826Y-92465723D01*
X127794998Y-92351555D01*
X127810000Y-92256834D01*
X127810000Y-91893166D01*
X127794998Y-91798445D01*
X127736826Y-91684277D01*
X127646223Y-91593674D01*
X127532055Y-91535502D01*
X127437334Y-91520500D01*
X126348666Y-91520500D01*
X126253945Y-91535502D01*
X126245112Y-91540003D01*
X126245111Y-91540003D01*
X126229703Y-91547854D01*
X126159926Y-91560958D01*
X126094142Y-91534258D01*
X126053235Y-91476231D01*
X126046500Y-91435587D01*
X126046500Y-90879294D01*
X126066502Y-90811173D01*
X126120158Y-90764680D01*
X126190432Y-90754576D01*
X126248065Y-90778468D01*
X126294236Y-90813071D01*
X126343962Y-90831712D01*
X126422157Y-90861026D01*
X126422159Y-90861026D01*
X126429552Y-90863798D01*
X126437402Y-90864651D01*
X126437403Y-90864651D01*
X126487847Y-90870131D01*
X126491244Y-90870500D01*
X127236756Y-90870500D01*
X127240153Y-90870131D01*
X127290597Y-90864651D01*
X127290598Y-90864651D01*
X127298448Y-90863798D01*
X127305841Y-90861026D01*
X127305843Y-90861026D01*
X127384038Y-90831712D01*
X127433764Y-90813071D01*
X127440943Y-90807691D01*
X127440946Y-90807689D01*
X127542224Y-90731785D01*
X127549404Y-90726404D01*
X127589053Y-90673500D01*
X127630689Y-90617946D01*
X127630691Y-90617943D01*
X127636071Y-90610764D01*
X127686798Y-90475448D01*
X127693500Y-90413756D01*
X128084500Y-90413756D01*
X128091202Y-90475448D01*
X128141929Y-90610764D01*
X128147309Y-90617943D01*
X128147311Y-90617946D01*
X128188947Y-90673500D01*
X128228596Y-90726404D01*
X128235776Y-90731785D01*
X128337054Y-90807689D01*
X128337057Y-90807691D01*
X128344236Y-90813071D01*
X128393962Y-90831712D01*
X128472157Y-90861026D01*
X128472159Y-90861026D01*
X128479552Y-90863798D01*
X128487402Y-90864651D01*
X128487403Y-90864651D01*
X128504904Y-90866552D01*
X128541244Y-90870500D01*
X128544365Y-90870500D01*
X128611251Y-90894136D01*
X128654776Y-90950227D01*
X128663500Y-90996297D01*
X128663500Y-91406576D01*
X128643498Y-91474697D01*
X128589842Y-91521190D01*
X128557212Y-91531025D01*
X128538736Y-91533951D01*
X128538734Y-91533952D01*
X128528945Y-91535502D01*
X128414777Y-91593674D01*
X128324174Y-91684277D01*
X128266002Y-91798445D01*
X128251000Y-91893166D01*
X128251000Y-92256834D01*
X128266002Y-92351555D01*
X128324174Y-92465723D01*
X128414777Y-92556326D01*
X128528945Y-92614498D01*
X128623666Y-92629500D01*
X129712334Y-92629500D01*
X129807055Y-92614498D01*
X129921223Y-92556326D01*
X129988793Y-92488756D01*
X132658500Y-92488756D01*
X132658869Y-92492152D01*
X132658869Y-92492153D01*
X132661949Y-92520500D01*
X132665202Y-92550448D01*
X132715929Y-92685764D01*
X132721309Y-92692943D01*
X132721311Y-92692946D01*
X132770245Y-92758238D01*
X132802596Y-92801404D01*
X132809776Y-92806785D01*
X132911054Y-92882689D01*
X132911057Y-92882691D01*
X132918236Y-92888071D01*
X133007954Y-92921704D01*
X133046157Y-92936026D01*
X133046159Y-92936026D01*
X133053552Y-92938798D01*
X133061402Y-92939651D01*
X133061403Y-92939651D01*
X133111847Y-92945131D01*
X133115244Y-92945500D01*
X134110756Y-92945500D01*
X134114153Y-92945131D01*
X134164597Y-92939651D01*
X134164598Y-92939651D01*
X134172448Y-92938798D01*
X134179841Y-92936026D01*
X134179843Y-92936026D01*
X134218046Y-92921704D01*
X134307764Y-92888071D01*
X134314943Y-92882691D01*
X134314946Y-92882689D01*
X134416221Y-92806788D01*
X134416224Y-92806785D01*
X134423404Y-92801404D01*
X134428785Y-92794224D01*
X134428789Y-92794220D01*
X134449498Y-92766587D01*
X134506357Y-92724071D01*
X134582299Y-92720275D01*
X134673522Y-92744207D01*
X134754238Y-92745475D01*
X134824317Y-92746576D01*
X134824320Y-92746576D01*
X134831916Y-92746695D01*
X134839321Y-92744999D01*
X134839322Y-92744999D01*
X134872309Y-92737444D01*
X134943176Y-92741734D01*
X134976003Y-92759438D01*
X135052236Y-92816571D01*
X135123179Y-92843166D01*
X135180157Y-92864526D01*
X135180159Y-92864526D01*
X135187552Y-92867298D01*
X135195402Y-92868151D01*
X135195403Y-92868151D01*
X135245847Y-92873631D01*
X135249244Y-92874000D01*
X136294756Y-92874000D01*
X136298153Y-92873631D01*
X136348597Y-92868151D01*
X136348598Y-92868151D01*
X136356448Y-92867298D01*
X136363841Y-92864526D01*
X136363843Y-92864526D01*
X136420821Y-92843166D01*
X136491764Y-92816571D01*
X136498943Y-92811191D01*
X136498946Y-92811189D01*
X136600224Y-92735285D01*
X136607404Y-92729904D01*
X136640485Y-92685764D01*
X136688689Y-92621446D01*
X136688691Y-92621443D01*
X136694071Y-92614264D01*
X136741121Y-92488756D01*
X136742026Y-92486343D01*
X136742026Y-92486341D01*
X136744798Y-92478948D01*
X136751500Y-92417256D01*
X136751500Y-91646744D01*
X136751007Y-91642208D01*
X136745651Y-91592903D01*
X136745651Y-91592902D01*
X136744798Y-91585052D01*
X136731911Y-91550674D01*
X136720889Y-91521275D01*
X136694071Y-91449736D01*
X136688691Y-91442557D01*
X136688689Y-91442554D01*
X136612785Y-91341276D01*
X136607404Y-91334096D01*
X136586977Y-91318787D01*
X136498946Y-91252811D01*
X136498943Y-91252809D01*
X136491764Y-91247429D01*
X136393564Y-91210616D01*
X136363843Y-91199474D01*
X136363841Y-91199474D01*
X136356448Y-91196702D01*
X136348598Y-91195849D01*
X136348597Y-91195849D01*
X136298153Y-91190369D01*
X136298152Y-91190369D01*
X136294756Y-91190000D01*
X135249244Y-91190000D01*
X135245848Y-91190369D01*
X135245847Y-91190369D01*
X135195403Y-91195849D01*
X135195402Y-91195849D01*
X135187552Y-91196702D01*
X135180159Y-91199474D01*
X135180157Y-91199474D01*
X135150436Y-91210616D01*
X135052236Y-91247429D01*
X135045057Y-91252809D01*
X135045054Y-91252811D01*
X134957023Y-91318787D01*
X134936596Y-91334096D01*
X134931215Y-91341276D01*
X134897547Y-91386199D01*
X134840688Y-91428714D01*
X134796061Y-91436632D01*
X134739496Y-91436336D01*
X134687221Y-91436062D01*
X134679841Y-91437834D01*
X134679839Y-91437834D01*
X134631225Y-91449505D01*
X134579419Y-91461943D01*
X134508512Y-91458396D01*
X134449180Y-91414989D01*
X134428785Y-91387776D01*
X134423404Y-91380596D01*
X134387590Y-91353755D01*
X134314946Y-91299311D01*
X134314943Y-91299309D01*
X134307764Y-91293929D01*
X134242019Y-91269282D01*
X134199271Y-91253257D01*
X134142506Y-91210616D01*
X134117806Y-91144054D01*
X134117500Y-91135275D01*
X134117500Y-90903571D01*
X134137502Y-90835450D01*
X134195284Y-90787161D01*
X134200126Y-90785156D01*
X134212301Y-90782734D01*
X134222621Y-90775839D01*
X134222622Y-90775838D01*
X134286168Y-90733377D01*
X134296484Y-90726484D01*
X134352734Y-90642301D01*
X134367500Y-90568067D01*
X134367500Y-90172161D01*
X134387502Y-90104040D01*
X134404405Y-90083066D01*
X137061834Y-87425637D01*
X137122800Y-87391912D01*
X137248927Y-87363025D01*
X137256332Y-87361329D01*
X137353172Y-87312624D01*
X137391072Y-87293563D01*
X137391075Y-87293561D01*
X137397855Y-87290151D01*
X137403626Y-87285222D01*
X137403629Y-87285220D01*
X137512536Y-87192204D01*
X137512536Y-87192203D01*
X137518314Y-87187269D01*
X137610755Y-87058624D01*
X137669842Y-86911641D01*
X137692162Y-86754807D01*
X137692307Y-86741000D01*
X137673276Y-86583733D01*
X137617280Y-86435546D01*
X137560121Y-86352379D01*
X137531855Y-86311251D01*
X137531854Y-86311249D01*
X137527553Y-86304992D01*
X137505254Y-86285124D01*
X137441395Y-86228229D01*
X137409275Y-86199611D01*
X137401889Y-86195700D01*
X137308639Y-86146327D01*
X137269274Y-86125484D01*
X137115633Y-86086892D01*
X137108034Y-86086852D01*
X137108033Y-86086852D01*
X137042181Y-86086507D01*
X136957221Y-86086062D01*
X136949841Y-86087834D01*
X136949839Y-86087834D01*
X136810563Y-86121271D01*
X136810560Y-86121272D01*
X136803184Y-86123043D01*
X136662414Y-86195700D01*
X136543039Y-86299838D01*
X136451950Y-86429444D01*
X136436961Y-86467889D01*
X136403411Y-86553941D01*
X136394406Y-86577037D01*
X136393415Y-86584568D01*
X136393414Y-86584570D01*
X136386482Y-86637226D01*
X136357759Y-86702153D01*
X136350655Y-86709874D01*
X133808934Y-89251595D01*
X133746622Y-89285621D01*
X133719839Y-89288500D01*
X133160458Y-89288501D01*
X133087934Y-89288501D01*
X133052182Y-89295612D01*
X133025874Y-89300844D01*
X133025872Y-89300845D01*
X133013699Y-89303266D01*
X133003379Y-89310161D01*
X133003378Y-89310162D01*
X132945019Y-89349157D01*
X132929516Y-89359516D01*
X132922623Y-89369832D01*
X132887992Y-89421661D01*
X132873266Y-89443699D01*
X132858500Y-89517933D01*
X132858501Y-90568066D01*
X132862264Y-90586983D01*
X132867162Y-90611609D01*
X132873266Y-90642301D01*
X132929516Y-90726484D01*
X133013699Y-90782734D01*
X133025873Y-90785155D01*
X133030719Y-90787163D01*
X133085999Y-90831712D01*
X133108500Y-90903572D01*
X133108500Y-91135275D01*
X133088498Y-91203396D01*
X133034842Y-91249889D01*
X133026729Y-91253257D01*
X132983981Y-91269282D01*
X132918236Y-91293929D01*
X132911057Y-91299309D01*
X132911054Y-91299311D01*
X132838410Y-91353755D01*
X132802596Y-91380596D01*
X132797215Y-91387776D01*
X132721311Y-91489054D01*
X132721309Y-91489057D01*
X132715929Y-91496236D01*
X132665202Y-91631552D01*
X132658500Y-91693244D01*
X132658500Y-92488756D01*
X129988793Y-92488756D01*
X130011826Y-92465723D01*
X130069998Y-92351555D01*
X130085000Y-92256834D01*
X130085000Y-91893166D01*
X130069998Y-91798445D01*
X130011826Y-91684277D01*
X129921223Y-91593674D01*
X129807055Y-91535502D01*
X129797266Y-91533952D01*
X129797264Y-91533951D01*
X129778788Y-91531025D01*
X129714635Y-91500612D01*
X129677109Y-91440343D01*
X129672500Y-91406576D01*
X129672500Y-90673500D01*
X129692502Y-90605379D01*
X129746158Y-90558886D01*
X129798500Y-90547500D01*
X130252429Y-90547500D01*
X130320550Y-90567502D01*
X130368839Y-90625284D01*
X130370844Y-90630126D01*
X130373266Y-90642301D01*
X130429516Y-90726484D01*
X130513699Y-90782734D01*
X130587933Y-90797500D01*
X131112915Y-90797500D01*
X131638066Y-90797499D01*
X131673818Y-90790388D01*
X131700126Y-90785156D01*
X131700128Y-90785155D01*
X131712301Y-90782734D01*
X131722621Y-90775839D01*
X131722622Y-90775838D01*
X131786168Y-90733377D01*
X131796484Y-90726484D01*
X131852734Y-90642301D01*
X131867500Y-90568067D01*
X131867499Y-89517934D01*
X131860388Y-89482182D01*
X131855156Y-89455874D01*
X131855155Y-89455872D01*
X131852734Y-89443699D01*
X131838009Y-89421661D01*
X131803377Y-89369832D01*
X131796484Y-89359516D01*
X131712301Y-89303266D01*
X131638067Y-89288500D01*
X131113085Y-89288500D01*
X130587934Y-89288501D01*
X130552182Y-89295612D01*
X130525874Y-89300844D01*
X130525872Y-89300845D01*
X130513699Y-89303266D01*
X130503379Y-89310161D01*
X130503378Y-89310162D01*
X130445019Y-89349157D01*
X130429516Y-89359516D01*
X130373266Y-89443699D01*
X130370845Y-89455872D01*
X130368837Y-89460719D01*
X130324288Y-89515999D01*
X130252428Y-89538500D01*
X129869189Y-89538500D01*
X129801068Y-89518498D01*
X129754575Y-89464842D01*
X129743500Y-89419832D01*
X129743500Y-89418244D01*
X129742673Y-89410626D01*
X129737651Y-89364403D01*
X129737651Y-89364402D01*
X129736798Y-89356552D01*
X129686071Y-89221236D01*
X129680691Y-89214057D01*
X129680689Y-89214054D01*
X129604785Y-89112776D01*
X129599404Y-89105596D01*
X129578977Y-89090287D01*
X129490946Y-89024311D01*
X129490943Y-89024309D01*
X129483764Y-89018929D01*
X129394046Y-88985296D01*
X129355843Y-88970974D01*
X129355841Y-88970974D01*
X129348448Y-88968202D01*
X129340598Y-88967349D01*
X129340597Y-88967349D01*
X129290153Y-88961869D01*
X129290152Y-88961869D01*
X129286756Y-88961500D01*
X128541244Y-88961500D01*
X128537848Y-88961869D01*
X128537847Y-88961869D01*
X128487403Y-88967349D01*
X128487402Y-88967349D01*
X128479552Y-88968202D01*
X128472159Y-88970974D01*
X128472157Y-88970974D01*
X128433954Y-88985296D01*
X128344236Y-89018929D01*
X128337057Y-89024309D01*
X128337054Y-89024311D01*
X128249023Y-89090287D01*
X128228596Y-89105596D01*
X128223215Y-89112776D01*
X128147311Y-89214054D01*
X128147309Y-89214057D01*
X128141929Y-89221236D01*
X128091202Y-89356552D01*
X128084500Y-89418244D01*
X128084500Y-90413756D01*
X127693500Y-90413756D01*
X127693500Y-89418244D01*
X127686798Y-89356552D01*
X127636071Y-89221236D01*
X127630691Y-89214057D01*
X127630689Y-89214054D01*
X127554785Y-89112776D01*
X127549404Y-89105596D01*
X127528977Y-89090287D01*
X127440946Y-89024311D01*
X127440943Y-89024309D01*
X127433764Y-89018929D01*
X127344046Y-88985296D01*
X127305843Y-88970974D01*
X127305841Y-88970974D01*
X127298448Y-88968202D01*
X127290598Y-88967349D01*
X127290597Y-88967349D01*
X127240153Y-88961869D01*
X127240152Y-88961869D01*
X127236756Y-88961500D01*
X126491244Y-88961500D01*
X126487848Y-88961869D01*
X126487847Y-88961869D01*
X126437403Y-88967349D01*
X126437402Y-88967349D01*
X126429552Y-88968202D01*
X126422159Y-88970974D01*
X126422157Y-88970974D01*
X126383954Y-88985296D01*
X126294236Y-89018929D01*
X126287057Y-89024309D01*
X126287054Y-89024311D01*
X126199023Y-89090287D01*
X126178596Y-89105596D01*
X126173215Y-89112776D01*
X126097311Y-89214054D01*
X126097309Y-89214057D01*
X126091929Y-89221236D01*
X126067793Y-89285621D01*
X126042211Y-89353861D01*
X125999570Y-89410626D01*
X125967800Y-89426473D01*
X125967948Y-89426798D01*
X125925221Y-89446225D01*
X125915853Y-89450039D01*
X125871716Y-89465972D01*
X125864466Y-89471269D01*
X125861499Y-89472846D01*
X125847386Y-89481093D01*
X125844563Y-89482898D01*
X125836395Y-89486612D01*
X125829598Y-89492469D01*
X125829596Y-89492470D01*
X125813086Y-89506696D01*
X125802291Y-89515999D01*
X125800847Y-89517243D01*
X125792936Y-89523525D01*
X125782056Y-89531473D01*
X125771194Y-89542335D01*
X125764348Y-89548693D01*
X125726918Y-89580944D01*
X125722034Y-89588479D01*
X125716301Y-89595051D01*
X125707074Y-89606455D01*
X125235206Y-90078323D01*
X125225766Y-90085865D01*
X125226089Y-90086245D01*
X125219253Y-90092063D01*
X125211661Y-90096853D01*
X125205719Y-90103581D01*
X125176329Y-90136859D01*
X125170983Y-90142546D01*
X125159649Y-90153880D01*
X125156964Y-90157463D01*
X125156962Y-90157465D01*
X125153447Y-90162155D01*
X125147062Y-90169998D01*
X125115999Y-90205170D01*
X125112186Y-90213292D01*
X125110346Y-90216093D01*
X125101937Y-90230088D01*
X125100315Y-90233051D01*
X125094930Y-90240236D01*
X125091777Y-90248646D01*
X125091776Y-90248648D01*
X125078454Y-90284182D01*
X125074530Y-90293495D01*
X125054583Y-90335982D01*
X125053201Y-90344856D01*
X125052215Y-90348083D01*
X125048075Y-90363866D01*
X125047354Y-90367144D01*
X125044202Y-90375552D01*
X125043537Y-90384503D01*
X125040724Y-90422357D01*
X125039570Y-90432404D01*
X125037500Y-90445697D01*
X125037500Y-90461062D01*
X125037154Y-90470399D01*
X125033493Y-90519667D01*
X125035366Y-90528442D01*
X125035959Y-90537138D01*
X125037500Y-90551738D01*
X125037500Y-92036145D01*
X125017498Y-92104266D01*
X124963842Y-92150759D01*
X124893568Y-92160863D01*
X124867272Y-92154127D01*
X124806846Y-92131475D01*
X124806843Y-92131474D01*
X124799448Y-92128702D01*
X124791598Y-92127849D01*
X124791597Y-92127849D01*
X124741153Y-92122369D01*
X124741152Y-92122369D01*
X124737756Y-92122000D01*
X123692244Y-92122000D01*
X123688848Y-92122369D01*
X123688847Y-92122369D01*
X123638403Y-92127849D01*
X123638402Y-92127849D01*
X123630552Y-92128702D01*
X123623159Y-92131474D01*
X123623157Y-92131474D01*
X123584954Y-92145796D01*
X123495236Y-92179429D01*
X123488057Y-92184809D01*
X123488054Y-92184811D01*
X123416201Y-92238662D01*
X123379596Y-92266096D01*
X123374215Y-92273276D01*
X123374214Y-92273277D01*
X123337794Y-92321872D01*
X123280935Y-92364387D01*
X123210116Y-92369413D01*
X123147873Y-92335402D01*
X122969405Y-92156934D01*
X122935379Y-92094622D01*
X122932500Y-92067839D01*
X122932500Y-88018161D01*
X122952502Y-87950040D01*
X122969405Y-87929066D01*
X123218834Y-87679637D01*
X123279800Y-87645912D01*
X123405927Y-87617025D01*
X123413332Y-87615329D01*
X123497089Y-87573204D01*
X123548072Y-87547563D01*
X123548075Y-87547561D01*
X123554855Y-87544151D01*
X123560626Y-87539222D01*
X123560629Y-87539220D01*
X123669536Y-87446204D01*
X123669536Y-87446203D01*
X123675314Y-87441269D01*
X123679750Y-87435096D01*
X123684885Y-87429511D01*
X123686310Y-87430821D01*
X123734373Y-87393359D01*
X123805077Y-87386915D01*
X123868040Y-87419719D01*
X123885277Y-87440255D01*
X123960908Y-87552805D01*
X123966527Y-87557918D01*
X123966528Y-87557919D01*
X124029621Y-87615329D01*
X124078076Y-87659419D01*
X124217293Y-87735008D01*
X124370522Y-87775207D01*
X124454477Y-87776526D01*
X124521319Y-87777576D01*
X124521322Y-87777576D01*
X124528916Y-87777695D01*
X124683332Y-87742329D01*
X124778715Y-87694357D01*
X124818072Y-87674563D01*
X124818075Y-87674561D01*
X124824855Y-87671151D01*
X124830626Y-87666222D01*
X124830629Y-87666220D01*
X124939536Y-87573204D01*
X124939536Y-87573203D01*
X124945314Y-87568269D01*
X124992478Y-87502634D01*
X125048470Y-87458988D01*
X125119173Y-87452542D01*
X125182138Y-87485345D01*
X125199380Y-87505887D01*
X125226668Y-87546497D01*
X125226671Y-87546500D01*
X125230908Y-87552805D01*
X125236527Y-87557918D01*
X125236528Y-87557919D01*
X125299621Y-87615329D01*
X125348076Y-87659419D01*
X125487293Y-87735008D01*
X125640522Y-87775207D01*
X125724477Y-87776526D01*
X125791319Y-87777576D01*
X125791322Y-87777576D01*
X125798916Y-87777695D01*
X125953332Y-87742329D01*
X126048715Y-87694357D01*
X126088072Y-87674563D01*
X126088075Y-87674561D01*
X126094855Y-87671151D01*
X126100626Y-87666222D01*
X126100629Y-87666220D01*
X126209536Y-87573204D01*
X126209536Y-87573203D01*
X126215314Y-87568269D01*
X126307755Y-87439624D01*
X126311186Y-87431090D01*
X126311908Y-87430175D01*
X126314248Y-87425918D01*
X126314958Y-87426308D01*
X126355154Y-87375348D01*
X126422280Y-87352226D01*
X126491251Y-87369065D01*
X126538791Y-87419236D01*
X126539553Y-87421319D01*
X126543787Y-87427619D01*
X126543787Y-87427620D01*
X126593828Y-87502088D01*
X126627908Y-87552805D01*
X126633527Y-87557918D01*
X126633528Y-87557919D01*
X126696621Y-87615329D01*
X126745076Y-87659419D01*
X126884293Y-87735008D01*
X127037522Y-87775207D01*
X127121477Y-87776526D01*
X127188319Y-87777576D01*
X127188322Y-87777576D01*
X127195916Y-87777695D01*
X127350332Y-87742329D01*
X127445715Y-87694357D01*
X127485072Y-87674563D01*
X127485075Y-87674561D01*
X127491855Y-87671151D01*
X127497626Y-87666222D01*
X127497629Y-87666220D01*
X127606536Y-87573204D01*
X127606536Y-87573203D01*
X127612314Y-87568269D01*
X127659478Y-87502634D01*
X127715470Y-87458988D01*
X127786173Y-87452542D01*
X127849138Y-87485345D01*
X127866380Y-87505887D01*
X127893668Y-87546497D01*
X127893671Y-87546500D01*
X127897908Y-87552805D01*
X127903527Y-87557918D01*
X127903528Y-87557919D01*
X127966621Y-87615329D01*
X128015076Y-87659419D01*
X128154293Y-87735008D01*
X128307522Y-87775207D01*
X128391477Y-87776526D01*
X128458319Y-87777576D01*
X128458322Y-87777576D01*
X128465916Y-87777695D01*
X128620332Y-87742329D01*
X128715715Y-87694357D01*
X128755072Y-87674563D01*
X128755075Y-87674561D01*
X128761855Y-87671151D01*
X128767626Y-87666222D01*
X128767629Y-87666220D01*
X128876536Y-87573204D01*
X128876536Y-87573203D01*
X128882314Y-87568269D01*
X128974755Y-87439624D01*
X128978186Y-87431090D01*
X128978908Y-87430175D01*
X128981248Y-87425918D01*
X128981958Y-87426308D01*
X129022154Y-87375348D01*
X129089280Y-87352226D01*
X129158251Y-87369065D01*
X129205791Y-87419236D01*
X129206553Y-87421319D01*
X129210787Y-87427619D01*
X129210787Y-87427620D01*
X129260828Y-87502088D01*
X129294908Y-87552805D01*
X129300527Y-87557918D01*
X129300528Y-87557919D01*
X129363621Y-87615329D01*
X129412076Y-87659419D01*
X129551293Y-87735008D01*
X129704522Y-87775207D01*
X129788477Y-87776526D01*
X129855319Y-87777576D01*
X129855322Y-87777576D01*
X129862916Y-87777695D01*
X130017332Y-87742329D01*
X130112715Y-87694357D01*
X130152072Y-87674563D01*
X130152075Y-87674561D01*
X130158855Y-87671151D01*
X130164626Y-87666222D01*
X130164629Y-87666220D01*
X130273536Y-87573204D01*
X130273536Y-87573203D01*
X130279314Y-87568269D01*
X130371755Y-87439624D01*
X130430842Y-87292641D01*
X130453162Y-87135807D01*
X130453307Y-87122000D01*
X130452812Y-87117906D01*
X130452811Y-87117895D01*
X130451255Y-87105035D01*
X130462928Y-87035005D01*
X130487247Y-87000803D01*
X133499534Y-83988515D01*
X133522326Y-83965723D01*
X133532459Y-83945836D01*
X133542791Y-83928977D01*
X133550073Y-83918955D01*
X133550074Y-83918953D01*
X133555904Y-83910929D01*
X133559196Y-83900798D01*
X133562801Y-83889704D01*
X133570367Y-83871437D01*
X133574411Y-83863502D01*
X133580498Y-83851555D01*
X133583990Y-83829507D01*
X133588606Y-83810282D01*
X133592433Y-83798502D01*
X133595499Y-83789066D01*
X133595499Y-83756840D01*
X133595500Y-83756834D01*
X133595500Y-73276762D01*
X133615502Y-73208641D01*
X133669158Y-73162148D01*
X133732735Y-73153007D01*
X133687443Y-73153546D01*
X133627264Y-73115876D01*
X133597005Y-73051651D01*
X133595500Y-73032236D01*
X133595500Y-72652019D01*
X133615502Y-72583898D01*
X133669158Y-72537405D01*
X133739432Y-72527301D01*
X133781811Y-72544875D01*
X133783179Y-72542377D01*
X133791053Y-72546688D01*
X133798236Y-72552071D01*
X133883136Y-72583898D01*
X133896132Y-72588770D01*
X133952897Y-72631411D01*
X133977598Y-72697972D01*
X133962391Y-72767321D01*
X133954991Y-72779203D01*
X133911950Y-72840444D01*
X133890981Y-72894228D01*
X133858959Y-72976360D01*
X133854406Y-72988037D01*
X133853414Y-72995570D01*
X133853414Y-72995571D01*
X133846422Y-73048682D01*
X133817700Y-73113609D01*
X133758435Y-73152701D01*
X133741317Y-73152905D01*
X133804012Y-73181538D01*
X133842396Y-73241264D01*
X133846739Y-73262935D01*
X133848266Y-73276762D01*
X133851113Y-73302553D01*
X133853723Y-73309684D01*
X133853723Y-73309686D01*
X133892718Y-73416244D01*
X133905553Y-73451319D01*
X133909789Y-73457622D01*
X133909789Y-73457623D01*
X133973676Y-73552696D01*
X133993908Y-73582805D01*
X133999527Y-73587918D01*
X133999528Y-73587919D01*
X134065461Y-73647913D01*
X134111076Y-73689419D01*
X134250293Y-73765008D01*
X134403522Y-73805207D01*
X134487477Y-73806526D01*
X134554319Y-73807576D01*
X134554322Y-73807576D01*
X134561916Y-73807695D01*
X134716332Y-73772329D01*
X134796049Y-73732236D01*
X134851072Y-73704563D01*
X134851075Y-73704561D01*
X134857855Y-73701151D01*
X134863626Y-73696222D01*
X134863629Y-73696220D01*
X134972536Y-73603204D01*
X134972536Y-73603203D01*
X134978314Y-73598269D01*
X135070755Y-73469624D01*
X135129842Y-73322641D01*
X135144558Y-73219236D01*
X135151581Y-73169891D01*
X135151581Y-73169888D01*
X135152162Y-73165807D01*
X135152307Y-73152000D01*
X135133276Y-72994733D01*
X135077280Y-72846546D01*
X135065974Y-72830095D01*
X135030253Y-72778121D01*
X135008153Y-72710652D01*
X135026039Y-72641945D01*
X135078230Y-72593814D01*
X135089864Y-72588772D01*
X135132767Y-72572688D01*
X135187764Y-72552071D01*
X135194943Y-72546691D01*
X135194946Y-72546689D01*
X135296224Y-72470785D01*
X135303404Y-72465404D01*
X135326500Y-72434587D01*
X135384689Y-72356946D01*
X135384691Y-72356943D01*
X135390071Y-72349764D01*
X135433629Y-72233571D01*
X135438026Y-72221843D01*
X135438026Y-72221841D01*
X135440798Y-72214448D01*
X135442242Y-72201161D01*
X135447131Y-72156153D01*
X135447131Y-72156152D01*
X135447500Y-72152756D01*
X135447500Y-71357244D01*
X135440798Y-71295552D01*
X135390071Y-71160236D01*
X135384691Y-71153057D01*
X135384689Y-71153054D01*
X135308785Y-71051776D01*
X135303404Y-71044596D01*
X135266105Y-71016642D01*
X135194946Y-70963311D01*
X135194943Y-70963309D01*
X135187764Y-70957929D01*
X135082455Y-70918451D01*
X135059843Y-70909974D01*
X135059841Y-70909974D01*
X135052448Y-70907202D01*
X135044598Y-70906349D01*
X135044597Y-70906349D01*
X134994153Y-70900869D01*
X134994152Y-70900869D01*
X134990756Y-70900500D01*
X133995244Y-70900500D01*
X133991848Y-70900869D01*
X133991847Y-70900869D01*
X133941403Y-70906349D01*
X133941402Y-70906349D01*
X133933552Y-70907202D01*
X133926159Y-70909974D01*
X133926157Y-70909974D01*
X133903545Y-70918451D01*
X133798236Y-70957929D01*
X133791055Y-70963311D01*
X133783179Y-70967623D01*
X133781528Y-70964607D01*
X133730585Y-70983653D01*
X133661199Y-70968615D01*
X133610959Y-70918451D01*
X133595500Y-70857981D01*
X133595500Y-70652019D01*
X133615502Y-70583898D01*
X133669158Y-70537405D01*
X133739432Y-70527301D01*
X133781811Y-70544875D01*
X133783179Y-70542377D01*
X133791053Y-70546688D01*
X133798236Y-70552071D01*
X133874928Y-70580821D01*
X133926157Y-70600026D01*
X133926159Y-70600026D01*
X133933552Y-70602798D01*
X133941402Y-70603651D01*
X133941403Y-70603651D01*
X133991847Y-70609131D01*
X133995244Y-70609500D01*
X134990756Y-70609500D01*
X134994153Y-70609131D01*
X135044597Y-70603651D01*
X135044598Y-70603651D01*
X135052448Y-70602798D01*
X135059841Y-70600026D01*
X135059843Y-70600026D01*
X135111072Y-70580821D01*
X135187764Y-70552071D01*
X135194943Y-70546691D01*
X135194946Y-70546689D01*
X135296224Y-70470785D01*
X135303404Y-70465404D01*
X135329942Y-70429994D01*
X135384689Y-70356946D01*
X135384691Y-70356943D01*
X135390071Y-70349764D01*
X135440798Y-70214448D01*
X135447500Y-70152756D01*
X135447500Y-69357244D01*
X135440798Y-69295552D01*
X135426806Y-69258227D01*
X135421623Y-69187423D01*
X135455543Y-69125054D01*
X135517799Y-69090925D01*
X135544788Y-69088000D01*
X140590000Y-69088000D01*
X140658121Y-69108002D01*
G37*
G04 #@! TD.AperFunction*
G04 #@! TA.AperFunction,Conductor*
G36*
X126316881Y-69108002D02*
G01*
X126337855Y-69124905D01*
X127985595Y-70772645D01*
X128019621Y-70834957D01*
X128022500Y-70861740D01*
X128022500Y-72900867D01*
X128002498Y-72968988D01*
X127948842Y-73015481D01*
X127878568Y-73025585D01*
X127849191Y-73015789D01*
X127848764Y-73016929D01*
X127720843Y-72968974D01*
X127720841Y-72968974D01*
X127713448Y-72966202D01*
X127705598Y-72965349D01*
X127705597Y-72965349D01*
X127655153Y-72959869D01*
X127655152Y-72959869D01*
X127651756Y-72959500D01*
X126856244Y-72959500D01*
X126852848Y-72959869D01*
X126852847Y-72959869D01*
X126802403Y-72965349D01*
X126802402Y-72965349D01*
X126794552Y-72966202D01*
X126787159Y-72968974D01*
X126787157Y-72968974D01*
X126748954Y-72983296D01*
X126659236Y-73016929D01*
X126652057Y-73022309D01*
X126652054Y-73022311D01*
X126598661Y-73062327D01*
X126543596Y-73103596D01*
X126538215Y-73110776D01*
X126462311Y-73212054D01*
X126462309Y-73212057D01*
X126456929Y-73219236D01*
X126443073Y-73256197D01*
X126411264Y-73341050D01*
X126406202Y-73354552D01*
X126399500Y-73416244D01*
X126399500Y-74411756D01*
X126406202Y-74473448D01*
X126456929Y-74608764D01*
X126462309Y-74615943D01*
X126462311Y-74615946D01*
X126528287Y-74703977D01*
X126543596Y-74724404D01*
X126550776Y-74729785D01*
X126652054Y-74805689D01*
X126652057Y-74805691D01*
X126659236Y-74811071D01*
X126748954Y-74844704D01*
X126787157Y-74859026D01*
X126787159Y-74859026D01*
X126794552Y-74861798D01*
X126802402Y-74862651D01*
X126802403Y-74862651D01*
X126852847Y-74868131D01*
X126856244Y-74868500D01*
X127246500Y-74868500D01*
X127314621Y-74888502D01*
X127361114Y-74942158D01*
X127372500Y-74994500D01*
X127372500Y-76759500D01*
X127352498Y-76827621D01*
X127298842Y-76874114D01*
X127246500Y-76885500D01*
X126966032Y-76885500D01*
X126934255Y-76890178D01*
X126901130Y-76895054D01*
X126901128Y-76895055D01*
X126891439Y-76896481D01*
X126860398Y-76911721D01*
X126857482Y-76913153D01*
X126787518Y-76925221D01*
X126746621Y-76913251D01*
X126711918Y-76896288D01*
X126702239Y-76894876D01*
X126642495Y-76886160D01*
X126642489Y-76886160D01*
X126637968Y-76885500D01*
X126316032Y-76885500D01*
X126284255Y-76890178D01*
X126251130Y-76895054D01*
X126251128Y-76895055D01*
X126241439Y-76896481D01*
X126210398Y-76911721D01*
X126207482Y-76913153D01*
X126137518Y-76925221D01*
X126096621Y-76913251D01*
X126061918Y-76896288D01*
X126052239Y-76894876D01*
X125992495Y-76886160D01*
X125992489Y-76886160D01*
X125987968Y-76885500D01*
X125666032Y-76885500D01*
X125634255Y-76890178D01*
X125601130Y-76895054D01*
X125601128Y-76895055D01*
X125591439Y-76896481D01*
X125560398Y-76911721D01*
X125557482Y-76913153D01*
X125487518Y-76925221D01*
X125446621Y-76913251D01*
X125411918Y-76896288D01*
X125402239Y-76894876D01*
X125342495Y-76886160D01*
X125342489Y-76886160D01*
X125337968Y-76885500D01*
X125057500Y-76885500D01*
X124989379Y-76865498D01*
X124942886Y-76811842D01*
X124931500Y-76759500D01*
X124931500Y-75567934D01*
X124924605Y-75546713D01*
X124919989Y-75527487D01*
X124918049Y-75515238D01*
X124916498Y-75505445D01*
X124906366Y-75485561D01*
X124898801Y-75467295D01*
X124894969Y-75455502D01*
X124891905Y-75446071D01*
X124878784Y-75428013D01*
X124868455Y-75411157D01*
X124862826Y-75400109D01*
X124858326Y-75391277D01*
X124767723Y-75300674D01*
X124388668Y-74921618D01*
X124375093Y-74896758D01*
X124360023Y-74891147D01*
X124346390Y-74879341D01*
X123746643Y-74279593D01*
X123712619Y-74217283D01*
X123717684Y-74146467D01*
X123760231Y-74089632D01*
X123826751Y-74064821D01*
X123835740Y-74064500D01*
X124273500Y-74064500D01*
X124341621Y-74084502D01*
X124388114Y-74138158D01*
X124399500Y-74190500D01*
X124399500Y-74411756D01*
X124406202Y-74473448D01*
X124456929Y-74608764D01*
X124462312Y-74615946D01*
X124536302Y-74714672D01*
X124539290Y-74722671D01*
X124553328Y-74731698D01*
X124579753Y-74751502D01*
X124659236Y-74811071D01*
X124748954Y-74844704D01*
X124787157Y-74859026D01*
X124787159Y-74859026D01*
X124794552Y-74861798D01*
X124802402Y-74862651D01*
X124802403Y-74862651D01*
X124852847Y-74868131D01*
X124856244Y-74868500D01*
X125651756Y-74868500D01*
X125655153Y-74868131D01*
X125705597Y-74862651D01*
X125705598Y-74862651D01*
X125713448Y-74861798D01*
X125720841Y-74859026D01*
X125720843Y-74859026D01*
X125759046Y-74844704D01*
X125848764Y-74811071D01*
X125855943Y-74805691D01*
X125855946Y-74805689D01*
X125957224Y-74729785D01*
X125964404Y-74724404D01*
X125979713Y-74703977D01*
X126045689Y-74615946D01*
X126045691Y-74615943D01*
X126051071Y-74608764D01*
X126101798Y-74473448D01*
X126108500Y-74411756D01*
X126108500Y-73416244D01*
X126101798Y-73354552D01*
X126096737Y-73341050D01*
X126064927Y-73256197D01*
X126051071Y-73219236D01*
X126045691Y-73212057D01*
X126045689Y-73212054D01*
X125969785Y-73110776D01*
X125964404Y-73103596D01*
X125909335Y-73062324D01*
X125866822Y-73005467D01*
X125861796Y-72934649D01*
X125895856Y-72872355D01*
X125909326Y-72860682D01*
X125964404Y-72819404D01*
X126003438Y-72767321D01*
X126045689Y-72710946D01*
X126045691Y-72710943D01*
X126051071Y-72703764D01*
X126101798Y-72568448D01*
X126108500Y-72506756D01*
X126108500Y-71511244D01*
X126101798Y-71449552D01*
X126051071Y-71314236D01*
X126045691Y-71307057D01*
X126045689Y-71307054D01*
X125969785Y-71205776D01*
X125964404Y-71198596D01*
X125914747Y-71161380D01*
X125855946Y-71117311D01*
X125855943Y-71117309D01*
X125848764Y-71111929D01*
X125733012Y-71068536D01*
X125720843Y-71063974D01*
X125720841Y-71063974D01*
X125713448Y-71061202D01*
X125705598Y-71060349D01*
X125705597Y-71060349D01*
X125655153Y-71054869D01*
X125655152Y-71054869D01*
X125651756Y-71054500D01*
X124856244Y-71054500D01*
X124852848Y-71054869D01*
X124852847Y-71054869D01*
X124802403Y-71060349D01*
X124802402Y-71060349D01*
X124794552Y-71061202D01*
X124787159Y-71063974D01*
X124787157Y-71063974D01*
X124774988Y-71068536D01*
X124659236Y-71111929D01*
X124652057Y-71117309D01*
X124652054Y-71117311D01*
X124593253Y-71161380D01*
X124543596Y-71198596D01*
X124538215Y-71205776D01*
X124462311Y-71307054D01*
X124462309Y-71307057D01*
X124456929Y-71314236D01*
X124406202Y-71449552D01*
X124399500Y-71511244D01*
X124399500Y-72506756D01*
X124406202Y-72568448D01*
X124456929Y-72703764D01*
X124462309Y-72710943D01*
X124462311Y-72710946D01*
X124504562Y-72767321D01*
X124543596Y-72819404D01*
X124598665Y-72860676D01*
X124641178Y-72917533D01*
X124646204Y-72988351D01*
X124612144Y-73050645D01*
X124598674Y-73062318D01*
X124543596Y-73103596D01*
X124467548Y-73205068D01*
X124410691Y-73247580D01*
X124366724Y-73255500D01*
X123705597Y-73255500D01*
X123637476Y-73235498D01*
X123590983Y-73181842D01*
X123580879Y-73111568D01*
X123610373Y-73046988D01*
X123662059Y-73011537D01*
X123667332Y-73010329D01*
X123696675Y-72995571D01*
X123802072Y-72942563D01*
X123802075Y-72942561D01*
X123808855Y-72939151D01*
X123814626Y-72934222D01*
X123814629Y-72934220D01*
X123923536Y-72841204D01*
X123923536Y-72841203D01*
X123929314Y-72836269D01*
X124021755Y-72707624D01*
X124080842Y-72560641D01*
X124093630Y-72470785D01*
X124102581Y-72407891D01*
X124102581Y-72407888D01*
X124103162Y-72403807D01*
X124103307Y-72390000D01*
X124084276Y-72232733D01*
X124028280Y-72084546D01*
X123970660Y-72000708D01*
X123948500Y-71929341D01*
X123948500Y-71190630D01*
X123949842Y-71178622D01*
X123949346Y-71178582D01*
X123950066Y-71169631D01*
X123952047Y-71160877D01*
X123948742Y-71107607D01*
X123948500Y-71099805D01*
X123948500Y-71083774D01*
X123947035Y-71073541D01*
X123946004Y-71063481D01*
X123944833Y-71044596D01*
X123943098Y-71016642D01*
X123940050Y-71008199D01*
X123939371Y-71004920D01*
X123935416Y-70989055D01*
X123934473Y-70985831D01*
X123933201Y-70976948D01*
X123929487Y-70968779D01*
X123929485Y-70968773D01*
X123913775Y-70934221D01*
X123909961Y-70924852D01*
X123907307Y-70917500D01*
X123894028Y-70880716D01*
X123888731Y-70873466D01*
X123887154Y-70870499D01*
X123878907Y-70856386D01*
X123877102Y-70853563D01*
X123873388Y-70845395D01*
X123842753Y-70809842D01*
X123836475Y-70801936D01*
X123828527Y-70791056D01*
X123817665Y-70780194D01*
X123811307Y-70773347D01*
X123784915Y-70742718D01*
X123779056Y-70735918D01*
X123771521Y-70731034D01*
X123764949Y-70725301D01*
X123753545Y-70716074D01*
X123093677Y-70056206D01*
X123086135Y-70046766D01*
X123085755Y-70047089D01*
X123079937Y-70040253D01*
X123075147Y-70032661D01*
X123035140Y-69997328D01*
X123029454Y-69991983D01*
X123018120Y-69980649D01*
X123009845Y-69974447D01*
X123002000Y-69968060D01*
X122998983Y-69965395D01*
X122966830Y-69936999D01*
X122958708Y-69933186D01*
X122955907Y-69931346D01*
X122941912Y-69922937D01*
X122938949Y-69921315D01*
X122931764Y-69915930D01*
X122923354Y-69912777D01*
X122923352Y-69912776D01*
X122887818Y-69899454D01*
X122878502Y-69895529D01*
X122836018Y-69875583D01*
X122827144Y-69874201D01*
X122823917Y-69873215D01*
X122808134Y-69869075D01*
X122804856Y-69868354D01*
X122796448Y-69865202D01*
X122782691Y-69864180D01*
X122749643Y-69861724D01*
X122739596Y-69860570D01*
X122731114Y-69859249D01*
X122731111Y-69859249D01*
X122726303Y-69858500D01*
X122710938Y-69858500D01*
X122701601Y-69858154D01*
X122685519Y-69856959D01*
X122652333Y-69854493D01*
X122643558Y-69856366D01*
X122634862Y-69856959D01*
X122620262Y-69858500D01*
X122149993Y-69858500D01*
X122092790Y-69844767D01*
X122059889Y-69828003D01*
X122059888Y-69828003D01*
X122051055Y-69823502D01*
X121956334Y-69808500D01*
X120867666Y-69808500D01*
X120772945Y-69823502D01*
X120658777Y-69881674D01*
X120568174Y-69972277D01*
X120526299Y-70054462D01*
X120523081Y-70060777D01*
X120474333Y-70112392D01*
X120405418Y-70129458D01*
X120338216Y-70106557D01*
X120321719Y-70092669D01*
X120283515Y-70054465D01*
X120283511Y-70054462D01*
X120260723Y-70031674D01*
X120240844Y-70021545D01*
X120223989Y-70011216D01*
X120213953Y-70003925D01*
X120205929Y-69998095D01*
X120184704Y-69991199D01*
X120166438Y-69983633D01*
X120146555Y-69973502D01*
X120124513Y-69970011D01*
X120105287Y-69965395D01*
X120093500Y-69961565D01*
X120093498Y-69961565D01*
X120084066Y-69958500D01*
X120019239Y-69958500D01*
X119951118Y-69938498D01*
X119930144Y-69921595D01*
X119890223Y-69881674D01*
X119776055Y-69823502D01*
X119681334Y-69808500D01*
X118592666Y-69808500D01*
X118497945Y-69823502D01*
X118489112Y-69828003D01*
X118489111Y-69828003D01*
X118456210Y-69844767D01*
X118399007Y-69858500D01*
X117717920Y-69858500D01*
X117649799Y-69838498D01*
X117610470Y-69796302D01*
X117610071Y-69795236D01*
X117523404Y-69679596D01*
X117502977Y-69664287D01*
X117414946Y-69598311D01*
X117414943Y-69598309D01*
X117407764Y-69592929D01*
X117318046Y-69559296D01*
X117279843Y-69544974D01*
X117279841Y-69544974D01*
X117272448Y-69542202D01*
X117264598Y-69541349D01*
X117264597Y-69541349D01*
X117214153Y-69535869D01*
X117214152Y-69535869D01*
X117210756Y-69535500D01*
X116215244Y-69535500D01*
X116211848Y-69535869D01*
X116211847Y-69535869D01*
X116161403Y-69541349D01*
X116161402Y-69541349D01*
X116153552Y-69542202D01*
X116146159Y-69544974D01*
X116146157Y-69544974D01*
X116107954Y-69559296D01*
X116018236Y-69592929D01*
X116011057Y-69598309D01*
X116011054Y-69598311D01*
X115923023Y-69664287D01*
X115902596Y-69679596D01*
X115897215Y-69686776D01*
X115821311Y-69788054D01*
X115821309Y-69788057D01*
X115815929Y-69795236D01*
X115792213Y-69858500D01*
X115768057Y-69922937D01*
X115765202Y-69930552D01*
X115764349Y-69938402D01*
X115764349Y-69938403D01*
X115760047Y-69978003D01*
X115758500Y-69992244D01*
X115758500Y-70787756D01*
X115765202Y-70849448D01*
X115767974Y-70856841D01*
X115767974Y-70856843D01*
X115776924Y-70880716D01*
X115815929Y-70984764D01*
X115821309Y-70991943D01*
X115821311Y-70991946D01*
X115873216Y-71061202D01*
X115902596Y-71100404D01*
X115909776Y-71105785D01*
X116011054Y-71181689D01*
X116011057Y-71181691D01*
X116018236Y-71187071D01*
X116107954Y-71220704D01*
X116146157Y-71235026D01*
X116146159Y-71235026D01*
X116153552Y-71237798D01*
X116161402Y-71238651D01*
X116161403Y-71238651D01*
X116211847Y-71244131D01*
X116215244Y-71244500D01*
X116840839Y-71244500D01*
X116908960Y-71264502D01*
X116955453Y-71318158D01*
X116965557Y-71388432D01*
X116936063Y-71453012D01*
X116929934Y-71459595D01*
X116890934Y-71498595D01*
X116828622Y-71532621D01*
X116801839Y-71535500D01*
X116215244Y-71535500D01*
X116211848Y-71535869D01*
X116211847Y-71535869D01*
X116161403Y-71541349D01*
X116161402Y-71541349D01*
X116153552Y-71542202D01*
X116146159Y-71544974D01*
X116146157Y-71544974D01*
X116107954Y-71559296D01*
X116018236Y-71592929D01*
X116011057Y-71598309D01*
X116011054Y-71598311D01*
X115923023Y-71664287D01*
X115902596Y-71679596D01*
X115897215Y-71686776D01*
X115821311Y-71788054D01*
X115821309Y-71788057D01*
X115815929Y-71795236D01*
X115812779Y-71803638D01*
X115812777Y-71803642D01*
X115812744Y-71803731D01*
X115812687Y-71803806D01*
X115808467Y-71811515D01*
X115807354Y-71810906D01*
X115770102Y-71860495D01*
X115703540Y-71885194D01*
X115694763Y-71885500D01*
X115640624Y-71885500D01*
X115628619Y-71884159D01*
X115628579Y-71884655D01*
X115619632Y-71883935D01*
X115610876Y-71881954D01*
X115567338Y-71884655D01*
X115557618Y-71885258D01*
X115549816Y-71885500D01*
X115533774Y-71885500D01*
X115529343Y-71886135D01*
X115529338Y-71886135D01*
X115525313Y-71886712D01*
X115523543Y-71886965D01*
X115513486Y-71887996D01*
X115491024Y-71889389D01*
X115475600Y-71890346D01*
X115475598Y-71890346D01*
X115466641Y-71890902D01*
X115458201Y-71893949D01*
X115454911Y-71894630D01*
X115439062Y-71898582D01*
X115435832Y-71899527D01*
X115426948Y-71900799D01*
X115384222Y-71920225D01*
X115374860Y-71924036D01*
X115339158Y-71936925D01*
X115339157Y-71936926D01*
X115330716Y-71939973D01*
X115323467Y-71945269D01*
X115320486Y-71946854D01*
X115306408Y-71955080D01*
X115303569Y-71956896D01*
X115295395Y-71960612D01*
X115285051Y-71969525D01*
X115259848Y-71991242D01*
X115251930Y-71997530D01*
X115241056Y-72005473D01*
X115230194Y-72016335D01*
X115223348Y-72022693D01*
X115185918Y-72054944D01*
X115181034Y-72062479D01*
X115175301Y-72069051D01*
X115166074Y-72080455D01*
X115009206Y-72237323D01*
X114999766Y-72244865D01*
X115000089Y-72245245D01*
X114993253Y-72251063D01*
X114985661Y-72255853D01*
X114979719Y-72262581D01*
X114950329Y-72295859D01*
X114944983Y-72301546D01*
X114933649Y-72312880D01*
X114930964Y-72316463D01*
X114930962Y-72316465D01*
X114927447Y-72321155D01*
X114921062Y-72328998D01*
X114889999Y-72364170D01*
X114886186Y-72372292D01*
X114884346Y-72375093D01*
X114875937Y-72389088D01*
X114874315Y-72392051D01*
X114868930Y-72399236D01*
X114865777Y-72407646D01*
X114865776Y-72407648D01*
X114852454Y-72443182D01*
X114848530Y-72452495D01*
X114828583Y-72494982D01*
X114827201Y-72503856D01*
X114826215Y-72507083D01*
X114822075Y-72522866D01*
X114821354Y-72526144D01*
X114818202Y-72534552D01*
X114817537Y-72543503D01*
X114814724Y-72581357D01*
X114813570Y-72591404D01*
X114813382Y-72592615D01*
X114811500Y-72604697D01*
X114811500Y-72620062D01*
X114811154Y-72629399D01*
X114810681Y-72635758D01*
X114807493Y-72678667D01*
X114809366Y-72687442D01*
X114809959Y-72696138D01*
X114811500Y-72710738D01*
X114811500Y-76002376D01*
X114810159Y-76014381D01*
X114810655Y-76014421D01*
X114809935Y-76023368D01*
X114807954Y-76032124D01*
X114808510Y-76041084D01*
X114811258Y-76085382D01*
X114811500Y-76093184D01*
X114811500Y-76109226D01*
X114812135Y-76113657D01*
X114812135Y-76113662D01*
X114812965Y-76119453D01*
X114813996Y-76129514D01*
X114816902Y-76176359D01*
X114819949Y-76184799D01*
X114820630Y-76188089D01*
X114824582Y-76203938D01*
X114825527Y-76207168D01*
X114826799Y-76216052D01*
X114830514Y-76224223D01*
X114846218Y-76258763D01*
X114850030Y-76268128D01*
X114862922Y-76303837D01*
X114862924Y-76303840D01*
X114865972Y-76312284D01*
X114871268Y-76319533D01*
X114872840Y-76322490D01*
X114881093Y-76336614D01*
X114882898Y-76339437D01*
X114886612Y-76347605D01*
X114892469Y-76354402D01*
X114892470Y-76354404D01*
X114917243Y-76383153D01*
X114923525Y-76391064D01*
X114931473Y-76401944D01*
X114942335Y-76412806D01*
X114948693Y-76419652D01*
X114980944Y-76457082D01*
X114988479Y-76461966D01*
X114995051Y-76467699D01*
X115006455Y-76476926D01*
X115028595Y-76499066D01*
X115062621Y-76561378D01*
X115065500Y-76588161D01*
X115065500Y-79207214D01*
X115045498Y-79275335D01*
X115003923Y-79315499D01*
X114922978Y-79363656D01*
X114922975Y-79363658D01*
X114918010Y-79366612D01*
X114913670Y-79370418D01*
X114913666Y-79370421D01*
X114816978Y-79455215D01*
X114765392Y-79500455D01*
X114639720Y-79659869D01*
X114637031Y-79664980D01*
X114637029Y-79664983D01*
X114620923Y-79695596D01*
X114545203Y-79839515D01*
X114543489Y-79845033D01*
X114542408Y-79847644D01*
X114497858Y-79902924D01*
X114430494Y-79925343D01*
X114361703Y-79907783D01*
X114313326Y-79855820D01*
X114300000Y-79799423D01*
X114300000Y-69214000D01*
X114320002Y-69145879D01*
X114373658Y-69099386D01*
X114426000Y-69088000D01*
X126248760Y-69088000D01*
X126316881Y-69108002D01*
G37*
G04 #@! TD.AperFunction*
G04 #@! TA.AperFunction,Conductor*
G36*
X123070381Y-74751502D02*
G01*
X123091355Y-74768405D01*
X124085595Y-75762644D01*
X124119620Y-75824956D01*
X124122500Y-75851739D01*
X124122500Y-76759500D01*
X124102498Y-76827621D01*
X124048842Y-76874114D01*
X123996500Y-76885500D01*
X123716032Y-76885500D01*
X123684255Y-76890178D01*
X123651130Y-76895054D01*
X123651128Y-76895055D01*
X123641439Y-76896481D01*
X123589944Y-76921764D01*
X123537378Y-76947572D01*
X123537376Y-76947573D01*
X123528030Y-76952162D01*
X123438771Y-77041576D01*
X123383288Y-77155082D01*
X123381876Y-77164761D01*
X123377899Y-77192026D01*
X123372500Y-77229032D01*
X123372500Y-78950968D01*
X123383481Y-79025561D01*
X123439162Y-79138970D01*
X123446532Y-79146327D01*
X123448951Y-79149706D01*
X123472500Y-79223053D01*
X123472500Y-79357260D01*
X123452498Y-79425381D01*
X123435595Y-79446356D01*
X123186354Y-79695596D01*
X123124042Y-79729621D01*
X123097259Y-79732500D01*
X121853039Y-79732500D01*
X121784918Y-79712498D01*
X121738425Y-79658842D01*
X121735057Y-79650729D01*
X121718524Y-79606628D01*
X121699071Y-79554736D01*
X121693691Y-79547557D01*
X121693689Y-79547554D01*
X121617785Y-79446276D01*
X121612404Y-79439096D01*
X121544108Y-79387911D01*
X121503946Y-79357811D01*
X121503943Y-79357809D01*
X121496764Y-79352429D01*
X121407046Y-79318796D01*
X121368843Y-79304474D01*
X121368841Y-79304474D01*
X121361448Y-79301702D01*
X121353598Y-79300849D01*
X121353597Y-79300849D01*
X121303153Y-79295369D01*
X121303152Y-79295369D01*
X121299756Y-79295000D01*
X120254244Y-79295000D01*
X120250848Y-79295369D01*
X120250847Y-79295369D01*
X120200403Y-79300849D01*
X120200402Y-79300849D01*
X120192552Y-79301702D01*
X120185159Y-79304474D01*
X120185157Y-79304474D01*
X120146954Y-79318796D01*
X120057236Y-79352429D01*
X120050057Y-79357809D01*
X120050054Y-79357811D01*
X120009892Y-79387911D01*
X119941596Y-79439096D01*
X119854929Y-79554736D01*
X119852313Y-79552775D01*
X119813382Y-79591616D01*
X119743990Y-79606628D01*
X119677499Y-79581740D01*
X119652298Y-79556524D01*
X119585785Y-79467776D01*
X119580404Y-79460596D01*
X119559977Y-79445287D01*
X119471946Y-79379311D01*
X119471943Y-79379309D01*
X119464764Y-79373929D01*
X119375046Y-79340296D01*
X119336843Y-79325974D01*
X119336841Y-79325974D01*
X119329448Y-79323202D01*
X119321598Y-79322349D01*
X119321597Y-79322349D01*
X119271153Y-79316869D01*
X119271152Y-79316869D01*
X119267756Y-79316500D01*
X118222244Y-79316500D01*
X118218848Y-79316869D01*
X118218847Y-79316869D01*
X118168403Y-79322349D01*
X118168402Y-79322349D01*
X118160552Y-79323202D01*
X118153159Y-79325974D01*
X118153157Y-79325974D01*
X118114954Y-79340296D01*
X118025236Y-79373929D01*
X118018057Y-79379309D01*
X118018054Y-79379311D01*
X117930023Y-79445287D01*
X117909596Y-79460596D01*
X117904215Y-79467776D01*
X117828311Y-79569054D01*
X117828309Y-79569057D01*
X117822929Y-79576236D01*
X117819778Y-79584640D01*
X117819778Y-79584641D01*
X117784882Y-79677728D01*
X117742241Y-79734493D01*
X117675680Y-79759194D01*
X117666900Y-79759500D01*
X116631149Y-79759500D01*
X116563028Y-79739498D01*
X116522339Y-79693927D01*
X116521349Y-79694534D01*
X116518330Y-79689608D01*
X116515776Y-79684428D01*
X116394320Y-79521779D01*
X116245258Y-79383987D01*
X116240375Y-79380906D01*
X116240371Y-79380903D01*
X116133265Y-79313325D01*
X116086326Y-79260058D01*
X116074500Y-79206763D01*
X116074500Y-77306640D01*
X116094502Y-77238519D01*
X116148158Y-77192026D01*
X116208377Y-77182291D01*
X116208450Y-77180947D01*
X116211847Y-77181131D01*
X116215244Y-77181500D01*
X117210756Y-77181500D01*
X117214153Y-77181131D01*
X117264597Y-77175651D01*
X117264598Y-77175651D01*
X117272448Y-77174798D01*
X117279841Y-77172026D01*
X117279843Y-77172026D01*
X117351500Y-77145163D01*
X117407764Y-77124071D01*
X117414943Y-77118691D01*
X117414946Y-77118689D01*
X117516224Y-77042785D01*
X117523404Y-77037404D01*
X117587289Y-76952162D01*
X117604689Y-76928946D01*
X117604691Y-76928943D01*
X117610071Y-76921764D01*
X117660798Y-76786448D01*
X117667500Y-76724756D01*
X117667500Y-75929244D01*
X117660798Y-75867552D01*
X117610071Y-75732236D01*
X117604691Y-75725057D01*
X117604689Y-75725054D01*
X117528785Y-75623776D01*
X117523404Y-75616596D01*
X117471709Y-75577853D01*
X117414946Y-75535311D01*
X117414943Y-75535309D01*
X117407764Y-75529929D01*
X117289414Y-75485562D01*
X117279843Y-75481974D01*
X117279841Y-75481974D01*
X117272448Y-75479202D01*
X117264598Y-75478349D01*
X117264597Y-75478349D01*
X117214153Y-75472869D01*
X117214152Y-75472869D01*
X117210756Y-75472500D01*
X116215244Y-75472500D01*
X116211848Y-75472869D01*
X116211847Y-75472869D01*
X116161403Y-75478349D01*
X116161402Y-75478349D01*
X116153552Y-75479202D01*
X116146159Y-75481974D01*
X116146157Y-75481974D01*
X116026643Y-75526777D01*
X116026641Y-75526778D01*
X116018236Y-75529929D01*
X116011051Y-75535314D01*
X116007009Y-75537527D01*
X115937652Y-75552696D01*
X115871104Y-75527960D01*
X115828494Y-75471172D01*
X115820500Y-75427007D01*
X115820500Y-75226993D01*
X115840502Y-75158872D01*
X115894158Y-75112379D01*
X115964432Y-75102275D01*
X116007009Y-75116473D01*
X116011051Y-75118686D01*
X116018236Y-75124071D01*
X116026639Y-75127221D01*
X116026643Y-75127223D01*
X116146157Y-75172026D01*
X116146159Y-75172026D01*
X116153552Y-75174798D01*
X116161402Y-75175651D01*
X116161403Y-75175651D01*
X116211847Y-75181131D01*
X116215244Y-75181500D01*
X117210756Y-75181500D01*
X117214153Y-75181131D01*
X117264597Y-75175651D01*
X117264598Y-75175651D01*
X117272448Y-75174798D01*
X117279841Y-75172026D01*
X117279843Y-75172026D01*
X117318046Y-75157704D01*
X117407764Y-75124071D01*
X117414943Y-75118691D01*
X117414946Y-75118689D01*
X117516224Y-75042785D01*
X117523404Y-75037404D01*
X117594787Y-74942158D01*
X117604689Y-74928946D01*
X117604691Y-74928943D01*
X117610071Y-74921764D01*
X117613221Y-74913362D01*
X117617533Y-74905485D01*
X117620237Y-74906965D01*
X117653661Y-74862472D01*
X117720223Y-74837773D01*
X117789572Y-74852981D01*
X117839689Y-74903268D01*
X117841880Y-74908066D01*
X117844779Y-74913362D01*
X117847929Y-74921764D01*
X117853309Y-74928943D01*
X117853311Y-74928946D01*
X117863213Y-74942158D01*
X117934596Y-75037404D01*
X117941776Y-75042785D01*
X118043054Y-75118689D01*
X118043057Y-75118691D01*
X118050236Y-75124071D01*
X118139954Y-75157704D01*
X118178157Y-75172026D01*
X118178159Y-75172026D01*
X118185552Y-75174798D01*
X118193402Y-75175651D01*
X118193403Y-75175651D01*
X118243847Y-75181131D01*
X118247244Y-75181500D01*
X119242756Y-75181500D01*
X119246153Y-75181131D01*
X119296597Y-75175651D01*
X119296598Y-75175651D01*
X119304448Y-75174798D01*
X119311841Y-75172026D01*
X119311843Y-75172026D01*
X119350046Y-75157704D01*
X119439764Y-75124071D01*
X119446943Y-75118691D01*
X119446946Y-75118689D01*
X119548224Y-75042785D01*
X119555404Y-75037404D01*
X119626787Y-74942158D01*
X119636689Y-74928946D01*
X119636691Y-74928943D01*
X119642071Y-74921764D01*
X119667856Y-74852981D01*
X119682743Y-74813271D01*
X119725384Y-74756506D01*
X119791946Y-74731806D01*
X119800725Y-74731500D01*
X123002260Y-74731500D01*
X123070381Y-74751502D01*
G37*
G04 #@! TD.AperFunction*
G04 #@! TA.AperFunction,Conductor*
G36*
X122493959Y-70887502D02*
G01*
X122514933Y-70904404D01*
X122902595Y-71292065D01*
X122936620Y-71354378D01*
X122939500Y-71381161D01*
X122939500Y-71929676D01*
X122916587Y-72002126D01*
X122862950Y-72078444D01*
X122841664Y-72133040D01*
X122815105Y-72201161D01*
X122805406Y-72226037D01*
X122804414Y-72233570D01*
X122804414Y-72233571D01*
X122785783Y-72375093D01*
X122784729Y-72383096D01*
X122793421Y-72461825D01*
X122800922Y-72529762D01*
X122802113Y-72540553D01*
X122804723Y-72547684D01*
X122804723Y-72547686D01*
X122849381Y-72669719D01*
X122856553Y-72689319D01*
X122860789Y-72695622D01*
X122860789Y-72695623D01*
X122929582Y-72797997D01*
X122944908Y-72820805D01*
X122950527Y-72825918D01*
X122950528Y-72825919D01*
X123051211Y-72917533D01*
X123062076Y-72927419D01*
X123201293Y-73003008D01*
X123218318Y-73007475D01*
X123218888Y-73007624D01*
X123279703Y-73044258D01*
X123311058Y-73107955D01*
X123302999Y-73178493D01*
X123258083Y-73233476D01*
X123186914Y-73255500D01*
X121250739Y-73255500D01*
X121182618Y-73235498D01*
X121161644Y-73218595D01*
X120975644Y-73032595D01*
X120941618Y-72970283D01*
X120946683Y-72899468D01*
X120989230Y-72842632D01*
X121055750Y-72817821D01*
X121064739Y-72817500D01*
X121956334Y-72817500D01*
X122051055Y-72802498D01*
X122165223Y-72744326D01*
X122255826Y-72653723D01*
X122313998Y-72539555D01*
X122329000Y-72444834D01*
X122329000Y-72081166D01*
X122313998Y-71986445D01*
X122255826Y-71872277D01*
X122165223Y-71781674D01*
X122051055Y-71723502D01*
X121956334Y-71708500D01*
X120867666Y-71708500D01*
X120862779Y-71709274D01*
X120858155Y-71709638D01*
X120788674Y-71695044D01*
X120759171Y-71673122D01*
X120710404Y-71624354D01*
X120676379Y-71562041D01*
X120673500Y-71535259D01*
X120673500Y-71034274D01*
X120693502Y-70966153D01*
X120747158Y-70919660D01*
X120819209Y-70909825D01*
X120855372Y-70915553D01*
X120862778Y-70916726D01*
X120862780Y-70916726D01*
X120867666Y-70917500D01*
X121956334Y-70917500D01*
X122051055Y-70902498D01*
X122063294Y-70896262D01*
X122092790Y-70881233D01*
X122149993Y-70867500D01*
X122425838Y-70867500D01*
X122493959Y-70887502D01*
G37*
G04 #@! TD.AperFunction*
M02*
