G04 #@! TF.GenerationSoftware,KiCad,Pcbnew,6.0.10*
G04 #@! TF.CreationDate,2023-06-20T13:54:13-05:00*
G04 #@! TF.ProjectId,sensor_sigfox_1,73656e73-6f72-45f7-9369-67666f785f31,rev?*
G04 #@! TF.SameCoordinates,Original*
G04 #@! TF.FileFunction,Paste,Bot*
G04 #@! TF.FilePolarity,Positive*
%FSLAX46Y46*%
G04 Gerber Fmt 4.6, Leading zero omitted, Abs format (unit mm)*
G04 Created by KiCad (PCBNEW 6.0.10) date 2023-06-20 13:54:13*
%MOMM*%
%LPD*%
G01*
G04 APERTURE LIST*
G04 Aperture macros list*
%AMRoundRect*
0 Rectangle with rounded corners*
0 $1 Rounding radius*
0 $2 $3 $4 $5 $6 $7 $8 $9 X,Y pos of 4 corners*
0 Add a 4 corners polygon primitive as box body*
4,1,4,$2,$3,$4,$5,$6,$7,$8,$9,$2,$3,0*
0 Add four circle primitives for the rounded corners*
1,1,$1+$1,$2,$3*
1,1,$1+$1,$4,$5*
1,1,$1+$1,$6,$7*
1,1,$1+$1,$8,$9*
0 Add four rect primitives between the rounded corners*
20,1,$1+$1,$2,$3,$4,$5,0*
20,1,$1+$1,$4,$5,$6,$7,0*
20,1,$1+$1,$6,$7,$8,$9,0*
20,1,$1+$1,$8,$9,$2,$3,0*%
G04 Aperture macros list end*
%ADD10R,4.200000X1.350000*%
%ADD11R,1.000000X1.000000*%
%ADD12RoundRect,0.150000X0.512500X0.150000X-0.512500X0.150000X-0.512500X-0.150000X0.512500X-0.150000X0*%
%ADD13RoundRect,0.250000X-0.450000X0.350000X-0.450000X-0.350000X0.450000X-0.350000X0.450000X0.350000X0*%
%ADD14RoundRect,0.250000X-0.350000X-0.450000X0.350000X-0.450000X0.350000X0.450000X-0.350000X0.450000X0*%
%ADD15RoundRect,0.250000X0.450000X-0.350000X0.450000X0.350000X-0.450000X0.350000X-0.450000X-0.350000X0*%
%ADD16R,1.500000X0.650000*%
%ADD17RoundRect,0.150000X-0.512500X-0.150000X0.512500X-0.150000X0.512500X0.150000X-0.512500X0.150000X0*%
%ADD18RoundRect,0.250000X-0.475000X0.337500X-0.475000X-0.337500X0.475000X-0.337500X0.475000X0.337500X0*%
%ADD19RoundRect,0.250000X0.475000X-0.337500X0.475000X0.337500X-0.475000X0.337500X-0.475000X-0.337500X0*%
%ADD20RoundRect,0.250000X0.350000X0.450000X-0.350000X0.450000X-0.350000X-0.450000X0.350000X-0.450000X0*%
%ADD21RoundRect,0.125000X-0.125000X0.825000X-0.125000X-0.825000X0.125000X-0.825000X0.125000X0.825000X0*%
%ADD22RoundRect,0.250000X0.325000X0.450000X-0.325000X0.450000X-0.325000X-0.450000X0.325000X-0.450000X0*%
G04 APERTURE END LIST*
D10*
X139246000Y-79787000D03*
X139246000Y-74137000D03*
D11*
X133613000Y-90043000D03*
X131113000Y-90043000D03*
D12*
X129168000Y-92075000D03*
X129168000Y-93025000D03*
X129168000Y-93975000D03*
X126893000Y-93975000D03*
X126893000Y-93025000D03*
X126893000Y-92075000D03*
D13*
X116713000Y-74327000D03*
X116713000Y-76327000D03*
D14*
X125254000Y-72009000D03*
X127254000Y-72009000D03*
D15*
X133613000Y-94091000D03*
X133613000Y-92091000D03*
D16*
X124046000Y-40767000D03*
X124046000Y-39497000D03*
X124046000Y-38227000D03*
X124046000Y-36957000D03*
X129446000Y-36957000D03*
X129446000Y-38227000D03*
X129446000Y-39497000D03*
X129446000Y-40767000D03*
D17*
X119137000Y-72263000D03*
X119137000Y-71313000D03*
X119137000Y-70363000D03*
X121412000Y-70363000D03*
X121412000Y-71313000D03*
X121412000Y-72263000D03*
D18*
X124215000Y-90889000D03*
X124215000Y-92964000D03*
X120777000Y-78062000D03*
X120777000Y-80137000D03*
D19*
X135772000Y-94107000D03*
X135772000Y-92032000D03*
D20*
X120491000Y-82677000D03*
X118491000Y-82677000D03*
X127254000Y-73914000D03*
X125254000Y-73914000D03*
D15*
X134493000Y-71755000D03*
X134493000Y-69755000D03*
X118745000Y-76327000D03*
X118745000Y-74327000D03*
X116713000Y-72390000D03*
X116713000Y-70390000D03*
X131953000Y-71755000D03*
X131953000Y-69755000D03*
D21*
X123877000Y-78090000D03*
X124527000Y-78090000D03*
X125177000Y-78090000D03*
X125827000Y-78090000D03*
X126477000Y-78090000D03*
X127127000Y-78090000D03*
X127777000Y-78090000D03*
X128427000Y-78090000D03*
X129077000Y-78090000D03*
X129727000Y-78090000D03*
X129727000Y-85090000D03*
X129077000Y-85090000D03*
X128427000Y-85090000D03*
X127777000Y-85090000D03*
X127127000Y-85090000D03*
X126477000Y-85090000D03*
X125827000Y-85090000D03*
X125177000Y-85090000D03*
X124527000Y-85090000D03*
X123877000Y-85090000D03*
D22*
X128914000Y-89916000D03*
X126864000Y-89916000D03*
D13*
X131581000Y-92075000D03*
X131581000Y-94075000D03*
D18*
X118745000Y-78083500D03*
X118745000Y-80158500D03*
M02*
