G04 #@! TF.GenerationSoftware,KiCad,Pcbnew,6.0.10*
G04 #@! TF.CreationDate,2023-06-20T13:49:35-05:00*
G04 #@! TF.ProjectId,sensor_sigfox_2,73656e73-6f72-45f7-9369-67666f785f32,rev?*
G04 #@! TF.SameCoordinates,Original*
G04 #@! TF.FileFunction,Soldermask,Top*
G04 #@! TF.FilePolarity,Negative*
%FSLAX46Y46*%
G04 Gerber Fmt 4.6, Leading zero omitted, Abs format (unit mm)*
G04 Created by KiCad (PCBNEW 6.0.10) date 2023-06-20 13:49:35*
%MOMM*%
%LPD*%
G01*
G04 APERTURE LIST*
G04 Aperture macros list*
%AMRoundRect*
0 Rectangle with rounded corners*
0 $1 Rounding radius*
0 $2 $3 $4 $5 $6 $7 $8 $9 X,Y pos of 4 corners*
0 Add a 4 corners polygon primitive as box body*
4,1,4,$2,$3,$4,$5,$6,$7,$8,$9,$2,$3,0*
0 Add four circle primitives for the rounded corners*
1,1,$1+$1,$2,$3*
1,1,$1+$1,$4,$5*
1,1,$1+$1,$6,$7*
1,1,$1+$1,$8,$9*
0 Add four rect primitives between the rounded corners*
20,1,$1+$1,$2,$3,$4,$5,0*
20,1,$1+$1,$4,$5,$6,$7,0*
20,1,$1+$1,$6,$7,$8,$9,0*
20,1,$1+$1,$8,$9,$2,$3,0*%
G04 Aperture macros list end*
%ADD10R,1.700000X1.700000*%
%ADD11O,1.700000X1.700000*%
%ADD12RoundRect,0.250000X0.475000X-0.337500X0.475000X0.337500X-0.475000X0.337500X-0.475000X-0.337500X0*%
%ADD13R,1.050000X1.250000*%
%ADD14R,1.250000X1.050000*%
%ADD15R,12.800000X2.880000*%
%ADD16RoundRect,0.250000X0.337500X0.475000X-0.337500X0.475000X-0.337500X-0.475000X0.337500X-0.475000X0*%
%ADD17RoundRect,0.237500X-0.287500X-0.237500X0.287500X-0.237500X0.287500X0.237500X-0.287500X0.237500X0*%
%ADD18RoundRect,0.250000X-0.350000X-0.450000X0.350000X-0.450000X0.350000X0.450000X-0.350000X0.450000X0*%
G04 APERTURE END LIST*
D10*
X126746000Y-89662000D03*
D11*
X124206000Y-89662000D03*
X121666000Y-89662000D03*
D10*
X117856000Y-89662000D03*
D11*
X117856000Y-87122000D03*
D12*
X125730000Y-40132000D03*
X125730000Y-38057000D03*
X127762000Y-40132000D03*
X127762000Y-38057000D03*
D13*
X119844000Y-82804000D03*
X121644000Y-82804000D03*
X123444000Y-82804000D03*
X125244000Y-82804000D03*
X127044000Y-82804000D03*
X128844000Y-82804000D03*
X130644000Y-82804000D03*
X132444000Y-82804000D03*
X134244000Y-82804000D03*
X136044000Y-82804000D03*
D14*
X138590000Y-81448000D03*
X138590000Y-79648000D03*
X138590000Y-77848000D03*
X138590000Y-76048000D03*
X138590000Y-74248000D03*
X138590000Y-72448000D03*
D13*
X136044000Y-71132000D03*
X134244000Y-71132000D03*
X132444000Y-71132000D03*
X130644000Y-71132000D03*
X128844000Y-71132000D03*
X127044000Y-71132000D03*
X125244000Y-71132000D03*
X123444000Y-71132000D03*
X121644000Y-71132000D03*
X119844000Y-71132000D03*
X118044000Y-71132000D03*
D14*
X116158000Y-72448000D03*
X116158000Y-74248000D03*
X116158000Y-76048000D03*
X116158000Y-77848000D03*
X116158000Y-81448000D03*
D13*
X118044000Y-82804000D03*
D15*
X128071000Y-77495000D03*
D16*
X139827000Y-69215000D03*
X137752000Y-69215000D03*
D17*
X129822000Y-90424000D03*
X131572000Y-90424000D03*
D18*
X129572000Y-88392000D03*
X131572000Y-88392000D03*
M02*
