M48
; DRILL file {KiCad 6.0.10} date Tue 20 Jun 2023 01:46:37 PM CDT
; FORMAT={-:-/ absolute / metric / decimal}
; #@! TF.CreationDate,2023-06-20T13:46:37-05:00
; #@! TF.GenerationSoftware,Kicad,Pcbnew,6.0.10
; #@! TF.FileFunction,Plated,1,2,PTH
FMAT,2
METRIC
; #@! TA.AperFunction,Plated,PTH,ViaDrill
T1C0.400
; #@! TA.AperFunction,Plated,PTH,ComponentDrill
T2C1.000
%
G90
G05
T1
X115.57Y-87.63
X115.57Y-90.17
X117.729Y-84.328
X119.253Y-84.328
X120.142Y-76.327
X121.412Y-75.184
X122.428Y-71.374
X123.317Y-87.249
X123.444Y-72.39
X123.507Y-79.947
X123.571Y-69.85
X125.095Y-42.037
X125.095Y-87.249
X125.476Y-36.957
X125.73Y-81.026
X126.238Y-87.249
X127.762Y-87.249
X128.016Y-81.026
X129.413Y-42.164
X129.727Y-73.212
X131.445Y-80.01
X132.588Y-74.676
X133.35Y-90.17
X134.493Y-73.152
X134.62Y-87.63
X135.636Y-73.152
X135.89Y-90.17
X136.271Y-69.342
X137.16Y-87.63
X138.43Y-90.17
X139.7Y-87.63
X139.827Y-70.866
X140.208Y-73.533
T2
X117.856Y-87.122
X117.856Y-89.662
X121.666Y-89.662
X124.206Y-89.662
X126.746Y-89.662
T0
M30
