G04 #@! TF.GenerationSoftware,KiCad,Pcbnew,6.0.10*
G04 #@! TF.CreationDate,2023-06-20T13:49:35-05:00*
G04 #@! TF.ProjectId,sensor_sigfox_2,73656e73-6f72-45f7-9369-67666f785f32,rev?*
G04 #@! TF.SameCoordinates,Original*
G04 #@! TF.FileFunction,Legend,Top*
G04 #@! TF.FilePolarity,Positive*
%FSLAX46Y46*%
G04 Gerber Fmt 4.6, Leading zero omitted, Abs format (unit mm)*
G04 Created by KiCad (PCBNEW 6.0.10) date 2023-06-20 13:49:35*
%MOMM*%
%LPD*%
G01*
G04 APERTURE LIST*
G04 Aperture macros list*
%AMRoundRect*
0 Rectangle with rounded corners*
0 $1 Rounding radius*
0 $2 $3 $4 $5 $6 $7 $8 $9 X,Y pos of 4 corners*
0 Add a 4 corners polygon primitive as box body*
4,1,4,$2,$3,$4,$5,$6,$7,$8,$9,$2,$3,0*
0 Add four circle primitives for the rounded corners*
1,1,$1+$1,$2,$3*
1,1,$1+$1,$4,$5*
1,1,$1+$1,$6,$7*
1,1,$1+$1,$8,$9*
0 Add four rect primitives between the rounded corners*
20,1,$1+$1,$2,$3,$4,$5,0*
20,1,$1+$1,$4,$5,$6,$7,0*
20,1,$1+$1,$6,$7,$8,$9,0*
20,1,$1+$1,$8,$9,$2,$3,0*%
G04 Aperture macros list end*
%ADD10C,0.150000*%
%ADD11C,0.120000*%
%ADD12R,1.700000X1.700000*%
%ADD13O,1.700000X1.700000*%
%ADD14RoundRect,0.250000X0.475000X-0.337500X0.475000X0.337500X-0.475000X0.337500X-0.475000X-0.337500X0*%
%ADD15R,1.050000X1.250000*%
%ADD16R,1.250000X1.050000*%
%ADD17R,12.800000X2.880000*%
%ADD18RoundRect,0.250000X0.337500X0.475000X-0.337500X0.475000X-0.337500X-0.475000X0.337500X-0.475000X0*%
%ADD19RoundRect,0.237500X-0.287500X-0.237500X0.287500X-0.237500X0.287500X0.237500X-0.287500X0.237500X0*%
%ADD20RoundRect,0.250000X-0.350000X-0.450000X0.350000X-0.450000X0.350000X0.450000X-0.350000X0.450000X0*%
G04 APERTURE END LIST*
D10*
X121332666Y-86574380D02*
X121332666Y-87288666D01*
X121285047Y-87431523D01*
X121189809Y-87526761D01*
X121046952Y-87574380D01*
X120951714Y-87574380D01*
X122332666Y-87574380D02*
X121761238Y-87574380D01*
X122046952Y-87574380D02*
X122046952Y-86574380D01*
X121951714Y-86717238D01*
X121856476Y-86812476D01*
X121761238Y-86860095D01*
X120316666Y-85558380D02*
X120316666Y-86272666D01*
X120269047Y-86415523D01*
X120173809Y-86510761D01*
X120030952Y-86558380D01*
X119935714Y-86558380D01*
X120745238Y-85653619D02*
X120792857Y-85606000D01*
X120888095Y-85558380D01*
X121126190Y-85558380D01*
X121221428Y-85606000D01*
X121269047Y-85653619D01*
X121316666Y-85748857D01*
X121316666Y-85844095D01*
X121269047Y-85986952D01*
X120697619Y-86558380D01*
X121316666Y-86558380D01*
X124407142Y-39261166D02*
X124454761Y-39308785D01*
X124502380Y-39451642D01*
X124502380Y-39546880D01*
X124454761Y-39689738D01*
X124359523Y-39784976D01*
X124264285Y-39832595D01*
X124073809Y-39880214D01*
X123930952Y-39880214D01*
X123740476Y-39832595D01*
X123645238Y-39784976D01*
X123550000Y-39689738D01*
X123502380Y-39546880D01*
X123502380Y-39451642D01*
X123550000Y-39308785D01*
X123597619Y-39261166D01*
X123502380Y-38404023D02*
X123502380Y-38594500D01*
X123550000Y-38689738D01*
X123597619Y-38737357D01*
X123740476Y-38832595D01*
X123930952Y-38880214D01*
X124311904Y-38880214D01*
X124407142Y-38832595D01*
X124454761Y-38784976D01*
X124502380Y-38689738D01*
X124502380Y-38499261D01*
X124454761Y-38404023D01*
X124407142Y-38356404D01*
X124311904Y-38308785D01*
X124073809Y-38308785D01*
X123978571Y-38356404D01*
X123930952Y-38404023D01*
X123883333Y-38499261D01*
X123883333Y-38689738D01*
X123930952Y-38784976D01*
X123978571Y-38832595D01*
X124073809Y-38880214D01*
X130024142Y-39261166D02*
X130071761Y-39308785D01*
X130119380Y-39451642D01*
X130119380Y-39546880D01*
X130071761Y-39689738D01*
X129976523Y-39784976D01*
X129881285Y-39832595D01*
X129690809Y-39880214D01*
X129547952Y-39880214D01*
X129357476Y-39832595D01*
X129262238Y-39784976D01*
X129167000Y-39689738D01*
X129119380Y-39546880D01*
X129119380Y-39451642D01*
X129167000Y-39308785D01*
X129214619Y-39261166D01*
X129119380Y-38356404D02*
X129119380Y-38832595D01*
X129595571Y-38880214D01*
X129547952Y-38832595D01*
X129500333Y-38737357D01*
X129500333Y-38499261D01*
X129547952Y-38404023D01*
X129595571Y-38356404D01*
X129690809Y-38308785D01*
X129928904Y-38308785D01*
X130024142Y-38356404D01*
X130071761Y-38404023D01*
X130119380Y-38499261D01*
X130119380Y-38737357D01*
X130071761Y-38832595D01*
X130024142Y-38880214D01*
X126023809Y-70048380D02*
X126023809Y-69048380D01*
X127071428Y-69953142D02*
X127023809Y-70000761D01*
X126880952Y-70048380D01*
X126785714Y-70048380D01*
X126642857Y-70000761D01*
X126547619Y-69905523D01*
X126500000Y-69810285D01*
X126452380Y-69619809D01*
X126452380Y-69476952D01*
X126500000Y-69286476D01*
X126547619Y-69191238D01*
X126642857Y-69096000D01*
X126785714Y-69048380D01*
X126880952Y-69048380D01*
X127023809Y-69096000D01*
X127071428Y-69143619D01*
X127452380Y-69143619D02*
X127500000Y-69096000D01*
X127595238Y-69048380D01*
X127833333Y-69048380D01*
X127928571Y-69096000D01*
X127976190Y-69143619D01*
X128023809Y-69238857D01*
X128023809Y-69334095D01*
X127976190Y-69476952D01*
X127404761Y-70048380D01*
X128023809Y-70048380D01*
X138622833Y-71252142D02*
X138575214Y-71299761D01*
X138432357Y-71347380D01*
X138337119Y-71347380D01*
X138194261Y-71299761D01*
X138099023Y-71204523D01*
X138051404Y-71109285D01*
X138003785Y-70918809D01*
X138003785Y-70775952D01*
X138051404Y-70585476D01*
X138099023Y-70490238D01*
X138194261Y-70395000D01*
X138337119Y-70347380D01*
X138432357Y-70347380D01*
X138575214Y-70395000D01*
X138622833Y-70442619D01*
X139575214Y-71347380D02*
X139003785Y-71347380D01*
X139289500Y-71347380D02*
X139289500Y-70347380D01*
X139194261Y-70490238D01*
X139099023Y-70585476D01*
X139003785Y-70633095D01*
X132865904Y-90876380D02*
X132865904Y-89876380D01*
X133104000Y-89876380D01*
X133246857Y-89924000D01*
X133342095Y-90019238D01*
X133389714Y-90114476D01*
X133437333Y-90304952D01*
X133437333Y-90447809D01*
X133389714Y-90638285D01*
X133342095Y-90733523D01*
X133246857Y-90828761D01*
X133104000Y-90876380D01*
X132865904Y-90876380D01*
X134389714Y-90876380D02*
X133818285Y-90876380D01*
X134104000Y-90876380D02*
X134104000Y-89876380D01*
X134008761Y-90019238D01*
X133913523Y-90114476D01*
X133818285Y-90162095D01*
X133437333Y-88844380D02*
X133104000Y-88368190D01*
X132865904Y-88844380D02*
X132865904Y-87844380D01*
X133246857Y-87844380D01*
X133342095Y-87892000D01*
X133389714Y-87939619D01*
X133437333Y-88034857D01*
X133437333Y-88177714D01*
X133389714Y-88272952D01*
X133342095Y-88320571D01*
X133246857Y-88368190D01*
X132865904Y-88368190D01*
X134294476Y-87844380D02*
X134104000Y-87844380D01*
X134008761Y-87892000D01*
X133961142Y-87939619D01*
X133865904Y-88082476D01*
X133818285Y-88272952D01*
X133818285Y-88653904D01*
X133865904Y-88749142D01*
X133913523Y-88796761D01*
X134008761Y-88844380D01*
X134199238Y-88844380D01*
X134294476Y-88796761D01*
X134342095Y-88749142D01*
X134389714Y-88653904D01*
X134389714Y-88415809D01*
X134342095Y-88320571D01*
X134294476Y-88272952D01*
X134199238Y-88225333D01*
X134008761Y-88225333D01*
X133913523Y-88272952D01*
X133865904Y-88320571D01*
X133818285Y-88415809D01*
D11*
X120336000Y-88332000D02*
X120336000Y-90992000D01*
X125476000Y-88332000D02*
X120336000Y-88332000D01*
X128076000Y-88332000D02*
X128076000Y-89662000D01*
X126746000Y-88332000D02*
X128076000Y-88332000D01*
X125476000Y-90992000D02*
X120336000Y-90992000D01*
X125476000Y-88332000D02*
X125476000Y-90992000D01*
X116416000Y-90992000D02*
X116416000Y-85792000D01*
X113756000Y-85792000D02*
X113756000Y-90992000D01*
X107756000Y-87502000D02*
X107756000Y-86742000D01*
X119126000Y-90932000D02*
X117856000Y-90932000D01*
X116746000Y-89282000D02*
X116416000Y-89282000D01*
X116813071Y-87502000D02*
X116416000Y-87502000D01*
X107756000Y-89282000D02*
X113756000Y-89282000D01*
X113756000Y-89862000D02*
X107756000Y-89862000D01*
X113756000Y-89742000D02*
X107756000Y-89742000D01*
X113756000Y-87502000D02*
X107756000Y-87502000D01*
X113756000Y-89502000D02*
X107756000Y-89502000D01*
X107756000Y-86742000D02*
X113756000Y-86742000D01*
X113756000Y-89982000D02*
X107756000Y-89982000D01*
X113756000Y-90992000D02*
X116416000Y-90992000D01*
X107756000Y-90042000D02*
X107756000Y-89282000D01*
X113756000Y-89622000D02*
X107756000Y-89622000D01*
X116746000Y-90042000D02*
X116416000Y-90042000D01*
X119126000Y-89662000D02*
X119126000Y-90932000D01*
X116416000Y-88392000D02*
X113756000Y-88392000D01*
X113756000Y-89382000D02*
X107756000Y-89382000D01*
X116416000Y-85792000D02*
X113756000Y-85792000D01*
X116813071Y-86742000D02*
X116416000Y-86742000D01*
X113756000Y-90042000D02*
X107756000Y-90042000D01*
X126465000Y-39355752D02*
X126465000Y-38833248D01*
X124995000Y-39355752D02*
X124995000Y-38833248D01*
X127027000Y-39355752D02*
X127027000Y-38833248D01*
X128497000Y-39355752D02*
X128497000Y-38833248D01*
X139374000Y-83718000D02*
X115244000Y-83718000D01*
X115244000Y-83718000D02*
X115244000Y-70383000D01*
X139374000Y-70383000D02*
X139374000Y-83718000D01*
X115244000Y-70383000D02*
X139374000Y-70383000D01*
X118884000Y-79718000D02*
G75*
G03*
X118884000Y-79718000I-500000J0D01*
G01*
X139050752Y-69950000D02*
X138528248Y-69950000D01*
X139050752Y-68480000D02*
X138528248Y-68480000D01*
X129037000Y-89689000D02*
X129037000Y-91159000D01*
X129037000Y-91159000D02*
X131497000Y-91159000D01*
X131497000Y-89689000D02*
X129037000Y-89689000D01*
X130344936Y-89127000D02*
X130799064Y-89127000D01*
X130344936Y-87657000D02*
X130799064Y-87657000D01*
%LPC*%
D12*
X126746000Y-89662000D03*
D13*
X124206000Y-89662000D03*
X121666000Y-89662000D03*
D12*
X117856000Y-89662000D03*
D13*
X117856000Y-87122000D03*
D14*
X125730000Y-40132000D03*
X125730000Y-38057000D03*
X127762000Y-40132000D03*
X127762000Y-38057000D03*
D15*
X119844000Y-82804000D03*
X121644000Y-82804000D03*
X123444000Y-82804000D03*
X125244000Y-82804000D03*
X127044000Y-82804000D03*
X128844000Y-82804000D03*
X130644000Y-82804000D03*
X132444000Y-82804000D03*
X134244000Y-82804000D03*
X136044000Y-82804000D03*
D16*
X138590000Y-81448000D03*
X138590000Y-79648000D03*
X138590000Y-77848000D03*
X138590000Y-76048000D03*
X138590000Y-74248000D03*
X138590000Y-72448000D03*
D15*
X136044000Y-71132000D03*
X134244000Y-71132000D03*
X132444000Y-71132000D03*
X130644000Y-71132000D03*
X128844000Y-71132000D03*
X127044000Y-71132000D03*
X125244000Y-71132000D03*
X123444000Y-71132000D03*
X121644000Y-71132000D03*
X119844000Y-71132000D03*
X118044000Y-71132000D03*
D16*
X116158000Y-72448000D03*
X116158000Y-74248000D03*
X116158000Y-76048000D03*
X116158000Y-77848000D03*
X116158000Y-81448000D03*
D15*
X118044000Y-82804000D03*
D17*
X128071000Y-77495000D03*
D18*
X139827000Y-69215000D03*
X137752000Y-69215000D03*
D19*
X129822000Y-90424000D03*
X131572000Y-90424000D03*
D20*
X129572000Y-88392000D03*
X131572000Y-88392000D03*
M02*
