G04 #@! TF.GenerationSoftware,KiCad,Pcbnew,6.0.10*
G04 #@! TF.CreationDate,2023-06-20T13:49:34-05:00*
G04 #@! TF.ProjectId,sensor_sigfox_2,73656e73-6f72-45f7-9369-67666f785f32,rev?*
G04 #@! TF.SameCoordinates,Original*
G04 #@! TF.FileFunction,Copper,L2,Bot*
G04 #@! TF.FilePolarity,Positive*
%FSLAX46Y46*%
G04 Gerber Fmt 4.6, Leading zero omitted, Abs format (unit mm)*
G04 Created by KiCad (PCBNEW 6.0.10) date 2023-06-20 13:49:34*
%MOMM*%
%LPD*%
G01*
G04 APERTURE LIST*
G04 Aperture macros list*
%AMRoundRect*
0 Rectangle with rounded corners*
0 $1 Rounding radius*
0 $2 $3 $4 $5 $6 $7 $8 $9 X,Y pos of 4 corners*
0 Add a 4 corners polygon primitive as box body*
4,1,4,$2,$3,$4,$5,$6,$7,$8,$9,$2,$3,0*
0 Add four circle primitives for the rounded corners*
1,1,$1+$1,$2,$3*
1,1,$1+$1,$4,$5*
1,1,$1+$1,$6,$7*
1,1,$1+$1,$8,$9*
0 Add four rect primitives between the rounded corners*
20,1,$1+$1,$2,$3,$4,$5,0*
20,1,$1+$1,$4,$5,$6,$7,0*
20,1,$1+$1,$6,$7,$8,$9,0*
20,1,$1+$1,$8,$9,$2,$3,0*%
G04 Aperture macros list end*
G04 #@! TA.AperFunction,ComponentPad*
%ADD10R,1.700000X1.700000*%
G04 #@! TD*
G04 #@! TA.AperFunction,ComponentPad*
%ADD11O,1.700000X1.700000*%
G04 #@! TD*
G04 #@! TA.AperFunction,SMDPad,CuDef*
%ADD12R,1.000000X1.000000*%
G04 #@! TD*
G04 #@! TA.AperFunction,SMDPad,CuDef*
%ADD13RoundRect,0.150000X-0.150000X0.512500X-0.150000X-0.512500X0.150000X-0.512500X0.150000X0.512500X0*%
G04 #@! TD*
G04 #@! TA.AperFunction,SMDPad,CuDef*
%ADD14RoundRect,0.250000X-0.450000X0.350000X-0.450000X-0.350000X0.450000X-0.350000X0.450000X0.350000X0*%
G04 #@! TD*
G04 #@! TA.AperFunction,SMDPad,CuDef*
%ADD15RoundRect,0.250000X-0.350000X-0.450000X0.350000X-0.450000X0.350000X0.450000X-0.350000X0.450000X0*%
G04 #@! TD*
G04 #@! TA.AperFunction,SMDPad,CuDef*
%ADD16RoundRect,0.250000X0.350000X0.450000X-0.350000X0.450000X-0.350000X-0.450000X0.350000X-0.450000X0*%
G04 #@! TD*
G04 #@! TA.AperFunction,SMDPad,CuDef*
%ADD17R,1.500000X0.650000*%
G04 #@! TD*
G04 #@! TA.AperFunction,SMDPad,CuDef*
%ADD18RoundRect,0.150000X-0.512500X-0.150000X0.512500X-0.150000X0.512500X0.150000X-0.512500X0.150000X0*%
G04 #@! TD*
G04 #@! TA.AperFunction,SMDPad,CuDef*
%ADD19RoundRect,0.250000X-0.337500X-0.475000X0.337500X-0.475000X0.337500X0.475000X-0.337500X0.475000X0*%
G04 #@! TD*
G04 #@! TA.AperFunction,SMDPad,CuDef*
%ADD20RoundRect,0.250000X-0.475000X0.337500X-0.475000X-0.337500X0.475000X-0.337500X0.475000X0.337500X0*%
G04 #@! TD*
G04 #@! TA.AperFunction,SMDPad,CuDef*
%ADD21RoundRect,0.250000X0.337500X0.475000X-0.337500X0.475000X-0.337500X-0.475000X0.337500X-0.475000X0*%
G04 #@! TD*
G04 #@! TA.AperFunction,SMDPad,CuDef*
%ADD22RoundRect,0.250000X0.450000X-0.350000X0.450000X0.350000X-0.450000X0.350000X-0.450000X-0.350000X0*%
G04 #@! TD*
G04 #@! TA.AperFunction,SMDPad,CuDef*
%ADD23RoundRect,0.125000X-0.125000X0.825000X-0.125000X-0.825000X0.125000X-0.825000X0.125000X0.825000X0*%
G04 #@! TD*
G04 #@! TA.AperFunction,SMDPad,CuDef*
%ADD24RoundRect,0.250000X-0.450000X0.325000X-0.450000X-0.325000X0.450000X-0.325000X0.450000X0.325000X0*%
G04 #@! TD*
G04 #@! TA.AperFunction,ViaPad*
%ADD25C,0.800000*%
G04 #@! TD*
G04 #@! TA.AperFunction,Conductor*
%ADD26C,0.500000*%
G04 #@! TD*
G04 #@! TA.AperFunction,Conductor*
%ADD27C,0.300000*%
G04 #@! TD*
G04 APERTURE END LIST*
D10*
X126746000Y-89662000D03*
D11*
X124206000Y-89662000D03*
X121666000Y-89662000D03*
D10*
X117856000Y-89662000D03*
D11*
X117856000Y-87122000D03*
D12*
X135001000Y-74785000D03*
X135001000Y-77285000D03*
D13*
X137033000Y-79230000D03*
X137983000Y-79230000D03*
X138933000Y-79230000D03*
X138933000Y-81505000D03*
X137983000Y-81505000D03*
X137033000Y-81505000D03*
D14*
X116713000Y-74327000D03*
X116713000Y-76327000D03*
D15*
X125254000Y-72009000D03*
X127254000Y-72009000D03*
D16*
X139049000Y-74785000D03*
X137049000Y-74785000D03*
D17*
X124046000Y-40767000D03*
X124046000Y-39497000D03*
X124046000Y-38227000D03*
X124046000Y-36957000D03*
X129446000Y-36957000D03*
X129446000Y-38227000D03*
X129446000Y-39497000D03*
X129446000Y-40767000D03*
D18*
X119137000Y-72263000D03*
X119137000Y-71313000D03*
X119137000Y-70363000D03*
X121412000Y-70363000D03*
X121412000Y-71313000D03*
X121412000Y-72263000D03*
D19*
X135847000Y-84183000D03*
X137922000Y-84183000D03*
D20*
X122047000Y-78062000D03*
X122047000Y-80137000D03*
D21*
X139065000Y-72626000D03*
X136990000Y-72626000D03*
D14*
X120904000Y-82042000D03*
X120904000Y-84042000D03*
D16*
X127254000Y-73914000D03*
X125254000Y-73914000D03*
D22*
X134493000Y-71755000D03*
X134493000Y-69755000D03*
X118745000Y-76327000D03*
X118745000Y-74327000D03*
X116713000Y-72390000D03*
X116713000Y-70390000D03*
X131953000Y-71755000D03*
X131953000Y-69755000D03*
D23*
X123877000Y-78090000D03*
X124527000Y-78090000D03*
X125177000Y-78090000D03*
X125827000Y-78090000D03*
X126477000Y-78090000D03*
X127127000Y-78090000D03*
X127777000Y-78090000D03*
X128427000Y-78090000D03*
X129077000Y-78090000D03*
X129727000Y-78090000D03*
X129727000Y-85090000D03*
X129077000Y-85090000D03*
X128427000Y-85090000D03*
X127777000Y-85090000D03*
X127127000Y-85090000D03*
X126477000Y-85090000D03*
X125827000Y-85090000D03*
X125177000Y-85090000D03*
X124527000Y-85090000D03*
X123877000Y-85090000D03*
D24*
X134874000Y-79484000D03*
X134874000Y-81534000D03*
D15*
X137033000Y-76817000D03*
X139033000Y-76817000D03*
D20*
X120015000Y-78083500D03*
X120015000Y-80158500D03*
D25*
X125730000Y-81026000D03*
X121412000Y-75184000D03*
X134620000Y-87630000D03*
X137160000Y-87630000D03*
X139700000Y-87630000D03*
X138430000Y-90170000D03*
X135890000Y-90170000D03*
X133350000Y-90170000D03*
X115570000Y-87630000D03*
X115570000Y-90170000D03*
X122428000Y-71374000D03*
X117729000Y-84328000D03*
X135636000Y-73152000D03*
X125476000Y-36957000D03*
X136271000Y-69342000D03*
X119253000Y-84328000D03*
X120142000Y-76327000D03*
X140208000Y-73533000D03*
X123571000Y-69850000D03*
X123507500Y-79946500D03*
X131445000Y-80010000D03*
X129727000Y-73212000D03*
X134493000Y-73152000D03*
X123444000Y-72390000D03*
X132588000Y-74676000D03*
X139827000Y-70866000D03*
X129413000Y-42164000D03*
X125095000Y-42037000D03*
X126238000Y-87249000D03*
X125095000Y-87249000D03*
X123317000Y-87249000D03*
X128016000Y-81026000D03*
X127762000Y-87249000D03*
D26*
X137983000Y-79230000D02*
X137983000Y-78289000D01*
X137983000Y-77767000D02*
X137033000Y-76817000D01*
X137983000Y-78289000D02*
X137983000Y-77767000D01*
X124046000Y-36957000D02*
X125476000Y-36957000D01*
X115316000Y-72644000D02*
X115316000Y-76073000D01*
X115570000Y-80264000D02*
X115570000Y-81534000D01*
X115570000Y-84836000D02*
X117856000Y-87122000D01*
D27*
X131445000Y-74168000D02*
X131445000Y-80010000D01*
X131826000Y-73787000D02*
X131445000Y-74168000D01*
X123507500Y-79946500D02*
X123317000Y-80137000D01*
D26*
X120015000Y-80264000D02*
X118745000Y-81534000D01*
D27*
X133191000Y-69755000D02*
X133191000Y-72422000D01*
X133191000Y-72422000D02*
X131826000Y-73787000D01*
D26*
X115570000Y-81534000D02*
X115570000Y-84836000D01*
X119126000Y-87122000D02*
X117856000Y-87122000D01*
X134493000Y-69755000D02*
X133191000Y-69755000D01*
D27*
X123317000Y-80137000D02*
X122047000Y-80137000D01*
X123877000Y-79577000D02*
X123507500Y-79946500D01*
D26*
X121666000Y-89662000D02*
X119126000Y-87122000D01*
X120015000Y-80158500D02*
X120015000Y-80264000D01*
X116713000Y-76327000D02*
X115570000Y-76327000D01*
X117790000Y-71313000D02*
X116713000Y-72390000D01*
X119137000Y-71313000D02*
X117790000Y-71313000D01*
X120015000Y-80158500D02*
X122025500Y-80158500D01*
X115316000Y-76073000D02*
X115570000Y-76327000D01*
D27*
X123877000Y-78090000D02*
X123877000Y-79577000D01*
D26*
X122025500Y-80158500D02*
X122047000Y-80137000D01*
X118745000Y-81534000D02*
X115570000Y-81534000D01*
X115570000Y-72390000D02*
X115316000Y-72644000D01*
X115570000Y-76327000D02*
X115570000Y-80264000D01*
D27*
X123900000Y-79577000D02*
X123877000Y-79577000D01*
D26*
X133191000Y-69755000D02*
X132461000Y-69755000D01*
X116713000Y-72390000D02*
X115570000Y-72390000D01*
D27*
X130556000Y-82550000D02*
X130556000Y-71882000D01*
X130683000Y-71755000D02*
X131953000Y-71755000D01*
X129727000Y-85090000D02*
X129727000Y-83379000D01*
X127635000Y-42037000D02*
X127635000Y-40005000D01*
X130556000Y-71882000D02*
X130556000Y-70485000D01*
X130556000Y-70485000D02*
X129794000Y-69723000D01*
X128143000Y-39497000D02*
X129446000Y-39497000D01*
X129794000Y-44196000D02*
X127635000Y-42037000D01*
X129794000Y-69723000D02*
X129794000Y-44196000D01*
X129727000Y-83379000D02*
X130556000Y-82550000D01*
X130683000Y-71755000D02*
X130556000Y-71882000D01*
X127635000Y-40005000D02*
X128143000Y-39497000D01*
X127000000Y-42291000D02*
X127000000Y-39243000D01*
X128016000Y-38227000D02*
X129446000Y-38227000D01*
X129727000Y-70545000D02*
X129286000Y-70104000D01*
X129727000Y-78090000D02*
X129727000Y-73212000D01*
X134493000Y-71755000D02*
X134493000Y-73152000D01*
X129286000Y-70104000D02*
X129286000Y-44577000D01*
X127000000Y-39243000D02*
X128016000Y-38227000D01*
X129727000Y-73212000D02*
X129727000Y-70545000D01*
X129286000Y-44577000D02*
X127000000Y-42291000D01*
D26*
X120904000Y-86360000D02*
X124206000Y-89662000D01*
X120904000Y-84042000D02*
X120904000Y-86360000D01*
D27*
X125095000Y-82042000D02*
X120904000Y-82042000D01*
X126477000Y-85090000D02*
X126477000Y-83424000D01*
X126477000Y-83424000D02*
X125095000Y-82042000D01*
D26*
X138933000Y-82673000D02*
X138750000Y-82856000D01*
X138933000Y-81505000D02*
X138933000Y-82673000D01*
X133477000Y-81534000D02*
X132588000Y-80645000D01*
X122687000Y-70363000D02*
X123444000Y-71120000D01*
X132588000Y-80645000D02*
X132588000Y-74676000D01*
X123444000Y-71120000D02*
X123444000Y-72390000D01*
X137983000Y-84122000D02*
X137922000Y-84183000D01*
X137983000Y-82856000D02*
X137983000Y-84122000D01*
X138750000Y-82856000D02*
X137983000Y-82856000D01*
X134874000Y-81534000D02*
X133477000Y-81534000D01*
X135443000Y-82856000D02*
X134874000Y-82287000D01*
X137983000Y-82856000D02*
X135443000Y-82856000D01*
X134874000Y-82287000D02*
X134874000Y-81534000D01*
X121412000Y-70363000D02*
X122687000Y-70363000D01*
X137983000Y-81505000D02*
X137983000Y-82856000D01*
D27*
X129446000Y-40767000D02*
X129667000Y-40767000D01*
D26*
X139827000Y-70866000D02*
X137668000Y-70866000D01*
D27*
X124841000Y-40767000D02*
X125095000Y-41021000D01*
D26*
X137049000Y-74785000D02*
X135001000Y-74785000D01*
D27*
X124046000Y-40767000D02*
X124841000Y-40767000D01*
D26*
X137049000Y-73635000D02*
X137049000Y-72685000D01*
D27*
X125095000Y-41021000D02*
X125095000Y-42037000D01*
D26*
X137049000Y-72685000D02*
X136990000Y-72626000D01*
D27*
X129446000Y-42131000D02*
X129413000Y-42164000D01*
D26*
X137049000Y-74785000D02*
X137049000Y-73635000D01*
X135001000Y-74785000D02*
X135001000Y-74667000D01*
X123698000Y-39497000D02*
X123571000Y-39624000D01*
X124046000Y-39497000D02*
X123698000Y-39497000D01*
X137668000Y-70866000D02*
X136990000Y-71544000D01*
D27*
X129446000Y-40767000D02*
X129446000Y-42131000D01*
D26*
X123571000Y-40292000D02*
X124046000Y-40767000D01*
X123571000Y-39624000D02*
X123571000Y-40292000D01*
X136990000Y-71544000D02*
X136990000Y-72626000D01*
D27*
X127777000Y-74437000D02*
X127254000Y-73914000D01*
X127777000Y-78090000D02*
X127777000Y-74437000D01*
X119137000Y-72263000D02*
X119634000Y-72263000D01*
X125254000Y-72009000D02*
X125254000Y-73914000D01*
X121031000Y-73660000D02*
X125000000Y-73660000D01*
X119634000Y-72263000D02*
X121031000Y-73660000D01*
X125000000Y-73660000D02*
X125254000Y-73914000D01*
X120269000Y-71755000D02*
X120269000Y-70612000D01*
X120269000Y-70612000D02*
X120020000Y-70363000D01*
X121412000Y-72263000D02*
X120777000Y-72263000D01*
X120777000Y-72263000D02*
X120269000Y-71755000D01*
D26*
X116740000Y-70363000D02*
X116713000Y-70390000D01*
X119137000Y-70363000D02*
X116740000Y-70363000D01*
D27*
X120020000Y-70363000D02*
X119137000Y-70363000D01*
D26*
X137033000Y-79230000D02*
X135128000Y-79230000D01*
X135001000Y-79357000D02*
X134874000Y-79484000D01*
X135001000Y-77285000D02*
X135001000Y-79357000D01*
X135128000Y-79230000D02*
X134874000Y-79484000D01*
D27*
X123222000Y-74327000D02*
X118745000Y-74327000D01*
X124527000Y-75632000D02*
X123222000Y-74327000D01*
X124527000Y-78090000D02*
X124527000Y-75632000D01*
D26*
X118745000Y-74327000D02*
X116713000Y-74327000D01*
X138933000Y-74901000D02*
X139049000Y-74785000D01*
X138933000Y-79230000D02*
X138933000Y-74901000D01*
D27*
X125827000Y-85090000D02*
X125827000Y-86838000D01*
X125827000Y-86838000D02*
X126238000Y-87249000D01*
X125177000Y-85090000D02*
X125177000Y-87167000D01*
X125177000Y-87167000D02*
X125095000Y-87249000D01*
X123952000Y-87249000D02*
X123317000Y-87249000D01*
X124527000Y-86674000D02*
X123952000Y-87249000D01*
X124527000Y-85090000D02*
X124527000Y-86674000D01*
X127889000Y-36957000D02*
X129446000Y-36957000D01*
X125857000Y-38989000D02*
X127889000Y-36957000D01*
X128427000Y-78090000D02*
X128427000Y-70642000D01*
X125857000Y-44577000D02*
X125857000Y-38989000D01*
X128427000Y-70642000D02*
X123698000Y-65913000D01*
X123698000Y-46736000D02*
X125857000Y-44577000D01*
X123698000Y-65913000D02*
X123698000Y-46736000D01*
X127127000Y-81915000D02*
X128016000Y-81026000D01*
X127127000Y-85090000D02*
X127127000Y-81915000D01*
X128427000Y-86584000D02*
X127762000Y-87249000D01*
X128427000Y-85090000D02*
X128427000Y-86584000D01*
G04 #@! TA.AperFunction,Conductor*
G36*
X126316881Y-69108002D02*
G01*
X126337855Y-69124905D01*
X127985595Y-70772645D01*
X128019621Y-70834957D01*
X128022500Y-70861740D01*
X128022500Y-72900867D01*
X128002498Y-72968988D01*
X127948842Y-73015481D01*
X127878568Y-73025585D01*
X127849191Y-73015789D01*
X127848764Y-73016929D01*
X127720843Y-72968974D01*
X127720841Y-72968974D01*
X127713448Y-72966202D01*
X127705598Y-72965349D01*
X127705597Y-72965349D01*
X127655153Y-72959869D01*
X127655152Y-72959869D01*
X127651756Y-72959500D01*
X126856244Y-72959500D01*
X126852848Y-72959869D01*
X126852847Y-72959869D01*
X126802403Y-72965349D01*
X126802402Y-72965349D01*
X126794552Y-72966202D01*
X126787159Y-72968974D01*
X126787157Y-72968974D01*
X126748954Y-72983296D01*
X126659236Y-73016929D01*
X126652057Y-73022309D01*
X126652054Y-73022311D01*
X126598661Y-73062327D01*
X126543596Y-73103596D01*
X126538215Y-73110776D01*
X126462311Y-73212054D01*
X126462309Y-73212057D01*
X126456929Y-73219236D01*
X126443073Y-73256197D01*
X126411264Y-73341050D01*
X126406202Y-73354552D01*
X126399500Y-73416244D01*
X126399500Y-74411756D01*
X126406202Y-74473448D01*
X126456929Y-74608764D01*
X126462309Y-74615943D01*
X126462311Y-74615946D01*
X126517667Y-74689807D01*
X126543596Y-74724404D01*
X126550776Y-74729785D01*
X126652054Y-74805689D01*
X126652057Y-74805691D01*
X126659236Y-74811071D01*
X126748954Y-74844704D01*
X126787157Y-74859026D01*
X126787159Y-74859026D01*
X126794552Y-74861798D01*
X126802402Y-74862651D01*
X126802403Y-74862651D01*
X126852847Y-74868131D01*
X126856244Y-74868500D01*
X127246500Y-74868500D01*
X127314621Y-74888502D01*
X127361114Y-74942158D01*
X127372500Y-74994500D01*
X127372500Y-76759500D01*
X127352498Y-76827621D01*
X127298842Y-76874114D01*
X127246500Y-76885500D01*
X126966032Y-76885500D01*
X126934255Y-76890178D01*
X126901130Y-76895054D01*
X126901128Y-76895055D01*
X126891439Y-76896481D01*
X126860398Y-76911721D01*
X126857482Y-76913153D01*
X126787518Y-76925221D01*
X126746621Y-76913251D01*
X126711918Y-76896288D01*
X126702239Y-76894876D01*
X126642495Y-76886160D01*
X126642489Y-76886160D01*
X126637968Y-76885500D01*
X126316032Y-76885500D01*
X126284255Y-76890178D01*
X126251130Y-76895054D01*
X126251128Y-76895055D01*
X126241439Y-76896481D01*
X126210398Y-76911721D01*
X126207482Y-76913153D01*
X126137518Y-76925221D01*
X126096621Y-76913251D01*
X126061918Y-76896288D01*
X126052239Y-76894876D01*
X125992495Y-76886160D01*
X125992489Y-76886160D01*
X125987968Y-76885500D01*
X125666032Y-76885500D01*
X125634255Y-76890178D01*
X125601130Y-76895054D01*
X125601128Y-76895055D01*
X125591439Y-76896481D01*
X125560398Y-76911721D01*
X125557482Y-76913153D01*
X125487518Y-76925221D01*
X125446621Y-76913251D01*
X125411918Y-76896288D01*
X125402239Y-76894876D01*
X125342495Y-76886160D01*
X125342489Y-76886160D01*
X125337968Y-76885500D01*
X125057500Y-76885500D01*
X124989379Y-76865498D01*
X124942886Y-76811842D01*
X124931500Y-76759500D01*
X124931500Y-75567934D01*
X124924605Y-75546713D01*
X124919989Y-75527487D01*
X124918049Y-75515238D01*
X124916498Y-75505445D01*
X124906366Y-75485561D01*
X124898801Y-75467295D01*
X124891905Y-75446071D01*
X124878784Y-75428013D01*
X124868455Y-75411157D01*
X124862826Y-75400109D01*
X124858326Y-75391277D01*
X124767723Y-75300674D01*
X124388668Y-74921618D01*
X124375093Y-74896758D01*
X124360023Y-74891147D01*
X124346390Y-74879341D01*
X123746643Y-74279593D01*
X123712619Y-74217283D01*
X123717684Y-74146467D01*
X123760231Y-74089632D01*
X123826751Y-74064821D01*
X123835740Y-74064500D01*
X124273500Y-74064500D01*
X124341621Y-74084502D01*
X124388114Y-74138158D01*
X124399500Y-74190500D01*
X124399500Y-74411756D01*
X124406202Y-74473448D01*
X124456929Y-74608764D01*
X124462312Y-74615946D01*
X124536302Y-74714672D01*
X124539290Y-74722671D01*
X124553328Y-74731698D01*
X124579753Y-74751502D01*
X124659236Y-74811071D01*
X124748954Y-74844704D01*
X124787157Y-74859026D01*
X124787159Y-74859026D01*
X124794552Y-74861798D01*
X124802402Y-74862651D01*
X124802403Y-74862651D01*
X124852847Y-74868131D01*
X124856244Y-74868500D01*
X125651756Y-74868500D01*
X125655153Y-74868131D01*
X125705597Y-74862651D01*
X125705598Y-74862651D01*
X125713448Y-74861798D01*
X125720841Y-74859026D01*
X125720843Y-74859026D01*
X125759046Y-74844704D01*
X125848764Y-74811071D01*
X125855943Y-74805691D01*
X125855946Y-74805689D01*
X125957224Y-74729785D01*
X125964404Y-74724404D01*
X125990333Y-74689807D01*
X126045689Y-74615946D01*
X126045691Y-74615943D01*
X126051071Y-74608764D01*
X126101798Y-74473448D01*
X126108500Y-74411756D01*
X126108500Y-73416244D01*
X126101798Y-73354552D01*
X126096737Y-73341050D01*
X126064927Y-73256197D01*
X126051071Y-73219236D01*
X126045691Y-73212057D01*
X126045689Y-73212054D01*
X125969785Y-73110776D01*
X125964404Y-73103596D01*
X125909335Y-73062324D01*
X125866822Y-73005467D01*
X125861796Y-72934649D01*
X125895856Y-72872355D01*
X125909326Y-72860682D01*
X125964404Y-72819404D01*
X126003438Y-72767321D01*
X126045689Y-72710946D01*
X126045691Y-72710943D01*
X126051071Y-72703764D01*
X126090013Y-72599886D01*
X126099026Y-72575843D01*
X126099026Y-72575841D01*
X126101798Y-72568448D01*
X126107622Y-72514843D01*
X126108131Y-72510153D01*
X126108131Y-72510152D01*
X126108500Y-72506756D01*
X126108500Y-71511244D01*
X126106345Y-71491404D01*
X126102651Y-71457403D01*
X126102651Y-71457402D01*
X126101798Y-71449552D01*
X126051071Y-71314236D01*
X126045691Y-71307057D01*
X126045689Y-71307054D01*
X125969785Y-71205776D01*
X125964404Y-71198596D01*
X125914747Y-71161380D01*
X125855946Y-71117311D01*
X125855943Y-71117309D01*
X125848764Y-71111929D01*
X125733012Y-71068536D01*
X125720843Y-71063974D01*
X125720841Y-71063974D01*
X125713448Y-71061202D01*
X125705598Y-71060349D01*
X125705597Y-71060349D01*
X125655153Y-71054869D01*
X125655152Y-71054869D01*
X125651756Y-71054500D01*
X124856244Y-71054500D01*
X124852848Y-71054869D01*
X124852847Y-71054869D01*
X124802403Y-71060349D01*
X124802402Y-71060349D01*
X124794552Y-71061202D01*
X124787159Y-71063974D01*
X124787157Y-71063974D01*
X124774988Y-71068536D01*
X124659236Y-71111929D01*
X124652057Y-71117309D01*
X124652054Y-71117311D01*
X124593253Y-71161380D01*
X124543596Y-71198596D01*
X124538215Y-71205776D01*
X124462311Y-71307054D01*
X124462309Y-71307057D01*
X124456929Y-71314236D01*
X124406202Y-71449552D01*
X124405349Y-71457402D01*
X124405349Y-71457403D01*
X124401655Y-71491404D01*
X124399500Y-71511244D01*
X124399500Y-72506756D01*
X124399869Y-72510152D01*
X124399869Y-72510153D01*
X124400379Y-72514843D01*
X124406202Y-72568448D01*
X124408974Y-72575841D01*
X124408974Y-72575843D01*
X124417987Y-72599886D01*
X124456929Y-72703764D01*
X124462309Y-72710943D01*
X124462311Y-72710946D01*
X124504562Y-72767321D01*
X124543596Y-72819404D01*
X124598665Y-72860676D01*
X124641178Y-72917533D01*
X124646204Y-72988351D01*
X124612144Y-73050645D01*
X124598674Y-73062318D01*
X124543596Y-73103596D01*
X124467548Y-73205068D01*
X124410691Y-73247580D01*
X124366724Y-73255500D01*
X123705597Y-73255500D01*
X123637476Y-73235498D01*
X123590983Y-73181842D01*
X123580879Y-73111568D01*
X123610373Y-73046988D01*
X123662059Y-73011537D01*
X123667332Y-73010329D01*
X123696675Y-72995571D01*
X123802072Y-72942563D01*
X123802075Y-72942561D01*
X123808855Y-72939151D01*
X123814626Y-72934222D01*
X123814629Y-72934220D01*
X123923536Y-72841204D01*
X123923536Y-72841203D01*
X123929314Y-72836269D01*
X124021755Y-72707624D01*
X124080842Y-72560641D01*
X124093630Y-72470785D01*
X124102581Y-72407891D01*
X124102581Y-72407888D01*
X124103162Y-72403807D01*
X124103307Y-72390000D01*
X124084276Y-72232733D01*
X124028280Y-72084546D01*
X123970660Y-72000708D01*
X123948500Y-71929341D01*
X123948500Y-71190630D01*
X123949842Y-71178622D01*
X123949346Y-71178582D01*
X123950066Y-71169631D01*
X123952047Y-71160877D01*
X123948742Y-71107607D01*
X123948500Y-71099805D01*
X123948500Y-71083774D01*
X123947035Y-71073541D01*
X123946004Y-71063481D01*
X123944833Y-71044596D01*
X123943098Y-71016642D01*
X123940050Y-71008199D01*
X123939371Y-71004920D01*
X123935416Y-70989055D01*
X123934473Y-70985831D01*
X123933201Y-70976948D01*
X123929487Y-70968779D01*
X123929485Y-70968773D01*
X123913775Y-70934221D01*
X123909961Y-70924852D01*
X123907307Y-70917500D01*
X123894028Y-70880716D01*
X123888731Y-70873466D01*
X123887154Y-70870499D01*
X123878907Y-70856386D01*
X123877102Y-70853563D01*
X123873388Y-70845395D01*
X123842753Y-70809842D01*
X123836475Y-70801936D01*
X123828527Y-70791056D01*
X123817665Y-70780194D01*
X123811307Y-70773347D01*
X123784915Y-70742718D01*
X123779056Y-70735918D01*
X123771521Y-70731034D01*
X123764949Y-70725301D01*
X123753545Y-70716074D01*
X123093677Y-70056206D01*
X123086135Y-70046766D01*
X123085755Y-70047089D01*
X123079937Y-70040253D01*
X123075147Y-70032661D01*
X123035140Y-69997328D01*
X123029454Y-69991983D01*
X123018120Y-69980649D01*
X123009845Y-69974447D01*
X123002000Y-69968060D01*
X122998983Y-69965395D01*
X122966830Y-69936999D01*
X122958708Y-69933186D01*
X122955907Y-69931346D01*
X122941912Y-69922937D01*
X122938949Y-69921315D01*
X122931764Y-69915930D01*
X122923354Y-69912777D01*
X122923352Y-69912776D01*
X122887818Y-69899454D01*
X122878502Y-69895529D01*
X122836018Y-69875583D01*
X122827144Y-69874201D01*
X122823917Y-69873215D01*
X122808134Y-69869075D01*
X122804856Y-69868354D01*
X122796448Y-69865202D01*
X122782691Y-69864180D01*
X122749643Y-69861724D01*
X122739596Y-69860570D01*
X122731114Y-69859249D01*
X122731111Y-69859249D01*
X122726303Y-69858500D01*
X122710938Y-69858500D01*
X122701601Y-69858154D01*
X122685519Y-69856959D01*
X122652333Y-69854493D01*
X122643558Y-69856366D01*
X122634862Y-69856959D01*
X122620262Y-69858500D01*
X122149993Y-69858500D01*
X122092790Y-69844767D01*
X122059889Y-69828003D01*
X122059888Y-69828003D01*
X122051055Y-69823502D01*
X121956334Y-69808500D01*
X120867666Y-69808500D01*
X120772945Y-69823502D01*
X120658777Y-69881674D01*
X120568174Y-69972277D01*
X120526299Y-70054462D01*
X120523081Y-70060777D01*
X120474333Y-70112392D01*
X120405418Y-70129458D01*
X120338216Y-70106557D01*
X120321719Y-70092669D01*
X120283515Y-70054465D01*
X120283511Y-70054462D01*
X120260723Y-70031674D01*
X120240844Y-70021545D01*
X120223989Y-70011216D01*
X120213953Y-70003925D01*
X120205929Y-69998095D01*
X120184704Y-69991199D01*
X120166438Y-69983633D01*
X120146555Y-69973502D01*
X120124513Y-69970011D01*
X120105287Y-69965395D01*
X120093500Y-69961565D01*
X120093498Y-69961565D01*
X120084066Y-69958500D01*
X120019239Y-69958500D01*
X119951118Y-69938498D01*
X119930144Y-69921595D01*
X119890223Y-69881674D01*
X119776055Y-69823502D01*
X119681334Y-69808500D01*
X118592666Y-69808500D01*
X118497945Y-69823502D01*
X118489112Y-69828003D01*
X118489111Y-69828003D01*
X118456210Y-69844767D01*
X118399007Y-69858500D01*
X117717920Y-69858500D01*
X117649799Y-69838498D01*
X117610470Y-69796302D01*
X117610071Y-69795236D01*
X117523404Y-69679596D01*
X117502977Y-69664287D01*
X117414946Y-69598311D01*
X117414943Y-69598309D01*
X117407764Y-69592929D01*
X117318046Y-69559296D01*
X117279843Y-69544974D01*
X117279841Y-69544974D01*
X117272448Y-69542202D01*
X117264598Y-69541349D01*
X117264597Y-69541349D01*
X117214153Y-69535869D01*
X117214152Y-69535869D01*
X117210756Y-69535500D01*
X116215244Y-69535500D01*
X116211848Y-69535869D01*
X116211847Y-69535869D01*
X116161403Y-69541349D01*
X116161402Y-69541349D01*
X116153552Y-69542202D01*
X116146159Y-69544974D01*
X116146157Y-69544974D01*
X116107954Y-69559296D01*
X116018236Y-69592929D01*
X116011057Y-69598309D01*
X116011054Y-69598311D01*
X115923023Y-69664287D01*
X115902596Y-69679596D01*
X115897215Y-69686776D01*
X115821311Y-69788054D01*
X115821309Y-69788057D01*
X115815929Y-69795236D01*
X115792213Y-69858500D01*
X115768057Y-69922937D01*
X115765202Y-69930552D01*
X115764349Y-69938402D01*
X115764349Y-69938403D01*
X115760047Y-69978003D01*
X115758500Y-69992244D01*
X115758500Y-70787756D01*
X115758869Y-70791152D01*
X115758869Y-70791153D01*
X115760775Y-70808693D01*
X115765202Y-70849448D01*
X115767974Y-70856841D01*
X115767974Y-70856843D01*
X115776583Y-70879807D01*
X115815929Y-70984764D01*
X115821309Y-70991943D01*
X115821311Y-70991946D01*
X115873216Y-71061202D01*
X115902596Y-71100404D01*
X115909776Y-71105785D01*
X116011054Y-71181689D01*
X116011057Y-71181691D01*
X116018236Y-71187071D01*
X116107954Y-71220704D01*
X116146157Y-71235026D01*
X116146159Y-71235026D01*
X116153552Y-71237798D01*
X116161402Y-71238651D01*
X116161403Y-71238651D01*
X116211847Y-71244131D01*
X116215244Y-71244500D01*
X116840839Y-71244500D01*
X116908960Y-71264502D01*
X116955453Y-71318158D01*
X116965557Y-71388432D01*
X116936063Y-71453012D01*
X116929934Y-71459595D01*
X116890934Y-71498595D01*
X116828622Y-71532621D01*
X116801839Y-71535500D01*
X116215244Y-71535500D01*
X116211848Y-71535869D01*
X116211847Y-71535869D01*
X116161403Y-71541349D01*
X116161402Y-71541349D01*
X116153552Y-71542202D01*
X116146159Y-71544974D01*
X116146157Y-71544974D01*
X116107954Y-71559296D01*
X116018236Y-71592929D01*
X116011057Y-71598309D01*
X116011054Y-71598311D01*
X115941887Y-71650149D01*
X115902596Y-71679596D01*
X115887367Y-71699916D01*
X115821311Y-71788054D01*
X115821309Y-71788057D01*
X115815929Y-71795236D01*
X115812779Y-71803638D01*
X115812777Y-71803642D01*
X115812744Y-71803731D01*
X115812687Y-71803806D01*
X115808467Y-71811515D01*
X115807354Y-71810906D01*
X115770102Y-71860495D01*
X115703540Y-71885194D01*
X115694763Y-71885500D01*
X115640624Y-71885500D01*
X115628619Y-71884159D01*
X115628579Y-71884655D01*
X115619632Y-71883935D01*
X115610876Y-71881954D01*
X115567338Y-71884655D01*
X115557618Y-71885258D01*
X115549816Y-71885500D01*
X115533774Y-71885500D01*
X115529343Y-71886135D01*
X115529338Y-71886135D01*
X115525313Y-71886712D01*
X115523543Y-71886965D01*
X115513486Y-71887996D01*
X115491024Y-71889389D01*
X115475600Y-71890346D01*
X115475598Y-71890346D01*
X115466641Y-71890902D01*
X115458201Y-71893949D01*
X115454911Y-71894630D01*
X115439062Y-71898582D01*
X115435832Y-71899527D01*
X115426948Y-71900799D01*
X115414990Y-71906236D01*
X115384222Y-71920225D01*
X115374860Y-71924036D01*
X115339158Y-71936925D01*
X115339157Y-71936926D01*
X115330716Y-71939973D01*
X115323467Y-71945269D01*
X115320486Y-71946854D01*
X115306408Y-71955080D01*
X115303569Y-71956896D01*
X115295395Y-71960612D01*
X115285051Y-71969525D01*
X115259848Y-71991242D01*
X115251930Y-71997530D01*
X115241056Y-72005473D01*
X115230194Y-72016335D01*
X115223348Y-72022693D01*
X115185918Y-72054944D01*
X115181034Y-72062479D01*
X115175301Y-72069051D01*
X115166074Y-72080455D01*
X115009206Y-72237323D01*
X114999766Y-72244865D01*
X115000089Y-72245245D01*
X114993253Y-72251063D01*
X114985661Y-72255853D01*
X114979719Y-72262581D01*
X114950329Y-72295859D01*
X114944983Y-72301546D01*
X114933649Y-72312880D01*
X114930964Y-72316463D01*
X114930962Y-72316465D01*
X114927447Y-72321155D01*
X114921062Y-72328998D01*
X114889999Y-72364170D01*
X114886186Y-72372292D01*
X114884346Y-72375093D01*
X114875937Y-72389088D01*
X114874315Y-72392051D01*
X114868930Y-72399236D01*
X114865777Y-72407646D01*
X114865776Y-72407648D01*
X114852454Y-72443182D01*
X114848530Y-72452495D01*
X114828583Y-72494982D01*
X114827201Y-72503856D01*
X114826215Y-72507083D01*
X114822075Y-72522866D01*
X114821354Y-72526144D01*
X114818202Y-72534552D01*
X114817537Y-72543503D01*
X114814724Y-72581357D01*
X114813570Y-72591404D01*
X114811500Y-72604697D01*
X114811500Y-72620062D01*
X114811154Y-72629399D01*
X114810812Y-72634006D01*
X114807493Y-72678667D01*
X114809366Y-72687442D01*
X114809959Y-72696138D01*
X114811500Y-72710738D01*
X114811500Y-76002376D01*
X114810159Y-76014381D01*
X114810655Y-76014421D01*
X114809935Y-76023368D01*
X114807954Y-76032124D01*
X114808510Y-76041084D01*
X114811258Y-76085382D01*
X114811500Y-76093184D01*
X114811500Y-76109226D01*
X114812135Y-76113657D01*
X114812135Y-76113662D01*
X114812965Y-76119453D01*
X114813996Y-76129514D01*
X114816902Y-76176359D01*
X114819949Y-76184799D01*
X114820630Y-76188089D01*
X114824582Y-76203938D01*
X114825527Y-76207168D01*
X114826799Y-76216052D01*
X114830514Y-76224223D01*
X114846218Y-76258763D01*
X114850030Y-76268128D01*
X114862922Y-76303837D01*
X114862924Y-76303840D01*
X114865972Y-76312284D01*
X114871268Y-76319533D01*
X114872840Y-76322490D01*
X114881093Y-76336614D01*
X114882898Y-76339437D01*
X114886612Y-76347605D01*
X114892469Y-76354402D01*
X114892470Y-76354404D01*
X114917243Y-76383153D01*
X114923525Y-76391064D01*
X114931473Y-76401944D01*
X114942335Y-76412806D01*
X114948693Y-76419652D01*
X114980944Y-76457082D01*
X114988479Y-76461966D01*
X114995051Y-76467699D01*
X115006455Y-76476926D01*
X115028595Y-76499066D01*
X115062621Y-76561378D01*
X115065500Y-76588161D01*
X115065500Y-81525398D01*
X115065498Y-81526166D01*
X115065028Y-81603173D01*
X115065410Y-81604508D01*
X115065500Y-81605836D01*
X115065500Y-84765376D01*
X115064159Y-84777381D01*
X115064655Y-84777421D01*
X115063935Y-84786368D01*
X115061954Y-84795124D01*
X115064680Y-84839071D01*
X115065258Y-84848382D01*
X115065500Y-84856184D01*
X115065500Y-84872226D01*
X115066135Y-84876657D01*
X115066135Y-84876662D01*
X115066965Y-84882453D01*
X115067996Y-84892514D01*
X115070902Y-84939359D01*
X115073949Y-84947799D01*
X115074630Y-84951089D01*
X115078582Y-84966938D01*
X115079527Y-84970168D01*
X115080799Y-84979052D01*
X115084514Y-84987223D01*
X115100218Y-85021763D01*
X115104030Y-85031128D01*
X115116922Y-85066837D01*
X115116924Y-85066840D01*
X115119972Y-85075284D01*
X115125268Y-85082533D01*
X115126840Y-85085490D01*
X115135093Y-85099614D01*
X115136898Y-85102437D01*
X115140612Y-85110605D01*
X115146469Y-85117402D01*
X115146470Y-85117404D01*
X115171243Y-85146153D01*
X115177525Y-85154064D01*
X115185473Y-85164944D01*
X115196335Y-85175806D01*
X115202693Y-85182652D01*
X115234944Y-85220082D01*
X115242479Y-85224966D01*
X115249051Y-85230699D01*
X115260455Y-85239926D01*
X116750592Y-86730063D01*
X116784618Y-86792375D01*
X116781830Y-86856522D01*
X116771007Y-86891378D01*
X116747148Y-87092964D01*
X116760424Y-87295522D01*
X116761845Y-87301118D01*
X116761846Y-87301123D01*
X116793738Y-87426695D01*
X116810392Y-87492269D01*
X116812809Y-87497512D01*
X116840476Y-87557527D01*
X116895377Y-87676616D01*
X116911856Y-87699933D01*
X116972978Y-87786419D01*
X117012533Y-87842389D01*
X117016675Y-87846424D01*
X117071959Y-87900279D01*
X117157938Y-87984035D01*
X117326720Y-88096812D01*
X117332023Y-88099090D01*
X117332026Y-88099092D01*
X117420707Y-88137192D01*
X117513228Y-88176942D01*
X117586244Y-88193464D01*
X117705579Y-88220467D01*
X117705584Y-88220468D01*
X117711216Y-88221742D01*
X117716987Y-88221969D01*
X117716989Y-88221969D01*
X117776756Y-88224317D01*
X117914053Y-88229712D01*
X118014499Y-88215148D01*
X118109231Y-88201413D01*
X118109236Y-88201412D01*
X118114945Y-88200584D01*
X118120409Y-88198729D01*
X118120414Y-88198728D01*
X118301693Y-88137192D01*
X118301698Y-88137190D01*
X118307165Y-88135334D01*
X118356947Y-88107455D01*
X118468212Y-88045143D01*
X118484276Y-88036147D01*
X118546934Y-87984035D01*
X118635913Y-87910031D01*
X118640345Y-87906345D01*
X118770147Y-87750276D01*
X118785979Y-87722006D01*
X118836713Y-87672346D01*
X118906245Y-87657997D01*
X118972496Y-87683518D01*
X118985007Y-87694478D01*
X120560592Y-89270063D01*
X120594618Y-89332375D01*
X120591830Y-89396522D01*
X120581007Y-89431378D01*
X120557148Y-89632964D01*
X120570424Y-89835522D01*
X120571845Y-89841118D01*
X120571846Y-89841123D01*
X120592119Y-89920945D01*
X120620392Y-90032269D01*
X120622809Y-90037512D01*
X120660010Y-90118208D01*
X120705377Y-90216616D01*
X120822533Y-90382389D01*
X120967938Y-90524035D01*
X121136720Y-90636812D01*
X121142023Y-90639090D01*
X121142026Y-90639092D01*
X121230707Y-90677192D01*
X121323228Y-90716942D01*
X121396244Y-90733464D01*
X121515579Y-90760467D01*
X121515584Y-90760468D01*
X121521216Y-90761742D01*
X121526987Y-90761969D01*
X121526989Y-90761969D01*
X121586756Y-90764317D01*
X121724053Y-90769712D01*
X121824499Y-90755148D01*
X121919231Y-90741413D01*
X121919236Y-90741412D01*
X121924945Y-90740584D01*
X121930409Y-90738729D01*
X121930414Y-90738728D01*
X122111693Y-90677192D01*
X122111698Y-90677190D01*
X122117165Y-90675334D01*
X122294276Y-90576147D01*
X122356934Y-90524035D01*
X122445913Y-90450031D01*
X122450345Y-90446345D01*
X122580147Y-90290276D01*
X122679334Y-90113165D01*
X122681190Y-90107698D01*
X122681192Y-90107693D01*
X122742728Y-89926414D01*
X122742729Y-89926409D01*
X122744584Y-89920945D01*
X122745412Y-89915236D01*
X122745413Y-89915231D01*
X122773179Y-89723727D01*
X122773712Y-89720053D01*
X122775232Y-89662000D01*
X122756658Y-89459859D01*
X122755090Y-89454299D01*
X122703125Y-89270046D01*
X122703124Y-89270044D01*
X122701557Y-89264487D01*
X122656281Y-89172676D01*
X122644091Y-89102734D01*
X122671650Y-89037304D01*
X122730208Y-88997161D01*
X122801174Y-88995050D01*
X122858382Y-89027853D01*
X123100592Y-89270063D01*
X123134618Y-89332375D01*
X123131830Y-89396522D01*
X123121007Y-89431378D01*
X123097148Y-89632964D01*
X123110424Y-89835522D01*
X123111845Y-89841118D01*
X123111846Y-89841123D01*
X123132119Y-89920945D01*
X123160392Y-90032269D01*
X123162809Y-90037512D01*
X123200010Y-90118208D01*
X123245377Y-90216616D01*
X123362533Y-90382389D01*
X123507938Y-90524035D01*
X123676720Y-90636812D01*
X123682023Y-90639090D01*
X123682026Y-90639092D01*
X123770707Y-90677192D01*
X123863228Y-90716942D01*
X123936244Y-90733464D01*
X124055579Y-90760467D01*
X124055584Y-90760468D01*
X124061216Y-90761742D01*
X124066987Y-90761969D01*
X124066989Y-90761969D01*
X124126756Y-90764317D01*
X124264053Y-90769712D01*
X124364499Y-90755148D01*
X124459231Y-90741413D01*
X124459236Y-90741412D01*
X124464945Y-90740584D01*
X124470409Y-90738729D01*
X124470414Y-90738728D01*
X124651693Y-90677192D01*
X124651698Y-90677190D01*
X124657165Y-90675334D01*
X124834276Y-90576147D01*
X124896934Y-90524035D01*
X124985913Y-90450031D01*
X124990345Y-90446345D01*
X125120147Y-90290276D01*
X125219334Y-90113165D01*
X125221190Y-90107698D01*
X125221192Y-90107693D01*
X125282728Y-89926414D01*
X125282729Y-89926409D01*
X125284584Y-89920945D01*
X125285412Y-89915236D01*
X125285413Y-89915231D01*
X125313179Y-89723727D01*
X125313712Y-89720053D01*
X125315232Y-89662000D01*
X125296658Y-89459859D01*
X125295090Y-89454299D01*
X125243125Y-89270046D01*
X125243124Y-89270044D01*
X125241557Y-89264487D01*
X125151776Y-89082428D01*
X125030320Y-88919779D01*
X124881258Y-88781987D01*
X124876375Y-88778906D01*
X124876371Y-88778903D01*
X124714464Y-88676748D01*
X124709581Y-88673667D01*
X124521039Y-88598446D01*
X124515379Y-88597320D01*
X124515375Y-88597319D01*
X124327613Y-88559971D01*
X124327610Y-88559971D01*
X124321946Y-88558844D01*
X124316171Y-88558768D01*
X124316167Y-88558768D01*
X124214793Y-88557441D01*
X124118971Y-88556187D01*
X124113274Y-88557166D01*
X124113273Y-88557166D01*
X123922727Y-88589908D01*
X123852203Y-88581731D01*
X123812294Y-88554823D01*
X123364926Y-88107455D01*
X123330900Y-88045143D01*
X123335965Y-87974328D01*
X123378512Y-87917492D01*
X123425891Y-87895540D01*
X123532929Y-87871025D01*
X123532933Y-87871024D01*
X123540332Y-87869329D01*
X123610742Y-87833917D01*
X123675072Y-87801563D01*
X123675075Y-87801561D01*
X123681855Y-87798151D01*
X123687626Y-87793222D01*
X123687629Y-87793220D01*
X123796537Y-87700203D01*
X123802314Y-87695269D01*
X123803855Y-87693125D01*
X123862875Y-87657610D01*
X123894793Y-87653500D01*
X124016066Y-87653500D01*
X124025498Y-87650435D01*
X124025500Y-87650435D01*
X124037287Y-87646605D01*
X124056513Y-87641989D01*
X124068762Y-87640049D01*
X124078555Y-87638498D01*
X124098439Y-87628366D01*
X124116705Y-87620801D01*
X124128496Y-87616970D01*
X124137929Y-87613905D01*
X124155989Y-87600784D01*
X124172846Y-87590454D01*
X124192723Y-87580326D01*
X124215511Y-87557538D01*
X124215515Y-87557535D01*
X124292200Y-87480850D01*
X124354512Y-87446824D01*
X124425327Y-87451889D01*
X124482163Y-87494436D01*
X124499621Y-87526644D01*
X124507553Y-87548319D01*
X124511789Y-87554622D01*
X124511789Y-87554623D01*
X124590241Y-87671371D01*
X124595908Y-87679805D01*
X124601527Y-87684918D01*
X124601528Y-87684919D01*
X124618325Y-87700203D01*
X124713076Y-87786419D01*
X124852293Y-87862008D01*
X125005522Y-87902207D01*
X125089477Y-87903526D01*
X125156319Y-87904576D01*
X125156322Y-87904576D01*
X125163916Y-87904695D01*
X125318332Y-87869329D01*
X125388742Y-87833917D01*
X125453072Y-87801563D01*
X125453075Y-87801561D01*
X125459855Y-87798151D01*
X125465626Y-87793222D01*
X125465629Y-87793220D01*
X125574536Y-87700204D01*
X125574536Y-87700203D01*
X125580314Y-87695269D01*
X125581068Y-87696152D01*
X125635617Y-87663327D01*
X125706583Y-87665420D01*
X125752335Y-87692023D01*
X125810815Y-87745235D01*
X125856076Y-87786419D01*
X125995293Y-87862008D01*
X126148522Y-87902207D01*
X126232477Y-87903526D01*
X126299319Y-87904576D01*
X126299322Y-87904576D01*
X126306916Y-87904695D01*
X126461332Y-87869329D01*
X126531742Y-87833917D01*
X126596072Y-87801563D01*
X126596075Y-87801561D01*
X126602855Y-87798151D01*
X126608626Y-87793222D01*
X126608629Y-87793220D01*
X126717536Y-87700204D01*
X126717536Y-87700203D01*
X126723314Y-87695269D01*
X126815755Y-87566624D01*
X126874842Y-87419641D01*
X126875913Y-87412114D01*
X126877878Y-87404782D01*
X126880516Y-87405489D01*
X126904592Y-87352572D01*
X126964263Y-87314103D01*
X127035260Y-87314003D01*
X127095040Y-87352302D01*
X127119356Y-87399830D01*
X127120113Y-87399553D01*
X127122027Y-87404782D01*
X127122723Y-87406685D01*
X127137412Y-87446824D01*
X127174553Y-87548319D01*
X127178789Y-87554622D01*
X127178789Y-87554623D01*
X127257241Y-87671371D01*
X127262908Y-87679805D01*
X127268527Y-87684918D01*
X127268528Y-87684919D01*
X127285325Y-87700203D01*
X127380076Y-87786419D01*
X127519293Y-87862008D01*
X127672522Y-87902207D01*
X127756477Y-87903526D01*
X127823319Y-87904576D01*
X127823322Y-87904576D01*
X127830916Y-87904695D01*
X127985332Y-87869329D01*
X128055742Y-87833917D01*
X128120072Y-87801563D01*
X128120075Y-87801561D01*
X128126855Y-87798151D01*
X128132626Y-87793222D01*
X128132629Y-87793220D01*
X128241536Y-87700204D01*
X128241536Y-87700203D01*
X128247314Y-87695269D01*
X128339755Y-87566624D01*
X128398842Y-87419641D01*
X128421162Y-87262807D01*
X128421307Y-87249000D01*
X128420812Y-87244906D01*
X128420811Y-87244895D01*
X128419255Y-87232035D01*
X128430928Y-87162005D01*
X128455247Y-87127803D01*
X128735535Y-86847515D01*
X128735538Y-86847511D01*
X128758326Y-86824723D01*
X128768455Y-86804844D01*
X128778784Y-86787989D01*
X128786075Y-86777953D01*
X128791905Y-86769929D01*
X128798801Y-86748704D01*
X128806367Y-86730438D01*
X128811997Y-86719388D01*
X128816498Y-86710555D01*
X128819989Y-86688513D01*
X128824605Y-86669287D01*
X128828435Y-86657500D01*
X128828435Y-86657498D01*
X128831500Y-86648066D01*
X128831500Y-86420500D01*
X128851502Y-86352379D01*
X128905158Y-86305886D01*
X128957500Y-86294500D01*
X129237968Y-86294500D01*
X129272775Y-86289376D01*
X129302870Y-86284946D01*
X129302872Y-86284945D01*
X129312561Y-86283519D01*
X129346518Y-86266847D01*
X129416482Y-86254779D01*
X129457379Y-86266749D01*
X129492082Y-86283712D01*
X129501761Y-86285124D01*
X129561505Y-86293840D01*
X129561511Y-86293840D01*
X129566032Y-86294500D01*
X129887968Y-86294500D01*
X129922775Y-86289376D01*
X129952870Y-86284946D01*
X129952872Y-86284945D01*
X129962561Y-86283519D01*
X130047152Y-86241987D01*
X130066622Y-86232428D01*
X130066624Y-86232427D01*
X130075970Y-86227838D01*
X130165229Y-86138424D01*
X130220712Y-86024918D01*
X130222185Y-86014823D01*
X130230840Y-85955495D01*
X130230840Y-85955489D01*
X130231500Y-85950968D01*
X130231500Y-84229032D01*
X130220519Y-84154439D01*
X130164838Y-84041030D01*
X130157468Y-84033673D01*
X130155049Y-84030294D01*
X130131500Y-83956947D01*
X130131500Y-83598740D01*
X130151502Y-83530619D01*
X130168405Y-83509645D01*
X130864535Y-82813515D01*
X130864538Y-82813511D01*
X130887326Y-82790723D01*
X130897455Y-82770844D01*
X130907784Y-82753989D01*
X130915075Y-82743953D01*
X130920905Y-82735929D01*
X130927801Y-82714704D01*
X130935367Y-82696438D01*
X130937497Y-82692257D01*
X130945498Y-82676555D01*
X130948989Y-82654513D01*
X130953605Y-82635287D01*
X130957435Y-82623500D01*
X130957435Y-82623498D01*
X130960500Y-82614066D01*
X130960500Y-80703512D01*
X130980502Y-80635391D01*
X131034158Y-80588898D01*
X131104432Y-80578794D01*
X131146622Y-80592781D01*
X131202293Y-80623008D01*
X131355522Y-80663207D01*
X131439477Y-80664526D01*
X131506319Y-80665576D01*
X131506322Y-80665576D01*
X131513916Y-80665695D01*
X131668332Y-80630329D01*
X131758782Y-80584838D01*
X131803072Y-80562563D01*
X131803075Y-80562561D01*
X131809855Y-80559151D01*
X131873261Y-80504997D01*
X131938048Y-80475967D01*
X132008248Y-80486572D01*
X132061571Y-80533446D01*
X132080760Y-80600563D01*
X132079954Y-80604124D01*
X132080510Y-80613086D01*
X132083258Y-80657382D01*
X132083500Y-80665184D01*
X132083500Y-80681226D01*
X132084135Y-80685657D01*
X132084135Y-80685662D01*
X132084965Y-80691453D01*
X132085996Y-80701514D01*
X132088902Y-80748359D01*
X132091949Y-80756799D01*
X132092630Y-80760089D01*
X132096582Y-80775938D01*
X132097527Y-80779168D01*
X132098799Y-80788052D01*
X132102514Y-80796223D01*
X132118218Y-80830763D01*
X132122030Y-80840128D01*
X132134922Y-80875837D01*
X132134924Y-80875840D01*
X132137972Y-80884284D01*
X132143268Y-80891533D01*
X132144840Y-80894490D01*
X132153093Y-80908614D01*
X132154898Y-80911437D01*
X132158612Y-80919605D01*
X132164469Y-80926402D01*
X132164470Y-80926404D01*
X132189243Y-80955153D01*
X132195525Y-80963064D01*
X132203473Y-80973944D01*
X132214335Y-80984806D01*
X132220693Y-80991652D01*
X132252944Y-81029082D01*
X132260479Y-81033966D01*
X132267051Y-81039699D01*
X132278455Y-81048926D01*
X133070323Y-81840794D01*
X133077865Y-81850234D01*
X133078245Y-81849911D01*
X133084063Y-81856747D01*
X133088853Y-81864339D01*
X133095581Y-81870281D01*
X133128859Y-81899671D01*
X133134546Y-81905017D01*
X133145880Y-81916351D01*
X133149463Y-81919036D01*
X133149465Y-81919038D01*
X133154155Y-81922553D01*
X133161998Y-81928938D01*
X133197170Y-81960001D01*
X133205292Y-81963814D01*
X133208093Y-81965654D01*
X133222088Y-81974063D01*
X133225051Y-81975685D01*
X133232236Y-81981070D01*
X133240646Y-81984223D01*
X133240648Y-81984224D01*
X133276182Y-81997546D01*
X133285495Y-82001470D01*
X133327982Y-82021417D01*
X133336856Y-82022799D01*
X133340083Y-82023785D01*
X133355866Y-82027925D01*
X133359144Y-82028646D01*
X133367552Y-82031798D01*
X133381309Y-82032820D01*
X133414357Y-82035276D01*
X133424404Y-82036430D01*
X133432886Y-82037751D01*
X133432889Y-82037751D01*
X133437697Y-82038500D01*
X133453062Y-82038500D01*
X133462400Y-82038846D01*
X133511667Y-82042507D01*
X133520442Y-82040634D01*
X133529138Y-82040041D01*
X133543738Y-82038500D01*
X133867984Y-82038500D01*
X133936105Y-82058502D01*
X133976012Y-82101317D01*
X133976929Y-82103764D01*
X134063596Y-82219404D01*
X134070776Y-82224785D01*
X134172054Y-82300689D01*
X134172057Y-82300691D01*
X134179236Y-82306071D01*
X134311862Y-82355789D01*
X134368626Y-82398430D01*
X134384474Y-82430200D01*
X134384799Y-82430052D01*
X134404218Y-82472763D01*
X134408030Y-82482128D01*
X134420922Y-82517837D01*
X134420924Y-82517840D01*
X134423972Y-82526284D01*
X134429268Y-82533533D01*
X134430840Y-82536490D01*
X134439093Y-82550614D01*
X134440898Y-82553437D01*
X134444612Y-82561605D01*
X134450469Y-82568402D01*
X134450470Y-82568404D01*
X134475243Y-82597153D01*
X134481525Y-82605064D01*
X134489473Y-82615944D01*
X134500334Y-82626805D01*
X134506692Y-82633652D01*
X134533083Y-82664281D01*
X134533086Y-82664284D01*
X134538944Y-82671082D01*
X134546480Y-82675966D01*
X134553056Y-82681702D01*
X134564458Y-82690928D01*
X135036322Y-83162792D01*
X135043867Y-83172235D01*
X135044246Y-83171912D01*
X135050062Y-83178745D01*
X135054853Y-83186339D01*
X135061583Y-83192283D01*
X135061585Y-83192285D01*
X135094866Y-83221678D01*
X135100554Y-83227024D01*
X135111881Y-83238351D01*
X135115464Y-83241036D01*
X135115466Y-83241038D01*
X135120152Y-83244550D01*
X135127995Y-83250935D01*
X135163170Y-83282001D01*
X135171297Y-83285816D01*
X135174117Y-83287669D01*
X135188094Y-83296067D01*
X135191051Y-83297686D01*
X135198236Y-83303071D01*
X135206646Y-83306224D01*
X135206648Y-83306225D01*
X135242193Y-83319551D01*
X135251506Y-83323475D01*
X135293982Y-83343417D01*
X135302854Y-83344798D01*
X135306084Y-83345786D01*
X135321855Y-83349924D01*
X135325144Y-83350647D01*
X135333552Y-83353799D01*
X135369497Y-83356470D01*
X135380359Y-83357277D01*
X135390407Y-83358431D01*
X135398880Y-83359750D01*
X135398881Y-83359750D01*
X135403697Y-83360500D01*
X135419049Y-83360500D01*
X135428386Y-83360846D01*
X135477667Y-83364508D01*
X135486444Y-83362634D01*
X135495133Y-83362042D01*
X135509742Y-83360500D01*
X136994145Y-83360500D01*
X137062266Y-83380502D01*
X137108759Y-83434158D01*
X137118863Y-83504432D01*
X137112127Y-83530728D01*
X137095472Y-83575157D01*
X137086702Y-83598552D01*
X137085849Y-83606402D01*
X137085849Y-83606403D01*
X137082107Y-83640847D01*
X137080000Y-83660244D01*
X137080000Y-84705756D01*
X137086702Y-84767448D01*
X137089474Y-84774841D01*
X137089474Y-84774843D01*
X137091202Y-84779453D01*
X137137429Y-84902764D01*
X137142809Y-84909943D01*
X137142811Y-84909946D01*
X137208598Y-84997725D01*
X137224096Y-85018404D01*
X137231276Y-85023785D01*
X137332554Y-85099689D01*
X137332557Y-85099691D01*
X137339736Y-85105071D01*
X137429454Y-85138704D01*
X137467657Y-85153026D01*
X137467659Y-85153026D01*
X137475052Y-85155798D01*
X137482902Y-85156651D01*
X137482903Y-85156651D01*
X137523093Y-85161017D01*
X137536744Y-85162500D01*
X138307256Y-85162500D01*
X138320907Y-85161017D01*
X138361097Y-85156651D01*
X138361098Y-85156651D01*
X138368948Y-85155798D01*
X138376341Y-85153026D01*
X138376343Y-85153026D01*
X138414546Y-85138704D01*
X138504264Y-85105071D01*
X138511443Y-85099691D01*
X138511446Y-85099689D01*
X138612724Y-85023785D01*
X138619904Y-85018404D01*
X138635402Y-84997725D01*
X138701189Y-84909946D01*
X138701191Y-84909943D01*
X138706571Y-84902764D01*
X138752798Y-84779453D01*
X138754526Y-84774843D01*
X138754526Y-84774841D01*
X138757298Y-84767448D01*
X138764000Y-84705756D01*
X138764000Y-83660244D01*
X138761893Y-83640847D01*
X138758151Y-83606403D01*
X138758151Y-83606402D01*
X138757298Y-83598552D01*
X138730062Y-83525899D01*
X138724879Y-83455092D01*
X138758800Y-83392723D01*
X138821056Y-83358594D01*
X138840239Y-83355912D01*
X138844400Y-83355654D01*
X138844402Y-83355654D01*
X138853359Y-83355098D01*
X138861799Y-83352051D01*
X138865089Y-83351370D01*
X138880938Y-83347418D01*
X138884168Y-83346473D01*
X138893052Y-83345201D01*
X138922975Y-83331596D01*
X138935763Y-83325782D01*
X138945128Y-83321970D01*
X138980837Y-83309078D01*
X138980840Y-83309076D01*
X138989284Y-83306028D01*
X138996533Y-83300732D01*
X138999490Y-83299160D01*
X139013614Y-83290907D01*
X139016437Y-83289102D01*
X139024605Y-83285388D01*
X139031402Y-83279531D01*
X139031404Y-83279530D01*
X139060153Y-83254757D01*
X139068064Y-83248475D01*
X139078944Y-83240527D01*
X139089806Y-83229665D01*
X139096653Y-83223307D01*
X139127282Y-83196915D01*
X139134082Y-83191056D01*
X139138966Y-83183521D01*
X139144699Y-83176949D01*
X139153926Y-83165545D01*
X139239794Y-83079677D01*
X139249234Y-83072135D01*
X139248911Y-83071755D01*
X139255747Y-83065937D01*
X139263339Y-83061147D01*
X139298672Y-83021140D01*
X139304017Y-83015454D01*
X139315351Y-83004120D01*
X139321553Y-82995845D01*
X139327940Y-82988000D01*
X139353060Y-82959557D01*
X139359001Y-82952830D01*
X139362814Y-82944708D01*
X139364654Y-82941907D01*
X139373063Y-82927912D01*
X139374685Y-82924949D01*
X139380070Y-82917764D01*
X139388042Y-82896500D01*
X139396546Y-82873818D01*
X139400471Y-82864502D01*
X139410932Y-82842221D01*
X139420417Y-82822018D01*
X139421799Y-82813144D01*
X139422785Y-82809917D01*
X139426925Y-82794134D01*
X139427646Y-82790856D01*
X139430798Y-82782448D01*
X139432317Y-82762009D01*
X139434276Y-82735643D01*
X139435430Y-82725596D01*
X139436751Y-82717114D01*
X139436751Y-82717111D01*
X139437500Y-82712303D01*
X139437500Y-82696938D01*
X139437846Y-82687601D01*
X139440842Y-82647281D01*
X139441507Y-82638333D01*
X139439634Y-82629558D01*
X139439041Y-82620862D01*
X139437500Y-82606262D01*
X139437500Y-82242993D01*
X139451233Y-82185790D01*
X139467997Y-82152889D01*
X139467997Y-82152888D01*
X139472498Y-82144055D01*
X139487500Y-82049334D01*
X139487500Y-80960666D01*
X139472498Y-80865945D01*
X139414326Y-80751777D01*
X139323723Y-80661174D01*
X139209555Y-80603002D01*
X139114834Y-80588000D01*
X138751166Y-80588000D01*
X138656445Y-80603002D01*
X138609512Y-80626916D01*
X138551110Y-80656673D01*
X138551109Y-80656674D01*
X138542277Y-80661174D01*
X138535266Y-80668185D01*
X138532062Y-80670513D01*
X138465195Y-80694372D01*
X138396043Y-80678293D01*
X138383938Y-80670513D01*
X138380734Y-80668185D01*
X138373723Y-80661174D01*
X138364891Y-80656674D01*
X138364890Y-80656673D01*
X138306488Y-80626916D01*
X138259555Y-80603002D01*
X138164834Y-80588000D01*
X137801166Y-80588000D01*
X137706445Y-80603002D01*
X137659512Y-80626916D01*
X137601110Y-80656673D01*
X137601109Y-80656674D01*
X137592277Y-80661174D01*
X137585266Y-80668185D01*
X137582062Y-80670513D01*
X137515195Y-80694372D01*
X137446043Y-80678293D01*
X137433938Y-80670513D01*
X137430734Y-80668185D01*
X137423723Y-80661174D01*
X137414891Y-80656674D01*
X137414890Y-80656673D01*
X137356488Y-80626916D01*
X137309555Y-80603002D01*
X137214834Y-80588000D01*
X136851166Y-80588000D01*
X136756445Y-80603002D01*
X136642277Y-80661174D01*
X136551674Y-80751777D01*
X136493502Y-80865945D01*
X136478500Y-80960666D01*
X136478500Y-82049334D01*
X136493502Y-82144055D01*
X136498003Y-82152888D01*
X136498003Y-82152889D01*
X136505854Y-82168297D01*
X136518958Y-82238074D01*
X136492258Y-82303858D01*
X136434231Y-82344765D01*
X136393587Y-82351500D01*
X135837294Y-82351500D01*
X135769173Y-82331498D01*
X135722680Y-82277842D01*
X135712576Y-82207568D01*
X135736468Y-82149935D01*
X135765688Y-82110946D01*
X135765689Y-82110945D01*
X135771071Y-82103764D01*
X135815884Y-81984224D01*
X135819026Y-81975843D01*
X135819026Y-81975841D01*
X135821798Y-81968448D01*
X135826455Y-81925585D01*
X135828131Y-81910153D01*
X135828131Y-81910152D01*
X135828500Y-81906756D01*
X135828500Y-81161244D01*
X135824244Y-81122070D01*
X135822651Y-81107403D01*
X135822651Y-81107402D01*
X135821798Y-81099552D01*
X135771071Y-80964236D01*
X135765691Y-80957057D01*
X135765689Y-80957054D01*
X135689785Y-80855776D01*
X135684404Y-80848596D01*
X135660609Y-80830763D01*
X135575946Y-80767311D01*
X135575943Y-80767309D01*
X135568764Y-80761929D01*
X135474112Y-80726446D01*
X135440843Y-80713974D01*
X135440841Y-80713974D01*
X135433448Y-80711202D01*
X135425598Y-80710349D01*
X135425597Y-80710349D01*
X135375153Y-80704869D01*
X135375152Y-80704869D01*
X135371756Y-80704500D01*
X134376244Y-80704500D01*
X134372848Y-80704869D01*
X134372847Y-80704869D01*
X134322403Y-80710349D01*
X134322402Y-80710349D01*
X134314552Y-80711202D01*
X134307159Y-80713974D01*
X134307157Y-80713974D01*
X134273888Y-80726446D01*
X134179236Y-80761929D01*
X134172057Y-80767309D01*
X134172054Y-80767311D01*
X134087391Y-80830763D01*
X134063596Y-80848596D01*
X133976929Y-80964236D01*
X133976124Y-80966384D01*
X133928244Y-81014156D01*
X133867984Y-81029500D01*
X133738161Y-81029500D01*
X133670040Y-81009498D01*
X133649066Y-80992595D01*
X133129405Y-80472934D01*
X133095379Y-80410622D01*
X133092500Y-80383839D01*
X133092500Y-79856756D01*
X133919500Y-79856756D01*
X133926202Y-79918448D01*
X133976929Y-80053764D01*
X133982309Y-80060943D01*
X133982311Y-80060946D01*
X134035562Y-80131998D01*
X134063596Y-80169404D01*
X134070776Y-80174785D01*
X134172054Y-80250689D01*
X134172057Y-80250691D01*
X134179236Y-80256071D01*
X134260735Y-80286623D01*
X134307157Y-80304026D01*
X134307159Y-80304026D01*
X134314552Y-80306798D01*
X134322402Y-80307651D01*
X134322403Y-80307651D01*
X134372847Y-80313131D01*
X134376244Y-80313500D01*
X135371756Y-80313500D01*
X135375153Y-80313131D01*
X135425597Y-80307651D01*
X135425598Y-80307651D01*
X135433448Y-80306798D01*
X135440841Y-80304026D01*
X135440843Y-80304026D01*
X135487265Y-80286623D01*
X135568764Y-80256071D01*
X135575943Y-80250691D01*
X135575946Y-80250689D01*
X135677224Y-80174785D01*
X135684404Y-80169404D01*
X135712438Y-80131998D01*
X135765689Y-80060946D01*
X135765691Y-80060943D01*
X135771071Y-80053764D01*
X135821798Y-79918448D01*
X135828500Y-79856756D01*
X135828500Y-79853635D01*
X135852136Y-79786749D01*
X135908227Y-79743224D01*
X135954297Y-79734500D01*
X136364576Y-79734500D01*
X136432697Y-79754502D01*
X136479190Y-79808158D01*
X136489025Y-79840788D01*
X136490173Y-79848033D01*
X136493502Y-79869055D01*
X136551674Y-79983223D01*
X136642277Y-80073826D01*
X136756445Y-80131998D01*
X136851166Y-80147000D01*
X137214834Y-80147000D01*
X137309555Y-80131998D01*
X137423723Y-80073826D01*
X137514326Y-79983223D01*
X137572498Y-79869055D01*
X137587500Y-79774334D01*
X137587500Y-78685666D01*
X137572498Y-78590945D01*
X137514326Y-78476777D01*
X137423723Y-78386174D01*
X137309555Y-78328002D01*
X137214834Y-78313000D01*
X136851166Y-78313000D01*
X136756445Y-78328002D01*
X136642277Y-78386174D01*
X136551674Y-78476777D01*
X136493502Y-78590945D01*
X136491952Y-78600734D01*
X136491951Y-78600736D01*
X136489025Y-78619212D01*
X136458612Y-78683365D01*
X136398343Y-78720891D01*
X136364576Y-78725500D01*
X135631500Y-78725500D01*
X135563379Y-78705498D01*
X135516886Y-78651842D01*
X135505500Y-78599500D01*
X135505500Y-78145571D01*
X135525502Y-78077450D01*
X135583284Y-78029161D01*
X135588126Y-78027156D01*
X135600301Y-78024734D01*
X135610621Y-78017839D01*
X135610622Y-78017838D01*
X135674168Y-77975377D01*
X135684484Y-77968484D01*
X135740734Y-77884301D01*
X135755500Y-77810067D01*
X135755500Y-77314756D01*
X138178500Y-77314756D01*
X138185202Y-77376448D01*
X138235929Y-77511764D01*
X138241309Y-77518943D01*
X138241311Y-77518946D01*
X138307287Y-77606977D01*
X138322596Y-77627404D01*
X138378065Y-77668975D01*
X138420580Y-77725833D01*
X138428500Y-77769801D01*
X138428500Y-78492007D01*
X138414767Y-78549210D01*
X138393502Y-78590945D01*
X138378500Y-78685666D01*
X138378500Y-79774334D01*
X138393502Y-79869055D01*
X138451674Y-79983223D01*
X138542277Y-80073826D01*
X138656445Y-80131998D01*
X138751166Y-80147000D01*
X139114834Y-80147000D01*
X139209555Y-80131998D01*
X139323723Y-80073826D01*
X139414326Y-79983223D01*
X139472498Y-79869055D01*
X139487500Y-79774334D01*
X139487500Y-78685666D01*
X139472498Y-78590945D01*
X139451233Y-78549210D01*
X139437500Y-78492007D01*
X139437500Y-77872725D01*
X139457502Y-77804604D01*
X139511158Y-77758111D01*
X139519271Y-77754743D01*
X139596388Y-77725833D01*
X139627764Y-77714071D01*
X139634943Y-77708691D01*
X139634946Y-77708689D01*
X139736224Y-77632785D01*
X139736225Y-77632784D01*
X139743404Y-77627404D01*
X139758713Y-77606977D01*
X139824689Y-77518946D01*
X139824691Y-77518943D01*
X139830071Y-77511764D01*
X139880798Y-77376448D01*
X139887500Y-77314756D01*
X139887500Y-76319244D01*
X139880798Y-76257552D01*
X139830071Y-76122236D01*
X139824691Y-76115057D01*
X139824689Y-76115054D01*
X139749268Y-76014421D01*
X139743404Y-76006596D01*
X139687937Y-75965026D01*
X139634951Y-75925315D01*
X139634949Y-75925314D01*
X139627764Y-75919929D01*
X139619354Y-75916776D01*
X139615934Y-75914904D01*
X139565788Y-75864646D01*
X139550773Y-75795255D01*
X139575657Y-75728763D01*
X139627644Y-75689824D01*
X139627485Y-75689533D01*
X139629519Y-75688420D01*
X139632214Y-75686401D01*
X139643764Y-75682071D01*
X139650943Y-75676691D01*
X139650946Y-75676689D01*
X139752224Y-75600785D01*
X139752225Y-75600784D01*
X139759404Y-75595404D01*
X139801302Y-75539500D01*
X139840689Y-75486946D01*
X139840691Y-75486943D01*
X139846071Y-75479764D01*
X139886743Y-75371271D01*
X139894026Y-75351843D01*
X139894026Y-75351841D01*
X139896798Y-75344448D01*
X139901206Y-75303877D01*
X139903131Y-75286153D01*
X139903131Y-75286152D01*
X139903500Y-75282756D01*
X139903500Y-74287244D01*
X139896798Y-74225552D01*
X139846071Y-74090236D01*
X139840691Y-74083057D01*
X139840689Y-74083054D01*
X139765006Y-73982071D01*
X139759404Y-73974596D01*
X139734579Y-73955991D01*
X139650946Y-73893311D01*
X139650943Y-73893309D01*
X139643764Y-73887929D01*
X139521519Y-73842102D01*
X139515843Y-73839974D01*
X139515841Y-73839974D01*
X139508448Y-73837202D01*
X139500598Y-73836349D01*
X139500597Y-73836349D01*
X139450153Y-73830869D01*
X139450152Y-73830869D01*
X139446756Y-73830500D01*
X138651244Y-73830500D01*
X138647848Y-73830869D01*
X138647847Y-73830869D01*
X138597403Y-73836349D01*
X138597402Y-73836349D01*
X138589552Y-73837202D01*
X138582159Y-73839974D01*
X138582157Y-73839974D01*
X138576481Y-73842102D01*
X138454236Y-73887929D01*
X138447057Y-73893309D01*
X138447054Y-73893311D01*
X138363421Y-73955991D01*
X138338596Y-73974596D01*
X138332994Y-73982071D01*
X138257311Y-74083054D01*
X138257309Y-74083057D01*
X138251929Y-74090236D01*
X138201202Y-74225552D01*
X138194500Y-74287244D01*
X138194500Y-75282756D01*
X138194869Y-75286152D01*
X138194869Y-75286153D01*
X138196795Y-75303877D01*
X138201202Y-75344448D01*
X138203974Y-75351841D01*
X138203974Y-75351843D01*
X138211257Y-75371271D01*
X138251929Y-75479764D01*
X138257309Y-75486943D01*
X138257311Y-75486946D01*
X138296698Y-75539500D01*
X138338596Y-75595404D01*
X138378065Y-75624984D01*
X138420580Y-75681842D01*
X138428500Y-75725810D01*
X138428500Y-75864199D01*
X138408498Y-75932320D01*
X138378066Y-75965024D01*
X138322596Y-76006596D01*
X138316732Y-76014421D01*
X138241311Y-76115054D01*
X138241309Y-76115057D01*
X138235929Y-76122236D01*
X138185202Y-76257552D01*
X138178500Y-76319244D01*
X138178500Y-77314756D01*
X135755500Y-77314756D01*
X135755499Y-76759934D01*
X135740734Y-76685699D01*
X135684484Y-76601516D01*
X135600301Y-76545266D01*
X135526067Y-76530500D01*
X135001085Y-76530500D01*
X134475934Y-76530501D01*
X134440182Y-76537612D01*
X134413874Y-76542844D01*
X134413872Y-76542845D01*
X134401699Y-76545266D01*
X134391379Y-76552161D01*
X134391378Y-76552162D01*
X134377586Y-76561378D01*
X134317516Y-76601516D01*
X134261266Y-76685699D01*
X134246500Y-76759933D01*
X134246501Y-77810066D01*
X134261266Y-77884301D01*
X134317516Y-77968484D01*
X134401699Y-78024734D01*
X134413873Y-78027155D01*
X134418719Y-78029163D01*
X134473999Y-78073712D01*
X134496500Y-78145572D01*
X134496500Y-78528811D01*
X134476498Y-78596932D01*
X134422842Y-78643425D01*
X134377832Y-78654500D01*
X134376244Y-78654500D01*
X134372849Y-78654869D01*
X134372846Y-78654869D01*
X134322403Y-78660349D01*
X134322402Y-78660349D01*
X134314552Y-78661202D01*
X134307159Y-78663974D01*
X134307157Y-78663974D01*
X134268954Y-78678296D01*
X134179236Y-78711929D01*
X134172057Y-78717309D01*
X134172054Y-78717311D01*
X134084023Y-78783287D01*
X134063596Y-78798596D01*
X134058215Y-78805776D01*
X133982311Y-78907054D01*
X133982309Y-78907057D01*
X133976929Y-78914236D01*
X133926202Y-79049552D01*
X133919500Y-79111244D01*
X133919500Y-79856756D01*
X133092500Y-79856756D01*
X133092500Y-75136144D01*
X133116176Y-75062620D01*
X133165755Y-74993624D01*
X133224842Y-74846641D01*
X133241200Y-74731698D01*
X133246581Y-74693891D01*
X133246581Y-74693888D01*
X133247162Y-74689807D01*
X133247307Y-74676000D01*
X133228276Y-74518733D01*
X133172280Y-74370546D01*
X133117377Y-74290661D01*
X133086855Y-74246251D01*
X133086854Y-74246249D01*
X133082553Y-74239992D01*
X132964275Y-74134611D01*
X132956889Y-74130700D01*
X132890477Y-74095537D01*
X132824274Y-74060484D01*
X132670633Y-74021892D01*
X132663034Y-74021852D01*
X132663033Y-74021852D01*
X132597181Y-74021507D01*
X132512221Y-74021062D01*
X132504840Y-74022834D01*
X132504832Y-74022835D01*
X132488386Y-74026783D01*
X132417479Y-74023235D01*
X132359746Y-73981914D01*
X132333517Y-73915940D01*
X132347121Y-73846259D01*
X132369878Y-73815172D01*
X133499535Y-72685514D01*
X133522326Y-72662723D01*
X133532456Y-72642842D01*
X133542787Y-72625983D01*
X133550077Y-72615950D01*
X133550078Y-72615948D01*
X133555905Y-72607928D01*
X133558969Y-72598499D01*
X133558971Y-72598494D01*
X133562803Y-72586700D01*
X133570360Y-72568452D01*
X133571371Y-72566467D01*
X133620111Y-72514843D01*
X133689023Y-72497766D01*
X133759211Y-72522824D01*
X133783130Y-72540749D01*
X133798236Y-72552071D01*
X133889799Y-72586396D01*
X133896132Y-72588770D01*
X133952897Y-72631411D01*
X133977598Y-72697972D01*
X133962391Y-72767321D01*
X133954991Y-72779203D01*
X133911950Y-72840444D01*
X133890981Y-72894228D01*
X133858959Y-72976360D01*
X133854406Y-72988037D01*
X133853414Y-72995570D01*
X133853414Y-72995571D01*
X133838248Y-73110772D01*
X133833729Y-73145096D01*
X133841761Y-73217843D01*
X133846377Y-73259653D01*
X133851113Y-73302553D01*
X133853723Y-73309684D01*
X133853723Y-73309686D01*
X133892718Y-73416244D01*
X133905553Y-73451319D01*
X133909789Y-73457622D01*
X133909789Y-73457623D01*
X133976595Y-73557040D01*
X133993908Y-73582805D01*
X133999527Y-73587918D01*
X133999528Y-73587919D01*
X134065461Y-73647913D01*
X134111076Y-73689419D01*
X134250293Y-73765008D01*
X134314158Y-73781763D01*
X134398957Y-73804010D01*
X134459772Y-73840644D01*
X134491127Y-73904342D01*
X134483068Y-73974879D01*
X134438152Y-74029862D01*
X134415198Y-74042296D01*
X134413874Y-74042845D01*
X134401699Y-74045266D01*
X134317516Y-74101516D01*
X134261266Y-74185699D01*
X134246500Y-74259933D01*
X134246501Y-75310066D01*
X134251778Y-75336597D01*
X134257881Y-75367281D01*
X134261266Y-75384301D01*
X134268161Y-75394621D01*
X134268162Y-75394622D01*
X134290478Y-75428020D01*
X134317516Y-75468484D01*
X134401699Y-75524734D01*
X134475933Y-75539500D01*
X135000915Y-75539500D01*
X135526066Y-75539499D01*
X135561818Y-75532388D01*
X135588126Y-75527156D01*
X135588128Y-75527155D01*
X135600301Y-75524734D01*
X135610621Y-75517839D01*
X135610622Y-75517838D01*
X135674168Y-75475377D01*
X135684484Y-75468484D01*
X135740734Y-75384301D01*
X135743156Y-75372126D01*
X135745163Y-75367281D01*
X135789712Y-75312001D01*
X135861572Y-75289500D01*
X136093275Y-75289500D01*
X136161396Y-75309502D01*
X136207889Y-75363158D01*
X136211257Y-75371271D01*
X136251929Y-75479764D01*
X136257309Y-75486943D01*
X136257311Y-75486946D01*
X136296698Y-75539500D01*
X136338596Y-75595404D01*
X136345775Y-75600784D01*
X136345776Y-75600785D01*
X136447054Y-75676689D01*
X136447057Y-75676691D01*
X136454236Y-75682071D01*
X136543954Y-75715704D01*
X136582157Y-75730026D01*
X136582159Y-75730026D01*
X136589552Y-75732798D01*
X136597402Y-75733651D01*
X136597403Y-75733651D01*
X136647847Y-75739131D01*
X136651244Y-75739500D01*
X137446756Y-75739500D01*
X137450153Y-75739131D01*
X137500597Y-75733651D01*
X137500598Y-75733651D01*
X137508448Y-75732798D01*
X137515841Y-75730026D01*
X137515843Y-75730026D01*
X137554046Y-75715704D01*
X137643764Y-75682071D01*
X137650943Y-75676691D01*
X137650946Y-75676689D01*
X137752224Y-75600785D01*
X137752225Y-75600784D01*
X137759404Y-75595404D01*
X137801302Y-75539500D01*
X137840689Y-75486946D01*
X137840691Y-75486943D01*
X137846071Y-75479764D01*
X137886743Y-75371271D01*
X137894026Y-75351843D01*
X137894026Y-75351841D01*
X137896798Y-75344448D01*
X137901206Y-75303877D01*
X137903131Y-75286153D01*
X137903131Y-75286152D01*
X137903500Y-75282756D01*
X137903500Y-74287244D01*
X137896798Y-74225552D01*
X137846071Y-74090236D01*
X137840691Y-74083057D01*
X137840689Y-74083054D01*
X137765006Y-73982071D01*
X137759404Y-73974596D01*
X137734579Y-73955991D01*
X137650946Y-73893311D01*
X137650943Y-73893309D01*
X137643764Y-73887929D01*
X137635362Y-73884779D01*
X137635358Y-73884777D01*
X137635269Y-73884744D01*
X137635194Y-73884687D01*
X137627485Y-73880467D01*
X137628094Y-73879354D01*
X137578505Y-73842102D01*
X137553806Y-73775540D01*
X137553500Y-73766763D01*
X137553500Y-73625161D01*
X137573502Y-73557040D01*
X137603935Y-73524335D01*
X137672606Y-73472869D01*
X137687904Y-73461404D01*
X137719189Y-73419661D01*
X137769189Y-73352946D01*
X137769191Y-73352943D01*
X137774571Y-73345764D01*
X137818853Y-73227640D01*
X137822526Y-73217843D01*
X137822526Y-73217841D01*
X137825298Y-73210448D01*
X137828770Y-73178493D01*
X137831631Y-73152153D01*
X137831631Y-73152152D01*
X137832000Y-73148756D01*
X137832000Y-72103244D01*
X137825298Y-72041552D01*
X137809987Y-72000708D01*
X137794955Y-71960612D01*
X137774571Y-71906236D01*
X137769191Y-71899057D01*
X137769189Y-71899054D01*
X137693285Y-71797776D01*
X137687904Y-71790596D01*
X137672140Y-71778782D01*
X137629626Y-71721925D01*
X137624599Y-71651107D01*
X137658610Y-71588861D01*
X137840066Y-71407405D01*
X137902378Y-71373379D01*
X137929161Y-71370500D01*
X139360153Y-71370500D01*
X139428274Y-71390502D01*
X139433068Y-71394185D01*
X139433266Y-71393907D01*
X139439459Y-71398308D01*
X139445076Y-71403419D01*
X139584293Y-71479008D01*
X139737522Y-71519207D01*
X139821477Y-71520526D01*
X139888319Y-71521576D01*
X139888322Y-71521576D01*
X139895916Y-71521695D01*
X140050332Y-71486329D01*
X140138159Y-71442157D01*
X140185072Y-71418563D01*
X140185075Y-71418561D01*
X140191855Y-71415151D01*
X140197626Y-71410222D01*
X140197629Y-71410220D01*
X140306536Y-71317204D01*
X140306536Y-71317203D01*
X140312314Y-71312269D01*
X140404755Y-71183624D01*
X140463842Y-71036641D01*
X140465257Y-71026699D01*
X140465995Y-71025076D01*
X140466878Y-71021782D01*
X140467427Y-71021929D01*
X140494657Y-70962076D01*
X140554328Y-70923606D01*
X140625324Y-70923504D01*
X140685106Y-70961802D01*
X140714692Y-71026340D01*
X140716000Y-71044451D01*
X140716000Y-91567500D01*
X140695998Y-91635621D01*
X140642342Y-91682114D01*
X140590000Y-91693500D01*
X114426000Y-91693500D01*
X114357879Y-91673498D01*
X114311386Y-91619842D01*
X114300000Y-91567500D01*
X114300000Y-69214000D01*
X114320002Y-69145879D01*
X114373658Y-69099386D01*
X114426000Y-69088000D01*
X126248760Y-69088000D01*
X126316881Y-69108002D01*
G37*
G04 #@! TD.AperFunction*
G04 #@! TA.AperFunction,Conductor*
G36*
X120234320Y-81020502D02*
G01*
X120280813Y-81074158D01*
X120290917Y-81144432D01*
X120261423Y-81209012D01*
X120224137Y-81234950D01*
X120225515Y-81237467D01*
X120217638Y-81241779D01*
X120209236Y-81244929D01*
X120202057Y-81250309D01*
X120202054Y-81250311D01*
X120114023Y-81316287D01*
X120093596Y-81331596D01*
X120088215Y-81338776D01*
X120012311Y-81440054D01*
X120012309Y-81440057D01*
X120006929Y-81447236D01*
X119956202Y-81582552D01*
X119955349Y-81590402D01*
X119955349Y-81590403D01*
X119952406Y-81617498D01*
X119949500Y-81644244D01*
X119949500Y-82439756D01*
X119956202Y-82501448D01*
X120006929Y-82636764D01*
X120012309Y-82643943D01*
X120012311Y-82643946D01*
X120059893Y-82707434D01*
X120093596Y-82752404D01*
X120100776Y-82757785D01*
X120202054Y-82833689D01*
X120202057Y-82833691D01*
X120209236Y-82839071D01*
X120268749Y-82861381D01*
X120337157Y-82887026D01*
X120337159Y-82887026D01*
X120344552Y-82889798D01*
X120352402Y-82890651D01*
X120352403Y-82890651D01*
X120402847Y-82896131D01*
X120406244Y-82896500D01*
X121401756Y-82896500D01*
X121405153Y-82896131D01*
X121455597Y-82890651D01*
X121455598Y-82890651D01*
X121463448Y-82889798D01*
X121470841Y-82887026D01*
X121470843Y-82887026D01*
X121539251Y-82861381D01*
X121598764Y-82839071D01*
X121605943Y-82833691D01*
X121605946Y-82833689D01*
X121707224Y-82757785D01*
X121714404Y-82752404D01*
X121748107Y-82707434D01*
X121795689Y-82643946D01*
X121795691Y-82643943D01*
X121801071Y-82636764D01*
X121826698Y-82568404D01*
X121841743Y-82528271D01*
X121884384Y-82471506D01*
X121950946Y-82446806D01*
X121959725Y-82446500D01*
X124875260Y-82446500D01*
X124943381Y-82466502D01*
X124964355Y-82483405D01*
X126035595Y-83554645D01*
X126069621Y-83616957D01*
X126072500Y-83643740D01*
X126072500Y-83759500D01*
X126052498Y-83827621D01*
X125998842Y-83874114D01*
X125946500Y-83885500D01*
X125666032Y-83885500D01*
X125634255Y-83890178D01*
X125601130Y-83895054D01*
X125601128Y-83895055D01*
X125591439Y-83896481D01*
X125560398Y-83911721D01*
X125557482Y-83913153D01*
X125487518Y-83925221D01*
X125446621Y-83913251D01*
X125411918Y-83896288D01*
X125402239Y-83894876D01*
X125342495Y-83886160D01*
X125342489Y-83886160D01*
X125337968Y-83885500D01*
X125016032Y-83885500D01*
X124984255Y-83890178D01*
X124951130Y-83895054D01*
X124951128Y-83895055D01*
X124941439Y-83896481D01*
X124910398Y-83911721D01*
X124907482Y-83913153D01*
X124837518Y-83925221D01*
X124796621Y-83913251D01*
X124761918Y-83896288D01*
X124752239Y-83894876D01*
X124692495Y-83886160D01*
X124692489Y-83886160D01*
X124687968Y-83885500D01*
X124366032Y-83885500D01*
X124334255Y-83890178D01*
X124301130Y-83895054D01*
X124301128Y-83895055D01*
X124291439Y-83896481D01*
X124257482Y-83913153D01*
X124187378Y-83947572D01*
X124187376Y-83947573D01*
X124178030Y-83952162D01*
X124088771Y-84041576D01*
X124033288Y-84155082D01*
X124031876Y-84164761D01*
X124023165Y-84224476D01*
X124022500Y-84229032D01*
X124022500Y-85950968D01*
X124033481Y-86025561D01*
X124089162Y-86138970D01*
X124096532Y-86146327D01*
X124098951Y-86149706D01*
X124122500Y-86223053D01*
X124122500Y-86454260D01*
X124102498Y-86522381D01*
X124085595Y-86543355D01*
X123897989Y-86730961D01*
X123835677Y-86764987D01*
X123764862Y-86759922D01*
X123725076Y-86735944D01*
X123698946Y-86712664D01*
X123693275Y-86707611D01*
X123685889Y-86703700D01*
X123559988Y-86637039D01*
X123559989Y-86637039D01*
X123553274Y-86633484D01*
X123399633Y-86594892D01*
X123392034Y-86594852D01*
X123392033Y-86594852D01*
X123326181Y-86594507D01*
X123241221Y-86594062D01*
X123233841Y-86595834D01*
X123233839Y-86595834D01*
X123094563Y-86629271D01*
X123094560Y-86629272D01*
X123087184Y-86631043D01*
X122946414Y-86703700D01*
X122827039Y-86807838D01*
X122735950Y-86937444D01*
X122678406Y-87085037D01*
X122677414Y-87092572D01*
X122672679Y-87128541D01*
X122643958Y-87193468D01*
X122584693Y-87232561D01*
X122513701Y-87233406D01*
X122458662Y-87201191D01*
X121445405Y-86187934D01*
X121411379Y-86125622D01*
X121408500Y-86098839D01*
X121408500Y-84997725D01*
X121428502Y-84929604D01*
X121482158Y-84883111D01*
X121490271Y-84879743D01*
X121553114Y-84856184D01*
X121598764Y-84839071D01*
X121605943Y-84833691D01*
X121605946Y-84833689D01*
X121707224Y-84757785D01*
X121714404Y-84752404D01*
X121749365Y-84705756D01*
X121795689Y-84643946D01*
X121795691Y-84643943D01*
X121801071Y-84636764D01*
X121851798Y-84501448D01*
X121858500Y-84439756D01*
X121858500Y-83644244D01*
X121852733Y-83591157D01*
X121852651Y-83590403D01*
X121852651Y-83590402D01*
X121851798Y-83582552D01*
X121801071Y-83447236D01*
X121795691Y-83440057D01*
X121795689Y-83440054D01*
X121719785Y-83338776D01*
X121714404Y-83331596D01*
X121684358Y-83309078D01*
X121605946Y-83250311D01*
X121605943Y-83250309D01*
X121598764Y-83244929D01*
X121485594Y-83202504D01*
X121470843Y-83196974D01*
X121470841Y-83196974D01*
X121463448Y-83194202D01*
X121455598Y-83193349D01*
X121455597Y-83193349D01*
X121405153Y-83187869D01*
X121405152Y-83187869D01*
X121401756Y-83187500D01*
X120406244Y-83187500D01*
X120402848Y-83187869D01*
X120402847Y-83187869D01*
X120352403Y-83193349D01*
X120352402Y-83193349D01*
X120344552Y-83194202D01*
X120337159Y-83196974D01*
X120337157Y-83196974D01*
X120322406Y-83202504D01*
X120209236Y-83244929D01*
X120202057Y-83250309D01*
X120202054Y-83250311D01*
X120123642Y-83309078D01*
X120093596Y-83331596D01*
X120088215Y-83338776D01*
X120012311Y-83440054D01*
X120012309Y-83440057D01*
X120006929Y-83447236D01*
X119956202Y-83582552D01*
X119955349Y-83590402D01*
X119955349Y-83590403D01*
X119955267Y-83591157D01*
X119949500Y-83644244D01*
X119949500Y-84439756D01*
X119956202Y-84501448D01*
X120006929Y-84636764D01*
X120012309Y-84643943D01*
X120012311Y-84643946D01*
X120058635Y-84705756D01*
X120093596Y-84752404D01*
X120100776Y-84757785D01*
X120202054Y-84833689D01*
X120202057Y-84833691D01*
X120209236Y-84839071D01*
X120254886Y-84856184D01*
X120317729Y-84879743D01*
X120374494Y-84922384D01*
X120399194Y-84988946D01*
X120399500Y-84997725D01*
X120399500Y-86289376D01*
X120398159Y-86301381D01*
X120398655Y-86301421D01*
X120397935Y-86310368D01*
X120395954Y-86319124D01*
X120396510Y-86328084D01*
X120399258Y-86372382D01*
X120399500Y-86380184D01*
X120399500Y-86396226D01*
X120400135Y-86400657D01*
X120400135Y-86400662D01*
X120400965Y-86406453D01*
X120401996Y-86416514D01*
X120403356Y-86438432D01*
X120404338Y-86454260D01*
X120404902Y-86463359D01*
X120407949Y-86471799D01*
X120408630Y-86475089D01*
X120412582Y-86490938D01*
X120413527Y-86494168D01*
X120414799Y-86503052D01*
X120418514Y-86511223D01*
X120434218Y-86545763D01*
X120438030Y-86555128D01*
X120450922Y-86590837D01*
X120450924Y-86590840D01*
X120453972Y-86599284D01*
X120459268Y-86606533D01*
X120460840Y-86609490D01*
X120469093Y-86623614D01*
X120470898Y-86626437D01*
X120474612Y-86634605D01*
X120504497Y-86669287D01*
X120505243Y-86670153D01*
X120511525Y-86678064D01*
X120519473Y-86688944D01*
X120530335Y-86699806D01*
X120536693Y-86706652D01*
X120568944Y-86744082D01*
X120576479Y-86748966D01*
X120583051Y-86754699D01*
X120594455Y-86763926D01*
X122293229Y-88462700D01*
X122327255Y-88525012D01*
X122322190Y-88595827D01*
X122279643Y-88652663D01*
X122213123Y-88677474D01*
X122157445Y-88668825D01*
X121981039Y-88598446D01*
X121975379Y-88597320D01*
X121975375Y-88597319D01*
X121787613Y-88559971D01*
X121787610Y-88559971D01*
X121781946Y-88558844D01*
X121776171Y-88558768D01*
X121776167Y-88558768D01*
X121674793Y-88557441D01*
X121578971Y-88556187D01*
X121573274Y-88557166D01*
X121573273Y-88557166D01*
X121382726Y-88589908D01*
X121312202Y-88581731D01*
X121272293Y-88554823D01*
X120417675Y-87700204D01*
X119532677Y-86815206D01*
X119525135Y-86805766D01*
X119524755Y-86806089D01*
X119518937Y-86799253D01*
X119514147Y-86791661D01*
X119474140Y-86756328D01*
X119468454Y-86750983D01*
X119457120Y-86739649D01*
X119453535Y-86736962D01*
X119448845Y-86733447D01*
X119441000Y-86727060D01*
X119412557Y-86701940D01*
X119405830Y-86695999D01*
X119397708Y-86692186D01*
X119394907Y-86690346D01*
X119380912Y-86681937D01*
X119377949Y-86680315D01*
X119370764Y-86674930D01*
X119362354Y-86671777D01*
X119362352Y-86671776D01*
X119326818Y-86658454D01*
X119317502Y-86654529D01*
X119303736Y-86648066D01*
X119275018Y-86634583D01*
X119266144Y-86633201D01*
X119262917Y-86632215D01*
X119247134Y-86628075D01*
X119243856Y-86627354D01*
X119235448Y-86624202D01*
X119221691Y-86623180D01*
X119188643Y-86620724D01*
X119178596Y-86619570D01*
X119170114Y-86618249D01*
X119170111Y-86618249D01*
X119165303Y-86617500D01*
X119149938Y-86617500D01*
X119140601Y-86617154D01*
X119124519Y-86615959D01*
X119091333Y-86613493D01*
X119082558Y-86615366D01*
X119073862Y-86615959D01*
X119059262Y-86617500D01*
X118917149Y-86617500D01*
X118849028Y-86597498D01*
X118808339Y-86551927D01*
X118807349Y-86552534D01*
X118804330Y-86547608D01*
X118801776Y-86542428D01*
X118772373Y-86503052D01*
X118707758Y-86416523D01*
X118680320Y-86379779D01*
X118531258Y-86241987D01*
X118526375Y-86238906D01*
X118526371Y-86238903D01*
X118364464Y-86136748D01*
X118359581Y-86133667D01*
X118171039Y-86058446D01*
X118165379Y-86057320D01*
X118165375Y-86057319D01*
X117977613Y-86019971D01*
X117977610Y-86019971D01*
X117971946Y-86018844D01*
X117966171Y-86018768D01*
X117966167Y-86018768D01*
X117864793Y-86017441D01*
X117768971Y-86016187D01*
X117763274Y-86017166D01*
X117763273Y-86017166D01*
X117572727Y-86049908D01*
X117502203Y-86041731D01*
X117462294Y-86014823D01*
X116111405Y-84663934D01*
X116077379Y-84601622D01*
X116074500Y-84574839D01*
X116074500Y-82164500D01*
X116094502Y-82096379D01*
X116148158Y-82049886D01*
X116200500Y-82038500D01*
X118674376Y-82038500D01*
X118686381Y-82039841D01*
X118686421Y-82039345D01*
X118695368Y-82040065D01*
X118704124Y-82042046D01*
X118757382Y-82038742D01*
X118765184Y-82038500D01*
X118781226Y-82038500D01*
X118785657Y-82037865D01*
X118785662Y-82037865D01*
X118789687Y-82037288D01*
X118791457Y-82037035D01*
X118801514Y-82036004D01*
X118823976Y-82034611D01*
X118839400Y-82033654D01*
X118839402Y-82033654D01*
X118848359Y-82033098D01*
X118856799Y-82030051D01*
X118860089Y-82029370D01*
X118875938Y-82025418D01*
X118879168Y-82024473D01*
X118888052Y-82023201D01*
X118930763Y-82003782D01*
X118940128Y-81999970D01*
X118975837Y-81987078D01*
X118975840Y-81987076D01*
X118984284Y-81984028D01*
X118991533Y-81978732D01*
X118994490Y-81977160D01*
X119008614Y-81968907D01*
X119011437Y-81967102D01*
X119019605Y-81963388D01*
X119026402Y-81957531D01*
X119026404Y-81957530D01*
X119055153Y-81932757D01*
X119063064Y-81926475D01*
X119073944Y-81918527D01*
X119084806Y-81907665D01*
X119091653Y-81901307D01*
X119122282Y-81874915D01*
X119129082Y-81869056D01*
X119133966Y-81861521D01*
X119139699Y-81854949D01*
X119148926Y-81843545D01*
X119955066Y-81037405D01*
X120017378Y-81003379D01*
X120044161Y-81000500D01*
X120166199Y-81000500D01*
X120234320Y-81020502D01*
G37*
G04 #@! TD.AperFunction*
G04 #@! TA.AperFunction,Conductor*
G36*
X129457379Y-79266749D02*
G01*
X129492082Y-79283712D01*
X129501761Y-79285124D01*
X129561505Y-79293840D01*
X129561511Y-79293840D01*
X129566032Y-79294500D01*
X129887968Y-79294500D01*
X129919745Y-79289822D01*
X129952870Y-79284946D01*
X129952872Y-79284945D01*
X129962561Y-79283519D01*
X129971352Y-79279203D01*
X129980703Y-79276297D01*
X129981214Y-79277942D01*
X130039935Y-79267815D01*
X130105315Y-79295489D01*
X130145355Y-79354118D01*
X130151500Y-79392985D01*
X130151500Y-82330260D01*
X130131498Y-82398381D01*
X130114595Y-82419355D01*
X129418465Y-83115485D01*
X129418462Y-83115489D01*
X129395674Y-83138277D01*
X129391171Y-83147115D01*
X129385546Y-83158154D01*
X129375216Y-83175011D01*
X129362095Y-83193071D01*
X129359030Y-83202504D01*
X129355199Y-83214295D01*
X129347634Y-83232561D01*
X129337502Y-83252445D01*
X129335951Y-83262238D01*
X129334011Y-83274487D01*
X129329395Y-83293713D01*
X129322500Y-83314934D01*
X129322500Y-83759500D01*
X129302498Y-83827621D01*
X129248842Y-83874114D01*
X129196500Y-83885500D01*
X128916032Y-83885500D01*
X128884255Y-83890178D01*
X128851130Y-83895054D01*
X128851128Y-83895055D01*
X128841439Y-83896481D01*
X128810398Y-83911721D01*
X128807482Y-83913153D01*
X128737518Y-83925221D01*
X128696621Y-83913251D01*
X128661918Y-83896288D01*
X128652239Y-83894876D01*
X128592495Y-83886160D01*
X128592489Y-83886160D01*
X128587968Y-83885500D01*
X128266032Y-83885500D01*
X128234255Y-83890178D01*
X128201130Y-83895054D01*
X128201128Y-83895055D01*
X128191439Y-83896481D01*
X128160398Y-83911721D01*
X128157482Y-83913153D01*
X128087518Y-83925221D01*
X128046621Y-83913251D01*
X128011918Y-83896288D01*
X128002239Y-83894876D01*
X127942495Y-83886160D01*
X127942489Y-83886160D01*
X127937968Y-83885500D01*
X127657500Y-83885500D01*
X127589379Y-83865498D01*
X127542886Y-83811842D01*
X127531500Y-83759500D01*
X127531500Y-82134740D01*
X127551502Y-82066619D01*
X127568405Y-82045645D01*
X127896987Y-81717063D01*
X127959299Y-81683037D01*
X127988060Y-81680174D01*
X128077318Y-81681576D01*
X128077321Y-81681576D01*
X128084916Y-81681695D01*
X128239332Y-81646329D01*
X128325139Y-81603173D01*
X128374072Y-81578563D01*
X128374075Y-81578561D01*
X128380855Y-81575151D01*
X128386626Y-81570222D01*
X128386629Y-81570220D01*
X128495536Y-81477204D01*
X128495536Y-81477203D01*
X128501314Y-81472269D01*
X128593755Y-81343624D01*
X128652842Y-81196641D01*
X128675162Y-81039807D01*
X128675307Y-81026000D01*
X128656276Y-80868733D01*
X128600280Y-80720546D01*
X128565893Y-80670513D01*
X128514855Y-80596251D01*
X128514854Y-80596249D01*
X128510553Y-80589992D01*
X128392275Y-80484611D01*
X128384889Y-80480700D01*
X128258988Y-80414039D01*
X128258989Y-80414039D01*
X128252274Y-80410484D01*
X128098633Y-80371892D01*
X128091034Y-80371852D01*
X128091033Y-80371852D01*
X128025181Y-80371507D01*
X127940221Y-80371062D01*
X127932841Y-80372834D01*
X127932839Y-80372834D01*
X127793563Y-80406271D01*
X127793560Y-80406272D01*
X127786184Y-80408043D01*
X127645414Y-80480700D01*
X127526039Y-80584838D01*
X127434950Y-80714444D01*
X127410975Y-80775938D01*
X127382402Y-80849224D01*
X127377406Y-80862037D01*
X127376414Y-80869570D01*
X127376414Y-80869571D01*
X127357993Y-81009498D01*
X127356729Y-81019096D01*
X127357563Y-81026647D01*
X127359448Y-81043724D01*
X127347042Y-81113628D01*
X127323304Y-81146646D01*
X126818465Y-81651485D01*
X126818462Y-81651489D01*
X126795674Y-81674277D01*
X126785546Y-81694154D01*
X126775216Y-81711011D01*
X126762095Y-81729071D01*
X126759030Y-81738504D01*
X126755199Y-81750295D01*
X126747634Y-81768561D01*
X126737502Y-81788445D01*
X126735951Y-81798238D01*
X126734011Y-81810487D01*
X126729395Y-81829713D01*
X126725795Y-81840794D01*
X126722500Y-81850934D01*
X126722500Y-82793260D01*
X126702498Y-82861381D01*
X126648842Y-82907874D01*
X126578568Y-82917978D01*
X126513988Y-82888484D01*
X126507405Y-82882355D01*
X125358515Y-81733465D01*
X125358511Y-81733462D01*
X125335723Y-81710674D01*
X125315844Y-81700545D01*
X125298989Y-81690216D01*
X125289215Y-81683115D01*
X125280929Y-81677095D01*
X125259704Y-81670199D01*
X125241438Y-81662633D01*
X125221555Y-81652502D01*
X125199513Y-81649011D01*
X125180287Y-81644395D01*
X125168500Y-81640565D01*
X125168498Y-81640565D01*
X125159066Y-81637500D01*
X121959725Y-81637500D01*
X121891604Y-81617498D01*
X121845111Y-81563842D01*
X121841743Y-81555729D01*
X121810455Y-81472269D01*
X121801071Y-81447236D01*
X121795691Y-81440057D01*
X121795689Y-81440054D01*
X121719785Y-81338776D01*
X121714404Y-81331596D01*
X121693977Y-81316287D01*
X121605946Y-81250311D01*
X121605943Y-81250309D01*
X121598764Y-81244929D01*
X121540220Y-81222982D01*
X121483455Y-81180341D01*
X121458755Y-81113779D01*
X121473962Y-81044430D01*
X121524248Y-80994312D01*
X121584449Y-80979000D01*
X122569756Y-80979000D01*
X122573153Y-80978631D01*
X122623597Y-80973151D01*
X122623598Y-80973151D01*
X122631448Y-80972298D01*
X122638841Y-80969526D01*
X122638843Y-80969526D01*
X122689507Y-80950533D01*
X122766764Y-80921571D01*
X122773943Y-80916191D01*
X122773946Y-80916189D01*
X122875224Y-80840285D01*
X122882404Y-80834904D01*
X122913627Y-80793243D01*
X122963689Y-80726446D01*
X122963691Y-80726443D01*
X122969071Y-80719264D01*
X123000513Y-80635391D01*
X123005057Y-80623271D01*
X123047698Y-80566506D01*
X123114260Y-80541806D01*
X123123039Y-80541500D01*
X123199627Y-80541500D01*
X123250527Y-80554427D01*
X123251057Y-80553088D01*
X123258119Y-80555884D01*
X123264793Y-80559508D01*
X123418022Y-80599707D01*
X123501977Y-80601026D01*
X123568819Y-80602076D01*
X123568822Y-80602076D01*
X123576416Y-80602195D01*
X123730832Y-80566829D01*
X123810636Y-80526692D01*
X123865572Y-80499063D01*
X123865575Y-80499061D01*
X123872355Y-80495651D01*
X123878126Y-80490722D01*
X123878129Y-80490720D01*
X123987036Y-80397704D01*
X123987036Y-80397703D01*
X123992814Y-80392769D01*
X124085255Y-80264124D01*
X124144342Y-80117141D01*
X124166662Y-79960307D01*
X124166807Y-79946500D01*
X124166311Y-79942399D01*
X124166292Y-79942059D01*
X124182522Y-79872942D01*
X124203007Y-79846042D01*
X124231326Y-79817723D01*
X124289498Y-79703555D01*
X124309542Y-79577000D01*
X124298192Y-79505338D01*
X124291049Y-79460235D01*
X124291048Y-79460232D01*
X124290254Y-79455215D01*
X124289498Y-79450445D01*
X124290526Y-79450282D01*
X124288763Y-79388463D01*
X124325429Y-79327666D01*
X124389142Y-79296344D01*
X124410622Y-79294500D01*
X124687968Y-79294500D01*
X124719745Y-79289822D01*
X124752870Y-79284946D01*
X124752872Y-79284945D01*
X124762561Y-79283519D01*
X124796518Y-79266847D01*
X124866482Y-79254779D01*
X124907379Y-79266749D01*
X124942082Y-79283712D01*
X124951761Y-79285124D01*
X125011505Y-79293840D01*
X125011511Y-79293840D01*
X125016032Y-79294500D01*
X125337968Y-79294500D01*
X125369745Y-79289822D01*
X125402870Y-79284946D01*
X125402872Y-79284945D01*
X125412561Y-79283519D01*
X125446518Y-79266847D01*
X125516482Y-79254779D01*
X125557379Y-79266749D01*
X125592082Y-79283712D01*
X125601761Y-79285124D01*
X125661505Y-79293840D01*
X125661511Y-79293840D01*
X125666032Y-79294500D01*
X125987968Y-79294500D01*
X126019745Y-79289822D01*
X126052870Y-79284946D01*
X126052872Y-79284945D01*
X126062561Y-79283519D01*
X126096518Y-79266847D01*
X126166482Y-79254779D01*
X126207379Y-79266749D01*
X126242082Y-79283712D01*
X126251761Y-79285124D01*
X126311505Y-79293840D01*
X126311511Y-79293840D01*
X126316032Y-79294500D01*
X126637968Y-79294500D01*
X126669745Y-79289822D01*
X126702870Y-79284946D01*
X126702872Y-79284945D01*
X126712561Y-79283519D01*
X126746518Y-79266847D01*
X126816482Y-79254779D01*
X126857379Y-79266749D01*
X126892082Y-79283712D01*
X126901761Y-79285124D01*
X126961505Y-79293840D01*
X126961511Y-79293840D01*
X126966032Y-79294500D01*
X127287968Y-79294500D01*
X127319745Y-79289822D01*
X127352870Y-79284946D01*
X127352872Y-79284945D01*
X127362561Y-79283519D01*
X127396518Y-79266847D01*
X127466482Y-79254779D01*
X127507379Y-79266749D01*
X127542082Y-79283712D01*
X127551761Y-79285124D01*
X127611505Y-79293840D01*
X127611511Y-79293840D01*
X127616032Y-79294500D01*
X127937968Y-79294500D01*
X127969745Y-79289822D01*
X128002870Y-79284946D01*
X128002872Y-79284945D01*
X128012561Y-79283519D01*
X128046518Y-79266847D01*
X128116482Y-79254779D01*
X128157379Y-79266749D01*
X128192082Y-79283712D01*
X128201761Y-79285124D01*
X128261505Y-79293840D01*
X128261511Y-79293840D01*
X128266032Y-79294500D01*
X128587968Y-79294500D01*
X128619745Y-79289822D01*
X128652870Y-79284946D01*
X128652872Y-79284945D01*
X128662561Y-79283519D01*
X128696518Y-79266847D01*
X128766482Y-79254779D01*
X128807379Y-79266749D01*
X128842082Y-79283712D01*
X128851761Y-79285124D01*
X128911505Y-79293840D01*
X128911511Y-79293840D01*
X128916032Y-79294500D01*
X129237968Y-79294500D01*
X129269745Y-79289822D01*
X129302870Y-79284946D01*
X129302872Y-79284945D01*
X129312561Y-79283519D01*
X129346518Y-79266847D01*
X129416482Y-79254779D01*
X129457379Y-79266749D01*
G37*
G04 #@! TD.AperFunction*
G04 #@! TA.AperFunction,Conductor*
G36*
X123070381Y-74751502D02*
G01*
X123091355Y-74768405D01*
X124085595Y-75762644D01*
X124119620Y-75824956D01*
X124122500Y-75851739D01*
X124122500Y-76759500D01*
X124102498Y-76827621D01*
X124048842Y-76874114D01*
X123996500Y-76885500D01*
X123716032Y-76885500D01*
X123684255Y-76890178D01*
X123651130Y-76895054D01*
X123651128Y-76895055D01*
X123641439Y-76896481D01*
X123589944Y-76921764D01*
X123537378Y-76947572D01*
X123537376Y-76947573D01*
X123528030Y-76952162D01*
X123438771Y-77041576D01*
X123383288Y-77155082D01*
X123381876Y-77164761D01*
X123377899Y-77192026D01*
X123372500Y-77229032D01*
X123372500Y-78950968D01*
X123383481Y-79025561D01*
X123427227Y-79114661D01*
X123436021Y-79132572D01*
X123448089Y-79202535D01*
X123420416Y-79267917D01*
X123361788Y-79307958D01*
X123352335Y-79310621D01*
X123277684Y-79328543D01*
X123136914Y-79401200D01*
X123131197Y-79406187D01*
X123131190Y-79406192D01*
X123068112Y-79461219D01*
X123003630Y-79490927D01*
X122933323Y-79481057D01*
X122895811Y-79450950D01*
X122894135Y-79452626D01*
X122887785Y-79446276D01*
X122882404Y-79439096D01*
X122838500Y-79406192D01*
X122773946Y-79357811D01*
X122773943Y-79357809D01*
X122766764Y-79352429D01*
X122677046Y-79318796D01*
X122638843Y-79304474D01*
X122638841Y-79304474D01*
X122631448Y-79301702D01*
X122623598Y-79300849D01*
X122623597Y-79300849D01*
X122573153Y-79295369D01*
X122573152Y-79295369D01*
X122569756Y-79295000D01*
X121524244Y-79295000D01*
X121520848Y-79295369D01*
X121520847Y-79295369D01*
X121470403Y-79300849D01*
X121470402Y-79300849D01*
X121462552Y-79301702D01*
X121455159Y-79304474D01*
X121455157Y-79304474D01*
X121416954Y-79318796D01*
X121327236Y-79352429D01*
X121320057Y-79357809D01*
X121320054Y-79357811D01*
X121255500Y-79406192D01*
X121211596Y-79439096D01*
X121124929Y-79554736D01*
X121122313Y-79552775D01*
X121083382Y-79591616D01*
X121013990Y-79606628D01*
X120947499Y-79581740D01*
X120922298Y-79556524D01*
X120855785Y-79467776D01*
X120850404Y-79460596D01*
X120829977Y-79445287D01*
X120741946Y-79379311D01*
X120741943Y-79379309D01*
X120734764Y-79373929D01*
X120622981Y-79332024D01*
X120606843Y-79325974D01*
X120606841Y-79325974D01*
X120599448Y-79323202D01*
X120591598Y-79322349D01*
X120591597Y-79322349D01*
X120541153Y-79316869D01*
X120541152Y-79316869D01*
X120537756Y-79316500D01*
X119492244Y-79316500D01*
X119488848Y-79316869D01*
X119488847Y-79316869D01*
X119438403Y-79322349D01*
X119438402Y-79322349D01*
X119430552Y-79323202D01*
X119423159Y-79325974D01*
X119423157Y-79325974D01*
X119295236Y-79373929D01*
X119294154Y-79371044D01*
X119239778Y-79382930D01*
X119173233Y-79358185D01*
X119139522Y-79320242D01*
X119090888Y-79236006D01*
X119087585Y-79230285D01*
X119017256Y-79152177D01*
X118966885Y-79096234D01*
X118966883Y-79096233D01*
X118962470Y-79091331D01*
X118894788Y-79042157D01*
X118816542Y-78985308D01*
X118816541Y-78985307D01*
X118811200Y-78981427D01*
X118805172Y-78978743D01*
X118805170Y-78978742D01*
X118646416Y-78908060D01*
X118646414Y-78908060D01*
X118640385Y-78905375D01*
X118548937Y-78885937D01*
X118463947Y-78867872D01*
X118463943Y-78867872D01*
X118457490Y-78866500D01*
X118270510Y-78866500D01*
X118264057Y-78867872D01*
X118264053Y-78867872D01*
X118179063Y-78885937D01*
X118087615Y-78905375D01*
X118081586Y-78908060D01*
X118081584Y-78908060D01*
X117922830Y-78978742D01*
X117922828Y-78978743D01*
X117916800Y-78981427D01*
X117911459Y-78985307D01*
X117911458Y-78985308D01*
X117833212Y-79042157D01*
X117765530Y-79091331D01*
X117761117Y-79096233D01*
X117761115Y-79096234D01*
X117710744Y-79152177D01*
X117640415Y-79230285D01*
X117637112Y-79236006D01*
X117586770Y-79323202D01*
X117546925Y-79392215D01*
X117528058Y-79450282D01*
X117513761Y-79494285D01*
X117489145Y-79570044D01*
X117469600Y-79756000D01*
X117489145Y-79941956D01*
X117491185Y-79948234D01*
X117491185Y-79948235D01*
X117499683Y-79974390D01*
X117546925Y-80119785D01*
X117550228Y-80125507D01*
X117550229Y-80125508D01*
X117571427Y-80162224D01*
X117640415Y-80281715D01*
X117644833Y-80286622D01*
X117644834Y-80286623D01*
X117757296Y-80411524D01*
X117765530Y-80420669D01*
X117770869Y-80424548D01*
X117860494Y-80489664D01*
X117916800Y-80530573D01*
X117922828Y-80533257D01*
X117922830Y-80533258D01*
X118081584Y-80603940D01*
X118087615Y-80606625D01*
X118173753Y-80624934D01*
X118264053Y-80644128D01*
X118264057Y-80644128D01*
X118270510Y-80645500D01*
X118457490Y-80645500D01*
X118463943Y-80644128D01*
X118463947Y-80644128D01*
X118580353Y-80619385D01*
X118628811Y-80609085D01*
X118699601Y-80614487D01*
X118756234Y-80657304D01*
X118780727Y-80723942D01*
X118765306Y-80793243D01*
X118744102Y-80821427D01*
X118572934Y-80992595D01*
X118510622Y-81026621D01*
X118483839Y-81029500D01*
X116200500Y-81029500D01*
X116132379Y-81009498D01*
X116085886Y-80955842D01*
X116074500Y-80903500D01*
X116074500Y-77306640D01*
X116094502Y-77238519D01*
X116148158Y-77192026D01*
X116208377Y-77182291D01*
X116208450Y-77180947D01*
X116211847Y-77181131D01*
X116215244Y-77181500D01*
X117210756Y-77181500D01*
X117214153Y-77181131D01*
X117264597Y-77175651D01*
X117264598Y-77175651D01*
X117272448Y-77174798D01*
X117279841Y-77172026D01*
X117279843Y-77172026D01*
X117351500Y-77145163D01*
X117407764Y-77124071D01*
X117414943Y-77118691D01*
X117414946Y-77118689D01*
X117516224Y-77042785D01*
X117523404Y-77037404D01*
X117587289Y-76952162D01*
X117604689Y-76928946D01*
X117604691Y-76928943D01*
X117610071Y-76921764D01*
X117660798Y-76786448D01*
X117663679Y-76759933D01*
X117667131Y-76728153D01*
X117667131Y-76728152D01*
X117667500Y-76724756D01*
X117667500Y-75929244D01*
X117660798Y-75867552D01*
X117610071Y-75732236D01*
X117604691Y-75725057D01*
X117604689Y-75725054D01*
X117528785Y-75623776D01*
X117523404Y-75616596D01*
X117502306Y-75600784D01*
X117414946Y-75535311D01*
X117414943Y-75535309D01*
X117407764Y-75529929D01*
X117318046Y-75496296D01*
X117279843Y-75481974D01*
X117279841Y-75481974D01*
X117272448Y-75479202D01*
X117264598Y-75478349D01*
X117264597Y-75478349D01*
X117214153Y-75472869D01*
X117214152Y-75472869D01*
X117210756Y-75472500D01*
X116215244Y-75472500D01*
X116211848Y-75472869D01*
X116211847Y-75472869D01*
X116161403Y-75478349D01*
X116161402Y-75478349D01*
X116153552Y-75479202D01*
X116146159Y-75481974D01*
X116146157Y-75481974D01*
X116026643Y-75526777D01*
X116026641Y-75526778D01*
X116018236Y-75529929D01*
X116011051Y-75535314D01*
X116007009Y-75537527D01*
X115937652Y-75552696D01*
X115871104Y-75527960D01*
X115828494Y-75471172D01*
X115820500Y-75427007D01*
X115820500Y-75226993D01*
X115840502Y-75158872D01*
X115894158Y-75112379D01*
X115964432Y-75102275D01*
X116007009Y-75116473D01*
X116011051Y-75118686D01*
X116018236Y-75124071D01*
X116026639Y-75127221D01*
X116026643Y-75127223D01*
X116146157Y-75172026D01*
X116146159Y-75172026D01*
X116153552Y-75174798D01*
X116161402Y-75175651D01*
X116161403Y-75175651D01*
X116211847Y-75181131D01*
X116215244Y-75181500D01*
X117210756Y-75181500D01*
X117214153Y-75181131D01*
X117264597Y-75175651D01*
X117264598Y-75175651D01*
X117272448Y-75174798D01*
X117279841Y-75172026D01*
X117279843Y-75172026D01*
X117318046Y-75157704D01*
X117407764Y-75124071D01*
X117414943Y-75118691D01*
X117414946Y-75118689D01*
X117516224Y-75042785D01*
X117523404Y-75037404D01*
X117594787Y-74942158D01*
X117604689Y-74928946D01*
X117604691Y-74928943D01*
X117610071Y-74921764D01*
X117613221Y-74913362D01*
X117617533Y-74905485D01*
X117620237Y-74906965D01*
X117653661Y-74862472D01*
X117720223Y-74837773D01*
X117789572Y-74852981D01*
X117839689Y-74903268D01*
X117841880Y-74908066D01*
X117844779Y-74913362D01*
X117847929Y-74921764D01*
X117853309Y-74928943D01*
X117853311Y-74928946D01*
X117863213Y-74942158D01*
X117934596Y-75037404D01*
X117941776Y-75042785D01*
X118043054Y-75118689D01*
X118043057Y-75118691D01*
X118050236Y-75124071D01*
X118139954Y-75157704D01*
X118178157Y-75172026D01*
X118178159Y-75172026D01*
X118185552Y-75174798D01*
X118193402Y-75175651D01*
X118193403Y-75175651D01*
X118243847Y-75181131D01*
X118247244Y-75181500D01*
X119242756Y-75181500D01*
X119246153Y-75181131D01*
X119296597Y-75175651D01*
X119296598Y-75175651D01*
X119304448Y-75174798D01*
X119311841Y-75172026D01*
X119311843Y-75172026D01*
X119350046Y-75157704D01*
X119439764Y-75124071D01*
X119446943Y-75118691D01*
X119446946Y-75118689D01*
X119548224Y-75042785D01*
X119555404Y-75037404D01*
X119626787Y-74942158D01*
X119636689Y-74928946D01*
X119636691Y-74928943D01*
X119642071Y-74921764D01*
X119673054Y-74839115D01*
X119682743Y-74813271D01*
X119725384Y-74756506D01*
X119791946Y-74731806D01*
X119800725Y-74731500D01*
X123002260Y-74731500D01*
X123070381Y-74751502D01*
G37*
G04 #@! TD.AperFunction*
G04 #@! TA.AperFunction,Conductor*
G36*
X140658121Y-69108002D02*
G01*
X140704614Y-69161658D01*
X140716000Y-69214000D01*
X140716000Y-70683975D01*
X140695998Y-70752096D01*
X140642342Y-70798589D01*
X140572068Y-70808693D01*
X140507488Y-70779199D01*
X140467986Y-70714600D01*
X140467276Y-70708733D01*
X140411280Y-70560546D01*
X140380283Y-70515445D01*
X140325855Y-70436251D01*
X140325854Y-70436249D01*
X140321553Y-70429992D01*
X140313533Y-70422846D01*
X140245391Y-70362135D01*
X140203275Y-70324611D01*
X140195889Y-70320700D01*
X140092484Y-70265950D01*
X140063274Y-70250484D01*
X139909633Y-70211892D01*
X139902034Y-70211852D01*
X139902033Y-70211852D01*
X139836181Y-70211507D01*
X139751221Y-70211062D01*
X139743841Y-70212834D01*
X139743839Y-70212834D01*
X139604563Y-70246271D01*
X139604560Y-70246272D01*
X139597184Y-70248043D01*
X139562490Y-70265950D01*
X139465503Y-70316009D01*
X139456414Y-70320700D01*
X139450692Y-70325692D01*
X139450690Y-70325693D01*
X139445236Y-70330451D01*
X139380753Y-70360157D01*
X139362409Y-70361500D01*
X137738625Y-70361500D01*
X137726620Y-70360159D01*
X137726580Y-70360655D01*
X137717633Y-70359935D01*
X137708877Y-70357954D01*
X137665339Y-70360655D01*
X137655619Y-70361258D01*
X137647817Y-70361500D01*
X137631774Y-70361500D01*
X137627344Y-70362135D01*
X137627337Y-70362135D01*
X137621536Y-70362966D01*
X137611481Y-70363996D01*
X137573601Y-70366346D01*
X137573599Y-70366346D01*
X137564642Y-70366902D01*
X137556201Y-70369949D01*
X137552923Y-70370628D01*
X137537055Y-70374584D01*
X137533831Y-70375527D01*
X137524948Y-70376799D01*
X137516779Y-70380513D01*
X137516773Y-70380515D01*
X137482221Y-70396225D01*
X137472853Y-70400039D01*
X137428716Y-70415972D01*
X137421466Y-70421269D01*
X137418499Y-70422846D01*
X137404386Y-70431093D01*
X137401563Y-70432898D01*
X137393395Y-70436612D01*
X137386598Y-70442469D01*
X137386596Y-70442470D01*
X137370812Y-70456071D01*
X137368314Y-70458224D01*
X137357847Y-70467243D01*
X137349936Y-70473525D01*
X137339056Y-70481473D01*
X137328194Y-70492335D01*
X137321348Y-70498693D01*
X137283918Y-70530944D01*
X137279034Y-70538479D01*
X137273301Y-70545051D01*
X137264074Y-70556455D01*
X136683206Y-71137323D01*
X136673766Y-71144865D01*
X136674089Y-71145245D01*
X136667253Y-71151063D01*
X136659661Y-71155853D01*
X136653719Y-71162581D01*
X136624329Y-71195859D01*
X136618983Y-71201546D01*
X136607649Y-71212880D01*
X136604964Y-71216463D01*
X136604962Y-71216465D01*
X136601447Y-71221155D01*
X136595062Y-71228998D01*
X136563999Y-71264170D01*
X136560186Y-71272292D01*
X136558346Y-71275093D01*
X136549937Y-71289088D01*
X136548315Y-71292051D01*
X136542930Y-71299236D01*
X136539777Y-71307646D01*
X136539776Y-71307648D01*
X136526454Y-71343182D01*
X136522530Y-71352495D01*
X136502583Y-71394982D01*
X136501201Y-71403856D01*
X136500215Y-71407083D01*
X136496075Y-71422866D01*
X136495354Y-71426144D01*
X136492202Y-71434552D01*
X136491537Y-71443503D01*
X136488724Y-71481357D01*
X136487570Y-71491404D01*
X136485500Y-71504697D01*
X136485500Y-71520062D01*
X136485154Y-71529399D01*
X136481493Y-71578667D01*
X136482426Y-71583038D01*
X136467593Y-71650149D01*
X136417716Y-71699916D01*
X136416142Y-71700778D01*
X136407736Y-71703929D01*
X136292096Y-71790596D01*
X136286715Y-71797776D01*
X136210811Y-71899054D01*
X136210809Y-71899057D01*
X136205429Y-71906236D01*
X136185045Y-71960612D01*
X136170014Y-72000708D01*
X136154702Y-72041552D01*
X136148000Y-72103244D01*
X136148000Y-73148756D01*
X136148369Y-73152152D01*
X136148369Y-73152153D01*
X136151231Y-73178493D01*
X136154702Y-73210448D01*
X136157474Y-73217841D01*
X136157474Y-73217843D01*
X136161147Y-73227640D01*
X136205429Y-73345764D01*
X136210809Y-73352943D01*
X136210811Y-73352946D01*
X136260811Y-73419661D01*
X136292096Y-73461404D01*
X136306901Y-73472500D01*
X136400554Y-73542689D01*
X136400557Y-73542691D01*
X136407736Y-73548071D01*
X136462730Y-73568687D01*
X136519494Y-73611329D01*
X136544194Y-73677890D01*
X136544500Y-73686669D01*
X136544500Y-73766763D01*
X136524498Y-73834884D01*
X136470842Y-73881377D01*
X136462731Y-73884744D01*
X136462642Y-73884777D01*
X136462638Y-73884779D01*
X136454236Y-73887929D01*
X136447057Y-73893309D01*
X136447054Y-73893311D01*
X136363421Y-73955991D01*
X136338596Y-73974596D01*
X136332994Y-73982071D01*
X136257311Y-74083054D01*
X136257309Y-74083057D01*
X136251929Y-74090236D01*
X136246794Y-74103934D01*
X136211257Y-74198729D01*
X136168616Y-74255494D01*
X136102054Y-74280194D01*
X136093275Y-74280500D01*
X135861571Y-74280500D01*
X135793450Y-74260498D01*
X135745161Y-74202716D01*
X135743155Y-74197872D01*
X135740734Y-74185699D01*
X135684484Y-74101516D01*
X135600301Y-74045266D01*
X135526067Y-74030500D01*
X135498287Y-74030500D01*
X134703629Y-74030501D01*
X134635509Y-74010499D01*
X134589016Y-73956843D01*
X134578912Y-73886569D01*
X134608405Y-73821989D01*
X134668132Y-73783605D01*
X134675500Y-73781681D01*
X134708929Y-73774025D01*
X134708933Y-73774024D01*
X134716332Y-73772329D01*
X134796049Y-73732236D01*
X134851072Y-73704563D01*
X134851075Y-73704561D01*
X134857855Y-73701151D01*
X134863626Y-73696222D01*
X134863629Y-73696220D01*
X134972536Y-73603204D01*
X134972536Y-73603203D01*
X134978314Y-73598269D01*
X135070755Y-73469624D01*
X135129842Y-73322641D01*
X135144558Y-73219236D01*
X135151581Y-73169891D01*
X135151581Y-73169888D01*
X135152162Y-73165807D01*
X135152307Y-73152000D01*
X135133276Y-72994733D01*
X135077280Y-72846546D01*
X135065974Y-72830095D01*
X135030253Y-72778121D01*
X135008153Y-72710652D01*
X135026039Y-72641945D01*
X135078230Y-72593814D01*
X135089864Y-72588772D01*
X135144067Y-72568452D01*
X135187764Y-72552071D01*
X135194943Y-72546691D01*
X135194946Y-72546689D01*
X135296224Y-72470785D01*
X135303404Y-72465404D01*
X135322533Y-72439880D01*
X135384689Y-72356946D01*
X135384691Y-72356943D01*
X135390071Y-72349764D01*
X135433629Y-72233571D01*
X135438026Y-72221843D01*
X135438026Y-72221841D01*
X135440798Y-72214448D01*
X135442242Y-72201161D01*
X135447131Y-72156153D01*
X135447131Y-72156152D01*
X135447500Y-72152756D01*
X135447500Y-71357244D01*
X135440798Y-71295552D01*
X135433129Y-71275093D01*
X135405557Y-71201546D01*
X135390071Y-71160236D01*
X135384691Y-71153057D01*
X135384689Y-71153054D01*
X135308785Y-71051776D01*
X135303404Y-71044596D01*
X135266105Y-71016642D01*
X135194946Y-70963311D01*
X135194943Y-70963309D01*
X135187764Y-70957929D01*
X135082455Y-70918451D01*
X135059843Y-70909974D01*
X135059841Y-70909974D01*
X135052448Y-70907202D01*
X135044598Y-70906349D01*
X135044597Y-70906349D01*
X134994153Y-70900869D01*
X134994152Y-70900869D01*
X134990756Y-70900500D01*
X133995244Y-70900500D01*
X133991848Y-70900869D01*
X133991847Y-70900869D01*
X133941403Y-70906349D01*
X133941402Y-70906349D01*
X133933552Y-70907202D01*
X133926159Y-70909974D01*
X133926157Y-70909974D01*
X133903545Y-70918451D01*
X133798236Y-70957929D01*
X133791055Y-70963311D01*
X133783179Y-70967623D01*
X133781528Y-70964607D01*
X133730585Y-70983653D01*
X133661199Y-70968615D01*
X133610959Y-70918451D01*
X133595500Y-70857981D01*
X133595500Y-70652019D01*
X133615502Y-70583898D01*
X133669158Y-70537405D01*
X133739432Y-70527301D01*
X133781811Y-70544875D01*
X133783179Y-70542377D01*
X133791053Y-70546688D01*
X133798236Y-70552071D01*
X133874928Y-70580821D01*
X133926157Y-70600026D01*
X133926159Y-70600026D01*
X133933552Y-70602798D01*
X133941402Y-70603651D01*
X133941403Y-70603651D01*
X133991847Y-70609131D01*
X133995244Y-70609500D01*
X134990756Y-70609500D01*
X134994153Y-70609131D01*
X135044597Y-70603651D01*
X135044598Y-70603651D01*
X135052448Y-70602798D01*
X135059841Y-70600026D01*
X135059843Y-70600026D01*
X135111072Y-70580821D01*
X135187764Y-70552071D01*
X135194943Y-70546691D01*
X135194946Y-70546689D01*
X135296224Y-70470785D01*
X135303404Y-70465404D01*
X135329944Y-70429992D01*
X135384689Y-70356946D01*
X135384691Y-70356943D01*
X135390071Y-70349764D01*
X135440798Y-70214448D01*
X135447500Y-70152756D01*
X135447500Y-69357244D01*
X135440798Y-69295552D01*
X135426806Y-69258227D01*
X135421623Y-69187423D01*
X135455543Y-69125054D01*
X135517799Y-69090925D01*
X135544788Y-69088000D01*
X140590000Y-69088000D01*
X140658121Y-69108002D01*
G37*
G04 #@! TD.AperFunction*
G04 #@! TA.AperFunction,Conductor*
G36*
X122493959Y-70887502D02*
G01*
X122514933Y-70904404D01*
X122902595Y-71292065D01*
X122936620Y-71354378D01*
X122939500Y-71381161D01*
X122939500Y-71929676D01*
X122916587Y-72002126D01*
X122862950Y-72078444D01*
X122841664Y-72133040D01*
X122815105Y-72201161D01*
X122805406Y-72226037D01*
X122804414Y-72233570D01*
X122804414Y-72233571D01*
X122785783Y-72375093D01*
X122784729Y-72383096D01*
X122793421Y-72461825D01*
X122800922Y-72529762D01*
X122802113Y-72540553D01*
X122804723Y-72547684D01*
X122804723Y-72547686D01*
X122849381Y-72669719D01*
X122856553Y-72689319D01*
X122860789Y-72695622D01*
X122860789Y-72695623D01*
X122929582Y-72797997D01*
X122944908Y-72820805D01*
X122950527Y-72825918D01*
X122950528Y-72825919D01*
X123051211Y-72917533D01*
X123062076Y-72927419D01*
X123201293Y-73003008D01*
X123218318Y-73007475D01*
X123218888Y-73007624D01*
X123279703Y-73044258D01*
X123311058Y-73107955D01*
X123302999Y-73178493D01*
X123258083Y-73233476D01*
X123186914Y-73255500D01*
X121250739Y-73255500D01*
X121182618Y-73235498D01*
X121161644Y-73218595D01*
X120975644Y-73032595D01*
X120941618Y-72970283D01*
X120946683Y-72899468D01*
X120989230Y-72842632D01*
X121055750Y-72817821D01*
X121064739Y-72817500D01*
X121956334Y-72817500D01*
X122051055Y-72802498D01*
X122165223Y-72744326D01*
X122255826Y-72653723D01*
X122313998Y-72539555D01*
X122329000Y-72444834D01*
X122329000Y-72081166D01*
X122313998Y-71986445D01*
X122255826Y-71872277D01*
X122165223Y-71781674D01*
X122051055Y-71723502D01*
X121956334Y-71708500D01*
X120867666Y-71708500D01*
X120862779Y-71709274D01*
X120858155Y-71709638D01*
X120788674Y-71695044D01*
X120759171Y-71673122D01*
X120737157Y-71651107D01*
X120710404Y-71624354D01*
X120676379Y-71562041D01*
X120673500Y-71535259D01*
X120673500Y-71034274D01*
X120693502Y-70966153D01*
X120747158Y-70919660D01*
X120819209Y-70909825D01*
X120855372Y-70915553D01*
X120862778Y-70916726D01*
X120862780Y-70916726D01*
X120867666Y-70917500D01*
X121956334Y-70917500D01*
X122051055Y-70902498D01*
X122063294Y-70896262D01*
X122092790Y-70881233D01*
X122149993Y-70867500D01*
X122425838Y-70867500D01*
X122493959Y-70887502D01*
G37*
G04 #@! TD.AperFunction*
M02*
