G04 #@! TF.GenerationSoftware,KiCad,Pcbnew,6.0.10*
G04 #@! TF.CreationDate,2023-06-20T13:49:35-05:00*
G04 #@! TF.ProjectId,sensor_sigfox_2,73656e73-6f72-45f7-9369-67666f785f32,rev?*
G04 #@! TF.SameCoordinates,Original*
G04 #@! TF.FileFunction,Soldermask,Bot*
G04 #@! TF.FilePolarity,Negative*
%FSLAX46Y46*%
G04 Gerber Fmt 4.6, Leading zero omitted, Abs format (unit mm)*
G04 Created by KiCad (PCBNEW 6.0.10) date 2023-06-20 13:49:35*
%MOMM*%
%LPD*%
G01*
G04 APERTURE LIST*
G04 Aperture macros list*
%AMRoundRect*
0 Rectangle with rounded corners*
0 $1 Rounding radius*
0 $2 $3 $4 $5 $6 $7 $8 $9 X,Y pos of 4 corners*
0 Add a 4 corners polygon primitive as box body*
4,1,4,$2,$3,$4,$5,$6,$7,$8,$9,$2,$3,0*
0 Add four circle primitives for the rounded corners*
1,1,$1+$1,$2,$3*
1,1,$1+$1,$4,$5*
1,1,$1+$1,$6,$7*
1,1,$1+$1,$8,$9*
0 Add four rect primitives between the rounded corners*
20,1,$1+$1,$2,$3,$4,$5,0*
20,1,$1+$1,$4,$5,$6,$7,0*
20,1,$1+$1,$6,$7,$8,$9,0*
20,1,$1+$1,$8,$9,$2,$3,0*%
G04 Aperture macros list end*
%ADD10R,1.700000X1.700000*%
%ADD11O,1.700000X1.700000*%
%ADD12R,1.000000X1.000000*%
%ADD13RoundRect,0.150000X-0.150000X0.512500X-0.150000X-0.512500X0.150000X-0.512500X0.150000X0.512500X0*%
%ADD14RoundRect,0.250000X-0.450000X0.350000X-0.450000X-0.350000X0.450000X-0.350000X0.450000X0.350000X0*%
%ADD15RoundRect,0.250000X-0.350000X-0.450000X0.350000X-0.450000X0.350000X0.450000X-0.350000X0.450000X0*%
%ADD16RoundRect,0.250000X0.350000X0.450000X-0.350000X0.450000X-0.350000X-0.450000X0.350000X-0.450000X0*%
%ADD17R,1.500000X0.650000*%
%ADD18RoundRect,0.150000X-0.512500X-0.150000X0.512500X-0.150000X0.512500X0.150000X-0.512500X0.150000X0*%
%ADD19RoundRect,0.250000X-0.337500X-0.475000X0.337500X-0.475000X0.337500X0.475000X-0.337500X0.475000X0*%
%ADD20RoundRect,0.250000X-0.475000X0.337500X-0.475000X-0.337500X0.475000X-0.337500X0.475000X0.337500X0*%
%ADD21RoundRect,0.250000X0.337500X0.475000X-0.337500X0.475000X-0.337500X-0.475000X0.337500X-0.475000X0*%
%ADD22RoundRect,0.250000X0.450000X-0.350000X0.450000X0.350000X-0.450000X0.350000X-0.450000X-0.350000X0*%
%ADD23RoundRect,0.125000X-0.125000X0.825000X-0.125000X-0.825000X0.125000X-0.825000X0.125000X0.825000X0*%
%ADD24RoundRect,0.250000X-0.450000X0.325000X-0.450000X-0.325000X0.450000X-0.325000X0.450000X0.325000X0*%
G04 APERTURE END LIST*
D10*
X126746000Y-89662000D03*
D11*
X124206000Y-89662000D03*
X121666000Y-89662000D03*
D10*
X117856000Y-89662000D03*
D11*
X117856000Y-87122000D03*
D12*
X135001000Y-74785000D03*
X135001000Y-77285000D03*
D13*
X137033000Y-79230000D03*
X137983000Y-79230000D03*
X138933000Y-79230000D03*
X138933000Y-81505000D03*
X137983000Y-81505000D03*
X137033000Y-81505000D03*
D14*
X116713000Y-74327000D03*
X116713000Y-76327000D03*
D15*
X125254000Y-72009000D03*
X127254000Y-72009000D03*
D16*
X139049000Y-74785000D03*
X137049000Y-74785000D03*
D17*
X124046000Y-40767000D03*
X124046000Y-39497000D03*
X124046000Y-38227000D03*
X124046000Y-36957000D03*
X129446000Y-36957000D03*
X129446000Y-38227000D03*
X129446000Y-39497000D03*
X129446000Y-40767000D03*
D18*
X119137000Y-72263000D03*
X119137000Y-71313000D03*
X119137000Y-70363000D03*
X121412000Y-70363000D03*
X121412000Y-71313000D03*
X121412000Y-72263000D03*
D19*
X135847000Y-84183000D03*
X137922000Y-84183000D03*
D20*
X122047000Y-78062000D03*
X122047000Y-80137000D03*
D21*
X139065000Y-72626000D03*
X136990000Y-72626000D03*
D14*
X120904000Y-82042000D03*
X120904000Y-84042000D03*
D16*
X127254000Y-73914000D03*
X125254000Y-73914000D03*
D22*
X134493000Y-71755000D03*
X134493000Y-69755000D03*
X118745000Y-76327000D03*
X118745000Y-74327000D03*
X116713000Y-72390000D03*
X116713000Y-70390000D03*
X131953000Y-71755000D03*
X131953000Y-69755000D03*
D23*
X123877000Y-78090000D03*
X124527000Y-78090000D03*
X125177000Y-78090000D03*
X125827000Y-78090000D03*
X126477000Y-78090000D03*
X127127000Y-78090000D03*
X127777000Y-78090000D03*
X128427000Y-78090000D03*
X129077000Y-78090000D03*
X129727000Y-78090000D03*
X129727000Y-85090000D03*
X129077000Y-85090000D03*
X128427000Y-85090000D03*
X127777000Y-85090000D03*
X127127000Y-85090000D03*
X126477000Y-85090000D03*
X125827000Y-85090000D03*
X125177000Y-85090000D03*
X124527000Y-85090000D03*
X123877000Y-85090000D03*
D24*
X134874000Y-79484000D03*
X134874000Y-81534000D03*
D15*
X137033000Y-76817000D03*
X139033000Y-76817000D03*
D20*
X120015000Y-78083500D03*
X120015000Y-80158500D03*
M02*
