G04 #@! TF.GenerationSoftware,KiCad,Pcbnew,6.0.10*
G04 #@! TF.CreationDate,2023-06-20T13:49:34-05:00*
G04 #@! TF.ProjectId,sensor_sigfox_2,73656e73-6f72-45f7-9369-67666f785f32,rev?*
G04 #@! TF.SameCoordinates,Original*
G04 #@! TF.FileFunction,Copper,L1,Top*
G04 #@! TF.FilePolarity,Positive*
%FSLAX46Y46*%
G04 Gerber Fmt 4.6, Leading zero omitted, Abs format (unit mm)*
G04 Created by KiCad (PCBNEW 6.0.10) date 2023-06-20 13:49:34*
%MOMM*%
%LPD*%
G01*
G04 APERTURE LIST*
G04 Aperture macros list*
%AMRoundRect*
0 Rectangle with rounded corners*
0 $1 Rounding radius*
0 $2 $3 $4 $5 $6 $7 $8 $9 X,Y pos of 4 corners*
0 Add a 4 corners polygon primitive as box body*
4,1,4,$2,$3,$4,$5,$6,$7,$8,$9,$2,$3,0*
0 Add four circle primitives for the rounded corners*
1,1,$1+$1,$2,$3*
1,1,$1+$1,$4,$5*
1,1,$1+$1,$6,$7*
1,1,$1+$1,$8,$9*
0 Add four rect primitives between the rounded corners*
20,1,$1+$1,$2,$3,$4,$5,0*
20,1,$1+$1,$4,$5,$6,$7,0*
20,1,$1+$1,$6,$7,$8,$9,0*
20,1,$1+$1,$8,$9,$2,$3,0*%
G04 Aperture macros list end*
G04 #@! TA.AperFunction,ComponentPad*
%ADD10R,1.700000X1.700000*%
G04 #@! TD*
G04 #@! TA.AperFunction,ComponentPad*
%ADD11O,1.700000X1.700000*%
G04 #@! TD*
G04 #@! TA.AperFunction,SMDPad,CuDef*
%ADD12RoundRect,0.250000X0.475000X-0.337500X0.475000X0.337500X-0.475000X0.337500X-0.475000X-0.337500X0*%
G04 #@! TD*
G04 #@! TA.AperFunction,SMDPad,CuDef*
%ADD13R,1.050000X1.250000*%
G04 #@! TD*
G04 #@! TA.AperFunction,SMDPad,CuDef*
%ADD14R,1.250000X1.050000*%
G04 #@! TD*
G04 #@! TA.AperFunction,SMDPad,CuDef*
%ADD15R,12.800000X2.880000*%
G04 #@! TD*
G04 #@! TA.AperFunction,SMDPad,CuDef*
%ADD16RoundRect,0.250000X0.337500X0.475000X-0.337500X0.475000X-0.337500X-0.475000X0.337500X-0.475000X0*%
G04 #@! TD*
G04 #@! TA.AperFunction,SMDPad,CuDef*
%ADD17RoundRect,0.237500X-0.287500X-0.237500X0.287500X-0.237500X0.287500X0.237500X-0.287500X0.237500X0*%
G04 #@! TD*
G04 #@! TA.AperFunction,SMDPad,CuDef*
%ADD18RoundRect,0.250000X-0.350000X-0.450000X0.350000X-0.450000X0.350000X0.450000X-0.350000X0.450000X0*%
G04 #@! TD*
G04 #@! TA.AperFunction,ViaPad*
%ADD19C,0.800000*%
G04 #@! TD*
G04 #@! TA.AperFunction,Conductor*
%ADD20C,0.300000*%
G04 #@! TD*
G04 #@! TA.AperFunction,Conductor*
%ADD21C,0.500000*%
G04 #@! TD*
G04 APERTURE END LIST*
D10*
X126746000Y-89662000D03*
D11*
X124206000Y-89662000D03*
X121666000Y-89662000D03*
D10*
X117856000Y-89662000D03*
D11*
X117856000Y-87122000D03*
D12*
X125730000Y-40132000D03*
X125730000Y-38057000D03*
X127762000Y-40132000D03*
X127762000Y-38057000D03*
D13*
X119844000Y-82804000D03*
X121644000Y-82804000D03*
X123444000Y-82804000D03*
X125244000Y-82804000D03*
X127044000Y-82804000D03*
X128844000Y-82804000D03*
X130644000Y-82804000D03*
X132444000Y-82804000D03*
X134244000Y-82804000D03*
X136044000Y-82804000D03*
D14*
X138590000Y-81448000D03*
X138590000Y-79648000D03*
X138590000Y-77848000D03*
X138590000Y-76048000D03*
X138590000Y-74248000D03*
X138590000Y-72448000D03*
D13*
X136044000Y-71132000D03*
X134244000Y-71132000D03*
X132444000Y-71132000D03*
X130644000Y-71132000D03*
X128844000Y-71132000D03*
X127044000Y-71132000D03*
X125244000Y-71132000D03*
X123444000Y-71132000D03*
X121644000Y-71132000D03*
X119844000Y-71132000D03*
X118044000Y-71132000D03*
D14*
X116158000Y-72448000D03*
X116158000Y-74248000D03*
X116158000Y-76048000D03*
X116158000Y-77848000D03*
X116158000Y-81448000D03*
D13*
X118044000Y-82804000D03*
D15*
X128071000Y-77495000D03*
D16*
X139827000Y-69215000D03*
X137752000Y-69215000D03*
D17*
X129822000Y-90424000D03*
X131572000Y-90424000D03*
D18*
X129572000Y-88392000D03*
X131572000Y-88392000D03*
D19*
X125730000Y-81026000D03*
X121412000Y-75184000D03*
X134620000Y-87630000D03*
X137160000Y-87630000D03*
X139700000Y-87630000D03*
X138430000Y-90170000D03*
X135890000Y-90170000D03*
X133350000Y-90170000D03*
X115570000Y-87630000D03*
X115570000Y-90170000D03*
X122428000Y-71374000D03*
X117729000Y-84328000D03*
X135636000Y-73152000D03*
X125476000Y-36957000D03*
X136271000Y-69342000D03*
X119253000Y-84328000D03*
X120142000Y-76327000D03*
X140208000Y-73533000D03*
X123571000Y-69850000D03*
X123507500Y-79946500D03*
X131445000Y-80010000D03*
X129727000Y-73212000D03*
X134493000Y-73152000D03*
X123444000Y-72390000D03*
X132588000Y-74676000D03*
X139827000Y-70866000D03*
X129413000Y-42164000D03*
X125095000Y-42037000D03*
X126238000Y-87249000D03*
X125095000Y-87249000D03*
X123317000Y-87249000D03*
X128016000Y-81026000D03*
X127762000Y-87249000D03*
D20*
X123571000Y-38735000D02*
X123571000Y-69850000D01*
D21*
X129822000Y-90424000D02*
X127508000Y-90424000D01*
X125730000Y-38057000D02*
X127762000Y-38057000D01*
D20*
X124249000Y-38057000D02*
X123571000Y-38735000D01*
D21*
X127508000Y-90424000D02*
X126746000Y-89662000D01*
X136398000Y-69215000D02*
X136271000Y-69342000D01*
X125476000Y-36957000D02*
X125476000Y-37803000D01*
X137752000Y-69215000D02*
X136398000Y-69215000D01*
D20*
X125730000Y-38057000D02*
X124249000Y-38057000D01*
D21*
X125476000Y-37803000D02*
X125730000Y-38057000D01*
D20*
X123571000Y-80010000D02*
X123507500Y-79946500D01*
X131445000Y-80010000D02*
X123571000Y-80010000D01*
X134493000Y-73152000D02*
X129787000Y-73152000D01*
X129787000Y-73152000D02*
X129727000Y-73212000D01*
D21*
X131572000Y-90424000D02*
X131572000Y-88392000D01*
X124333000Y-74676000D02*
X123444000Y-73787000D01*
X132588000Y-74676000D02*
X124333000Y-74676000D01*
X123444000Y-73787000D02*
X123444000Y-72390000D01*
D20*
X130937000Y-70104000D02*
X129413000Y-68580000D01*
X125730000Y-41402000D02*
X125095000Y-42037000D01*
D21*
X139827000Y-72009000D02*
X139827000Y-70866000D01*
X138590000Y-74248000D02*
X138590000Y-72448000D01*
D20*
X137628000Y-70866000D02*
X136866000Y-70104000D01*
D21*
X129413000Y-40640000D02*
X128905000Y-40132000D01*
D20*
X129413000Y-68580000D02*
X129413000Y-68072000D01*
X129413000Y-42164000D02*
X129413000Y-68072000D01*
D21*
X139388000Y-72448000D02*
X139827000Y-72009000D01*
D20*
X136866000Y-70104000D02*
X130937000Y-70104000D01*
X139827000Y-70866000D02*
X137628000Y-70866000D01*
D21*
X129413000Y-42164000D02*
X129413000Y-40640000D01*
X138590000Y-72448000D02*
X139388000Y-72448000D01*
D20*
X125730000Y-40132000D02*
X125730000Y-41402000D01*
D21*
X139827000Y-70866000D02*
X139827000Y-69215000D01*
X128905000Y-40132000D02*
X125730000Y-40132000D01*
X127127000Y-86233000D02*
X126238000Y-87122000D01*
X132444000Y-84091000D02*
X130302000Y-86233000D01*
X130302000Y-86233000D02*
X127127000Y-86233000D01*
X132444000Y-82804000D02*
X132444000Y-84091000D01*
X126238000Y-87122000D02*
X126238000Y-87249000D01*
X125095000Y-86106000D02*
X125095000Y-87249000D01*
X130644000Y-82804000D02*
X130644000Y-84621000D01*
X129794000Y-85471000D02*
X125730000Y-85471000D01*
X130644000Y-84621000D02*
X129794000Y-85471000D01*
X125730000Y-85471000D02*
X125095000Y-86106000D01*
X127762000Y-84582000D02*
X124968000Y-84582000D01*
X124968000Y-84582000D02*
X123317000Y-86233000D01*
X123317000Y-86233000D02*
X123317000Y-87249000D01*
X128844000Y-83500000D02*
X127762000Y-84582000D01*
X128844000Y-82804000D02*
X128844000Y-83500000D01*
D20*
X137544000Y-77848000D02*
X138590000Y-77848000D01*
X128016000Y-81026000D02*
X134366000Y-81026000D01*
X134366000Y-81026000D02*
X137544000Y-77848000D01*
X127762000Y-87249000D02*
X128429000Y-87249000D01*
X128429000Y-87249000D02*
X129572000Y-88392000D01*
G04 #@! TA.AperFunction,Conductor*
G36*
X129364881Y-69108002D02*
G01*
X129385851Y-69124901D01*
X130298358Y-70037408D01*
X130332382Y-70099718D01*
X130327318Y-70170533D01*
X130284771Y-70227369D01*
X130218251Y-70252180D01*
X130209262Y-70252501D01*
X130093934Y-70252501D01*
X130058182Y-70259612D01*
X130031874Y-70264844D01*
X130031872Y-70264845D01*
X130019699Y-70267266D01*
X130009379Y-70274161D01*
X130009378Y-70274162D01*
X129948985Y-70314516D01*
X129935516Y-70323516D01*
X129879266Y-70407699D01*
X129876845Y-70419871D01*
X129867578Y-70466458D01*
X129834670Y-70529367D01*
X129772975Y-70564499D01*
X129702080Y-70560699D01*
X129644494Y-70519173D01*
X129620420Y-70466455D01*
X129608734Y-70407699D01*
X129552484Y-70323516D01*
X129468301Y-70267266D01*
X129394067Y-70252500D01*
X128844089Y-70252500D01*
X128293934Y-70252501D01*
X128258182Y-70259612D01*
X128231874Y-70264844D01*
X128231872Y-70264845D01*
X128219699Y-70267266D01*
X128209379Y-70274161D01*
X128209378Y-70274162D01*
X128148985Y-70314516D01*
X128135516Y-70323516D01*
X128079266Y-70407699D01*
X128064500Y-70481933D01*
X128064501Y-71782066D01*
X128067579Y-71797542D01*
X128075203Y-71835872D01*
X128079266Y-71856301D01*
X128135516Y-71940484D01*
X128219699Y-71996734D01*
X128293933Y-72011500D01*
X128843911Y-72011500D01*
X129394066Y-72011499D01*
X129429818Y-72004388D01*
X129456126Y-71999156D01*
X129456128Y-71999155D01*
X129468301Y-71996734D01*
X129478621Y-71989839D01*
X129478622Y-71989838D01*
X129542168Y-71947377D01*
X129552484Y-71940484D01*
X129608734Y-71856301D01*
X129615715Y-71821203D01*
X129620422Y-71797542D01*
X129653330Y-71734633D01*
X129715025Y-71699501D01*
X129785920Y-71703301D01*
X129843506Y-71744827D01*
X129867579Y-71797542D01*
X129879266Y-71856301D01*
X129935516Y-71940484D01*
X130019699Y-71996734D01*
X130093933Y-72011500D01*
X130643911Y-72011500D01*
X131194066Y-72011499D01*
X131229818Y-72004388D01*
X131256126Y-71999156D01*
X131256128Y-71999155D01*
X131268301Y-71996734D01*
X131278621Y-71989839D01*
X131278622Y-71989838D01*
X131342168Y-71947377D01*
X131352484Y-71940484D01*
X131408734Y-71856301D01*
X131415715Y-71821203D01*
X131420422Y-71797542D01*
X131453330Y-71734633D01*
X131515025Y-71699501D01*
X131585920Y-71703301D01*
X131643506Y-71744827D01*
X131667579Y-71797542D01*
X131679266Y-71856301D01*
X131735516Y-71940484D01*
X131819699Y-71996734D01*
X131893933Y-72011500D01*
X132443911Y-72011500D01*
X132994066Y-72011499D01*
X133029818Y-72004388D01*
X133056126Y-71999156D01*
X133056128Y-71999155D01*
X133068301Y-71996734D01*
X133078621Y-71989839D01*
X133078622Y-71989838D01*
X133142168Y-71947377D01*
X133152484Y-71940484D01*
X133208734Y-71856301D01*
X133215715Y-71821203D01*
X133220422Y-71797542D01*
X133253330Y-71734633D01*
X133315025Y-71699501D01*
X133385920Y-71703301D01*
X133443506Y-71744827D01*
X133467579Y-71797542D01*
X133479266Y-71856301D01*
X133535516Y-71940484D01*
X133619699Y-71996734D01*
X133693933Y-72011500D01*
X134243911Y-72011500D01*
X134794066Y-72011499D01*
X134829818Y-72004388D01*
X134856126Y-71999156D01*
X134856128Y-71999155D01*
X134868301Y-71996734D01*
X134878621Y-71989839D01*
X134878622Y-71989838D01*
X134942168Y-71947377D01*
X134952484Y-71940484D01*
X135008734Y-71856301D01*
X135015715Y-71821203D01*
X135020422Y-71797542D01*
X135053330Y-71734633D01*
X135115025Y-71699501D01*
X135185920Y-71703301D01*
X135243506Y-71744827D01*
X135267579Y-71797542D01*
X135279266Y-71856301D01*
X135335516Y-71940484D01*
X135419699Y-71996734D01*
X135493933Y-72011500D01*
X136043911Y-72011500D01*
X136594066Y-72011499D01*
X136629818Y-72004388D01*
X136656126Y-71999156D01*
X136656128Y-71999155D01*
X136668301Y-71996734D01*
X136678621Y-71989839D01*
X136678622Y-71989838D01*
X136742168Y-71947377D01*
X136752484Y-71940484D01*
X136808734Y-71856301D01*
X136823500Y-71782067D01*
X136823499Y-70937739D01*
X136843501Y-70869619D01*
X136897157Y-70823126D01*
X136967431Y-70813022D01*
X137032011Y-70842515D01*
X137038594Y-70848644D01*
X137211733Y-71021782D01*
X137387277Y-71197326D01*
X137396108Y-71201826D01*
X137396110Y-71201827D01*
X137401780Y-71204716D01*
X137407160Y-71207457D01*
X137424013Y-71217784D01*
X137442071Y-71230905D01*
X137463295Y-71237801D01*
X137481561Y-71245366D01*
X137501445Y-71255498D01*
X137511238Y-71257049D01*
X137523487Y-71258989D01*
X137542713Y-71263605D01*
X137554500Y-71267435D01*
X137554502Y-71267435D01*
X137563934Y-71270500D01*
X139196500Y-71270500D01*
X139264621Y-71290502D01*
X139311114Y-71344158D01*
X139322500Y-71396500D01*
X139322500Y-71542500D01*
X139302498Y-71610621D01*
X139248842Y-71657114D01*
X139196500Y-71668500D01*
X138101654Y-71668501D01*
X137939934Y-71668501D01*
X137904182Y-71675612D01*
X137877874Y-71680844D01*
X137877872Y-71680845D01*
X137865699Y-71683266D01*
X137855379Y-71690161D01*
X137855378Y-71690162D01*
X137841402Y-71699501D01*
X137781516Y-71739516D01*
X137725266Y-71823699D01*
X137710500Y-71897933D01*
X137710501Y-72998066D01*
X137725266Y-73072301D01*
X137781516Y-73156484D01*
X137865699Y-73212734D01*
X137900797Y-73219715D01*
X137924458Y-73224422D01*
X137987367Y-73257330D01*
X138022499Y-73319025D01*
X138018699Y-73389920D01*
X137977173Y-73447506D01*
X137924456Y-73471579D01*
X137865699Y-73483266D01*
X137855379Y-73490161D01*
X137855378Y-73490162D01*
X137834392Y-73504185D01*
X137781516Y-73539516D01*
X137725266Y-73623699D01*
X137710500Y-73697933D01*
X137710501Y-74798066D01*
X137725266Y-74872301D01*
X137781516Y-74956484D01*
X137865699Y-75012734D01*
X137939933Y-75027500D01*
X138589894Y-75027500D01*
X139240066Y-75027499D01*
X139275818Y-75020388D01*
X139302126Y-75015156D01*
X139302128Y-75015155D01*
X139314301Y-75012734D01*
X139324621Y-75005839D01*
X139324622Y-75005838D01*
X139388168Y-74963377D01*
X139398484Y-74956484D01*
X139454734Y-74872301D01*
X139469500Y-74798067D01*
X139469499Y-73697934D01*
X139454734Y-73623699D01*
X139444895Y-73608973D01*
X139405377Y-73549832D01*
X139398484Y-73539516D01*
X139314301Y-73483266D01*
X139276757Y-73475798D01*
X139255542Y-73471578D01*
X139192633Y-73438670D01*
X139157501Y-73376975D01*
X139161301Y-73306080D01*
X139202827Y-73248494D01*
X139255544Y-73224421D01*
X139314301Y-73212734D01*
X139324621Y-73205839D01*
X139324622Y-73205838D01*
X139388168Y-73163377D01*
X139398484Y-73156484D01*
X139454734Y-73072301D01*
X139464085Y-73025291D01*
X139496993Y-72962381D01*
X139535512Y-72935173D01*
X139573772Y-72917778D01*
X139583128Y-72913970D01*
X139618837Y-72901078D01*
X139618840Y-72901076D01*
X139627284Y-72898028D01*
X139634533Y-72892732D01*
X139637490Y-72891160D01*
X139651614Y-72882907D01*
X139654437Y-72881102D01*
X139662605Y-72877388D01*
X139669402Y-72871531D01*
X139669404Y-72871530D01*
X139690155Y-72853649D01*
X139698158Y-72846753D01*
X139706064Y-72840475D01*
X139716944Y-72832527D01*
X139727806Y-72821665D01*
X139734653Y-72815307D01*
X139765282Y-72788915D01*
X139772082Y-72783056D01*
X139776966Y-72775521D01*
X139782699Y-72768949D01*
X139791926Y-72757545D01*
X140133794Y-72415677D01*
X140143234Y-72408135D01*
X140142911Y-72407755D01*
X140149747Y-72401937D01*
X140157339Y-72397147D01*
X140192672Y-72357140D01*
X140198017Y-72351454D01*
X140209351Y-72340120D01*
X140212038Y-72336534D01*
X140212043Y-72336529D01*
X140215557Y-72331841D01*
X140221938Y-72324003D01*
X140247058Y-72295559D01*
X140253001Y-72288830D01*
X140256816Y-72280705D01*
X140258669Y-72277884D01*
X140267077Y-72263888D01*
X140268686Y-72260950D01*
X140274071Y-72253764D01*
X140279129Y-72240273D01*
X140290544Y-72209822D01*
X140294471Y-72200501D01*
X140310602Y-72166144D01*
X140310602Y-72166143D01*
X140314417Y-72158018D01*
X140315798Y-72149147D01*
X140316783Y-72145925D01*
X140320923Y-72130142D01*
X140321645Y-72126858D01*
X140324798Y-72118448D01*
X140328276Y-72071643D01*
X140329430Y-72061595D01*
X140330751Y-72053114D01*
X140330751Y-72053113D01*
X140331500Y-72048303D01*
X140331500Y-72032934D01*
X140331847Y-72023596D01*
X140334843Y-71983284D01*
X140334843Y-71983283D01*
X140335508Y-71974333D01*
X140333635Y-71965558D01*
X140333043Y-71956874D01*
X140331500Y-71942258D01*
X140331500Y-71326144D01*
X140355176Y-71252620D01*
X140404755Y-71183624D01*
X140463842Y-71036641D01*
X140465257Y-71026699D01*
X140465995Y-71025076D01*
X140466878Y-71021782D01*
X140467427Y-71021929D01*
X140494657Y-70962076D01*
X140554328Y-70923606D01*
X140625324Y-70923504D01*
X140685106Y-70961802D01*
X140714692Y-71026340D01*
X140716000Y-71044451D01*
X140716000Y-91567500D01*
X140695998Y-91635621D01*
X140642342Y-91682114D01*
X140590000Y-91693500D01*
X114426000Y-91693500D01*
X114357879Y-91673498D01*
X114311386Y-91619842D01*
X114300000Y-91567500D01*
X114300000Y-89632964D01*
X120557148Y-89632964D01*
X120570424Y-89835522D01*
X120571845Y-89841118D01*
X120571846Y-89841123D01*
X120601074Y-89956205D01*
X120620392Y-90032269D01*
X120622809Y-90037512D01*
X120660010Y-90118208D01*
X120705377Y-90216616D01*
X120822533Y-90382389D01*
X120967938Y-90524035D01*
X121136720Y-90636812D01*
X121142023Y-90639090D01*
X121142026Y-90639092D01*
X121317921Y-90714662D01*
X121323228Y-90716942D01*
X121396244Y-90733464D01*
X121515579Y-90760467D01*
X121515584Y-90760468D01*
X121521216Y-90761742D01*
X121526987Y-90761969D01*
X121526989Y-90761969D01*
X121586756Y-90764317D01*
X121724053Y-90769712D01*
X121824499Y-90755148D01*
X121919231Y-90741413D01*
X121919236Y-90741412D01*
X121924945Y-90740584D01*
X121930409Y-90738729D01*
X121930414Y-90738728D01*
X122111693Y-90677192D01*
X122111698Y-90677190D01*
X122117165Y-90675334D01*
X122294276Y-90576147D01*
X122356934Y-90524035D01*
X122445913Y-90450031D01*
X122450345Y-90446345D01*
X122580147Y-90290276D01*
X122679334Y-90113165D01*
X122681190Y-90107698D01*
X122681192Y-90107693D01*
X122742728Y-89926414D01*
X122742729Y-89926409D01*
X122744584Y-89920945D01*
X122745412Y-89915236D01*
X122745413Y-89915231D01*
X122773179Y-89723727D01*
X122773712Y-89720053D01*
X122775232Y-89662000D01*
X122772564Y-89632964D01*
X123097148Y-89632964D01*
X123110424Y-89835522D01*
X123111845Y-89841118D01*
X123111846Y-89841123D01*
X123141074Y-89956205D01*
X123160392Y-90032269D01*
X123162809Y-90037512D01*
X123200010Y-90118208D01*
X123245377Y-90216616D01*
X123362533Y-90382389D01*
X123507938Y-90524035D01*
X123676720Y-90636812D01*
X123682023Y-90639090D01*
X123682026Y-90639092D01*
X123857921Y-90714662D01*
X123863228Y-90716942D01*
X123936244Y-90733464D01*
X124055579Y-90760467D01*
X124055584Y-90760468D01*
X124061216Y-90761742D01*
X124066987Y-90761969D01*
X124066989Y-90761969D01*
X124126756Y-90764317D01*
X124264053Y-90769712D01*
X124364499Y-90755148D01*
X124459231Y-90741413D01*
X124459236Y-90741412D01*
X124464945Y-90740584D01*
X124470409Y-90738729D01*
X124470414Y-90738728D01*
X124651693Y-90677192D01*
X124651698Y-90677190D01*
X124657165Y-90675334D01*
X124834276Y-90576147D01*
X124896934Y-90524035D01*
X124985913Y-90450031D01*
X124990345Y-90446345D01*
X125120147Y-90290276D01*
X125219334Y-90113165D01*
X125221190Y-90107698D01*
X125221192Y-90107693D01*
X125282728Y-89926414D01*
X125282729Y-89926409D01*
X125284584Y-89920945D01*
X125285412Y-89915236D01*
X125285413Y-89915231D01*
X125313179Y-89723727D01*
X125313712Y-89720053D01*
X125315232Y-89662000D01*
X125296658Y-89459859D01*
X125295090Y-89454299D01*
X125243125Y-89270046D01*
X125243124Y-89270044D01*
X125241557Y-89264487D01*
X125230978Y-89243033D01*
X125154331Y-89087609D01*
X125151776Y-89082428D01*
X125030320Y-88919779D01*
X124881258Y-88781987D01*
X124876375Y-88778906D01*
X124876371Y-88778903D01*
X124714464Y-88676748D01*
X124709581Y-88673667D01*
X124521039Y-88598446D01*
X124515379Y-88597320D01*
X124515375Y-88597319D01*
X124327613Y-88559971D01*
X124327610Y-88559971D01*
X124321946Y-88558844D01*
X124316171Y-88558768D01*
X124316167Y-88558768D01*
X124214793Y-88557441D01*
X124118971Y-88556187D01*
X124113274Y-88557166D01*
X124113273Y-88557166D01*
X123924607Y-88589585D01*
X123918910Y-88590564D01*
X123728463Y-88660824D01*
X123554010Y-88764612D01*
X123549670Y-88768418D01*
X123549666Y-88768421D01*
X123529723Y-88785911D01*
X123401392Y-88898455D01*
X123275720Y-89057869D01*
X123273031Y-89062980D01*
X123273029Y-89062983D01*
X123260517Y-89086764D01*
X123181203Y-89237515D01*
X123121007Y-89431378D01*
X123097148Y-89632964D01*
X122772564Y-89632964D01*
X122756658Y-89459859D01*
X122755090Y-89454299D01*
X122703125Y-89270046D01*
X122703124Y-89270044D01*
X122701557Y-89264487D01*
X122690978Y-89243033D01*
X122614331Y-89087609D01*
X122611776Y-89082428D01*
X122490320Y-88919779D01*
X122341258Y-88781987D01*
X122336375Y-88778906D01*
X122336371Y-88778903D01*
X122174464Y-88676748D01*
X122169581Y-88673667D01*
X121981039Y-88598446D01*
X121975379Y-88597320D01*
X121975375Y-88597319D01*
X121787613Y-88559971D01*
X121787610Y-88559971D01*
X121781946Y-88558844D01*
X121776171Y-88558768D01*
X121776167Y-88558768D01*
X121674793Y-88557441D01*
X121578971Y-88556187D01*
X121573274Y-88557166D01*
X121573273Y-88557166D01*
X121384607Y-88589585D01*
X121378910Y-88590564D01*
X121188463Y-88660824D01*
X121014010Y-88764612D01*
X121009670Y-88768418D01*
X121009666Y-88768421D01*
X120989723Y-88785911D01*
X120861392Y-88898455D01*
X120735720Y-89057869D01*
X120733031Y-89062980D01*
X120733029Y-89062983D01*
X120720517Y-89086764D01*
X120641203Y-89237515D01*
X120581007Y-89431378D01*
X120557148Y-89632964D01*
X114300000Y-89632964D01*
X114300000Y-87092964D01*
X116747148Y-87092964D01*
X116760424Y-87295522D01*
X116761845Y-87301118D01*
X116761846Y-87301123D01*
X116793738Y-87426695D01*
X116810392Y-87492269D01*
X116812809Y-87497512D01*
X116847953Y-87573745D01*
X116895377Y-87676616D01*
X116911856Y-87699933D01*
X117000355Y-87825157D01*
X117012533Y-87842389D01*
X117016675Y-87846424D01*
X117032673Y-87862008D01*
X117157938Y-87984035D01*
X117326720Y-88096812D01*
X117332023Y-88099090D01*
X117332026Y-88099092D01*
X117420707Y-88137192D01*
X117513228Y-88176942D01*
X117586244Y-88193464D01*
X117705579Y-88220467D01*
X117705584Y-88220468D01*
X117711216Y-88221742D01*
X117716987Y-88221969D01*
X117716989Y-88221969D01*
X117776756Y-88224317D01*
X117914053Y-88229712D01*
X118014499Y-88215148D01*
X118109231Y-88201413D01*
X118109236Y-88201412D01*
X118114945Y-88200584D01*
X118120409Y-88198729D01*
X118120414Y-88198728D01*
X118301693Y-88137192D01*
X118301698Y-88137190D01*
X118307165Y-88135334D01*
X118484276Y-88036147D01*
X118546934Y-87984035D01*
X118635913Y-87910031D01*
X118640345Y-87906345D01*
X118697463Y-87837669D01*
X118766453Y-87754718D01*
X118766455Y-87754715D01*
X118770147Y-87750276D01*
X118829845Y-87643677D01*
X118866510Y-87578208D01*
X118866511Y-87578206D01*
X118869334Y-87573165D01*
X118871190Y-87567698D01*
X118871192Y-87567693D01*
X118932728Y-87386414D01*
X118932729Y-87386409D01*
X118934584Y-87380945D01*
X118935412Y-87375236D01*
X118935413Y-87375231D01*
X118954716Y-87242096D01*
X122657729Y-87242096D01*
X122664246Y-87301123D01*
X122673059Y-87380945D01*
X122675113Y-87399553D01*
X122677723Y-87406684D01*
X122677723Y-87406686D01*
X122711985Y-87500311D01*
X122729553Y-87548319D01*
X122733789Y-87554622D01*
X122733789Y-87554623D01*
X122812241Y-87671371D01*
X122817908Y-87679805D01*
X122823527Y-87684918D01*
X122823528Y-87684919D01*
X122889811Y-87745231D01*
X122935076Y-87786419D01*
X123074293Y-87862008D01*
X123227522Y-87902207D01*
X123311477Y-87903526D01*
X123378319Y-87904576D01*
X123378322Y-87904576D01*
X123385916Y-87904695D01*
X123540332Y-87869329D01*
X123628159Y-87825157D01*
X123675072Y-87801563D01*
X123675075Y-87801561D01*
X123681855Y-87798151D01*
X123687626Y-87793222D01*
X123687629Y-87793220D01*
X123796536Y-87700204D01*
X123796536Y-87700203D01*
X123802314Y-87695269D01*
X123894755Y-87566624D01*
X123953842Y-87419641D01*
X123976162Y-87262807D01*
X123976307Y-87249000D01*
X123957276Y-87091733D01*
X123901280Y-86943546D01*
X123865426Y-86891378D01*
X123843660Y-86859708D01*
X123821500Y-86788341D01*
X123821500Y-86494161D01*
X123841502Y-86426040D01*
X123858405Y-86405066D01*
X124387274Y-85876197D01*
X124449586Y-85842171D01*
X124520401Y-85847236D01*
X124577237Y-85889783D01*
X124602048Y-85956303D01*
X124599586Y-85990194D01*
X124597202Y-85996552D01*
X124595670Y-86017166D01*
X124593724Y-86043357D01*
X124592570Y-86053404D01*
X124591452Y-86060586D01*
X124590500Y-86066697D01*
X124590500Y-86082062D01*
X124590154Y-86091399D01*
X124586493Y-86140667D01*
X124588366Y-86149442D01*
X124588959Y-86158138D01*
X124590500Y-86172738D01*
X124590500Y-86788676D01*
X124567587Y-86861126D01*
X124513950Y-86937444D01*
X124456406Y-87085037D01*
X124435729Y-87242096D01*
X124442246Y-87301123D01*
X124451059Y-87380945D01*
X124453113Y-87399553D01*
X124455723Y-87406684D01*
X124455723Y-87406686D01*
X124489985Y-87500311D01*
X124507553Y-87548319D01*
X124511789Y-87554622D01*
X124511789Y-87554623D01*
X124590241Y-87671371D01*
X124595908Y-87679805D01*
X124601527Y-87684918D01*
X124601528Y-87684919D01*
X124667811Y-87745231D01*
X124713076Y-87786419D01*
X124852293Y-87862008D01*
X125005522Y-87902207D01*
X125089477Y-87903526D01*
X125156319Y-87904576D01*
X125156322Y-87904576D01*
X125163916Y-87904695D01*
X125318332Y-87869329D01*
X125406159Y-87825157D01*
X125453072Y-87801563D01*
X125453075Y-87801561D01*
X125459855Y-87798151D01*
X125465626Y-87793222D01*
X125465629Y-87793220D01*
X125574536Y-87700204D01*
X125574536Y-87700203D01*
X125580314Y-87695269D01*
X125581068Y-87696152D01*
X125635617Y-87663327D01*
X125706583Y-87665420D01*
X125752335Y-87692023D01*
X125816355Y-87750276D01*
X125856076Y-87786419D01*
X125995293Y-87862008D01*
X126148522Y-87902207D01*
X126232477Y-87903526D01*
X126299319Y-87904576D01*
X126299322Y-87904576D01*
X126306916Y-87904695D01*
X126461332Y-87869329D01*
X126549159Y-87825157D01*
X126596072Y-87801563D01*
X126596075Y-87801561D01*
X126602855Y-87798151D01*
X126608626Y-87793222D01*
X126608629Y-87793220D01*
X126717536Y-87700204D01*
X126717536Y-87700203D01*
X126723314Y-87695269D01*
X126815755Y-87566624D01*
X126874842Y-87419641D01*
X126875913Y-87412114D01*
X126877878Y-87404782D01*
X126880516Y-87405489D01*
X126904592Y-87352572D01*
X126964263Y-87314103D01*
X127035260Y-87314003D01*
X127095040Y-87352302D01*
X127119356Y-87399830D01*
X127120113Y-87399553D01*
X127122027Y-87404782D01*
X127122723Y-87406685D01*
X127153863Y-87491779D01*
X127174553Y-87548319D01*
X127178789Y-87554622D01*
X127178789Y-87554623D01*
X127257241Y-87671371D01*
X127262908Y-87679805D01*
X127268527Y-87684918D01*
X127268528Y-87684919D01*
X127334811Y-87745231D01*
X127380076Y-87786419D01*
X127519293Y-87862008D01*
X127672522Y-87902207D01*
X127756477Y-87903526D01*
X127823319Y-87904576D01*
X127823322Y-87904576D01*
X127830916Y-87904695D01*
X127985332Y-87869329D01*
X128073159Y-87825157D01*
X128120072Y-87801563D01*
X128120075Y-87801561D01*
X128126855Y-87798151D01*
X128132628Y-87793220D01*
X128132633Y-87793217D01*
X128188901Y-87745160D01*
X128253691Y-87716129D01*
X128323891Y-87726734D01*
X128359826Y-87751876D01*
X128680595Y-88072645D01*
X128714621Y-88134957D01*
X128717500Y-88161740D01*
X128717500Y-88889756D01*
X128724202Y-88951448D01*
X128774929Y-89086764D01*
X128780309Y-89093943D01*
X128780311Y-89093946D01*
X128846287Y-89181977D01*
X128861596Y-89202404D01*
X128868776Y-89207785D01*
X128970054Y-89283689D01*
X128970057Y-89283691D01*
X128977236Y-89289071D01*
X129066954Y-89322704D01*
X129105157Y-89337026D01*
X129105159Y-89337026D01*
X129112552Y-89339798D01*
X129120402Y-89340651D01*
X129120403Y-89340651D01*
X129170847Y-89346131D01*
X129174244Y-89346500D01*
X129969756Y-89346500D01*
X129973153Y-89346131D01*
X130023597Y-89340651D01*
X130023598Y-89340651D01*
X130031448Y-89339798D01*
X130038841Y-89337026D01*
X130038843Y-89337026D01*
X130077046Y-89322704D01*
X130166764Y-89289071D01*
X130173943Y-89283691D01*
X130173946Y-89283689D01*
X130275224Y-89207785D01*
X130282404Y-89202404D01*
X130297713Y-89181977D01*
X130363689Y-89093946D01*
X130363691Y-89093943D01*
X130369071Y-89086764D01*
X130419798Y-88951448D01*
X130426500Y-88889756D01*
X130717500Y-88889756D01*
X130724202Y-88951448D01*
X130774929Y-89086764D01*
X130780309Y-89093943D01*
X130780311Y-89093946D01*
X130846287Y-89181977D01*
X130861596Y-89202404D01*
X130868776Y-89207785D01*
X130970054Y-89283689D01*
X130970057Y-89283691D01*
X130977236Y-89289071D01*
X130985638Y-89292221D01*
X130985642Y-89292223D01*
X130985731Y-89292256D01*
X130985806Y-89292313D01*
X130993515Y-89296533D01*
X130992906Y-89297646D01*
X131042495Y-89334898D01*
X131067194Y-89401460D01*
X131067500Y-89410237D01*
X131067500Y-89671217D01*
X131047498Y-89739338D01*
X131017064Y-89772044D01*
X130933026Y-89835026D01*
X130848507Y-89947801D01*
X130799036Y-90079764D01*
X130792500Y-90139930D01*
X130792500Y-90708070D01*
X130799036Y-90768236D01*
X130848507Y-90900199D01*
X130933026Y-91012974D01*
X131045801Y-91097493D01*
X131054202Y-91100643D01*
X131054205Y-91100644D01*
X131132613Y-91130037D01*
X131177764Y-91146964D01*
X131237930Y-91153500D01*
X131906070Y-91153500D01*
X131966236Y-91146964D01*
X132011387Y-91130037D01*
X132089795Y-91100644D01*
X132089798Y-91100643D01*
X132098199Y-91097493D01*
X132210974Y-91012974D01*
X132295493Y-90900199D01*
X132344964Y-90768236D01*
X132351500Y-90708070D01*
X132351500Y-90139930D01*
X132344964Y-90079764D01*
X132295493Y-89947801D01*
X132210974Y-89835026D01*
X132126936Y-89772044D01*
X132084420Y-89715185D01*
X132076500Y-89671217D01*
X132076500Y-89410237D01*
X132096502Y-89342116D01*
X132150158Y-89295623D01*
X132158269Y-89292256D01*
X132158358Y-89292223D01*
X132158362Y-89292221D01*
X132166764Y-89289071D01*
X132173943Y-89283691D01*
X132173946Y-89283689D01*
X132275224Y-89207785D01*
X132282404Y-89202404D01*
X132297713Y-89181977D01*
X132363689Y-89093946D01*
X132363691Y-89093943D01*
X132369071Y-89086764D01*
X132419798Y-88951448D01*
X132426500Y-88889756D01*
X132426500Y-87894244D01*
X132426131Y-87890847D01*
X132420651Y-87840403D01*
X132420651Y-87840402D01*
X132419798Y-87832552D01*
X132369071Y-87697236D01*
X132363691Y-87690057D01*
X132363689Y-87690054D01*
X132287785Y-87588776D01*
X132282404Y-87581596D01*
X132246414Y-87554623D01*
X132173946Y-87500311D01*
X132173943Y-87500309D01*
X132166764Y-87494929D01*
X132077046Y-87461296D01*
X132038843Y-87446974D01*
X132038841Y-87446974D01*
X132031448Y-87444202D01*
X132023598Y-87443349D01*
X132023597Y-87443349D01*
X131973153Y-87437869D01*
X131973152Y-87437869D01*
X131969756Y-87437500D01*
X131174244Y-87437500D01*
X131170848Y-87437869D01*
X131170847Y-87437869D01*
X131120403Y-87443349D01*
X131120402Y-87443349D01*
X131112552Y-87444202D01*
X131105159Y-87446974D01*
X131105157Y-87446974D01*
X131066954Y-87461296D01*
X130977236Y-87494929D01*
X130970057Y-87500309D01*
X130970054Y-87500311D01*
X130897586Y-87554623D01*
X130861596Y-87581596D01*
X130856215Y-87588776D01*
X130780311Y-87690054D01*
X130780309Y-87690057D01*
X130774929Y-87697236D01*
X130724202Y-87832552D01*
X130723349Y-87840402D01*
X130723349Y-87840403D01*
X130717869Y-87890847D01*
X130717500Y-87894244D01*
X130717500Y-88889756D01*
X130426500Y-88889756D01*
X130426500Y-87894244D01*
X130426131Y-87890847D01*
X130420651Y-87840403D01*
X130420651Y-87840402D01*
X130419798Y-87832552D01*
X130369071Y-87697236D01*
X130363691Y-87690057D01*
X130363689Y-87690054D01*
X130287785Y-87588776D01*
X130282404Y-87581596D01*
X130246414Y-87554623D01*
X130173946Y-87500311D01*
X130173943Y-87500309D01*
X130166764Y-87494929D01*
X130077046Y-87461296D01*
X130038843Y-87446974D01*
X130038841Y-87446974D01*
X130031448Y-87444202D01*
X130023598Y-87443349D01*
X130023597Y-87443349D01*
X129973153Y-87437869D01*
X129973152Y-87437869D01*
X129969756Y-87437500D01*
X129241740Y-87437500D01*
X129173619Y-87417498D01*
X129152645Y-87400595D01*
X128704645Y-86952595D01*
X128670619Y-86890283D01*
X128675684Y-86819468D01*
X128718231Y-86762632D01*
X128784751Y-86737821D01*
X128793740Y-86737500D01*
X130231376Y-86737500D01*
X130243381Y-86738841D01*
X130243421Y-86738345D01*
X130252368Y-86739065D01*
X130261124Y-86741046D01*
X130314382Y-86737742D01*
X130322184Y-86737500D01*
X130338226Y-86737500D01*
X130342657Y-86736865D01*
X130342662Y-86736865D01*
X130346687Y-86736288D01*
X130348457Y-86736035D01*
X130358514Y-86735004D01*
X130380976Y-86733611D01*
X130396400Y-86732654D01*
X130396402Y-86732654D01*
X130405359Y-86732098D01*
X130413799Y-86729051D01*
X130417089Y-86728370D01*
X130432938Y-86724418D01*
X130436168Y-86723473D01*
X130445052Y-86722201D01*
X130487763Y-86702782D01*
X130497128Y-86698970D01*
X130532837Y-86686078D01*
X130532840Y-86686076D01*
X130541284Y-86683028D01*
X130548533Y-86677732D01*
X130551490Y-86676160D01*
X130565614Y-86667907D01*
X130568437Y-86666102D01*
X130576605Y-86662388D01*
X130583402Y-86656531D01*
X130583404Y-86656530D01*
X130612153Y-86631757D01*
X130620064Y-86625475D01*
X130630944Y-86617527D01*
X130641806Y-86606665D01*
X130648653Y-86600307D01*
X130679282Y-86573915D01*
X130686082Y-86568056D01*
X130690966Y-86560521D01*
X130696699Y-86553949D01*
X130705926Y-86542545D01*
X132750794Y-84497677D01*
X132760234Y-84490135D01*
X132759911Y-84489755D01*
X132766747Y-84483937D01*
X132774339Y-84479147D01*
X132809672Y-84439140D01*
X132815017Y-84433454D01*
X132826351Y-84422120D01*
X132829038Y-84418534D01*
X132829043Y-84418529D01*
X132832557Y-84413841D01*
X132838938Y-84406003D01*
X132864060Y-84377557D01*
X132870001Y-84370830D01*
X132873815Y-84362707D01*
X132875661Y-84359896D01*
X132884072Y-84345897D01*
X132885686Y-84342948D01*
X132891070Y-84335765D01*
X132907542Y-84291826D01*
X132911469Y-84282506D01*
X132927602Y-84248144D01*
X132927602Y-84248143D01*
X132931417Y-84240018D01*
X132932798Y-84231147D01*
X132933783Y-84227925D01*
X132937920Y-84212154D01*
X132938644Y-84208860D01*
X132941798Y-84200448D01*
X132945276Y-84153650D01*
X132946426Y-84143626D01*
X132948500Y-84130303D01*
X132948500Y-84114938D01*
X132948846Y-84105601D01*
X132951842Y-84065282D01*
X132952507Y-84056334D01*
X132950634Y-84047559D01*
X132950041Y-84038863D01*
X132948500Y-84024263D01*
X132948500Y-83795969D01*
X132968502Y-83727848D01*
X133022158Y-83681355D01*
X133049919Y-83672390D01*
X133068301Y-83668734D01*
X133078621Y-83661839D01*
X133078622Y-83661838D01*
X133142168Y-83619377D01*
X133152484Y-83612484D01*
X133208734Y-83528301D01*
X133220422Y-83469542D01*
X133253330Y-83406633D01*
X133315025Y-83371501D01*
X133385920Y-83375301D01*
X133443506Y-83416827D01*
X133467579Y-83469542D01*
X133479266Y-83528301D01*
X133486161Y-83538620D01*
X133486162Y-83538622D01*
X133523884Y-83595075D01*
X133535516Y-83612484D01*
X133619699Y-83668734D01*
X133693933Y-83683500D01*
X134243911Y-83683500D01*
X134794066Y-83683499D01*
X134829818Y-83676388D01*
X134856126Y-83671156D01*
X134856128Y-83671155D01*
X134868301Y-83668734D01*
X134878621Y-83661839D01*
X134878622Y-83661838D01*
X134942168Y-83619377D01*
X134952484Y-83612484D01*
X135008734Y-83528301D01*
X135020422Y-83469542D01*
X135053330Y-83406633D01*
X135115025Y-83371501D01*
X135185920Y-83375301D01*
X135243506Y-83416827D01*
X135267579Y-83469542D01*
X135279266Y-83528301D01*
X135286161Y-83538620D01*
X135286162Y-83538622D01*
X135323884Y-83595075D01*
X135335516Y-83612484D01*
X135419699Y-83668734D01*
X135493933Y-83683500D01*
X136043911Y-83683500D01*
X136594066Y-83683499D01*
X136629818Y-83676388D01*
X136656126Y-83671156D01*
X136656128Y-83671155D01*
X136668301Y-83668734D01*
X136678621Y-83661839D01*
X136678622Y-83661838D01*
X136742168Y-83619377D01*
X136752484Y-83612484D01*
X136808734Y-83528301D01*
X136823500Y-83454067D01*
X136823499Y-82153934D01*
X136808734Y-82079699D01*
X136752484Y-81995516D01*
X136668301Y-81939266D01*
X136594067Y-81924500D01*
X136044089Y-81924500D01*
X135493934Y-81924501D01*
X135458182Y-81931612D01*
X135431874Y-81936844D01*
X135431872Y-81936845D01*
X135419699Y-81939266D01*
X135409379Y-81946161D01*
X135409378Y-81946162D01*
X135348985Y-81986516D01*
X135335516Y-81995516D01*
X135279266Y-82079699D01*
X135276845Y-82091871D01*
X135267578Y-82138458D01*
X135234670Y-82201367D01*
X135172975Y-82236499D01*
X135102080Y-82232699D01*
X135044494Y-82191173D01*
X135020420Y-82138455D01*
X135008734Y-82079699D01*
X134952484Y-81995516D01*
X134868301Y-81939266D01*
X134794067Y-81924500D01*
X134244089Y-81924500D01*
X133693934Y-81924501D01*
X133658182Y-81931612D01*
X133631874Y-81936844D01*
X133631872Y-81936845D01*
X133619699Y-81939266D01*
X133609379Y-81946161D01*
X133609378Y-81946162D01*
X133548985Y-81986516D01*
X133535516Y-81995516D01*
X133479266Y-82079699D01*
X133476845Y-82091871D01*
X133467578Y-82138458D01*
X133434670Y-82201367D01*
X133372975Y-82236499D01*
X133302080Y-82232699D01*
X133244494Y-82191173D01*
X133220420Y-82138455D01*
X133208734Y-82079699D01*
X133152484Y-81995516D01*
X133068301Y-81939266D01*
X132994067Y-81924500D01*
X132444089Y-81924500D01*
X131893934Y-81924501D01*
X131858182Y-81931612D01*
X131831874Y-81936844D01*
X131831872Y-81936845D01*
X131819699Y-81939266D01*
X131809379Y-81946161D01*
X131809378Y-81946162D01*
X131748985Y-81986516D01*
X131735516Y-81995516D01*
X131679266Y-82079699D01*
X131676845Y-82091871D01*
X131667578Y-82138458D01*
X131634670Y-82201367D01*
X131572975Y-82236499D01*
X131502080Y-82232699D01*
X131444494Y-82191173D01*
X131420420Y-82138455D01*
X131408734Y-82079699D01*
X131352484Y-81995516D01*
X131268301Y-81939266D01*
X131194067Y-81924500D01*
X130644089Y-81924500D01*
X130093934Y-81924501D01*
X130058182Y-81931612D01*
X130031874Y-81936844D01*
X130031872Y-81936845D01*
X130019699Y-81939266D01*
X130009379Y-81946161D01*
X130009378Y-81946162D01*
X129948985Y-81986516D01*
X129935516Y-81995516D01*
X129879266Y-82079699D01*
X129876845Y-82091871D01*
X129867578Y-82138458D01*
X129834670Y-82201367D01*
X129772975Y-82236499D01*
X129702080Y-82232699D01*
X129644494Y-82191173D01*
X129620420Y-82138455D01*
X129608734Y-82079699D01*
X129552484Y-81995516D01*
X129468301Y-81939266D01*
X129394067Y-81924500D01*
X128844089Y-81924500D01*
X128293934Y-81924501D01*
X128258182Y-81931612D01*
X128231874Y-81936844D01*
X128231872Y-81936845D01*
X128219699Y-81939266D01*
X128209379Y-81946161D01*
X128209378Y-81946162D01*
X128148985Y-81986516D01*
X128135516Y-81995516D01*
X128079266Y-82079699D01*
X128064500Y-82153933D01*
X128064501Y-83454066D01*
X128065708Y-83460134D01*
X128065708Y-83460135D01*
X128069938Y-83481400D01*
X128063609Y-83552114D01*
X128035454Y-83595075D01*
X127589934Y-84040595D01*
X127527622Y-84074621D01*
X127500839Y-84077500D01*
X125038630Y-84077500D01*
X125026622Y-84076158D01*
X125026582Y-84076654D01*
X125017631Y-84075934D01*
X125008877Y-84073953D01*
X124978430Y-84075842D01*
X124955607Y-84077258D01*
X124947805Y-84077500D01*
X124931774Y-84077500D01*
X124921541Y-84078965D01*
X124911489Y-84079995D01*
X124882085Y-84081820D01*
X124873601Y-84082346D01*
X124873600Y-84082346D01*
X124864642Y-84082902D01*
X124856199Y-84085950D01*
X124852920Y-84086629D01*
X124837055Y-84090584D01*
X124833831Y-84091527D01*
X124824948Y-84092799D01*
X124816779Y-84096513D01*
X124816773Y-84096515D01*
X124782221Y-84112225D01*
X124772853Y-84116039D01*
X124728716Y-84131972D01*
X124721466Y-84137269D01*
X124718499Y-84138846D01*
X124704386Y-84147093D01*
X124701563Y-84148898D01*
X124693395Y-84152612D01*
X124686598Y-84158469D01*
X124686596Y-84158470D01*
X124657847Y-84183243D01*
X124649936Y-84189525D01*
X124639056Y-84197473D01*
X124628194Y-84208335D01*
X124621348Y-84214693D01*
X124583918Y-84246944D01*
X124579034Y-84254479D01*
X124573301Y-84261051D01*
X124564074Y-84272455D01*
X123010206Y-85826323D01*
X123000766Y-85833865D01*
X123001089Y-85834245D01*
X122994253Y-85840063D01*
X122986661Y-85844853D01*
X122980719Y-85851581D01*
X122951329Y-85884859D01*
X122945983Y-85890546D01*
X122934649Y-85901880D01*
X122931964Y-85905463D01*
X122931962Y-85905465D01*
X122928447Y-85910155D01*
X122922062Y-85917998D01*
X122890999Y-85953170D01*
X122887186Y-85961292D01*
X122885346Y-85964093D01*
X122876937Y-85978088D01*
X122875315Y-85981051D01*
X122869930Y-85988236D01*
X122866777Y-85996646D01*
X122866776Y-85996648D01*
X122853454Y-86032182D01*
X122849530Y-86041495D01*
X122829583Y-86083982D01*
X122828201Y-86092856D01*
X122827215Y-86096083D01*
X122823075Y-86111866D01*
X122822354Y-86115144D01*
X122819202Y-86123552D01*
X122818222Y-86136748D01*
X122815724Y-86170357D01*
X122814570Y-86180404D01*
X122812500Y-86193697D01*
X122812500Y-86209062D01*
X122812154Y-86218399D01*
X122808493Y-86267667D01*
X122810366Y-86276442D01*
X122810959Y-86285138D01*
X122812500Y-86299738D01*
X122812500Y-86788676D01*
X122789587Y-86861126D01*
X122735950Y-86937444D01*
X122678406Y-87085037D01*
X122657729Y-87242096D01*
X118954716Y-87242096D01*
X118963179Y-87183727D01*
X118963712Y-87180053D01*
X118965232Y-87122000D01*
X118949487Y-86950649D01*
X118947187Y-86925613D01*
X118947186Y-86925610D01*
X118946658Y-86919859D01*
X118941915Y-86903043D01*
X118893125Y-86730046D01*
X118893124Y-86730044D01*
X118891557Y-86724487D01*
X118880978Y-86703033D01*
X118804331Y-86547609D01*
X118801776Y-86542428D01*
X118680320Y-86379779D01*
X118531258Y-86241987D01*
X118526375Y-86238906D01*
X118526371Y-86238903D01*
X118364464Y-86136748D01*
X118359581Y-86133667D01*
X118171039Y-86058446D01*
X118165379Y-86057320D01*
X118165375Y-86057319D01*
X117977613Y-86019971D01*
X117977610Y-86019971D01*
X117971946Y-86018844D01*
X117966171Y-86018768D01*
X117966167Y-86018768D01*
X117864793Y-86017441D01*
X117768971Y-86016187D01*
X117763274Y-86017166D01*
X117763273Y-86017166D01*
X117610852Y-86043357D01*
X117568910Y-86050564D01*
X117378463Y-86120824D01*
X117204010Y-86224612D01*
X117199670Y-86228418D01*
X117199666Y-86228421D01*
X117100976Y-86314971D01*
X117051392Y-86358455D01*
X116925720Y-86517869D01*
X116923031Y-86522980D01*
X116923029Y-86522983D01*
X116882347Y-86600307D01*
X116831203Y-86697515D01*
X116771007Y-86891378D01*
X116747148Y-87092964D01*
X114300000Y-87092964D01*
X114300000Y-82153933D01*
X122664500Y-82153933D01*
X122664501Y-83454066D01*
X122679266Y-83528301D01*
X122686161Y-83538620D01*
X122686162Y-83538622D01*
X122723884Y-83595075D01*
X122735516Y-83612484D01*
X122819699Y-83668734D01*
X122893933Y-83683500D01*
X123443911Y-83683500D01*
X123994066Y-83683499D01*
X124029818Y-83676388D01*
X124056126Y-83671156D01*
X124056128Y-83671155D01*
X124068301Y-83668734D01*
X124078621Y-83661839D01*
X124078622Y-83661838D01*
X124142168Y-83619377D01*
X124152484Y-83612484D01*
X124208734Y-83528301D01*
X124220422Y-83469542D01*
X124253330Y-83406633D01*
X124315025Y-83371501D01*
X124385920Y-83375301D01*
X124443506Y-83416827D01*
X124467579Y-83469542D01*
X124479266Y-83528301D01*
X124486161Y-83538620D01*
X124486162Y-83538622D01*
X124523884Y-83595075D01*
X124535516Y-83612484D01*
X124619699Y-83668734D01*
X124693933Y-83683500D01*
X125243911Y-83683500D01*
X125794066Y-83683499D01*
X125829818Y-83676388D01*
X125856126Y-83671156D01*
X125856128Y-83671155D01*
X125868301Y-83668734D01*
X125878621Y-83661839D01*
X125878622Y-83661838D01*
X125942168Y-83619377D01*
X125952484Y-83612484D01*
X126008734Y-83528301D01*
X126023500Y-83454067D01*
X126023499Y-82153934D01*
X126008734Y-82079699D01*
X125952484Y-81995516D01*
X125868301Y-81939266D01*
X125794067Y-81924500D01*
X125244089Y-81924500D01*
X124693934Y-81924501D01*
X124658182Y-81931612D01*
X124631874Y-81936844D01*
X124631872Y-81936845D01*
X124619699Y-81939266D01*
X124609379Y-81946161D01*
X124609378Y-81946162D01*
X124548985Y-81986516D01*
X124535516Y-81995516D01*
X124479266Y-82079699D01*
X124476845Y-82091871D01*
X124467578Y-82138458D01*
X124434670Y-82201367D01*
X124372975Y-82236499D01*
X124302080Y-82232699D01*
X124244494Y-82191173D01*
X124220420Y-82138455D01*
X124208734Y-82079699D01*
X124152484Y-81995516D01*
X124068301Y-81939266D01*
X123994067Y-81924500D01*
X123444089Y-81924500D01*
X122893934Y-81924501D01*
X122858182Y-81931612D01*
X122831874Y-81936844D01*
X122831872Y-81936845D01*
X122819699Y-81939266D01*
X122809379Y-81946161D01*
X122809378Y-81946162D01*
X122748985Y-81986516D01*
X122735516Y-81995516D01*
X122679266Y-82079699D01*
X122664500Y-82153933D01*
X114300000Y-82153933D01*
X114300000Y-79756000D01*
X117469600Y-79756000D01*
X117489145Y-79941956D01*
X117546925Y-80119785D01*
X117550228Y-80125507D01*
X117550229Y-80125508D01*
X117623330Y-80252123D01*
X117640415Y-80281715D01*
X117644833Y-80286622D01*
X117644834Y-80286623D01*
X117720808Y-80371000D01*
X117765530Y-80420669D01*
X117770869Y-80424548D01*
X117900906Y-80519025D01*
X117916800Y-80530573D01*
X117922828Y-80533257D01*
X117922830Y-80533258D01*
X118077665Y-80602195D01*
X118087615Y-80606625D01*
X118179062Y-80626062D01*
X118264053Y-80644128D01*
X118264057Y-80644128D01*
X118270510Y-80645500D01*
X118457490Y-80645500D01*
X118463943Y-80644128D01*
X118463947Y-80644128D01*
X118548938Y-80626062D01*
X118640385Y-80606625D01*
X118650335Y-80602195D01*
X118805170Y-80533258D01*
X118805172Y-80533257D01*
X118811200Y-80530573D01*
X118827095Y-80519025D01*
X118957131Y-80424548D01*
X118962470Y-80420669D01*
X119007193Y-80371000D01*
X119083166Y-80286623D01*
X119083167Y-80286622D01*
X119087585Y-80281715D01*
X119104670Y-80252123D01*
X119177771Y-80125508D01*
X119177772Y-80125507D01*
X119181075Y-80119785D01*
X119238855Y-79941956D01*
X119258400Y-79756000D01*
X119252334Y-79698288D01*
X119239545Y-79576608D01*
X119239545Y-79576607D01*
X119238855Y-79570044D01*
X119219506Y-79510492D01*
X119203496Y-79461219D01*
X119181075Y-79392215D01*
X119087585Y-79230285D01*
X119083166Y-79225377D01*
X118966885Y-79096234D01*
X118966883Y-79096233D01*
X118962470Y-79091331D01*
X118883975Y-79034301D01*
X118816542Y-78985308D01*
X118816541Y-78985307D01*
X118811200Y-78981427D01*
X118805172Y-78978743D01*
X118805170Y-78978742D01*
X118646416Y-78908060D01*
X118646414Y-78908060D01*
X118640385Y-78905375D01*
X118524979Y-78880845D01*
X118463947Y-78867872D01*
X118463943Y-78867872D01*
X118457490Y-78866500D01*
X118270510Y-78866500D01*
X118264057Y-78867872D01*
X118264053Y-78867872D01*
X118203021Y-78880845D01*
X118087615Y-78905375D01*
X118081586Y-78908060D01*
X118081584Y-78908060D01*
X117922830Y-78978742D01*
X117922828Y-78978743D01*
X117916800Y-78981427D01*
X117911459Y-78985307D01*
X117911458Y-78985308D01*
X117844025Y-79034301D01*
X117765530Y-79091331D01*
X117761117Y-79096233D01*
X117761115Y-79096234D01*
X117644834Y-79225377D01*
X117640415Y-79230285D01*
X117546925Y-79392215D01*
X117524504Y-79461219D01*
X117508495Y-79510492D01*
X117489145Y-79570044D01*
X117488455Y-79576607D01*
X117488455Y-79576608D01*
X117475666Y-79698288D01*
X117469600Y-79756000D01*
X114300000Y-79756000D01*
X114300000Y-77297933D01*
X115278500Y-77297933D01*
X115278501Y-78398066D01*
X115293266Y-78472301D01*
X115349516Y-78556484D01*
X115433699Y-78612734D01*
X115507933Y-78627500D01*
X116157894Y-78627500D01*
X116808066Y-78627499D01*
X116843818Y-78620388D01*
X116870126Y-78615156D01*
X116870128Y-78615155D01*
X116882301Y-78612734D01*
X116892621Y-78605839D01*
X116892622Y-78605838D01*
X116956168Y-78563377D01*
X116966484Y-78556484D01*
X117022734Y-78472301D01*
X117037500Y-78398067D01*
X117037499Y-77297934D01*
X117022734Y-77223699D01*
X116966484Y-77139516D01*
X116882301Y-77083266D01*
X116808067Y-77068500D01*
X116158106Y-77068500D01*
X115507934Y-77068501D01*
X115472182Y-77075612D01*
X115445874Y-77080844D01*
X115445872Y-77080845D01*
X115433699Y-77083266D01*
X115423379Y-77090161D01*
X115423378Y-77090162D01*
X115362985Y-77130516D01*
X115349516Y-77139516D01*
X115293266Y-77223699D01*
X115278500Y-77297933D01*
X114300000Y-77297933D01*
X114300000Y-76029933D01*
X121416500Y-76029933D01*
X121416501Y-78960066D01*
X121420216Y-78978742D01*
X121427105Y-79013378D01*
X121431266Y-79034301D01*
X121438161Y-79044620D01*
X121438162Y-79044622D01*
X121472649Y-79096234D01*
X121487516Y-79118484D01*
X121571699Y-79174734D01*
X121645933Y-79189500D01*
X123043482Y-79189500D01*
X123111603Y-79209502D01*
X123158096Y-79263158D01*
X123168200Y-79333432D01*
X123138706Y-79398012D01*
X123126311Y-79410449D01*
X123023265Y-79500342D01*
X123023261Y-79500346D01*
X123017539Y-79505338D01*
X122926450Y-79634944D01*
X122923690Y-79642024D01*
X122876693Y-79762565D01*
X122868906Y-79782537D01*
X122867914Y-79790070D01*
X122867914Y-79790071D01*
X122859665Y-79852733D01*
X122848229Y-79939596D01*
X122865613Y-80097053D01*
X122868223Y-80104184D01*
X122868223Y-80104186D01*
X122904800Y-80204137D01*
X122920053Y-80245819D01*
X122924289Y-80252122D01*
X122924289Y-80252123D01*
X122944784Y-80282622D01*
X123008408Y-80377305D01*
X123014027Y-80382418D01*
X123014028Y-80382419D01*
X123086644Y-80448494D01*
X123125576Y-80483919D01*
X123264793Y-80559508D01*
X123418022Y-80599707D01*
X123501977Y-80601026D01*
X123568819Y-80602076D01*
X123568822Y-80602076D01*
X123576416Y-80602195D01*
X123730832Y-80566829D01*
X123825881Y-80519025D01*
X123865572Y-80499063D01*
X123865575Y-80499061D01*
X123872355Y-80495651D01*
X123932024Y-80444689D01*
X123996812Y-80415658D01*
X124013854Y-80414500D01*
X127403194Y-80414500D01*
X127471315Y-80434502D01*
X127517808Y-80488158D01*
X127527912Y-80558432D01*
X127506281Y-80612950D01*
X127434950Y-80714444D01*
X127425175Y-80739516D01*
X127387607Y-80835874D01*
X127377406Y-80862037D01*
X127356729Y-81019096D01*
X127374113Y-81176553D01*
X127428553Y-81325319D01*
X127432789Y-81331622D01*
X127432789Y-81331623D01*
X127501994Y-81434610D01*
X127516908Y-81456805D01*
X127634076Y-81563419D01*
X127773293Y-81639008D01*
X127926522Y-81679207D01*
X128010477Y-81680526D01*
X128077319Y-81681576D01*
X128077322Y-81681576D01*
X128084916Y-81681695D01*
X128239332Y-81646329D01*
X128309742Y-81610917D01*
X128374072Y-81578563D01*
X128374075Y-81578561D01*
X128380855Y-81575151D01*
X128386626Y-81570222D01*
X128386629Y-81570220D01*
X128495537Y-81477203D01*
X128501314Y-81472269D01*
X128502855Y-81470125D01*
X128561875Y-81434610D01*
X128593793Y-81430500D01*
X134430066Y-81430500D01*
X134439498Y-81427435D01*
X134439500Y-81427435D01*
X134451287Y-81423605D01*
X134470513Y-81418989D01*
X134482762Y-81417049D01*
X134492555Y-81415498D01*
X134512439Y-81405366D01*
X134530705Y-81397801D01*
X134542496Y-81393970D01*
X134551929Y-81390905D01*
X134569989Y-81377784D01*
X134586846Y-81367454D01*
X134606723Y-81357326D01*
X134629511Y-81334538D01*
X134629515Y-81334535D01*
X137525383Y-78438666D01*
X137587695Y-78404640D01*
X137658510Y-78409705D01*
X137715346Y-78452252D01*
X137724463Y-78468262D01*
X137725266Y-78472301D01*
X137732160Y-78482618D01*
X137732161Y-78482621D01*
X137732162Y-78482622D01*
X137781516Y-78556484D01*
X137865699Y-78612734D01*
X137900797Y-78619715D01*
X137924458Y-78624422D01*
X137987367Y-78657330D01*
X138022499Y-78719025D01*
X138018699Y-78789920D01*
X137977173Y-78847506D01*
X137924456Y-78871579D01*
X137865699Y-78883266D01*
X137855379Y-78890161D01*
X137855378Y-78890162D01*
X137794985Y-78930516D01*
X137781516Y-78939516D01*
X137725266Y-79023699D01*
X137710500Y-79097933D01*
X137710501Y-80198066D01*
X137717612Y-80233818D01*
X137721253Y-80252123D01*
X137725266Y-80272301D01*
X137732161Y-80282620D01*
X137732162Y-80282622D01*
X137757519Y-80320571D01*
X137781516Y-80356484D01*
X137865699Y-80412734D01*
X137900797Y-80419715D01*
X137924458Y-80424422D01*
X137987367Y-80457330D01*
X138022499Y-80519025D01*
X138018699Y-80589920D01*
X137977173Y-80647506D01*
X137924456Y-80671579D01*
X137865699Y-80683266D01*
X137855379Y-80690161D01*
X137855378Y-80690162D01*
X137794985Y-80730516D01*
X137781516Y-80739516D01*
X137725266Y-80823699D01*
X137710500Y-80897933D01*
X137710501Y-81998066D01*
X137725266Y-82072301D01*
X137781516Y-82156484D01*
X137865699Y-82212734D01*
X137939933Y-82227500D01*
X138589894Y-82227500D01*
X139240066Y-82227499D01*
X139275818Y-82220388D01*
X139302126Y-82215156D01*
X139302128Y-82215155D01*
X139314301Y-82212734D01*
X139324621Y-82205839D01*
X139324622Y-82205838D01*
X139388168Y-82163377D01*
X139398484Y-82156484D01*
X139454734Y-82072301D01*
X139469500Y-81998067D01*
X139469499Y-80897934D01*
X139454734Y-80823699D01*
X139398484Y-80739516D01*
X139314301Y-80683266D01*
X139279203Y-80676285D01*
X139255542Y-80671578D01*
X139192633Y-80638670D01*
X139157501Y-80576975D01*
X139161301Y-80506080D01*
X139202827Y-80448494D01*
X139255544Y-80424421D01*
X139314301Y-80412734D01*
X139324621Y-80405839D01*
X139324622Y-80405838D01*
X139388168Y-80363377D01*
X139398484Y-80356484D01*
X139454734Y-80272301D01*
X139469500Y-80198067D01*
X139469499Y-79097934D01*
X139462388Y-79062182D01*
X139457156Y-79035874D01*
X139457155Y-79035872D01*
X139454734Y-79023699D01*
X139426489Y-78981427D01*
X139405377Y-78949832D01*
X139398484Y-78939516D01*
X139314301Y-78883266D01*
X139279203Y-78876285D01*
X139255542Y-78871578D01*
X139192633Y-78838670D01*
X139157501Y-78776975D01*
X139161301Y-78706080D01*
X139202827Y-78648494D01*
X139255544Y-78624421D01*
X139314301Y-78612734D01*
X139324621Y-78605839D01*
X139324622Y-78605838D01*
X139388168Y-78563377D01*
X139398484Y-78556484D01*
X139454734Y-78472301D01*
X139469500Y-78398067D01*
X139469499Y-77297934D01*
X139454734Y-77223699D01*
X139398484Y-77139516D01*
X139314301Y-77083266D01*
X139240067Y-77068500D01*
X138590106Y-77068500D01*
X137939934Y-77068501D01*
X137904182Y-77075612D01*
X137877874Y-77080844D01*
X137877872Y-77080845D01*
X137865699Y-77083266D01*
X137855379Y-77090161D01*
X137855378Y-77090162D01*
X137794985Y-77130516D01*
X137781516Y-77139516D01*
X137725266Y-77223699D01*
X137710500Y-77297933D01*
X137710500Y-77317500D01*
X137690498Y-77385621D01*
X137636842Y-77432114D01*
X137584500Y-77443500D01*
X137479934Y-77443500D01*
X137470502Y-77446565D01*
X137470500Y-77446565D01*
X137458713Y-77450395D01*
X137439487Y-77455011D01*
X137417445Y-77458502D01*
X137397562Y-77468633D01*
X137379296Y-77476199D01*
X137358071Y-77483095D01*
X137340013Y-77496216D01*
X137323160Y-77506543D01*
X137303277Y-77516674D01*
X137280486Y-77539465D01*
X134235355Y-80584595D01*
X134173043Y-80618621D01*
X134146260Y-80621500D01*
X132057280Y-80621500D01*
X131989159Y-80601498D01*
X131942666Y-80547842D01*
X131932562Y-80477568D01*
X131954956Y-80421976D01*
X132022755Y-80327624D01*
X132081842Y-80180641D01*
X132104162Y-80023807D01*
X132104307Y-80010000D01*
X132085276Y-79852733D01*
X132029280Y-79704546D01*
X131961208Y-79605500D01*
X131943855Y-79580251D01*
X131943854Y-79580249D01*
X131939553Y-79573992D01*
X131928075Y-79563765D01*
X131892812Y-79532348D01*
X131821275Y-79468611D01*
X131742408Y-79426853D01*
X131691565Y-79377300D01*
X131675584Y-79308125D01*
X131699538Y-79241292D01*
X131755823Y-79198019D01*
X131801367Y-79189499D01*
X134496066Y-79189499D01*
X134531818Y-79182388D01*
X134558126Y-79177156D01*
X134558128Y-79177155D01*
X134570301Y-79174734D01*
X134580621Y-79167839D01*
X134580622Y-79167838D01*
X134644168Y-79125377D01*
X134654484Y-79118484D01*
X134710734Y-79034301D01*
X134725500Y-78960067D01*
X134725499Y-76029934D01*
X134710734Y-75955699D01*
X134654484Y-75871516D01*
X134570301Y-75815266D01*
X134496067Y-75800500D01*
X128071520Y-75800500D01*
X121645934Y-75800501D01*
X121610182Y-75807612D01*
X121583874Y-75812844D01*
X121583872Y-75812845D01*
X121571699Y-75815266D01*
X121561379Y-75822161D01*
X121561378Y-75822162D01*
X121500985Y-75862516D01*
X121487516Y-75871516D01*
X121431266Y-75955699D01*
X121416500Y-76029933D01*
X114300000Y-76029933D01*
X114300000Y-72383096D01*
X122784729Y-72383096D01*
X122788326Y-72415677D01*
X122801199Y-72532271D01*
X122802113Y-72540553D01*
X122804723Y-72547684D01*
X122804723Y-72547686D01*
X122848406Y-72667055D01*
X122856553Y-72689319D01*
X122860789Y-72695622D01*
X122860789Y-72695623D01*
X122918082Y-72780884D01*
X122939500Y-72851160D01*
X122939500Y-73716376D01*
X122938159Y-73728381D01*
X122938655Y-73728421D01*
X122937935Y-73737368D01*
X122935954Y-73746124D01*
X122936510Y-73755084D01*
X122939258Y-73799382D01*
X122939500Y-73807184D01*
X122939500Y-73823226D01*
X122940135Y-73827657D01*
X122940135Y-73827662D01*
X122940965Y-73833453D01*
X122941996Y-73843514D01*
X122944902Y-73890359D01*
X122947949Y-73898799D01*
X122948630Y-73902089D01*
X122952582Y-73917938D01*
X122953527Y-73921168D01*
X122954799Y-73930052D01*
X122958514Y-73938223D01*
X122974218Y-73972763D01*
X122978030Y-73982128D01*
X122990922Y-74017837D01*
X122990924Y-74017840D01*
X122993972Y-74026284D01*
X122999268Y-74033533D01*
X123000840Y-74036490D01*
X123009093Y-74050614D01*
X123010898Y-74053437D01*
X123014612Y-74061605D01*
X123020469Y-74068402D01*
X123020470Y-74068404D01*
X123045243Y-74097153D01*
X123051525Y-74105064D01*
X123059473Y-74115944D01*
X123070335Y-74126806D01*
X123076693Y-74133652D01*
X123108944Y-74171082D01*
X123116479Y-74175966D01*
X123123051Y-74181699D01*
X123134455Y-74190926D01*
X123926323Y-74982794D01*
X123933865Y-74992234D01*
X123934245Y-74991911D01*
X123940063Y-74998747D01*
X123944853Y-75006339D01*
X123951581Y-75012281D01*
X123984859Y-75041671D01*
X123990546Y-75047017D01*
X124001880Y-75058351D01*
X124005463Y-75061036D01*
X124005465Y-75061038D01*
X124010155Y-75064553D01*
X124017998Y-75070938D01*
X124053170Y-75102001D01*
X124061292Y-75105814D01*
X124064093Y-75107654D01*
X124078088Y-75116063D01*
X124081051Y-75117685D01*
X124088236Y-75123070D01*
X124096646Y-75126223D01*
X124096648Y-75126224D01*
X124132182Y-75139546D01*
X124141495Y-75143470D01*
X124183982Y-75163417D01*
X124192856Y-75164799D01*
X124196083Y-75165785D01*
X124211866Y-75169925D01*
X124215144Y-75170646D01*
X124223552Y-75173798D01*
X124237309Y-75174820D01*
X124270357Y-75177276D01*
X124280404Y-75178430D01*
X124288886Y-75179751D01*
X124288889Y-75179751D01*
X124293697Y-75180500D01*
X124309062Y-75180500D01*
X124318400Y-75180846D01*
X124367667Y-75184507D01*
X124376442Y-75182634D01*
X124385138Y-75182041D01*
X124399738Y-75180500D01*
X132121153Y-75180500D01*
X132189274Y-75200502D01*
X132194068Y-75204185D01*
X132194266Y-75203907D01*
X132200459Y-75208308D01*
X132206076Y-75213419D01*
X132345293Y-75289008D01*
X132498522Y-75329207D01*
X132582477Y-75330526D01*
X132649319Y-75331576D01*
X132649322Y-75331576D01*
X132656916Y-75331695D01*
X132811332Y-75296329D01*
X132881742Y-75260917D01*
X132946072Y-75228563D01*
X132946075Y-75228561D01*
X132952855Y-75225151D01*
X132958626Y-75220222D01*
X132958629Y-75220220D01*
X133067536Y-75127204D01*
X133067536Y-75127203D01*
X133073314Y-75122269D01*
X133165755Y-74993624D01*
X133224842Y-74846641D01*
X133247162Y-74689807D01*
X133247307Y-74676000D01*
X133228276Y-74518733D01*
X133172280Y-74370546D01*
X133082553Y-74239992D01*
X132964275Y-74134611D01*
X132956889Y-74130700D01*
X132830988Y-74064039D01*
X132830989Y-74064039D01*
X132824274Y-74060484D01*
X132670633Y-74021892D01*
X132663034Y-74021852D01*
X132663033Y-74021852D01*
X132597181Y-74021507D01*
X132512221Y-74021062D01*
X132504841Y-74022834D01*
X132504839Y-74022834D01*
X132365563Y-74056271D01*
X132365560Y-74056272D01*
X132358184Y-74058043D01*
X132351439Y-74061524D01*
X132351440Y-74061524D01*
X132253612Y-74112017D01*
X132217414Y-74130700D01*
X132211692Y-74135692D01*
X132211690Y-74135693D01*
X132206236Y-74140451D01*
X132141753Y-74170157D01*
X132123409Y-74171500D01*
X124594161Y-74171500D01*
X124526040Y-74151498D01*
X124505066Y-74134595D01*
X123985405Y-73614934D01*
X123951379Y-73552622D01*
X123948500Y-73525839D01*
X123948500Y-73205096D01*
X129067729Y-73205096D01*
X129073496Y-73257330D01*
X129080707Y-73322641D01*
X129085113Y-73362553D01*
X129087723Y-73369684D01*
X129087723Y-73369686D01*
X129131811Y-73490162D01*
X129139553Y-73511319D01*
X129143789Y-73517622D01*
X129143789Y-73517623D01*
X129223251Y-73635874D01*
X129227908Y-73642805D01*
X129233527Y-73647918D01*
X129233528Y-73647919D01*
X129339460Y-73744309D01*
X129345076Y-73749419D01*
X129484293Y-73825008D01*
X129637522Y-73865207D01*
X129721477Y-73866526D01*
X129788319Y-73867576D01*
X129788322Y-73867576D01*
X129795916Y-73867695D01*
X129950332Y-73832329D01*
X130066260Y-73774024D01*
X130085072Y-73764563D01*
X130085075Y-73764561D01*
X130091855Y-73761151D01*
X130097626Y-73756222D01*
X130097629Y-73756220D01*
X130206537Y-73663203D01*
X130212314Y-73658269D01*
X130247737Y-73608973D01*
X130303731Y-73565326D01*
X130350059Y-73556500D01*
X133916254Y-73556500D01*
X133984375Y-73576502D01*
X134001050Y-73589304D01*
X134111076Y-73689419D01*
X134250293Y-73765008D01*
X134403522Y-73805207D01*
X134487477Y-73806526D01*
X134554319Y-73807576D01*
X134554322Y-73807576D01*
X134561916Y-73807695D01*
X134716332Y-73772329D01*
X134803714Y-73728381D01*
X134851072Y-73704563D01*
X134851075Y-73704561D01*
X134857855Y-73701151D01*
X134863626Y-73696222D01*
X134863629Y-73696220D01*
X134972536Y-73603204D01*
X134972536Y-73603203D01*
X134978314Y-73598269D01*
X135070755Y-73469624D01*
X135129842Y-73322641D01*
X135143820Y-73224422D01*
X135151581Y-73169891D01*
X135151581Y-73169888D01*
X135152162Y-73165807D01*
X135152307Y-73152000D01*
X135133276Y-72994733D01*
X135077280Y-72846546D01*
X135054058Y-72812757D01*
X134991855Y-72722251D01*
X134991854Y-72722249D01*
X134987553Y-72715992D01*
X134869275Y-72610611D01*
X134861889Y-72606700D01*
X134771486Y-72558834D01*
X134729274Y-72536484D01*
X134575633Y-72497892D01*
X134568034Y-72497852D01*
X134568033Y-72497852D01*
X134502181Y-72497507D01*
X134417221Y-72497062D01*
X134409841Y-72498834D01*
X134409839Y-72498834D01*
X134270563Y-72532271D01*
X134270560Y-72532272D01*
X134263184Y-72534043D01*
X134122414Y-72606700D01*
X134116695Y-72611689D01*
X134035884Y-72682185D01*
X134003039Y-72710838D01*
X134002198Y-72709874D01*
X133948349Y-72743050D01*
X133915157Y-72747500D01*
X130237563Y-72747500D01*
X130169442Y-72727498D01*
X130153744Y-72715577D01*
X130144818Y-72707624D01*
X130103275Y-72670611D01*
X130095889Y-72666700D01*
X130057565Y-72646409D01*
X129963274Y-72596484D01*
X129809633Y-72557892D01*
X129802034Y-72557852D01*
X129802033Y-72557852D01*
X129736181Y-72557507D01*
X129651221Y-72557062D01*
X129643841Y-72558834D01*
X129643839Y-72558834D01*
X129504563Y-72592271D01*
X129504560Y-72592272D01*
X129497184Y-72594043D01*
X129356414Y-72666700D01*
X129237039Y-72770838D01*
X129145950Y-72900444D01*
X129127232Y-72948454D01*
X129106249Y-73002273D01*
X129088406Y-73048037D01*
X129087414Y-73055570D01*
X129087414Y-73055571D01*
X129072364Y-73169891D01*
X129067729Y-73205096D01*
X123948500Y-73205096D01*
X123948500Y-72850144D01*
X123972176Y-72776620D01*
X124021755Y-72707624D01*
X124080842Y-72560641D01*
X124103162Y-72403807D01*
X124103307Y-72390000D01*
X124084276Y-72232733D01*
X124028280Y-72084546D01*
X124012506Y-72061595D01*
X123942855Y-71960251D01*
X123942854Y-71960249D01*
X123938553Y-71953992D01*
X123931129Y-71947377D01*
X123875633Y-71897933D01*
X123820275Y-71848611D01*
X123812889Y-71844700D01*
X123686988Y-71778039D01*
X123686989Y-71778039D01*
X123680274Y-71774484D01*
X123526633Y-71735892D01*
X123519034Y-71735852D01*
X123519033Y-71735852D01*
X123453181Y-71735507D01*
X123368221Y-71735062D01*
X123360841Y-71736834D01*
X123360839Y-71736834D01*
X123221563Y-71770271D01*
X123221560Y-71770272D01*
X123214184Y-71772043D01*
X123073414Y-71844700D01*
X122954039Y-71948838D01*
X122862950Y-72078444D01*
X122805406Y-72226037D01*
X122804414Y-72233570D01*
X122804414Y-72233571D01*
X122788895Y-72351454D01*
X122784729Y-72383096D01*
X114300000Y-72383096D01*
X114300000Y-69214000D01*
X114320002Y-69145879D01*
X114373658Y-69099386D01*
X114426000Y-69088000D01*
X129296760Y-69088000D01*
X129364881Y-69108002D01*
G37*
G04 #@! TD.AperFunction*
G04 #@! TA.AperFunction,Conductor*
G36*
X138927121Y-69108002D02*
G01*
X138973614Y-69161658D01*
X138985000Y-69214000D01*
X138985000Y-69737756D01*
X138991702Y-69799448D01*
X139042429Y-69934764D01*
X139047809Y-69941943D01*
X139047811Y-69941946D01*
X139113787Y-70029977D01*
X139129096Y-70050404D01*
X139244736Y-70137071D01*
X139253146Y-70140224D01*
X139257008Y-70142338D01*
X139307154Y-70192596D01*
X139322500Y-70252859D01*
X139322500Y-70335500D01*
X139302498Y-70403621D01*
X139248842Y-70450114D01*
X139196500Y-70461500D01*
X137847740Y-70461500D01*
X137779619Y-70441498D01*
X137758644Y-70424595D01*
X137129515Y-69795465D01*
X137129501Y-69795452D01*
X137106723Y-69772674D01*
X137086844Y-69762545D01*
X137069989Y-69752216D01*
X137059953Y-69744925D01*
X137051929Y-69739095D01*
X137030704Y-69732199D01*
X137012438Y-69724633D01*
X136992555Y-69714502D01*
X136970513Y-69711011D01*
X136951287Y-69706395D01*
X136939500Y-69702565D01*
X136939498Y-69702565D01*
X136930066Y-69699500D01*
X131156739Y-69699500D01*
X131088618Y-69679498D01*
X131067644Y-69662595D01*
X130708144Y-69303095D01*
X130674118Y-69240783D01*
X130679183Y-69169968D01*
X130721730Y-69113132D01*
X130788250Y-69088321D01*
X130797239Y-69088000D01*
X138859000Y-69088000D01*
X138927121Y-69108002D01*
G37*
G04 #@! TD.AperFunction*
M02*
