G04 #@! TF.GenerationSoftware,KiCad,Pcbnew,8.0.2-8.0.2-0~ubuntu22.04.1*
G04 #@! TF.CreationDate,2024-05-30T09:06:10-06:00*
G04 #@! TF.ProjectId,sensor_sigfox_1.1,73656e73-6f72-45f7-9369-67666f785f31,rev?*
G04 #@! TF.SameCoordinates,Original*
G04 #@! TF.FileFunction,Legend,Top*
G04 #@! TF.FilePolarity,Positive*
%FSLAX46Y46*%
G04 Gerber Fmt 4.6, Leading zero omitted, Abs format (unit mm)*
G04 Created by KiCad (PCBNEW 8.0.2-8.0.2-0~ubuntu22.04.1) date 2024-05-30 09:06:10*
%MOMM*%
%LPD*%
G01*
G04 APERTURE LIST*
G04 Aperture macros list*
%AMRoundRect*
0 Rectangle with rounded corners*
0 $1 Rounding radius*
0 $2 $3 $4 $5 $6 $7 $8 $9 X,Y pos of 4 corners*
0 Add a 4 corners polygon primitive as box body*
4,1,4,$2,$3,$4,$5,$6,$7,$8,$9,$2,$3,0*
0 Add four circle primitives for the rounded corners*
1,1,$1+$1,$2,$3*
1,1,$1+$1,$4,$5*
1,1,$1+$1,$6,$7*
1,1,$1+$1,$8,$9*
0 Add four rect primitives between the rounded corners*
20,1,$1+$1,$2,$3,$4,$5,0*
20,1,$1+$1,$4,$5,$6,$7,0*
20,1,$1+$1,$6,$7,$8,$9,0*
20,1,$1+$1,$8,$9,$2,$3,0*%
%AMFreePoly0*
4,1,14,0.334644,0.085355,0.385355,0.034644,0.400000,-0.000711,0.400000,-0.050000,0.385355,-0.085355,0.350000,-0.100000,-0.350000,-0.100000,-0.385355,-0.085355,-0.400000,-0.050000,-0.400000,0.050000,-0.385355,0.085355,-0.350000,0.100000,0.299289,0.100000,0.334644,0.085355,0.334644,0.085355,$1*%
%AMFreePoly1*
4,1,14,0.385355,0.085355,0.400000,0.050000,0.400000,0.000711,0.385355,-0.034644,0.334644,-0.085355,0.299289,-0.100000,-0.350000,-0.100000,-0.385355,-0.085355,-0.400000,-0.050000,-0.400000,0.050000,-0.385355,0.085355,-0.350000,0.100000,0.350000,0.100000,0.385355,0.085355,0.385355,0.085355,$1*%
%AMFreePoly2*
4,1,14,0.085355,0.385355,0.100000,0.350000,0.100000,-0.350000,0.085355,-0.385355,0.050000,-0.400000,-0.050000,-0.400000,-0.085355,-0.385355,-0.100000,-0.350000,-0.100000,0.299289,-0.085355,0.334644,-0.034644,0.385355,0.000711,0.400000,0.050000,0.400000,0.085355,0.385355,0.085355,0.385355,$1*%
%AMFreePoly3*
4,1,14,0.034644,0.385355,0.085355,0.334644,0.100000,0.299289,0.100000,-0.350000,0.085355,-0.385355,0.050000,-0.400000,-0.050000,-0.400000,-0.085355,-0.385355,-0.100000,-0.350000,-0.100000,0.350000,-0.085355,0.385355,-0.050000,0.400000,-0.000711,0.400000,0.034644,0.385355,0.034644,0.385355,$1*%
%AMFreePoly4*
4,1,14,0.385355,0.085355,0.400000,0.050000,0.400000,-0.050000,0.385355,-0.085355,0.350000,-0.100000,-0.299289,-0.100000,-0.334644,-0.085355,-0.385355,-0.034644,-0.400000,0.000711,-0.400000,0.050000,-0.385355,0.085355,-0.350000,0.100000,0.350000,0.100000,0.385355,0.085355,0.385355,0.085355,$1*%
%AMFreePoly5*
4,1,14,0.385355,0.085355,0.400000,0.050000,0.400000,-0.050000,0.385355,-0.085355,0.350000,-0.100000,-0.350000,-0.100000,-0.385355,-0.085355,-0.400000,-0.050000,-0.400000,-0.000711,-0.385355,0.034644,-0.334644,0.085355,-0.299289,0.100000,0.350000,0.100000,0.385355,0.085355,0.385355,0.085355,$1*%
%AMFreePoly6*
4,1,14,0.085355,0.385355,0.100000,0.350000,0.100000,-0.299289,0.085355,-0.334644,0.034644,-0.385355,-0.000711,-0.400000,-0.050000,-0.400000,-0.085355,-0.385355,-0.100000,-0.350000,-0.100000,0.350000,-0.085355,0.385355,-0.050000,0.400000,0.050000,0.400000,0.085355,0.385355,0.085355,0.385355,$1*%
%AMFreePoly7*
4,1,14,0.085355,0.385355,0.100000,0.350000,0.100000,-0.350000,0.085355,-0.385355,0.050000,-0.400000,0.000711,-0.400000,-0.034644,-0.385355,-0.085355,-0.334644,-0.100000,-0.299289,-0.100000,0.350000,-0.085355,0.385355,-0.050000,0.400000,0.050000,0.400000,0.085355,0.385355,0.085355,0.385355,$1*%
G04 Aperture macros list end*
%ADD10C,0.150000*%
%ADD11C,0.254000*%
%ADD12C,0.120000*%
%ADD13C,0.100000*%
%ADD14C,0.200000*%
%ADD15C,1.000000*%
%ADD16C,1.800000*%
%ADD17RoundRect,0.250000X-0.475000X0.337500X-0.475000X-0.337500X0.475000X-0.337500X0.475000X0.337500X0*%
%ADD18RoundRect,0.062500X-0.350000X-0.062500X0.350000X-0.062500X0.350000X0.062500X-0.350000X0.062500X0*%
%ADD19RoundRect,0.062500X-0.062500X-0.350000X0.062500X-0.350000X0.062500X0.350000X-0.062500X0.350000X0*%
%ADD20R,1.700000X1.700000*%
%ADD21RoundRect,0.250000X0.350000X0.450000X-0.350000X0.450000X-0.350000X-0.450000X0.350000X-0.450000X0*%
%ADD22RoundRect,0.250000X-0.337500X-0.475000X0.337500X-0.475000X0.337500X0.475000X-0.337500X0.475000X0*%
%ADD23RoundRect,0.250000X0.337500X0.475000X-0.337500X0.475000X-0.337500X-0.475000X0.337500X-0.475000X0*%
%ADD24RoundRect,0.250000X-0.350000X-0.450000X0.350000X-0.450000X0.350000X0.450000X-0.350000X0.450000X0*%
%ADD25R,0.700000X1.000000*%
%ADD26R,1.000000X0.700000*%
%ADD27R,1.000000X1.050000*%
%ADD28R,1.050000X2.200000*%
%ADD29RoundRect,0.237500X-0.287500X-0.237500X0.287500X-0.237500X0.287500X0.237500X-0.287500X0.237500X0*%
%ADD30R,2.000000X2.000000*%
%ADD31C,2.000000*%
%ADD32FreePoly0,0.000000*%
%ADD33RoundRect,0.050000X-0.350000X-0.050000X0.350000X-0.050000X0.350000X0.050000X-0.350000X0.050000X0*%
%ADD34FreePoly1,0.000000*%
%ADD35FreePoly2,0.000000*%
%ADD36RoundRect,0.050000X-0.050000X-0.350000X0.050000X-0.350000X0.050000X0.350000X-0.050000X0.350000X0*%
%ADD37FreePoly3,0.000000*%
%ADD38FreePoly4,0.000000*%
%ADD39FreePoly5,0.000000*%
%ADD40FreePoly6,0.000000*%
%ADD41FreePoly7,0.000000*%
%ADD42O,1.700000X1.700000*%
G04 APERTURE END LIST*
D10*
X115537866Y-93040220D02*
X115537866Y-92278316D01*
X118015866Y-93113220D02*
X118015866Y-92351316D01*
X118396819Y-92732268D02*
X117634914Y-92732268D01*
X134957809Y-75337628D02*
X134957809Y-75813819D01*
X134624476Y-74813819D02*
X134957809Y-75337628D01*
X134957809Y-75337628D02*
X135291142Y-74813819D01*
X136148285Y-75813819D02*
X135576857Y-75813819D01*
X135862571Y-75813819D02*
X135862571Y-74813819D01*
X135862571Y-74813819D02*
X135767333Y-74956676D01*
X135767333Y-74956676D02*
X135672095Y-75051914D01*
X135672095Y-75051914D02*
X135576857Y-75099533D01*
X139478666Y-92834819D02*
X139478666Y-93549104D01*
X139478666Y-93549104D02*
X139431047Y-93691961D01*
X139431047Y-93691961D02*
X139335809Y-93787200D01*
X139335809Y-93787200D02*
X139192952Y-93834819D01*
X139192952Y-93834819D02*
X139097714Y-93834819D01*
X139859619Y-92834819D02*
X140478666Y-92834819D01*
X140478666Y-92834819D02*
X140145333Y-93215771D01*
X140145333Y-93215771D02*
X140288190Y-93215771D01*
X140288190Y-93215771D02*
X140383428Y-93263390D01*
X140383428Y-93263390D02*
X140431047Y-93311009D01*
X140431047Y-93311009D02*
X140478666Y-93406247D01*
X140478666Y-93406247D02*
X140478666Y-93644342D01*
X140478666Y-93644342D02*
X140431047Y-93739580D01*
X140431047Y-93739580D02*
X140383428Y-93787200D01*
X140383428Y-93787200D02*
X140288190Y-93834819D01*
X140288190Y-93834819D02*
X140002476Y-93834819D01*
X140002476Y-93834819D02*
X139907238Y-93787200D01*
X139907238Y-93787200D02*
X139859619Y-93739580D01*
X124599333Y-71904580D02*
X124551714Y-71952200D01*
X124551714Y-71952200D02*
X124408857Y-71999819D01*
X124408857Y-71999819D02*
X124313619Y-71999819D01*
X124313619Y-71999819D02*
X124170762Y-71952200D01*
X124170762Y-71952200D02*
X124075524Y-71856961D01*
X124075524Y-71856961D02*
X124027905Y-71761723D01*
X124027905Y-71761723D02*
X123980286Y-71571247D01*
X123980286Y-71571247D02*
X123980286Y-71428390D01*
X123980286Y-71428390D02*
X124027905Y-71237914D01*
X124027905Y-71237914D02*
X124075524Y-71142676D01*
X124075524Y-71142676D02*
X124170762Y-71047438D01*
X124170762Y-71047438D02*
X124313619Y-70999819D01*
X124313619Y-70999819D02*
X124408857Y-70999819D01*
X124408857Y-70999819D02*
X124551714Y-71047438D01*
X124551714Y-71047438D02*
X124599333Y-71095057D01*
X125551714Y-71999819D02*
X124980286Y-71999819D01*
X125266000Y-71999819D02*
X125266000Y-70999819D01*
X125266000Y-70999819D02*
X125170762Y-71142676D01*
X125170762Y-71142676D02*
X125075524Y-71237914D01*
X125075524Y-71237914D02*
X124980286Y-71285533D01*
X134055095Y-36224819D02*
X134055095Y-37034342D01*
X134055095Y-37034342D02*
X134102714Y-37129580D01*
X134102714Y-37129580D02*
X134150333Y-37177200D01*
X134150333Y-37177200D02*
X134245571Y-37224819D01*
X134245571Y-37224819D02*
X134436047Y-37224819D01*
X134436047Y-37224819D02*
X134531285Y-37177200D01*
X134531285Y-37177200D02*
X134578904Y-37129580D01*
X134578904Y-37129580D02*
X134626523Y-37034342D01*
X134626523Y-37034342D02*
X134626523Y-36224819D01*
X135055095Y-36320057D02*
X135102714Y-36272438D01*
X135102714Y-36272438D02*
X135197952Y-36224819D01*
X135197952Y-36224819D02*
X135436047Y-36224819D01*
X135436047Y-36224819D02*
X135531285Y-36272438D01*
X135531285Y-36272438D02*
X135578904Y-36320057D01*
X135578904Y-36320057D02*
X135626523Y-36415295D01*
X135626523Y-36415295D02*
X135626523Y-36510533D01*
X135626523Y-36510533D02*
X135578904Y-36653390D01*
X135578904Y-36653390D02*
X135007476Y-37224819D01*
X135007476Y-37224819D02*
X135626523Y-37224819D01*
X122641333Y-71904080D02*
X122593714Y-71951700D01*
X122593714Y-71951700D02*
X122450857Y-71999319D01*
X122450857Y-71999319D02*
X122355619Y-71999319D01*
X122355619Y-71999319D02*
X122212762Y-71951700D01*
X122212762Y-71951700D02*
X122117524Y-71856461D01*
X122117524Y-71856461D02*
X122069905Y-71761223D01*
X122069905Y-71761223D02*
X122022286Y-71570747D01*
X122022286Y-71570747D02*
X122022286Y-71427890D01*
X122022286Y-71427890D02*
X122069905Y-71237414D01*
X122069905Y-71237414D02*
X122117524Y-71142176D01*
X122117524Y-71142176D02*
X122212762Y-71046938D01*
X122212762Y-71046938D02*
X122355619Y-70999319D01*
X122355619Y-70999319D02*
X122450857Y-70999319D01*
X122450857Y-70999319D02*
X122593714Y-71046938D01*
X122593714Y-71046938D02*
X122641333Y-71094557D01*
X123022286Y-71094557D02*
X123069905Y-71046938D01*
X123069905Y-71046938D02*
X123165143Y-70999319D01*
X123165143Y-70999319D02*
X123403238Y-70999319D01*
X123403238Y-70999319D02*
X123498476Y-71046938D01*
X123498476Y-71046938D02*
X123546095Y-71094557D01*
X123546095Y-71094557D02*
X123593714Y-71189795D01*
X123593714Y-71189795D02*
X123593714Y-71285033D01*
X123593714Y-71285033D02*
X123546095Y-71427890D01*
X123546095Y-71427890D02*
X122974667Y-71999319D01*
X122974667Y-71999319D02*
X123593714Y-71999319D01*
X137750333Y-57002819D02*
X137417000Y-56526628D01*
X137178905Y-57002819D02*
X137178905Y-56002819D01*
X137178905Y-56002819D02*
X137559857Y-56002819D01*
X137559857Y-56002819D02*
X137655095Y-56050438D01*
X137655095Y-56050438D02*
X137702714Y-56098057D01*
X137702714Y-56098057D02*
X137750333Y-56193295D01*
X137750333Y-56193295D02*
X137750333Y-56336152D01*
X137750333Y-56336152D02*
X137702714Y-56431390D01*
X137702714Y-56431390D02*
X137655095Y-56479009D01*
X137655095Y-56479009D02*
X137559857Y-56526628D01*
X137559857Y-56526628D02*
X137178905Y-56526628D01*
X138131286Y-56098057D02*
X138178905Y-56050438D01*
X138178905Y-56050438D02*
X138274143Y-56002819D01*
X138274143Y-56002819D02*
X138512238Y-56002819D01*
X138512238Y-56002819D02*
X138607476Y-56050438D01*
X138607476Y-56050438D02*
X138655095Y-56098057D01*
X138655095Y-56098057D02*
X138702714Y-56193295D01*
X138702714Y-56193295D02*
X138702714Y-56288533D01*
X138702714Y-56288533D02*
X138655095Y-56431390D01*
X138655095Y-56431390D02*
X138083667Y-57002819D01*
X138083667Y-57002819D02*
X138702714Y-57002819D01*
X134779333Y-41884580D02*
X134731714Y-41932200D01*
X134731714Y-41932200D02*
X134588857Y-41979819D01*
X134588857Y-41979819D02*
X134493619Y-41979819D01*
X134493619Y-41979819D02*
X134350762Y-41932200D01*
X134350762Y-41932200D02*
X134255524Y-41836961D01*
X134255524Y-41836961D02*
X134207905Y-41741723D01*
X134207905Y-41741723D02*
X134160286Y-41551247D01*
X134160286Y-41551247D02*
X134160286Y-41408390D01*
X134160286Y-41408390D02*
X134207905Y-41217914D01*
X134207905Y-41217914D02*
X134255524Y-41122676D01*
X134255524Y-41122676D02*
X134350762Y-41027438D01*
X134350762Y-41027438D02*
X134493619Y-40979819D01*
X134493619Y-40979819D02*
X134588857Y-40979819D01*
X134588857Y-40979819D02*
X134731714Y-41027438D01*
X134731714Y-41027438D02*
X134779333Y-41075057D01*
X135684095Y-40979819D02*
X135207905Y-40979819D01*
X135207905Y-40979819D02*
X135160286Y-41456009D01*
X135160286Y-41456009D02*
X135207905Y-41408390D01*
X135207905Y-41408390D02*
X135303143Y-41360771D01*
X135303143Y-41360771D02*
X135541238Y-41360771D01*
X135541238Y-41360771D02*
X135636476Y-41408390D01*
X135636476Y-41408390D02*
X135684095Y-41456009D01*
X135684095Y-41456009D02*
X135731714Y-41551247D01*
X135731714Y-41551247D02*
X135731714Y-41789342D01*
X135731714Y-41789342D02*
X135684095Y-41884580D01*
X135684095Y-41884580D02*
X135636476Y-41932200D01*
X135636476Y-41932200D02*
X135541238Y-41979819D01*
X135541238Y-41979819D02*
X135303143Y-41979819D01*
X135303143Y-41979819D02*
X135207905Y-41932200D01*
X135207905Y-41932200D02*
X135160286Y-41884580D01*
X139230333Y-72983580D02*
X139182714Y-73031200D01*
X139182714Y-73031200D02*
X139039857Y-73078819D01*
X139039857Y-73078819D02*
X138944619Y-73078819D01*
X138944619Y-73078819D02*
X138801762Y-73031200D01*
X138801762Y-73031200D02*
X138706524Y-72935961D01*
X138706524Y-72935961D02*
X138658905Y-72840723D01*
X138658905Y-72840723D02*
X138611286Y-72650247D01*
X138611286Y-72650247D02*
X138611286Y-72507390D01*
X138611286Y-72507390D02*
X138658905Y-72316914D01*
X138658905Y-72316914D02*
X138706524Y-72221676D01*
X138706524Y-72221676D02*
X138801762Y-72126438D01*
X138801762Y-72126438D02*
X138944619Y-72078819D01*
X138944619Y-72078819D02*
X139039857Y-72078819D01*
X139039857Y-72078819D02*
X139182714Y-72126438D01*
X139182714Y-72126438D02*
X139230333Y-72174057D01*
X140087476Y-72412152D02*
X140087476Y-73078819D01*
X139849381Y-72031200D02*
X139611286Y-72745485D01*
X139611286Y-72745485D02*
X140230333Y-72745485D01*
X133414333Y-78113580D02*
X133366714Y-78161200D01*
X133366714Y-78161200D02*
X133223857Y-78208819D01*
X133223857Y-78208819D02*
X133128619Y-78208819D01*
X133128619Y-78208819D02*
X132985762Y-78161200D01*
X132985762Y-78161200D02*
X132890524Y-78065961D01*
X132890524Y-78065961D02*
X132842905Y-77970723D01*
X132842905Y-77970723D02*
X132795286Y-77780247D01*
X132795286Y-77780247D02*
X132795286Y-77637390D01*
X132795286Y-77637390D02*
X132842905Y-77446914D01*
X132842905Y-77446914D02*
X132890524Y-77351676D01*
X132890524Y-77351676D02*
X132985762Y-77256438D01*
X132985762Y-77256438D02*
X133128619Y-77208819D01*
X133128619Y-77208819D02*
X133223857Y-77208819D01*
X133223857Y-77208819D02*
X133366714Y-77256438D01*
X133366714Y-77256438D02*
X133414333Y-77304057D01*
X133747667Y-77208819D02*
X134366714Y-77208819D01*
X134366714Y-77208819D02*
X134033381Y-77589771D01*
X134033381Y-77589771D02*
X134176238Y-77589771D01*
X134176238Y-77589771D02*
X134271476Y-77637390D01*
X134271476Y-77637390D02*
X134319095Y-77685009D01*
X134319095Y-77685009D02*
X134366714Y-77780247D01*
X134366714Y-77780247D02*
X134366714Y-78018342D01*
X134366714Y-78018342D02*
X134319095Y-78113580D01*
X134319095Y-78113580D02*
X134271476Y-78161200D01*
X134271476Y-78161200D02*
X134176238Y-78208819D01*
X134176238Y-78208819D02*
X133890524Y-78208819D01*
X133890524Y-78208819D02*
X133795286Y-78161200D01*
X133795286Y-78161200D02*
X133747667Y-78113580D01*
X134819333Y-45518819D02*
X134486000Y-45042628D01*
X134247905Y-45518819D02*
X134247905Y-44518819D01*
X134247905Y-44518819D02*
X134628857Y-44518819D01*
X134628857Y-44518819D02*
X134724095Y-44566438D01*
X134724095Y-44566438D02*
X134771714Y-44614057D01*
X134771714Y-44614057D02*
X134819333Y-44709295D01*
X134819333Y-44709295D02*
X134819333Y-44852152D01*
X134819333Y-44852152D02*
X134771714Y-44947390D01*
X134771714Y-44947390D02*
X134724095Y-44995009D01*
X134724095Y-44995009D02*
X134628857Y-45042628D01*
X134628857Y-45042628D02*
X134247905Y-45042628D01*
X135676476Y-44852152D02*
X135676476Y-45518819D01*
X135438381Y-44471200D02*
X135200286Y-45185485D01*
X135200286Y-45185485D02*
X135819333Y-45185485D01*
X118614580Y-90735166D02*
X118662200Y-90782785D01*
X118662200Y-90782785D02*
X118709819Y-90925642D01*
X118709819Y-90925642D02*
X118709819Y-91020880D01*
X118709819Y-91020880D02*
X118662200Y-91163737D01*
X118662200Y-91163737D02*
X118566961Y-91258975D01*
X118566961Y-91258975D02*
X118471723Y-91306594D01*
X118471723Y-91306594D02*
X118281247Y-91354213D01*
X118281247Y-91354213D02*
X118138390Y-91354213D01*
X118138390Y-91354213D02*
X117947914Y-91306594D01*
X117947914Y-91306594D02*
X117852676Y-91258975D01*
X117852676Y-91258975D02*
X117757438Y-91163737D01*
X117757438Y-91163737D02*
X117709819Y-91020880D01*
X117709819Y-91020880D02*
X117709819Y-90925642D01*
X117709819Y-90925642D02*
X117757438Y-90782785D01*
X117757438Y-90782785D02*
X117805057Y-90735166D01*
X117709819Y-89878023D02*
X117709819Y-90068499D01*
X117709819Y-90068499D02*
X117757438Y-90163737D01*
X117757438Y-90163737D02*
X117805057Y-90211356D01*
X117805057Y-90211356D02*
X117947914Y-90306594D01*
X117947914Y-90306594D02*
X118138390Y-90354213D01*
X118138390Y-90354213D02*
X118519342Y-90354213D01*
X118519342Y-90354213D02*
X118614580Y-90306594D01*
X118614580Y-90306594D02*
X118662200Y-90258975D01*
X118662200Y-90258975D02*
X118709819Y-90163737D01*
X118709819Y-90163737D02*
X118709819Y-89973261D01*
X118709819Y-89973261D02*
X118662200Y-89878023D01*
X118662200Y-89878023D02*
X118614580Y-89830404D01*
X118614580Y-89830404D02*
X118519342Y-89782785D01*
X118519342Y-89782785D02*
X118281247Y-89782785D01*
X118281247Y-89782785D02*
X118186009Y-89830404D01*
X118186009Y-89830404D02*
X118138390Y-89878023D01*
X118138390Y-89878023D02*
X118090771Y-89973261D01*
X118090771Y-89973261D02*
X118090771Y-90163737D01*
X118090771Y-90163737D02*
X118138390Y-90258975D01*
X118138390Y-90258975D02*
X118186009Y-90306594D01*
X118186009Y-90306594D02*
X118281247Y-90354213D01*
D11*
X135927237Y-86001318D02*
X135927237Y-84731318D01*
X137257714Y-85880365D02*
X137197238Y-85940842D01*
X137197238Y-85940842D02*
X137015809Y-86001318D01*
X137015809Y-86001318D02*
X136894857Y-86001318D01*
X136894857Y-86001318D02*
X136713428Y-85940842D01*
X136713428Y-85940842D02*
X136592476Y-85819889D01*
X136592476Y-85819889D02*
X136531999Y-85698937D01*
X136531999Y-85698937D02*
X136471523Y-85457032D01*
X136471523Y-85457032D02*
X136471523Y-85275603D01*
X136471523Y-85275603D02*
X136531999Y-85033699D01*
X136531999Y-85033699D02*
X136592476Y-84912746D01*
X136592476Y-84912746D02*
X136713428Y-84791794D01*
X136713428Y-84791794D02*
X136894857Y-84731318D01*
X136894857Y-84731318D02*
X137015809Y-84731318D01*
X137015809Y-84731318D02*
X137197238Y-84791794D01*
X137197238Y-84791794D02*
X137257714Y-84852270D01*
X138467238Y-86001318D02*
X137741523Y-86001318D01*
X138104380Y-86001318D02*
X138104380Y-84731318D01*
X138104380Y-84731318D02*
X137983428Y-84912746D01*
X137983428Y-84912746D02*
X137862476Y-85033699D01*
X137862476Y-85033699D02*
X137741523Y-85094175D01*
D10*
X136720666Y-94709819D02*
X136720666Y-95424104D01*
X136720666Y-95424104D02*
X136673047Y-95566961D01*
X136673047Y-95566961D02*
X136577809Y-95662200D01*
X136577809Y-95662200D02*
X136434952Y-95709819D01*
X136434952Y-95709819D02*
X136339714Y-95709819D01*
X137625428Y-95043152D02*
X137625428Y-95709819D01*
X137387333Y-94662200D02*
X137149238Y-95376485D01*
X137149238Y-95376485D02*
X137768285Y-95376485D01*
X134218905Y-43804819D02*
X134218905Y-42804819D01*
X134218905Y-42804819D02*
X134457000Y-42804819D01*
X134457000Y-42804819D02*
X134599857Y-42852438D01*
X134599857Y-42852438D02*
X134695095Y-42947676D01*
X134695095Y-42947676D02*
X134742714Y-43042914D01*
X134742714Y-43042914D02*
X134790333Y-43233390D01*
X134790333Y-43233390D02*
X134790333Y-43376247D01*
X134790333Y-43376247D02*
X134742714Y-43566723D01*
X134742714Y-43566723D02*
X134695095Y-43661961D01*
X134695095Y-43661961D02*
X134599857Y-43757200D01*
X134599857Y-43757200D02*
X134457000Y-43804819D01*
X134457000Y-43804819D02*
X134218905Y-43804819D01*
X135742714Y-43804819D02*
X135171286Y-43804819D01*
X135457000Y-43804819D02*
X135457000Y-42804819D01*
X135457000Y-42804819D02*
X135361762Y-42947676D01*
X135361762Y-42947676D02*
X135266524Y-43042914D01*
X135266524Y-43042914D02*
X135171286Y-43090533D01*
X115369571Y-72335700D02*
X116512429Y-72335700D01*
X115305571Y-85536700D02*
X116448429Y-85536700D01*
X115877000Y-86108128D02*
X115877000Y-84965271D01*
X137749333Y-51099819D02*
X137416000Y-50623628D01*
X137177905Y-51099819D02*
X137177905Y-50099819D01*
X137177905Y-50099819D02*
X137558857Y-50099819D01*
X137558857Y-50099819D02*
X137654095Y-50147438D01*
X137654095Y-50147438D02*
X137701714Y-50195057D01*
X137701714Y-50195057D02*
X137749333Y-50290295D01*
X137749333Y-50290295D02*
X137749333Y-50433152D01*
X137749333Y-50433152D02*
X137701714Y-50528390D01*
X137701714Y-50528390D02*
X137654095Y-50576009D01*
X137654095Y-50576009D02*
X137558857Y-50623628D01*
X137558857Y-50623628D02*
X137177905Y-50623628D01*
X138082667Y-50099819D02*
X138701714Y-50099819D01*
X138701714Y-50099819D02*
X138368381Y-50480771D01*
X138368381Y-50480771D02*
X138511238Y-50480771D01*
X138511238Y-50480771D02*
X138606476Y-50528390D01*
X138606476Y-50528390D02*
X138654095Y-50576009D01*
X138654095Y-50576009D02*
X138701714Y-50671247D01*
X138701714Y-50671247D02*
X138701714Y-50909342D01*
X138701714Y-50909342D02*
X138654095Y-51004580D01*
X138654095Y-51004580D02*
X138606476Y-51052200D01*
X138606476Y-51052200D02*
X138511238Y-51099819D01*
X138511238Y-51099819D02*
X138225524Y-51099819D01*
X138225524Y-51099819D02*
X138130286Y-51052200D01*
X138130286Y-51052200D02*
X138082667Y-51004580D01*
X129794095Y-76411819D02*
X129794095Y-77221342D01*
X129794095Y-77221342D02*
X129841714Y-77316580D01*
X129841714Y-77316580D02*
X129889333Y-77364200D01*
X129889333Y-77364200D02*
X129984571Y-77411819D01*
X129984571Y-77411819D02*
X130175047Y-77411819D01*
X130175047Y-77411819D02*
X130270285Y-77364200D01*
X130270285Y-77364200D02*
X130317904Y-77316580D01*
X130317904Y-77316580D02*
X130365523Y-77221342D01*
X130365523Y-77221342D02*
X130365523Y-76411819D01*
X131365523Y-77411819D02*
X130794095Y-77411819D01*
X131079809Y-77411819D02*
X131079809Y-76411819D01*
X131079809Y-76411819D02*
X130984571Y-76554676D01*
X130984571Y-76554676D02*
X130889333Y-76649914D01*
X130889333Y-76649914D02*
X130794095Y-76697533D01*
D12*
X132222719Y-76196000D02*
G75*
G02*
X132222186Y-74296439I781281J950000D01*
G01*
X133785814Y-74296439D02*
G75*
G02*
X133785281Y-76196000I-781814J-949561D01*
G01*
X136156000Y-92300000D02*
X136156000Y-94000000D01*
X136156000Y-94000000D02*
X136156000Y-94500000D01*
X136156000Y-94500000D02*
X138756000Y-94500000D01*
X138756000Y-92300000D02*
X136156000Y-92300000D01*
X138756000Y-94500000D02*
X138756000Y-92300000D01*
X124001000Y-73961248D02*
X124001000Y-74483752D01*
X125471000Y-73961248D02*
X125471000Y-74483752D01*
X136090000Y-39933000D02*
X136090000Y-39458000D01*
X136565000Y-36713000D02*
X136090000Y-36713000D01*
X136565000Y-39933000D02*
X136090000Y-39933000D01*
X138835000Y-36713000D02*
X139310000Y-36713000D01*
X138835000Y-39933000D02*
X139310000Y-39933000D01*
X139310000Y-36713000D02*
X139310000Y-37188000D01*
X139310000Y-39933000D02*
X139310000Y-39458000D01*
X122104000Y-73961748D02*
X122104000Y-74484252D01*
X123574000Y-73961748D02*
X123574000Y-74484252D01*
X138062064Y-53714000D02*
X137607936Y-53714000D01*
X138062064Y-55184000D02*
X137607936Y-55184000D01*
X137423248Y-40832000D02*
X137945752Y-40832000D01*
X137423248Y-42302000D02*
X137945752Y-42302000D01*
X136570752Y-71874000D02*
X136048248Y-71874000D01*
X136570752Y-73344000D02*
X136048248Y-73344000D01*
X136701752Y-76640000D02*
X136179248Y-76640000D01*
X136701752Y-78110000D02*
X136179248Y-78110000D01*
X137437936Y-44371000D02*
X137892064Y-44371000D01*
X137437936Y-45841000D02*
X137892064Y-45841000D01*
X118996000Y-90312748D02*
X118996000Y-90835252D01*
X120466000Y-90312748D02*
X120466000Y-90835252D01*
D13*
X120903000Y-79114000D02*
X121403000Y-79114000D01*
X120903000Y-81114000D02*
X120903000Y-79114000D01*
X120903000Y-90114000D02*
X120903000Y-92114000D01*
X120903000Y-92114000D02*
X121403000Y-92114000D01*
D14*
X134403000Y-78414000D02*
X134403000Y-78414000D01*
X134603000Y-78414000D02*
X134603000Y-78414000D01*
D13*
X135403000Y-79114000D02*
X140903000Y-79114000D01*
X140903000Y-79114000D02*
X140903000Y-92114000D01*
X140903000Y-92114000D02*
X135403000Y-92114000D01*
D14*
X134403000Y-78414000D02*
G75*
G02*
X134603000Y-78414000I100000J0D01*
G01*
X134603000Y-78414000D02*
G75*
G02*
X134403000Y-78414000I-100000J0D01*
G01*
D12*
X132592000Y-93168000D02*
X133232000Y-93168000D01*
X134752000Y-93168000D02*
X134752000Y-92538000D01*
X135342000Y-95888000D02*
X132642000Y-95888000D01*
X135392000Y-93168000D02*
X134752000Y-93168000D01*
X136061000Y-42640000D02*
X136061000Y-44110000D01*
X136061000Y-44110000D02*
X138521000Y-44110000D01*
X138521000Y-42640000D02*
X136061000Y-42640000D01*
X138084064Y-51681000D02*
X137629936Y-51681000D01*
X138084064Y-53151000D02*
X137629936Y-53151000D01*
X127125000Y-75871000D02*
X127125000Y-75421000D01*
X127575000Y-72651000D02*
X127125000Y-72651000D01*
X127575000Y-75871000D02*
X127125000Y-75871000D01*
X129895000Y-72651000D02*
X130345000Y-72651000D01*
X129895000Y-75871000D02*
X130345000Y-75871000D01*
X130345000Y-72651000D02*
X130345000Y-73101000D01*
X130345000Y-75871000D02*
X130345000Y-75421000D01*
%LPC*%
D15*
X133004000Y-76196000D03*
X133004000Y-74296000D03*
D16*
X137456000Y-93400000D03*
D17*
X124736000Y-73185000D03*
X124736000Y-75260000D03*
D18*
X136237500Y-37573000D03*
X136237500Y-38073000D03*
X136237500Y-38573000D03*
X136237500Y-39073000D03*
D19*
X136950000Y-39785500D03*
X137450000Y-39785500D03*
X137950000Y-39785500D03*
X138450000Y-39785500D03*
D18*
X139162500Y-39073000D03*
X139162500Y-38573000D03*
X139162500Y-38073000D03*
X139162500Y-37573000D03*
D19*
X138450000Y-36860500D03*
X137950000Y-36860500D03*
X137450000Y-36860500D03*
X136950000Y-36860500D03*
D20*
X137700000Y-38323000D03*
D17*
X122839000Y-73185500D03*
X122839000Y-75260500D03*
D21*
X138835000Y-54449000D03*
X136835000Y-54449000D03*
D22*
X136647000Y-41567000D03*
X138722000Y-41567000D03*
D23*
X137347000Y-72609000D03*
X135272000Y-72609000D03*
X137478000Y-77375000D03*
X135403000Y-77375000D03*
D24*
X136665000Y-45106000D03*
X138665000Y-45106000D03*
D17*
X119731000Y-89536500D03*
X119731000Y-91611500D03*
D25*
X134453000Y-79754000D03*
X133353000Y-79754000D03*
X132253000Y-79754000D03*
X131153000Y-79754000D03*
X130053000Y-79754000D03*
X128953000Y-79754000D03*
X127853000Y-79754000D03*
X126753000Y-79754000D03*
X125653000Y-79754000D03*
X124553000Y-79754000D03*
X123453000Y-79754000D03*
X122353000Y-79754000D03*
D26*
X121543000Y-82314000D03*
X121543000Y-83414000D03*
X121543000Y-84514000D03*
X121543000Y-85614000D03*
X121543000Y-86714000D03*
X121543000Y-87814000D03*
X121543000Y-88914000D03*
D25*
X122353000Y-91474000D03*
X123453000Y-91474000D03*
X124553000Y-91474000D03*
X125653000Y-91474000D03*
X126753000Y-91474000D03*
X127853000Y-91474000D03*
X128953000Y-91474000D03*
X130053000Y-91474000D03*
X131153000Y-91474000D03*
X132253000Y-91474000D03*
X133353000Y-91474000D03*
X134453000Y-91474000D03*
D27*
X133992000Y-93003000D03*
D28*
X135467000Y-94528000D03*
X132517000Y-94528000D03*
D29*
X136846000Y-43375000D03*
X138596000Y-43375000D03*
D30*
X115883000Y-75001000D03*
D31*
X115883000Y-87701000D03*
D21*
X138857000Y-52416000D03*
X136857000Y-52416000D03*
D32*
X127285000Y-73461000D03*
D33*
X127285000Y-73861000D03*
X127285000Y-74261000D03*
X127285000Y-74661000D03*
D34*
X127285000Y-75061000D03*
D35*
X127935000Y-75711000D03*
D36*
X128335000Y-75711000D03*
X128735000Y-75711000D03*
X129135000Y-75711000D03*
D37*
X129535000Y-75711000D03*
D38*
X130185000Y-75061000D03*
D33*
X130185000Y-74661000D03*
X130185000Y-74261000D03*
X130185000Y-73861000D03*
D39*
X130185000Y-73461000D03*
D40*
X129535000Y-72811000D03*
D36*
X129135000Y-72811000D03*
X128735000Y-72811000D03*
X128335000Y-72811000D03*
D41*
X127935000Y-72811000D03*
D20*
X128735000Y-74261000D03*
X115488000Y-94262000D03*
D42*
X118028000Y-94262000D03*
X120568000Y-94262000D03*
X123108000Y-94262000D03*
X125648000Y-94262000D03*
X128188000Y-94262000D03*
X130728000Y-94262000D03*
%LPD*%
M02*
