M48
; DRILL file {KiCad 8.0.2-8.0.2-0~ubuntu22.04.1} date 2024-05-30T09:06:14-0600
; FORMAT={-:-/ absolute / inch / decimal}
; #@! TF.CreationDate,2024-05-30T09:06:14-06:00
; #@! TF.GenerationSoftware,Kicad,Pcbnew,8.0.2-8.0.2-0~ubuntu22.04.1
; #@! TF.FileFunction,Plated,1,2,PTH
FMAT,2
INCH
; #@! TA.AperFunction,Plated,PTH,ViaDrill
T1C0.0039
; #@! TA.AperFunction,Plated,PTH,ViaDrill
T2C0.0157
; #@! TA.AperFunction,Plated,PTH,ComponentDrill
T3C0.0197
; #@! TA.AperFunction,Plated,PTH,ComponentDrill
T4C0.0354
; #@! TA.AperFunction,Plated,PTH,ComponentDrill
T5C0.0394
; #@! TA.AperFunction,Plated,PTH,ComponentDrill
T6C0.0402
%
G90
G05
T1
X4.9705Y-2.9724
X4.9803Y-2.9035
X5.3642Y-1.4665
X5.4337Y-1.5991
T2
X4.6125Y-2.8141
X4.6512Y-2.7621
X4.6547Y-3.0385
X4.658Y-3.4083
X4.6838Y-3.1319
X4.6842Y-3.0783
X4.7059Y-3.3703
X4.7157Y-2.842
X4.7266Y-3.2988
X4.907Y-3.1102
X4.9236Y-3.4454
X4.939Y-3.5197
X5.0Y-2.8027
X5.0522Y-3.0354
X5.1575Y-2.8386
X5.3463Y-2.9511
X5.3804Y-1.845
X5.4075Y-2.7244
X5.4098Y-1.9176
T3
X5.2364Y-2.925
X5.2364Y-2.9998
T4
X5.4117Y-3.6772
T5
X4.5468Y-3.7111
X4.6468Y-3.7111
X4.7468Y-3.7111
X4.8468Y-3.7111
X4.9468Y-3.7111
X5.0468Y-3.7111
X5.1468Y-3.7111
T6
X4.5623Y-2.9528
X4.5623Y-3.4528
M30
