G04 #@! TF.GenerationSoftware,KiCad,Pcbnew,8.0.2-8.0.2-0~ubuntu22.04.1*
G04 #@! TF.CreationDate,2024-05-30T09:06:10-06:00*
G04 #@! TF.ProjectId,sensor_sigfox_1.1,73656e73-6f72-45f7-9369-67666f785f31,rev?*
G04 #@! TF.SameCoordinates,Original*
G04 #@! TF.FileFunction,Copper,L1,Top*
G04 #@! TF.FilePolarity,Positive*
%FSLAX46Y46*%
G04 Gerber Fmt 4.6, Leading zero omitted, Abs format (unit mm)*
G04 Created by KiCad (PCBNEW 8.0.2-8.0.2-0~ubuntu22.04.1) date 2024-05-30 09:06:10*
%MOMM*%
%LPD*%
G01*
G04 APERTURE LIST*
G04 Aperture macros list*
%AMRoundRect*
0 Rectangle with rounded corners*
0 $1 Rounding radius*
0 $2 $3 $4 $5 $6 $7 $8 $9 X,Y pos of 4 corners*
0 Add a 4 corners polygon primitive as box body*
4,1,4,$2,$3,$4,$5,$6,$7,$8,$9,$2,$3,0*
0 Add four circle primitives for the rounded corners*
1,1,$1+$1,$2,$3*
1,1,$1+$1,$4,$5*
1,1,$1+$1,$6,$7*
1,1,$1+$1,$8,$9*
0 Add four rect primitives between the rounded corners*
20,1,$1+$1,$2,$3,$4,$5,0*
20,1,$1+$1,$4,$5,$6,$7,0*
20,1,$1+$1,$6,$7,$8,$9,0*
20,1,$1+$1,$8,$9,$2,$3,0*%
%AMFreePoly0*
4,1,14,0.334644,0.085355,0.385355,0.034644,0.400000,-0.000711,0.400000,-0.050000,0.385355,-0.085355,0.350000,-0.100000,-0.350000,-0.100000,-0.385355,-0.085355,-0.400000,-0.050000,-0.400000,0.050000,-0.385355,0.085355,-0.350000,0.100000,0.299289,0.100000,0.334644,0.085355,0.334644,0.085355,$1*%
%AMFreePoly1*
4,1,14,0.385355,0.085355,0.400000,0.050000,0.400000,0.000711,0.385355,-0.034644,0.334644,-0.085355,0.299289,-0.100000,-0.350000,-0.100000,-0.385355,-0.085355,-0.400000,-0.050000,-0.400000,0.050000,-0.385355,0.085355,-0.350000,0.100000,0.350000,0.100000,0.385355,0.085355,0.385355,0.085355,$1*%
%AMFreePoly2*
4,1,14,0.085355,0.385355,0.100000,0.350000,0.100000,-0.350000,0.085355,-0.385355,0.050000,-0.400000,-0.050000,-0.400000,-0.085355,-0.385355,-0.100000,-0.350000,-0.100000,0.299289,-0.085355,0.334644,-0.034644,0.385355,0.000711,0.400000,0.050000,0.400000,0.085355,0.385355,0.085355,0.385355,$1*%
%AMFreePoly3*
4,1,14,0.034644,0.385355,0.085355,0.334644,0.100000,0.299289,0.100000,-0.350000,0.085355,-0.385355,0.050000,-0.400000,-0.050000,-0.400000,-0.085355,-0.385355,-0.100000,-0.350000,-0.100000,0.350000,-0.085355,0.385355,-0.050000,0.400000,-0.000711,0.400000,0.034644,0.385355,0.034644,0.385355,$1*%
%AMFreePoly4*
4,1,14,0.385355,0.085355,0.400000,0.050000,0.400000,-0.050000,0.385355,-0.085355,0.350000,-0.100000,-0.299289,-0.100000,-0.334644,-0.085355,-0.385355,-0.034644,-0.400000,0.000711,-0.400000,0.050000,-0.385355,0.085355,-0.350000,0.100000,0.350000,0.100000,0.385355,0.085355,0.385355,0.085355,$1*%
%AMFreePoly5*
4,1,14,0.385355,0.085355,0.400000,0.050000,0.400000,-0.050000,0.385355,-0.085355,0.350000,-0.100000,-0.350000,-0.100000,-0.385355,-0.085355,-0.400000,-0.050000,-0.400000,-0.000711,-0.385355,0.034644,-0.334644,0.085355,-0.299289,0.100000,0.350000,0.100000,0.385355,0.085355,0.385355,0.085355,$1*%
%AMFreePoly6*
4,1,14,0.085355,0.385355,0.100000,0.350000,0.100000,-0.299289,0.085355,-0.334644,0.034644,-0.385355,-0.000711,-0.400000,-0.050000,-0.400000,-0.085355,-0.385355,-0.100000,-0.350000,-0.100000,0.350000,-0.085355,0.385355,-0.050000,0.400000,0.050000,0.400000,0.085355,0.385355,0.085355,0.385355,$1*%
%AMFreePoly7*
4,1,14,0.085355,0.385355,0.100000,0.350000,0.100000,-0.350000,0.085355,-0.385355,0.050000,-0.400000,0.000711,-0.400000,-0.034644,-0.385355,-0.085355,-0.334644,-0.100000,-0.299289,-0.100000,0.350000,-0.085355,0.385355,-0.050000,0.400000,0.050000,0.400000,0.085355,0.385355,0.085355,0.385355,$1*%
G04 Aperture macros list end*
G04 #@! TA.AperFunction,ComponentPad*
%ADD10C,1.000000*%
G04 #@! TD*
G04 #@! TA.AperFunction,ComponentPad*
%ADD11C,1.800000*%
G04 #@! TD*
G04 #@! TA.AperFunction,SMDPad,CuDef*
%ADD12RoundRect,0.250000X-0.475000X0.337500X-0.475000X-0.337500X0.475000X-0.337500X0.475000X0.337500X0*%
G04 #@! TD*
G04 #@! TA.AperFunction,SMDPad,CuDef*
%ADD13RoundRect,0.062500X-0.350000X-0.062500X0.350000X-0.062500X0.350000X0.062500X-0.350000X0.062500X0*%
G04 #@! TD*
G04 #@! TA.AperFunction,SMDPad,CuDef*
%ADD14RoundRect,0.062500X-0.062500X-0.350000X0.062500X-0.350000X0.062500X0.350000X-0.062500X0.350000X0*%
G04 #@! TD*
G04 #@! TA.AperFunction,SMDPad,CuDef*
%ADD15R,1.700000X1.700000*%
G04 #@! TD*
G04 #@! TA.AperFunction,SMDPad,CuDef*
%ADD16RoundRect,0.250000X0.350000X0.450000X-0.350000X0.450000X-0.350000X-0.450000X0.350000X-0.450000X0*%
G04 #@! TD*
G04 #@! TA.AperFunction,SMDPad,CuDef*
%ADD17RoundRect,0.250000X-0.337500X-0.475000X0.337500X-0.475000X0.337500X0.475000X-0.337500X0.475000X0*%
G04 #@! TD*
G04 #@! TA.AperFunction,SMDPad,CuDef*
%ADD18RoundRect,0.250000X0.337500X0.475000X-0.337500X0.475000X-0.337500X-0.475000X0.337500X-0.475000X0*%
G04 #@! TD*
G04 #@! TA.AperFunction,SMDPad,CuDef*
%ADD19RoundRect,0.250000X-0.350000X-0.450000X0.350000X-0.450000X0.350000X0.450000X-0.350000X0.450000X0*%
G04 #@! TD*
G04 #@! TA.AperFunction,SMDPad,CuDef*
%ADD20R,0.700000X1.000000*%
G04 #@! TD*
G04 #@! TA.AperFunction,SMDPad,CuDef*
%ADD21R,1.000000X0.700000*%
G04 #@! TD*
G04 #@! TA.AperFunction,SMDPad,CuDef*
%ADD22R,1.000000X1.050000*%
G04 #@! TD*
G04 #@! TA.AperFunction,SMDPad,CuDef*
%ADD23R,1.050000X2.200000*%
G04 #@! TD*
G04 #@! TA.AperFunction,SMDPad,CuDef*
%ADD24RoundRect,0.237500X-0.287500X-0.237500X0.287500X-0.237500X0.287500X0.237500X-0.287500X0.237500X0*%
G04 #@! TD*
G04 #@! TA.AperFunction,ComponentPad*
%ADD25R,2.000000X2.000000*%
G04 #@! TD*
G04 #@! TA.AperFunction,ComponentPad*
%ADD26C,2.000000*%
G04 #@! TD*
G04 #@! TA.AperFunction,SMDPad,CuDef*
%ADD27FreePoly0,0.000000*%
G04 #@! TD*
G04 #@! TA.AperFunction,SMDPad,CuDef*
%ADD28RoundRect,0.050000X-0.350000X-0.050000X0.350000X-0.050000X0.350000X0.050000X-0.350000X0.050000X0*%
G04 #@! TD*
G04 #@! TA.AperFunction,SMDPad,CuDef*
%ADD29FreePoly1,0.000000*%
G04 #@! TD*
G04 #@! TA.AperFunction,SMDPad,CuDef*
%ADD30FreePoly2,0.000000*%
G04 #@! TD*
G04 #@! TA.AperFunction,SMDPad,CuDef*
%ADD31RoundRect,0.050000X-0.050000X-0.350000X0.050000X-0.350000X0.050000X0.350000X-0.050000X0.350000X0*%
G04 #@! TD*
G04 #@! TA.AperFunction,SMDPad,CuDef*
%ADD32FreePoly3,0.000000*%
G04 #@! TD*
G04 #@! TA.AperFunction,SMDPad,CuDef*
%ADD33FreePoly4,0.000000*%
G04 #@! TD*
G04 #@! TA.AperFunction,SMDPad,CuDef*
%ADD34FreePoly5,0.000000*%
G04 #@! TD*
G04 #@! TA.AperFunction,SMDPad,CuDef*
%ADD35FreePoly6,0.000000*%
G04 #@! TD*
G04 #@! TA.AperFunction,SMDPad,CuDef*
%ADD36FreePoly7,0.000000*%
G04 #@! TD*
G04 #@! TA.AperFunction,ComponentPad*
%ADD37R,1.700000X1.700000*%
G04 #@! TD*
G04 #@! TA.AperFunction,ComponentPad*
%ADD38O,1.700000X1.700000*%
G04 #@! TD*
G04 #@! TA.AperFunction,ViaPad*
%ADD39C,0.800000*%
G04 #@! TD*
G04 #@! TA.AperFunction,ViaPad*
%ADD40C,0.300000*%
G04 #@! TD*
G04 #@! TA.AperFunction,Conductor*
%ADD41C,0.250000*%
G04 #@! TD*
G04 #@! TA.AperFunction,Conductor*
%ADD42C,0.300000*%
G04 #@! TD*
G04 #@! TA.AperFunction,Conductor*
%ADD43C,0.160000*%
G04 #@! TD*
G04 #@! TA.AperFunction,Conductor*
%ADD44C,0.150000*%
G04 #@! TD*
G04 #@! TA.AperFunction,Conductor*
%ADD45C,0.190000*%
G04 #@! TD*
G04 APERTURE END LIST*
D10*
X133004000Y-76196000D03*
X133004000Y-74296000D03*
D11*
X137456000Y-93400000D03*
D12*
X124736000Y-73185000D03*
X124736000Y-75260000D03*
D13*
X136237500Y-37573000D03*
X136237500Y-38073000D03*
X136237500Y-38573000D03*
X136237500Y-39073000D03*
D14*
X136950000Y-39785500D03*
X137450000Y-39785500D03*
X137950000Y-39785500D03*
X138450000Y-39785500D03*
D13*
X139162500Y-39073000D03*
X139162500Y-38573000D03*
X139162500Y-38073000D03*
X139162500Y-37573000D03*
D14*
X138450000Y-36860500D03*
X137950000Y-36860500D03*
X137450000Y-36860500D03*
X136950000Y-36860500D03*
D15*
X137700000Y-38323000D03*
D12*
X122839000Y-73185500D03*
X122839000Y-75260500D03*
D16*
X138835000Y-54449000D03*
X136835000Y-54449000D03*
D17*
X136647000Y-41567000D03*
X138722000Y-41567000D03*
D18*
X137347000Y-72609000D03*
X135272000Y-72609000D03*
X137478000Y-77375000D03*
X135403000Y-77375000D03*
D19*
X136665000Y-45106000D03*
X138665000Y-45106000D03*
D12*
X119731000Y-89536500D03*
X119731000Y-91611500D03*
D20*
X134453000Y-79754000D03*
X133353000Y-79754000D03*
X132253000Y-79754000D03*
X131153000Y-79754000D03*
X130053000Y-79754000D03*
X128953000Y-79754000D03*
X127853000Y-79754000D03*
X126753000Y-79754000D03*
X125653000Y-79754000D03*
X124553000Y-79754000D03*
X123453000Y-79754000D03*
X122353000Y-79754000D03*
D21*
X121543000Y-82314000D03*
X121543000Y-83414000D03*
X121543000Y-84514000D03*
X121543000Y-85614000D03*
X121543000Y-86714000D03*
X121543000Y-87814000D03*
X121543000Y-88914000D03*
D20*
X122353000Y-91474000D03*
X123453000Y-91474000D03*
X124553000Y-91474000D03*
X125653000Y-91474000D03*
X126753000Y-91474000D03*
X127853000Y-91474000D03*
X128953000Y-91474000D03*
X130053000Y-91474000D03*
X131153000Y-91474000D03*
X132253000Y-91474000D03*
X133353000Y-91474000D03*
X134453000Y-91474000D03*
D22*
X133992000Y-93003000D03*
D23*
X135467000Y-94528000D03*
X132517000Y-94528000D03*
D24*
X136846000Y-43375000D03*
X138596000Y-43375000D03*
D25*
X115883000Y-75001000D03*
D26*
X115883000Y-87701000D03*
D16*
X138857000Y-52416000D03*
X136857000Y-52416000D03*
D27*
X127285000Y-73461000D03*
D28*
X127285000Y-73861000D03*
X127285000Y-74261000D03*
X127285000Y-74661000D03*
D29*
X127285000Y-75061000D03*
D30*
X127935000Y-75711000D03*
D31*
X128335000Y-75711000D03*
X128735000Y-75711000D03*
X129135000Y-75711000D03*
D32*
X129535000Y-75711000D03*
D33*
X130185000Y-75061000D03*
D28*
X130185000Y-74661000D03*
X130185000Y-74261000D03*
X130185000Y-73861000D03*
D34*
X130185000Y-73461000D03*
D35*
X129535000Y-72811000D03*
D31*
X129135000Y-72811000D03*
X128735000Y-72811000D03*
X128335000Y-72811000D03*
D36*
X127935000Y-72811000D03*
D15*
X128735000Y-74261000D03*
D37*
X115488000Y-94262000D03*
D38*
X118028000Y-94262000D03*
X120568000Y-94262000D03*
X123108000Y-94262000D03*
X125648000Y-94262000D03*
X128188000Y-94262000D03*
X130728000Y-94262000D03*
D39*
X137409831Y-48707169D03*
X137350000Y-69200000D03*
X118230000Y-77179000D03*
X118139897Y-70157397D03*
X136663000Y-46864000D03*
X124637000Y-79000000D03*
X128327000Y-77098000D03*
X118313000Y-86571000D03*
X135796000Y-74959000D03*
X131000000Y-72100000D03*
X125450000Y-89400000D03*
X125060000Y-87514000D03*
D40*
X126250000Y-75500000D03*
X138016360Y-40616369D03*
D39*
X119531000Y-85605000D03*
X118979000Y-78189954D03*
X127000000Y-71188000D03*
X118968500Y-79550000D03*
X120055464Y-83789500D03*
X119780000Y-72187000D03*
X117157000Y-71477000D03*
D40*
X126500000Y-73750000D03*
X136250000Y-37250000D03*
D41*
X115488000Y-94262000D02*
X115488000Y-95338000D01*
D42*
X124736000Y-73185000D02*
X125737000Y-74186000D01*
D41*
X138425000Y-36885500D02*
X138425000Y-37598000D01*
X134453000Y-91474000D02*
X138813000Y-91474000D01*
X128694248Y-86350000D02*
X134472124Y-80572124D01*
X122677000Y-90400000D02*
X124250000Y-90400000D01*
X126075000Y-86075000D02*
X126350000Y-86350000D01*
X132253000Y-79136000D02*
X132611000Y-78778000D01*
D43*
X127285000Y-74261000D02*
X128735000Y-74261000D01*
D41*
X135628000Y-41913000D02*
X135974000Y-41567000D01*
X123050000Y-89850000D02*
X123050000Y-87323248D01*
D43*
X136950000Y-39073000D02*
X137700000Y-38323000D01*
D42*
X117699000Y-73185000D02*
X124736000Y-73185000D01*
D41*
X135628000Y-47262000D02*
X135628000Y-41913000D01*
X132517000Y-92867000D02*
X132517000Y-94528000D01*
X132253000Y-79754000D02*
X132253000Y-79136000D01*
X122353000Y-91474000D02*
X121668500Y-91474000D01*
X130053000Y-91474000D02*
X130053000Y-92191000D01*
X132253000Y-92347000D02*
X132125000Y-92475000D01*
X136083000Y-95231000D02*
X135328000Y-94476000D01*
X122353000Y-91474000D02*
X122353000Y-90547000D01*
X137073169Y-48707169D02*
X135628000Y-47262000D01*
D42*
X122839000Y-73185500D02*
X124735500Y-73185500D01*
D44*
X137950000Y-38573000D02*
X137700000Y-38323000D01*
D41*
X132125000Y-92475000D02*
X132517000Y-92867000D01*
X139749000Y-92410000D02*
X139749000Y-94750000D01*
X124298248Y-86075000D02*
X126075000Y-86075000D01*
X124553000Y-90703000D02*
X124553000Y-91474000D01*
X133468000Y-78778000D02*
X133353000Y-78893000D01*
X131455000Y-78778000D02*
X132611000Y-78778000D01*
X132611000Y-78778000D02*
X133468000Y-78778000D01*
X131349000Y-92475000D02*
X132125000Y-92475000D01*
X124250000Y-90400000D02*
X124553000Y-90703000D01*
X121668500Y-91474000D02*
X119731000Y-89536500D01*
X133353000Y-78893000D02*
X133353000Y-79754000D01*
X122353000Y-90547000D02*
X123050000Y-89850000D01*
X132253000Y-91474000D02*
X132253000Y-92347000D01*
X131153000Y-91474000D02*
X131153000Y-92279000D01*
D42*
X114225000Y-76659000D02*
X115883000Y-75001000D01*
D41*
X122353000Y-90724000D02*
X122677000Y-90400000D01*
X137347000Y-69203000D02*
X137350000Y-69200000D01*
X130337000Y-92475000D02*
X131349000Y-92475000D01*
D44*
X138450000Y-37573000D02*
X137700000Y-38323000D01*
D41*
X124553000Y-92224000D02*
X124804000Y-92475000D01*
D44*
X136950000Y-37573000D02*
X137700000Y-38323000D01*
D41*
X130053000Y-92191000D02*
X130337000Y-92475000D01*
X131153000Y-79080000D02*
X131455000Y-78778000D01*
X138813000Y-91474000D02*
X139749000Y-92410000D01*
X134453000Y-80553000D02*
X134453000Y-79754000D01*
D42*
X137347000Y-77244000D02*
X137478000Y-77375000D01*
X115488000Y-94262000D02*
X115488000Y-93123000D01*
D41*
X137409831Y-48707169D02*
X137073169Y-48707169D01*
X135974000Y-41567000D02*
X136647000Y-41567000D01*
D43*
X126290000Y-74256000D02*
X126220000Y-74186000D01*
D41*
X136846000Y-43375000D02*
X136846000Y-41766000D01*
D42*
X125737000Y-74186000D02*
X126220000Y-74186000D01*
D43*
X136237500Y-39073000D02*
X136950000Y-39073000D01*
D41*
X131153000Y-92279000D02*
X131349000Y-92475000D01*
X124553000Y-91474000D02*
X124553000Y-92224000D01*
X123050000Y-87323248D02*
X124298248Y-86075000D01*
D42*
X124735500Y-73185500D02*
X124736000Y-73185000D01*
D41*
X136846000Y-41766000D02*
X136647000Y-41567000D01*
X134143000Y-78779000D02*
X133513000Y-78779000D01*
X134453000Y-79754000D02*
X134453000Y-79089000D01*
X137347000Y-72609000D02*
X137347000Y-69203000D01*
D42*
X115488000Y-93123000D02*
X114225000Y-91860000D01*
D43*
X127285000Y-74261000D02*
X127280000Y-74256000D01*
D41*
X124804000Y-92475000D02*
X131349000Y-92475000D01*
D44*
X138450000Y-39073000D02*
X137700000Y-38323000D01*
D43*
X127280000Y-74256000D02*
X126290000Y-74256000D01*
D41*
X122353000Y-91474000D02*
X122353000Y-90724000D01*
X139268000Y-95231000D02*
X136083000Y-95231000D01*
X138450000Y-36860500D02*
X138425000Y-36885500D01*
D42*
X115883000Y-75001000D02*
X117699000Y-73185000D01*
D43*
X136647000Y-41567000D02*
X136237500Y-41157500D01*
D44*
X137950000Y-38073000D02*
X137700000Y-38323000D01*
D42*
X114225000Y-91860000D02*
X114225000Y-76659000D01*
D43*
X136237500Y-41157500D02*
X136237500Y-39073000D01*
D41*
X135328000Y-94476000D02*
X132800000Y-94476000D01*
X131245000Y-95800000D02*
X132517000Y-94528000D01*
X115488000Y-95338000D02*
X115950000Y-95800000D01*
X138425000Y-37598000D02*
X137700000Y-38323000D01*
X126350000Y-86350000D02*
X128694248Y-86350000D01*
X115950000Y-95800000D02*
X131245000Y-95800000D01*
X139749000Y-94750000D02*
X139268000Y-95231000D01*
D42*
X137347000Y-72609000D02*
X137347000Y-77244000D01*
D41*
X134472124Y-80572124D02*
X134453000Y-80553000D01*
X134453000Y-79089000D02*
X134143000Y-78779000D01*
X131153000Y-79754000D02*
X131153000Y-79080000D01*
X132378000Y-91599000D02*
X132253000Y-91474000D01*
D42*
X115883000Y-87701000D02*
X115883000Y-80226000D01*
D41*
X124736000Y-75260000D02*
X122839500Y-75260000D01*
X120200000Y-92080500D02*
X119731000Y-91611500D01*
D43*
X136237500Y-38073000D02*
X134788000Y-38073000D01*
D41*
X126295000Y-74661000D02*
X126748842Y-74661000D01*
D43*
X139550000Y-37185500D02*
X139162500Y-37573000D01*
D42*
X120859500Y-75260500D02*
X122839000Y-75260500D01*
D43*
X137743900Y-36168000D02*
X139168000Y-36168000D01*
X139168000Y-36168000D02*
X139550000Y-36550000D01*
D45*
X127285000Y-74661000D02*
X126748842Y-74661000D01*
D43*
X137450000Y-36461900D02*
X137743900Y-36168000D01*
D41*
X124736000Y-75260000D02*
X125696000Y-75260000D01*
X139412240Y-39785500D02*
X140027000Y-39170740D01*
X136835000Y-52438000D02*
X136857000Y-52416000D01*
D42*
X134482000Y-47547107D02*
X134482000Y-38379000D01*
D41*
X125696000Y-75260000D02*
X126295000Y-74661000D01*
X138722000Y-41567000D02*
X138722000Y-40412100D01*
X123453000Y-91474000D02*
X123453000Y-92266000D01*
D42*
X134750000Y-53500000D02*
X134450000Y-53800000D01*
D41*
X120479000Y-92679000D02*
X119731000Y-91931000D01*
D42*
X135166000Y-37047000D02*
X135166000Y-37695000D01*
D41*
X140027000Y-39170740D02*
X140027000Y-38320000D01*
X139780000Y-38073000D02*
X139664000Y-38073000D01*
X136835000Y-54449000D02*
X136835000Y-52438000D01*
D42*
X118947294Y-69350000D02*
X118139897Y-70157397D01*
X118591000Y-77529000D02*
X120859500Y-75260500D01*
D41*
X139348600Y-39785500D02*
X139412240Y-39785500D01*
D42*
X134482000Y-38379000D02*
X134787000Y-38074000D01*
X133700000Y-69350000D02*
X118947294Y-69350000D01*
X135166000Y-37695000D02*
X134787000Y-38074000D01*
X118580000Y-77529000D02*
X118591000Y-77529000D01*
D41*
X122839500Y-75260000D02*
X122839000Y-75260500D01*
X140027000Y-38320000D02*
X139780000Y-38073000D01*
D42*
X115883000Y-80226000D02*
X118580000Y-77529000D01*
D41*
X118788000Y-94262000D02*
X120200000Y-92850000D01*
D43*
X139664000Y-38073000D02*
X139162500Y-38073000D01*
D41*
X123453000Y-92266000D02*
X123040000Y-92679000D01*
X120200000Y-92850000D02*
X120200000Y-92080500D01*
D42*
X134450000Y-68600000D02*
X133700000Y-69350000D01*
D43*
X134788000Y-38073000D02*
X134787000Y-38074000D01*
D41*
X123040000Y-92679000D02*
X120479000Y-92679000D01*
D42*
X115883000Y-92117000D02*
X115883000Y-87701000D01*
X134750000Y-53500000D02*
X134750000Y-47815107D01*
D43*
X138450000Y-39785500D02*
X139348600Y-39785500D01*
X137450000Y-36860500D02*
X137450000Y-36461900D01*
X137450000Y-36860500D02*
X137450000Y-36448001D01*
D41*
X138722000Y-40412100D02*
X139348600Y-39785500D01*
X118028000Y-94262000D02*
X118788000Y-94262000D01*
D42*
X118230000Y-77179000D02*
X118580000Y-77529000D01*
X134450000Y-53800000D02*
X134450000Y-68600000D01*
D43*
X139162500Y-38073000D02*
X139162500Y-37573000D01*
D41*
X119731000Y-91931000D02*
X119731000Y-91611500D01*
D42*
X118028000Y-94262000D02*
X115883000Y-92117000D01*
X135166000Y-37047000D02*
X136045000Y-36168000D01*
D43*
X139550000Y-36550000D02*
X139550000Y-37185500D01*
D41*
X134750000Y-53500000D02*
X135834000Y-52416000D01*
D43*
X137169999Y-36168000D02*
X136045000Y-36168000D01*
D41*
X135834000Y-52416000D02*
X136857000Y-52416000D01*
D42*
X134750000Y-47815107D02*
X134482000Y-47547107D01*
D43*
X137450000Y-36448001D02*
X137169999Y-36168000D01*
D42*
X133004000Y-73446000D02*
X133004000Y-74296000D01*
D43*
X130185000Y-74661000D02*
X132639000Y-74661000D01*
X132639000Y-74661000D02*
X133004000Y-74296000D01*
D42*
X135013000Y-72350000D02*
X134100000Y-72350000D01*
X134100000Y-72350000D02*
X133004000Y-73446000D01*
X135272000Y-72609000D02*
X135013000Y-72350000D01*
D41*
X138665000Y-45106000D02*
X138665000Y-43444000D01*
X138665000Y-43444000D02*
X138596000Y-43375000D01*
D42*
X136665000Y-45106000D02*
X136665000Y-46862000D01*
X136665000Y-46862000D02*
X136663000Y-46864000D01*
X124637000Y-79670000D02*
X124553000Y-79754000D01*
X124637000Y-79000000D02*
X124637000Y-79670000D01*
D43*
X128335000Y-77090000D02*
X128327000Y-77098000D01*
X128335000Y-75711000D02*
X128335000Y-77090000D01*
D42*
X120776456Y-88914000D02*
X118433456Y-86571000D01*
X118433456Y-86571000D02*
X118313000Y-86571000D01*
X121543000Y-88914000D02*
X120776456Y-88914000D01*
D41*
X133353000Y-91474000D02*
X133353000Y-92364000D01*
X133992000Y-93003000D02*
X137059000Y-93003000D01*
X133353000Y-92364000D02*
X133992000Y-93003000D01*
X137059000Y-93003000D02*
X137456000Y-93400000D01*
D43*
X130185000Y-73861000D02*
X131011000Y-73861000D01*
D42*
X137907000Y-53521000D02*
X137907000Y-50265000D01*
X137907000Y-50265000D02*
X134982000Y-47340000D01*
X131878500Y-72978500D02*
X131878500Y-72993500D01*
X125331000Y-89400000D02*
X124006000Y-88075000D01*
X135546000Y-38573000D02*
X136237500Y-38573000D01*
X124006000Y-87039000D02*
X124495000Y-86550000D01*
X134982000Y-47340000D02*
X134982000Y-39137000D01*
D43*
X131011000Y-73861000D02*
X131275000Y-73597000D01*
D42*
X124006000Y-88075000D02*
X124006000Y-87039000D01*
X125450000Y-89400000D02*
X125331000Y-89400000D01*
X131878500Y-72971500D02*
X135350000Y-69500000D01*
X125950000Y-86900000D02*
X128816000Y-86900000D01*
X131000000Y-72100000D02*
X131878500Y-72978500D01*
X128816000Y-86900000D02*
X136539000Y-79177000D01*
X125600000Y-86550000D02*
X125950000Y-86900000D01*
X135350000Y-57934000D02*
X138835000Y-54449000D01*
X136539000Y-79177000D02*
X136539000Y-75702000D01*
X134982000Y-39137000D02*
X135546000Y-38573000D01*
X136539000Y-75702000D02*
X135796000Y-74959000D01*
X135350000Y-69500000D02*
X135350000Y-57934000D01*
X138835000Y-54449000D02*
X137907000Y-53521000D01*
X131275000Y-73597000D02*
X131878500Y-72993500D01*
X131878500Y-72993500D02*
X131878500Y-72971500D01*
X124495000Y-86550000D02*
X125600000Y-86550000D01*
D41*
X140474000Y-52914000D02*
X139976000Y-52416000D01*
D43*
X131378000Y-74261000D02*
X132144500Y-73494500D01*
X137750000Y-47198000D02*
X138857000Y-48305000D01*
D42*
X140474000Y-64250000D02*
X140474000Y-76046956D01*
D43*
X130185000Y-74261000D02*
X131378000Y-74261000D01*
X137750000Y-40997999D02*
X137750000Y-47198000D01*
D41*
X136100000Y-68550000D02*
X136100000Y-69539000D01*
X140474000Y-64250000D02*
X140400000Y-64250000D01*
X136100000Y-69539000D02*
X132144500Y-73494500D01*
D43*
X136950000Y-39785500D02*
X136950000Y-40197999D01*
D42*
X140474000Y-76046956D02*
X129006956Y-87514000D01*
D41*
X140400000Y-64250000D02*
X136100000Y-68550000D01*
X139976000Y-52416000D02*
X138857000Y-52416000D01*
D43*
X136950000Y-40197999D02*
X137750000Y-40997999D01*
X138857000Y-48305000D02*
X138857000Y-52416000D01*
D41*
X140474000Y-64250000D02*
X140474000Y-52914000D01*
D42*
X129006956Y-87514000D02*
X125060000Y-87514000D01*
D43*
X126846000Y-75500000D02*
X126250000Y-75500000D01*
X127285000Y-75061000D02*
X126846000Y-75500000D01*
D41*
X137950000Y-40550009D02*
X137950000Y-39785500D01*
X138016360Y-40616369D02*
X137950000Y-40550009D01*
X118979000Y-78189954D02*
X118244000Y-78924954D01*
D43*
X127935000Y-72811000D02*
X127935000Y-72012000D01*
D41*
X118244000Y-78924954D02*
X118244000Y-83414000D01*
D42*
X119531000Y-84701000D02*
X119531000Y-85605000D01*
D41*
X119522000Y-84678000D02*
X119686000Y-84514000D01*
X119508000Y-84678000D02*
X119522000Y-84678000D01*
X127111000Y-71188000D02*
X127935000Y-72012000D01*
X119686000Y-84514000D02*
X121543000Y-84514000D01*
X127000000Y-71188000D02*
X127111000Y-71188000D01*
X118244000Y-83414000D02*
X119508000Y-84678000D01*
D42*
X119508000Y-84678000D02*
X119531000Y-84701000D01*
D41*
X119780000Y-72187000D02*
X120185000Y-71782000D01*
X120055464Y-83789500D02*
X119489500Y-83789500D01*
X127285000Y-72683121D02*
X127285000Y-73436000D01*
X120055464Y-83789500D02*
X120430964Y-83414000D01*
X120185000Y-71782000D02*
X126383879Y-71782000D01*
X120430964Y-83414000D02*
X121543000Y-83414000D01*
X118968500Y-83268500D02*
X118968500Y-79550000D01*
X126383879Y-71782000D02*
X127285000Y-72683121D01*
X119489500Y-83789500D02*
X118968500Y-83268500D01*
D43*
X127492666Y-70500000D02*
X120505334Y-70500000D01*
X128340000Y-71347334D02*
X127492666Y-70500000D01*
X128340000Y-72806000D02*
X128340000Y-71347334D01*
X128335000Y-72811000D02*
X128340000Y-72806000D01*
X119105334Y-71900000D02*
X117580000Y-71900000D01*
X117580000Y-71900000D02*
X117157000Y-71477000D01*
X120505334Y-70500000D02*
X119105334Y-71900000D01*
X130861000Y-75061000D02*
X131200000Y-75400000D01*
X130185000Y-75061000D02*
X130861000Y-75061000D01*
X132850000Y-75400000D02*
X133004000Y-75554000D01*
D42*
X134183000Y-77375000D02*
X133004000Y-76196000D01*
D43*
X131200000Y-75400000D02*
X132850000Y-75400000D01*
X133004000Y-75554000D02*
X133004000Y-76196000D01*
D42*
X135403000Y-77375000D02*
X134183000Y-77375000D01*
D41*
X136237500Y-37573000D02*
X136237500Y-37262500D01*
D43*
X126500000Y-73750000D02*
X126611000Y-73861000D01*
X126611000Y-73861000D02*
X127285000Y-73861000D01*
D41*
X136237500Y-37262500D02*
X136250000Y-37250000D01*
G04 #@! TA.AperFunction,Conductor*
G36*
X141141961Y-68470214D02*
G01*
X141188651Y-68523698D01*
X141200230Y-68576231D01*
X141220255Y-79549996D01*
X141248717Y-95147185D01*
X141249770Y-95723770D01*
X141229892Y-95791927D01*
X141176321Y-95838518D01*
X141123770Y-95850000D01*
X114075902Y-95850000D01*
X114007781Y-95829998D01*
X113961288Y-95776342D01*
X113949902Y-95724098D01*
X113949455Y-95147185D01*
X113928948Y-68675634D01*
X113948897Y-68607499D01*
X114002517Y-68560965D01*
X114054484Y-68549539D01*
X133695785Y-68477517D01*
X133763976Y-68497268D01*
X133810665Y-68550753D01*
X133821026Y-68620989D01*
X133791770Y-68685678D01*
X133785340Y-68692610D01*
X133569356Y-68908595D01*
X133507044Y-68942620D01*
X133480260Y-68945500D01*
X119000547Y-68945500D01*
X118894041Y-68945500D01*
X118838911Y-68960271D01*
X118791165Y-68973065D01*
X118791158Y-68973068D01*
X118698928Y-69026317D01*
X118698922Y-69026322D01*
X118259251Y-69465993D01*
X118196939Y-69500018D01*
X118170156Y-69502897D01*
X118060424Y-69502897D01*
X117906106Y-69540933D01*
X117906099Y-69540936D01*
X117765371Y-69614795D01*
X117765366Y-69614799D01*
X117646398Y-69720197D01*
X117556112Y-69850998D01*
X117556109Y-69851004D01*
X117499746Y-69999617D01*
X117480590Y-70157393D01*
X117480590Y-70157400D01*
X117499746Y-70315176D01*
X117548344Y-70443316D01*
X117556110Y-70463792D01*
X117646399Y-70594598D01*
X117765368Y-70699996D01*
X117765369Y-70699996D01*
X117765371Y-70699998D01*
X117840097Y-70739217D01*
X117906104Y-70773860D01*
X118060426Y-70811897D01*
X118060427Y-70811897D01*
X118219367Y-70811897D01*
X118219368Y-70811897D01*
X118373690Y-70773860D01*
X118514426Y-70699996D01*
X118633395Y-70594598D01*
X118723684Y-70463792D01*
X118780046Y-70315179D01*
X118780046Y-70315178D01*
X118780047Y-70315176D01*
X118799204Y-70157399D01*
X118799204Y-70157395D01*
X118797151Y-70140489D01*
X118808795Y-70070453D01*
X118833134Y-70036207D01*
X119077939Y-69791404D01*
X119140251Y-69757379D01*
X119167034Y-69754500D01*
X133753251Y-69754500D01*
X133753253Y-69754500D01*
X133856131Y-69726934D01*
X133948369Y-69673680D01*
X134289598Y-69332451D01*
X134730405Y-68891645D01*
X134792717Y-68857619D01*
X134863532Y-68862684D01*
X134920368Y-68905231D01*
X134945179Y-68971751D01*
X134945500Y-68980740D01*
X134945500Y-69280260D01*
X134925498Y-69348381D01*
X134908595Y-69369355D01*
X131964095Y-72313855D01*
X131901783Y-72347881D01*
X131830968Y-72342816D01*
X131785905Y-72313855D01*
X131693240Y-72221190D01*
X131659214Y-72158878D01*
X131657254Y-72116905D01*
X131657931Y-72111335D01*
X131659307Y-72100000D01*
X131659307Y-72099996D01*
X131640150Y-71942220D01*
X131620244Y-71889733D01*
X131583787Y-71793605D01*
X131493498Y-71662799D01*
X131374529Y-71557401D01*
X131374528Y-71557400D01*
X131374525Y-71557398D01*
X131233797Y-71483539D01*
X131233795Y-71483538D01*
X131233793Y-71483537D01*
X131233791Y-71483536D01*
X131233790Y-71483536D01*
X131079472Y-71445500D01*
X131079471Y-71445500D01*
X130920529Y-71445500D01*
X130920527Y-71445500D01*
X130766209Y-71483536D01*
X130766202Y-71483539D01*
X130625474Y-71557398D01*
X130625469Y-71557402D01*
X130506501Y-71662800D01*
X130416215Y-71793601D01*
X130416212Y-71793607D01*
X130359849Y-71942220D01*
X130340693Y-72099996D01*
X130340693Y-72100003D01*
X130359849Y-72257779D01*
X130399260Y-72361694D01*
X130416213Y-72406395D01*
X130506502Y-72537201D01*
X130625471Y-72642599D01*
X130625472Y-72642599D01*
X130625474Y-72642601D01*
X130700200Y-72681820D01*
X130766207Y-72716463D01*
X130920529Y-72754500D01*
X130920530Y-72754500D01*
X131030260Y-72754500D01*
X131098381Y-72774502D01*
X131119355Y-72791405D01*
X131224854Y-72896904D01*
X131258880Y-72959216D01*
X131253815Y-73030031D01*
X131224855Y-73075094D01*
X131007721Y-73292229D01*
X130945409Y-73326254D01*
X130874593Y-73321190D01*
X130817757Y-73278643D01*
X130813860Y-73273136D01*
X130757384Y-73188614D01*
X130673196Y-73132362D01*
X130672938Y-73132255D01*
X130634315Y-73116256D01*
X130634305Y-73116253D01*
X130535002Y-73096500D01*
X130535000Y-73096500D01*
X130025500Y-73096500D01*
X129957379Y-73076498D01*
X129910886Y-73022842D01*
X129899500Y-72970500D01*
X129899500Y-72461001D01*
X129899499Y-72460997D01*
X129894676Y-72436749D01*
X129879747Y-72361695D01*
X129872741Y-72344782D01*
X129863643Y-72322816D01*
X129863642Y-72322815D01*
X129863638Y-72322804D01*
X129863637Y-72322802D01*
X129807384Y-72238614D01*
X129723196Y-72182362D01*
X129721120Y-72181502D01*
X129684315Y-72166256D01*
X129684305Y-72166253D01*
X129585002Y-72146500D01*
X129585000Y-72146500D01*
X129485000Y-72146500D01*
X129484997Y-72146500D01*
X129385694Y-72166253D01*
X129385686Y-72166256D01*
X129376475Y-72170071D01*
X129305885Y-72177656D01*
X129277373Y-72168924D01*
X129255928Y-72159455D01*
X129255919Y-72159453D01*
X129230464Y-72156500D01*
X129230460Y-72156500D01*
X129039540Y-72156500D01*
X129039535Y-72156500D01*
X129014078Y-72159453D01*
X128985890Y-72171899D01*
X128915494Y-72181114D01*
X128884110Y-72171899D01*
X128855921Y-72159453D01*
X128855922Y-72159453D01*
X128830464Y-72156500D01*
X128830460Y-72156500D01*
X128800500Y-72156500D01*
X128732379Y-72136498D01*
X128685886Y-72082842D01*
X128674500Y-72030500D01*
X128674500Y-71303296D01*
X128674499Y-71303292D01*
X128651704Y-71218222D01*
X128651704Y-71218221D01*
X128646574Y-71209336D01*
X128646572Y-71209333D01*
X128634257Y-71188003D01*
X128607667Y-71141946D01*
X128607665Y-71141944D01*
X128607663Y-71141941D01*
X127698061Y-70232339D01*
X127698057Y-70232336D01*
X127698054Y-70232333D01*
X127655409Y-70207712D01*
X127621779Y-70188296D01*
X127621776Y-70188295D01*
X127536707Y-70165500D01*
X127536704Y-70165500D01*
X120461296Y-70165500D01*
X120461292Y-70165500D01*
X120376223Y-70188295D01*
X120376220Y-70188296D01*
X120308958Y-70227129D01*
X120299946Y-70232333D01*
X120299944Y-70232334D01*
X120299938Y-70232339D01*
X119003684Y-71528595D01*
X118941372Y-71562620D01*
X118914589Y-71565500D01*
X117938679Y-71565500D01*
X117870558Y-71545498D01*
X117824065Y-71491842D01*
X117813598Y-71454687D01*
X117797150Y-71319220D01*
X117774147Y-71258568D01*
X117740787Y-71170605D01*
X117650498Y-71039799D01*
X117531529Y-70934401D01*
X117531528Y-70934400D01*
X117531525Y-70934398D01*
X117390797Y-70860539D01*
X117390795Y-70860538D01*
X117390793Y-70860537D01*
X117390791Y-70860536D01*
X117390790Y-70860536D01*
X117236472Y-70822500D01*
X117236471Y-70822500D01*
X117077529Y-70822500D01*
X117077527Y-70822500D01*
X116923209Y-70860536D01*
X116923202Y-70860539D01*
X116782474Y-70934398D01*
X116782469Y-70934402D01*
X116663501Y-71039800D01*
X116573215Y-71170601D01*
X116573212Y-71170607D01*
X116516849Y-71319220D01*
X116497693Y-71476996D01*
X116497693Y-71477003D01*
X116516849Y-71634779D01*
X116536525Y-71686658D01*
X116573213Y-71783395D01*
X116663502Y-71914201D01*
X116782471Y-72019599D01*
X116782472Y-72019599D01*
X116782474Y-72019601D01*
X116794015Y-72025658D01*
X116923207Y-72093463D01*
X117077529Y-72131500D01*
X117077530Y-72131500D01*
X117236468Y-72131500D01*
X117236471Y-72131500D01*
X117249278Y-72128343D01*
X117320202Y-72131458D01*
X117368529Y-72161585D01*
X117374604Y-72167660D01*
X117374607Y-72167662D01*
X117374612Y-72167667D01*
X117418023Y-72192730D01*
X117440032Y-72205437D01*
X117447444Y-72209715D01*
X117450888Y-72211704D01*
X117535962Y-72234500D01*
X119014834Y-72234500D01*
X119082955Y-72254502D01*
X119129448Y-72308158D01*
X119137702Y-72337460D01*
X119138026Y-72337381D01*
X119139848Y-72344776D01*
X119163218Y-72406395D01*
X119196213Y-72493395D01*
X119286502Y-72624201D01*
X119405471Y-72729599D01*
X119405472Y-72729599D01*
X119405474Y-72729601D01*
X119452914Y-72754499D01*
X119546207Y-72803463D01*
X119700529Y-72841500D01*
X119700530Y-72841500D01*
X119859470Y-72841500D01*
X119859471Y-72841500D01*
X120013793Y-72803463D01*
X120154529Y-72729599D01*
X120273498Y-72624201D01*
X120363787Y-72493395D01*
X120420149Y-72344782D01*
X120420149Y-72344781D01*
X120420150Y-72344779D01*
X120428949Y-72272313D01*
X120457016Y-72207099D01*
X120515884Y-72167413D01*
X120554030Y-72161500D01*
X126174495Y-72161500D01*
X126242616Y-72181502D01*
X126263590Y-72198405D01*
X126868595Y-72803410D01*
X126902621Y-72865722D01*
X126905500Y-72892505D01*
X126905500Y-73003147D01*
X126885498Y-73071268D01*
X126831842Y-73117761D01*
X126827720Y-73119555D01*
X126796814Y-73132357D01*
X126796801Y-73132363D01*
X126796799Y-73132364D01*
X126712614Y-73188615D01*
X126656358Y-73272809D01*
X126653445Y-73278261D01*
X126651035Y-73276972D01*
X126613880Y-73323060D01*
X126546512Y-73345467D01*
X126522332Y-73343995D01*
X126500000Y-73340458D01*
X126499999Y-73340458D01*
X126373446Y-73360501D01*
X126259276Y-73418673D01*
X126168673Y-73509276D01*
X126110501Y-73623446D01*
X126090458Y-73750000D01*
X126110501Y-73876553D01*
X126168673Y-73990723D01*
X126259821Y-74081871D01*
X126293847Y-74144183D01*
X126288782Y-74214998D01*
X126246235Y-74271834D01*
X126203340Y-74292671D01*
X126168915Y-74301896D01*
X126168913Y-74301896D01*
X126153978Y-74305898D01*
X126148518Y-74307362D01*
X126148517Y-74307362D01*
X126148515Y-74307363D01*
X126148514Y-74307363D01*
X126061984Y-74357321D01*
X126061978Y-74357326D01*
X125796580Y-74622723D01*
X125734268Y-74656748D01*
X125663452Y-74651683D01*
X125606617Y-74609136D01*
X125571404Y-74562096D01*
X125455267Y-74475158D01*
X125455265Y-74475157D01*
X125455266Y-74475157D01*
X125319349Y-74424462D01*
X125319344Y-74424460D01*
X125319342Y-74424460D01*
X125289298Y-74421230D01*
X125259256Y-74418000D01*
X124212753Y-74418000D01*
X124212729Y-74418002D01*
X124152660Y-74424459D01*
X124152658Y-74424459D01*
X124016733Y-74475157D01*
X123900595Y-74562096D01*
X123888178Y-74578683D01*
X123831341Y-74621228D01*
X123760525Y-74626291D01*
X123698214Y-74592264D01*
X123686447Y-74578683D01*
X123674404Y-74562596D01*
X123558267Y-74475658D01*
X123558265Y-74475657D01*
X123558266Y-74475657D01*
X123422349Y-74424962D01*
X123422344Y-74424960D01*
X123422342Y-74424960D01*
X123392298Y-74421730D01*
X123362256Y-74418500D01*
X122315753Y-74418500D01*
X122315729Y-74418502D01*
X122255660Y-74424959D01*
X122255658Y-74424959D01*
X122119733Y-74475657D01*
X122003596Y-74562596D01*
X121916657Y-74678734D01*
X121881112Y-74774033D01*
X121838565Y-74830869D01*
X121772045Y-74855679D01*
X121763057Y-74856000D01*
X120806247Y-74856000D01*
X120738156Y-74874245D01*
X120738154Y-74874245D01*
X120703372Y-74883563D01*
X120703369Y-74883565D01*
X120611132Y-74936818D01*
X120611129Y-74936820D01*
X118851193Y-76696756D01*
X118788881Y-76730782D01*
X118718065Y-76725717D01*
X118678544Y-76701973D01*
X118604530Y-76636402D01*
X118604525Y-76636398D01*
X118463797Y-76562539D01*
X118463795Y-76562538D01*
X118463793Y-76562537D01*
X118463791Y-76562536D01*
X118463790Y-76562536D01*
X118309472Y-76524500D01*
X118309471Y-76524500D01*
X118150529Y-76524500D01*
X118150527Y-76524500D01*
X117996209Y-76562536D01*
X117996202Y-76562539D01*
X117855474Y-76636398D01*
X117855469Y-76636402D01*
X117736501Y-76741800D01*
X117646215Y-76872601D01*
X117646212Y-76872607D01*
X117589849Y-77021220D01*
X117570693Y-77178996D01*
X117570693Y-77179003D01*
X117589849Y-77336779D01*
X117646212Y-77485392D01*
X117646215Y-77485398D01*
X117736501Y-77616200D01*
X117741554Y-77621903D01*
X117739894Y-77623373D01*
X117771736Y-77674142D01*
X117770952Y-77745134D01*
X117739550Y-77797399D01*
X116144733Y-79392218D01*
X115634631Y-79902320D01*
X115596976Y-79939975D01*
X115559321Y-79977629D01*
X115559317Y-79977634D01*
X115506068Y-80069864D01*
X115506065Y-80069871D01*
X115478500Y-80172748D01*
X115478500Y-86425163D01*
X115458498Y-86493284D01*
X115405750Y-86539358D01*
X115253353Y-86610421D01*
X115073546Y-86736323D01*
X115073540Y-86736328D01*
X114918328Y-86891540D01*
X114918323Y-86891546D01*
X114792421Y-87071353D01*
X114699654Y-87270293D01*
X114699652Y-87270299D01*
X114642839Y-87482326D01*
X114623708Y-87701000D01*
X114642839Y-87919674D01*
X114651287Y-87951201D01*
X114699652Y-88131700D01*
X114699654Y-88131706D01*
X114792421Y-88330646D01*
X114886286Y-88464700D01*
X114918326Y-88510457D01*
X115073543Y-88665674D01*
X115253354Y-88791579D01*
X115405750Y-88862641D01*
X115459035Y-88909558D01*
X115478500Y-88976836D01*
X115478500Y-92063747D01*
X115478500Y-92170253D01*
X115492790Y-92223585D01*
X115506065Y-92273128D01*
X115506068Y-92273135D01*
X115559317Y-92365365D01*
X115559325Y-92365375D01*
X116954953Y-93761002D01*
X116988978Y-93823314D01*
X116987048Y-93884578D01*
X116937654Y-94058180D01*
X116918768Y-94261995D01*
X116918768Y-94262004D01*
X116937654Y-94465819D01*
X116951700Y-94515185D01*
X116993672Y-94662701D01*
X117084912Y-94845935D01*
X117084913Y-94845936D01*
X117208266Y-95009284D01*
X117359536Y-95147185D01*
X117533566Y-95254940D01*
X117533568Y-95254940D01*
X117533573Y-95254944D01*
X117724444Y-95328888D01*
X117925653Y-95366500D01*
X117925655Y-95366500D01*
X118130345Y-95366500D01*
X118130347Y-95366500D01*
X118331556Y-95328888D01*
X118522427Y-95254944D01*
X118696462Y-95147186D01*
X118847732Y-95009285D01*
X118971088Y-94845935D01*
X119062328Y-94662701D01*
X119108384Y-94500825D01*
X119140477Y-94446215D01*
X119257607Y-94329085D01*
X119319917Y-94295061D01*
X119390732Y-94300126D01*
X119447568Y-94342673D01*
X119472162Y-94406555D01*
X119477654Y-94465819D01*
X119491700Y-94515185D01*
X119533672Y-94662701D01*
X119624912Y-94845935D01*
X119624913Y-94845936D01*
X119748266Y-95009284D01*
X119899536Y-95147185D01*
X120073566Y-95254940D01*
X120073568Y-95254940D01*
X120073573Y-95254944D01*
X120264444Y-95328888D01*
X120465653Y-95366500D01*
X120465655Y-95366500D01*
X120670345Y-95366500D01*
X120670347Y-95366500D01*
X120871556Y-95328888D01*
X121062427Y-95254944D01*
X121236462Y-95147186D01*
X121387732Y-95009285D01*
X121511088Y-94845935D01*
X121602328Y-94662701D01*
X121658345Y-94465821D01*
X121664640Y-94397880D01*
X121677232Y-94262004D01*
X121677232Y-94261995D01*
X121658345Y-94058180D01*
X121608951Y-93884578D01*
X121602328Y-93861299D01*
X121511088Y-93678065D01*
X121461990Y-93613048D01*
X121387733Y-93514715D01*
X121236463Y-93376814D01*
X121098881Y-93291627D01*
X121051494Y-93238760D01*
X121040211Y-93168666D01*
X121068615Y-93103599D01*
X121127688Y-93064217D01*
X121165212Y-93058500D01*
X122510788Y-93058500D01*
X122578909Y-93078502D01*
X122625402Y-93132158D01*
X122635506Y-93202432D01*
X122606012Y-93267012D01*
X122577119Y-93291627D01*
X122439536Y-93376814D01*
X122288266Y-93514715D01*
X122164913Y-93678063D01*
X122073671Y-93861301D01*
X122017654Y-94058180D01*
X121998768Y-94261995D01*
X121998768Y-94262004D01*
X122017654Y-94465819D01*
X122031700Y-94515185D01*
X122073672Y-94662701D01*
X122164912Y-94845935D01*
X122164913Y-94845936D01*
X122288266Y-95009284D01*
X122439536Y-95147185D01*
X122613566Y-95254940D01*
X122613568Y-95254940D01*
X122613573Y-95254944D01*
X122804444Y-95328888D01*
X123005653Y-95366500D01*
X123005655Y-95366500D01*
X123210345Y-95366500D01*
X123210347Y-95366500D01*
X123411556Y-95328888D01*
X123602427Y-95254944D01*
X123776462Y-95147186D01*
X123927732Y-95009285D01*
X124051088Y-94845935D01*
X124142328Y-94662701D01*
X124198345Y-94465821D01*
X124204640Y-94397880D01*
X124217232Y-94262004D01*
X124217232Y-94261995D01*
X124538768Y-94261995D01*
X124538768Y-94262004D01*
X124557654Y-94465819D01*
X124571700Y-94515185D01*
X124613672Y-94662701D01*
X124704912Y-94845935D01*
X124704913Y-94845936D01*
X124828266Y-95009284D01*
X124979536Y-95147185D01*
X125153566Y-95254940D01*
X125153568Y-95254940D01*
X125153573Y-95254944D01*
X125344444Y-95328888D01*
X125545653Y-95366500D01*
X125545655Y-95366500D01*
X125750345Y-95366500D01*
X125750347Y-95366500D01*
X125951556Y-95328888D01*
X126142427Y-95254944D01*
X126316462Y-95147186D01*
X126467732Y-95009285D01*
X126591088Y-94845935D01*
X126682328Y-94662701D01*
X126738345Y-94465821D01*
X126744640Y-94397880D01*
X126757232Y-94262004D01*
X126757232Y-94261995D01*
X127078768Y-94261995D01*
X127078768Y-94262004D01*
X127097654Y-94465819D01*
X127111700Y-94515185D01*
X127153672Y-94662701D01*
X127244912Y-94845935D01*
X127244913Y-94845936D01*
X127368266Y-95009284D01*
X127519536Y-95147185D01*
X127693566Y-95254940D01*
X127693568Y-95254940D01*
X127693573Y-95254944D01*
X127884444Y-95328888D01*
X128085653Y-95366500D01*
X128085655Y-95366500D01*
X128290345Y-95366500D01*
X128290347Y-95366500D01*
X128491556Y-95328888D01*
X128682427Y-95254944D01*
X128856462Y-95147186D01*
X129007732Y-95009285D01*
X129131088Y-94845935D01*
X129222328Y-94662701D01*
X129278345Y-94465821D01*
X129284640Y-94397880D01*
X129297232Y-94262004D01*
X129297232Y-94261995D01*
X129618768Y-94261995D01*
X129618768Y-94262004D01*
X129637654Y-94465819D01*
X129651700Y-94515185D01*
X129693672Y-94662701D01*
X129784912Y-94845935D01*
X129784913Y-94845936D01*
X129908266Y-95009284D01*
X130059536Y-95147185D01*
X130233566Y-95254940D01*
X130233568Y-95254940D01*
X130233573Y-95254944D01*
X130424444Y-95328888D01*
X130625653Y-95366500D01*
X130625655Y-95366500D01*
X130830345Y-95366500D01*
X130830347Y-95366500D01*
X131031556Y-95328888D01*
X131222427Y-95254944D01*
X131396462Y-95147186D01*
X131547732Y-95009285D01*
X131671088Y-94845935D01*
X131762328Y-94662701D01*
X131818345Y-94465821D01*
X131824640Y-94397880D01*
X131837232Y-94262004D01*
X131837232Y-94261995D01*
X131818345Y-94058180D01*
X131768951Y-93884578D01*
X131762328Y-93861299D01*
X131671088Y-93678065D01*
X131621990Y-93613048D01*
X131547733Y-93514715D01*
X131396463Y-93376814D01*
X131222433Y-93269059D01*
X131222428Y-93269057D01*
X131222427Y-93269056D01*
X131217151Y-93267012D01*
X131031559Y-93195113D01*
X131031560Y-93195113D01*
X131031557Y-93195112D01*
X131031556Y-93195112D01*
X130830347Y-93157500D01*
X130625653Y-93157500D01*
X130424444Y-93195112D01*
X130424439Y-93195113D01*
X130233577Y-93269054D01*
X130233566Y-93269059D01*
X130059536Y-93376814D01*
X129908266Y-93514715D01*
X129784913Y-93678063D01*
X129693671Y-93861301D01*
X129637654Y-94058180D01*
X129618768Y-94261995D01*
X129297232Y-94261995D01*
X129278345Y-94058180D01*
X129228951Y-93884578D01*
X129222328Y-93861299D01*
X129131088Y-93678065D01*
X129081990Y-93613048D01*
X129007733Y-93514715D01*
X128856463Y-93376814D01*
X128682433Y-93269059D01*
X128682428Y-93269057D01*
X128682427Y-93269056D01*
X128677151Y-93267012D01*
X128491559Y-93195113D01*
X128491560Y-93195113D01*
X128491557Y-93195112D01*
X128491556Y-93195112D01*
X128290347Y-93157500D01*
X128085653Y-93157500D01*
X127884444Y-93195112D01*
X127884439Y-93195113D01*
X127693577Y-93269054D01*
X127693566Y-93269059D01*
X127519536Y-93376814D01*
X127368266Y-93514715D01*
X127244913Y-93678063D01*
X127153671Y-93861301D01*
X127097654Y-94058180D01*
X127078768Y-94261995D01*
X126757232Y-94261995D01*
X126738345Y-94058180D01*
X126688951Y-93884578D01*
X126682328Y-93861299D01*
X126591088Y-93678065D01*
X126541990Y-93613048D01*
X126467733Y-93514715D01*
X126316463Y-93376814D01*
X126142433Y-93269059D01*
X126142428Y-93269057D01*
X126142427Y-93269056D01*
X126137151Y-93267012D01*
X125951559Y-93195113D01*
X125951560Y-93195113D01*
X125951557Y-93195112D01*
X125951556Y-93195112D01*
X125750347Y-93157500D01*
X125545653Y-93157500D01*
X125344444Y-93195112D01*
X125344439Y-93195113D01*
X125153577Y-93269054D01*
X125153566Y-93269059D01*
X124979536Y-93376814D01*
X124828266Y-93514715D01*
X124704913Y-93678063D01*
X124613671Y-93861301D01*
X124557654Y-94058180D01*
X124538768Y-94261995D01*
X124217232Y-94261995D01*
X124198345Y-94058180D01*
X124148951Y-93884578D01*
X124142328Y-93861299D01*
X124051088Y-93678065D01*
X124001990Y-93613048D01*
X123927733Y-93514715D01*
X123776463Y-93376814D01*
X123602433Y-93269059D01*
X123602428Y-93269057D01*
X123602427Y-93269056D01*
X123597151Y-93267012D01*
X123411559Y-93195113D01*
X123411553Y-93195111D01*
X123350826Y-93183759D01*
X123287541Y-93151580D01*
X123251700Y-93090295D01*
X123254681Y-93019361D01*
X123284883Y-92970811D01*
X123343676Y-92912019D01*
X123343676Y-92912017D01*
X123354046Y-92901648D01*
X123354050Y-92901643D01*
X123675642Y-92580050D01*
X123675652Y-92580043D01*
X123756670Y-92499025D01*
X123756676Y-92499019D01*
X123806638Y-92412482D01*
X123815690Y-92378699D01*
X123832501Y-92315962D01*
X123832501Y-92315956D01*
X123833213Y-92310548D01*
X123861932Y-92245619D01*
X123893352Y-92222679D01*
X123891982Y-92220629D01*
X123923359Y-92199663D01*
X123986484Y-92157484D01*
X124042734Y-92073301D01*
X124057500Y-91999067D01*
X124057499Y-90948934D01*
X124057498Y-90948930D01*
X125048500Y-90948930D01*
X125048500Y-91999063D01*
X125048501Y-91999073D01*
X125063265Y-92073300D01*
X125119516Y-92157484D01*
X125203697Y-92213733D01*
X125203699Y-92213734D01*
X125277933Y-92228500D01*
X126028066Y-92228499D01*
X126028069Y-92228498D01*
X126028073Y-92228498D01*
X126077326Y-92218701D01*
X126102301Y-92213734D01*
X126132997Y-92193222D01*
X126200747Y-92172007D01*
X126269214Y-92190788D01*
X126272990Y-92193214D01*
X126303699Y-92213734D01*
X126377933Y-92228500D01*
X127128066Y-92228499D01*
X127128069Y-92228498D01*
X127128073Y-92228498D01*
X127177326Y-92218701D01*
X127202301Y-92213734D01*
X127232997Y-92193222D01*
X127300747Y-92172007D01*
X127369214Y-92190788D01*
X127372990Y-92193214D01*
X127403699Y-92213734D01*
X127477933Y-92228500D01*
X128228066Y-92228499D01*
X128228069Y-92228498D01*
X128228073Y-92228498D01*
X128277326Y-92218701D01*
X128302301Y-92213734D01*
X128332997Y-92193222D01*
X128400747Y-92172007D01*
X128469214Y-92190788D01*
X128472990Y-92193214D01*
X128503699Y-92213734D01*
X128577933Y-92228500D01*
X129328066Y-92228499D01*
X129328069Y-92228498D01*
X129328073Y-92228498D01*
X129377326Y-92218701D01*
X129402301Y-92213734D01*
X129486484Y-92157484D01*
X129542734Y-92073301D01*
X129557500Y-91999067D01*
X129557499Y-90948934D01*
X129557498Y-90948930D01*
X132748500Y-90948930D01*
X132748500Y-91999063D01*
X132748501Y-91999073D01*
X132763265Y-92073300D01*
X132819516Y-92157484D01*
X132914018Y-92220630D01*
X132912043Y-92223585D01*
X132950996Y-92254973D01*
X132973419Y-92322336D01*
X132973499Y-92326837D01*
X132973499Y-92413965D01*
X132993896Y-92490084D01*
X132993897Y-92490086D01*
X132999361Y-92510480D01*
X133049321Y-92597015D01*
X133049329Y-92597025D01*
X133127156Y-92674852D01*
X133127170Y-92674864D01*
X133200595Y-92748289D01*
X133234621Y-92810601D01*
X133237500Y-92837384D01*
X133237500Y-93553063D01*
X133237501Y-93553073D01*
X133252265Y-93627300D01*
X133308516Y-93711484D01*
X133392697Y-93767733D01*
X133392699Y-93767734D01*
X133466933Y-93782500D01*
X134517066Y-93782499D01*
X134517069Y-93782498D01*
X134517073Y-93782498D01*
X134566326Y-93772701D01*
X134591301Y-93767734D01*
X134675484Y-93711484D01*
X134731734Y-93627301D01*
X134746500Y-93553067D01*
X134746500Y-93508500D01*
X134766502Y-93440379D01*
X134820158Y-93393886D01*
X134872500Y-93382500D01*
X136180068Y-93382500D01*
X136248189Y-93402502D01*
X136294682Y-93456158D01*
X136305530Y-93496874D01*
X136316295Y-93613044D01*
X136358392Y-93761002D01*
X136374849Y-93818840D01*
X136470219Y-94010370D01*
X136470220Y-94010371D01*
X136470221Y-94010373D01*
X136599155Y-94181110D01*
X136599158Y-94181112D01*
X136599159Y-94181114D01*
X136724153Y-94295061D01*
X136757278Y-94325258D01*
X136757279Y-94325259D01*
X136939178Y-94437886D01*
X136939181Y-94437887D01*
X136939190Y-94437893D01*
X137138698Y-94515183D01*
X137138703Y-94515185D01*
X137349020Y-94554500D01*
X137349022Y-94554500D01*
X137562978Y-94554500D01*
X137562980Y-94554500D01*
X137773297Y-94515185D01*
X137972810Y-94437893D01*
X138154722Y-94325258D01*
X138312841Y-94181114D01*
X138441781Y-94010370D01*
X138537151Y-93818840D01*
X138595704Y-93613048D01*
X138610242Y-93456158D01*
X138615446Y-93400004D01*
X138615446Y-93399995D01*
X138595704Y-93186955D01*
X138595704Y-93186952D01*
X138537151Y-92981160D01*
X138441781Y-92789630D01*
X138410562Y-92748289D01*
X138312844Y-92618889D01*
X138288860Y-92597025D01*
X138179686Y-92497500D01*
X138154721Y-92474741D01*
X138154720Y-92474740D01*
X137972821Y-92362113D01*
X137972814Y-92362109D01*
X137972810Y-92362107D01*
X137972805Y-92362105D01*
X137773301Y-92284816D01*
X137773302Y-92284816D01*
X137773297Y-92284815D01*
X137562980Y-92245500D01*
X137349020Y-92245500D01*
X137201223Y-92273128D01*
X137138697Y-92284816D01*
X136939194Y-92362105D01*
X136939178Y-92362113D01*
X136757279Y-92474740D01*
X136757272Y-92474745D01*
X136630169Y-92590615D01*
X136566352Y-92621726D01*
X136545284Y-92623500D01*
X134872499Y-92623500D01*
X134804378Y-92603498D01*
X134757885Y-92549842D01*
X134746499Y-92497500D01*
X134746499Y-92452936D01*
X134746498Y-92452927D01*
X134731734Y-92378699D01*
X134688528Y-92314038D01*
X134675484Y-92294516D01*
X134664477Y-92287161D01*
X134591302Y-92238266D01*
X134517069Y-92223500D01*
X134517067Y-92223500D01*
X134066389Y-92223500D01*
X133998268Y-92203498D01*
X133951775Y-92149842D01*
X133941671Y-92079568D01*
X133942810Y-92072918D01*
X133945908Y-92057342D01*
X133957500Y-91999067D01*
X133957499Y-90948934D01*
X133957498Y-90948930D01*
X133957498Y-90948926D01*
X133942734Y-90874699D01*
X133942733Y-90874697D01*
X133886484Y-90790516D01*
X133864700Y-90775960D01*
X133802302Y-90734266D01*
X133728068Y-90719500D01*
X132977936Y-90719500D01*
X132977926Y-90719501D01*
X132903699Y-90734265D01*
X132819515Y-90790516D01*
X132763266Y-90874697D01*
X132748500Y-90948930D01*
X129557498Y-90948930D01*
X129557498Y-90948926D01*
X129542734Y-90874699D01*
X129542733Y-90874697D01*
X129486484Y-90790516D01*
X129464700Y-90775960D01*
X129402302Y-90734266D01*
X129328068Y-90719500D01*
X128577936Y-90719500D01*
X128577926Y-90719501D01*
X128503698Y-90734265D01*
X128473002Y-90754777D01*
X128405249Y-90775992D01*
X128336782Y-90757209D01*
X128332997Y-90754776D01*
X128302302Y-90734266D01*
X128228068Y-90719500D01*
X127477936Y-90719500D01*
X127477926Y-90719501D01*
X127403698Y-90734265D01*
X127373002Y-90754777D01*
X127305249Y-90775992D01*
X127236782Y-90757209D01*
X127232997Y-90754776D01*
X127202302Y-90734266D01*
X127128068Y-90719500D01*
X126377936Y-90719500D01*
X126377926Y-90719501D01*
X126303698Y-90734265D01*
X126273002Y-90754777D01*
X126205249Y-90775992D01*
X126136782Y-90757209D01*
X126132997Y-90754776D01*
X126102302Y-90734266D01*
X126028068Y-90719500D01*
X125277936Y-90719500D01*
X125277926Y-90719501D01*
X125203699Y-90734265D01*
X125119515Y-90790516D01*
X125063266Y-90874697D01*
X125048500Y-90948930D01*
X124057498Y-90948930D01*
X124057498Y-90948926D01*
X124042734Y-90874699D01*
X124042733Y-90874697D01*
X123986484Y-90790516D01*
X123964700Y-90775960D01*
X123902302Y-90734266D01*
X123828068Y-90719500D01*
X123077936Y-90719500D01*
X123077926Y-90719501D01*
X123003699Y-90734265D01*
X122919515Y-90790516D01*
X122863266Y-90874697D01*
X122848500Y-90948930D01*
X122848500Y-91999063D01*
X122848501Y-91999073D01*
X122863265Y-92073301D01*
X122883443Y-92103498D01*
X122904658Y-92171251D01*
X122885875Y-92239718D01*
X122833058Y-92287161D01*
X122778678Y-92299500D01*
X120795194Y-92299500D01*
X120727073Y-92279498D01*
X120680580Y-92225842D01*
X120670476Y-92155568D01*
X120677138Y-92129467D01*
X120686824Y-92103498D01*
X120704040Y-92057342D01*
X120710500Y-91997255D01*
X120710499Y-91225746D01*
X120704040Y-91165658D01*
X120653342Y-91029733D01*
X120566404Y-90913596D01*
X120450267Y-90826658D01*
X120450265Y-90826657D01*
X120450266Y-90826657D01*
X120314349Y-90775962D01*
X120314344Y-90775960D01*
X120314342Y-90775960D01*
X120284298Y-90772730D01*
X120254256Y-90769500D01*
X119207753Y-90769500D01*
X119207729Y-90769502D01*
X119147660Y-90775959D01*
X119147658Y-90775959D01*
X119011733Y-90826657D01*
X118895596Y-90913596D01*
X118808657Y-91029734D01*
X118757962Y-91165650D01*
X118757960Y-91165658D01*
X118751500Y-91225737D01*
X118751500Y-91997246D01*
X118751502Y-91997270D01*
X118757959Y-92057339D01*
X118757959Y-92057341D01*
X118808657Y-92193266D01*
X118808658Y-92193267D01*
X118895596Y-92309404D01*
X119011733Y-92396342D01*
X119147658Y-92447040D01*
X119207745Y-92453500D01*
X119664615Y-92453499D01*
X119732736Y-92473501D01*
X119753710Y-92490404D01*
X119783595Y-92520289D01*
X119817621Y-92582601D01*
X119820500Y-92609384D01*
X119820500Y-92640614D01*
X119800498Y-92708735D01*
X119783595Y-92729710D01*
X119011719Y-93501585D01*
X118949407Y-93535610D01*
X118878591Y-93530545D01*
X118837738Y-93505604D01*
X118696463Y-93376814D01*
X118522433Y-93269059D01*
X118522428Y-93269057D01*
X118522427Y-93269056D01*
X118517151Y-93267012D01*
X118331559Y-93195113D01*
X118331560Y-93195113D01*
X118331557Y-93195112D01*
X118331556Y-93195112D01*
X118130347Y-93157500D01*
X117925653Y-93157500D01*
X117724444Y-93195112D01*
X117724439Y-93195113D01*
X117724437Y-93195113D01*
X117663126Y-93218865D01*
X117592380Y-93224821D01*
X117529645Y-93191582D01*
X117528517Y-93190468D01*
X116324405Y-91986356D01*
X116290379Y-91924044D01*
X116287500Y-91897261D01*
X116287500Y-88976836D01*
X116307502Y-88908715D01*
X116360249Y-88862641D01*
X116512646Y-88791579D01*
X116692457Y-88665674D01*
X116847674Y-88510457D01*
X116973579Y-88330646D01*
X117066347Y-88131703D01*
X117123161Y-87919674D01*
X117142292Y-87701000D01*
X117123161Y-87482326D01*
X117066347Y-87270297D01*
X116973579Y-87071354D01*
X116847674Y-86891543D01*
X116692457Y-86736326D01*
X116662457Y-86715320D01*
X116512646Y-86610421D01*
X116360250Y-86539358D01*
X116306965Y-86492441D01*
X116287500Y-86425163D01*
X116287500Y-80445738D01*
X116307502Y-80377617D01*
X116324400Y-80356648D01*
X117649405Y-79031642D01*
X117711717Y-78997617D01*
X117782532Y-79002682D01*
X117839368Y-79045229D01*
X117864179Y-79111749D01*
X117864500Y-79120738D01*
X117864500Y-83356303D01*
X117864499Y-83356321D01*
X117864499Y-83463962D01*
X117874562Y-83501515D01*
X117874562Y-83501518D01*
X117890362Y-83560483D01*
X117940321Y-83647015D01*
X117940329Y-83647025D01*
X118018156Y-83724852D01*
X118018170Y-83724864D01*
X119089595Y-84796289D01*
X119123621Y-84858601D01*
X119126500Y-84885384D01*
X119126500Y-85032245D01*
X119106498Y-85100366D01*
X119084054Y-85126557D01*
X119037502Y-85167798D01*
X118947215Y-85298601D01*
X118947212Y-85298607D01*
X118890849Y-85447220D01*
X118871693Y-85604996D01*
X118871693Y-85605003D01*
X118890849Y-85762779D01*
X118947212Y-85911392D01*
X118947215Y-85911398D01*
X118974380Y-85950753D01*
X118996616Y-86018178D01*
X118993303Y-86031007D01*
X119052645Y-86055778D01*
X119056848Y-86059340D01*
X119156471Y-86147599D01*
X119156472Y-86147599D01*
X119156474Y-86147601D01*
X119204992Y-86173065D01*
X119297207Y-86221463D01*
X119451529Y-86259500D01*
X119451530Y-86259500D01*
X119610470Y-86259500D01*
X119610471Y-86259500D01*
X119764793Y-86221463D01*
X119905529Y-86147599D01*
X120024498Y-86042201D01*
X120114787Y-85911395D01*
X120171149Y-85762782D01*
X120171149Y-85762781D01*
X120171150Y-85762779D01*
X120190307Y-85605003D01*
X120190307Y-85604996D01*
X120171150Y-85447220D01*
X120157538Y-85411331D01*
X120114787Y-85298605D01*
X120024498Y-85167799D01*
X119977946Y-85126557D01*
X119940221Y-85066413D01*
X119935500Y-85032245D01*
X119935500Y-85019500D01*
X119955502Y-84951379D01*
X120009158Y-84904886D01*
X120061500Y-84893500D01*
X120690163Y-84893500D01*
X120758284Y-84913502D01*
X120793914Y-84954621D01*
X120796370Y-84952981D01*
X120823776Y-84993996D01*
X120844992Y-85061749D01*
X120826210Y-85130216D01*
X120823777Y-85134001D01*
X120803266Y-85164697D01*
X120788500Y-85238930D01*
X120788500Y-85989063D01*
X120788501Y-85989073D01*
X120803266Y-86063301D01*
X120803265Y-86063301D01*
X120823776Y-86093996D01*
X120844992Y-86161749D01*
X120826210Y-86230216D01*
X120823777Y-86234001D01*
X120803266Y-86264697D01*
X120788500Y-86338930D01*
X120788500Y-87089063D01*
X120788501Y-87089073D01*
X120803266Y-87163301D01*
X120803265Y-87163301D01*
X120823776Y-87193996D01*
X120844992Y-87261749D01*
X120826210Y-87330216D01*
X120823777Y-87334001D01*
X120803266Y-87364697D01*
X120788500Y-87438930D01*
X120788500Y-88049805D01*
X120768498Y-88117926D01*
X120714842Y-88164419D01*
X120644568Y-88174523D01*
X120579988Y-88145029D01*
X120573405Y-88138900D01*
X118998463Y-86563958D01*
X118964437Y-86501646D01*
X118962480Y-86490072D01*
X118953149Y-86413218D01*
X118896787Y-86264605D01*
X118869618Y-86225244D01*
X118847383Y-86157822D01*
X118850695Y-86144991D01*
X118791354Y-86120220D01*
X118787147Y-86116655D01*
X118687529Y-86028401D01*
X118687528Y-86028400D01*
X118687525Y-86028398D01*
X118546797Y-85954539D01*
X118546795Y-85954538D01*
X118546793Y-85954537D01*
X118546791Y-85954536D01*
X118546790Y-85954536D01*
X118392472Y-85916500D01*
X118392471Y-85916500D01*
X118233529Y-85916500D01*
X118233527Y-85916500D01*
X118079209Y-85954536D01*
X118079202Y-85954539D01*
X117938474Y-86028398D01*
X117938469Y-86028402D01*
X117819501Y-86133800D01*
X117729215Y-86264601D01*
X117729212Y-86264607D01*
X117672849Y-86413220D01*
X117653693Y-86570996D01*
X117653693Y-86571003D01*
X117672849Y-86728779D01*
X117721447Y-86856919D01*
X117729213Y-86877395D01*
X117819502Y-87008201D01*
X117938471Y-87113599D01*
X117938472Y-87113599D01*
X117938474Y-87113601D01*
X118013200Y-87152820D01*
X118079207Y-87187463D01*
X118233529Y-87225500D01*
X118233530Y-87225500D01*
X118392468Y-87225500D01*
X118392471Y-87225500D01*
X118422500Y-87218098D01*
X118493424Y-87221215D01*
X118541748Y-87251341D01*
X120528085Y-89237679D01*
X120528088Y-89237681D01*
X120535950Y-89242220D01*
X120620324Y-89290934D01*
X120642064Y-89296759D01*
X120723203Y-89318500D01*
X120723204Y-89318500D01*
X120731179Y-89320637D01*
X120730723Y-89322336D01*
X120786490Y-89347006D01*
X120809881Y-89373203D01*
X120859515Y-89447484D01*
X120943697Y-89503733D01*
X120943699Y-89503734D01*
X121017933Y-89518500D01*
X122068066Y-89518499D01*
X122068069Y-89518498D01*
X122068073Y-89518498D01*
X122117326Y-89508701D01*
X122142301Y-89503734D01*
X122226484Y-89447484D01*
X122282734Y-89363301D01*
X122297500Y-89289067D01*
X122297499Y-88538934D01*
X122297498Y-88538931D01*
X122297498Y-88538926D01*
X122282734Y-88464700D01*
X122282734Y-88464699D01*
X122262222Y-88434001D01*
X122241007Y-88366251D01*
X122259789Y-88297784D01*
X122262207Y-88294020D01*
X122282734Y-88263301D01*
X122297500Y-88189067D01*
X122297499Y-87438934D01*
X122297498Y-87438930D01*
X122297498Y-87438926D01*
X122282734Y-87364700D01*
X122282734Y-87364699D01*
X122262222Y-87334001D01*
X122241007Y-87266251D01*
X122259789Y-87197784D01*
X122262207Y-87194020D01*
X122282734Y-87163301D01*
X122297500Y-87089067D01*
X122297499Y-86338934D01*
X122297498Y-86338930D01*
X122297498Y-86338926D01*
X122282734Y-86264700D01*
X122282734Y-86264699D01*
X122262222Y-86234001D01*
X122241007Y-86166251D01*
X122259789Y-86097784D01*
X122262207Y-86094020D01*
X122282734Y-86063301D01*
X122297500Y-85989067D01*
X122297499Y-85238934D01*
X122297498Y-85238930D01*
X122297498Y-85238926D01*
X122286450Y-85183386D01*
X122282734Y-85164699D01*
X122262222Y-85134001D01*
X122241007Y-85066251D01*
X122259789Y-84997784D01*
X122262207Y-84994020D01*
X122282734Y-84963301D01*
X122297500Y-84889067D01*
X122297499Y-84138934D01*
X122297498Y-84138931D01*
X122297498Y-84138926D01*
X122282734Y-84064700D01*
X122282734Y-84064699D01*
X122262222Y-84034001D01*
X122241007Y-83966251D01*
X122259789Y-83897784D01*
X122262207Y-83894020D01*
X122282734Y-83863301D01*
X122297500Y-83789067D01*
X122297499Y-83038934D01*
X122297498Y-83038931D01*
X122297498Y-83038926D01*
X122282734Y-82964700D01*
X122282734Y-82964699D01*
X122262222Y-82934001D01*
X122241007Y-82866251D01*
X122259789Y-82797784D01*
X122262207Y-82794020D01*
X122282734Y-82763301D01*
X122297500Y-82689067D01*
X122297499Y-81938934D01*
X122297498Y-81938930D01*
X122297498Y-81938926D01*
X122282734Y-81864699D01*
X122226483Y-81780515D01*
X122142302Y-81724266D01*
X122068067Y-81709500D01*
X121017936Y-81709500D01*
X121017926Y-81709501D01*
X120943699Y-81724265D01*
X120859515Y-81780516D01*
X120803266Y-81864697D01*
X120788500Y-81938930D01*
X120788500Y-82689063D01*
X120788501Y-82689073D01*
X120803266Y-82763301D01*
X120803265Y-82763301D01*
X120823776Y-82793996D01*
X120844992Y-82861749D01*
X120826210Y-82930216D01*
X120823777Y-82934001D01*
X120796371Y-82975017D01*
X120793414Y-82973041D01*
X120762037Y-83011990D01*
X120694677Y-83034419D01*
X120690163Y-83034500D01*
X120488660Y-83034500D01*
X120488644Y-83034499D01*
X120480926Y-83034499D01*
X120381002Y-83034499D01*
X120380998Y-83034499D01*
X120284484Y-83060360D01*
X120190793Y-83114453D01*
X120189830Y-83112786D01*
X120133494Y-83134564D01*
X120123015Y-83135000D01*
X119975991Y-83135000D01*
X119821673Y-83173036D01*
X119821672Y-83173036D01*
X119680933Y-83246901D01*
X119680932Y-83246901D01*
X119665073Y-83260952D01*
X119600820Y-83291151D01*
X119530439Y-83281818D01*
X119492427Y-83255733D01*
X119384905Y-83148211D01*
X119350879Y-83085899D01*
X119348000Y-83059116D01*
X119348000Y-80144902D01*
X119368002Y-80076781D01*
X119390442Y-80050593D01*
X119461998Y-79987201D01*
X119552287Y-79856395D01*
X119608649Y-79707782D01*
X119608649Y-79707781D01*
X119608650Y-79707779D01*
X119627807Y-79550003D01*
X119627807Y-79549996D01*
X119608650Y-79392220D01*
X119595038Y-79356331D01*
X119552287Y-79243605D01*
X119542158Y-79228930D01*
X121748500Y-79228930D01*
X121748500Y-80279063D01*
X121748501Y-80279073D01*
X121763265Y-80353300D01*
X121819516Y-80437484D01*
X121903697Y-80493733D01*
X121903699Y-80493734D01*
X121977933Y-80508500D01*
X122728066Y-80508499D01*
X122728069Y-80508498D01*
X122728073Y-80508498D01*
X122777326Y-80498701D01*
X122802301Y-80493734D01*
X122832997Y-80473222D01*
X122900747Y-80452007D01*
X122969214Y-80470788D01*
X122972990Y-80473214D01*
X123003699Y-80493734D01*
X123077933Y-80508500D01*
X123828066Y-80508499D01*
X123828069Y-80508498D01*
X123828073Y-80508498D01*
X123877326Y-80498701D01*
X123902301Y-80493734D01*
X123932997Y-80473222D01*
X124000747Y-80452007D01*
X124069214Y-80470788D01*
X124072990Y-80473214D01*
X124103699Y-80493734D01*
X124177933Y-80508500D01*
X124928066Y-80508499D01*
X124928069Y-80508498D01*
X124928073Y-80508498D01*
X124977326Y-80498701D01*
X125002301Y-80493734D01*
X125032997Y-80473222D01*
X125100747Y-80452007D01*
X125169214Y-80470788D01*
X125172990Y-80473214D01*
X125203699Y-80493734D01*
X125277933Y-80508500D01*
X126028066Y-80508499D01*
X126028069Y-80508498D01*
X126028073Y-80508498D01*
X126077326Y-80498701D01*
X126102301Y-80493734D01*
X126132997Y-80473222D01*
X126200747Y-80452007D01*
X126269214Y-80470788D01*
X126272990Y-80473214D01*
X126303699Y-80493734D01*
X126377933Y-80508500D01*
X127128066Y-80508499D01*
X127128069Y-80508498D01*
X127128073Y-80508498D01*
X127177326Y-80498701D01*
X127202301Y-80493734D01*
X127232997Y-80473222D01*
X127300747Y-80452007D01*
X127369214Y-80470788D01*
X127372990Y-80473214D01*
X127403699Y-80493734D01*
X127477933Y-80508500D01*
X128228066Y-80508499D01*
X128228069Y-80508498D01*
X128228073Y-80508498D01*
X128277326Y-80498701D01*
X128302301Y-80493734D01*
X128332997Y-80473222D01*
X128400747Y-80452007D01*
X128469214Y-80470788D01*
X128472990Y-80473214D01*
X128503699Y-80493734D01*
X128577933Y-80508500D01*
X129328066Y-80508499D01*
X129328069Y-80508498D01*
X129328073Y-80508498D01*
X129377326Y-80498701D01*
X129402301Y-80493734D01*
X129432997Y-80473222D01*
X129500747Y-80452007D01*
X129569214Y-80470788D01*
X129572990Y-80473214D01*
X129603699Y-80493734D01*
X129677933Y-80508500D01*
X130428066Y-80508499D01*
X130428069Y-80508498D01*
X130428073Y-80508498D01*
X130477326Y-80498701D01*
X130502301Y-80493734D01*
X130586484Y-80437484D01*
X130642734Y-80353301D01*
X130657500Y-80279067D01*
X130657499Y-79228934D01*
X130657498Y-79228930D01*
X130657498Y-79228926D01*
X130642734Y-79154699D01*
X130620042Y-79120738D01*
X130586484Y-79070516D01*
X130586483Y-79070515D01*
X130502302Y-79014266D01*
X130428068Y-78999500D01*
X129677936Y-78999500D01*
X129677926Y-78999501D01*
X129603698Y-79014265D01*
X129573002Y-79034777D01*
X129505249Y-79055992D01*
X129436782Y-79037209D01*
X129432997Y-79034776D01*
X129402302Y-79014266D01*
X129328068Y-78999500D01*
X128577936Y-78999500D01*
X128577926Y-78999501D01*
X128503698Y-79014265D01*
X128473002Y-79034777D01*
X128405249Y-79055992D01*
X128336782Y-79037209D01*
X128332997Y-79034776D01*
X128302302Y-79014266D01*
X128228068Y-78999500D01*
X127477936Y-78999500D01*
X127477926Y-78999501D01*
X127403698Y-79014265D01*
X127373002Y-79034777D01*
X127305249Y-79055992D01*
X127236782Y-79037209D01*
X127232997Y-79034776D01*
X127202302Y-79014266D01*
X127128068Y-78999500D01*
X126377936Y-78999500D01*
X126377926Y-78999501D01*
X126303698Y-79014265D01*
X126273002Y-79034777D01*
X126205249Y-79055992D01*
X126136782Y-79037209D01*
X126132997Y-79034776D01*
X126102302Y-79014266D01*
X126028069Y-78999500D01*
X126028067Y-78999500D01*
X125407873Y-78999500D01*
X125339752Y-78979498D01*
X125293259Y-78925842D01*
X125282792Y-78888688D01*
X125277149Y-78842221D01*
X125277149Y-78842218D01*
X125235557Y-78732551D01*
X125220787Y-78693605D01*
X125130498Y-78562799D01*
X125011529Y-78457401D01*
X125011528Y-78457400D01*
X125011525Y-78457398D01*
X124870797Y-78383539D01*
X124870795Y-78383538D01*
X124870793Y-78383537D01*
X124870791Y-78383536D01*
X124870790Y-78383536D01*
X124716472Y-78345500D01*
X124716471Y-78345500D01*
X124557529Y-78345500D01*
X124557527Y-78345500D01*
X124403209Y-78383536D01*
X124403202Y-78383539D01*
X124262474Y-78457398D01*
X124262469Y-78457402D01*
X124143501Y-78562800D01*
X124053215Y-78693601D01*
X124053212Y-78693607D01*
X123996850Y-78842220D01*
X123990603Y-78893669D01*
X123962536Y-78958882D01*
X123903667Y-78998568D01*
X123840943Y-79002060D01*
X123828077Y-78999501D01*
X123828067Y-78999500D01*
X123828066Y-78999500D01*
X123077936Y-78999500D01*
X123077926Y-78999501D01*
X123003698Y-79014265D01*
X122973002Y-79034777D01*
X122905249Y-79055992D01*
X122836782Y-79037209D01*
X122832997Y-79034776D01*
X122802302Y-79014266D01*
X122728068Y-78999500D01*
X121977936Y-78999500D01*
X121977926Y-78999501D01*
X121903699Y-79014265D01*
X121819515Y-79070516D01*
X121763266Y-79154697D01*
X121748500Y-79228930D01*
X119542158Y-79228930D01*
X119461998Y-79112799D01*
X119343029Y-79007401D01*
X119343028Y-79007400D01*
X119299012Y-78984299D01*
X119247990Y-78934930D01*
X119231758Y-78865814D01*
X119255470Y-78798894D01*
X119299009Y-78761167D01*
X119353529Y-78732553D01*
X119472498Y-78627155D01*
X119562787Y-78496349D01*
X119619149Y-78347736D01*
X119619149Y-78347735D01*
X119619150Y-78347733D01*
X119638307Y-78189957D01*
X119638307Y-78189950D01*
X119619150Y-78032174D01*
X119605538Y-77996285D01*
X119562787Y-77883559D01*
X119472498Y-77752753D01*
X119353529Y-77647355D01*
X119353528Y-77647354D01*
X119302615Y-77620633D01*
X119251593Y-77571264D01*
X119235361Y-77502148D01*
X119259073Y-77435228D01*
X119272064Y-77419984D01*
X120990146Y-75701902D01*
X121052456Y-75667879D01*
X121079239Y-75665000D01*
X121763057Y-75665000D01*
X121831178Y-75685002D01*
X121877671Y-75738658D01*
X121881112Y-75746967D01*
X121916657Y-75842265D01*
X121916658Y-75842267D01*
X122003596Y-75958404D01*
X122119733Y-76045342D01*
X122255658Y-76096040D01*
X122315745Y-76102500D01*
X123362254Y-76102499D01*
X123422342Y-76096040D01*
X123558267Y-76045342D01*
X123674404Y-75958404D01*
X123686818Y-75941819D01*
X123743652Y-75899273D01*
X123814468Y-75894207D01*
X123876781Y-75928231D01*
X123888554Y-75941818D01*
X123900596Y-75957904D01*
X124016733Y-76044842D01*
X124152658Y-76095540D01*
X124212745Y-76102000D01*
X125259254Y-76101999D01*
X125319342Y-76095540D01*
X125455267Y-76044842D01*
X125571404Y-75957904D01*
X125658342Y-75841767D01*
X125689949Y-75757024D01*
X125732494Y-75700192D01*
X125799014Y-75675381D01*
X125868388Y-75690472D01*
X125911552Y-75733636D01*
X125912843Y-75732698D01*
X125918675Y-75740725D01*
X126009276Y-75831326D01*
X126066361Y-75860412D01*
X126123445Y-75889498D01*
X126250000Y-75909542D01*
X126376555Y-75889498D01*
X126457542Y-75848233D01*
X126514745Y-75834500D01*
X126890038Y-75834500D01*
X126975112Y-75811704D01*
X126982527Y-75807422D01*
X126987591Y-75804500D01*
X127003539Y-75795291D01*
X127051388Y-75767667D01*
X127355404Y-75463649D01*
X127417717Y-75429625D01*
X127488532Y-75434689D01*
X127545368Y-75477236D01*
X127570179Y-75543756D01*
X127570500Y-75552745D01*
X127570500Y-76061002D01*
X127590253Y-76160305D01*
X127590256Y-76160314D01*
X127606356Y-76199183D01*
X127606363Y-76199198D01*
X127606364Y-76199200D01*
X127662615Y-76283385D01*
X127662616Y-76283386D01*
X127746804Y-76339638D01*
X127759411Y-76344860D01*
X127785684Y-76355743D01*
X127785687Y-76355744D01*
X127785695Y-76355747D01*
X127856923Y-76369915D01*
X127919831Y-76402821D01*
X127954963Y-76464516D01*
X127951163Y-76535411D01*
X127915895Y-76587804D01*
X127833501Y-76660800D01*
X127743215Y-76791601D01*
X127743212Y-76791607D01*
X127686849Y-76940220D01*
X127667693Y-77097996D01*
X127667693Y-77098003D01*
X127686849Y-77255779D01*
X127735447Y-77383919D01*
X127743213Y-77404395D01*
X127833502Y-77535201D01*
X127952471Y-77640599D01*
X127952472Y-77640599D01*
X127952474Y-77640601D01*
X127965343Y-77647355D01*
X128093207Y-77714463D01*
X128247529Y-77752500D01*
X128247530Y-77752500D01*
X128406470Y-77752500D01*
X128406471Y-77752500D01*
X128560793Y-77714463D01*
X128701529Y-77640599D01*
X128820498Y-77535201D01*
X128910787Y-77404395D01*
X128967149Y-77255782D01*
X128967149Y-77255781D01*
X128967150Y-77255779D01*
X128986307Y-77098003D01*
X128986307Y-77097996D01*
X128967150Y-76940220D01*
X128941507Y-76872607D01*
X128910787Y-76791605D01*
X128865308Y-76725717D01*
X128820499Y-76660800D01*
X128814780Y-76655733D01*
X128735854Y-76585810D01*
X128698130Y-76525668D01*
X128698910Y-76454675D01*
X128737948Y-76395375D01*
X128802849Y-76366593D01*
X128819409Y-76365500D01*
X128830461Y-76365500D01*
X128830461Y-76365499D01*
X128855923Y-76362546D01*
X128884106Y-76350101D01*
X128954499Y-76340883D01*
X128985890Y-76350100D01*
X129014077Y-76362546D01*
X129039538Y-76365499D01*
X129039539Y-76365500D01*
X129039540Y-76365500D01*
X129230461Y-76365500D01*
X129230463Y-76365499D01*
X129255923Y-76362546D01*
X129277366Y-76353077D01*
X129347758Y-76343856D01*
X129376483Y-76351931D01*
X129385695Y-76355747D01*
X129485000Y-76375500D01*
X129485001Y-76375500D01*
X129584999Y-76375500D01*
X129585000Y-76375500D01*
X129684305Y-76355747D01*
X129723196Y-76339638D01*
X129723198Y-76339637D01*
X129807386Y-76283384D01*
X129863638Y-76199196D01*
X129879747Y-76160305D01*
X129899500Y-76061000D01*
X129899500Y-75551500D01*
X129919502Y-75483379D01*
X129973158Y-75436886D01*
X130025500Y-75425500D01*
X130534999Y-75425500D01*
X130535000Y-75425500D01*
X130634305Y-75405747D01*
X130634317Y-75405741D01*
X130637525Y-75404770D01*
X130639292Y-75404754D01*
X130640375Y-75404539D01*
X130640415Y-75404744D01*
X130708519Y-75404138D01*
X130763194Y-75436250D01*
X130994607Y-75667663D01*
X130994610Y-75667665D01*
X130994612Y-75667667D01*
X131061601Y-75706342D01*
X131061600Y-75706342D01*
X131061603Y-75706343D01*
X131067173Y-75709559D01*
X131070884Y-75711702D01*
X131070885Y-75711702D01*
X131070888Y-75711704D01*
X131070891Y-75711704D01*
X131070894Y-75711706D01*
X131155958Y-75734499D01*
X131155962Y-75734500D01*
X132188549Y-75734500D01*
X132256670Y-75754502D01*
X132303163Y-75808158D01*
X132313267Y-75878432D01*
X132307478Y-75902114D01*
X132263763Y-76027046D01*
X132244726Y-76196000D01*
X132263763Y-76364954D01*
X132298601Y-76464516D01*
X132319918Y-76525437D01*
X132319919Y-76525439D01*
X132410375Y-76669399D01*
X132410377Y-76669402D01*
X132530597Y-76789622D01*
X132530600Y-76789624D01*
X132674563Y-76880082D01*
X132835046Y-76936237D01*
X133004000Y-76955274D01*
X133111969Y-76943108D01*
X133181901Y-76955357D01*
X133215172Y-76979221D01*
X133859320Y-77623369D01*
X133934631Y-77698680D01*
X133934632Y-77698681D01*
X133934634Y-77698682D01*
X133961968Y-77714463D01*
X134026869Y-77751934D01*
X134129747Y-77779500D01*
X134435208Y-77779500D01*
X134503329Y-77799502D01*
X134549822Y-77853158D01*
X134560096Y-77894958D01*
X134560640Y-77894900D01*
X134567459Y-77958339D01*
X134567459Y-77958341D01*
X134618157Y-78094266D01*
X134618158Y-78094267D01*
X134705096Y-78210404D01*
X134821233Y-78297342D01*
X134957158Y-78348040D01*
X135017245Y-78354500D01*
X135788754Y-78354499D01*
X135848842Y-78348040D01*
X135964469Y-78304912D01*
X136035282Y-78299847D01*
X136097595Y-78333872D01*
X136131620Y-78396184D01*
X136134500Y-78422968D01*
X136134500Y-78957261D01*
X136114498Y-79025382D01*
X136097595Y-79046356D01*
X128685356Y-86458595D01*
X128623044Y-86492621D01*
X128596261Y-86495500D01*
X126169739Y-86495500D01*
X126101618Y-86475498D01*
X126080648Y-86458599D01*
X125848369Y-86226320D01*
X125848366Y-86226318D01*
X125848365Y-86226317D01*
X125756135Y-86173068D01*
X125756132Y-86173067D01*
X125756131Y-86173066D01*
X125756129Y-86173065D01*
X125756128Y-86173065D01*
X125699239Y-86157822D01*
X125653253Y-86145500D01*
X124441747Y-86145500D01*
X124363374Y-86166500D01*
X124363372Y-86166500D01*
X124338873Y-86173063D01*
X124338867Y-86173066D01*
X124246632Y-86226318D01*
X124059735Y-86413216D01*
X123757631Y-86715320D01*
X123736628Y-86736323D01*
X123682321Y-86790629D01*
X123682317Y-86790634D01*
X123629068Y-86882864D01*
X123629065Y-86882871D01*
X123626741Y-86891546D01*
X123601500Y-86985747D01*
X123601500Y-88021747D01*
X123601500Y-88128253D01*
X123611191Y-88164419D01*
X123629065Y-88231128D01*
X123629068Y-88231135D01*
X123682317Y-88323365D01*
X123682325Y-88323375D01*
X124764333Y-89405382D01*
X124798358Y-89467694D01*
X124800319Y-89479289D01*
X124809849Y-89557779D01*
X124858447Y-89685919D01*
X124866213Y-89706395D01*
X124956502Y-89837201D01*
X125075471Y-89942599D01*
X125075472Y-89942599D01*
X125075474Y-89942601D01*
X125150200Y-89981820D01*
X125216207Y-90016463D01*
X125370529Y-90054500D01*
X125370530Y-90054500D01*
X125529470Y-90054500D01*
X125529471Y-90054500D01*
X125683793Y-90016463D01*
X125824529Y-89942599D01*
X125943498Y-89837201D01*
X126033787Y-89706395D01*
X126090149Y-89557782D01*
X126090149Y-89557781D01*
X126090150Y-89557779D01*
X126109307Y-89400003D01*
X126109307Y-89399996D01*
X126090150Y-89242220D01*
X126076538Y-89206331D01*
X126033787Y-89093605D01*
X125943498Y-88962799D01*
X125824529Y-88857401D01*
X125824528Y-88857400D01*
X125824525Y-88857398D01*
X125683797Y-88783539D01*
X125683795Y-88783538D01*
X125683793Y-88783537D01*
X125683791Y-88783536D01*
X125683790Y-88783536D01*
X125529472Y-88745500D01*
X125529471Y-88745500D01*
X125370529Y-88745500D01*
X125370527Y-88745500D01*
X125370520Y-88745501D01*
X125341664Y-88752613D01*
X125270736Y-88749493D01*
X125222418Y-88719369D01*
X124886644Y-88383595D01*
X124852618Y-88321283D01*
X124857683Y-88250468D01*
X124900230Y-88193632D01*
X124966750Y-88168821D01*
X124975739Y-88168500D01*
X125139470Y-88168500D01*
X125139471Y-88168500D01*
X125293793Y-88130463D01*
X125434529Y-88056599D01*
X125553498Y-87951201D01*
X125553498Y-87951199D01*
X125554641Y-87950188D01*
X125618894Y-87919987D01*
X125638195Y-87918500D01*
X129060207Y-87918500D01*
X129060209Y-87918500D01*
X129163087Y-87890934D01*
X129255325Y-87837680D01*
X140797680Y-76295325D01*
X140850934Y-76203087D01*
X140878500Y-76100209D01*
X140878500Y-75993703D01*
X140878500Y-68576717D01*
X140898502Y-68508596D01*
X140952158Y-68462103D01*
X141004034Y-68450718D01*
X141073770Y-68450462D01*
X141141961Y-68470214D01*
G37*
G04 #@! TD.AperFunction*
G04 #@! TA.AperFunction,Conductor*
G36*
X140011232Y-68474360D02*
G01*
X140057921Y-68527845D01*
X140069500Y-68580607D01*
X140069500Y-75827217D01*
X140049498Y-75895338D01*
X140032595Y-75916312D01*
X137158595Y-78790312D01*
X137096283Y-78824338D01*
X137025468Y-78819273D01*
X136968632Y-78776726D01*
X136943821Y-78710206D01*
X136943500Y-78701217D01*
X136943500Y-75648748D01*
X136942698Y-75645755D01*
X136915934Y-75545869D01*
X136879855Y-75483379D01*
X136862682Y-75453634D01*
X136862678Y-75453629D01*
X136833934Y-75424885D01*
X136787369Y-75378320D01*
X136489240Y-75080191D01*
X136455214Y-75017879D01*
X136453254Y-74975907D01*
X136455307Y-74959000D01*
X136455307Y-74958997D01*
X136436150Y-74801220D01*
X136412358Y-74738488D01*
X136379787Y-74652605D01*
X136289498Y-74521799D01*
X136170529Y-74416401D01*
X136170528Y-74416400D01*
X136170525Y-74416398D01*
X136029797Y-74342539D01*
X136029795Y-74342538D01*
X136029793Y-74342537D01*
X136029791Y-74342536D01*
X136029790Y-74342536D01*
X135875472Y-74304500D01*
X135875471Y-74304500D01*
X135716529Y-74304500D01*
X135716527Y-74304500D01*
X135562209Y-74342536D01*
X135562202Y-74342539D01*
X135421474Y-74416398D01*
X135421469Y-74416402D01*
X135302501Y-74521800D01*
X135212215Y-74652601D01*
X135212212Y-74652607D01*
X135155849Y-74801220D01*
X135136693Y-74958996D01*
X135136693Y-74959003D01*
X135155849Y-75116779D01*
X135174327Y-75165500D01*
X135212213Y-75265395D01*
X135302502Y-75396201D01*
X135421471Y-75501599D01*
X135421472Y-75501599D01*
X135421474Y-75501601D01*
X135437405Y-75509962D01*
X135562207Y-75575463D01*
X135716529Y-75613500D01*
X135716530Y-75613500D01*
X135826261Y-75613500D01*
X135894382Y-75633502D01*
X135915356Y-75650405D01*
X136097595Y-75832644D01*
X136131621Y-75894956D01*
X136134500Y-75921739D01*
X136134500Y-76327031D01*
X136114498Y-76395152D01*
X136060842Y-76441645D01*
X135990568Y-76451749D01*
X135964467Y-76445086D01*
X135848849Y-76401962D01*
X135848844Y-76401960D01*
X135848842Y-76401960D01*
X135818798Y-76398730D01*
X135788756Y-76395500D01*
X135017253Y-76395500D01*
X135017229Y-76395502D01*
X134957160Y-76401959D01*
X134957158Y-76401959D01*
X134821233Y-76452657D01*
X134705096Y-76539596D01*
X134618157Y-76655734D01*
X134567462Y-76791650D01*
X134567460Y-76791658D01*
X134560639Y-76855101D01*
X134559703Y-76855000D01*
X134537401Y-76918204D01*
X134481331Y-76961754D01*
X134435207Y-76970500D01*
X134402739Y-76970500D01*
X134334618Y-76950498D01*
X134313644Y-76933595D01*
X133787221Y-76407172D01*
X133753195Y-76344860D01*
X133751108Y-76303969D01*
X133752082Y-76295325D01*
X133763274Y-76196000D01*
X133744237Y-76027046D01*
X133688082Y-75866563D01*
X133597624Y-75722600D01*
X133597622Y-75722597D01*
X133477404Y-75602379D01*
X133477400Y-75602376D01*
X133382026Y-75542448D01*
X133334988Y-75489269D01*
X133327357Y-75468379D01*
X133315704Y-75424888D01*
X133271667Y-75348612D01*
X133271662Y-75348607D01*
X133271660Y-75348604D01*
X133156470Y-75233414D01*
X133122444Y-75171102D01*
X133127509Y-75100287D01*
X133170056Y-75043451D01*
X133203941Y-75025394D01*
X133333437Y-74980082D01*
X133477400Y-74889624D01*
X133597624Y-74769400D01*
X133688082Y-74625437D01*
X133744237Y-74464954D01*
X133763274Y-74296000D01*
X133744237Y-74127046D01*
X133688082Y-73966563D01*
X133597624Y-73822600D01*
X133597622Y-73822597D01*
X133487632Y-73712607D01*
X133453606Y-73650295D01*
X133458671Y-73579480D01*
X133487632Y-73534417D01*
X134214906Y-72807143D01*
X134277218Y-72773117D01*
X134348033Y-72778182D01*
X134404869Y-72820729D01*
X134429680Y-72887249D01*
X134430001Y-72896238D01*
X134430001Y-73132246D01*
X134430002Y-73132270D01*
X134436459Y-73192339D01*
X134436459Y-73192341D01*
X134487157Y-73328266D01*
X134502402Y-73348631D01*
X134574096Y-73444404D01*
X134690233Y-73531342D01*
X134826158Y-73582040D01*
X134886245Y-73588500D01*
X135657754Y-73588499D01*
X135717842Y-73582040D01*
X135853767Y-73531342D01*
X135969904Y-73444404D01*
X136056842Y-73328267D01*
X136107540Y-73192342D01*
X136114000Y-73132255D01*
X136113999Y-72085746D01*
X136107540Y-72025658D01*
X136056842Y-71889733D01*
X135969904Y-71773596D01*
X135853767Y-71686658D01*
X135853765Y-71686657D01*
X135853766Y-71686657D01*
X135717849Y-71635962D01*
X135717844Y-71635960D01*
X135717842Y-71635960D01*
X135687798Y-71632730D01*
X135657756Y-71629500D01*
X134886253Y-71629500D01*
X134886238Y-71629501D01*
X134860338Y-71632285D01*
X134790470Y-71619675D01*
X134738511Y-71571294D01*
X134720957Y-71502502D01*
X134743381Y-71435140D01*
X134757772Y-71417921D01*
X136322642Y-69853050D01*
X136322652Y-69853043D01*
X136403670Y-69772025D01*
X136403676Y-69772019D01*
X136453638Y-69685482D01*
X136461502Y-69656132D01*
X136479501Y-69588962D01*
X136479501Y-69489038D01*
X136479501Y-69481321D01*
X136479500Y-69481303D01*
X136479500Y-68759384D01*
X136499502Y-68691263D01*
X136516399Y-68670294D01*
X136683557Y-68503136D01*
X136745865Y-68469114D01*
X136772175Y-68466236D01*
X139943041Y-68454609D01*
X140011232Y-68474360D01*
G37*
G04 #@! TD.AperFunction*
G04 #@! TA.AperFunction,Conductor*
G36*
X128985890Y-73450100D02*
G01*
X129014077Y-73462546D01*
X129039538Y-73465499D01*
X129039539Y-73465500D01*
X129039540Y-73465500D01*
X129230461Y-73465500D01*
X129230463Y-73465499D01*
X129255923Y-73462546D01*
X129277366Y-73453077D01*
X129347758Y-73443856D01*
X129376483Y-73451931D01*
X129385695Y-73455747D01*
X129432038Y-73464965D01*
X129494946Y-73497871D01*
X129530079Y-73559565D01*
X129531035Y-73563961D01*
X129540253Y-73610305D01*
X129540254Y-73610309D01*
X129544070Y-73619521D01*
X129551656Y-73690111D01*
X129542925Y-73718625D01*
X129533455Y-73740074D01*
X129533453Y-73740080D01*
X129530500Y-73765535D01*
X129530500Y-73956464D01*
X129533453Y-73981921D01*
X129545899Y-74010110D01*
X129555114Y-74080506D01*
X129545899Y-74111890D01*
X129533453Y-74140078D01*
X129530500Y-74165535D01*
X129530500Y-74356464D01*
X129533453Y-74381921D01*
X129545899Y-74410110D01*
X129555114Y-74480506D01*
X129545899Y-74511890D01*
X129533453Y-74540078D01*
X129530500Y-74565535D01*
X129530500Y-74756464D01*
X129533453Y-74781919D01*
X129533454Y-74781924D01*
X129542924Y-74803371D01*
X129552140Y-74873766D01*
X129544072Y-74902471D01*
X129540257Y-74911682D01*
X129540253Y-74911694D01*
X129531035Y-74958038D01*
X129498127Y-75020948D01*
X129436432Y-75056079D01*
X129432048Y-75057032D01*
X129419881Y-75059453D01*
X129385694Y-75066253D01*
X129385686Y-75066256D01*
X129376475Y-75070071D01*
X129305885Y-75077656D01*
X129277373Y-75068924D01*
X129255928Y-75059455D01*
X129255919Y-75059453D01*
X129230464Y-75056500D01*
X129230460Y-75056500D01*
X129039540Y-75056500D01*
X129039535Y-75056500D01*
X129014078Y-75059453D01*
X128985890Y-75071899D01*
X128915494Y-75081114D01*
X128884110Y-75071899D01*
X128855921Y-75059453D01*
X128855922Y-75059453D01*
X128830464Y-75056500D01*
X128830460Y-75056500D01*
X128639540Y-75056500D01*
X128639535Y-75056500D01*
X128614078Y-75059453D01*
X128585890Y-75071899D01*
X128515494Y-75081114D01*
X128484110Y-75071899D01*
X128455921Y-75059453D01*
X128455922Y-75059453D01*
X128430464Y-75056500D01*
X128430460Y-75056500D01*
X128239540Y-75056500D01*
X128239535Y-75056500D01*
X128214080Y-75059453D01*
X128214077Y-75059454D01*
X128192626Y-75068925D01*
X128122232Y-75078141D01*
X128093518Y-75070069D01*
X128084305Y-75066253D01*
X128037959Y-75057034D01*
X127975052Y-75024127D01*
X127939920Y-74962432D01*
X127938973Y-74958079D01*
X127929747Y-74911695D01*
X127925931Y-74902484D01*
X127918340Y-74831895D01*
X127927075Y-74803370D01*
X127936546Y-74781923D01*
X127939500Y-74756460D01*
X127939500Y-74565540D01*
X127936546Y-74540077D01*
X127890563Y-74435935D01*
X127890562Y-74435934D01*
X127890561Y-74435932D01*
X127804724Y-74350095D01*
X127770698Y-74287783D01*
X127775763Y-74216968D01*
X127804724Y-74171905D01*
X127890561Y-74086067D01*
X127890563Y-74086065D01*
X127936546Y-73981923D01*
X127939500Y-73956460D01*
X127939500Y-73765540D01*
X127936546Y-73740077D01*
X127927076Y-73718629D01*
X127917858Y-73648234D01*
X127925930Y-73619518D01*
X127929747Y-73610305D01*
X127938965Y-73563959D01*
X127971870Y-73501053D01*
X128033565Y-73465921D01*
X128037909Y-73464975D01*
X128084305Y-73455747D01*
X128093515Y-73451931D01*
X128164104Y-73444342D01*
X128192629Y-73453076D01*
X128208944Y-73460279D01*
X128214077Y-73462546D01*
X128239538Y-73465499D01*
X128239539Y-73465500D01*
X128239540Y-73465500D01*
X128430461Y-73465500D01*
X128430461Y-73465499D01*
X128455923Y-73462546D01*
X128484106Y-73450101D01*
X128554499Y-73440883D01*
X128585890Y-73450100D01*
X128614077Y-73462546D01*
X128639538Y-73465499D01*
X128639539Y-73465500D01*
X128639540Y-73465500D01*
X128830461Y-73465500D01*
X128830461Y-73465499D01*
X128855923Y-73462546D01*
X128884106Y-73450101D01*
X128954499Y-73440883D01*
X128985890Y-73450100D01*
G37*
G04 #@! TD.AperFunction*
G04 #@! TA.AperFunction,NonConductor*
G36*
X126319655Y-70854502D02*
G01*
X126366148Y-70908158D01*
X126376252Y-70978432D01*
X126369346Y-71005180D01*
X126359850Y-71030219D01*
X126340693Y-71187996D01*
X126340693Y-71188003D01*
X126349594Y-71261313D01*
X126337949Y-71331348D01*
X126290288Y-71383969D01*
X126224513Y-71402500D01*
X120380079Y-71402500D01*
X120311958Y-71382498D01*
X120265465Y-71328842D01*
X120255361Y-71258568D01*
X120284855Y-71193988D01*
X120290984Y-71187404D01*
X120438589Y-71039800D01*
X120606985Y-70871404D01*
X120669297Y-70837379D01*
X120696080Y-70834500D01*
X126251534Y-70834500D01*
X126319655Y-70854502D01*
G37*
G04 #@! TD.AperFunction*
M02*
