G04 #@! TF.GenerationSoftware,KiCad,Pcbnew,6.0.10*
G04 #@! TF.CreationDate,2023-04-28T22:47:20-05:00*
G04 #@! TF.ProjectId,gas_sensor,6761735f-7365-46e7-936f-722e6b696361,rev?*
G04 #@! TF.SameCoordinates,Original*
G04 #@! TF.FileFunction,Legend,Bot*
G04 #@! TF.FilePolarity,Positive*
%FSLAX46Y46*%
G04 Gerber Fmt 4.6, Leading zero omitted, Abs format (unit mm)*
G04 Created by KiCad (PCBNEW 6.0.10) date 2023-04-28 22:47:20*
%MOMM*%
%LPD*%
G01*
G04 APERTURE LIST*
G04 Aperture macros list*
%AMRoundRect*
0 Rectangle with rounded corners*
0 $1 Rounding radius*
0 $2 $3 $4 $5 $6 $7 $8 $9 X,Y pos of 4 corners*
0 Add a 4 corners polygon primitive as box body*
4,1,4,$2,$3,$4,$5,$6,$7,$8,$9,$2,$3,0*
0 Add four circle primitives for the rounded corners*
1,1,$1+$1,$2,$3*
1,1,$1+$1,$4,$5*
1,1,$1+$1,$6,$7*
1,1,$1+$1,$8,$9*
0 Add four rect primitives between the rounded corners*
20,1,$1+$1,$2,$3,$4,$5,0*
20,1,$1+$1,$4,$5,$6,$7,0*
20,1,$1+$1,$6,$7,$8,$9,0*
20,1,$1+$1,$8,$9,$2,$3,0*%
G04 Aperture macros list end*
%ADD10C,0.150000*%
%ADD11C,0.254000*%
%ADD12C,0.120000*%
%ADD13C,0.200000*%
%ADD14R,4.200000X1.350000*%
%ADD15R,1.700000X1.700000*%
%ADD16O,1.700000X1.700000*%
%ADD17RoundRect,0.250000X0.337500X0.475000X-0.337500X0.475000X-0.337500X-0.475000X0.337500X-0.475000X0*%
%ADD18RoundRect,0.250000X0.350000X0.450000X-0.350000X0.450000X-0.350000X-0.450000X0.350000X-0.450000X0*%
%ADD19RoundRect,0.250000X-0.350000X-0.450000X0.350000X-0.450000X0.350000X0.450000X-0.350000X0.450000X0*%
%ADD20R,1.500000X0.650000*%
%ADD21RoundRect,0.150000X0.150000X-0.512500X0.150000X0.512500X-0.150000X0.512500X-0.150000X-0.512500X0*%
%ADD22RoundRect,0.250000X0.450000X-0.350000X0.450000X0.350000X-0.450000X0.350000X-0.450000X-0.350000X0*%
%ADD23RoundRect,0.125000X0.825000X0.125000X-0.825000X0.125000X-0.825000X-0.125000X0.825000X-0.125000X0*%
G04 APERTURE END LIST*
D10*
X137199666Y-72239142D02*
X137247285Y-72286761D01*
X137390142Y-72334380D01*
X137485380Y-72334380D01*
X137628238Y-72286761D01*
X137723476Y-72191523D01*
X137771095Y-72096285D01*
X137818714Y-71905809D01*
X137818714Y-71762952D01*
X137771095Y-71572476D01*
X137723476Y-71477238D01*
X137628238Y-71382000D01*
X137485380Y-71334380D01*
X137390142Y-71334380D01*
X137247285Y-71382000D01*
X137199666Y-71429619D01*
X136818714Y-71429619D02*
X136771095Y-71382000D01*
X136675857Y-71334380D01*
X136437761Y-71334380D01*
X136342523Y-71382000D01*
X136294904Y-71429619D01*
X136247285Y-71524857D01*
X136247285Y-71620095D01*
X136294904Y-71762952D01*
X136866333Y-72334380D01*
X136247285Y-72334380D01*
X135548666Y-89098380D02*
X135882000Y-88622190D01*
X136120095Y-89098380D02*
X136120095Y-88098380D01*
X135739142Y-88098380D01*
X135643904Y-88146000D01*
X135596285Y-88193619D01*
X135548666Y-88288857D01*
X135548666Y-88431714D01*
X135596285Y-88526952D01*
X135643904Y-88574571D01*
X135739142Y-88622190D01*
X136120095Y-88622190D01*
X134977238Y-88526952D02*
X135072476Y-88479333D01*
X135120095Y-88431714D01*
X135167714Y-88336476D01*
X135167714Y-88288857D01*
X135120095Y-88193619D01*
X135072476Y-88146000D01*
X134977238Y-88098380D01*
X134786761Y-88098380D01*
X134691523Y-88146000D01*
X134643904Y-88193619D01*
X134596285Y-88288857D01*
X134596285Y-88336476D01*
X134643904Y-88431714D01*
X134691523Y-88479333D01*
X134786761Y-88526952D01*
X134977238Y-88526952D01*
X135072476Y-88574571D01*
X135120095Y-88622190D01*
X135167714Y-88717428D01*
X135167714Y-88907904D01*
X135120095Y-89003142D01*
X135072476Y-89050761D01*
X134977238Y-89098380D01*
X134786761Y-89098380D01*
X134691523Y-89050761D01*
X134643904Y-89003142D01*
X134596285Y-88907904D01*
X134596285Y-88717428D01*
X134643904Y-88622190D01*
X134691523Y-88574571D01*
X134786761Y-88526952D01*
X129579666Y-72715380D02*
X129913000Y-72239190D01*
X130151095Y-72715380D02*
X130151095Y-71715380D01*
X129770142Y-71715380D01*
X129674904Y-71763000D01*
X129627285Y-71810619D01*
X129579666Y-71905857D01*
X129579666Y-72048714D01*
X129627285Y-72143952D01*
X129674904Y-72191571D01*
X129770142Y-72239190D01*
X130151095Y-72239190D01*
X128674904Y-71715380D02*
X129151095Y-71715380D01*
X129198714Y-72191571D01*
X129151095Y-72143952D01*
X129055857Y-72096333D01*
X128817761Y-72096333D01*
X128722523Y-72143952D01*
X128674904Y-72191571D01*
X128627285Y-72286809D01*
X128627285Y-72524904D01*
X128674904Y-72620142D01*
X128722523Y-72667761D01*
X128817761Y-72715380D01*
X129055857Y-72715380D01*
X129151095Y-72667761D01*
X129198714Y-72620142D01*
D11*
X127985761Y-43627523D02*
X127985761Y-42357523D01*
X126655285Y-43506571D02*
X126715761Y-43567047D01*
X126897190Y-43627523D01*
X127018142Y-43627523D01*
X127199571Y-43567047D01*
X127320523Y-43446095D01*
X127381000Y-43325142D01*
X127441476Y-43083238D01*
X127441476Y-42901809D01*
X127381000Y-42659904D01*
X127320523Y-42538952D01*
X127199571Y-42418000D01*
X127018142Y-42357523D01*
X126897190Y-42357523D01*
X126715761Y-42418000D01*
X126655285Y-42478476D01*
X125445761Y-43627523D02*
X126171476Y-43627523D01*
X125808619Y-43627523D02*
X125808619Y-42357523D01*
X125929571Y-42538952D01*
X126050523Y-42659904D01*
X126171476Y-42720380D01*
D10*
X126658666Y-68905380D02*
X126992000Y-68429190D01*
X127230095Y-68905380D02*
X127230095Y-67905380D01*
X126849142Y-67905380D01*
X126753904Y-67953000D01*
X126706285Y-68000619D01*
X126658666Y-68095857D01*
X126658666Y-68238714D01*
X126706285Y-68333952D01*
X126753904Y-68381571D01*
X126849142Y-68429190D01*
X127230095Y-68429190D01*
X125801523Y-68238714D02*
X125801523Y-68905380D01*
X126039619Y-67857761D02*
X126277714Y-68572047D01*
X125658666Y-68572047D01*
X127420619Y-85502761D02*
X127373000Y-85407523D01*
X127277761Y-85312285D01*
X127134904Y-85169428D01*
X127087285Y-85074190D01*
X127087285Y-84978952D01*
X127325380Y-85026571D02*
X127277761Y-84931333D01*
X127182523Y-84836095D01*
X126992047Y-84788476D01*
X126658714Y-84788476D01*
X126468238Y-84836095D01*
X126373000Y-84931333D01*
X126325380Y-85026571D01*
X126325380Y-85217047D01*
X126373000Y-85312285D01*
X126468238Y-85407523D01*
X126658714Y-85455142D01*
X126992047Y-85455142D01*
X127182523Y-85407523D01*
X127277761Y-85312285D01*
X127325380Y-85217047D01*
X127325380Y-85026571D01*
X127325380Y-86407523D02*
X127325380Y-85836095D01*
X127325380Y-86121809D02*
X126325380Y-86121809D01*
X126468238Y-86026571D01*
X126563476Y-85931333D01*
X126611095Y-85836095D01*
X119165666Y-87066380D02*
X119499000Y-86590190D01*
X119737095Y-87066380D02*
X119737095Y-86066380D01*
X119356142Y-86066380D01*
X119260904Y-86114000D01*
X119213285Y-86161619D01*
X119165666Y-86256857D01*
X119165666Y-86399714D01*
X119213285Y-86494952D01*
X119260904Y-86542571D01*
X119356142Y-86590190D01*
X119737095Y-86590190D01*
X118784714Y-86161619D02*
X118737095Y-86114000D01*
X118641857Y-86066380D01*
X118403761Y-86066380D01*
X118308523Y-86114000D01*
X118260904Y-86161619D01*
X118213285Y-86256857D01*
X118213285Y-86352095D01*
X118260904Y-86494952D01*
X118832333Y-87066380D01*
X118213285Y-87066380D01*
X119165666Y-84780380D02*
X119499000Y-84304190D01*
X119737095Y-84780380D02*
X119737095Y-83780380D01*
X119356142Y-83780380D01*
X119260904Y-83828000D01*
X119213285Y-83875619D01*
X119165666Y-83970857D01*
X119165666Y-84113714D01*
X119213285Y-84208952D01*
X119260904Y-84256571D01*
X119356142Y-84304190D01*
X119737095Y-84304190D01*
X118832333Y-83780380D02*
X118213285Y-83780380D01*
X118546619Y-84161333D01*
X118403761Y-84161333D01*
X118308523Y-84208952D01*
X118260904Y-84256571D01*
X118213285Y-84351809D01*
X118213285Y-84589904D01*
X118260904Y-84685142D01*
X118308523Y-84732761D01*
X118403761Y-84780380D01*
X118689476Y-84780380D01*
X118784714Y-84732761D01*
X118832333Y-84685142D01*
X125642666Y-89225380D02*
X125976000Y-88749190D01*
X126214095Y-89225380D02*
X126214095Y-88225380D01*
X125833142Y-88225380D01*
X125737904Y-88273000D01*
X125690285Y-88320619D01*
X125642666Y-88415857D01*
X125642666Y-88558714D01*
X125690285Y-88653952D01*
X125737904Y-88701571D01*
X125833142Y-88749190D01*
X126214095Y-88749190D01*
X125309333Y-88225380D02*
X124642666Y-88225380D01*
X125071238Y-89225380D01*
X134436380Y-85193333D02*
X133960190Y-84860000D01*
X134436380Y-84621904D02*
X133436380Y-84621904D01*
X133436380Y-85002857D01*
X133484000Y-85098095D01*
X133531619Y-85145714D01*
X133626857Y-85193333D01*
X133769714Y-85193333D01*
X133864952Y-85145714D01*
X133912571Y-85098095D01*
X133960190Y-85002857D01*
X133960190Y-84621904D01*
X134436380Y-85669523D02*
X134436380Y-85860000D01*
X134388761Y-85955238D01*
X134341142Y-86002857D01*
X134198285Y-86098095D01*
X134007809Y-86145714D01*
X133626857Y-86145714D01*
X133531619Y-86098095D01*
X133484000Y-86050476D01*
X133436380Y-85955238D01*
X133436380Y-85764761D01*
X133484000Y-85669523D01*
X133531619Y-85621904D01*
X133626857Y-85574285D01*
X133864952Y-85574285D01*
X133960190Y-85621904D01*
X134007809Y-85669523D01*
X134055428Y-85764761D01*
X134055428Y-85955238D01*
X134007809Y-86050476D01*
X133960190Y-86098095D01*
X133864952Y-86145714D01*
X137072666Y-74144142D02*
X137120285Y-74191761D01*
X137263142Y-74239380D01*
X137358380Y-74239380D01*
X137501238Y-74191761D01*
X137596476Y-74096523D01*
X137644095Y-74001285D01*
X137691714Y-73810809D01*
X137691714Y-73667952D01*
X137644095Y-73477476D01*
X137596476Y-73382238D01*
X137501238Y-73287000D01*
X137358380Y-73239380D01*
X137263142Y-73239380D01*
X137120285Y-73287000D01*
X137072666Y-73334619D01*
X136215523Y-73572714D02*
X136215523Y-74239380D01*
X136453619Y-73191761D02*
X136691714Y-73906047D01*
X136072666Y-73906047D01*
X123570904Y-72118380D02*
X123570904Y-72927904D01*
X123523285Y-73023142D01*
X123475666Y-73070761D01*
X123380428Y-73118380D01*
X123189952Y-73118380D01*
X123094714Y-73070761D01*
X123047095Y-73023142D01*
X122999476Y-72927904D01*
X122999476Y-72118380D01*
X122570904Y-72213619D02*
X122523285Y-72166000D01*
X122428047Y-72118380D01*
X122189952Y-72118380D01*
X122094714Y-72166000D01*
X122047095Y-72213619D01*
X121999476Y-72308857D01*
X121999476Y-72404095D01*
X122047095Y-72546952D01*
X122618523Y-73118380D01*
X121999476Y-73118380D01*
D12*
X133970752Y-71147000D02*
X133448248Y-71147000D01*
X133970752Y-72617000D02*
X133448248Y-72617000D01*
X132672064Y-87911000D02*
X132217936Y-87911000D01*
X132672064Y-89381000D02*
X132217936Y-89381000D01*
X126280936Y-70839000D02*
X126735064Y-70839000D01*
X126280936Y-69369000D02*
X126735064Y-69369000D01*
D13*
X125146000Y-36412000D02*
X125146000Y-41312000D01*
X128346000Y-36412000D02*
X125146000Y-36412000D01*
X128346000Y-41312000D02*
X128346000Y-36412000D01*
X125146000Y-41312000D02*
X128346000Y-41312000D01*
X123296000Y-41442000D02*
X124796000Y-41442000D01*
D12*
X126735064Y-72998000D02*
X126280936Y-72998000D01*
X126735064Y-71528000D02*
X126280936Y-71528000D01*
X127853000Y-85476500D02*
X127853000Y-86276500D01*
X130973000Y-85476500D02*
X130973000Y-84676500D01*
X130973000Y-85476500D02*
X130973000Y-87276500D01*
X127853000Y-85476500D02*
X127853000Y-84676500D01*
X121581936Y-87222000D02*
X122036064Y-87222000D01*
X121581936Y-85752000D02*
X122036064Y-85752000D01*
X122036064Y-85063000D02*
X121581936Y-85063000D01*
X122036064Y-83593000D02*
X121581936Y-83593000D01*
X128640064Y-89381000D02*
X128185936Y-89381000D01*
X128640064Y-87911000D02*
X128185936Y-87911000D01*
X131599000Y-85587064D02*
X131599000Y-85132936D01*
X133069000Y-85587064D02*
X133069000Y-85132936D01*
X133970752Y-74522000D02*
X133448248Y-74522000D01*
X133970752Y-73052000D02*
X133448248Y-73052000D01*
X123859000Y-80926000D02*
X123859000Y-80651000D01*
X126619000Y-80926000D02*
X123859000Y-80926000D01*
X129379000Y-80926000D02*
X129379000Y-80651000D01*
X126619000Y-73506000D02*
X129379000Y-73506000D01*
X126619000Y-80926000D02*
X129379000Y-80926000D01*
X129379000Y-73506000D02*
X129379000Y-73781000D01*
X123859000Y-73506000D02*
X123859000Y-73781000D01*
X126619000Y-73506000D02*
X123859000Y-73506000D01*
X129379000Y-73781000D02*
X131069000Y-73781000D01*
%LPC*%
D14*
X139319000Y-84074000D03*
X139319000Y-89724000D03*
D15*
X118491000Y-92202000D03*
D16*
X121031000Y-92202000D03*
X123571000Y-92202000D03*
D15*
X132207000Y-92202000D03*
D16*
X129667000Y-92202000D03*
D17*
X134747000Y-71882000D03*
X132672000Y-71882000D03*
D18*
X133445000Y-88646000D03*
X131445000Y-88646000D03*
D19*
X125508000Y-70104000D03*
X127508000Y-70104000D03*
D20*
X124046000Y-40767000D03*
X124046000Y-39497000D03*
X124046000Y-38227000D03*
X124046000Y-36957000D03*
X129446000Y-36957000D03*
X129446000Y-38227000D03*
X129446000Y-39497000D03*
X129446000Y-40767000D03*
D18*
X127508000Y-72263000D03*
X125508000Y-72263000D03*
D21*
X130363000Y-86614000D03*
X129413000Y-86614000D03*
X128463000Y-86614000D03*
X128463000Y-84339000D03*
X129413000Y-84339000D03*
X130363000Y-84339000D03*
D19*
X120809000Y-86487000D03*
X122809000Y-86487000D03*
D18*
X122809000Y-84328000D03*
X120809000Y-84328000D03*
X129413000Y-88646000D03*
X127413000Y-88646000D03*
D22*
X132334000Y-86360000D03*
X132334000Y-84360000D03*
D17*
X134747000Y-73787000D03*
X132672000Y-73787000D03*
D23*
X130119000Y-74291000D03*
X130119000Y-74941000D03*
X130119000Y-75591000D03*
X130119000Y-76241000D03*
X130119000Y-76891000D03*
X130119000Y-77541000D03*
X130119000Y-78191000D03*
X130119000Y-78841000D03*
X130119000Y-79491000D03*
X130119000Y-80141000D03*
X123119000Y-80141000D03*
X123119000Y-79491000D03*
X123119000Y-78841000D03*
X123119000Y-78191000D03*
X123119000Y-77541000D03*
X123119000Y-76891000D03*
X123119000Y-76241000D03*
X123119000Y-75591000D03*
X123119000Y-74941000D03*
X123119000Y-74291000D03*
M02*
