M48
; DRILL file {KiCad 6.0.10} date Fri 28 Apr 2023 10:46:53 PM CDT
; FORMAT={-:-/ absolute / metric / decimal}
; #@! TF.CreationDate,2023-04-28T22:46:53-05:00
; #@! TF.GenerationSoftware,Kicad,Pcbnew,6.0.10
; #@! TF.FileFunction,Plated,1,2,PTH
FMAT,2
METRIC
; #@! TA.AperFunction,Plated,PTH,ViaDrill
T1C0.400
; #@! TA.AperFunction,Plated,PTH,ComponentDrill
T2C1.000
%
G90
G05
T1
X114.554Y-77.216
X115.443Y-76.073
X115.57Y-69.85
X115.57Y-87.63
X115.57Y-90.17
X115.57Y-92.71
X116.205Y-84.836
X116.332Y-73.406
X116.332Y-74.93
X116.84Y-93.98
X118.11Y-69.85
X119.38Y-93.98
X120.65Y-69.85
X120.777Y-77.47
X121.92Y-93.98
X122.428Y-72.39
X124.079Y-42.037
X124.079Y-43.561
X124.32Y-71.12
X124.46Y-93.98
X124.714Y-76.835
X125.349Y-46.101
X125.349Y-78.359
X125.476Y-36.957
X125.476Y-68.58
X126.619Y-81.661
X127.0Y-93.98
X127.508Y-68.707
X128.397Y-74.93
X128.524Y-43.434
X128.524Y-76.2
X128.524Y-77.597
X129.413Y-83.058
X129.54Y-93.98
X131.191Y-81.026
X132.08Y-78.232
X132.08Y-93.98
X132.969Y-82.931
X134.62Y-93.98
X136.144Y-78.867
X137.16Y-69.85
X137.16Y-74.803
X137.16Y-76.835
X137.16Y-93.98
X139.446Y-77.724
X139.7Y-69.85
X139.7Y-72.39
X139.7Y-74.93
X139.7Y-91.44
X139.7Y-93.98
T2
X118.491Y-92.202
X121.031Y-92.202
X123.571Y-92.202
X129.667Y-92.202
X132.207Y-92.202
T0
M30
