G04 #@! TF.GenerationSoftware,KiCad,Pcbnew,6.0.10*
G04 #@! TF.CreationDate,2023-04-28T22:47:20-05:00*
G04 #@! TF.ProjectId,gas_sensor,6761735f-7365-46e7-936f-722e6b696361,rev?*
G04 #@! TF.SameCoordinates,Original*
G04 #@! TF.FileFunction,Copper,L2,Bot*
G04 #@! TF.FilePolarity,Positive*
%FSLAX46Y46*%
G04 Gerber Fmt 4.6, Leading zero omitted, Abs format (unit mm)*
G04 Created by KiCad (PCBNEW 6.0.10) date 2023-04-28 22:47:20*
%MOMM*%
%LPD*%
G01*
G04 APERTURE LIST*
G04 Aperture macros list*
%AMRoundRect*
0 Rectangle with rounded corners*
0 $1 Rounding radius*
0 $2 $3 $4 $5 $6 $7 $8 $9 X,Y pos of 4 corners*
0 Add a 4 corners polygon primitive as box body*
4,1,4,$2,$3,$4,$5,$6,$7,$8,$9,$2,$3,0*
0 Add four circle primitives for the rounded corners*
1,1,$1+$1,$2,$3*
1,1,$1+$1,$4,$5*
1,1,$1+$1,$6,$7*
1,1,$1+$1,$8,$9*
0 Add four rect primitives between the rounded corners*
20,1,$1+$1,$2,$3,$4,$5,0*
20,1,$1+$1,$4,$5,$6,$7,0*
20,1,$1+$1,$6,$7,$8,$9,0*
20,1,$1+$1,$8,$9,$2,$3,0*%
G04 Aperture macros list end*
G04 #@! TA.AperFunction,SMDPad,CuDef*
%ADD10R,4.200000X1.350000*%
G04 #@! TD*
G04 #@! TA.AperFunction,ComponentPad*
%ADD11R,1.700000X1.700000*%
G04 #@! TD*
G04 #@! TA.AperFunction,ComponentPad*
%ADD12O,1.700000X1.700000*%
G04 #@! TD*
G04 #@! TA.AperFunction,SMDPad,CuDef*
%ADD13RoundRect,0.250000X0.337500X0.475000X-0.337500X0.475000X-0.337500X-0.475000X0.337500X-0.475000X0*%
G04 #@! TD*
G04 #@! TA.AperFunction,SMDPad,CuDef*
%ADD14RoundRect,0.250000X0.350000X0.450000X-0.350000X0.450000X-0.350000X-0.450000X0.350000X-0.450000X0*%
G04 #@! TD*
G04 #@! TA.AperFunction,SMDPad,CuDef*
%ADD15RoundRect,0.250000X-0.350000X-0.450000X0.350000X-0.450000X0.350000X0.450000X-0.350000X0.450000X0*%
G04 #@! TD*
G04 #@! TA.AperFunction,SMDPad,CuDef*
%ADD16R,1.500000X0.650000*%
G04 #@! TD*
G04 #@! TA.AperFunction,SMDPad,CuDef*
%ADD17RoundRect,0.150000X0.150000X-0.512500X0.150000X0.512500X-0.150000X0.512500X-0.150000X-0.512500X0*%
G04 #@! TD*
G04 #@! TA.AperFunction,SMDPad,CuDef*
%ADD18RoundRect,0.250000X0.450000X-0.350000X0.450000X0.350000X-0.450000X0.350000X-0.450000X-0.350000X0*%
G04 #@! TD*
G04 #@! TA.AperFunction,SMDPad,CuDef*
%ADD19RoundRect,0.125000X0.825000X0.125000X-0.825000X0.125000X-0.825000X-0.125000X0.825000X-0.125000X0*%
G04 #@! TD*
G04 #@! TA.AperFunction,ViaPad*
%ADD20C,0.800000*%
G04 #@! TD*
G04 #@! TA.AperFunction,Conductor*
%ADD21C,0.300000*%
G04 #@! TD*
G04 #@! TA.AperFunction,Conductor*
%ADD22C,0.500000*%
G04 #@! TD*
G04 #@! TA.AperFunction,Conductor*
%ADD23C,1.500000*%
G04 #@! TD*
G04 #@! TA.AperFunction,Conductor*
%ADD24C,0.250000*%
G04 #@! TD*
G04 APERTURE END LIST*
D10*
X139319000Y-84074000D03*
X139319000Y-89724000D03*
D11*
X118491000Y-92202000D03*
D12*
X121031000Y-92202000D03*
X123571000Y-92202000D03*
D11*
X132207000Y-92202000D03*
D12*
X129667000Y-92202000D03*
D13*
X134747000Y-71882000D03*
X132672000Y-71882000D03*
D14*
X133445000Y-88646000D03*
X131445000Y-88646000D03*
D15*
X125508000Y-70104000D03*
X127508000Y-70104000D03*
D16*
X124046000Y-40767000D03*
X124046000Y-39497000D03*
X124046000Y-38227000D03*
X124046000Y-36957000D03*
X129446000Y-36957000D03*
X129446000Y-38227000D03*
X129446000Y-39497000D03*
X129446000Y-40767000D03*
D14*
X127508000Y-72263000D03*
X125508000Y-72263000D03*
D17*
X130363000Y-86614000D03*
X129413000Y-86614000D03*
X128463000Y-86614000D03*
X128463000Y-84339000D03*
X129413000Y-84339000D03*
X130363000Y-84339000D03*
D15*
X120809000Y-86487000D03*
X122809000Y-86487000D03*
D14*
X122809000Y-84328000D03*
X120809000Y-84328000D03*
X129413000Y-88646000D03*
X127413000Y-88646000D03*
D18*
X132334000Y-86360000D03*
X132334000Y-84360000D03*
D13*
X134747000Y-73787000D03*
X132672000Y-73787000D03*
D19*
X130119000Y-74291000D03*
X130119000Y-74941000D03*
X130119000Y-75591000D03*
X130119000Y-76241000D03*
X130119000Y-76891000D03*
X130119000Y-77541000D03*
X130119000Y-78191000D03*
X130119000Y-78841000D03*
X130119000Y-79491000D03*
X130119000Y-80141000D03*
X123119000Y-80141000D03*
X123119000Y-79491000D03*
X123119000Y-78841000D03*
X123119000Y-78191000D03*
X123119000Y-77541000D03*
X123119000Y-76891000D03*
X123119000Y-76241000D03*
X123119000Y-75591000D03*
X123119000Y-74941000D03*
X123119000Y-74291000D03*
D20*
X119380000Y-93980000D03*
X129413000Y-83058000D03*
X122428000Y-72390000D03*
X118110000Y-69850000D03*
X115570000Y-87630000D03*
X132080000Y-93980000D03*
X139700000Y-91440000D03*
X134620000Y-93980000D03*
X137160000Y-69850000D03*
X139700000Y-74930000D03*
X125476000Y-36957000D03*
X139700000Y-72390000D03*
X124460000Y-93980000D03*
X115570000Y-69850000D03*
X139446000Y-77724000D03*
X139700000Y-93980000D03*
X115570000Y-92710000D03*
X125349000Y-78359000D03*
X137160000Y-93980000D03*
X115570000Y-90170000D03*
X120650000Y-69850000D03*
X129540000Y-93980000D03*
X127000000Y-93980000D03*
X121920000Y-93980000D03*
X139700000Y-69850000D03*
X116840000Y-93980000D03*
X127508000Y-68707000D03*
X128397000Y-74930000D03*
X128524000Y-43434000D03*
X124079000Y-42037000D03*
X124079000Y-43561000D03*
X132969000Y-82931000D03*
X125476000Y-68580000D03*
X126619000Y-81661000D03*
X125349000Y-46101000D03*
X120777000Y-77470000D03*
X124320500Y-71120000D03*
X124714000Y-76835000D03*
X128524000Y-76200000D03*
X136144000Y-78867000D03*
X137160000Y-76835000D03*
X137160000Y-74803000D03*
X128524000Y-77597000D03*
X131191000Y-81026000D03*
X116332000Y-74930000D03*
X115443000Y-76073000D03*
X114554000Y-77216000D03*
X116205000Y-84836000D03*
X132080000Y-78232000D03*
X116332000Y-73406000D03*
D21*
X129413000Y-84339000D02*
X129413000Y-83058000D01*
D22*
X124046000Y-36957000D02*
X125476000Y-36957000D01*
X127508000Y-70104000D02*
X127508000Y-68707000D01*
D21*
X128782000Y-74291000D02*
X130119000Y-74291000D01*
X125508000Y-72263000D02*
X125508000Y-72104000D01*
X128397000Y-74676000D02*
X128782000Y-74291000D01*
D22*
X122809000Y-86487000D02*
X122809000Y-91440000D01*
X129413000Y-86614000D02*
X129413000Y-88646000D01*
D21*
X132168000Y-74291000D02*
X132672000Y-73787000D01*
D23*
X129667000Y-92202000D02*
X123571000Y-92202000D01*
D21*
X128397000Y-74930000D02*
X128397000Y-74676000D01*
X132672000Y-73787000D02*
X132672000Y-71882000D01*
X130119000Y-74291000D02*
X132168000Y-74291000D01*
D22*
X129667000Y-92202000D02*
X129667000Y-88900000D01*
X122809000Y-91440000D02*
X123571000Y-92202000D01*
X129667000Y-88900000D02*
X129413000Y-88646000D01*
D21*
X125508000Y-72104000D02*
X127508000Y-70104000D01*
X129446000Y-40767000D02*
X129667000Y-40767000D01*
X125349000Y-39751000D02*
X125349000Y-42291000D01*
D22*
X132080000Y-82042000D02*
X132969000Y-82931000D01*
X128778000Y-82042000D02*
X132080000Y-82042000D01*
X128463000Y-84339000D02*
X128463000Y-82357000D01*
D21*
X125095000Y-39497000D02*
X125349000Y-39751000D01*
X128397000Y-40767000D02*
X128397000Y-43307000D01*
X124046000Y-39497000D02*
X125095000Y-39497000D01*
X129446000Y-40767000D02*
X128397000Y-40767000D01*
D22*
X128463000Y-82357000D02*
X128778000Y-82042000D01*
D21*
X124046000Y-40767000D02*
X124046000Y-42004000D01*
X128397000Y-43307000D02*
X128524000Y-43434000D01*
X125349000Y-42291000D02*
X124079000Y-43561000D01*
X124046000Y-42004000D02*
X124079000Y-42037000D01*
X127508000Y-72263000D02*
X128360947Y-73115947D01*
X127127000Y-74349894D02*
X127127000Y-78613000D01*
X127508000Y-40005000D02*
X127508000Y-55880000D01*
X125599000Y-80141000D02*
X123119000Y-80141000D01*
X129421000Y-57793000D02*
X129421000Y-70985000D01*
X128360947Y-73115947D02*
X127127000Y-74349894D01*
X129421000Y-70985000D02*
X129413000Y-70993000D01*
X127127000Y-78613000D02*
X125599000Y-80141000D01*
X129413000Y-70993000D02*
X129413000Y-72063894D01*
X127508000Y-55880000D02*
X129421000Y-57793000D01*
X129413000Y-72063894D02*
X128360947Y-73115947D01*
X129446000Y-39497000D02*
X128016000Y-39497000D01*
X128016000Y-39497000D02*
X127508000Y-40005000D01*
X126873000Y-43942000D02*
X126873000Y-44577000D01*
X130119000Y-80141000D02*
X127250000Y-80141000D01*
X126873000Y-38735000D02*
X126873000Y-43942000D01*
X126873000Y-44577000D02*
X125349000Y-46101000D01*
X125508000Y-70104000D02*
X125508000Y-68612000D01*
X129446000Y-38227000D02*
X127381000Y-38227000D01*
X127381000Y-38227000D02*
X126873000Y-38735000D01*
X125508000Y-68612000D02*
X125476000Y-68580000D01*
X127250000Y-80141000D02*
X126619000Y-80772000D01*
X126619000Y-80772000D02*
X126619000Y-81661000D01*
X126365000Y-37465000D02*
X126365000Y-43815000D01*
X124079000Y-46101000D02*
X124079000Y-68580000D01*
X126365000Y-43815000D02*
X124079000Y-46101000D01*
X129446000Y-36957000D02*
X126873000Y-36957000D01*
X126873000Y-36957000D02*
X126365000Y-37465000D01*
X124079000Y-70878500D02*
X124320500Y-71120000D01*
X120848000Y-77541000D02*
X123119000Y-77541000D01*
X120777000Y-77470000D02*
X120848000Y-77541000D01*
X124079000Y-68580000D02*
X124079000Y-70878500D01*
D24*
X123119000Y-76891000D02*
X124658000Y-76891000D01*
X124658000Y-76891000D02*
X124714000Y-76835000D01*
D21*
X130078000Y-76200000D02*
X130119000Y-76241000D01*
X128524000Y-76200000D02*
X130078000Y-76200000D01*
X130119000Y-79491000D02*
X135520000Y-79491000D01*
X135520000Y-79491000D02*
X136144000Y-78867000D01*
X130119000Y-76891000D02*
X137104000Y-76891000D01*
X137104000Y-76891000D02*
X137160000Y-76835000D01*
X136372000Y-75591000D02*
X137160000Y-74803000D01*
X130119000Y-75591000D02*
X136372000Y-75591000D01*
X130119000Y-78191000D02*
X129118000Y-78191000D01*
X131191000Y-81026000D02*
X132969000Y-81026000D01*
X134112000Y-82169000D02*
X134112000Y-87979000D01*
X129118000Y-78191000D02*
X128524000Y-77597000D01*
X134112000Y-87979000D02*
X133445000Y-88646000D01*
X132969000Y-81026000D02*
X134112000Y-82169000D01*
X123119000Y-74941000D02*
X116343000Y-74941000D01*
X116343000Y-74941000D02*
X116332000Y-74930000D01*
X117703000Y-75591000D02*
X117348000Y-75946000D01*
X123119000Y-75591000D02*
X117703000Y-75591000D01*
X117221000Y-76073000D02*
X115443000Y-76073000D01*
X117348000Y-75946000D02*
X117221000Y-76073000D01*
X117221000Y-77216000D02*
X114554000Y-77216000D01*
X118196000Y-76241000D02*
X117221000Y-77216000D01*
X123119000Y-76241000D02*
X118196000Y-76241000D01*
X120523000Y-78867000D02*
X116205000Y-83185000D01*
X123119000Y-78191000D02*
X121199000Y-78191000D01*
X116205000Y-83185000D02*
X116205000Y-84836000D01*
X121199000Y-78191000D02*
X120523000Y-78867000D01*
X132334000Y-86360000D02*
X132334000Y-87757000D01*
X130363000Y-86614000D02*
X130363000Y-87564000D01*
X130363000Y-87564000D02*
X131445000Y-88646000D01*
X132334000Y-87757000D02*
X131445000Y-88646000D01*
X130363000Y-85156000D02*
X130363000Y-84339000D01*
X130048000Y-85471000D02*
X130363000Y-85156000D01*
X128463000Y-85913000D02*
X128905000Y-85471000D01*
X128463000Y-87596000D02*
X127413000Y-88646000D01*
X128463000Y-86614000D02*
X128463000Y-87596000D01*
X128905000Y-85471000D02*
X130048000Y-85471000D01*
X128463000Y-86614000D02*
X128463000Y-85913000D01*
X131389000Y-77541000D02*
X132080000Y-78232000D01*
X130119000Y-77541000D02*
X131389000Y-77541000D01*
D24*
X123119000Y-79491000D02*
X125487000Y-79491000D01*
X124714000Y-73406000D02*
X116332000Y-73406000D01*
X125487000Y-79491000D02*
X126492000Y-78486000D01*
X126492000Y-78486000D02*
X126492000Y-75184000D01*
X126492000Y-75184000D02*
X124714000Y-73406000D01*
D21*
X121438000Y-78841000D02*
X120904000Y-79375000D01*
X120904000Y-86392000D02*
X120809000Y-86487000D01*
X120904000Y-79375000D02*
X120904000Y-86392000D01*
X123119000Y-78841000D02*
X121438000Y-78841000D01*
X130093000Y-78867000D02*
X130119000Y-78841000D01*
G04 #@! TA.AperFunction,Conductor*
G36*
X130540591Y-68582421D02*
G01*
X130556000Y-68585486D01*
X130568897Y-68582921D01*
X130593476Y-68580500D01*
X141097500Y-68580500D01*
X141165621Y-68600502D01*
X141212114Y-68654158D01*
X141223500Y-68706500D01*
X141223500Y-95758500D01*
X141203498Y-95826621D01*
X141149842Y-95873114D01*
X141097500Y-95884500D01*
X114045500Y-95884500D01*
X113977379Y-95864498D01*
X113930886Y-95810842D01*
X113919500Y-95758500D01*
X113919500Y-92172964D01*
X119922148Y-92172964D01*
X119935424Y-92375522D01*
X119936845Y-92381118D01*
X119936846Y-92381123D01*
X119957119Y-92460945D01*
X119985392Y-92572269D01*
X119987809Y-92577512D01*
X120025010Y-92658208D01*
X120070377Y-92756616D01*
X120187533Y-92922389D01*
X120332938Y-93064035D01*
X120501720Y-93176812D01*
X120507023Y-93179090D01*
X120507026Y-93179092D01*
X120595707Y-93217192D01*
X120688228Y-93256942D01*
X120761244Y-93273464D01*
X120880579Y-93300467D01*
X120880584Y-93300468D01*
X120886216Y-93301742D01*
X120891987Y-93301969D01*
X120891989Y-93301969D01*
X120951756Y-93304317D01*
X121089053Y-93309712D01*
X121189499Y-93295148D01*
X121284231Y-93281413D01*
X121284236Y-93281412D01*
X121289945Y-93280584D01*
X121295409Y-93278729D01*
X121295414Y-93278728D01*
X121476693Y-93217192D01*
X121476698Y-93217190D01*
X121482165Y-93215334D01*
X121497940Y-93206500D01*
X121556683Y-93173602D01*
X121659276Y-93116147D01*
X121721934Y-93064035D01*
X121810913Y-92990031D01*
X121815345Y-92986345D01*
X121945147Y-92830276D01*
X122044334Y-92653165D01*
X122046190Y-92647698D01*
X122046192Y-92647693D01*
X122107728Y-92466414D01*
X122107729Y-92466409D01*
X122109584Y-92460945D01*
X122110412Y-92455236D01*
X122110413Y-92455231D01*
X122138179Y-92263727D01*
X122138712Y-92260053D01*
X122140232Y-92202000D01*
X122121658Y-91999859D01*
X122120090Y-91994299D01*
X122068125Y-91810046D01*
X122068124Y-91810044D01*
X122066557Y-91804487D01*
X122057763Y-91786653D01*
X121979331Y-91627609D01*
X121976776Y-91622428D01*
X121947373Y-91583052D01*
X121882758Y-91496523D01*
X121855320Y-91459779D01*
X121706258Y-91321987D01*
X121701375Y-91318906D01*
X121701371Y-91318903D01*
X121539464Y-91216748D01*
X121534581Y-91213667D01*
X121346039Y-91138446D01*
X121340379Y-91137320D01*
X121340375Y-91137319D01*
X121152613Y-91099971D01*
X121152610Y-91099971D01*
X121146946Y-91098844D01*
X121141171Y-91098768D01*
X121141167Y-91098768D01*
X121039793Y-91097441D01*
X120943971Y-91096187D01*
X120938274Y-91097166D01*
X120938273Y-91097166D01*
X120749607Y-91129585D01*
X120743910Y-91130564D01*
X120553463Y-91200824D01*
X120379010Y-91304612D01*
X120374670Y-91308418D01*
X120374666Y-91308421D01*
X120289109Y-91383453D01*
X120226392Y-91438455D01*
X120222817Y-91442990D01*
X120222816Y-91442991D01*
X120209581Y-91459779D01*
X120100720Y-91597869D01*
X120098031Y-91602980D01*
X120098029Y-91602983D01*
X120081117Y-91635128D01*
X120006203Y-91777515D01*
X119946007Y-91971378D01*
X119922148Y-92172964D01*
X113919500Y-92172964D01*
X113919500Y-77808599D01*
X113939502Y-77740478D01*
X113993158Y-77693985D01*
X114063432Y-77683881D01*
X114130299Y-77715405D01*
X114172076Y-77753419D01*
X114311293Y-77829008D01*
X114464522Y-77869207D01*
X114548477Y-77870526D01*
X114615319Y-77871576D01*
X114615322Y-77871576D01*
X114622916Y-77871695D01*
X114777332Y-77836329D01*
X114879980Y-77784703D01*
X114912072Y-77768563D01*
X114912075Y-77768561D01*
X114918855Y-77765151D01*
X114924626Y-77760222D01*
X114924629Y-77760220D01*
X115033537Y-77667203D01*
X115039314Y-77662269D01*
X115040855Y-77660125D01*
X115099875Y-77624610D01*
X115131793Y-77620500D01*
X117285066Y-77620500D01*
X117294498Y-77617435D01*
X117294500Y-77617435D01*
X117306287Y-77613605D01*
X117325513Y-77608989D01*
X117337762Y-77607049D01*
X117347555Y-77605498D01*
X117367439Y-77595366D01*
X117385705Y-77587801D01*
X117397496Y-77583970D01*
X117406929Y-77580905D01*
X117424989Y-77567784D01*
X117441846Y-77557454D01*
X117442859Y-77556938D01*
X117461723Y-77547326D01*
X117484511Y-77524538D01*
X117484515Y-77524535D01*
X118326645Y-76682405D01*
X118388957Y-76648379D01*
X118415740Y-76645500D01*
X120428513Y-76645500D01*
X120496634Y-76665502D01*
X120543127Y-76719158D01*
X120553231Y-76789432D01*
X120523737Y-76854012D01*
X120486303Y-76883466D01*
X120406414Y-76924700D01*
X120287039Y-77028838D01*
X120195950Y-77158444D01*
X120193190Y-77165524D01*
X120146139Y-77286204D01*
X120138406Y-77306037D01*
X120137414Y-77313570D01*
X120137414Y-77313571D01*
X120118752Y-77455329D01*
X120117729Y-77463096D01*
X120124513Y-77524542D01*
X120134008Y-77610540D01*
X120135113Y-77620553D01*
X120137723Y-77627684D01*
X120137723Y-77627686D01*
X120181865Y-77748309D01*
X120189553Y-77769319D01*
X120193789Y-77775622D01*
X120193789Y-77775623D01*
X120270100Y-77889185D01*
X120277908Y-77900805D01*
X120283527Y-77905918D01*
X120283528Y-77905919D01*
X120300632Y-77921482D01*
X120395076Y-78007419D01*
X120516050Y-78073103D01*
X120566371Y-78123185D01*
X120581627Y-78192523D01*
X120556975Y-78259102D01*
X120545024Y-78272926D01*
X115896465Y-82921485D01*
X115896452Y-82921499D01*
X115873674Y-82944277D01*
X115869171Y-82953115D01*
X115863546Y-82964154D01*
X115853216Y-82981011D01*
X115840095Y-82999071D01*
X115837030Y-83008504D01*
X115833199Y-83020295D01*
X115825634Y-83038561D01*
X115815502Y-83058445D01*
X115813951Y-83068238D01*
X115812011Y-83080487D01*
X115807395Y-83099713D01*
X115800500Y-83120934D01*
X115800500Y-84262996D01*
X115780498Y-84331117D01*
X115757330Y-84357945D01*
X115715039Y-84394838D01*
X115623950Y-84524444D01*
X115566406Y-84672037D01*
X115545729Y-84829096D01*
X115551170Y-84878380D01*
X115562175Y-84978055D01*
X115563113Y-84986553D01*
X115565723Y-84993684D01*
X115565723Y-84993686D01*
X115585050Y-85046498D01*
X115617553Y-85135319D01*
X115621789Y-85141622D01*
X115621789Y-85141623D01*
X115697164Y-85253792D01*
X115705908Y-85266805D01*
X115711527Y-85271918D01*
X115711528Y-85271919D01*
X115723217Y-85282555D01*
X115823076Y-85373419D01*
X115962293Y-85449008D01*
X116115522Y-85489207D01*
X116199477Y-85490526D01*
X116266319Y-85491576D01*
X116266322Y-85491576D01*
X116273916Y-85491695D01*
X116428332Y-85456329D01*
X116509590Y-85415461D01*
X116563072Y-85388563D01*
X116563075Y-85388561D01*
X116569855Y-85385151D01*
X116575626Y-85380222D01*
X116575629Y-85380220D01*
X116684536Y-85287204D01*
X116684536Y-85287203D01*
X116690314Y-85282269D01*
X116782755Y-85153624D01*
X116841842Y-85006641D01*
X116858694Y-84888229D01*
X116863581Y-84853891D01*
X116863581Y-84853888D01*
X116864162Y-84849807D01*
X116864307Y-84836000D01*
X116863479Y-84829153D01*
X116846188Y-84686273D01*
X116845276Y-84678733D01*
X116789280Y-84530546D01*
X116699553Y-84399992D01*
X116651681Y-84357339D01*
X116614126Y-84297090D01*
X116609500Y-84263263D01*
X116609500Y-83404740D01*
X116629502Y-83336619D01*
X116646405Y-83315645D01*
X120284405Y-79677645D01*
X120346717Y-79643619D01*
X120417532Y-79648684D01*
X120474368Y-79691231D01*
X120499179Y-79757751D01*
X120499500Y-79766740D01*
X120499500Y-83250859D01*
X120479498Y-83318980D01*
X120425842Y-83365473D01*
X120387108Y-83376122D01*
X120357403Y-83379349D01*
X120357402Y-83379349D01*
X120349552Y-83380202D01*
X120342159Y-83382974D01*
X120342157Y-83382974D01*
X120331386Y-83387012D01*
X120214236Y-83430929D01*
X120207057Y-83436309D01*
X120207054Y-83436311D01*
X120155138Y-83475220D01*
X120098596Y-83517596D01*
X120093215Y-83524776D01*
X120017311Y-83626054D01*
X120017309Y-83626057D01*
X120011929Y-83633236D01*
X119961202Y-83768552D01*
X119960349Y-83776402D01*
X119960349Y-83776403D01*
X119958365Y-83794666D01*
X119954500Y-83830244D01*
X119954500Y-84825756D01*
X119961202Y-84887448D01*
X119963974Y-84894841D01*
X119963974Y-84894843D01*
X119978296Y-84933046D01*
X120011929Y-85022764D01*
X120017309Y-85029943D01*
X120017311Y-85029946D01*
X120044707Y-85066500D01*
X120098596Y-85138404D01*
X120105776Y-85143785D01*
X120207054Y-85219689D01*
X120207057Y-85219691D01*
X120214236Y-85225071D01*
X120282653Y-85250719D01*
X120342157Y-85273026D01*
X120342159Y-85273026D01*
X120349552Y-85275798D01*
X120357402Y-85276651D01*
X120357403Y-85276651D01*
X120387108Y-85279878D01*
X120452670Y-85307120D01*
X120493096Y-85365483D01*
X120499500Y-85405141D01*
X120499500Y-85409859D01*
X120479498Y-85477980D01*
X120425842Y-85524473D01*
X120387108Y-85535122D01*
X120357403Y-85538349D01*
X120357402Y-85538349D01*
X120349552Y-85539202D01*
X120342159Y-85541974D01*
X120342157Y-85541974D01*
X120309499Y-85554217D01*
X120214236Y-85589929D01*
X120207057Y-85595309D01*
X120207054Y-85595311D01*
X120134622Y-85649596D01*
X120098596Y-85676596D01*
X120093215Y-85683776D01*
X120017311Y-85785054D01*
X120017309Y-85785057D01*
X120011929Y-85792236D01*
X119982923Y-85869610D01*
X119968381Y-85908403D01*
X119961202Y-85927552D01*
X119960349Y-85935402D01*
X119960349Y-85935403D01*
X119954869Y-85985847D01*
X119954500Y-85989244D01*
X119954500Y-86984756D01*
X119961202Y-87046448D01*
X119963974Y-87053841D01*
X119963974Y-87053843D01*
X119972200Y-87075785D01*
X120011929Y-87181764D01*
X120017309Y-87188943D01*
X120017311Y-87188946D01*
X120058019Y-87243262D01*
X120098596Y-87297404D01*
X120105776Y-87302785D01*
X120207054Y-87378689D01*
X120207057Y-87378691D01*
X120214236Y-87384071D01*
X120303954Y-87417704D01*
X120342157Y-87432026D01*
X120342159Y-87432026D01*
X120349552Y-87434798D01*
X120357402Y-87435651D01*
X120357403Y-87435651D01*
X120407847Y-87441131D01*
X120411244Y-87441500D01*
X121206756Y-87441500D01*
X121210153Y-87441131D01*
X121260597Y-87435651D01*
X121260598Y-87435651D01*
X121268448Y-87434798D01*
X121275841Y-87432026D01*
X121275843Y-87432026D01*
X121314046Y-87417704D01*
X121403764Y-87384071D01*
X121410943Y-87378691D01*
X121410946Y-87378689D01*
X121512224Y-87302785D01*
X121519404Y-87297404D01*
X121559981Y-87243262D01*
X121600689Y-87188946D01*
X121600691Y-87188943D01*
X121606071Y-87181764D01*
X121645800Y-87075785D01*
X121654026Y-87053843D01*
X121654026Y-87053841D01*
X121656798Y-87046448D01*
X121663500Y-86984756D01*
X121663500Y-85989244D01*
X121663131Y-85985847D01*
X121657651Y-85935403D01*
X121657651Y-85935402D01*
X121656798Y-85927552D01*
X121649620Y-85908403D01*
X121635077Y-85869610D01*
X121606071Y-85792236D01*
X121600691Y-85785057D01*
X121600689Y-85785054D01*
X121524785Y-85683776D01*
X121519404Y-85676596D01*
X121483378Y-85649596D01*
X121410946Y-85595311D01*
X121410943Y-85595309D01*
X121403764Y-85589929D01*
X121390272Y-85584871D01*
X121333507Y-85542231D01*
X121308806Y-85475670D01*
X121308500Y-85466889D01*
X121308500Y-85348111D01*
X121328502Y-85279990D01*
X121382158Y-85233497D01*
X121390262Y-85230132D01*
X121403764Y-85225071D01*
X121410943Y-85219691D01*
X121410946Y-85219689D01*
X121512224Y-85143785D01*
X121519404Y-85138404D01*
X121573293Y-85066500D01*
X121600689Y-85029946D01*
X121600691Y-85029943D01*
X121606071Y-85022764D01*
X121639704Y-84933046D01*
X121654026Y-84894843D01*
X121654026Y-84894841D01*
X121656798Y-84887448D01*
X121663500Y-84825756D01*
X121663500Y-83830244D01*
X121659635Y-83794666D01*
X121657651Y-83776403D01*
X121657651Y-83776402D01*
X121656798Y-83768552D01*
X121606071Y-83633236D01*
X121600691Y-83626057D01*
X121600689Y-83626054D01*
X121524785Y-83524776D01*
X121519404Y-83517596D01*
X121462862Y-83475220D01*
X121410946Y-83436311D01*
X121410943Y-83436309D01*
X121403764Y-83430929D01*
X121390272Y-83425871D01*
X121333507Y-83383231D01*
X121308806Y-83316670D01*
X121308500Y-83307889D01*
X121308500Y-79594740D01*
X121328502Y-79526619D01*
X121345405Y-79505645D01*
X121568645Y-79282405D01*
X121630957Y-79248379D01*
X121657740Y-79245500D01*
X121788500Y-79245500D01*
X121856621Y-79265502D01*
X121903114Y-79319158D01*
X121914500Y-79371500D01*
X121914500Y-79651968D01*
X121925481Y-79726561D01*
X121939936Y-79756003D01*
X121942153Y-79760518D01*
X121954221Y-79830482D01*
X121942251Y-79871379D01*
X121925288Y-79906082D01*
X121914500Y-79980032D01*
X121914500Y-80301968D01*
X121925481Y-80376561D01*
X121981162Y-80489970D01*
X122070576Y-80579229D01*
X122079932Y-80583802D01*
X122079933Y-80583803D01*
X122103871Y-80595504D01*
X122184082Y-80634712D01*
X122193761Y-80636124D01*
X122253505Y-80644840D01*
X122253511Y-80644840D01*
X122258032Y-80645500D01*
X123979968Y-80645500D01*
X124011745Y-80640822D01*
X124044870Y-80635946D01*
X124044872Y-80635945D01*
X124054561Y-80634519D01*
X124121817Y-80601498D01*
X124158622Y-80583428D01*
X124158624Y-80583427D01*
X124167970Y-80578838D01*
X124175327Y-80571468D01*
X124178706Y-80569049D01*
X124252053Y-80545500D01*
X125663066Y-80545500D01*
X125672498Y-80542435D01*
X125672500Y-80542435D01*
X125684287Y-80538605D01*
X125703513Y-80533989D01*
X125715762Y-80532049D01*
X125725555Y-80530498D01*
X125745439Y-80520366D01*
X125763705Y-80512801D01*
X125775496Y-80508970D01*
X125784929Y-80505905D01*
X125802989Y-80492784D01*
X125819846Y-80482454D01*
X125822592Y-80481055D01*
X125839723Y-80472326D01*
X125862511Y-80449538D01*
X125862515Y-80449535D01*
X127435535Y-78876515D01*
X127435538Y-78876511D01*
X127458326Y-78853723D01*
X127468457Y-78833840D01*
X127478787Y-78816983D01*
X127486076Y-78806950D01*
X127491904Y-78798929D01*
X127496572Y-78784563D01*
X127498801Y-78777704D01*
X127506367Y-78759437D01*
X127511996Y-78748390D01*
X127516498Y-78739555D01*
X127519990Y-78717507D01*
X127524606Y-78698282D01*
X127528433Y-78686502D01*
X127531499Y-78677066D01*
X127531499Y-78644840D01*
X127531500Y-78644834D01*
X127531500Y-75180456D01*
X127551502Y-75112335D01*
X127605158Y-75065842D01*
X127675432Y-75055738D01*
X127740012Y-75085232D01*
X127775826Y-75137155D01*
X127793884Y-75186500D01*
X127809553Y-75229319D01*
X127813789Y-75235622D01*
X127813789Y-75235623D01*
X127829845Y-75259516D01*
X127897908Y-75360805D01*
X127903527Y-75365918D01*
X127903528Y-75365919D01*
X128005488Y-75458695D01*
X128015076Y-75467419D01*
X128036684Y-75479151D01*
X128073348Y-75499058D01*
X128123669Y-75549141D01*
X128138925Y-75618479D01*
X128114272Y-75685058D01*
X128096054Y-75704738D01*
X128039765Y-75753842D01*
X128039761Y-75753846D01*
X128034039Y-75758838D01*
X127942950Y-75888444D01*
X127925791Y-75932454D01*
X127897336Y-76005439D01*
X127885406Y-76036037D01*
X127884414Y-76043570D01*
X127884414Y-76043571D01*
X127865730Y-76185496D01*
X127864729Y-76193096D01*
X127868035Y-76223039D01*
X127875395Y-76289700D01*
X127882113Y-76350553D01*
X127884723Y-76357684D01*
X127884723Y-76357686D01*
X127930073Y-76481610D01*
X127936553Y-76499319D01*
X127940789Y-76505622D01*
X127940789Y-76505623D01*
X128020204Y-76623804D01*
X128024908Y-76630805D01*
X128030527Y-76635918D01*
X128030528Y-76635919D01*
X128085580Y-76686012D01*
X128142076Y-76737419D01*
X128148749Y-76741042D01*
X128235212Y-76787988D01*
X128285534Y-76838071D01*
X128300790Y-76907409D01*
X128276137Y-76973988D01*
X128232879Y-77010685D01*
X128187723Y-77033992D01*
X128153414Y-77051700D01*
X128034039Y-77155838D01*
X127942950Y-77285444D01*
X127937682Y-77298957D01*
X127903136Y-77387563D01*
X127885406Y-77433037D01*
X127884414Y-77440570D01*
X127884414Y-77440571D01*
X127866264Y-77578438D01*
X127864729Y-77590096D01*
X127868035Y-77620039D01*
X127878564Y-77715405D01*
X127882113Y-77747553D01*
X127884723Y-77754684D01*
X127884723Y-77754686D01*
X127926632Y-77869207D01*
X127936553Y-77896319D01*
X127940789Y-77902622D01*
X127940789Y-77902623D01*
X127952660Y-77920288D01*
X128024908Y-78027805D01*
X128030527Y-78032918D01*
X128030528Y-78032919D01*
X128129730Y-78123185D01*
X128142076Y-78134419D01*
X128281293Y-78210008D01*
X128434522Y-78250207D01*
X128492613Y-78251119D01*
X128556852Y-78252129D01*
X128624651Y-78273198D01*
X128643968Y-78289018D01*
X128854485Y-78499535D01*
X128854489Y-78499538D01*
X128877277Y-78522326D01*
X128876398Y-78523205D01*
X128913728Y-78571613D01*
X128920994Y-78635518D01*
X128915165Y-78675476D01*
X128914500Y-78680032D01*
X128914500Y-79001968D01*
X128915171Y-79006524D01*
X128924000Y-79066498D01*
X128925481Y-79076561D01*
X128929798Y-79085353D01*
X128942153Y-79110518D01*
X128954221Y-79180482D01*
X128942251Y-79221379D01*
X128925288Y-79256082D01*
X128914500Y-79330032D01*
X128914500Y-79610500D01*
X128894498Y-79678621D01*
X128840842Y-79725114D01*
X128788500Y-79736500D01*
X127185934Y-79736500D01*
X127176502Y-79739565D01*
X127176500Y-79739565D01*
X127164713Y-79743395D01*
X127145487Y-79748011D01*
X127123445Y-79751502D01*
X127111181Y-79757751D01*
X127103562Y-79761633D01*
X127085296Y-79769199D01*
X127064071Y-79776095D01*
X127046013Y-79789216D01*
X127029162Y-79799542D01*
X127009277Y-79809674D01*
X126986486Y-79832465D01*
X126310465Y-80508485D01*
X126310462Y-80508489D01*
X126287674Y-80531277D01*
X126277546Y-80551154D01*
X126267216Y-80568011D01*
X126254095Y-80586071D01*
X126251030Y-80595504D01*
X126247199Y-80607295D01*
X126239634Y-80625561D01*
X126229502Y-80645445D01*
X126227951Y-80655238D01*
X126226011Y-80667487D01*
X126221395Y-80686713D01*
X126214500Y-80707934D01*
X126214500Y-81087996D01*
X126194498Y-81156117D01*
X126171330Y-81182945D01*
X126129039Y-81219838D01*
X126037950Y-81349444D01*
X126035190Y-81356524D01*
X125990063Y-81472269D01*
X125980406Y-81497037D01*
X125979414Y-81504570D01*
X125979414Y-81504571D01*
X125960723Y-81646549D01*
X125959729Y-81654096D01*
X125977113Y-81811553D01*
X125979723Y-81818684D01*
X125979723Y-81818686D01*
X126023062Y-81937115D01*
X126031553Y-81960319D01*
X126035789Y-81966622D01*
X126035789Y-81966623D01*
X126110074Y-82077170D01*
X126119908Y-82091805D01*
X126125527Y-82096918D01*
X126125528Y-82096919D01*
X126151606Y-82120648D01*
X126237076Y-82198419D01*
X126376293Y-82274008D01*
X126529522Y-82314207D01*
X126613477Y-82315526D01*
X126680319Y-82316576D01*
X126680322Y-82316576D01*
X126687916Y-82316695D01*
X126842332Y-82281329D01*
X126932726Y-82235866D01*
X126977072Y-82213563D01*
X126977075Y-82213561D01*
X126983855Y-82210151D01*
X126989626Y-82205222D01*
X126989629Y-82205220D01*
X127098536Y-82112204D01*
X127098536Y-82112203D01*
X127104314Y-82107269D01*
X127196755Y-81978624D01*
X127255842Y-81831641D01*
X127272917Y-81711661D01*
X127277581Y-81678891D01*
X127277581Y-81678888D01*
X127278162Y-81674807D01*
X127278307Y-81661000D01*
X127277533Y-81654599D01*
X127272861Y-81615999D01*
X127259276Y-81503733D01*
X127203280Y-81355546D01*
X127113553Y-81224992D01*
X127065681Y-81182339D01*
X127028126Y-81122090D01*
X127023500Y-81088263D01*
X127023500Y-80991741D01*
X127043502Y-80923620D01*
X127060404Y-80902646D01*
X127380644Y-80582405D01*
X127442957Y-80548380D01*
X127469740Y-80545500D01*
X128985901Y-80545500D01*
X129059069Y-80568921D01*
X129063205Y-80571871D01*
X129070576Y-80579229D01*
X129079932Y-80583802D01*
X129079933Y-80583803D01*
X129103871Y-80595504D01*
X129184082Y-80634712D01*
X129193761Y-80636124D01*
X129253505Y-80644840D01*
X129253511Y-80644840D01*
X129258032Y-80645500D01*
X130452467Y-80645500D01*
X130520588Y-80665502D01*
X130567081Y-80719158D01*
X130577185Y-80789432D01*
X130569860Y-80817269D01*
X130552406Y-80862037D01*
X130551414Y-80869570D01*
X130551414Y-80869571D01*
X130544299Y-80923620D01*
X130531729Y-81019096D01*
X130532563Y-81026646D01*
X130546857Y-81156117D01*
X130549113Y-81176553D01*
X130551723Y-81183684D01*
X130551723Y-81183686D01*
X130564991Y-81219941D01*
X130603553Y-81325319D01*
X130607790Y-81331624D01*
X130614240Y-81341223D01*
X130635633Y-81408920D01*
X130617030Y-81477436D01*
X130564337Y-81525018D01*
X130509659Y-81537500D01*
X128848624Y-81537500D01*
X128836619Y-81536159D01*
X128836579Y-81536655D01*
X128827632Y-81535935D01*
X128818876Y-81533954D01*
X128775338Y-81536655D01*
X128765618Y-81537258D01*
X128757816Y-81537500D01*
X128741774Y-81537500D01*
X128737343Y-81538135D01*
X128737338Y-81538135D01*
X128733313Y-81538712D01*
X128731543Y-81538965D01*
X128721486Y-81539996D01*
X128699024Y-81541389D01*
X128683600Y-81542346D01*
X128683598Y-81542346D01*
X128674641Y-81542902D01*
X128666201Y-81545949D01*
X128662911Y-81546630D01*
X128647062Y-81550582D01*
X128643832Y-81551527D01*
X128634948Y-81552799D01*
X128592222Y-81572225D01*
X128582860Y-81576036D01*
X128547158Y-81588925D01*
X128547157Y-81588926D01*
X128538716Y-81591973D01*
X128531467Y-81597269D01*
X128528486Y-81598854D01*
X128514408Y-81607080D01*
X128511569Y-81608896D01*
X128503395Y-81612612D01*
X128496591Y-81618475D01*
X128467848Y-81643242D01*
X128459930Y-81649530D01*
X128449056Y-81657473D01*
X128438194Y-81668335D01*
X128431348Y-81674693D01*
X128393918Y-81706944D01*
X128389034Y-81714479D01*
X128383301Y-81721051D01*
X128374074Y-81732455D01*
X128156206Y-81950323D01*
X128146766Y-81957865D01*
X128147089Y-81958245D01*
X128140253Y-81964063D01*
X128132661Y-81968853D01*
X128126719Y-81975581D01*
X128097329Y-82008859D01*
X128091983Y-82014546D01*
X128080649Y-82025880D01*
X128077964Y-82029463D01*
X128077962Y-82029465D01*
X128074447Y-82034155D01*
X128068062Y-82041998D01*
X128036999Y-82077170D01*
X128033186Y-82085292D01*
X128031346Y-82088093D01*
X128022937Y-82102088D01*
X128021315Y-82105051D01*
X128015930Y-82112236D01*
X128012777Y-82120646D01*
X128012776Y-82120648D01*
X127999454Y-82156182D01*
X127995530Y-82165495D01*
X127975583Y-82207982D01*
X127974201Y-82216856D01*
X127973215Y-82220083D01*
X127969075Y-82235866D01*
X127968354Y-82239144D01*
X127965202Y-82247552D01*
X127964537Y-82256503D01*
X127961724Y-82294357D01*
X127960570Y-82304404D01*
X127958500Y-82317697D01*
X127958500Y-82333062D01*
X127958154Y-82342399D01*
X127954493Y-82391667D01*
X127956366Y-82400442D01*
X127956959Y-82409138D01*
X127958500Y-82423738D01*
X127958500Y-83601007D01*
X127944767Y-83658210D01*
X127923502Y-83699945D01*
X127908500Y-83794666D01*
X127908500Y-84883334D01*
X127923502Y-84978055D01*
X127981674Y-85092223D01*
X128072277Y-85182826D01*
X128186445Y-85240998D01*
X128196236Y-85242549D01*
X128196237Y-85242549D01*
X128211560Y-85244976D01*
X128267230Y-85253793D01*
X128331381Y-85284204D01*
X128368908Y-85344472D01*
X128367895Y-85415461D01*
X128336613Y-85467336D01*
X128154479Y-85649470D01*
X128154452Y-85649499D01*
X128131674Y-85672277D01*
X128127171Y-85681115D01*
X128121546Y-85692154D01*
X128111216Y-85709011D01*
X128098095Y-85727071D01*
X128095030Y-85736505D01*
X128092749Y-85740981D01*
X128069576Y-85772875D01*
X127981674Y-85860777D01*
X127923502Y-85974945D01*
X127908500Y-86069666D01*
X127908500Y-87158334D01*
X127923502Y-87253055D01*
X127977939Y-87359892D01*
X127981674Y-87367223D01*
X127980727Y-87367706D01*
X128001482Y-87425877D01*
X127985402Y-87495029D01*
X127964783Y-87522166D01*
X127832354Y-87654595D01*
X127770042Y-87688621D01*
X127743259Y-87691500D01*
X127015244Y-87691500D01*
X127011848Y-87691869D01*
X127011847Y-87691869D01*
X126961403Y-87697349D01*
X126961402Y-87697349D01*
X126953552Y-87698202D01*
X126946159Y-87700974D01*
X126946157Y-87700974D01*
X126908500Y-87715091D01*
X126818236Y-87748929D01*
X126811057Y-87754309D01*
X126811054Y-87754311D01*
X126723023Y-87820287D01*
X126702596Y-87835596D01*
X126697215Y-87842776D01*
X126621311Y-87944054D01*
X126621309Y-87944057D01*
X126615929Y-87951236D01*
X126612779Y-87959640D01*
X126570015Y-88073714D01*
X126565202Y-88086552D01*
X126564349Y-88094402D01*
X126564349Y-88094403D01*
X126562178Y-88114390D01*
X126558500Y-88148244D01*
X126558500Y-89143756D01*
X126565202Y-89205448D01*
X126615929Y-89340764D01*
X126621309Y-89347943D01*
X126621311Y-89347946D01*
X126685959Y-89434205D01*
X126702596Y-89456404D01*
X126709776Y-89461785D01*
X126811054Y-89537689D01*
X126811057Y-89537691D01*
X126818236Y-89543071D01*
X126907954Y-89576704D01*
X126946157Y-89591026D01*
X126946159Y-89591026D01*
X126953552Y-89593798D01*
X126961402Y-89594651D01*
X126961403Y-89594651D01*
X127011847Y-89600131D01*
X127015244Y-89600500D01*
X127810756Y-89600500D01*
X127814153Y-89600131D01*
X127864597Y-89594651D01*
X127864598Y-89594651D01*
X127872448Y-89593798D01*
X127879841Y-89591026D01*
X127879843Y-89591026D01*
X127918046Y-89576704D01*
X128007764Y-89543071D01*
X128014943Y-89537691D01*
X128014946Y-89537689D01*
X128116224Y-89461785D01*
X128123404Y-89456404D01*
X128140041Y-89434205D01*
X128204689Y-89347946D01*
X128204691Y-89347943D01*
X128210071Y-89340764D01*
X128260798Y-89205448D01*
X128267500Y-89143756D01*
X128267500Y-88415739D01*
X128287502Y-88347619D01*
X128304405Y-88326645D01*
X128343405Y-88287645D01*
X128405717Y-88253619D01*
X128476532Y-88258684D01*
X128533368Y-88301231D01*
X128558179Y-88367751D01*
X128558500Y-88376740D01*
X128558500Y-89143756D01*
X128565202Y-89205448D01*
X128615929Y-89340764D01*
X128621309Y-89347943D01*
X128621311Y-89347946D01*
X128685959Y-89434205D01*
X128702596Y-89456404D01*
X128709776Y-89461785D01*
X128811054Y-89537689D01*
X128811057Y-89537691D01*
X128818236Y-89543071D01*
X128907954Y-89576704D01*
X128946157Y-89591026D01*
X128946159Y-89591026D01*
X128953552Y-89593798D01*
X128961402Y-89594651D01*
X128961403Y-89594651D01*
X129011847Y-89600131D01*
X129015244Y-89600500D01*
X129036500Y-89600500D01*
X129104621Y-89620502D01*
X129151114Y-89674158D01*
X129162500Y-89726500D01*
X129162500Y-91071500D01*
X129142498Y-91139621D01*
X129088842Y-91186114D01*
X129036500Y-91197500D01*
X124058266Y-91197500D01*
X124011576Y-91188530D01*
X123891411Y-91140589D01*
X123891409Y-91140588D01*
X123886039Y-91138446D01*
X123880371Y-91137319D01*
X123880369Y-91137318D01*
X123692613Y-91099971D01*
X123692610Y-91099971D01*
X123686946Y-91098844D01*
X123681171Y-91098768D01*
X123681167Y-91098768D01*
X123579793Y-91097441D01*
X123483971Y-91096187D01*
X123478274Y-91097166D01*
X123478273Y-91097166D01*
X123468950Y-91098768D01*
X123461950Y-91099971D01*
X123460838Y-91100162D01*
X123390314Y-91091985D01*
X123335406Y-91046978D01*
X123313500Y-90975982D01*
X123313500Y-87505237D01*
X123333502Y-87437116D01*
X123387158Y-87390623D01*
X123395269Y-87387256D01*
X123395358Y-87387223D01*
X123395362Y-87387221D01*
X123403764Y-87384071D01*
X123410943Y-87378691D01*
X123410946Y-87378689D01*
X123512224Y-87302785D01*
X123519404Y-87297404D01*
X123559981Y-87243262D01*
X123600689Y-87188946D01*
X123600691Y-87188943D01*
X123606071Y-87181764D01*
X123645800Y-87075785D01*
X123654026Y-87053843D01*
X123654026Y-87053841D01*
X123656798Y-87046448D01*
X123663500Y-86984756D01*
X123663500Y-85989244D01*
X123663131Y-85985847D01*
X123657651Y-85935403D01*
X123657651Y-85935402D01*
X123656798Y-85927552D01*
X123649620Y-85908403D01*
X123635077Y-85869610D01*
X123606071Y-85792236D01*
X123600691Y-85785057D01*
X123600689Y-85785054D01*
X123524785Y-85683776D01*
X123519404Y-85676596D01*
X123483378Y-85649596D01*
X123410946Y-85595311D01*
X123410943Y-85595309D01*
X123403764Y-85589929D01*
X123308501Y-85554217D01*
X123275843Y-85541974D01*
X123275841Y-85541974D01*
X123268448Y-85539202D01*
X123260598Y-85538349D01*
X123260597Y-85538349D01*
X123210153Y-85532869D01*
X123210152Y-85532869D01*
X123206756Y-85532500D01*
X122411244Y-85532500D01*
X122407848Y-85532869D01*
X122407847Y-85532869D01*
X122357403Y-85538349D01*
X122357402Y-85538349D01*
X122349552Y-85539202D01*
X122342159Y-85541974D01*
X122342157Y-85541974D01*
X122309499Y-85554217D01*
X122214236Y-85589929D01*
X122207057Y-85595309D01*
X122207054Y-85595311D01*
X122134622Y-85649596D01*
X122098596Y-85676596D01*
X122093215Y-85683776D01*
X122017311Y-85785054D01*
X122017309Y-85785057D01*
X122011929Y-85792236D01*
X121982923Y-85869610D01*
X121968381Y-85908403D01*
X121961202Y-85927552D01*
X121960349Y-85935402D01*
X121960349Y-85935403D01*
X121954869Y-85985847D01*
X121954500Y-85989244D01*
X121954500Y-86984756D01*
X121961202Y-87046448D01*
X121963974Y-87053841D01*
X121963974Y-87053843D01*
X121972200Y-87075785D01*
X122011929Y-87181764D01*
X122017309Y-87188943D01*
X122017311Y-87188946D01*
X122058019Y-87243262D01*
X122098596Y-87297404D01*
X122105776Y-87302785D01*
X122207054Y-87378689D01*
X122207057Y-87378691D01*
X122214236Y-87384071D01*
X122222638Y-87387221D01*
X122222642Y-87387223D01*
X122222731Y-87387256D01*
X122222806Y-87387313D01*
X122230515Y-87391533D01*
X122229906Y-87392646D01*
X122279495Y-87429898D01*
X122304194Y-87496460D01*
X122304500Y-87505237D01*
X122304500Y-91369376D01*
X122303159Y-91381381D01*
X122303655Y-91381421D01*
X122302935Y-91390368D01*
X122300954Y-91399124D01*
X122301510Y-91408084D01*
X122304258Y-91452382D01*
X122304500Y-91460184D01*
X122304500Y-91476226D01*
X122305135Y-91480657D01*
X122305135Y-91480662D01*
X122305965Y-91486453D01*
X122306996Y-91496514D01*
X122309902Y-91543359D01*
X122312949Y-91551799D01*
X122313630Y-91555089D01*
X122317582Y-91570938D01*
X122318527Y-91574168D01*
X122319799Y-91583052D01*
X122323514Y-91591223D01*
X122339218Y-91625763D01*
X122343030Y-91635128D01*
X122355922Y-91670837D01*
X122355924Y-91670840D01*
X122358972Y-91679284D01*
X122364268Y-91686533D01*
X122365840Y-91689490D01*
X122374093Y-91703614D01*
X122375898Y-91706437D01*
X122379612Y-91714605D01*
X122385469Y-91721402D01*
X122385470Y-91721404D01*
X122410243Y-91750153D01*
X122416525Y-91758064D01*
X122424473Y-91768944D01*
X122435335Y-91779806D01*
X122441693Y-91786653D01*
X122470841Y-91820481D01*
X122500155Y-91885144D01*
X122495721Y-91940092D01*
X122486007Y-91971378D01*
X122462148Y-92172964D01*
X122475424Y-92375522D01*
X122476845Y-92381118D01*
X122476846Y-92381123D01*
X122497119Y-92460945D01*
X122525392Y-92572269D01*
X122527809Y-92577512D01*
X122565010Y-92658208D01*
X122610377Y-92756616D01*
X122727533Y-92922389D01*
X122872938Y-93064035D01*
X123041720Y-93176812D01*
X123047023Y-93179090D01*
X123047026Y-93179092D01*
X123135707Y-93217192D01*
X123228228Y-93256942D01*
X123301244Y-93273464D01*
X123420579Y-93300467D01*
X123420584Y-93300468D01*
X123426216Y-93301742D01*
X123431987Y-93301969D01*
X123431989Y-93301969D01*
X123491756Y-93304317D01*
X123629053Y-93309712D01*
X123729499Y-93295148D01*
X123824231Y-93281413D01*
X123824236Y-93281412D01*
X123829945Y-93280584D01*
X123835409Y-93278729D01*
X123835414Y-93278728D01*
X124022165Y-93215334D01*
X124022418Y-93216080D01*
X124067488Y-93206500D01*
X129180899Y-93206500D01*
X129230636Y-93216732D01*
X129324228Y-93256942D01*
X129397244Y-93273464D01*
X129516579Y-93300467D01*
X129516584Y-93300468D01*
X129522216Y-93301742D01*
X129527987Y-93301969D01*
X129527989Y-93301969D01*
X129587756Y-93304317D01*
X129725053Y-93309712D01*
X129825499Y-93295148D01*
X129920231Y-93281413D01*
X129920236Y-93281412D01*
X129925945Y-93280584D01*
X129931409Y-93278729D01*
X129931414Y-93278728D01*
X130112693Y-93217192D01*
X130112698Y-93217190D01*
X130118165Y-93215334D01*
X130133940Y-93206500D01*
X130192683Y-93173602D01*
X130295276Y-93116147D01*
X130357934Y-93064035D01*
X130446913Y-92990031D01*
X130451345Y-92986345D01*
X130581147Y-92830276D01*
X130680334Y-92653165D01*
X130682190Y-92647698D01*
X130682192Y-92647693D01*
X130743728Y-92466414D01*
X130743729Y-92466409D01*
X130745584Y-92460945D01*
X130746412Y-92455236D01*
X130746413Y-92455231D01*
X130774179Y-92263727D01*
X130774712Y-92260053D01*
X130776232Y-92202000D01*
X130757658Y-91999859D01*
X130756090Y-91994299D01*
X130704125Y-91810046D01*
X130704124Y-91810044D01*
X130702557Y-91804487D01*
X130693763Y-91786653D01*
X130615331Y-91627609D01*
X130612776Y-91622428D01*
X130583373Y-91583052D01*
X130518758Y-91496523D01*
X130491320Y-91459779D01*
X130342258Y-91321987D01*
X130337375Y-91318906D01*
X130337371Y-91318903D01*
X130230265Y-91251325D01*
X130183326Y-91198058D01*
X130171500Y-91144763D01*
X130171500Y-89434205D01*
X130191502Y-89366084D01*
X130196673Y-89358641D01*
X130204689Y-89347945D01*
X130210071Y-89340764D01*
X130260798Y-89205448D01*
X130267500Y-89143756D01*
X130267500Y-88344740D01*
X130287502Y-88276619D01*
X130341158Y-88230126D01*
X130411432Y-88220022D01*
X130476012Y-88249516D01*
X130482595Y-88255645D01*
X130553595Y-88326645D01*
X130587621Y-88388957D01*
X130590500Y-88415739D01*
X130590500Y-89143756D01*
X130597202Y-89205448D01*
X130647929Y-89340764D01*
X130653309Y-89347943D01*
X130653311Y-89347946D01*
X130717959Y-89434205D01*
X130734596Y-89456404D01*
X130741776Y-89461785D01*
X130843054Y-89537689D01*
X130843057Y-89537691D01*
X130850236Y-89543071D01*
X130939954Y-89576704D01*
X130978157Y-89591026D01*
X130978159Y-89591026D01*
X130985552Y-89593798D01*
X130993402Y-89594651D01*
X130993403Y-89594651D01*
X131043847Y-89600131D01*
X131047244Y-89600500D01*
X131842756Y-89600500D01*
X131846153Y-89600131D01*
X131896597Y-89594651D01*
X131896598Y-89594651D01*
X131904448Y-89593798D01*
X131911841Y-89591026D01*
X131911843Y-89591026D01*
X131950046Y-89576704D01*
X132039764Y-89543071D01*
X132046943Y-89537691D01*
X132046946Y-89537689D01*
X132148224Y-89461785D01*
X132155404Y-89456404D01*
X132172041Y-89434205D01*
X132236689Y-89347946D01*
X132236691Y-89347943D01*
X132242071Y-89340764D01*
X132292798Y-89205448D01*
X132299500Y-89143756D01*
X132299500Y-88415739D01*
X132319502Y-88347619D01*
X132336405Y-88326645D01*
X132375405Y-88287645D01*
X132437717Y-88253619D01*
X132508532Y-88258684D01*
X132565368Y-88301231D01*
X132590179Y-88367751D01*
X132590500Y-88376740D01*
X132590500Y-89143756D01*
X132597202Y-89205448D01*
X132647929Y-89340764D01*
X132653309Y-89347943D01*
X132653311Y-89347946D01*
X132717959Y-89434205D01*
X132734596Y-89456404D01*
X132741776Y-89461785D01*
X132843054Y-89537689D01*
X132843057Y-89537691D01*
X132850236Y-89543071D01*
X132939954Y-89576704D01*
X132978157Y-89591026D01*
X132978159Y-89591026D01*
X132985552Y-89593798D01*
X132993402Y-89594651D01*
X132993403Y-89594651D01*
X133043847Y-89600131D01*
X133047244Y-89600500D01*
X133842756Y-89600500D01*
X133846153Y-89600131D01*
X133896597Y-89594651D01*
X133896598Y-89594651D01*
X133904448Y-89593798D01*
X133911841Y-89591026D01*
X133911843Y-89591026D01*
X133950046Y-89576704D01*
X134039764Y-89543071D01*
X134046943Y-89537691D01*
X134046946Y-89537689D01*
X134148224Y-89461785D01*
X134155404Y-89456404D01*
X134172041Y-89434205D01*
X134236689Y-89347946D01*
X134236691Y-89347943D01*
X134242071Y-89340764D01*
X134292798Y-89205448D01*
X134299500Y-89143756D01*
X134299500Y-88415739D01*
X134319502Y-88347618D01*
X134336405Y-88326644D01*
X134443326Y-88219723D01*
X134453459Y-88199836D01*
X134463791Y-88182977D01*
X134471073Y-88172955D01*
X134471074Y-88172953D01*
X134476904Y-88164929D01*
X134481215Y-88151661D01*
X134483801Y-88143704D01*
X134491367Y-88125437D01*
X134496996Y-88114390D01*
X134501498Y-88105555D01*
X134504990Y-88083507D01*
X134509606Y-88064282D01*
X134513433Y-88052502D01*
X134516499Y-88043066D01*
X134516499Y-88010840D01*
X134516500Y-88010834D01*
X134516500Y-82104934D01*
X134509605Y-82083713D01*
X134504989Y-82064487D01*
X134503049Y-82052238D01*
X134501498Y-82042445D01*
X134491366Y-82022561D01*
X134483801Y-82004295D01*
X134479970Y-81992504D01*
X134476905Y-81983071D01*
X134463784Y-81965011D01*
X134453454Y-81948154D01*
X134447829Y-81937115D01*
X134443326Y-81928277D01*
X134420538Y-81905489D01*
X134420535Y-81905485D01*
X133232515Y-80717465D01*
X133232511Y-80717462D01*
X133209723Y-80694674D01*
X133189844Y-80684545D01*
X133172989Y-80674216D01*
X133162953Y-80666925D01*
X133154929Y-80661095D01*
X133133704Y-80654199D01*
X133115438Y-80646633D01*
X133095555Y-80636502D01*
X133073513Y-80633011D01*
X133054287Y-80628395D01*
X133042500Y-80624565D01*
X133042498Y-80624565D01*
X133033066Y-80621500D01*
X131768906Y-80621500D01*
X131700785Y-80601498D01*
X131685087Y-80589577D01*
X131681152Y-80586071D01*
X131567275Y-80484611D01*
X131427274Y-80410484D01*
X131418807Y-80408357D01*
X131418090Y-80407936D01*
X131412813Y-80405910D01*
X131413151Y-80405031D01*
X131357611Y-80372365D01*
X131325589Y-80309000D01*
X131323500Y-80286153D01*
X131323500Y-80021500D01*
X131343502Y-79953379D01*
X131397158Y-79906886D01*
X131449500Y-79895500D01*
X135584066Y-79895500D01*
X135593498Y-79892435D01*
X135593500Y-79892435D01*
X135605287Y-79888605D01*
X135624513Y-79883989D01*
X135636762Y-79882049D01*
X135646555Y-79880498D01*
X135666439Y-79870366D01*
X135684705Y-79862801D01*
X135696496Y-79858970D01*
X135705929Y-79855905D01*
X135723989Y-79842784D01*
X135740846Y-79832454D01*
X135744716Y-79830482D01*
X135760723Y-79822326D01*
X135783511Y-79799538D01*
X135783515Y-79799535D01*
X136024987Y-79558063D01*
X136087299Y-79524037D01*
X136116060Y-79521174D01*
X136205318Y-79522576D01*
X136205321Y-79522576D01*
X136212916Y-79522695D01*
X136367332Y-79487329D01*
X136437742Y-79451917D01*
X136502072Y-79419563D01*
X136502075Y-79419561D01*
X136508855Y-79416151D01*
X136514626Y-79411222D01*
X136514629Y-79411220D01*
X136623536Y-79318204D01*
X136623536Y-79318203D01*
X136629314Y-79313269D01*
X136721755Y-79184624D01*
X136780842Y-79037641D01*
X136794046Y-78944862D01*
X136802581Y-78884891D01*
X136802581Y-78884888D01*
X136803162Y-78880807D01*
X136803307Y-78867000D01*
X136784276Y-78709733D01*
X136728280Y-78561546D01*
X136697028Y-78516074D01*
X136642855Y-78437251D01*
X136642854Y-78437249D01*
X136638553Y-78430992D01*
X136621995Y-78416239D01*
X136584186Y-78382553D01*
X136520275Y-78325611D01*
X136512889Y-78321700D01*
X136386988Y-78255039D01*
X136386989Y-78255039D01*
X136380274Y-78251484D01*
X136226633Y-78212892D01*
X136219034Y-78212852D01*
X136219033Y-78212852D01*
X136153181Y-78212507D01*
X136068221Y-78212062D01*
X136060841Y-78213834D01*
X136060839Y-78213834D01*
X135921563Y-78247271D01*
X135921560Y-78247272D01*
X135914184Y-78249043D01*
X135773414Y-78321700D01*
X135654039Y-78425838D01*
X135562950Y-78555444D01*
X135536656Y-78622884D01*
X135511853Y-78686502D01*
X135505406Y-78703037D01*
X135504414Y-78710570D01*
X135504414Y-78710571D01*
X135485752Y-78852329D01*
X135484729Y-78860096D01*
X135485563Y-78867647D01*
X135487448Y-78884724D01*
X135475042Y-78954628D01*
X135451304Y-78987646D01*
X135389355Y-79049595D01*
X135327043Y-79083621D01*
X135300260Y-79086500D01*
X132368683Y-79086500D01*
X132300562Y-79066498D01*
X132254069Y-79012842D01*
X132243965Y-78942568D01*
X132273459Y-78877988D01*
X132312069Y-78847935D01*
X132438071Y-78784563D01*
X132444855Y-78781151D01*
X132450626Y-78776222D01*
X132450629Y-78776220D01*
X132559536Y-78683204D01*
X132559536Y-78683203D01*
X132565314Y-78678269D01*
X132657755Y-78549624D01*
X132716842Y-78402641D01*
X132725083Y-78344737D01*
X132738581Y-78249891D01*
X132738581Y-78249888D01*
X132739162Y-78245807D01*
X132739307Y-78232000D01*
X132720276Y-78074733D01*
X132664280Y-77926546D01*
X132657748Y-77917042D01*
X132578855Y-77802251D01*
X132578854Y-77802249D01*
X132574553Y-77795992D01*
X132561883Y-77784703D01*
X132461946Y-77695664D01*
X132456275Y-77690611D01*
X132316274Y-77616484D01*
X132162633Y-77577892D01*
X132155034Y-77577852D01*
X132155033Y-77577852D01*
X132059292Y-77577351D01*
X132048878Y-77577296D01*
X131980863Y-77556938D01*
X131960443Y-77540393D01*
X131930645Y-77510595D01*
X131896619Y-77448283D01*
X131901684Y-77377468D01*
X131944231Y-77320632D01*
X132010751Y-77295821D01*
X132019740Y-77295500D01*
X136644796Y-77295500D01*
X136712917Y-77315502D01*
X136729595Y-77328306D01*
X136772455Y-77367305D01*
X136772459Y-77367308D01*
X136778076Y-77372419D01*
X136917293Y-77448008D01*
X137070522Y-77488207D01*
X137154477Y-77489526D01*
X137221319Y-77490576D01*
X137221322Y-77490576D01*
X137228916Y-77490695D01*
X137383332Y-77455329D01*
X137453742Y-77419917D01*
X137518072Y-77387563D01*
X137518075Y-77387561D01*
X137524855Y-77384151D01*
X137530626Y-77379222D01*
X137530629Y-77379220D01*
X137639536Y-77286204D01*
X137639536Y-77286203D01*
X137645314Y-77281269D01*
X137737755Y-77152624D01*
X137796842Y-77005641D01*
X137805890Y-76942062D01*
X137818581Y-76852891D01*
X137818581Y-76852888D01*
X137819162Y-76848807D01*
X137819307Y-76835000D01*
X137800276Y-76677733D01*
X137744280Y-76529546D01*
X137701665Y-76467540D01*
X137658855Y-76405251D01*
X137658854Y-76405249D01*
X137654553Y-76398992D01*
X137536275Y-76293611D01*
X137528889Y-76289700D01*
X137402988Y-76223039D01*
X137402989Y-76223039D01*
X137396274Y-76219484D01*
X137242633Y-76180892D01*
X137235034Y-76180852D01*
X137235033Y-76180852D01*
X137169181Y-76180507D01*
X137084221Y-76180062D01*
X137076841Y-76181834D01*
X137076839Y-76181834D01*
X136937563Y-76215271D01*
X136937560Y-76215272D01*
X136930184Y-76217043D01*
X136789414Y-76289700D01*
X136670039Y-76393838D01*
X136656683Y-76412842D01*
X136642550Y-76432951D01*
X136587016Y-76477182D01*
X136539463Y-76486500D01*
X131449500Y-76486500D01*
X131381379Y-76466498D01*
X131334886Y-76412842D01*
X131323500Y-76360500D01*
X131323500Y-76121500D01*
X131343502Y-76053379D01*
X131397158Y-76006886D01*
X131449500Y-75995500D01*
X136436066Y-75995500D01*
X136445498Y-75992435D01*
X136445500Y-75992435D01*
X136457287Y-75988605D01*
X136476513Y-75983989D01*
X136488762Y-75982049D01*
X136498555Y-75980498D01*
X136518439Y-75970366D01*
X136536705Y-75962801D01*
X136548496Y-75958970D01*
X136557929Y-75955905D01*
X136575989Y-75942784D01*
X136592846Y-75932454D01*
X136612723Y-75922326D01*
X136635511Y-75899538D01*
X136635515Y-75899535D01*
X137040987Y-75494063D01*
X137103299Y-75460037D01*
X137132060Y-75457174D01*
X137221318Y-75458576D01*
X137221321Y-75458576D01*
X137228916Y-75458695D01*
X137383332Y-75423329D01*
X137472036Y-75378716D01*
X137518072Y-75355563D01*
X137518075Y-75355561D01*
X137524855Y-75352151D01*
X137530626Y-75347222D01*
X137530629Y-75347220D01*
X137639536Y-75254204D01*
X137639536Y-75254203D01*
X137645314Y-75249269D01*
X137737755Y-75120624D01*
X137796842Y-74973641D01*
X137819162Y-74816807D01*
X137819307Y-74803000D01*
X137800276Y-74645733D01*
X137744280Y-74497546D01*
X137702778Y-74437160D01*
X137658855Y-74373251D01*
X137658854Y-74373249D01*
X137654553Y-74366992D01*
X137536275Y-74261611D01*
X137528889Y-74257700D01*
X137402988Y-74191039D01*
X137402989Y-74191039D01*
X137396274Y-74187484D01*
X137242633Y-74148892D01*
X137235034Y-74148852D01*
X137235033Y-74148852D01*
X137169181Y-74148507D01*
X137084221Y-74148062D01*
X137076841Y-74149834D01*
X137076839Y-74149834D01*
X136937563Y-74183271D01*
X136937560Y-74183272D01*
X136930184Y-74185043D01*
X136789414Y-74257700D01*
X136783695Y-74262689D01*
X136781496Y-74264607D01*
X136670039Y-74361838D01*
X136578950Y-74491444D01*
X136550178Y-74565241D01*
X136536089Y-74601378D01*
X136521406Y-74639037D01*
X136520414Y-74646570D01*
X136520414Y-74646571D01*
X136501839Y-74787665D01*
X136500729Y-74796096D01*
X136501563Y-74803647D01*
X136503448Y-74820724D01*
X136491042Y-74890628D01*
X136467304Y-74923646D01*
X136241355Y-75149595D01*
X136179043Y-75183621D01*
X136152260Y-75186500D01*
X131449500Y-75186500D01*
X131381379Y-75166498D01*
X131334886Y-75112842D01*
X131323500Y-75060500D01*
X131323500Y-74821500D01*
X131343502Y-74753379D01*
X131397158Y-74706886D01*
X131449500Y-74695500D01*
X132035364Y-74695500D01*
X132089620Y-74709380D01*
X132089736Y-74709071D01*
X132092579Y-74710137D01*
X132092581Y-74710137D01*
X132105899Y-74715130D01*
X132217657Y-74757026D01*
X132217659Y-74757026D01*
X132225052Y-74759798D01*
X132232902Y-74760651D01*
X132232903Y-74760651D01*
X132282482Y-74766037D01*
X132286744Y-74766500D01*
X133057256Y-74766500D01*
X133061518Y-74766037D01*
X133111097Y-74760651D01*
X133111098Y-74760651D01*
X133118948Y-74759798D01*
X133126341Y-74757026D01*
X133126343Y-74757026D01*
X133164546Y-74742704D01*
X133254264Y-74709071D01*
X133261443Y-74703691D01*
X133261446Y-74703689D01*
X133362724Y-74627785D01*
X133369904Y-74622404D01*
X133398182Y-74584673D01*
X133451189Y-74513946D01*
X133451191Y-74513943D01*
X133456571Y-74506764D01*
X133507298Y-74371448D01*
X133514000Y-74309756D01*
X133514000Y-73264244D01*
X133508882Y-73217131D01*
X133508151Y-73210403D01*
X133508151Y-73210402D01*
X133507298Y-73202552D01*
X133456571Y-73067236D01*
X133451191Y-73060057D01*
X133451189Y-73060054D01*
X133375285Y-72958776D01*
X133369904Y-72951596D01*
X133348195Y-72935326D01*
X133305680Y-72878467D01*
X133300654Y-72807648D01*
X133334714Y-72745355D01*
X133348195Y-72733674D01*
X133362724Y-72722785D01*
X133369904Y-72717404D01*
X133385213Y-72696977D01*
X133451189Y-72608946D01*
X133451191Y-72608943D01*
X133456571Y-72601764D01*
X133507298Y-72466448D01*
X133514000Y-72404756D01*
X133514000Y-71359244D01*
X133509517Y-71317974D01*
X133508151Y-71305403D01*
X133508151Y-71305402D01*
X133507298Y-71297552D01*
X133501289Y-71281521D01*
X133459721Y-71170640D01*
X133456571Y-71162236D01*
X133451191Y-71155057D01*
X133451189Y-71155054D01*
X133379558Y-71059477D01*
X133369904Y-71046596D01*
X133301979Y-70995689D01*
X133261446Y-70965311D01*
X133261443Y-70965309D01*
X133254264Y-70959929D01*
X133132825Y-70914404D01*
X133126343Y-70911974D01*
X133126341Y-70911974D01*
X133118948Y-70909202D01*
X133111098Y-70908349D01*
X133111097Y-70908349D01*
X133060653Y-70902869D01*
X133060652Y-70902869D01*
X133057256Y-70902500D01*
X132286744Y-70902500D01*
X132283348Y-70902869D01*
X132283347Y-70902869D01*
X132232903Y-70908349D01*
X132232902Y-70908349D01*
X132225052Y-70909202D01*
X132217659Y-70911974D01*
X132217657Y-70911974D01*
X132211175Y-70914404D01*
X132089736Y-70959929D01*
X132082557Y-70965309D01*
X132082554Y-70965311D01*
X132042021Y-70995689D01*
X131974096Y-71046596D01*
X131964442Y-71059477D01*
X131892811Y-71155054D01*
X131892809Y-71155057D01*
X131887429Y-71162236D01*
X131884279Y-71170640D01*
X131842712Y-71281521D01*
X131836702Y-71297552D01*
X131835849Y-71305402D01*
X131835849Y-71305403D01*
X131834483Y-71317974D01*
X131830000Y-71359244D01*
X131830000Y-72404756D01*
X131836702Y-72466448D01*
X131887429Y-72601764D01*
X131892809Y-72608943D01*
X131892811Y-72608946D01*
X131958787Y-72696977D01*
X131974096Y-72717404D01*
X131981276Y-72722785D01*
X131995805Y-72733674D01*
X132038320Y-72790533D01*
X132043346Y-72861352D01*
X132009286Y-72923645D01*
X131995805Y-72935326D01*
X131974096Y-72951596D01*
X131968715Y-72958776D01*
X131892811Y-73060054D01*
X131892809Y-73060057D01*
X131887429Y-73067236D01*
X131836702Y-73202552D01*
X131835849Y-73210402D01*
X131835849Y-73210403D01*
X131835118Y-73217131D01*
X131830000Y-73264244D01*
X131830000Y-73760500D01*
X131809998Y-73828621D01*
X131756342Y-73875114D01*
X131704000Y-73886500D01*
X131252099Y-73886500D01*
X131178931Y-73863079D01*
X131174794Y-73860128D01*
X131167424Y-73852771D01*
X131053918Y-73797288D01*
X131033614Y-73794326D01*
X130984495Y-73787160D01*
X130984489Y-73787160D01*
X130979968Y-73786500D01*
X129258032Y-73786500D01*
X129226255Y-73791178D01*
X129193130Y-73796054D01*
X129193128Y-73796055D01*
X129183439Y-73797481D01*
X129132675Y-73822405D01*
X129079378Y-73848572D01*
X129079376Y-73848573D01*
X129070030Y-73853162D01*
X129062673Y-73860532D01*
X129059294Y-73862951D01*
X128985947Y-73886500D01*
X128717934Y-73886500D01*
X128708501Y-73889565D01*
X128696714Y-73893395D01*
X128677483Y-73898012D01*
X128671363Y-73898981D01*
X128665244Y-73899950D01*
X128665243Y-73899950D01*
X128655445Y-73901502D01*
X128646610Y-73906004D01*
X128646606Y-73906005D01*
X128635557Y-73911635D01*
X128617295Y-73919199D01*
X128605503Y-73923031D01*
X128605501Y-73923032D01*
X128596071Y-73926096D01*
X128579261Y-73938309D01*
X128578017Y-73939213D01*
X128561160Y-73949543D01*
X128559200Y-73950542D01*
X128541277Y-73959674D01*
X128518489Y-73982462D01*
X128518485Y-73982465D01*
X128219647Y-74281303D01*
X128174504Y-74310286D01*
X128167184Y-74312043D01*
X128026414Y-74384700D01*
X128020695Y-74389689D01*
X127977830Y-74427083D01*
X127913348Y-74456791D01*
X127907956Y-74456034D01*
X127898471Y-74499636D01*
X127890971Y-74511700D01*
X127815950Y-74618444D01*
X127779872Y-74710979D01*
X127774893Y-74723750D01*
X127731512Y-74779951D01*
X127664633Y-74803778D01*
X127595490Y-74787665D01*
X127546034Y-74736727D01*
X127531500Y-74677980D01*
X127531500Y-74569634D01*
X127551502Y-74501513D01*
X127568405Y-74480539D01*
X127698788Y-74350156D01*
X127761100Y-74316130D01*
X127773507Y-74317017D01*
X127788775Y-74264367D01*
X127805901Y-74243043D01*
X128617452Y-73431491D01*
X128632481Y-73418655D01*
X128650537Y-73405537D01*
X128663655Y-73387482D01*
X128676495Y-73372449D01*
X129721535Y-72327408D01*
X129744326Y-72304617D01*
X129754457Y-72284734D01*
X129764784Y-72267881D01*
X129777905Y-72249823D01*
X129784801Y-72228598D01*
X129792367Y-72210332D01*
X129797997Y-72199282D01*
X129802498Y-72190449D01*
X129805989Y-72168407D01*
X129810605Y-72149181D01*
X129814435Y-72137394D01*
X129814435Y-72137392D01*
X129817500Y-72127960D01*
X129817500Y-71093643D01*
X129821500Y-71068387D01*
X129820884Y-71068289D01*
X129822434Y-71058502D01*
X129825500Y-71049066D01*
X129825500Y-68706000D01*
X129845502Y-68637879D01*
X129899158Y-68591386D01*
X129951500Y-68580000D01*
X130516010Y-68580000D01*
X130540591Y-68582421D01*
G37*
G04 #@! TD.AperFunction*
G04 #@! TA.AperFunction,Conductor*
G36*
X131886960Y-82566502D02*
G01*
X131907934Y-82583405D01*
X132286024Y-82961495D01*
X132320050Y-83023807D01*
X132322167Y-83036759D01*
X132327113Y-83081553D01*
X132329723Y-83088684D01*
X132329723Y-83088686D01*
X132333759Y-83099713D01*
X132381553Y-83230319D01*
X132385789Y-83236622D01*
X132385789Y-83236623D01*
X132452984Y-83336619D01*
X132469908Y-83361805D01*
X132475527Y-83366918D01*
X132475528Y-83366919D01*
X132581460Y-83463309D01*
X132587076Y-83468419D01*
X132726293Y-83544008D01*
X132879522Y-83584207D01*
X132963477Y-83585526D01*
X133030319Y-83586576D01*
X133030322Y-83586576D01*
X133037916Y-83586695D01*
X133192332Y-83551329D01*
X133290045Y-83502185D01*
X133327072Y-83483563D01*
X133327075Y-83483561D01*
X133333855Y-83480151D01*
X133339626Y-83475222D01*
X133339629Y-83475220D01*
X133448536Y-83382204D01*
X133448536Y-83382203D01*
X133454314Y-83377269D01*
X133479180Y-83342665D01*
X133535172Y-83299019D01*
X133605875Y-83292573D01*
X133668840Y-83325376D01*
X133704074Y-83387012D01*
X133707500Y-83416193D01*
X133707500Y-87565500D01*
X133687498Y-87633621D01*
X133633842Y-87680114D01*
X133581500Y-87691500D01*
X133047244Y-87691500D01*
X133043848Y-87691869D01*
X133043847Y-87691869D01*
X132993403Y-87697349D01*
X132993402Y-87697349D01*
X132985552Y-87698202D01*
X132978159Y-87700974D01*
X132978157Y-87700974D01*
X132908729Y-87727001D01*
X132837921Y-87732184D01*
X132775553Y-87698262D01*
X132741424Y-87636007D01*
X132738500Y-87609019D01*
X132738500Y-87337684D01*
X132758502Y-87269563D01*
X132812158Y-87223070D01*
X132850891Y-87212421D01*
X132864586Y-87210933D01*
X132885598Y-87208651D01*
X132885600Y-87208651D01*
X132893448Y-87207798D01*
X132900841Y-87205026D01*
X132900843Y-87205026D01*
X132943736Y-87188946D01*
X133028764Y-87157071D01*
X133035943Y-87151691D01*
X133035946Y-87151689D01*
X133137224Y-87075785D01*
X133144404Y-87070404D01*
X133168242Y-87038597D01*
X133225689Y-86961946D01*
X133225691Y-86961943D01*
X133231071Y-86954764D01*
X133281798Y-86819448D01*
X133288500Y-86757756D01*
X133288500Y-85962244D01*
X133281798Y-85900552D01*
X133231071Y-85765236D01*
X133225691Y-85758057D01*
X133225689Y-85758054D01*
X133149785Y-85656776D01*
X133144404Y-85649596D01*
X133088126Y-85607418D01*
X133035946Y-85568311D01*
X133035943Y-85568309D01*
X133028764Y-85562929D01*
X132939046Y-85529296D01*
X132900843Y-85514974D01*
X132900841Y-85514974D01*
X132893448Y-85512202D01*
X132885598Y-85511349D01*
X132885597Y-85511349D01*
X132835153Y-85505869D01*
X132835152Y-85505869D01*
X132831756Y-85505500D01*
X131836244Y-85505500D01*
X131832848Y-85505869D01*
X131832847Y-85505869D01*
X131782403Y-85511349D01*
X131782402Y-85511349D01*
X131774552Y-85512202D01*
X131767159Y-85514974D01*
X131767157Y-85514974D01*
X131728954Y-85529296D01*
X131639236Y-85562929D01*
X131632057Y-85568309D01*
X131632054Y-85568311D01*
X131579874Y-85607418D01*
X131523596Y-85649596D01*
X131518215Y-85656776D01*
X131442311Y-85758054D01*
X131442309Y-85758057D01*
X131436929Y-85765236D01*
X131386202Y-85900552D01*
X131379500Y-85962244D01*
X131379500Y-86757756D01*
X131386202Y-86819448D01*
X131436929Y-86954764D01*
X131442309Y-86961943D01*
X131442311Y-86961946D01*
X131499758Y-87038597D01*
X131523596Y-87070404D01*
X131530776Y-87075785D01*
X131632054Y-87151689D01*
X131632057Y-87151691D01*
X131639236Y-87157071D01*
X131724264Y-87188946D01*
X131767157Y-87205026D01*
X131767159Y-87205026D01*
X131774552Y-87207798D01*
X131782400Y-87208651D01*
X131782402Y-87208651D01*
X131803414Y-87210933D01*
X131817108Y-87212421D01*
X131882670Y-87239663D01*
X131923096Y-87298026D01*
X131929500Y-87337684D01*
X131929500Y-87537260D01*
X131909498Y-87605381D01*
X131892595Y-87626355D01*
X131864355Y-87654595D01*
X131802043Y-87688621D01*
X131775260Y-87691500D01*
X131114740Y-87691500D01*
X131046619Y-87671498D01*
X131025645Y-87654595D01*
X130873261Y-87502211D01*
X130839235Y-87439899D01*
X130844300Y-87369084D01*
X130850089Y-87355913D01*
X130897997Y-87261889D01*
X130897997Y-87261888D01*
X130902498Y-87253055D01*
X130917500Y-87158334D01*
X130917500Y-86069666D01*
X130902498Y-85974945D01*
X130844326Y-85860777D01*
X130753723Y-85770174D01*
X130639555Y-85712002D01*
X130634879Y-85711261D01*
X130578648Y-85672814D01*
X130551010Y-85607418D01*
X130563114Y-85537461D01*
X130587093Y-85503957D01*
X130671535Y-85419515D01*
X130671538Y-85419511D01*
X130694326Y-85396723D01*
X130704457Y-85376840D01*
X130714787Y-85359983D01*
X130722076Y-85349950D01*
X130727904Y-85341929D01*
X130730969Y-85332497D01*
X130734801Y-85320705D01*
X130742365Y-85302443D01*
X130747995Y-85291394D01*
X130747996Y-85291390D01*
X130752498Y-85282555D01*
X130754183Y-85271919D01*
X130755988Y-85260518D01*
X130760605Y-85241286D01*
X130764435Y-85229499D01*
X130767500Y-85220066D01*
X130767500Y-85210147D01*
X130768830Y-85201750D01*
X130799242Y-85137597D01*
X130804184Y-85132365D01*
X130844326Y-85092223D01*
X130902498Y-84978055D01*
X130917500Y-84883334D01*
X130917500Y-83794666D01*
X130902498Y-83699945D01*
X130844326Y-83585777D01*
X130753723Y-83495174D01*
X130639555Y-83437002D01*
X130544834Y-83422000D01*
X130181166Y-83422000D01*
X130086445Y-83437002D01*
X129972277Y-83495174D01*
X129881674Y-83585777D01*
X129823502Y-83699945D01*
X129808500Y-83794666D01*
X129808500Y-84883334D01*
X129809275Y-84888226D01*
X129809275Y-84888229D01*
X129814432Y-84920791D01*
X129805332Y-84991202D01*
X129759609Y-85045515D01*
X129689983Y-85066500D01*
X129136017Y-85066500D01*
X129067896Y-85046498D01*
X129021403Y-84992842D01*
X129011568Y-84920791D01*
X129016725Y-84888229D01*
X129016725Y-84888226D01*
X129017500Y-84883334D01*
X129017500Y-83794666D01*
X129002498Y-83699945D01*
X128981233Y-83658210D01*
X128967500Y-83601007D01*
X128967500Y-82672500D01*
X128987502Y-82604379D01*
X129041158Y-82557886D01*
X129093500Y-82546500D01*
X131818839Y-82546500D01*
X131886960Y-82566502D01*
G37*
G04 #@! TD.AperFunction*
G04 #@! TA.AperFunction,Conductor*
G36*
X124572737Y-73805502D02*
G01*
X124593711Y-73822405D01*
X126075595Y-75304289D01*
X126109621Y-75366601D01*
X126112500Y-75393384D01*
X126112500Y-78276616D01*
X126092498Y-78344737D01*
X126075595Y-78365711D01*
X125366711Y-79074595D01*
X125304399Y-79108621D01*
X125277616Y-79111500D01*
X124449500Y-79111500D01*
X124381379Y-79091498D01*
X124334886Y-79037842D01*
X124323500Y-78985500D01*
X124323500Y-78680032D01*
X124316947Y-78635518D01*
X124313946Y-78615130D01*
X124313945Y-78615128D01*
X124312519Y-78605439D01*
X124295847Y-78571482D01*
X124283779Y-78501518D01*
X124295749Y-78460621D01*
X124312712Y-78425918D01*
X124323500Y-78351968D01*
X124323500Y-78030032D01*
X124312519Y-77955439D01*
X124295847Y-77921482D01*
X124283779Y-77851518D01*
X124295749Y-77810621D01*
X124312712Y-77775918D01*
X124317882Y-77740478D01*
X124322840Y-77706495D01*
X124322840Y-77706489D01*
X124323500Y-77701968D01*
X124323500Y-77572555D01*
X124343502Y-77504434D01*
X124397158Y-77457941D01*
X124467432Y-77447837D01*
X124481475Y-77450679D01*
X124624522Y-77488207D01*
X124708477Y-77489526D01*
X124775319Y-77490576D01*
X124775322Y-77490576D01*
X124782916Y-77490695D01*
X124937332Y-77455329D01*
X125007742Y-77419917D01*
X125072072Y-77387563D01*
X125072075Y-77387561D01*
X125078855Y-77384151D01*
X125084626Y-77379222D01*
X125084629Y-77379220D01*
X125193536Y-77286204D01*
X125193536Y-77286203D01*
X125199314Y-77281269D01*
X125291755Y-77152624D01*
X125350842Y-77005641D01*
X125359890Y-76942062D01*
X125372581Y-76852891D01*
X125372581Y-76852888D01*
X125373162Y-76848807D01*
X125373307Y-76835000D01*
X125354276Y-76677733D01*
X125298280Y-76529546D01*
X125255665Y-76467540D01*
X125212855Y-76405251D01*
X125212854Y-76405249D01*
X125208553Y-76398992D01*
X125090275Y-76293611D01*
X125082889Y-76289700D01*
X124956988Y-76223039D01*
X124956989Y-76223039D01*
X124950274Y-76219484D01*
X124796633Y-76180892D01*
X124789034Y-76180852D01*
X124789033Y-76180852D01*
X124723181Y-76180507D01*
X124638221Y-76180062D01*
X124630841Y-76181834D01*
X124630839Y-76181834D01*
X124484184Y-76217043D01*
X124483757Y-76215263D01*
X124422602Y-76219579D01*
X124360321Y-76185496D01*
X124326355Y-76123152D01*
X124323500Y-76096484D01*
X124323500Y-76080032D01*
X124318822Y-76048255D01*
X124313946Y-76015130D01*
X124313945Y-76015128D01*
X124312519Y-76005439D01*
X124295847Y-75971482D01*
X124283779Y-75901518D01*
X124295749Y-75860621D01*
X124312712Y-75825918D01*
X124321085Y-75768524D01*
X124322840Y-75756495D01*
X124322840Y-75756489D01*
X124323500Y-75751968D01*
X124323500Y-75430032D01*
X124315946Y-75378716D01*
X124313946Y-75365130D01*
X124313945Y-75365128D01*
X124312519Y-75355439D01*
X124295847Y-75321482D01*
X124283779Y-75251518D01*
X124295749Y-75210621D01*
X124312712Y-75175918D01*
X124319878Y-75126798D01*
X124322840Y-75106495D01*
X124322840Y-75106489D01*
X124323500Y-75101968D01*
X124323500Y-74780032D01*
X124312519Y-74705439D01*
X124256838Y-74592030D01*
X124167424Y-74502771D01*
X124149125Y-74493826D01*
X124121942Y-74480539D01*
X124053918Y-74447288D01*
X124044239Y-74445876D01*
X123984495Y-74437160D01*
X123984489Y-74437160D01*
X123979968Y-74436500D01*
X122258032Y-74436500D01*
X122226255Y-74441178D01*
X122193130Y-74446054D01*
X122193128Y-74446055D01*
X122183439Y-74447481D01*
X122166019Y-74456034D01*
X122079378Y-74498572D01*
X122079376Y-74498573D01*
X122070030Y-74503162D01*
X122062673Y-74510532D01*
X122059294Y-74512951D01*
X121985947Y-74536500D01*
X116919704Y-74536500D01*
X116851583Y-74516498D01*
X116828239Y-74496445D01*
X116826553Y-74493992D01*
X116708275Y-74388611D01*
X116700889Y-74384700D01*
X116574988Y-74318039D01*
X116574989Y-74318039D01*
X116568274Y-74314484D01*
X116560911Y-74312635D01*
X116560907Y-74312633D01*
X116471062Y-74290066D01*
X116409866Y-74254071D01*
X116377845Y-74190706D01*
X116385165Y-74120088D01*
X116429503Y-74064638D01*
X116473627Y-74045042D01*
X116480102Y-74043559D01*
X116555332Y-74026329D01*
X116642561Y-73982458D01*
X116690072Y-73958563D01*
X116690075Y-73958561D01*
X116696855Y-73955151D01*
X116702626Y-73950222D01*
X116702629Y-73950220D01*
X116811542Y-73857199D01*
X116811543Y-73857198D01*
X116817314Y-73852269D01*
X116827586Y-73837974D01*
X116883581Y-73794326D01*
X116929909Y-73785500D01*
X124504616Y-73785500D01*
X124572737Y-73805502D01*
G37*
G04 #@! TD.AperFunction*
G04 #@! TA.AperFunction,Conductor*
G36*
X123616621Y-68600002D02*
G01*
X123663114Y-68653658D01*
X123674500Y-68706000D01*
X123674500Y-70942566D01*
X123677377Y-70951419D01*
X123677841Y-70986914D01*
X123662220Y-71105564D01*
X123662220Y-71105569D01*
X123661229Y-71113096D01*
X123678613Y-71270553D01*
X123681223Y-71277684D01*
X123681223Y-71277686D01*
X123715485Y-71371311D01*
X123733053Y-71419319D01*
X123821408Y-71550805D01*
X123827027Y-71555918D01*
X123827028Y-71555919D01*
X123849800Y-71576640D01*
X123938576Y-71657419D01*
X124077793Y-71733008D01*
X124231022Y-71773207D01*
X124314977Y-71774526D01*
X124381819Y-71775576D01*
X124381822Y-71775576D01*
X124389416Y-71775695D01*
X124499371Y-71750512D01*
X124570237Y-71754801D01*
X124627535Y-71796723D01*
X124653073Y-71862968D01*
X124653500Y-71873332D01*
X124653500Y-72760756D01*
X124653869Y-72764152D01*
X124653869Y-72764153D01*
X124656843Y-72791524D01*
X124660202Y-72822448D01*
X124672882Y-72856273D01*
X124678065Y-72927077D01*
X124644145Y-72989446D01*
X124581890Y-73023575D01*
X124554900Y-73026500D01*
X116931682Y-73026500D01*
X116863561Y-73006498D01*
X116837114Y-72980860D01*
X116835878Y-72981949D01*
X116830855Y-72976251D01*
X116826553Y-72969992D01*
X116812829Y-72957764D01*
X116774534Y-72923645D01*
X116708275Y-72864611D01*
X116700889Y-72860700D01*
X116574988Y-72794039D01*
X116574989Y-72794039D01*
X116568274Y-72790484D01*
X116414633Y-72751892D01*
X116407034Y-72751852D01*
X116407033Y-72751852D01*
X116341181Y-72751507D01*
X116256221Y-72751062D01*
X116248841Y-72752834D01*
X116248839Y-72752834D01*
X116109563Y-72786271D01*
X116109560Y-72786272D01*
X116102184Y-72788043D01*
X115961414Y-72860700D01*
X115842039Y-72964838D01*
X115750950Y-73094444D01*
X115725363Y-73160071D01*
X115702973Y-73217500D01*
X115693406Y-73242037D01*
X115692414Y-73249570D01*
X115692414Y-73249571D01*
X115674258Y-73387483D01*
X115672729Y-73399096D01*
X115690113Y-73556553D01*
X115744553Y-73705319D01*
X115748789Y-73711622D01*
X115748789Y-73711623D01*
X115827409Y-73828621D01*
X115832908Y-73836805D01*
X115838527Y-73841918D01*
X115838528Y-73841919D01*
X115920092Y-73916136D01*
X115950076Y-73943419D01*
X116089293Y-74019008D01*
X116169826Y-74040136D01*
X116193487Y-74046343D01*
X116254302Y-74082977D01*
X116285657Y-74146674D01*
X116277598Y-74217212D01*
X116232682Y-74272195D01*
X116190928Y-74290737D01*
X116170062Y-74295747D01*
X116109563Y-74310271D01*
X116109560Y-74310272D01*
X116102184Y-74312043D01*
X115961414Y-74384700D01*
X115842039Y-74488838D01*
X115750950Y-74618444D01*
X115727738Y-74677980D01*
X115714388Y-74712222D01*
X115693406Y-74766037D01*
X115692414Y-74773570D01*
X115692414Y-74773571D01*
X115687996Y-74807134D01*
X115672729Y-74923096D01*
X115679088Y-74980695D01*
X115688489Y-75065842D01*
X115690113Y-75080553D01*
X115692723Y-75087684D01*
X115692723Y-75087686D01*
X115728884Y-75186500D01*
X115744553Y-75229319D01*
X115748786Y-75235619D01*
X115748791Y-75235628D01*
X115759187Y-75251098D01*
X115780579Y-75318795D01*
X115761975Y-75387311D01*
X115709281Y-75434892D01*
X115639229Y-75446431D01*
X115623910Y-75443577D01*
X115533004Y-75420743D01*
X115533000Y-75420743D01*
X115525633Y-75418892D01*
X115518034Y-75418852D01*
X115518033Y-75418852D01*
X115452181Y-75418507D01*
X115367221Y-75418062D01*
X115359841Y-75419834D01*
X115359839Y-75419834D01*
X115220563Y-75453271D01*
X115220560Y-75453272D01*
X115213184Y-75455043D01*
X115072414Y-75527700D01*
X114953039Y-75631838D01*
X114861950Y-75761444D01*
X114859190Y-75768524D01*
X114807338Y-75901518D01*
X114804406Y-75909037D01*
X114803414Y-75916570D01*
X114803414Y-75916571D01*
X114790439Y-76015130D01*
X114783729Y-76066096D01*
X114784563Y-76073646D01*
X114800199Y-76215271D01*
X114801113Y-76223553D01*
X114803723Y-76230684D01*
X114803723Y-76230686D01*
X114827145Y-76294689D01*
X114855553Y-76372319D01*
X114859786Y-76378619D01*
X114859791Y-76378628D01*
X114870187Y-76394098D01*
X114891579Y-76461795D01*
X114872975Y-76530311D01*
X114820281Y-76577892D01*
X114750229Y-76589431D01*
X114734910Y-76586577D01*
X114644004Y-76563743D01*
X114644000Y-76563743D01*
X114636633Y-76561892D01*
X114629034Y-76561852D01*
X114629033Y-76561852D01*
X114563181Y-76561507D01*
X114478221Y-76561062D01*
X114470841Y-76562834D01*
X114470839Y-76562834D01*
X114331563Y-76596271D01*
X114331560Y-76596272D01*
X114324184Y-76598043D01*
X114183414Y-76670700D01*
X114177697Y-76675687D01*
X114177690Y-76675692D01*
X114128329Y-76718753D01*
X114063847Y-76748461D01*
X113993540Y-76738591D01*
X113939730Y-76692278D01*
X113919500Y-76623804D01*
X113919500Y-68706500D01*
X113939502Y-68638379D01*
X113993158Y-68591886D01*
X114045500Y-68580500D01*
X122898524Y-68580500D01*
X122923103Y-68582921D01*
X122936000Y-68585486D01*
X122951410Y-68582421D01*
X122975990Y-68580000D01*
X123548500Y-68580000D01*
X123616621Y-68600002D01*
G37*
G04 #@! TD.AperFunction*
M02*
