G04 #@! TF.GenerationSoftware,KiCad,Pcbnew,6.0.10*
G04 #@! TF.CreationDate,2023-04-28T22:47:19-05:00*
G04 #@! TF.ProjectId,gas_sensor,6761735f-7365-46e7-936f-722e6b696361,rev?*
G04 #@! TF.SameCoordinates,Original*
G04 #@! TF.FileFunction,Copper,L1,Top*
G04 #@! TF.FilePolarity,Positive*
%FSLAX46Y46*%
G04 Gerber Fmt 4.6, Leading zero omitted, Abs format (unit mm)*
G04 Created by KiCad (PCBNEW 6.0.10) date 2023-04-28 22:47:19*
%MOMM*%
%LPD*%
G01*
G04 APERTURE LIST*
G04 Aperture macros list*
%AMRoundRect*
0 Rectangle with rounded corners*
0 $1 Rounding radius*
0 $2 $3 $4 $5 $6 $7 $8 $9 X,Y pos of 4 corners*
0 Add a 4 corners polygon primitive as box body*
4,1,4,$2,$3,$4,$5,$6,$7,$8,$9,$2,$3,0*
0 Add four circle primitives for the rounded corners*
1,1,$1+$1,$2,$3*
1,1,$1+$1,$4,$5*
1,1,$1+$1,$6,$7*
1,1,$1+$1,$8,$9*
0 Add four rect primitives between the rounded corners*
20,1,$1+$1,$2,$3,$4,$5,0*
20,1,$1+$1,$4,$5,$6,$7,0*
20,1,$1+$1,$6,$7,$8,$9,0*
20,1,$1+$1,$8,$9,$2,$3,0*%
G04 Aperture macros list end*
G04 #@! TA.AperFunction,SMDPad,CuDef*
%ADD10RoundRect,0.237500X-0.287500X-0.237500X0.287500X-0.237500X0.287500X0.237500X-0.287500X0.237500X0*%
G04 #@! TD*
G04 #@! TA.AperFunction,SMDPad,CuDef*
%ADD11RoundRect,0.250000X0.350000X0.450000X-0.350000X0.450000X-0.350000X-0.450000X0.350000X-0.450000X0*%
G04 #@! TD*
G04 #@! TA.AperFunction,SMDPad,CuDef*
%ADD12RoundRect,0.250000X0.337500X0.475000X-0.337500X0.475000X-0.337500X-0.475000X0.337500X-0.475000X0*%
G04 #@! TD*
G04 #@! TA.AperFunction,SMDPad,CuDef*
%ADD13RoundRect,0.250000X0.475000X-0.337500X0.475000X0.337500X-0.475000X0.337500X-0.475000X-0.337500X0*%
G04 #@! TD*
G04 #@! TA.AperFunction,SMDPad,CuDef*
%ADD14RoundRect,0.250000X-0.350000X-0.450000X0.350000X-0.450000X0.350000X0.450000X-0.350000X0.450000X0*%
G04 #@! TD*
G04 #@! TA.AperFunction,SMDPad,CuDef*
%ADD15R,2.000000X1.500000*%
G04 #@! TD*
G04 #@! TA.AperFunction,SMDPad,CuDef*
%ADD16R,3.600000X1.270000*%
G04 #@! TD*
G04 #@! TA.AperFunction,SMDPad,CuDef*
%ADD17R,4.200000X1.350000*%
G04 #@! TD*
G04 #@! TA.AperFunction,ComponentPad*
%ADD18R,1.700000X1.700000*%
G04 #@! TD*
G04 #@! TA.AperFunction,ComponentPad*
%ADD19O,1.700000X1.700000*%
G04 #@! TD*
G04 #@! TA.AperFunction,ViaPad*
%ADD20C,0.800000*%
G04 #@! TD*
G04 #@! TA.AperFunction,Conductor*
%ADD21C,0.500000*%
G04 #@! TD*
G04 #@! TA.AperFunction,Conductor*
%ADD22C,0.300000*%
G04 #@! TD*
G04 #@! TA.AperFunction,Conductor*
%ADD23C,0.250000*%
G04 #@! TD*
G04 #@! TA.AperFunction,Conductor*
%ADD24C,1.500000*%
G04 #@! TD*
G04 APERTURE END LIST*
D10*
X125885000Y-89662000D03*
X127635000Y-89662000D03*
D11*
X132048000Y-89662000D03*
X130048000Y-89662000D03*
D12*
X139752000Y-81407000D03*
X137677000Y-81407000D03*
X139743000Y-79121000D03*
X137668000Y-79121000D03*
D13*
X125730000Y-40132000D03*
X125730000Y-38057000D03*
X127762000Y-40132000D03*
X127762000Y-38057000D03*
D14*
X117618000Y-89789000D03*
X119618000Y-89789000D03*
D15*
X134492000Y-86883000D03*
X134492000Y-84883000D03*
X134492000Y-82883000D03*
X134492000Y-80883000D03*
X134492000Y-78883000D03*
X134492000Y-76883000D03*
X134492000Y-74883000D03*
X134492000Y-72883000D03*
X118492000Y-72883000D03*
X118492000Y-74883000D03*
X118492000Y-76883000D03*
X118492000Y-78883000D03*
X118492000Y-80883000D03*
X118492000Y-82883000D03*
X118492000Y-84883000D03*
X118492000Y-86883000D03*
D16*
X139519000Y-86899000D03*
D17*
X139319000Y-84074000D03*
X139319000Y-89724000D03*
D18*
X118491000Y-92202000D03*
D19*
X121031000Y-92202000D03*
X123571000Y-92202000D03*
D18*
X132207000Y-92202000D03*
D19*
X129667000Y-92202000D03*
D20*
X119380000Y-93980000D03*
X129413000Y-83058000D03*
X122428000Y-72390000D03*
X118110000Y-69850000D03*
X115570000Y-87630000D03*
X132080000Y-93980000D03*
X139700000Y-91440000D03*
X134620000Y-93980000D03*
X137160000Y-69850000D03*
X139700000Y-74930000D03*
X125476000Y-36957000D03*
X139700000Y-72390000D03*
X124460000Y-93980000D03*
X115570000Y-69850000D03*
X139446000Y-77724000D03*
X139700000Y-93980000D03*
X115570000Y-92710000D03*
X125349000Y-78359000D03*
X137160000Y-93980000D03*
X115570000Y-90170000D03*
X120650000Y-69850000D03*
X129540000Y-93980000D03*
X127000000Y-93980000D03*
X121920000Y-93980000D03*
X139700000Y-69850000D03*
X116840000Y-93980000D03*
X127508000Y-68707000D03*
X128397000Y-74930000D03*
X128524000Y-43434000D03*
X124079000Y-42037000D03*
X124079000Y-43561000D03*
X132969000Y-82931000D03*
X125476000Y-68580000D03*
X126619000Y-81661000D03*
X125349000Y-46101000D03*
X120777000Y-77470000D03*
X124320500Y-71120000D03*
X124714000Y-76835000D03*
X128524000Y-76200000D03*
X136144000Y-78867000D03*
X137160000Y-76835000D03*
X137160000Y-74803000D03*
X128524000Y-77597000D03*
X131191000Y-81026000D03*
X116332000Y-74930000D03*
X115443000Y-76073000D03*
X114554000Y-77216000D03*
X116205000Y-84836000D03*
X132080000Y-78232000D03*
X116332000Y-73406000D03*
D21*
X139743000Y-79121000D02*
X139743000Y-81398000D01*
D22*
X138684000Y-72009000D02*
X138684000Y-76962000D01*
D21*
X125730000Y-38057000D02*
X127762000Y-38057000D01*
D22*
X139446000Y-77724000D02*
X139743000Y-78021000D01*
X129921000Y-69269894D02*
X130465053Y-69813947D01*
X129921000Y-38481000D02*
X129921000Y-69269894D01*
X139743000Y-78021000D02*
X139743000Y-79121000D01*
D21*
X139743000Y-81398000D02*
X139752000Y-81407000D01*
D23*
X138684000Y-72009000D02*
X138684000Y-71374000D01*
D22*
X129497000Y-38057000D02*
X129921000Y-38481000D01*
D21*
X125476000Y-36957000D02*
X125476000Y-37803000D01*
D22*
X138684000Y-76962000D02*
X139446000Y-77724000D01*
D23*
X138684000Y-71374000D02*
X137160000Y-69850000D01*
X137160000Y-69850000D02*
X130501106Y-69850000D01*
D21*
X125476000Y-37803000D02*
X125730000Y-38057000D01*
D22*
X127762000Y-38057000D02*
X129497000Y-38057000D01*
D23*
X130501106Y-69850000D02*
X130465053Y-69813947D01*
D22*
X128016000Y-74930000D02*
X127381000Y-75565000D01*
X127381000Y-84201000D02*
X123571000Y-88011000D01*
X123571000Y-88011000D02*
X123571000Y-92202000D01*
X127508000Y-69215000D02*
X127508000Y-69723000D01*
X127508000Y-68707000D02*
X127508000Y-69215000D01*
X127508000Y-69723000D02*
X128397000Y-70612000D01*
X128397000Y-74930000D02*
X128016000Y-74930000D01*
X128397000Y-70612000D02*
X128397000Y-74930000D01*
X127381000Y-75565000D02*
X127381000Y-84201000D01*
D21*
X125222000Y-42037000D02*
X125730000Y-41529000D01*
D22*
X138049000Y-72263000D02*
X138049000Y-78740000D01*
D21*
X137677000Y-81407000D02*
X137677000Y-79130000D01*
X137677000Y-79130000D02*
X137668000Y-79121000D01*
X134492000Y-82883000D02*
X135430000Y-82883000D01*
X134540000Y-82931000D02*
X134492000Y-82883000D01*
X134444000Y-82931000D02*
X134492000Y-82883000D01*
D22*
X127762000Y-40132000D02*
X128905000Y-40132000D01*
D21*
X125730000Y-43561000D02*
X126682500Y-42608500D01*
X125730000Y-40132000D02*
X127762000Y-40132000D01*
X124079000Y-43561000D02*
X125730000Y-43561000D01*
X126682500Y-42608500D02*
X127762000Y-41529000D01*
D22*
X128524000Y-43434000D02*
X127508000Y-43434000D01*
X136144000Y-70358000D02*
X138049000Y-72263000D01*
D21*
X135430000Y-82883000D02*
X136906000Y-81407000D01*
X127762000Y-41529000D02*
X127762000Y-40132000D01*
D22*
X138049000Y-78740000D02*
X137668000Y-79121000D01*
D21*
X137668000Y-81398000D02*
X137677000Y-81407000D01*
D22*
X128905000Y-40132000D02*
X129421000Y-40648000D01*
X129421000Y-40648000D02*
X129421000Y-69477000D01*
D21*
X136906000Y-81407000D02*
X137677000Y-81407000D01*
D22*
X130302000Y-70358000D02*
X136144000Y-70358000D01*
X129421000Y-69477000D02*
X130302000Y-70358000D01*
X127508000Y-43434000D02*
X126682500Y-42608500D01*
D21*
X124079000Y-42037000D02*
X125222000Y-42037000D01*
X125730000Y-41529000D02*
X125730000Y-40132000D01*
X132969000Y-82931000D02*
X134444000Y-82931000D01*
D22*
X125476000Y-68580000D02*
X125476000Y-75692000D01*
X123571000Y-47879000D02*
X123571000Y-68453000D01*
X126619000Y-76835000D02*
X126619000Y-81661000D01*
X125476000Y-75692000D02*
X126619000Y-76835000D01*
X125349000Y-46101000D02*
X123571000Y-47879000D01*
X125476000Y-68580000D02*
X123698000Y-68580000D01*
X123698000Y-68580000D02*
X123571000Y-68453000D01*
X122047000Y-71120000D02*
X120777000Y-72390000D01*
X124320500Y-71120000D02*
X122047000Y-71120000D01*
X120777000Y-72390000D02*
X120777000Y-77470000D01*
D21*
X121031000Y-92202000D02*
X119618000Y-90789000D01*
X119618000Y-90789000D02*
X119618000Y-89789000D01*
X121063000Y-92170000D02*
X121031000Y-92202000D01*
D22*
X130048000Y-89662000D02*
X127635000Y-89662000D01*
D23*
X120142000Y-80010000D02*
X120142000Y-87757000D01*
X117618000Y-88503000D02*
X117618000Y-89789000D01*
X117729000Y-88392000D02*
X117618000Y-88503000D01*
X120142000Y-87757000D02*
X119507000Y-88392000D01*
X123317000Y-76835000D02*
X124714000Y-76835000D01*
X123317000Y-76835000D02*
X120142000Y-80010000D01*
X119507000Y-88392000D02*
X117729000Y-88392000D01*
D22*
X132969000Y-76835000D02*
X132969000Y-80645000D01*
X133207000Y-80883000D02*
X134492000Y-80883000D01*
X132334000Y-76200000D02*
X132969000Y-76835000D01*
X132969000Y-80645000D02*
X133207000Y-80883000D01*
X128524000Y-76200000D02*
X132334000Y-76200000D01*
X136144000Y-78867000D02*
X134508000Y-78867000D01*
X134508000Y-78867000D02*
X134492000Y-78883000D01*
X137160000Y-76835000D02*
X134540000Y-76835000D01*
X134540000Y-76835000D02*
X134492000Y-76883000D01*
X134572000Y-74803000D02*
X134492000Y-74883000D01*
X137160000Y-74803000D02*
X134572000Y-74803000D01*
X128524000Y-79121000D02*
X130429000Y-81026000D01*
X130429000Y-81026000D02*
X131191000Y-81026000D01*
X128524000Y-77597000D02*
X128524000Y-79121000D01*
X116729000Y-78883000D02*
X118492000Y-78883000D01*
X116332000Y-78486000D02*
X116729000Y-78883000D01*
X116332000Y-74930000D02*
X116332000Y-78486000D01*
X116316000Y-80883000D02*
X118492000Y-80883000D01*
X115443000Y-80010000D02*
X116316000Y-80883000D01*
X115443000Y-76073000D02*
X115443000Y-80010000D01*
X116030000Y-82883000D02*
X118492000Y-82883000D01*
X114554000Y-77216000D02*
X114554000Y-81407000D01*
X114554000Y-81407000D02*
X116030000Y-82883000D01*
X118445000Y-84836000D02*
X118492000Y-84883000D01*
X116205000Y-84836000D02*
X118445000Y-84836000D01*
X134508000Y-86899000D02*
X134492000Y-86883000D01*
D24*
X139519000Y-86899000D02*
X134508000Y-86899000D01*
D22*
X132080000Y-89630000D02*
X132048000Y-89662000D01*
X132080000Y-80264000D02*
X132080000Y-89630000D01*
X132080000Y-78232000D02*
X132080000Y-80264000D01*
D23*
X116332000Y-73406000D02*
X117809000Y-74883000D01*
X117809000Y-74883000D02*
X118492000Y-74883000D01*
G04 #@! TA.AperFunction,Conductor*
G36*
X123168718Y-68600002D02*
G01*
X123204791Y-68639875D01*
X123206094Y-68638928D01*
X123219216Y-68656989D01*
X123229545Y-68673844D01*
X123239674Y-68693723D01*
X123262462Y-68716511D01*
X123262465Y-68716515D01*
X123434485Y-68888535D01*
X123434489Y-68888538D01*
X123457277Y-68911326D01*
X123475200Y-68920458D01*
X123477160Y-68921457D01*
X123494017Y-68931787D01*
X123512071Y-68944904D01*
X123521501Y-68947968D01*
X123521503Y-68947969D01*
X123533295Y-68951801D01*
X123551557Y-68959365D01*
X123562606Y-68964995D01*
X123562610Y-68964996D01*
X123571445Y-68969498D01*
X123581243Y-68971050D01*
X123581244Y-68971050D01*
X123587363Y-68972019D01*
X123593483Y-68972988D01*
X123612714Y-68977605D01*
X123633934Y-68984500D01*
X124899253Y-68984500D01*
X124967374Y-69004502D01*
X124984053Y-69017307D01*
X125030300Y-69059389D01*
X125067222Y-69120029D01*
X125071500Y-69152582D01*
X125071500Y-70651339D01*
X125051498Y-70719460D01*
X124997842Y-70765953D01*
X124927568Y-70776057D01*
X124862988Y-70746563D01*
X124841660Y-70722705D01*
X124819358Y-70690254D01*
X124819352Y-70690248D01*
X124815053Y-70683992D01*
X124696775Y-70578611D01*
X124689389Y-70574700D01*
X124563488Y-70508039D01*
X124563489Y-70508039D01*
X124556774Y-70504484D01*
X124403133Y-70465892D01*
X124395534Y-70465852D01*
X124395533Y-70465852D01*
X124329681Y-70465507D01*
X124244721Y-70465062D01*
X124237341Y-70466834D01*
X124237339Y-70466834D01*
X124098063Y-70500271D01*
X124098060Y-70500272D01*
X124090684Y-70502043D01*
X123949914Y-70574700D01*
X123830539Y-70678838D01*
X123829698Y-70677874D01*
X123775849Y-70711050D01*
X123742657Y-70715500D01*
X121982934Y-70715500D01*
X121973501Y-70718565D01*
X121961714Y-70722395D01*
X121942483Y-70727012D01*
X121936363Y-70727981D01*
X121930244Y-70728950D01*
X121930243Y-70728950D01*
X121920445Y-70730502D01*
X121911610Y-70735004D01*
X121911606Y-70735005D01*
X121900557Y-70740635D01*
X121882295Y-70748199D01*
X121870503Y-70752031D01*
X121870501Y-70752032D01*
X121861071Y-70755096D01*
X121846128Y-70765953D01*
X121843017Y-70768213D01*
X121826160Y-70778543D01*
X121806277Y-70788674D01*
X121783489Y-70811462D01*
X121783485Y-70811465D01*
X120468465Y-72126485D01*
X120468462Y-72126489D01*
X120445674Y-72149277D01*
X120441171Y-72158115D01*
X120435546Y-72169154D01*
X120425216Y-72186011D01*
X120412095Y-72204071D01*
X120409030Y-72213504D01*
X120405199Y-72225295D01*
X120397634Y-72243561D01*
X120387502Y-72263445D01*
X120385951Y-72273238D01*
X120384011Y-72285487D01*
X120379395Y-72304713D01*
X120372500Y-72325934D01*
X120372500Y-76896996D01*
X120352498Y-76965117D01*
X120329330Y-76991945D01*
X120287039Y-77028838D01*
X120195950Y-77158444D01*
X120178660Y-77202790D01*
X120141782Y-77297379D01*
X120138406Y-77306037D01*
X120137414Y-77313570D01*
X120137414Y-77313571D01*
X120118752Y-77455329D01*
X120117729Y-77463096D01*
X120120515Y-77488326D01*
X120134199Y-77612271D01*
X120135113Y-77620553D01*
X120137723Y-77627684D01*
X120137723Y-77627686D01*
X120186185Y-77760115D01*
X120189553Y-77769319D01*
X120193789Y-77775622D01*
X120193789Y-77775623D01*
X120265944Y-77883000D01*
X120277908Y-77900805D01*
X120283527Y-77905918D01*
X120283528Y-77905919D01*
X120354319Y-77970333D01*
X120395076Y-78007419D01*
X120534293Y-78083008D01*
X120687522Y-78123207D01*
X120771477Y-78124526D01*
X120838319Y-78125576D01*
X120838322Y-78125576D01*
X120845916Y-78125695D01*
X121000332Y-78090329D01*
X121088726Y-78045872D01*
X121135072Y-78022563D01*
X121135075Y-78022561D01*
X121141855Y-78019151D01*
X121147626Y-78014222D01*
X121147629Y-78014220D01*
X121256536Y-77921204D01*
X121256536Y-77921203D01*
X121262314Y-77916269D01*
X121354755Y-77787624D01*
X121413842Y-77640641D01*
X121436162Y-77483807D01*
X121436307Y-77470000D01*
X121417276Y-77312733D01*
X121361280Y-77164546D01*
X121287152Y-77056689D01*
X121275855Y-77040251D01*
X121275854Y-77040249D01*
X121271553Y-77033992D01*
X121264780Y-77027957D01*
X121223681Y-76991340D01*
X121186126Y-76931090D01*
X121181500Y-76897263D01*
X121181500Y-72609740D01*
X121201502Y-72541619D01*
X121218405Y-72520645D01*
X122177645Y-71561405D01*
X122239957Y-71527379D01*
X122266740Y-71524500D01*
X123743754Y-71524500D01*
X123811875Y-71544502D01*
X123828550Y-71557304D01*
X123938576Y-71657419D01*
X124077793Y-71733008D01*
X124231022Y-71773207D01*
X124314977Y-71774526D01*
X124381819Y-71775576D01*
X124381822Y-71775576D01*
X124389416Y-71775695D01*
X124543832Y-71740329D01*
X124614242Y-71704917D01*
X124678572Y-71672563D01*
X124678575Y-71672561D01*
X124685355Y-71669151D01*
X124691126Y-71664222D01*
X124691129Y-71664220D01*
X124800036Y-71571204D01*
X124800036Y-71571203D01*
X124805814Y-71566269D01*
X124843179Y-71514270D01*
X124899173Y-71470624D01*
X124969876Y-71464178D01*
X125032840Y-71496981D01*
X125068075Y-71558618D01*
X125071500Y-71587798D01*
X125071500Y-75756066D01*
X125074565Y-75765498D01*
X125074565Y-75765500D01*
X125078395Y-75777287D01*
X125083011Y-75796513D01*
X125086502Y-75818555D01*
X125091003Y-75827388D01*
X125096633Y-75838438D01*
X125104199Y-75856704D01*
X125111095Y-75877929D01*
X125116925Y-75885953D01*
X125124216Y-75895989D01*
X125134545Y-75912844D01*
X125144674Y-75932723D01*
X125167462Y-75955511D01*
X125167465Y-75955515D01*
X126177595Y-76965645D01*
X126211621Y-77027957D01*
X126214500Y-77054740D01*
X126214500Y-81087996D01*
X126194498Y-81156117D01*
X126171330Y-81182945D01*
X126129039Y-81219838D01*
X126037950Y-81349444D01*
X126016147Y-81405367D01*
X125989792Y-81472964D01*
X125980406Y-81497037D01*
X125979414Y-81504570D01*
X125979414Y-81504571D01*
X125960752Y-81646329D01*
X125959729Y-81654096D01*
X125977113Y-81811553D01*
X125979723Y-81818684D01*
X125979723Y-81818686D01*
X126028876Y-81953003D01*
X126031553Y-81960319D01*
X126119908Y-82091805D01*
X126125527Y-82096918D01*
X126125528Y-82096919D01*
X126197068Y-82162015D01*
X126237076Y-82198419D01*
X126376293Y-82274008D01*
X126529522Y-82314207D01*
X126613477Y-82315526D01*
X126680319Y-82316576D01*
X126680322Y-82316576D01*
X126687916Y-82316695D01*
X126695320Y-82314999D01*
X126695322Y-82314999D01*
X126822371Y-82285901D01*
X126893237Y-82290190D01*
X126950536Y-82332112D01*
X126976073Y-82398357D01*
X126976500Y-82408721D01*
X126976500Y-83981261D01*
X126956498Y-84049382D01*
X126939595Y-84070356D01*
X123262465Y-87747485D01*
X123262462Y-87747489D01*
X123239674Y-87770277D01*
X123235171Y-87779115D01*
X123229546Y-87790154D01*
X123219216Y-87807011D01*
X123206095Y-87825071D01*
X123203030Y-87834504D01*
X123199199Y-87846295D01*
X123191634Y-87864561D01*
X123181502Y-87884445D01*
X123179951Y-87894238D01*
X123178011Y-87906487D01*
X123173395Y-87925713D01*
X123166500Y-87946934D01*
X123166500Y-91087073D01*
X123146498Y-91155194D01*
X123095616Y-91200030D01*
X123093463Y-91200824D01*
X122919010Y-91304612D01*
X122914670Y-91308418D01*
X122914666Y-91308421D01*
X122894723Y-91325911D01*
X122766392Y-91438455D01*
X122640720Y-91597869D01*
X122638031Y-91602980D01*
X122638029Y-91602983D01*
X122625073Y-91627609D01*
X122546203Y-91777515D01*
X122486007Y-91971378D01*
X122462148Y-92172964D01*
X122475424Y-92375522D01*
X122476845Y-92381118D01*
X122476846Y-92381123D01*
X122497119Y-92460945D01*
X122525392Y-92572269D01*
X122527809Y-92577512D01*
X122565010Y-92658208D01*
X122610377Y-92756616D01*
X122727533Y-92922389D01*
X122872938Y-93064035D01*
X123041720Y-93176812D01*
X123047023Y-93179090D01*
X123047026Y-93179092D01*
X123135707Y-93217192D01*
X123228228Y-93256942D01*
X123301244Y-93273464D01*
X123420579Y-93300467D01*
X123420584Y-93300468D01*
X123426216Y-93301742D01*
X123431987Y-93301969D01*
X123431989Y-93301969D01*
X123491756Y-93304317D01*
X123629053Y-93309712D01*
X123729499Y-93295148D01*
X123824231Y-93281413D01*
X123824236Y-93281412D01*
X123829945Y-93280584D01*
X123835409Y-93278729D01*
X123835414Y-93278728D01*
X124016693Y-93217192D01*
X124016698Y-93217190D01*
X124022165Y-93215334D01*
X124199276Y-93116147D01*
X124261934Y-93064035D01*
X124350913Y-92990031D01*
X124355345Y-92986345D01*
X124485147Y-92830276D01*
X124584334Y-92653165D01*
X124586190Y-92647698D01*
X124586192Y-92647693D01*
X124647728Y-92466414D01*
X124647729Y-92466409D01*
X124649584Y-92460945D01*
X124650412Y-92455236D01*
X124650413Y-92455231D01*
X124678179Y-92263727D01*
X124678712Y-92260053D01*
X124680232Y-92202000D01*
X124677564Y-92172964D01*
X128558148Y-92172964D01*
X128571424Y-92375522D01*
X128572845Y-92381118D01*
X128572846Y-92381123D01*
X128593119Y-92460945D01*
X128621392Y-92572269D01*
X128623809Y-92577512D01*
X128661010Y-92658208D01*
X128706377Y-92756616D01*
X128823533Y-92922389D01*
X128968938Y-93064035D01*
X129137720Y-93176812D01*
X129143023Y-93179090D01*
X129143026Y-93179092D01*
X129231707Y-93217192D01*
X129324228Y-93256942D01*
X129397244Y-93273464D01*
X129516579Y-93300467D01*
X129516584Y-93300468D01*
X129522216Y-93301742D01*
X129527987Y-93301969D01*
X129527989Y-93301969D01*
X129587756Y-93304317D01*
X129725053Y-93309712D01*
X129825499Y-93295148D01*
X129920231Y-93281413D01*
X129920236Y-93281412D01*
X129925945Y-93280584D01*
X129931409Y-93278729D01*
X129931414Y-93278728D01*
X130112693Y-93217192D01*
X130112698Y-93217190D01*
X130118165Y-93215334D01*
X130295276Y-93116147D01*
X130357934Y-93064035D01*
X130446913Y-92990031D01*
X130451345Y-92986345D01*
X130581147Y-92830276D01*
X130680334Y-92653165D01*
X130682190Y-92647698D01*
X130682192Y-92647693D01*
X130743728Y-92466414D01*
X130743729Y-92466409D01*
X130745584Y-92460945D01*
X130746412Y-92455236D01*
X130746413Y-92455231D01*
X130774179Y-92263727D01*
X130774712Y-92260053D01*
X130776232Y-92202000D01*
X130757658Y-91999859D01*
X130756090Y-91994299D01*
X130704125Y-91810046D01*
X130704124Y-91810044D01*
X130702557Y-91804487D01*
X130691978Y-91783033D01*
X130615331Y-91627609D01*
X130612776Y-91622428D01*
X130491320Y-91459779D01*
X130342258Y-91321987D01*
X130337375Y-91318906D01*
X130337371Y-91318903D01*
X130175464Y-91216748D01*
X130170581Y-91213667D01*
X129982039Y-91138446D01*
X129976379Y-91137320D01*
X129976375Y-91137319D01*
X129788613Y-91099971D01*
X129788610Y-91099971D01*
X129782946Y-91098844D01*
X129777171Y-91098768D01*
X129777167Y-91098768D01*
X129675793Y-91097441D01*
X129579971Y-91096187D01*
X129574274Y-91097166D01*
X129574273Y-91097166D01*
X129385607Y-91129585D01*
X129379910Y-91130564D01*
X129189463Y-91200824D01*
X129015010Y-91304612D01*
X129010670Y-91308418D01*
X129010666Y-91308421D01*
X128990723Y-91325911D01*
X128862392Y-91438455D01*
X128736720Y-91597869D01*
X128734031Y-91602980D01*
X128734029Y-91602983D01*
X128721073Y-91627609D01*
X128642203Y-91777515D01*
X128582007Y-91971378D01*
X128558148Y-92172964D01*
X124677564Y-92172964D01*
X124661658Y-91999859D01*
X124660090Y-91994299D01*
X124608125Y-91810046D01*
X124608124Y-91810044D01*
X124606557Y-91804487D01*
X124595978Y-91783033D01*
X124519331Y-91627609D01*
X124516776Y-91622428D01*
X124395320Y-91459779D01*
X124246258Y-91321987D01*
X124241375Y-91318906D01*
X124241371Y-91318903D01*
X124079464Y-91216748D01*
X124074581Y-91213667D01*
X124069221Y-91211528D01*
X124069214Y-91211525D01*
X124054811Y-91205779D01*
X123998951Y-91161959D01*
X123975500Y-91088749D01*
X123975500Y-89946070D01*
X126855500Y-89946070D01*
X126862036Y-90006236D01*
X126864810Y-90013635D01*
X126892127Y-90086502D01*
X126911507Y-90138199D01*
X126996026Y-90250974D01*
X127108801Y-90335493D01*
X127117202Y-90338643D01*
X127117205Y-90338644D01*
X127163084Y-90355843D01*
X127240764Y-90384964D01*
X127300930Y-90391500D01*
X127969070Y-90391500D01*
X128029236Y-90384964D01*
X128106916Y-90355843D01*
X128152795Y-90338644D01*
X128152798Y-90338643D01*
X128161199Y-90335493D01*
X128273974Y-90250974D01*
X128358493Y-90138199D01*
X128361047Y-90131386D01*
X128410698Y-90081846D01*
X128470961Y-90066500D01*
X129070316Y-90066500D01*
X129138437Y-90086502D01*
X129184930Y-90140158D01*
X129195579Y-90178891D01*
X129200202Y-90221448D01*
X129250929Y-90356764D01*
X129256309Y-90363943D01*
X129256311Y-90363946D01*
X129276962Y-90391500D01*
X129337596Y-90472404D01*
X129344776Y-90477785D01*
X129446054Y-90553689D01*
X129446057Y-90553691D01*
X129453236Y-90559071D01*
X129541673Y-90592224D01*
X129581157Y-90607026D01*
X129581159Y-90607026D01*
X129588552Y-90609798D01*
X129596402Y-90610651D01*
X129596403Y-90610651D01*
X129646847Y-90616131D01*
X129650244Y-90616500D01*
X130445756Y-90616500D01*
X130449153Y-90616131D01*
X130499597Y-90610651D01*
X130499598Y-90610651D01*
X130507448Y-90609798D01*
X130514841Y-90607026D01*
X130514843Y-90607026D01*
X130554327Y-90592224D01*
X130642764Y-90559071D01*
X130649943Y-90553691D01*
X130649946Y-90553689D01*
X130751224Y-90477785D01*
X130758404Y-90472404D01*
X130819038Y-90391500D01*
X130839689Y-90363946D01*
X130839691Y-90363943D01*
X130845071Y-90356764D01*
X130895798Y-90221448D01*
X130902500Y-90159756D01*
X130902500Y-89164244D01*
X130895798Y-89102552D01*
X130845071Y-88967236D01*
X130839691Y-88960057D01*
X130839689Y-88960054D01*
X130763785Y-88858776D01*
X130758404Y-88851596D01*
X130708904Y-88814498D01*
X130649946Y-88770311D01*
X130649943Y-88770309D01*
X130642764Y-88764929D01*
X130533326Y-88723903D01*
X130514843Y-88716974D01*
X130514841Y-88716974D01*
X130507448Y-88714202D01*
X130499598Y-88713349D01*
X130499597Y-88713349D01*
X130449153Y-88707869D01*
X130449152Y-88707869D01*
X130445756Y-88707500D01*
X129650244Y-88707500D01*
X129646848Y-88707869D01*
X129646847Y-88707869D01*
X129596403Y-88713349D01*
X129596402Y-88713349D01*
X129588552Y-88714202D01*
X129581159Y-88716974D01*
X129581157Y-88716974D01*
X129562674Y-88723903D01*
X129453236Y-88764929D01*
X129446057Y-88770309D01*
X129446054Y-88770311D01*
X129387096Y-88814498D01*
X129337596Y-88851596D01*
X129332215Y-88858776D01*
X129256311Y-88960054D01*
X129256309Y-88960057D01*
X129250929Y-88967236D01*
X129200202Y-89102552D01*
X129199349Y-89110400D01*
X129199349Y-89110402D01*
X129195579Y-89145108D01*
X129168337Y-89210670D01*
X129109974Y-89251096D01*
X129070316Y-89257500D01*
X128470961Y-89257500D01*
X128402840Y-89237498D01*
X128361076Y-89192690D01*
X128358493Y-89185801D01*
X128273974Y-89073026D01*
X128161199Y-88988507D01*
X128152798Y-88985357D01*
X128152795Y-88985356D01*
X128074387Y-88955963D01*
X128029236Y-88939036D01*
X127969070Y-88932500D01*
X127300930Y-88932500D01*
X127240764Y-88939036D01*
X127195613Y-88955963D01*
X127117205Y-88985356D01*
X127117202Y-88985357D01*
X127108801Y-88988507D01*
X126996026Y-89073026D01*
X126911507Y-89185801D01*
X126908357Y-89194202D01*
X126908356Y-89194205D01*
X126887029Y-89251096D01*
X126862036Y-89317764D01*
X126855500Y-89377930D01*
X126855500Y-89946070D01*
X123975500Y-89946070D01*
X123975500Y-88230740D01*
X123995502Y-88162619D01*
X124012405Y-88141645D01*
X127689535Y-84464514D01*
X127712326Y-84441723D01*
X127722457Y-84421840D01*
X127732784Y-84404987D01*
X127745905Y-84386929D01*
X127752801Y-84365704D01*
X127760367Y-84347438D01*
X127765997Y-84336388D01*
X127770498Y-84327555D01*
X127773989Y-84305513D01*
X127778605Y-84286287D01*
X127782435Y-84274500D01*
X127782435Y-84274498D01*
X127785500Y-84265066D01*
X127785500Y-78084947D01*
X127805502Y-78016826D01*
X127859158Y-77970333D01*
X127929432Y-77960229D01*
X127994012Y-77989723D01*
X128016080Y-78014669D01*
X128020671Y-78021500D01*
X128024908Y-78027805D01*
X128044766Y-78045874D01*
X128078300Y-78076388D01*
X128115222Y-78137029D01*
X128119500Y-78169582D01*
X128119500Y-79185066D01*
X128122565Y-79194498D01*
X128122565Y-79194500D01*
X128126395Y-79206287D01*
X128131011Y-79225513D01*
X128134502Y-79247555D01*
X128139003Y-79256388D01*
X128144633Y-79267438D01*
X128152199Y-79285704D01*
X128159095Y-79306929D01*
X128164925Y-79314953D01*
X128172216Y-79324989D01*
X128182545Y-79341844D01*
X128192674Y-79361723D01*
X128215462Y-79384511D01*
X128215465Y-79384515D01*
X130165485Y-81334535D01*
X130165489Y-81334538D01*
X130188277Y-81357326D01*
X130208154Y-81367454D01*
X130225011Y-81377784D01*
X130243071Y-81390905D01*
X130252504Y-81393970D01*
X130264295Y-81397801D01*
X130282561Y-81405366D01*
X130302445Y-81415498D01*
X130312238Y-81417049D01*
X130324487Y-81418989D01*
X130343713Y-81423605D01*
X130355500Y-81427435D01*
X130355502Y-81427435D01*
X130364934Y-81430500D01*
X130614254Y-81430500D01*
X130682375Y-81450502D01*
X130699050Y-81463304D01*
X130773551Y-81531094D01*
X130802932Y-81557828D01*
X130809076Y-81563419D01*
X130948293Y-81639008D01*
X131101522Y-81679207D01*
X131185477Y-81680526D01*
X131252319Y-81681576D01*
X131252322Y-81681576D01*
X131259916Y-81681695D01*
X131414332Y-81646329D01*
X131468652Y-81619009D01*
X131492886Y-81606821D01*
X131562731Y-81594083D01*
X131628375Y-81621127D01*
X131668976Y-81679368D01*
X131675500Y-81719386D01*
X131675500Y-88594989D01*
X131655498Y-88663110D01*
X131601842Y-88709603D01*
X131588541Y-88714172D01*
X131588552Y-88714202D01*
X131453236Y-88764929D01*
X131446057Y-88770309D01*
X131446054Y-88770311D01*
X131387096Y-88814498D01*
X131337596Y-88851596D01*
X131332215Y-88858776D01*
X131256311Y-88960054D01*
X131256309Y-88960057D01*
X131250929Y-88967236D01*
X131200202Y-89102552D01*
X131193500Y-89164244D01*
X131193500Y-90159756D01*
X131200202Y-90221448D01*
X131250929Y-90356764D01*
X131256309Y-90363943D01*
X131256311Y-90363946D01*
X131276962Y-90391500D01*
X131337596Y-90472404D01*
X131344776Y-90477785D01*
X131446054Y-90553689D01*
X131446057Y-90553691D01*
X131453236Y-90559071D01*
X131541673Y-90592224D01*
X131581157Y-90607026D01*
X131581159Y-90607026D01*
X131588552Y-90609798D01*
X131596402Y-90610651D01*
X131596403Y-90610651D01*
X131646847Y-90616131D01*
X131650244Y-90616500D01*
X132445756Y-90616500D01*
X132449153Y-90616131D01*
X132499597Y-90610651D01*
X132499598Y-90610651D01*
X132507448Y-90609798D01*
X132514841Y-90607026D01*
X132514843Y-90607026D01*
X132554327Y-90592224D01*
X132642764Y-90559071D01*
X132649943Y-90553691D01*
X132649946Y-90553689D01*
X132751224Y-90477785D01*
X132758404Y-90472404D01*
X132819038Y-90391500D01*
X132839689Y-90363946D01*
X132839691Y-90363943D01*
X132845071Y-90356764D01*
X132895798Y-90221448D01*
X132902500Y-90159756D01*
X132902500Y-89164244D01*
X132895798Y-89102552D01*
X132845071Y-88967236D01*
X132839691Y-88960057D01*
X132839689Y-88960054D01*
X132763785Y-88858776D01*
X132758404Y-88851596D01*
X132708904Y-88814498D01*
X132649946Y-88770311D01*
X132649943Y-88770309D01*
X132642764Y-88764929D01*
X132566270Y-88736253D01*
X132509506Y-88693611D01*
X132484806Y-88627050D01*
X132484500Y-88618271D01*
X132484500Y-83624512D01*
X132504502Y-83556391D01*
X132558158Y-83509898D01*
X132628432Y-83499794D01*
X132670622Y-83513781D01*
X132726293Y-83544008D01*
X132879522Y-83584207D01*
X132963477Y-83585526D01*
X133030319Y-83586576D01*
X133030322Y-83586576D01*
X133037916Y-83586695D01*
X133045320Y-83584999D01*
X133045322Y-83584999D01*
X133088819Y-83575037D01*
X133159686Y-83579326D01*
X133216984Y-83621248D01*
X133240525Y-83673272D01*
X133252266Y-83732301D01*
X133308516Y-83816484D01*
X133392699Y-83872734D01*
X133466933Y-83887500D01*
X134491834Y-83887500D01*
X135517066Y-83887499D01*
X135552818Y-83880388D01*
X135579126Y-83875156D01*
X135579128Y-83875155D01*
X135591301Y-83872734D01*
X135601621Y-83865839D01*
X135601622Y-83865838D01*
X135665168Y-83823377D01*
X135675484Y-83816484D01*
X135731734Y-83732301D01*
X135746500Y-83658067D01*
X135746500Y-83334042D01*
X135766502Y-83265921D01*
X135790251Y-83238590D01*
X135801430Y-83228958D01*
X135807283Y-83223915D01*
X135807285Y-83223913D01*
X135814082Y-83218056D01*
X135818965Y-83210523D01*
X135824699Y-83203949D01*
X135833926Y-83192545D01*
X136793386Y-82233085D01*
X136855698Y-82199059D01*
X136926513Y-82204124D01*
X136971576Y-82233085D01*
X136973715Y-82235224D01*
X136979096Y-82242404D01*
X136986276Y-82247785D01*
X137087554Y-82323689D01*
X137087557Y-82323691D01*
X137094736Y-82329071D01*
X137149589Y-82349634D01*
X137222657Y-82377026D01*
X137222659Y-82377026D01*
X137230052Y-82379798D01*
X137237902Y-82380651D01*
X137237903Y-82380651D01*
X137284380Y-82385700D01*
X137291744Y-82386500D01*
X138062256Y-82386500D01*
X138069620Y-82385700D01*
X138116097Y-82380651D01*
X138116098Y-82380651D01*
X138123948Y-82379798D01*
X138131341Y-82377026D01*
X138131343Y-82377026D01*
X138204411Y-82349634D01*
X138259264Y-82329071D01*
X138266443Y-82323691D01*
X138266446Y-82323689D01*
X138367724Y-82247785D01*
X138374904Y-82242404D01*
X138435152Y-82162015D01*
X138456189Y-82133946D01*
X138456191Y-82133943D01*
X138461571Y-82126764D01*
X138512298Y-81991448D01*
X138519000Y-81929756D01*
X138519000Y-80884244D01*
X138512298Y-80822552D01*
X138509525Y-80815153D01*
X138481246Y-80739720D01*
X138461571Y-80687236D01*
X138456191Y-80680057D01*
X138456189Y-80680054D01*
X138380285Y-80578776D01*
X138374904Y-80571596D01*
X138259264Y-80484929D01*
X138250854Y-80481776D01*
X138246992Y-80479662D01*
X138196846Y-80429404D01*
X138181500Y-80369141D01*
X138181500Y-80153932D01*
X138201502Y-80085811D01*
X138245401Y-80044894D01*
X138250264Y-80043071D01*
X138365904Y-79956404D01*
X138381213Y-79935977D01*
X138447189Y-79847946D01*
X138447191Y-79847943D01*
X138452571Y-79840764D01*
X138489364Y-79742617D01*
X138500526Y-79712843D01*
X138500526Y-79712841D01*
X138503298Y-79705448D01*
X138510000Y-79643756D01*
X138510000Y-78598244D01*
X138503298Y-78536552D01*
X138461833Y-78425941D01*
X138461518Y-78425102D01*
X138453500Y-78380873D01*
X138453500Y-72198934D01*
X138446605Y-72177713D01*
X138441989Y-72158487D01*
X138440049Y-72146238D01*
X138438498Y-72136445D01*
X138428366Y-72116561D01*
X138420801Y-72098295D01*
X138416970Y-72086504D01*
X138413905Y-72077071D01*
X138400784Y-72059011D01*
X138390454Y-72042154D01*
X138384829Y-72031115D01*
X138380326Y-72022277D01*
X138357538Y-71999489D01*
X138357535Y-71999485D01*
X136407515Y-70049465D01*
X136407511Y-70049462D01*
X136384723Y-70026674D01*
X136364844Y-70016545D01*
X136347989Y-70006216D01*
X136337953Y-69998925D01*
X136329929Y-69993095D01*
X136308704Y-69986199D01*
X136290438Y-69978633D01*
X136270555Y-69968502D01*
X136248513Y-69965011D01*
X136229287Y-69960395D01*
X136217500Y-69956565D01*
X136217498Y-69956565D01*
X136208066Y-69953500D01*
X130521740Y-69953500D01*
X130453619Y-69933498D01*
X130432645Y-69916595D01*
X129862405Y-69346355D01*
X129828379Y-69284043D01*
X129825500Y-69257260D01*
X129825500Y-68706000D01*
X129845502Y-68637879D01*
X129899158Y-68591386D01*
X129951500Y-68580000D01*
X130516010Y-68580000D01*
X130540591Y-68582421D01*
X130556000Y-68585486D01*
X130568897Y-68582921D01*
X130593476Y-68580500D01*
X141097500Y-68580500D01*
X141165621Y-68600502D01*
X141212114Y-68654158D01*
X141223500Y-68706500D01*
X141223500Y-85883500D01*
X141203498Y-85951621D01*
X141149842Y-85998114D01*
X141097500Y-86009500D01*
X140018894Y-86009500D01*
X139968853Y-85999137D01*
X139859050Y-85951621D01*
X139824297Y-85936582D01*
X139624540Y-85894851D01*
X139619700Y-85894597D01*
X139619697Y-85894597D01*
X139619641Y-85894594D01*
X139617842Y-85894500D01*
X135609915Y-85894500D01*
X135585334Y-85892079D01*
X135523135Y-85879707D01*
X135517067Y-85878500D01*
X134492166Y-85878500D01*
X133466934Y-85878501D01*
X133431182Y-85885612D01*
X133404874Y-85890844D01*
X133404872Y-85890845D01*
X133392699Y-85893266D01*
X133382379Y-85900161D01*
X133382378Y-85900162D01*
X133321985Y-85940516D01*
X133308516Y-85949516D01*
X133252266Y-86033699D01*
X133237500Y-86107933D01*
X133237501Y-87658066D01*
X133252266Y-87732301D01*
X133259161Y-87742621D01*
X133259162Y-87742622D01*
X133289817Y-87788499D01*
X133308516Y-87816484D01*
X133392699Y-87872734D01*
X133466933Y-87887500D01*
X134314531Y-87887500D01*
X134340288Y-87890161D01*
X134402460Y-87903149D01*
X134407300Y-87903403D01*
X134407303Y-87903403D01*
X134407359Y-87903406D01*
X134409158Y-87903500D01*
X139569997Y-87903500D01*
X139618216Y-87898602D01*
X139715676Y-87888703D01*
X139715678Y-87888703D01*
X139722024Y-87888058D01*
X139855290Y-87846295D01*
X139910664Y-87828942D01*
X139910666Y-87828941D01*
X139916755Y-87827033D01*
X139957771Y-87804297D01*
X140018858Y-87788499D01*
X141097500Y-87788499D01*
X141165621Y-87808501D01*
X141212114Y-87862157D01*
X141223500Y-87914499D01*
X141223500Y-95758500D01*
X141203498Y-95826621D01*
X141149842Y-95873114D01*
X141097500Y-95884500D01*
X114045500Y-95884500D01*
X113977379Y-95864498D01*
X113930886Y-95810842D01*
X113919500Y-95758500D01*
X113919500Y-81570029D01*
X113939502Y-81501908D01*
X113993158Y-81455415D01*
X114063432Y-81445311D01*
X114128012Y-81474805D01*
X114163729Y-81528673D01*
X114164502Y-81533555D01*
X114169005Y-81542392D01*
X114174633Y-81553438D01*
X114182199Y-81571704D01*
X114189095Y-81592929D01*
X114194925Y-81600953D01*
X114202216Y-81610989D01*
X114212545Y-81627844D01*
X114222674Y-81647723D01*
X114245462Y-81670511D01*
X114245465Y-81670515D01*
X115766485Y-83191535D01*
X115766489Y-83191538D01*
X115789277Y-83214326D01*
X115807200Y-83223458D01*
X115809160Y-83224457D01*
X115826017Y-83234787D01*
X115844071Y-83247904D01*
X115853501Y-83250968D01*
X115853503Y-83250969D01*
X115865295Y-83254801D01*
X115883557Y-83262365D01*
X115894606Y-83267995D01*
X115894610Y-83267996D01*
X115903445Y-83272498D01*
X115913243Y-83274050D01*
X115913244Y-83274050D01*
X115919363Y-83275019D01*
X115925483Y-83275988D01*
X115944714Y-83280605D01*
X115965934Y-83287500D01*
X117111501Y-83287500D01*
X117179622Y-83307502D01*
X117226115Y-83361158D01*
X117237501Y-83413500D01*
X117237501Y-83658066D01*
X117252266Y-83732301D01*
X117306188Y-83813000D01*
X117327402Y-83880750D01*
X117306188Y-83953000D01*
X117252266Y-84033699D01*
X117237500Y-84107933D01*
X117237500Y-84305500D01*
X117217498Y-84373621D01*
X117163842Y-84420114D01*
X117111500Y-84431500D01*
X116782906Y-84431500D01*
X116714785Y-84411498D01*
X116699087Y-84399577D01*
X116674306Y-84377498D01*
X116581275Y-84294611D01*
X116573889Y-84290700D01*
X116447988Y-84224039D01*
X116447989Y-84224039D01*
X116441274Y-84220484D01*
X116287633Y-84181892D01*
X116280034Y-84181852D01*
X116280033Y-84181852D01*
X116214181Y-84181507D01*
X116129221Y-84181062D01*
X116121841Y-84182834D01*
X116121839Y-84182834D01*
X115982563Y-84216271D01*
X115982560Y-84216272D01*
X115975184Y-84218043D01*
X115834414Y-84290700D01*
X115715039Y-84394838D01*
X115623950Y-84524444D01*
X115566406Y-84672037D01*
X115545729Y-84829096D01*
X115563113Y-84986553D01*
X115617553Y-85135319D01*
X115621789Y-85141622D01*
X115621789Y-85141623D01*
X115690994Y-85244610D01*
X115705908Y-85266805D01*
X115711527Y-85271918D01*
X115711528Y-85271919D01*
X115815472Y-85366500D01*
X115823076Y-85373419D01*
X115962293Y-85449008D01*
X116115522Y-85489207D01*
X116199477Y-85490526D01*
X116266319Y-85491576D01*
X116266322Y-85491576D01*
X116273916Y-85491695D01*
X116428332Y-85456329D01*
X116498742Y-85420917D01*
X116563072Y-85388563D01*
X116563075Y-85388561D01*
X116569855Y-85385151D01*
X116575626Y-85380222D01*
X116575629Y-85380220D01*
X116684537Y-85287203D01*
X116690314Y-85282269D01*
X116691855Y-85280125D01*
X116750875Y-85244610D01*
X116782793Y-85240500D01*
X117111501Y-85240500D01*
X117179622Y-85260502D01*
X117226115Y-85314158D01*
X117237501Y-85366500D01*
X117237501Y-85658066D01*
X117252266Y-85732301D01*
X117308516Y-85816484D01*
X117392699Y-85872734D01*
X117466933Y-85887500D01*
X118491834Y-85887500D01*
X119517066Y-85887499D01*
X119552818Y-85880388D01*
X119579126Y-85875156D01*
X119579128Y-85875155D01*
X119591301Y-85872734D01*
X119594325Y-85870713D01*
X119658872Y-85863774D01*
X119722359Y-85895554D01*
X119758586Y-85956612D01*
X119762500Y-85987772D01*
X119762500Y-87547616D01*
X119742498Y-87615737D01*
X119725595Y-87636711D01*
X119386711Y-87975595D01*
X119324399Y-88009621D01*
X119297616Y-88012500D01*
X117782925Y-88012500D01*
X117758967Y-88009950D01*
X117757308Y-88009872D01*
X117747124Y-88007679D01*
X117736782Y-88008903D01*
X117736779Y-88008903D01*
X117713779Y-88011626D01*
X117707848Y-88011976D01*
X117707856Y-88012072D01*
X117702680Y-88012500D01*
X117697476Y-88012500D01*
X117678412Y-88015673D01*
X117672566Y-88016504D01*
X117661117Y-88017859D01*
X117621659Y-88022530D01*
X117613407Y-88026493D01*
X117604374Y-88027996D01*
X117595205Y-88032943D01*
X117595203Y-88032944D01*
X117559268Y-88052334D01*
X117553976Y-88055031D01*
X117507768Y-88077219D01*
X117503493Y-88080813D01*
X117501568Y-88082738D01*
X117499638Y-88084509D01*
X117499553Y-88084555D01*
X117499441Y-88084432D01*
X117498906Y-88084904D01*
X117493186Y-88087990D01*
X117486119Y-88095635D01*
X117456584Y-88127586D01*
X117453154Y-88131152D01*
X117387784Y-88196522D01*
X117369036Y-88211664D01*
X117367811Y-88212779D01*
X117359060Y-88218429D01*
X117352613Y-88226607D01*
X117352611Y-88226609D01*
X117338271Y-88244800D01*
X117334325Y-88249241D01*
X117334398Y-88249303D01*
X117331039Y-88253267D01*
X117327362Y-88256944D01*
X117316108Y-88272692D01*
X117312602Y-88277362D01*
X117280844Y-88317647D01*
X117277812Y-88326281D01*
X117272486Y-88333734D01*
X117269501Y-88343715D01*
X117257799Y-88382844D01*
X117255964Y-88388492D01*
X117238982Y-88436851D01*
X117238500Y-88442416D01*
X117238500Y-88445124D01*
X117238386Y-88447758D01*
X117238357Y-88447856D01*
X117238193Y-88447849D01*
X117238149Y-88448553D01*
X117236287Y-88454778D01*
X117236696Y-88465183D01*
X117238403Y-88508635D01*
X117238500Y-88513582D01*
X117238500Y-88723903D01*
X117218498Y-88792024D01*
X117164842Y-88838517D01*
X117156729Y-88841885D01*
X117125832Y-88853468D01*
X117023236Y-88891929D01*
X117016057Y-88897309D01*
X117016054Y-88897311D01*
X116932337Y-88960054D01*
X116907596Y-88978596D01*
X116902215Y-88985776D01*
X116826311Y-89087054D01*
X116826309Y-89087057D01*
X116820929Y-89094236D01*
X116770202Y-89229552D01*
X116769349Y-89237402D01*
X116769349Y-89237403D01*
X116767166Y-89257500D01*
X116763500Y-89291244D01*
X116763500Y-90286756D01*
X116770202Y-90348448D01*
X116820929Y-90483764D01*
X116826309Y-90490943D01*
X116826311Y-90490946D01*
X116877368Y-90559071D01*
X116907596Y-90599404D01*
X116914776Y-90604785D01*
X117016054Y-90680689D01*
X117016057Y-90680691D01*
X117023236Y-90686071D01*
X117109880Y-90718552D01*
X117151157Y-90734026D01*
X117151159Y-90734026D01*
X117158552Y-90736798D01*
X117166402Y-90737651D01*
X117166403Y-90737651D01*
X117216847Y-90743131D01*
X117220244Y-90743500D01*
X118015756Y-90743500D01*
X118019153Y-90743131D01*
X118069597Y-90737651D01*
X118069598Y-90737651D01*
X118077448Y-90736798D01*
X118084841Y-90734026D01*
X118084843Y-90734026D01*
X118126120Y-90718552D01*
X118212764Y-90686071D01*
X118219943Y-90680691D01*
X118219946Y-90680689D01*
X118321224Y-90604785D01*
X118328404Y-90599404D01*
X118358632Y-90559071D01*
X118409689Y-90490946D01*
X118409691Y-90490943D01*
X118415071Y-90483764D01*
X118465798Y-90348448D01*
X118472500Y-90286756D01*
X118472500Y-89291244D01*
X118468834Y-89257500D01*
X118466651Y-89237403D01*
X118466651Y-89237402D01*
X118465798Y-89229552D01*
X118415071Y-89094236D01*
X118409691Y-89087057D01*
X118409689Y-89087054D01*
X118328404Y-88978596D01*
X118329704Y-88977622D01*
X118300578Y-88924283D01*
X118305643Y-88853468D01*
X118348190Y-88796632D01*
X118414710Y-88771821D01*
X118423699Y-88771500D01*
X118812301Y-88771500D01*
X118880422Y-88791502D01*
X118926915Y-88845158D01*
X118937019Y-88915432D01*
X118908471Y-88977940D01*
X118907596Y-88978596D01*
X118902448Y-88985465D01*
X118826311Y-89087054D01*
X118826309Y-89087057D01*
X118820929Y-89094236D01*
X118770202Y-89229552D01*
X118769349Y-89237402D01*
X118769349Y-89237403D01*
X118767166Y-89257500D01*
X118763500Y-89291244D01*
X118763500Y-90286756D01*
X118770202Y-90348448D01*
X118820929Y-90483764D01*
X118826309Y-90490943D01*
X118826311Y-90490946D01*
X118877368Y-90559071D01*
X118907596Y-90599404D01*
X118914776Y-90604785D01*
X119016054Y-90680689D01*
X119016057Y-90680691D01*
X119023236Y-90686071D01*
X119031638Y-90689221D01*
X119039515Y-90693533D01*
X119038887Y-90694679D01*
X119088367Y-90731845D01*
X119113133Y-90799370D01*
X119113257Y-90801364D01*
X119113500Y-90809184D01*
X119113500Y-90825226D01*
X119114135Y-90829657D01*
X119114135Y-90829662D01*
X119114965Y-90835453D01*
X119115996Y-90845514D01*
X119118902Y-90892359D01*
X119121949Y-90900799D01*
X119122630Y-90904089D01*
X119126582Y-90919938D01*
X119127527Y-90923168D01*
X119128799Y-90932052D01*
X119132514Y-90940223D01*
X119148218Y-90974763D01*
X119152030Y-90984128D01*
X119164922Y-91019837D01*
X119164924Y-91019840D01*
X119167972Y-91028284D01*
X119173268Y-91035533D01*
X119174840Y-91038490D01*
X119183093Y-91052614D01*
X119184898Y-91055437D01*
X119188612Y-91063605D01*
X119218977Y-91098844D01*
X119219243Y-91099153D01*
X119225525Y-91107064D01*
X119233473Y-91117944D01*
X119244335Y-91128806D01*
X119250693Y-91135652D01*
X119282944Y-91173082D01*
X119290479Y-91177966D01*
X119297051Y-91183699D01*
X119308455Y-91192926D01*
X119925592Y-91810063D01*
X119959618Y-91872375D01*
X119956830Y-91936522D01*
X119946007Y-91971378D01*
X119922148Y-92172964D01*
X119935424Y-92375522D01*
X119936845Y-92381118D01*
X119936846Y-92381123D01*
X119957119Y-92460945D01*
X119985392Y-92572269D01*
X119987809Y-92577512D01*
X120025010Y-92658208D01*
X120070377Y-92756616D01*
X120187533Y-92922389D01*
X120332938Y-93064035D01*
X120501720Y-93176812D01*
X120507023Y-93179090D01*
X120507026Y-93179092D01*
X120595707Y-93217192D01*
X120688228Y-93256942D01*
X120761244Y-93273464D01*
X120880579Y-93300467D01*
X120880584Y-93300468D01*
X120886216Y-93301742D01*
X120891987Y-93301969D01*
X120891989Y-93301969D01*
X120951756Y-93304317D01*
X121089053Y-93309712D01*
X121189499Y-93295148D01*
X121284231Y-93281413D01*
X121284236Y-93281412D01*
X121289945Y-93280584D01*
X121295409Y-93278729D01*
X121295414Y-93278728D01*
X121476693Y-93217192D01*
X121476698Y-93217190D01*
X121482165Y-93215334D01*
X121659276Y-93116147D01*
X121721934Y-93064035D01*
X121810913Y-92990031D01*
X121815345Y-92986345D01*
X121945147Y-92830276D01*
X122044334Y-92653165D01*
X122046190Y-92647698D01*
X122046192Y-92647693D01*
X122107728Y-92466414D01*
X122107729Y-92466409D01*
X122109584Y-92460945D01*
X122110412Y-92455236D01*
X122110413Y-92455231D01*
X122138179Y-92263727D01*
X122138712Y-92260053D01*
X122140232Y-92202000D01*
X122121658Y-91999859D01*
X122120090Y-91994299D01*
X122068125Y-91810046D01*
X122068124Y-91810044D01*
X122066557Y-91804487D01*
X122055978Y-91783033D01*
X121979331Y-91627609D01*
X121976776Y-91622428D01*
X121855320Y-91459779D01*
X121706258Y-91321987D01*
X121701375Y-91318906D01*
X121701371Y-91318903D01*
X121539464Y-91216748D01*
X121534581Y-91213667D01*
X121346039Y-91138446D01*
X121340379Y-91137320D01*
X121340375Y-91137319D01*
X121152613Y-91099971D01*
X121152610Y-91099971D01*
X121146946Y-91098844D01*
X121141171Y-91098768D01*
X121141167Y-91098768D01*
X121039793Y-91097441D01*
X120943971Y-91096187D01*
X120938274Y-91097166D01*
X120938273Y-91097166D01*
X120747727Y-91129908D01*
X120677203Y-91121731D01*
X120637294Y-91094823D01*
X120323335Y-90780864D01*
X120289309Y-90718552D01*
X120294374Y-90647737D01*
X120322679Y-90603695D01*
X120328404Y-90599404D01*
X120358632Y-90559071D01*
X120409689Y-90490946D01*
X120409691Y-90490943D01*
X120415071Y-90483764D01*
X120465798Y-90348448D01*
X120472500Y-90286756D01*
X120472500Y-89291244D01*
X120468834Y-89257500D01*
X120466651Y-89237403D01*
X120466651Y-89237402D01*
X120465798Y-89229552D01*
X120415071Y-89094236D01*
X120409691Y-89087057D01*
X120409689Y-89087054D01*
X120333785Y-88985776D01*
X120328404Y-88978596D01*
X120303663Y-88960054D01*
X120219946Y-88897311D01*
X120219943Y-88897309D01*
X120212764Y-88891929D01*
X120110168Y-88853468D01*
X120084843Y-88843974D01*
X120084841Y-88843974D01*
X120077448Y-88841202D01*
X120069598Y-88840349D01*
X120069597Y-88840349D01*
X120019153Y-88834869D01*
X120019152Y-88834869D01*
X120015756Y-88834500D01*
X119905384Y-88834500D01*
X119837263Y-88814498D01*
X119790770Y-88760842D01*
X119780666Y-88690568D01*
X119810160Y-88625988D01*
X119816289Y-88619405D01*
X120372216Y-88063478D01*
X120390964Y-88048336D01*
X120392189Y-88047221D01*
X120400940Y-88041571D01*
X120407387Y-88033393D01*
X120407389Y-88033391D01*
X120421729Y-88015200D01*
X120425675Y-88010759D01*
X120425602Y-88010697D01*
X120428961Y-88006733D01*
X120432638Y-88003056D01*
X120443892Y-87987308D01*
X120447398Y-87982638D01*
X120479156Y-87942353D01*
X120482188Y-87933719D01*
X120487514Y-87926266D01*
X120502203Y-87877150D01*
X120504036Y-87871508D01*
X120518390Y-87830633D01*
X120518390Y-87830632D01*
X120521018Y-87823149D01*
X120521500Y-87817584D01*
X120521500Y-87814876D01*
X120521614Y-87812242D01*
X120521643Y-87812144D01*
X120521807Y-87812151D01*
X120521851Y-87811447D01*
X120523713Y-87805222D01*
X120521597Y-87751365D01*
X120521500Y-87746418D01*
X120521500Y-80219384D01*
X120541502Y-80151263D01*
X120558405Y-80130289D01*
X123437289Y-77251405D01*
X123499601Y-77217379D01*
X123526384Y-77214500D01*
X124114141Y-77214500D01*
X124182262Y-77234502D01*
X124209522Y-77258169D01*
X124210672Y-77259501D01*
X124214908Y-77265805D01*
X124220525Y-77270916D01*
X124266482Y-77312733D01*
X124332076Y-77372419D01*
X124471293Y-77448008D01*
X124624522Y-77488207D01*
X124708477Y-77489526D01*
X124775319Y-77490576D01*
X124775322Y-77490576D01*
X124782916Y-77490695D01*
X124937332Y-77455329D01*
X125041213Y-77403083D01*
X125072072Y-77387563D01*
X125072075Y-77387561D01*
X125078855Y-77384151D01*
X125084626Y-77379222D01*
X125084629Y-77379220D01*
X125193536Y-77286204D01*
X125193536Y-77286203D01*
X125199314Y-77281269D01*
X125291755Y-77152624D01*
X125350842Y-77005641D01*
X125373162Y-76848807D01*
X125373307Y-76835000D01*
X125354276Y-76677733D01*
X125298280Y-76529546D01*
X125274767Y-76495334D01*
X125212855Y-76405251D01*
X125212854Y-76405249D01*
X125208553Y-76398992D01*
X125090275Y-76293611D01*
X125082889Y-76289700D01*
X125038781Y-76266346D01*
X124950274Y-76219484D01*
X124796633Y-76180892D01*
X124789034Y-76180852D01*
X124789033Y-76180852D01*
X124723181Y-76180507D01*
X124638221Y-76180062D01*
X124630841Y-76181834D01*
X124630839Y-76181834D01*
X124491563Y-76215271D01*
X124491560Y-76215272D01*
X124484184Y-76217043D01*
X124343414Y-76289700D01*
X124224039Y-76393838D01*
X124219672Y-76400051D01*
X124219667Y-76400057D01*
X124218336Y-76401951D01*
X124217013Y-76403005D01*
X124214589Y-76405697D01*
X124214140Y-76405293D01*
X124162802Y-76446183D01*
X124115250Y-76455500D01*
X123370920Y-76455500D01*
X123346972Y-76452951D01*
X123345307Y-76452872D01*
X123335124Y-76450680D01*
X123324783Y-76451904D01*
X123301777Y-76454627D01*
X123295846Y-76454977D01*
X123295854Y-76455072D01*
X123290676Y-76455500D01*
X123285476Y-76455500D01*
X123280347Y-76456354D01*
X123280344Y-76456354D01*
X123266435Y-76458669D01*
X123260557Y-76459506D01*
X123219999Y-76464306D01*
X123219998Y-76464306D01*
X123209659Y-76465530D01*
X123201407Y-76469493D01*
X123192374Y-76470996D01*
X123183205Y-76475943D01*
X123183203Y-76475944D01*
X123147268Y-76495334D01*
X123141975Y-76498031D01*
X123102918Y-76516785D01*
X123102914Y-76516788D01*
X123095768Y-76520219D01*
X123091492Y-76523814D01*
X123089569Y-76525737D01*
X123087637Y-76527509D01*
X123087558Y-76527552D01*
X123087445Y-76527428D01*
X123086905Y-76527904D01*
X123081186Y-76530990D01*
X123074119Y-76538635D01*
X123044584Y-76570586D01*
X123041154Y-76574152D01*
X119961595Y-79653711D01*
X119899283Y-79687737D01*
X119828468Y-79682672D01*
X119771632Y-79640125D01*
X119746821Y-79573605D01*
X119746500Y-79564616D01*
X119746499Y-78114123D01*
X119746499Y-78107934D01*
X119738564Y-78068037D01*
X119734156Y-78045874D01*
X119734155Y-78045872D01*
X119731734Y-78033699D01*
X119677812Y-77953000D01*
X119656598Y-77885250D01*
X119677812Y-77813000D01*
X119731734Y-77732301D01*
X119746500Y-77658067D01*
X119746499Y-76107934D01*
X119731734Y-76033699D01*
X119677812Y-75953000D01*
X119656598Y-75885250D01*
X119677812Y-75813000D01*
X119731734Y-75732301D01*
X119746500Y-75658067D01*
X119746499Y-74107934D01*
X119737302Y-74061695D01*
X119734156Y-74045874D01*
X119734155Y-74045872D01*
X119731734Y-74033699D01*
X119675484Y-73949516D01*
X119591301Y-73893266D01*
X119517067Y-73878500D01*
X118492166Y-73878500D01*
X117466934Y-73878501D01*
X117428105Y-73886224D01*
X117357392Y-73879894D01*
X117314433Y-73851739D01*
X117022143Y-73559449D01*
X116988117Y-73497137D01*
X116986495Y-73452601D01*
X116990581Y-73423892D01*
X116990581Y-73423886D01*
X116991162Y-73419807D01*
X116991307Y-73406000D01*
X116972276Y-73248733D01*
X116916280Y-73100546D01*
X116826553Y-72969992D01*
X116708275Y-72864611D01*
X116700889Y-72860700D01*
X116574988Y-72794039D01*
X116574989Y-72794039D01*
X116568274Y-72790484D01*
X116414633Y-72751892D01*
X116407034Y-72751852D01*
X116407033Y-72751852D01*
X116341181Y-72751507D01*
X116256221Y-72751062D01*
X116248841Y-72752834D01*
X116248839Y-72752834D01*
X116109563Y-72786271D01*
X116109560Y-72786272D01*
X116102184Y-72788043D01*
X115961414Y-72860700D01*
X115842039Y-72964838D01*
X115750950Y-73094444D01*
X115693406Y-73242037D01*
X115672729Y-73399096D01*
X115675016Y-73419807D01*
X115685518Y-73514930D01*
X115690113Y-73556553D01*
X115692723Y-73563684D01*
X115692723Y-73563686D01*
X115729483Y-73664137D01*
X115744553Y-73705319D01*
X115748789Y-73711622D01*
X115748789Y-73711623D01*
X115816910Y-73812997D01*
X115832908Y-73836805D01*
X115838527Y-73841918D01*
X115838528Y-73841919D01*
X115894958Y-73893266D01*
X115950076Y-73943419D01*
X116089293Y-74019008D01*
X116145292Y-74033699D01*
X116193487Y-74046343D01*
X116254302Y-74082977D01*
X116285657Y-74146674D01*
X116277598Y-74217212D01*
X116232682Y-74272195D01*
X116190928Y-74290737D01*
X116158622Y-74298493D01*
X116109563Y-74310271D01*
X116109560Y-74310272D01*
X116102184Y-74312043D01*
X115961414Y-74384700D01*
X115842039Y-74488838D01*
X115750950Y-74618444D01*
X115693406Y-74766037D01*
X115692414Y-74773570D01*
X115692414Y-74773571D01*
X115679500Y-74871666D01*
X115672729Y-74923096D01*
X115690113Y-75080553D01*
X115744553Y-75229319D01*
X115748786Y-75235619D01*
X115748791Y-75235628D01*
X115759187Y-75251098D01*
X115780579Y-75318795D01*
X115761975Y-75387311D01*
X115709281Y-75434892D01*
X115639229Y-75446431D01*
X115623910Y-75443577D01*
X115533004Y-75420743D01*
X115533000Y-75420743D01*
X115525633Y-75418892D01*
X115518034Y-75418852D01*
X115518033Y-75418852D01*
X115452181Y-75418507D01*
X115367221Y-75418062D01*
X115359841Y-75419834D01*
X115359839Y-75419834D01*
X115220563Y-75453271D01*
X115220560Y-75453272D01*
X115213184Y-75455043D01*
X115072414Y-75527700D01*
X114953039Y-75631838D01*
X114861950Y-75761444D01*
X114848672Y-75795500D01*
X114815435Y-75880750D01*
X114804406Y-75909037D01*
X114803414Y-75916570D01*
X114803414Y-75916571D01*
X114786392Y-76045872D01*
X114783729Y-76066096D01*
X114792068Y-76141628D01*
X114800199Y-76215271D01*
X114801113Y-76223553D01*
X114803723Y-76230684D01*
X114803723Y-76230686D01*
X114848110Y-76351979D01*
X114855553Y-76372319D01*
X114859786Y-76378619D01*
X114859791Y-76378628D01*
X114870187Y-76394098D01*
X114891579Y-76461795D01*
X114872975Y-76530311D01*
X114820281Y-76577892D01*
X114750229Y-76589431D01*
X114734910Y-76586577D01*
X114644004Y-76563743D01*
X114644000Y-76563743D01*
X114636633Y-76561892D01*
X114629034Y-76561852D01*
X114629033Y-76561852D01*
X114563181Y-76561507D01*
X114478221Y-76561062D01*
X114470841Y-76562834D01*
X114470839Y-76562834D01*
X114331563Y-76596271D01*
X114331560Y-76596272D01*
X114324184Y-76598043D01*
X114183414Y-76670700D01*
X114177697Y-76675687D01*
X114177690Y-76675692D01*
X114128329Y-76718753D01*
X114063847Y-76748461D01*
X113993540Y-76738591D01*
X113939730Y-76692278D01*
X113919500Y-76623804D01*
X113919500Y-68706500D01*
X113939502Y-68638379D01*
X113993158Y-68591886D01*
X114045500Y-68580500D01*
X122898524Y-68580500D01*
X122923103Y-68582921D01*
X122936000Y-68585486D01*
X122948172Y-68583065D01*
X122951410Y-68582421D01*
X122975990Y-68580000D01*
X123100597Y-68580000D01*
X123168718Y-68600002D01*
G37*
G04 #@! TD.AperFunction*
G04 #@! TA.AperFunction,Conductor*
G36*
X132182380Y-76624502D02*
G01*
X132203354Y-76641404D01*
X132527595Y-76965644D01*
X132561620Y-77027957D01*
X132564500Y-77054740D01*
X132564500Y-77538628D01*
X132544498Y-77606749D01*
X132490842Y-77653242D01*
X132420568Y-77663346D01*
X132379545Y-77649984D01*
X132316274Y-77616484D01*
X132162633Y-77577892D01*
X132155034Y-77577852D01*
X132155033Y-77577852D01*
X132089181Y-77577507D01*
X132004221Y-77577062D01*
X131996841Y-77578834D01*
X131996839Y-77578834D01*
X131857563Y-77612271D01*
X131857560Y-77612272D01*
X131850184Y-77614043D01*
X131709414Y-77686700D01*
X131590039Y-77790838D01*
X131498950Y-77920444D01*
X131486256Y-77953003D01*
X131449139Y-78048204D01*
X131441406Y-78068037D01*
X131440414Y-78075570D01*
X131440414Y-78075571D01*
X131422212Y-78213834D01*
X131420729Y-78225096D01*
X131428201Y-78292776D01*
X131433987Y-78345179D01*
X131438113Y-78382553D01*
X131440723Y-78389684D01*
X131440723Y-78389686D01*
X131469058Y-78467114D01*
X131492553Y-78531319D01*
X131496789Y-78537622D01*
X131496789Y-78537623D01*
X131576674Y-78656505D01*
X131576677Y-78656508D01*
X131580908Y-78662805D01*
X131586522Y-78667913D01*
X131634300Y-78711388D01*
X131671222Y-78772029D01*
X131675500Y-78804582D01*
X131675500Y-80332628D01*
X131655498Y-80400749D01*
X131601842Y-80447242D01*
X131531568Y-80457346D01*
X131490545Y-80443984D01*
X131427274Y-80410484D01*
X131273633Y-80371892D01*
X131266034Y-80371852D01*
X131266033Y-80371852D01*
X131200181Y-80371507D01*
X131115221Y-80371062D01*
X131107841Y-80372834D01*
X131107839Y-80372834D01*
X130968563Y-80406271D01*
X130968560Y-80406272D01*
X130961184Y-80408043D01*
X130820414Y-80480700D01*
X130814697Y-80485687D01*
X130814690Y-80485692D01*
X130714347Y-80573227D01*
X130649865Y-80602935D01*
X130579558Y-80593065D01*
X130542423Y-80567373D01*
X128965405Y-78990355D01*
X128931379Y-78928043D01*
X128928500Y-78901260D01*
X128928500Y-78170378D01*
X128948502Y-78102257D01*
X128972669Y-78074567D01*
X129003536Y-78048204D01*
X129009314Y-78043269D01*
X129101755Y-77914624D01*
X129160842Y-77767641D01*
X129181775Y-77620553D01*
X129182581Y-77614891D01*
X129182581Y-77614888D01*
X129183162Y-77610807D01*
X129183307Y-77597000D01*
X129164276Y-77439733D01*
X129108280Y-77291546D01*
X129072510Y-77239500D01*
X129022855Y-77167251D01*
X129022854Y-77167249D01*
X129018553Y-77160992D01*
X129008717Y-77152228D01*
X128982260Y-77128656D01*
X128900275Y-77055611D01*
X128813619Y-77009729D01*
X128762776Y-76960176D01*
X128746795Y-76891002D01*
X128770749Y-76824168D01*
X128815966Y-76785810D01*
X128882069Y-76752565D01*
X128882075Y-76752561D01*
X128888855Y-76749151D01*
X128894626Y-76744222D01*
X128894629Y-76744220D01*
X129003537Y-76651203D01*
X129009314Y-76646269D01*
X129010855Y-76644125D01*
X129069875Y-76608610D01*
X129101793Y-76604500D01*
X132114259Y-76604500D01*
X132182380Y-76624502D01*
G37*
G04 #@! TD.AperFunction*
G04 #@! TA.AperFunction,Conductor*
G36*
X126791694Y-68600002D02*
G01*
X126838187Y-68653658D01*
X126848050Y-68700171D01*
X126848729Y-68700096D01*
X126866113Y-68857553D01*
X126868723Y-68864684D01*
X126868723Y-68864686D01*
X126908924Y-68974540D01*
X126920553Y-69006319D01*
X126924789Y-69012622D01*
X126924789Y-69012623D01*
X127004674Y-69131505D01*
X127004677Y-69131508D01*
X127008908Y-69137805D01*
X127014522Y-69142913D01*
X127062300Y-69186388D01*
X127099222Y-69247029D01*
X127103500Y-69279582D01*
X127103500Y-69787066D01*
X127106565Y-69796498D01*
X127106565Y-69796500D01*
X127110395Y-69808287D01*
X127115011Y-69827513D01*
X127118502Y-69849555D01*
X127123003Y-69858388D01*
X127128633Y-69869438D01*
X127136199Y-69887704D01*
X127143095Y-69908929D01*
X127148925Y-69916953D01*
X127156216Y-69926989D01*
X127166545Y-69943844D01*
X127176674Y-69963723D01*
X127199462Y-69986511D01*
X127199465Y-69986515D01*
X127955595Y-70742645D01*
X127989621Y-70804957D01*
X127992500Y-70831740D01*
X127992500Y-74356996D01*
X127972498Y-74425117D01*
X127949330Y-74451945D01*
X127907039Y-74488838D01*
X127902674Y-74495049D01*
X127882574Y-74523648D01*
X127837648Y-74562633D01*
X127830071Y-74565095D01*
X127812013Y-74578216D01*
X127795160Y-74588543D01*
X127775277Y-74598674D01*
X127752486Y-74621465D01*
X127072465Y-75301485D01*
X127072462Y-75301489D01*
X127049674Y-75324277D01*
X127044053Y-75335309D01*
X127039546Y-75344154D01*
X127029216Y-75361011D01*
X127016095Y-75379071D01*
X127013030Y-75388504D01*
X127009199Y-75400295D01*
X127001634Y-75418561D01*
X126991502Y-75438445D01*
X126989951Y-75448238D01*
X126988011Y-75460487D01*
X126983395Y-75479713D01*
X126983325Y-75479930D01*
X126976500Y-75500934D01*
X126976500Y-76316260D01*
X126956498Y-76384381D01*
X126902842Y-76430874D01*
X126832568Y-76440978D01*
X126767988Y-76411484D01*
X126761405Y-76405355D01*
X125917405Y-75561355D01*
X125883379Y-75499043D01*
X125880500Y-75472260D01*
X125880500Y-69153378D01*
X125900502Y-69085257D01*
X125924669Y-69057567D01*
X125955536Y-69031204D01*
X125961314Y-69026269D01*
X126053755Y-68897624D01*
X126112842Y-68750641D01*
X126119053Y-68707000D01*
X126121722Y-68688246D01*
X126151123Y-68623624D01*
X126210794Y-68585155D01*
X126246465Y-68580000D01*
X126723573Y-68580000D01*
X126791694Y-68600002D01*
G37*
G04 #@! TD.AperFunction*
G04 #@! TA.AperFunction,Conductor*
G36*
X128958621Y-68600002D02*
G01*
X129005114Y-68653658D01*
X129016500Y-68706000D01*
X129016500Y-69541066D01*
X129019565Y-69550498D01*
X129019565Y-69550500D01*
X129023395Y-69562287D01*
X129028011Y-69581513D01*
X129031502Y-69603555D01*
X129036003Y-69612388D01*
X129041633Y-69623438D01*
X129049199Y-69641704D01*
X129056095Y-69662929D01*
X129061925Y-69670953D01*
X129069216Y-69680989D01*
X129079545Y-69697844D01*
X129089674Y-69717723D01*
X129112462Y-69740511D01*
X129112465Y-69740515D01*
X130038485Y-70666535D01*
X130038489Y-70666538D01*
X130061277Y-70689326D01*
X130079200Y-70698458D01*
X130081160Y-70699457D01*
X130098017Y-70709787D01*
X130116071Y-70722904D01*
X130125501Y-70725968D01*
X130125503Y-70725969D01*
X130137295Y-70729801D01*
X130155557Y-70737365D01*
X130166606Y-70742995D01*
X130166610Y-70742996D01*
X130175445Y-70747498D01*
X130185243Y-70749050D01*
X130185244Y-70749050D01*
X130191363Y-70750019D01*
X130197483Y-70750988D01*
X130216714Y-70755605D01*
X130237934Y-70762500D01*
X135924260Y-70762500D01*
X135992381Y-70782502D01*
X136013355Y-70799405D01*
X137607595Y-72393645D01*
X137641621Y-72455957D01*
X137644500Y-72482740D01*
X137644500Y-74109628D01*
X137624498Y-74177749D01*
X137570842Y-74224242D01*
X137500568Y-74234346D01*
X137459545Y-74220984D01*
X137396274Y-74187484D01*
X137242633Y-74148892D01*
X137235034Y-74148852D01*
X137235033Y-74148852D01*
X137169181Y-74148507D01*
X137084221Y-74148062D01*
X137076841Y-74149834D01*
X137076839Y-74149834D01*
X136937563Y-74183271D01*
X136937560Y-74183272D01*
X136930184Y-74185043D01*
X136789414Y-74257700D01*
X136670039Y-74361838D01*
X136669198Y-74360874D01*
X136615349Y-74394050D01*
X136582157Y-74398500D01*
X135872499Y-74398500D01*
X135804378Y-74378498D01*
X135757885Y-74324842D01*
X135746499Y-74272500D01*
X135746499Y-74107934D01*
X135737302Y-74061695D01*
X135734156Y-74045874D01*
X135734155Y-74045872D01*
X135731734Y-74033699D01*
X135677812Y-73953000D01*
X135656598Y-73885250D01*
X135677812Y-73813000D01*
X135731734Y-73732301D01*
X135746500Y-73658067D01*
X135746499Y-72107934D01*
X135738765Y-72069047D01*
X135734156Y-72045874D01*
X135734155Y-72045872D01*
X135731734Y-72033699D01*
X135708876Y-71999489D01*
X135682377Y-71959832D01*
X135675484Y-71949516D01*
X135591301Y-71893266D01*
X135517067Y-71878500D01*
X134492166Y-71878500D01*
X133466934Y-71878501D01*
X133431182Y-71885612D01*
X133404874Y-71890844D01*
X133404872Y-71890845D01*
X133392699Y-71893266D01*
X133382379Y-71900161D01*
X133382378Y-71900162D01*
X133321985Y-71940516D01*
X133308516Y-71949516D01*
X133252266Y-72033699D01*
X133237500Y-72107933D01*
X133237501Y-73658066D01*
X133252266Y-73732301D01*
X133306188Y-73813000D01*
X133327402Y-73880750D01*
X133306188Y-73953000D01*
X133252266Y-74033699D01*
X133237500Y-74107933D01*
X133237501Y-75658066D01*
X133252266Y-75732301D01*
X133306188Y-75813000D01*
X133327402Y-75880750D01*
X133306188Y-75953000D01*
X133252266Y-76033699D01*
X133237500Y-76107933D01*
X133237500Y-76227261D01*
X133217498Y-76295382D01*
X133163842Y-76341875D01*
X133093568Y-76351979D01*
X133028988Y-76322485D01*
X133022423Y-76316374D01*
X132597515Y-75891465D01*
X132597511Y-75891462D01*
X132574723Y-75868674D01*
X132554844Y-75858545D01*
X132537989Y-75848216D01*
X132527953Y-75840925D01*
X132519929Y-75835095D01*
X132498704Y-75828199D01*
X132480438Y-75820633D01*
X132472295Y-75816484D01*
X132460555Y-75810502D01*
X132438513Y-75807011D01*
X132419287Y-75802395D01*
X132407500Y-75798565D01*
X132407498Y-75798565D01*
X132398066Y-75795500D01*
X129101906Y-75795500D01*
X129033785Y-75775498D01*
X129018087Y-75763577D01*
X128983263Y-75732550D01*
X128900275Y-75658611D01*
X128848968Y-75631445D01*
X128798128Y-75581895D01*
X128782146Y-75512720D01*
X128806100Y-75445887D01*
X128826099Y-75424283D01*
X128876531Y-75381209D01*
X128876536Y-75381204D01*
X128882314Y-75376269D01*
X128974755Y-75247624D01*
X129033842Y-75100641D01*
X129056162Y-74943807D01*
X129056307Y-74930000D01*
X129037276Y-74772733D01*
X128981280Y-74624546D01*
X128939298Y-74563461D01*
X128895855Y-74500251D01*
X128895854Y-74500249D01*
X128891553Y-74493992D01*
X128880167Y-74483847D01*
X128843681Y-74451340D01*
X128806126Y-74391090D01*
X128801500Y-74357263D01*
X128801500Y-70547934D01*
X128794605Y-70526713D01*
X128789989Y-70507487D01*
X128788049Y-70495238D01*
X128786498Y-70485445D01*
X128776366Y-70465561D01*
X128768801Y-70447295D01*
X128764970Y-70435504D01*
X128761905Y-70426071D01*
X128748784Y-70408011D01*
X128738454Y-70391154D01*
X128732829Y-70380115D01*
X128728326Y-70371277D01*
X128705538Y-70348489D01*
X128705535Y-70348485D01*
X127949405Y-69592355D01*
X127915379Y-69530043D01*
X127912500Y-69503260D01*
X127912500Y-69280378D01*
X127932502Y-69212257D01*
X127956669Y-69184567D01*
X127987536Y-69158204D01*
X127993314Y-69153269D01*
X128085755Y-69024624D01*
X128144842Y-68877641D01*
X128167162Y-68720807D01*
X128167307Y-68707000D01*
X128168752Y-68707015D01*
X128183587Y-68643814D01*
X128234603Y-68594440D01*
X128293172Y-68580000D01*
X128890500Y-68580000D01*
X128958621Y-68600002D01*
G37*
G04 #@! TD.AperFunction*
M02*
